<?xml version="1.0" encoding="utf-8" standalone="no"?>
<!DOCTYPE svg PUBLIC "-//W3C//DTD SVG 1.1//EN"
  "http://www.w3.org/Graphics/SVG/1.1/DTD/svg11.dtd">
<svg xmlns:xlink="http://www.w3.org/1999/xlink" width="720pt" height="432pt" viewBox="0 0 720 432" xmlns="http://www.w3.org/2000/svg" version="1.1">
 <metadata>
  <rdf:RDF xmlns:dc="http://purl.org/dc/elements/1.1/" xmlns:cc="http://creativecommons.org/ns#" xmlns:rdf="http://www.w3.org/1999/02/22-rdf-syntax-ns#">
   <cc:Work>
    <dc:type rdf:resource="http://purl.org/dc/dcmitype/StillImage"/>
    <dc:date>2024-08-17T14:11:23.585253</dc:date>
    <dc:format>image/svg+xml</dc:format>
    <dc:creator>
     <cc:Agent>
      <dc:title>Matplotlib v3.8.0, https://matplotlib.org/</dc:title>
     </cc:Agent>
    </dc:creator>
   </cc:Work>
  </rdf:RDF>
 </metadata>
 <defs>
  <style type="text/css">*{stroke-linejoin: round; stroke-linecap: butt}</style>
 </defs>
 <g id="figure_1">
  <g id="patch_1">
   <path d="M 0 432 
L 720 432 
L 720 0 
L 0 0 
z
" style="fill: #ffffff"/>
  </g>
  <g id="axes_1">
   <g id="patch_2">
    <path d="M 90 384.48 
L 648 384.48 
L 648 51.84 
L 90 51.84 
z
" style="fill: #ffffff"/>
   </g>
   <g id="matplotlib.axis_1">
    <g id="xtick_1">
     <g id="line2d_1">
      <defs>
       <path id="m0c8d1d0c39" d="M 0 0 
L 0 3.5 
" style="stroke: #000000; stroke-width: 0.8"/>
      </defs>
      <g>
       <use xlink:href="#m0c8d1d0c39" x="112.448276" y="384.48" style="stroke: #000000; stroke-width: 0.8"/>
      </g>
     </g>
     <g id="text_1">
      <!-- 0 -->
      <g transform="translate(109.948276 398.355) scale(0.1 -0.1)">
       <defs>
        <path id="SimHei-30" d="M 225 2537 
Q 250 3200 412 3587 
Q 575 3975 875 4225 
Q 1175 4475 1612 4475 
Q 2050 4475 2375 4112 
Q 2700 3750 2800 3200 
Q 2900 2650 2862 1937 
Q 2825 1225 2612 775 
Q 2400 325 1975 150 
Q 1550 -25 1125 187 
Q 700 400 525 750 
Q 350 1100 275 1487 
Q 200 1875 225 2537 
z
M 750 2687 
Q 675 2000 800 1462 
Q 925 925 1212 700 
Q 1500 475 1800 612 
Q 2100 750 2237 1162 
Q 2375 1575 2375 2062 
Q 2375 2550 2337 2950 
Q 2300 3350 2112 3675 
Q 1925 4000 1612 4012 
Q 1300 4025 1062 3700 
Q 825 3375 750 2687 
z
" transform="scale(0.015625)"/>
       </defs>
       <use xlink:href="#SimHei-30"/>
      </g>
     </g>
    </g>
    <g id="xtick_2">
     <g id="line2d_2">
      <g>
       <use xlink:href="#m0c8d1d0c39" x="185.332288" y="384.48" style="stroke: #000000; stroke-width: 0.8"/>
      </g>
     </g>
     <g id="text_2">
      <!-- 25 -->
      <g transform="translate(180.332288 398.355) scale(0.1 -0.1)">
       <defs>
        <path id="SimHei-32" d="M 300 250 
Q 325 625 650 925 
Q 975 1225 1475 1862 
Q 1975 2500 2125 2850 
Q 2275 3200 2237 3450 
Q 2200 3700 2000 3862 
Q 1800 4025 1537 4000 
Q 1275 3975 1037 3800 
Q 800 3625 675 3275 
L 200 3350 
Q 400 3925 712 4187 
Q 1025 4450 1450 4475 
Q 1700 4500 1900 4462 
Q 2100 4425 2312 4287 
Q 2525 4150 2662 3875 
Q 2800 3600 2762 3212 
Q 2725 2825 2375 2287 
Q 2025 1750 1025 600 
L 2825 600 
L 2825 150 
L 300 150 
L 300 250 
z
" transform="scale(0.015625)"/>
        <path id="SimHei-35" d="M 550 1325 
Q 725 650 1150 575 
Q 1575 500 1837 662 
Q 2100 825 2212 1087 
Q 2325 1350 2312 1675 
Q 2300 2000 2137 2225 
Q 1975 2450 1725 2525 
Q 1475 2600 1162 2525 
Q 850 2450 650 2175 
L 225 2225 
Q 275 2375 700 4375 
L 2675 4375 
L 2675 3925 
L 1075 3925 
Q 950 3250 825 2850 
Q 1200 3025 1525 3012 
Q 1850 3000 2150 2862 
Q 2450 2725 2587 2487 
Q 2725 2250 2787 2012 
Q 2850 1775 2837 1500 
Q 2825 1225 2725 937 
Q 2625 650 2425 462 
Q 2225 275 1937 162 
Q 1650 50 1275 75 
Q 900 100 562 350 
Q 225 600 100 1200 
L 550 1325 
z
" transform="scale(0.015625)"/>
       </defs>
       <use xlink:href="#SimHei-32"/>
       <use xlink:href="#SimHei-35" x="50"/>
      </g>
     </g>
    </g>
    <g id="xtick_3">
     <g id="line2d_3">
      <g>
       <use xlink:href="#m0c8d1d0c39" x="258.216301" y="384.48" style="stroke: #000000; stroke-width: 0.8"/>
      </g>
     </g>
     <g id="text_3">
      <!-- 50 -->
      <g transform="translate(253.216301 398.355) scale(0.1 -0.1)">
       <use xlink:href="#SimHei-35"/>
       <use xlink:href="#SimHei-30" x="50"/>
      </g>
     </g>
    </g>
    <g id="xtick_4">
     <g id="line2d_4">
      <g>
       <use xlink:href="#m0c8d1d0c39" x="331.100313" y="384.48" style="stroke: #000000; stroke-width: 0.8"/>
      </g>
     </g>
     <g id="text_4">
      <!-- 75 -->
      <g transform="translate(326.100313 398.355) scale(0.1 -0.1)">
       <defs>
        <path id="SimHei-37" d="M 850 150 
Q 1300 2050 2425 3925 
L 275 3925 
L 275 4375 
L 2950 4375 
L 2950 3950 
Q 1775 2050 1400 150 
L 850 150 
z
" transform="scale(0.015625)"/>
       </defs>
       <use xlink:href="#SimHei-37"/>
       <use xlink:href="#SimHei-35" x="50"/>
      </g>
     </g>
    </g>
    <g id="xtick_5">
     <g id="line2d_5">
      <g>
       <use xlink:href="#m0c8d1d0c39" x="403.984326" y="384.48" style="stroke: #000000; stroke-width: 0.8"/>
      </g>
     </g>
     <g id="text_5">
      <!-- 100 -->
      <g transform="translate(396.484326 398.355) scale(0.1 -0.1)">
       <defs>
        <path id="SimHei-31" d="M 1400 3600 
Q 1075 3275 575 2975 
L 575 3450 
Q 1200 3875 1600 4450 
L 1900 4450 
L 1900 150 
L 1400 150 
L 1400 3600 
z
" transform="scale(0.015625)"/>
       </defs>
       <use xlink:href="#SimHei-31"/>
       <use xlink:href="#SimHei-30" x="50"/>
       <use xlink:href="#SimHei-30" x="100"/>
      </g>
     </g>
    </g>
    <g id="xtick_6">
     <g id="line2d_6">
      <g>
       <use xlink:href="#m0c8d1d0c39" x="476.868339" y="384.48" style="stroke: #000000; stroke-width: 0.8"/>
      </g>
     </g>
     <g id="text_6">
      <!-- 125 -->
      <g transform="translate(469.368339 398.355) scale(0.1 -0.1)">
       <use xlink:href="#SimHei-31"/>
       <use xlink:href="#SimHei-32" x="50"/>
       <use xlink:href="#SimHei-35" x="100"/>
      </g>
     </g>
    </g>
    <g id="xtick_7">
     <g id="line2d_7">
      <g>
       <use xlink:href="#m0c8d1d0c39" x="549.752351" y="384.48" style="stroke: #000000; stroke-width: 0.8"/>
      </g>
     </g>
     <g id="text_7">
      <!-- 150 -->
      <g transform="translate(542.252351 398.355) scale(0.1 -0.1)">
       <use xlink:href="#SimHei-31"/>
       <use xlink:href="#SimHei-35" x="50"/>
       <use xlink:href="#SimHei-30" x="100"/>
      </g>
     </g>
    </g>
    <g id="xtick_8">
     <g id="line2d_8">
      <g>
       <use xlink:href="#m0c8d1d0c39" x="622.636364" y="384.48" style="stroke: #000000; stroke-width: 0.8"/>
      </g>
     </g>
     <g id="text_8">
      <!-- 175 -->
      <g transform="translate(615.136364 398.355) scale(0.1 -0.1)">
       <use xlink:href="#SimHei-31"/>
       <use xlink:href="#SimHei-37" x="50"/>
       <use xlink:href="#SimHei-35" x="100"/>
      </g>
     </g>
    </g>
    <g id="text_9">
     <!-- 周数 -->
     <g transform="translate(359 411.339375) scale(0.1 -0.1)">
      <defs>
       <path id="SimHei-5468" d="M 5600 4925 
Q 5575 4400 5575 3800 
L 5575 50 
Q 5550 -375 5325 -462 
Q 5100 -550 4325 -600 
Q 4300 -400 4125 -75 
Q 4800 -100 4962 -37 
Q 5125 25 5100 225 
L 5100 4525 
L 1500 4525 
Q 1500 2575 1450 1887 
Q 1400 1200 1237 550 
Q 1075 -100 775 -625 
Q 625 -450 275 -225 
Q 650 225 825 1000 
Q 1000 1775 1025 2587 
Q 1050 3400 1000 4925 
L 5600 4925 
z
M 2050 325 
Q 2075 625 2075 950 
L 2075 1400 
Q 2075 1625 2050 1925 
L 4400 1925 
Q 4375 1725 4375 1450 
L 4375 875 
Q 4375 600 4400 325 
L 2050 325 
z
M 3000 3800 
Q 3000 4150 2975 4375 
L 3475 4375 
Q 3450 4075 3450 3800 
Q 4100 3800 4475 3825 
L 4475 3350 
Q 4125 3375 3450 3375 
L 3450 2800 
Q 4200 2800 4825 2825 
L 4825 2350 
Q 4175 2375 3725 2375 
L 2750 2375 
Q 2325 2375 1725 2350 
L 1725 2825 
Q 2325 2800 3000 2800 
L 3000 3375 
Q 2500 3375 1975 3350 
L 1975 3825 
Q 2475 3800 3000 3800 
z
M 3900 725 
L 3900 1525 
L 2550 1525 
L 2550 725 
L 3900 725 
z
" transform="scale(0.015625)"/>
       <path id="SimHei-6570" d="M 4525 4925 
Q 4475 4800 4400 4587 
Q 4325 4375 4175 3825 
L 5325 3825 
Q 5575 3825 5925 3850 
L 5925 3400 
Q 5650 3425 5500 3425 
Q 5500 3025 5362 2162 
Q 5225 1300 4875 675 
Q 5125 375 5437 137 
Q 5750 -100 6025 -200 
Q 5725 -425 5625 -625 
Q 5325 -450 5075 -225 
Q 4825 0 4575 325 
Q 4300 25 3987 -187 
Q 3675 -400 3200 -650 
Q 3075 -425 2850 -300 
Q 3225 -150 3650 125 
Q 4075 400 4300 675 
Q 4125 1025 3962 1425 
Q 3800 1825 3675 2475 
Q 3600 2275 3425 1950 
Q 3250 2050 3000 2150 
Q 3400 2850 3650 3675 
Q 3900 4500 3975 5100 
Q 4275 4975 4525 4925 
z
M 2100 2250 
Q 2000 2150 1875 1925 
L 3250 1925 
Q 3100 1300 2725 675 
Q 3125 525 3350 400 
Q 3225 225 3125 25 
Q 2900 175 2450 325 
Q 1950 -225 725 -650 
Q 600 -375 400 -275 
Q 1575 0 2000 475 
Q 1300 650 850 775 
Q 1000 1000 1250 1525 
Q 1000 1525 425 1500 
L 425 1950 
Q 900 1925 1400 1925 
Q 1500 2150 1550 2425 
Q 1825 2325 2100 2250 
z
M 1775 3950 
Q 1775 4550 1750 5100 
L 2250 5100 
Q 2225 4575 2225 3950 
Q 3075 3950 3425 3975 
L 3425 3525 
Q 3075 3550 2225 3550 
Q 2225 2825 2250 2425 
L 1750 2425 
Q 1775 2775 1775 3300 
Q 1650 3100 1300 2787 
Q 950 2475 650 2300 
Q 525 2525 275 2625 
Q 500 2700 875 2975 
Q 1250 3250 1450 3550 
Q 950 3550 500 3525 
L 500 3975 
Q 925 3950 1775 3950 
z
M 3975 3175 
Q 4200 1700 4600 1125 
Q 4850 1700 4937 2287 
Q 5025 2875 5050 3425 
L 4075 3425 
L 3975 3175 
z
M 1450 1000 
Q 1750 925 2275 800 
Q 2475 1050 2650 1525 
L 1725 1525 
Q 1600 1275 1450 1000 
z
M 3325 4825 
Q 3200 4625 3125 4450 
Q 3050 4275 2925 4025 
Q 2725 4125 2525 4175 
Q 2725 4500 2900 5000 
Q 3150 4875 3325 4825 
z
M 2575 3375 
Q 2900 3050 3200 2725 
Q 3050 2600 2875 2425 
Q 2525 2850 2300 3100 
Q 2450 3225 2575 3375 
z
M 925 5000 
Q 1275 4650 1500 4300 
L 1125 4075 
Q 950 4425 600 4725 
Q 825 4875 925 5000 
z
" transform="scale(0.015625)"/>
      </defs>
      <use xlink:href="#SimHei-5468"/>
      <use xlink:href="#SimHei-6570" x="100"/>
     </g>
    </g>
   </g>
   <g id="matplotlib.axis_2">
    <g id="ytick_1">
     <g id="line2d_9">
      <defs>
       <path id="m8a201ac5ce" d="M 0 0 
L -3.5 0 
" style="stroke: #000000; stroke-width: 0.8"/>
      </defs>
      <g>
       <use xlink:href="#m8a201ac5ce" x="90" y="347.76" style="stroke: #000000; stroke-width: 0.8"/>
      </g>
     </g>
     <g id="text_10">
      <!-- 2 -->
      <g style="fill: #0000ff" transform="translate(78 351.1975) scale(0.1 -0.1)">
       <use xlink:href="#SimHei-32"/>
      </g>
     </g>
    </g>
    <g id="ytick_2">
     <g id="line2d_10">
      <g>
       <use xlink:href="#m8a201ac5ce" x="90" y="304.56" style="stroke: #000000; stroke-width: 0.8"/>
      </g>
     </g>
     <g id="text_11">
      <!-- 4 -->
      <g style="fill: #0000ff" transform="translate(78 307.9975) scale(0.1 -0.1)">
       <defs>
        <path id="SimHei-34" d="M 2000 1100 
L 75 1100 
L 75 1525 
L 2100 4450 
L 2475 4450 
L 2475 1525 
L 3075 1525 
L 3075 1100 
L 2475 1100 
L 2475 150 
L 2000 150 
L 2000 1100 
z
M 2000 1525 
L 2000 3500 
L 600 1525 
L 2000 1525 
z
" transform="scale(0.015625)"/>
       </defs>
       <use xlink:href="#SimHei-34"/>
      </g>
     </g>
    </g>
    <g id="ytick_3">
     <g id="line2d_11">
      <g>
       <use xlink:href="#m8a201ac5ce" x="90" y="261.36" style="stroke: #000000; stroke-width: 0.8"/>
      </g>
     </g>
     <g id="text_12">
      <!-- 6 -->
      <g style="fill: #0000ff" transform="translate(78 264.7975) scale(0.1 -0.1)">
       <defs>
        <path id="SimHei-36" d="M 250 1612 
Q 275 1975 387 2225 
Q 500 2475 725 2850 
L 1750 4450 
L 2325 4450 
L 1275 2800 
Q 1950 2975 2350 2750 
Q 2750 2525 2887 2237 
Q 3025 1950 3037 1612 
Q 3050 1275 2937 950 
Q 2825 625 2537 362 
Q 2250 100 1737 75 
Q 1225 50 862 262 
Q 500 475 362 862 
Q 225 1250 250 1612 
z
M 1025 787 
Q 1250 550 1625 525 
Q 2000 500 2250 775 
Q 2500 1050 2500 1575 
Q 2500 2100 2187 2300 
Q 1875 2500 1487 2450 
Q 1100 2400 925 2075 
Q 750 1750 775 1387 
Q 800 1025 1025 787 
z
" transform="scale(0.015625)"/>
       </defs>
       <use xlink:href="#SimHei-36"/>
      </g>
     </g>
    </g>
    <g id="ytick_4">
     <g id="line2d_12">
      <g>
       <use xlink:href="#m8a201ac5ce" x="90" y="218.16" style="stroke: #000000; stroke-width: 0.8"/>
      </g>
     </g>
     <g id="text_13">
      <!-- 8 -->
      <g style="fill: #0000ff" transform="translate(78 221.5975) scale(0.1 -0.1)">
       <defs>
        <path id="SimHei-38" d="M 175 1375 
Q 175 1675 325 1962 
Q 475 2250 825 2425 
Q 525 2600 425 2812 
Q 325 3025 312 3300 
Q 300 3575 387 3775 
Q 475 3975 650 4150 
Q 825 4325 1037 4387 
Q 1250 4450 1500 4450 
Q 1750 4450 1950 4400 
Q 2150 4350 2375 4187 
Q 2600 4025 2700 3725 
Q 2800 3425 2687 3025 
Q 2575 2625 2100 2400 
Q 2525 2275 2700 2012 
Q 2875 1750 2875 1375 
Q 2875 1000 2762 775 
Q 2650 550 2512 400 
Q 2375 250 2137 162 
Q 1900 75 1537 75 
Q 1175 75 912 162 
Q 650 250 475 425 
Q 300 600 237 837 
Q 175 1075 175 1375 
z
M 687 1400 
Q 675 1100 787 875 
Q 900 650 1200 587 
Q 1500 525 1825 600 
Q 2150 675 2275 950 
Q 2400 1225 2362 1500 
Q 2325 1775 2050 1962 
Q 1775 2150 1450 2125 
Q 1125 2100 912 1900 
Q 700 1700 687 1400 
z
M 775 3350 
Q 775 3100 950 2875 
Q 1125 2650 1500 2650 
Q 1875 2650 2062 2875 
Q 2250 3100 2237 3412 
Q 2225 3725 2012 3875 
Q 1800 4025 1437 4000 
Q 1075 3975 925 3787 
Q 775 3600 775 3350 
z
" transform="scale(0.015625)"/>
       </defs>
       <use xlink:href="#SimHei-38"/>
      </g>
     </g>
    </g>
    <g id="ytick_5">
     <g id="line2d_13">
      <g>
       <use xlink:href="#m8a201ac5ce" x="90" y="174.96" style="stroke: #000000; stroke-width: 0.8"/>
      </g>
     </g>
     <g id="text_14">
      <!-- 10 -->
      <g style="fill: #0000ff" transform="translate(73 178.3975) scale(0.1 -0.1)">
       <use xlink:href="#SimHei-31"/>
       <use xlink:href="#SimHei-30" x="50"/>
      </g>
     </g>
    </g>
    <g id="ytick_6">
     <g id="line2d_14">
      <g>
       <use xlink:href="#m8a201ac5ce" x="90" y="131.76" style="stroke: #000000; stroke-width: 0.8"/>
      </g>
     </g>
     <g id="text_15">
      <!-- 12 -->
      <g style="fill: #0000ff" transform="translate(73 135.1975) scale(0.1 -0.1)">
       <use xlink:href="#SimHei-31"/>
       <use xlink:href="#SimHei-32" x="50"/>
      </g>
     </g>
    </g>
    <g id="ytick_7">
     <g id="line2d_15">
      <g>
       <use xlink:href="#m8a201ac5ce" x="90" y="88.56" style="stroke: #000000; stroke-width: 0.8"/>
      </g>
     </g>
     <g id="text_16">
      <!-- 14 -->
      <g style="fill: #0000ff" transform="translate(73 91.9975) scale(0.1 -0.1)">
       <use xlink:href="#SimHei-31"/>
       <use xlink:href="#SimHei-34" x="50"/>
      </g>
     </g>
    </g>
    <g id="text_17">
     <!-- 需求量 -->
     <g style="fill: #0000ff" transform="translate(67.75 233.16) rotate(-90) scale(0.1 -0.1)">
      <defs>
       <path id="SimHei-9700" d="M 5150 2100 
Q 5500 2100 5975 2125 
L 5975 1700 
Q 5500 1725 5150 1725 
L 3425 1725 
Q 3300 1500 3250 1275 
L 5600 1275 
Q 5575 950 5575 700 
L 5575 -50 
Q 5575 -350 5425 -437 
Q 5275 -525 4775 -625 
Q 4750 -400 4550 -100 
Q 4950 -100 5025 -50 
Q 5100 0 5100 200 
L 5100 900 
L 4125 900 
L 4125 -375 
L 3650 -375 
L 3650 900 
L 2775 900 
L 2775 -375 
L 2300 -375 
L 2300 900 
L 1350 900 
L 1350 -575 
L 875 -575 
Q 900 -225 900 175 
L 900 575 
Q 900 900 875 1275 
L 2800 1275 
Q 2875 1500 2925 1725 
L 1350 1725 
Q 925 1725 525 1700 
L 525 2125 
Q 900 2100 1325 2100 
L 5150 2100 
z
M 4700 5075 
Q 5075 5075 5550 5100 
L 5550 4675 
Q 5075 4700 4700 4700 
L 3475 4700 
L 3475 4275 
L 5975 4275 
L 5975 3100 
L 5500 3100 
L 5500 3900 
L 3475 3900 
L 3475 3200 
Q 3475 2775 3500 2425 
L 2975 2425 
Q 3000 2750 3000 3175 
L 3000 3900 
L 950 3900 
L 950 3100 
L 450 3100 
Q 450 3375 462 3650 
Q 475 3925 450 4275 
L 3000 4275 
L 3000 4700 
L 1775 4700 
Q 1400 4700 1025 4675 
L 1025 5100 
Q 1400 5075 1750 5075 
L 4700 5075 
z
M 2475 2450 
L 1250 2450 
L 1250 2800 
L 2475 2800 
L 2475 2450 
z
M 2500 3150 
L 1325 3150 
L 1325 3500 
L 2500 3500 
L 2500 3150 
z
M 5000 3175 
L 3825 3175 
L 3825 3525 
L 5000 3525 
L 5000 3175 
z
M 5025 2500 
L 3850 2500 
L 3850 2850 
L 5025 2850 
L 5025 2500 
z
" transform="scale(0.015625)"/>
       <path id="SimHei-6c42" d="M 475 4025 
Q 875 4000 1325 4000 
L 2875 4000 
Q 2875 4725 2850 5125 
L 3400 5125 
Q 3375 4725 3375 4000 
L 5150 4000 
Q 5500 4000 5925 4025 
L 5925 3575 
Q 5475 3600 5150 3600 
L 3375 3600 
Q 3400 3200 3612 2750 
Q 3825 2300 4050 2000 
Q 4600 2450 5075 3150 
Q 5250 2950 5575 2750 
Q 5275 2600 4250 1650 
Q 4575 1225 5037 850 
Q 5500 475 6050 325 
Q 5700 125 5550 -150 
Q 5000 150 4437 687 
Q 3875 1225 3375 2375 
L 3375 150 
Q 3400 -225 3137 -350 
Q 2875 -475 2375 -525 
Q 2325 -275 2150 25 
Q 2575 0 2737 37 
Q 2900 75 2875 300 
L 2875 1675 
Q 1875 900 1437 550 
Q 1000 200 725 -50 
Q 500 200 300 400 
Q 650 575 1200 937 
Q 1750 1300 2875 2250 
L 2875 3600 
L 1325 3600 
Q 875 3600 475 3575 
L 475 4025 
z
M 1225 3175 
Q 1775 2725 2250 2325 
L 1825 1950 
Q 1450 2375 825 2825 
L 1225 3175 
z
M 4500 5100 
Q 4900 4825 5300 4425 
Q 5125 4300 4925 4100 
Q 4650 4400 4125 4825 
Q 4275 4950 4500 5100 
z
" transform="scale(0.015625)"/>
       <path id="SimHei-91cf" d="M 5250 2500 
Q 5225 2200 5225 1700 
Q 5225 1225 5250 950 
L 3425 950 
L 3425 625 
L 4575 625 
Q 5000 625 5375 650 
L 5375 275 
Q 5025 300 4575 300 
L 3425 300 
L 3425 -75 
L 5125 -75 
Q 5525 -75 5925 -50 
L 5925 -425 
Q 5525 -400 5125 -400 
L 1275 -400 
Q 900 -400 475 -425 
L 475 -50 
Q 925 -50 1275 -75 
L 2975 -75 
L 2975 300 
L 1725 300 
Q 1350 300 975 250 
L 975 650 
Q 1375 625 1725 625 
L 2975 625 
L 2975 950 
L 1150 950 
Q 1175 1375 1175 1775 
Q 1175 2175 1150 2500 
L 5250 2500 
z
M 5200 4950 
Q 5175 4575 5175 4250 
Q 5175 3925 5200 3400 
L 1200 3400 
Q 1225 3925 1225 4250 
Q 1225 4575 1200 4950 
L 5200 4950 
z
M 4900 3100 
Q 5500 3125 6000 3150 
L 6000 2750 
Q 5500 2775 4925 2775 
L 1650 2775 
Q 975 2775 325 2750 
L 325 3150 
Q 975 3125 1650 3100 
L 4900 3100 
z
M 4725 3700 
L 4725 4025 
L 1675 4025 
L 1675 3700 
L 4725 3700 
z
M 4725 4350 
L 4725 4650 
L 1675 4650 
L 1675 4350 
L 4725 4350 
z
M 4750 1875 
L 4750 2175 
L 3425 2175 
L 3425 1875 
L 4750 1875 
z
M 2975 1875 
L 2975 2175 
L 1650 2175 
L 1650 1875 
L 2975 1875 
z
M 2975 1275 
L 2975 1550 
L 1650 1550 
L 1650 1275 
L 2975 1275 
z
M 4750 1275 
L 4750 1550 
L 3425 1550 
L 3425 1275 
L 4750 1275 
z
" transform="scale(0.015625)"/>
      </defs>
      <use xlink:href="#SimHei-9700"/>
      <use xlink:href="#SimHei-6c42" x="100"/>
      <use xlink:href="#SimHei-91cf" x="200"/>
     </g>
    </g>
   </g>
   <g id="line2d_16">
    <path d="M 115.363636 282.96 
L 121.194357 282.96 
L 135.77116 347.76 
L 138.68652 369.36 
L 141.601881 282.96 
L 144.517241 326.16 
L 147.432602 347.76 
L 150.347962 326.16 
L 159.094044 282.96 
L 162.009404 347.76 
L 167.840125 261.36 
L 176.586207 347.76 
L 182.416928 347.76 
L 185.332288 369.36 
L 191.163009 326.16 
L 196.99373 218.16 
L 199.909091 304.56 
L 202.824451 196.56 
L 208.655172 347.76 
L 211.570533 369.36 
L 220.316614 326.16 
L 223.231975 347.76 
L 226.147335 369.36 
L 240.724138 304.56 
L 243.639498 282.96 
L 246.554859 261.36 
L 249.470219 369.36 
L 252.38558 326.16 
L 255.30094 347.76 
L 258.216301 261.36 
L 261.131661 326.16 
L 264.047022 347.76 
L 266.962382 282.96 
L 269.877743 326.16 
L 272.793103 282.96 
L 284.454545 347.76 
L 290.285266 282.96 
L 293.200627 261.36 
L 296.115987 347.76 
L 299.031348 174.96 
L 301.946708 66.96 
L 304.862069 88.56 
L 307.777429 196.56 
L 310.69279 282.96 
L 313.60815 239.76 
L 316.523511 347.76 
L 319.438871 110.16 
L 322.354232 304.56 
L 325.269592 174.96 
L 328.184953 261.36 
L 331.100313 261.36 
L 334.015674 196.56 
L 336.931034 369.36 
L 339.846395 347.76 
L 342.761755 261.36 
L 345.677116 326.16 
L 348.592476 326.16 
L 354.423197 282.96 
L 357.338558 282.96 
L 360.253918 347.76 
L 363.169279 347.76 
L 366.084639 304.56 
L 369 196.56 
L 371.915361 304.56 
L 374.830721 66.96 
L 377.746082 88.56 
L 380.661442 369.36 
L 383.576803 347.76 
L 386.492163 304.56 
L 389.407524 174.96 
L 395.238245 282.96 
L 398.153605 239.76 
L 401.068966 218.16 
L 406.899687 239.76 
L 409.815047 304.56 
L 412.730408 304.56 
L 415.645768 347.76 
L 421.476489 326.16 
L 424.39185 326.16 
L 427.30721 369.36 
L 430.222571 239.76 
L 441.884013 239.76 
L 444.799373 196.56 
L 447.714734 369.36 
L 450.630094 304.56 
L 459.376176 347.76 
L 462.291536 326.16 
L 465.206897 304.56 
L 468.122257 369.36 
L 471.037618 369.36 
L 476.868339 369.36 
L 479.783699 369.36 
L 482.69906 369.36 
L 488.529781 347.76 
L 506.021944 369.36 
L 508.937304 304.56 
L 511.852665 347.76 
L 514.768025 326.16 
L 517.683386 282.96 
L 529.344828 369.36 
L 538.090909 369.36 
L 541.00627 304.56 
L 543.92163 369.36 
L 546.836991 347.76 
L 549.752351 369.36 
L 552.667712 369.36 
L 561.413793 347.76 
L 564.329154 347.76 
L 570.159875 369.36 
L 573.075235 369.36 
L 578.905956 347.76 
L 581.821317 369.36 
L 587.652038 369.36 
L 590.567398 304.56 
L 593.482759 261.36 
L 599.31348 261.36 
L 605.144201 304.56 
L 608.059561 304.56 
L 616.805643 218.16 
L 619.721003 347.76 
L 622.636364 282.96 
" clip-path="url(#p525e7e8336)" style="fill: none; stroke: #0000ff; stroke-width: 1.5; stroke-linecap: square"/>
    <defs>
     <path id="mffb92dd05c" d="M 0 3 
C 0.795609 3 1.55874 2.683901 2.12132 2.12132 
C 2.683901 1.55874 3 0.795609 3 0 
C 3 -0.795609 2.683901 -1.55874 2.12132 -2.12132 
C 1.55874 -2.683901 0.795609 -3 0 -3 
C -0.795609 -3 -1.55874 -2.683901 -2.12132 -2.12132 
C -2.683901 -1.55874 -3 -0.795609 -3 0 
C -3 0.795609 -2.683901 1.55874 -2.12132 2.12132 
C -1.55874 2.683901 -0.795609 3 0 3 
z
" style="stroke: #0000ff"/>
    </defs>
    <g clip-path="url(#p525e7e8336)">
     <use xlink:href="#mffb92dd05c" x="115.363636" y="282.96" style="fill: #0000ff; stroke: #0000ff"/>
     <use xlink:href="#mffb92dd05c" x="121.194357" y="282.96" style="fill: #0000ff; stroke: #0000ff"/>
     <use xlink:href="#mffb92dd05c" x="135.77116" y="347.76" style="fill: #0000ff; stroke: #0000ff"/>
     <use xlink:href="#mffb92dd05c" x="138.68652" y="369.36" style="fill: #0000ff; stroke: #0000ff"/>
     <use xlink:href="#mffb92dd05c" x="141.601881" y="282.96" style="fill: #0000ff; stroke: #0000ff"/>
     <use xlink:href="#mffb92dd05c" x="144.517241" y="326.16" style="fill: #0000ff; stroke: #0000ff"/>
     <use xlink:href="#mffb92dd05c" x="147.432602" y="347.76" style="fill: #0000ff; stroke: #0000ff"/>
     <use xlink:href="#mffb92dd05c" x="150.347962" y="326.16" style="fill: #0000ff; stroke: #0000ff"/>
     <use xlink:href="#mffb92dd05c" x="159.094044" y="282.96" style="fill: #0000ff; stroke: #0000ff"/>
     <use xlink:href="#mffb92dd05c" x="162.009404" y="347.76" style="fill: #0000ff; stroke: #0000ff"/>
     <use xlink:href="#mffb92dd05c" x="167.840125" y="261.36" style="fill: #0000ff; stroke: #0000ff"/>
     <use xlink:href="#mffb92dd05c" x="176.586207" y="347.76" style="fill: #0000ff; stroke: #0000ff"/>
     <use xlink:href="#mffb92dd05c" x="182.416928" y="347.76" style="fill: #0000ff; stroke: #0000ff"/>
     <use xlink:href="#mffb92dd05c" x="185.332288" y="369.36" style="fill: #0000ff; stroke: #0000ff"/>
     <use xlink:href="#mffb92dd05c" x="191.163009" y="326.16" style="fill: #0000ff; stroke: #0000ff"/>
     <use xlink:href="#mffb92dd05c" x="196.99373" y="218.16" style="fill: #0000ff; stroke: #0000ff"/>
     <use xlink:href="#mffb92dd05c" x="199.909091" y="304.56" style="fill: #0000ff; stroke: #0000ff"/>
     <use xlink:href="#mffb92dd05c" x="202.824451" y="196.56" style="fill: #0000ff; stroke: #0000ff"/>
     <use xlink:href="#mffb92dd05c" x="208.655172" y="347.76" style="fill: #0000ff; stroke: #0000ff"/>
     <use xlink:href="#mffb92dd05c" x="211.570533" y="369.36" style="fill: #0000ff; stroke: #0000ff"/>
     <use xlink:href="#mffb92dd05c" x="220.316614" y="326.16" style="fill: #0000ff; stroke: #0000ff"/>
     <use xlink:href="#mffb92dd05c" x="223.231975" y="347.76" style="fill: #0000ff; stroke: #0000ff"/>
     <use xlink:href="#mffb92dd05c" x="226.147335" y="369.36" style="fill: #0000ff; stroke: #0000ff"/>
     <use xlink:href="#mffb92dd05c" x="240.724138" y="304.56" style="fill: #0000ff; stroke: #0000ff"/>
     <use xlink:href="#mffb92dd05c" x="243.639498" y="282.96" style="fill: #0000ff; stroke: #0000ff"/>
     <use xlink:href="#mffb92dd05c" x="246.554859" y="261.36" style="fill: #0000ff; stroke: #0000ff"/>
     <use xlink:href="#mffb92dd05c" x="249.470219" y="369.36" style="fill: #0000ff; stroke: #0000ff"/>
     <use xlink:href="#mffb92dd05c" x="252.38558" y="326.16" style="fill: #0000ff; stroke: #0000ff"/>
     <use xlink:href="#mffb92dd05c" x="255.30094" y="347.76" style="fill: #0000ff; stroke: #0000ff"/>
     <use xlink:href="#mffb92dd05c" x="258.216301" y="261.36" style="fill: #0000ff; stroke: #0000ff"/>
     <use xlink:href="#mffb92dd05c" x="261.131661" y="326.16" style="fill: #0000ff; stroke: #0000ff"/>
     <use xlink:href="#mffb92dd05c" x="264.047022" y="347.76" style="fill: #0000ff; stroke: #0000ff"/>
     <use xlink:href="#mffb92dd05c" x="266.962382" y="282.96" style="fill: #0000ff; stroke: #0000ff"/>
     <use xlink:href="#mffb92dd05c" x="269.877743" y="326.16" style="fill: #0000ff; stroke: #0000ff"/>
     <use xlink:href="#mffb92dd05c" x="272.793103" y="282.96" style="fill: #0000ff; stroke: #0000ff"/>
     <use xlink:href="#mffb92dd05c" x="284.454545" y="347.76" style="fill: #0000ff; stroke: #0000ff"/>
     <use xlink:href="#mffb92dd05c" x="290.285266" y="282.96" style="fill: #0000ff; stroke: #0000ff"/>
     <use xlink:href="#mffb92dd05c" x="293.200627" y="261.36" style="fill: #0000ff; stroke: #0000ff"/>
     <use xlink:href="#mffb92dd05c" x="296.115987" y="347.76" style="fill: #0000ff; stroke: #0000ff"/>
     <use xlink:href="#mffb92dd05c" x="299.031348" y="174.96" style="fill: #0000ff; stroke: #0000ff"/>
     <use xlink:href="#mffb92dd05c" x="301.946708" y="66.96" style="fill: #0000ff; stroke: #0000ff"/>
     <use xlink:href="#mffb92dd05c" x="304.862069" y="88.56" style="fill: #0000ff; stroke: #0000ff"/>
     <use xlink:href="#mffb92dd05c" x="307.777429" y="196.56" style="fill: #0000ff; stroke: #0000ff"/>
     <use xlink:href="#mffb92dd05c" x="310.69279" y="282.96" style="fill: #0000ff; stroke: #0000ff"/>
     <use xlink:href="#mffb92dd05c" x="313.60815" y="239.76" style="fill: #0000ff; stroke: #0000ff"/>
     <use xlink:href="#mffb92dd05c" x="316.523511" y="347.76" style="fill: #0000ff; stroke: #0000ff"/>
     <use xlink:href="#mffb92dd05c" x="319.438871" y="110.16" style="fill: #0000ff; stroke: #0000ff"/>
     <use xlink:href="#mffb92dd05c" x="322.354232" y="304.56" style="fill: #0000ff; stroke: #0000ff"/>
     <use xlink:href="#mffb92dd05c" x="325.269592" y="174.96" style="fill: #0000ff; stroke: #0000ff"/>
     <use xlink:href="#mffb92dd05c" x="328.184953" y="261.36" style="fill: #0000ff; stroke: #0000ff"/>
     <use xlink:href="#mffb92dd05c" x="331.100313" y="261.36" style="fill: #0000ff; stroke: #0000ff"/>
     <use xlink:href="#mffb92dd05c" x="334.015674" y="196.56" style="fill: #0000ff; stroke: #0000ff"/>
     <use xlink:href="#mffb92dd05c" x="336.931034" y="369.36" style="fill: #0000ff; stroke: #0000ff"/>
     <use xlink:href="#mffb92dd05c" x="339.846395" y="347.76" style="fill: #0000ff; stroke: #0000ff"/>
     <use xlink:href="#mffb92dd05c" x="342.761755" y="261.36" style="fill: #0000ff; stroke: #0000ff"/>
     <use xlink:href="#mffb92dd05c" x="345.677116" y="326.16" style="fill: #0000ff; stroke: #0000ff"/>
     <use xlink:href="#mffb92dd05c" x="348.592476" y="326.16" style="fill: #0000ff; stroke: #0000ff"/>
     <use xlink:href="#mffb92dd05c" x="354.423197" y="282.96" style="fill: #0000ff; stroke: #0000ff"/>
     <use xlink:href="#mffb92dd05c" x="357.338558" y="282.96" style="fill: #0000ff; stroke: #0000ff"/>
     <use xlink:href="#mffb92dd05c" x="360.253918" y="347.76" style="fill: #0000ff; stroke: #0000ff"/>
     <use xlink:href="#mffb92dd05c" x="363.169279" y="347.76" style="fill: #0000ff; stroke: #0000ff"/>
     <use xlink:href="#mffb92dd05c" x="366.084639" y="304.56" style="fill: #0000ff; stroke: #0000ff"/>
     <use xlink:href="#mffb92dd05c" x="369" y="196.56" style="fill: #0000ff; stroke: #0000ff"/>
     <use xlink:href="#mffb92dd05c" x="371.915361" y="304.56" style="fill: #0000ff; stroke: #0000ff"/>
     <use xlink:href="#mffb92dd05c" x="374.830721" y="66.96" style="fill: #0000ff; stroke: #0000ff"/>
     <use xlink:href="#mffb92dd05c" x="377.746082" y="88.56" style="fill: #0000ff; stroke: #0000ff"/>
     <use xlink:href="#mffb92dd05c" x="380.661442" y="369.36" style="fill: #0000ff; stroke: #0000ff"/>
     <use xlink:href="#mffb92dd05c" x="383.576803" y="347.76" style="fill: #0000ff; stroke: #0000ff"/>
     <use xlink:href="#mffb92dd05c" x="386.492163" y="304.56" style="fill: #0000ff; stroke: #0000ff"/>
     <use xlink:href="#mffb92dd05c" x="389.407524" y="174.96" style="fill: #0000ff; stroke: #0000ff"/>
     <use xlink:href="#mffb92dd05c" x="395.238245" y="282.96" style="fill: #0000ff; stroke: #0000ff"/>
     <use xlink:href="#mffb92dd05c" x="398.153605" y="239.76" style="fill: #0000ff; stroke: #0000ff"/>
     <use xlink:href="#mffb92dd05c" x="401.068966" y="218.16" style="fill: #0000ff; stroke: #0000ff"/>
     <use xlink:href="#mffb92dd05c" x="406.899687" y="239.76" style="fill: #0000ff; stroke: #0000ff"/>
     <use xlink:href="#mffb92dd05c" x="409.815047" y="304.56" style="fill: #0000ff; stroke: #0000ff"/>
     <use xlink:href="#mffb92dd05c" x="412.730408" y="304.56" style="fill: #0000ff; stroke: #0000ff"/>
     <use xlink:href="#mffb92dd05c" x="415.645768" y="347.76" style="fill: #0000ff; stroke: #0000ff"/>
     <use xlink:href="#mffb92dd05c" x="421.476489" y="326.16" style="fill: #0000ff; stroke: #0000ff"/>
     <use xlink:href="#mffb92dd05c" x="424.39185" y="326.16" style="fill: #0000ff; stroke: #0000ff"/>
     <use xlink:href="#mffb92dd05c" x="427.30721" y="369.36" style="fill: #0000ff; stroke: #0000ff"/>
     <use xlink:href="#mffb92dd05c" x="430.222571" y="239.76" style="fill: #0000ff; stroke: #0000ff"/>
     <use xlink:href="#mffb92dd05c" x="441.884013" y="239.76" style="fill: #0000ff; stroke: #0000ff"/>
     <use xlink:href="#mffb92dd05c" x="444.799373" y="196.56" style="fill: #0000ff; stroke: #0000ff"/>
     <use xlink:href="#mffb92dd05c" x="447.714734" y="369.36" style="fill: #0000ff; stroke: #0000ff"/>
     <use xlink:href="#mffb92dd05c" x="450.630094" y="304.56" style="fill: #0000ff; stroke: #0000ff"/>
     <use xlink:href="#mffb92dd05c" x="459.376176" y="347.76" style="fill: #0000ff; stroke: #0000ff"/>
     <use xlink:href="#mffb92dd05c" x="462.291536" y="326.16" style="fill: #0000ff; stroke: #0000ff"/>
     <use xlink:href="#mffb92dd05c" x="465.206897" y="304.56" style="fill: #0000ff; stroke: #0000ff"/>
     <use xlink:href="#mffb92dd05c" x="468.122257" y="369.36" style="fill: #0000ff; stroke: #0000ff"/>
     <use xlink:href="#mffb92dd05c" x="471.037618" y="369.36" style="fill: #0000ff; stroke: #0000ff"/>
     <use xlink:href="#mffb92dd05c" x="476.868339" y="369.36" style="fill: #0000ff; stroke: #0000ff"/>
     <use xlink:href="#mffb92dd05c" x="479.783699" y="369.36" style="fill: #0000ff; stroke: #0000ff"/>
     <use xlink:href="#mffb92dd05c" x="482.69906" y="369.36" style="fill: #0000ff; stroke: #0000ff"/>
     <use xlink:href="#mffb92dd05c" x="488.529781" y="347.76" style="fill: #0000ff; stroke: #0000ff"/>
     <use xlink:href="#mffb92dd05c" x="506.021944" y="369.36" style="fill: #0000ff; stroke: #0000ff"/>
     <use xlink:href="#mffb92dd05c" x="508.937304" y="304.56" style="fill: #0000ff; stroke: #0000ff"/>
     <use xlink:href="#mffb92dd05c" x="511.852665" y="347.76" style="fill: #0000ff; stroke: #0000ff"/>
     <use xlink:href="#mffb92dd05c" x="514.768025" y="326.16" style="fill: #0000ff; stroke: #0000ff"/>
     <use xlink:href="#mffb92dd05c" x="517.683386" y="282.96" style="fill: #0000ff; stroke: #0000ff"/>
     <use xlink:href="#mffb92dd05c" x="529.344828" y="369.36" style="fill: #0000ff; stroke: #0000ff"/>
     <use xlink:href="#mffb92dd05c" x="538.090909" y="369.36" style="fill: #0000ff; stroke: #0000ff"/>
     <use xlink:href="#mffb92dd05c" x="541.00627" y="304.56" style="fill: #0000ff; stroke: #0000ff"/>
     <use xlink:href="#mffb92dd05c" x="543.92163" y="369.36" style="fill: #0000ff; stroke: #0000ff"/>
     <use xlink:href="#mffb92dd05c" x="546.836991" y="347.76" style="fill: #0000ff; stroke: #0000ff"/>
     <use xlink:href="#mffb92dd05c" x="549.752351" y="369.36" style="fill: #0000ff; stroke: #0000ff"/>
     <use xlink:href="#mffb92dd05c" x="552.667712" y="369.36" style="fill: #0000ff; stroke: #0000ff"/>
     <use xlink:href="#mffb92dd05c" x="561.413793" y="347.76" style="fill: #0000ff; stroke: #0000ff"/>
     <use xlink:href="#mffb92dd05c" x="564.329154" y="347.76" style="fill: #0000ff; stroke: #0000ff"/>
     <use xlink:href="#mffb92dd05c" x="570.159875" y="369.36" style="fill: #0000ff; stroke: #0000ff"/>
     <use xlink:href="#mffb92dd05c" x="573.075235" y="369.36" style="fill: #0000ff; stroke: #0000ff"/>
     <use xlink:href="#mffb92dd05c" x="578.905956" y="347.76" style="fill: #0000ff; stroke: #0000ff"/>
     <use xlink:href="#mffb92dd05c" x="581.821317" y="369.36" style="fill: #0000ff; stroke: #0000ff"/>
     <use xlink:href="#mffb92dd05c" x="587.652038" y="369.36" style="fill: #0000ff; stroke: #0000ff"/>
     <use xlink:href="#mffb92dd05c" x="590.567398" y="304.56" style="fill: #0000ff; stroke: #0000ff"/>
     <use xlink:href="#mffb92dd05c" x="593.482759" y="261.36" style="fill: #0000ff; stroke: #0000ff"/>
     <use xlink:href="#mffb92dd05c" x="599.31348" y="261.36" style="fill: #0000ff; stroke: #0000ff"/>
     <use xlink:href="#mffb92dd05c" x="605.144201" y="304.56" style="fill: #0000ff; stroke: #0000ff"/>
     <use xlink:href="#mffb92dd05c" x="608.059561" y="304.56" style="fill: #0000ff; stroke: #0000ff"/>
     <use xlink:href="#mffb92dd05c" x="616.805643" y="218.16" style="fill: #0000ff; stroke: #0000ff"/>
     <use xlink:href="#mffb92dd05c" x="619.721003" y="347.76" style="fill: #0000ff; stroke: #0000ff"/>
     <use xlink:href="#mffb92dd05c" x="622.636364" y="282.96" style="fill: #0000ff; stroke: #0000ff"/>
    </g>
   </g>
   <g id="patch_3">
    <path d="M 90 384.48 
L 90 51.84 
" style="fill: none; stroke: #000000; stroke-width: 0.8; stroke-linejoin: miter; stroke-linecap: square"/>
   </g>
   <g id="patch_4">
    <path d="M 648 384.48 
L 648 51.84 
" style="fill: none; stroke: #000000; stroke-width: 0.8; stroke-linejoin: miter; stroke-linecap: square"/>
   </g>
   <g id="patch_5">
    <path d="M 90 384.48 
L 648 384.48 
" style="fill: none; stroke: #000000; stroke-width: 0.8; stroke-linejoin: miter; stroke-linecap: square"/>
   </g>
   <g id="patch_6">
    <path d="M 90 51.84 
L 648 51.84 
" style="fill: none; stroke: #000000; stroke-width: 0.8; stroke-linejoin: miter; stroke-linecap: square"/>
   </g>
  </g>
  <g id="axes_2">
   <g id="matplotlib.axis_3">
    <g id="ytick_8">
     <g id="line2d_17">
      <defs>
       <path id="mb7b3fa3398" d="M 0 0 
L 3.5 0 
" style="stroke: #000000; stroke-width: 0.8"/>
      </defs>
      <g>
       <use xlink:href="#mb7b3fa3398" x="648" y="342.319929" style="stroke: #000000; stroke-width: 0.8"/>
      </g>
     </g>
     <g id="text_18">
      <!-- 5000 -->
      <g style="fill: #008000" transform="translate(655 345.757429) scale(0.1 -0.1)">
       <use xlink:href="#SimHei-35"/>
       <use xlink:href="#SimHei-30" x="50"/>
       <use xlink:href="#SimHei-30" x="100"/>
       <use xlink:href="#SimHei-30" x="150"/>
      </g>
     </g>
    </g>
    <g id="ytick_9">
     <g id="line2d_18">
      <g>
       <use xlink:href="#mb7b3fa3398" x="648" y="293.647029" style="stroke: #000000; stroke-width: 0.8"/>
      </g>
     </g>
     <g id="text_19">
      <!-- 10000 -->
      <g style="fill: #008000" transform="translate(655 297.084529) scale(0.1 -0.1)">
       <use xlink:href="#SimHei-31"/>
       <use xlink:href="#SimHei-30" x="50"/>
       <use xlink:href="#SimHei-30" x="100"/>
       <use xlink:href="#SimHei-30" x="150"/>
       <use xlink:href="#SimHei-30" x="200"/>
      </g>
     </g>
    </g>
    <g id="ytick_10">
     <g id="line2d_19">
      <g>
       <use xlink:href="#mb7b3fa3398" x="648" y="244.97413" style="stroke: #000000; stroke-width: 0.8"/>
      </g>
     </g>
     <g id="text_20">
      <!-- 15000 -->
      <g style="fill: #008000" transform="translate(655 248.41163) scale(0.1 -0.1)">
       <use xlink:href="#SimHei-31"/>
       <use xlink:href="#SimHei-35" x="50"/>
       <use xlink:href="#SimHei-30" x="100"/>
       <use xlink:href="#SimHei-30" x="150"/>
       <use xlink:href="#SimHei-30" x="200"/>
      </g>
     </g>
    </g>
    <g id="ytick_11">
     <g id="line2d_20">
      <g>
       <use xlink:href="#mb7b3fa3398" x="648" y="196.30123" style="stroke: #000000; stroke-width: 0.8"/>
      </g>
     </g>
     <g id="text_21">
      <!-- 20000 -->
      <g style="fill: #008000" transform="translate(655 199.73873) scale(0.1 -0.1)">
       <use xlink:href="#SimHei-32"/>
       <use xlink:href="#SimHei-30" x="50"/>
       <use xlink:href="#SimHei-30" x="100"/>
       <use xlink:href="#SimHei-30" x="150"/>
       <use xlink:href="#SimHei-30" x="200"/>
      </g>
     </g>
    </g>
    <g id="ytick_12">
     <g id="line2d_21">
      <g>
       <use xlink:href="#mb7b3fa3398" x="648" y="147.628331" style="stroke: #000000; stroke-width: 0.8"/>
      </g>
     </g>
     <g id="text_22">
      <!-- 25000 -->
      <g style="fill: #008000" transform="translate(655 151.065831) scale(0.1 -0.1)">
       <use xlink:href="#SimHei-32"/>
       <use xlink:href="#SimHei-35" x="50"/>
       <use xlink:href="#SimHei-30" x="100"/>
       <use xlink:href="#SimHei-30" x="150"/>
       <use xlink:href="#SimHei-30" x="200"/>
      </g>
     </g>
    </g>
    <g id="ytick_13">
     <g id="line2d_22">
      <g>
       <use xlink:href="#mb7b3fa3398" x="648" y="98.955431" style="stroke: #000000; stroke-width: 0.8"/>
      </g>
     </g>
     <g id="text_23">
      <!-- 30000 -->
      <g style="fill: #008000" transform="translate(655 102.392931) scale(0.1 -0.1)">
       <defs>
        <path id="SimHei-33" d="M 250 1225 
L 700 1300 
Q 800 975 1025 762 
Q 1250 550 1587 562 
Q 1925 575 2125 837 
Q 2325 1100 2300 1437 
Q 2275 1775 2037 1962 
Q 1800 2150 1275 2225 
L 1275 2550 
Q 1800 2600 2037 2825 
Q 2275 3050 2250 3412 
Q 2225 3775 1925 3937 
Q 1625 4100 1287 3975 
Q 950 3850 750 3275 
L 300 3350 
Q 450 3800 712 4100 
Q 975 4400 1425 4450 
Q 1875 4500 2212 4337 
Q 2550 4175 2687 3837 
Q 2825 3500 2725 3100 
Q 2625 2700 2150 2400 
Q 2500 2250 2687 1950 
Q 2875 1650 2812 1162 
Q 2750 675 2375 375 
Q 2000 75 1525 87 
Q 1050 100 700 387 
Q 350 675 250 1225 
z
" transform="scale(0.015625)"/>
       </defs>
       <use xlink:href="#SimHei-33"/>
       <use xlink:href="#SimHei-30" x="50"/>
       <use xlink:href="#SimHei-30" x="100"/>
       <use xlink:href="#SimHei-30" x="150"/>
       <use xlink:href="#SimHei-30" x="200"/>
      </g>
     </g>
    </g>
    <g id="text_24">
     <!-- 收益 -->
     <g style="fill: #008000" transform="translate(691.929688 228.16) rotate(-90) scale(0.1 -0.1)">
      <defs>
       <path id="SimHei-6536" d="M 4250 5050 
Q 4125 4850 3750 4050 
L 5150 4050 
Q 5675 4050 6125 4075 
L 6125 3600 
Q 5675 3625 5300 3625 
Q 5225 2625 5025 1975 
Q 4825 1325 4575 900 
Q 4900 500 5287 275 
Q 5675 50 6200 -75 
Q 5900 -275 5800 -550 
Q 5300 -350 4950 -100 
Q 4600 150 4275 525 
Q 3800 0 2775 -625 
Q 2650 -425 2300 -225 
Q 3275 150 3950 925 
Q 3775 1325 3612 1787 
Q 3450 2250 3250 3000 
Q 2975 2450 2825 2275 
Q 2650 2400 2425 2525 
Q 2775 3025 3137 3837 
Q 3500 4650 3625 5250 
Q 3925 5125 4250 5050 
z
M 975 4275 
Q 925 3950 925 3450 
L 925 1575 
L 1775 1725 
L 1775 4425 
Q 1775 4775 1750 5150 
L 2250 5150 
Q 2225 4850 2225 4450 
L 2225 300 
Q 2225 -50 2250 -550 
L 1750 -550 
Q 1775 -25 1775 350 
L 1775 1350 
Q 625 1050 500 925 
Q 375 1125 225 1350 
Q 450 1475 450 1800 
L 450 3575 
Q 450 3925 425 4275 
L 975 4275 
z
M 3725 3150 
Q 3800 2700 3962 2212 
Q 4125 1725 4300 1375 
Q 4725 2150 4825 3625 
L 3575 3625 
Q 3400 3275 3300 3100 
L 3725 3150 
z
" transform="scale(0.015625)"/>
       <path id="SimHei-76ca" d="M 2825 2925 
Q 2425 2775 2012 2487 
Q 1600 2200 1225 1975 
L 5275 1975 
Q 5250 1575 5250 1000 
L 5250 -50 
Q 5800 -50 6175 -25 
L 6175 -525 
Q 5725 -500 5250 -500 
L 1325 -500 
Q 700 -500 250 -525 
L 250 -25 
Q 600 -50 1175 -50 
L 1175 1050 
Q 1175 1575 1150 1925 
Q 1000 1800 800 1700 
Q 650 1950 425 2125 
Q 800 2275 1312 2600 
Q 1825 2925 2325 3400 
Q 2550 3150 2825 2925 
z
M 4725 5050 
Q 4575 4900 4462 4637 
Q 4350 4375 4175 4075 
L 4625 4075 
Q 5350 4075 5900 4100 
L 5900 3625 
Q 5350 3650 4625 3650 
L 1975 3650 
Q 1350 3650 550 3625 
L 550 4100 
Q 1175 4075 1975 4075 
L 3675 4075 
Q 3775 4300 3887 4625 
Q 4000 4950 4125 5250 
L 4725 5050 
z
M 3600 -50 
L 3600 1575 
L 2800 1575 
L 2800 -50 
L 3600 -50 
z
M 4800 -50 
L 4800 1575 
L 4025 1575 
L 4025 -50 
L 4800 -50 
z
M 2375 -50 
L 2375 1575 
L 1625 1575 
L 1625 -50 
L 2375 -50 
z
M 3900 3350 
Q 4375 3150 4900 2925 
Q 5425 2700 5900 2500 
Q 5700 2300 5550 2000 
Q 5025 2300 4512 2537 
Q 4000 2775 3625 2900 
Q 3750 3075 3900 3350 
z
M 2150 5250 
Q 2375 4925 2650 4350 
Q 2425 4275 2150 4125 
Q 1950 4650 1675 5025 
Q 1875 5100 2150 5250 
z
" transform="scale(0.015625)"/>
      </defs>
      <use xlink:href="#SimHei-6536"/>
      <use xlink:href="#SimHei-76ca" x="100"/>
     </g>
    </g>
   </g>
   <g id="line2d_23">
    <path d="M 115.363636 282.834986 
L 121.194357 282.828687 
L 135.77116 347.727172 
L 138.68652 369.36 
L 141.601881 282.134992 
L 144.517241 325.05118 
L 147.432602 346.895796 
L 150.347962 324.84728 
L 159.094044 282.103175 
L 162.009404 347.57226 
L 167.840125 259.378196 
L 176.586207 347.234028 
L 182.416928 346.902463 
L 185.332288 368.947646 
L 191.163009 324.878248 
L 196.99373 214.55599 
L 199.909091 302.840055 
L 202.824451 191.980316 
L 208.655172 346.470559 
L 211.570533 368.731694 
L 220.316614 324.222163 
L 223.231975 346.496036 
L 226.147335 368.744432 
L 240.724138 301.999243 
L 243.639498 279.750847 
L 246.554859 259.450424 
L 249.470219 369.069094 
L 252.38558 325.221626 
L 255.30094 347.629271 
L 258.216301 262.35389 
L 261.131661 326.673359 
L 264.047022 348.113182 
L 266.962382 283.793713 
L 269.877743 327.350111 
L 272.793103 284.921633 
L 284.454545 348.56435 
L 290.285266 284.216324 
L 293.200627 262.296776 
L 296.115987 348.03261 
L 299.031348 176.191738 
L 301.946708 68.131213 
L 304.862069 89.34733 
L 307.777429 197.361352 
L 310.69279 283.54578 
L 313.60815 240.585528 
L 316.523511 348.014009 
L 319.438871 111.816174 
L 322.354232 305.021265 
L 325.269592 176.06392 
L 328.184953 262.035483 
L 331.100313 258.039007 
L 334.015674 191.126681 
L 336.931034 368.773601 
L 339.846395 346.554374 
L 342.761755 257.677465 
L 345.677116 326.526817 
L 348.592476 326.526817 
L 354.423197 282.818919 
L 357.338558 283.549476 
L 360.253918 348.015487 
L 363.169279 348.015487 
L 366.084639 305.162765 
L 369 197.295419 
L 371.915361 304.582998 
L 374.830721 66.96 
L 377.746082 87.348157 
L 380.661442 369.268497 
L 383.576803 347.544166 
L 386.492163 304.095504 
L 389.407524 173.57261 
L 395.238245 282.260606 
L 398.153605 238.767717 
L 401.068966 216.954464 
L 406.899687 238.737402 
L 409.815047 303.816513 
L 412.730408 303.751627 
L 415.645768 347.372228 
L 421.476489 325.561927 
L 424.39185 325.561927 
L 427.30721 369.184249 
L 430.222571 238.320726 
L 441.884013 238.206163 
L 444.799373 194.302597 
L 447.714734 369.125247 
L 450.630094 303.522637 
L 459.376176 347.257733 
L 462.291536 325.424637 
L 465.206897 303.39076 
L 468.122257 369.122537 
L 471.037618 369.092311 
L 476.868339 369.092311 
L 479.783699 369.092311 
L 482.69906 369.122537 
L 488.529781 347.191806 
L 506.021944 369.092317 
L 508.937304 303.390784 
L 511.852665 347.191806 
L 514.768025 325.291295 
L 517.683386 281.055691 
L 529.344828 369.005401 
L 538.090909 369.005401 
L 541.00627 302.590123 
L 543.92163 368.998059 
L 546.836991 347.003235 
L 549.752351 368.892152 
L 552.667712 368.897474 
L 561.413793 346.802119 
L 564.329154 346.802119 
L 570.159875 368.461267 
L 573.075235 368.392444 
L 578.905956 345.929706 
L 581.821317 368.461267 
L 587.652038 368.461267 
L 590.567398 299.676628 
L 593.482759 253.962165 
L 599.31348 253.783146 
L 605.144201 299.595636 
L 608.059561 299.595636 
L 616.805643 210.937074 
L 619.721003 345.792059 
L 622.636364 277.990905 
" clip-path="url(#p525e7e8336)" style="fill: none; stroke: #008000; stroke-width: 1.5; stroke-linecap: square"/>
    <defs>
     <path id="m09a0ad918e" d="M 0 3 
C 0.795609 3 1.55874 2.683901 2.12132 2.12132 
C 2.683901 1.55874 3 0.795609 3 0 
C 3 -0.795609 2.683901 -1.55874 2.12132 -2.12132 
C 1.55874 -2.683901 0.795609 -3 0 -3 
C -0.795609 -3 -1.55874 -2.683901 -2.12132 -2.12132 
C -2.683901 -1.55874 -3 -0.795609 -3 0 
C -3 0.795609 -2.683901 1.55874 -2.12132 2.12132 
C -1.55874 2.683901 -0.795609 3 0 3 
z
" style="stroke: #008000"/>
    </defs>
    <g clip-path="url(#p525e7e8336)">
     <use xlink:href="#m09a0ad918e" x="115.363636" y="282.834986" style="fill: #008000; stroke: #008000"/>
     <use xlink:href="#m09a0ad918e" x="121.194357" y="282.828687" style="fill: #008000; stroke: #008000"/>
     <use xlink:href="#m09a0ad918e" x="135.77116" y="347.727172" style="fill: #008000; stroke: #008000"/>
     <use xlink:href="#m09a0ad918e" x="138.68652" y="369.36" style="fill: #008000; stroke: #008000"/>
     <use xlink:href="#m09a0ad918e" x="141.601881" y="282.134992" style="fill: #008000; stroke: #008000"/>
     <use xlink:href="#m09a0ad918e" x="144.517241" y="325.05118" style="fill: #008000; stroke: #008000"/>
     <use xlink:href="#m09a0ad918e" x="147.432602" y="346.895796" style="fill: #008000; stroke: #008000"/>
     <use xlink:href="#m09a0ad918e" x="150.347962" y="324.84728" style="fill: #008000; stroke: #008000"/>
     <use xlink:href="#m09a0ad918e" x="159.094044" y="282.103175" style="fill: #008000; stroke: #008000"/>
     <use xlink:href="#m09a0ad918e" x="162.009404" y="347.57226" style="fill: #008000; stroke: #008000"/>
     <use xlink:href="#m09a0ad918e" x="167.840125" y="259.378196" style="fill: #008000; stroke: #008000"/>
     <use xlink:href="#m09a0ad918e" x="176.586207" y="347.234028" style="fill: #008000; stroke: #008000"/>
     <use xlink:href="#m09a0ad918e" x="182.416928" y="346.902463" style="fill: #008000; stroke: #008000"/>
     <use xlink:href="#m09a0ad918e" x="185.332288" y="368.947646" style="fill: #008000; stroke: #008000"/>
     <use xlink:href="#m09a0ad918e" x="191.163009" y="324.878248" style="fill: #008000; stroke: #008000"/>
     <use xlink:href="#m09a0ad918e" x="196.99373" y="214.55599" style="fill: #008000; stroke: #008000"/>
     <use xlink:href="#m09a0ad918e" x="199.909091" y="302.840055" style="fill: #008000; stroke: #008000"/>
     <use xlink:href="#m09a0ad918e" x="202.824451" y="191.980316" style="fill: #008000; stroke: #008000"/>
     <use xlink:href="#m09a0ad918e" x="208.655172" y="346.470559" style="fill: #008000; stroke: #008000"/>
     <use xlink:href="#m09a0ad918e" x="211.570533" y="368.731694" style="fill: #008000; stroke: #008000"/>
     <use xlink:href="#m09a0ad918e" x="220.316614" y="324.222163" style="fill: #008000; stroke: #008000"/>
     <use xlink:href="#m09a0ad918e" x="223.231975" y="346.496036" style="fill: #008000; stroke: #008000"/>
     <use xlink:href="#m09a0ad918e" x="226.147335" y="368.744432" style="fill: #008000; stroke: #008000"/>
     <use xlink:href="#m09a0ad918e" x="240.724138" y="301.999243" style="fill: #008000; stroke: #008000"/>
     <use xlink:href="#m09a0ad918e" x="243.639498" y="279.750847" style="fill: #008000; stroke: #008000"/>
     <use xlink:href="#m09a0ad918e" x="246.554859" y="259.450424" style="fill: #008000; stroke: #008000"/>
     <use xlink:href="#m09a0ad918e" x="249.470219" y="369.069094" style="fill: #008000; stroke: #008000"/>
     <use xlink:href="#m09a0ad918e" x="252.38558" y="325.221626" style="fill: #008000; stroke: #008000"/>
     <use xlink:href="#m09a0ad918e" x="255.30094" y="347.629271" style="fill: #008000; stroke: #008000"/>
     <use xlink:href="#m09a0ad918e" x="258.216301" y="262.35389" style="fill: #008000; stroke: #008000"/>
     <use xlink:href="#m09a0ad918e" x="261.131661" y="326.673359" style="fill: #008000; stroke: #008000"/>
     <use xlink:href="#m09a0ad918e" x="264.047022" y="348.113182" style="fill: #008000; stroke: #008000"/>
     <use xlink:href="#m09a0ad918e" x="266.962382" y="283.793713" style="fill: #008000; stroke: #008000"/>
     <use xlink:href="#m09a0ad918e" x="269.877743" y="327.350111" style="fill: #008000; stroke: #008000"/>
     <use xlink:href="#m09a0ad918e" x="272.793103" y="284.921633" style="fill: #008000; stroke: #008000"/>
     <use xlink:href="#m09a0ad918e" x="284.454545" y="348.56435" style="fill: #008000; stroke: #008000"/>
     <use xlink:href="#m09a0ad918e" x="290.285266" y="284.216324" style="fill: #008000; stroke: #008000"/>
     <use xlink:href="#m09a0ad918e" x="293.200627" y="262.296776" style="fill: #008000; stroke: #008000"/>
     <use xlink:href="#m09a0ad918e" x="296.115987" y="348.03261" style="fill: #008000; stroke: #008000"/>
     <use xlink:href="#m09a0ad918e" x="299.031348" y="176.191738" style="fill: #008000; stroke: #008000"/>
     <use xlink:href="#m09a0ad918e" x="301.946708" y="68.131213" style="fill: #008000; stroke: #008000"/>
     <use xlink:href="#m09a0ad918e" x="304.862069" y="89.34733" style="fill: #008000; stroke: #008000"/>
     <use xlink:href="#m09a0ad918e" x="307.777429" y="197.361352" style="fill: #008000; stroke: #008000"/>
     <use xlink:href="#m09a0ad918e" x="310.69279" y="283.54578" style="fill: #008000; stroke: #008000"/>
     <use xlink:href="#m09a0ad918e" x="313.60815" y="240.585528" style="fill: #008000; stroke: #008000"/>
     <use xlink:href="#m09a0ad918e" x="316.523511" y="348.014009" style="fill: #008000; stroke: #008000"/>
     <use xlink:href="#m09a0ad918e" x="319.438871" y="111.816174" style="fill: #008000; stroke: #008000"/>
     <use xlink:href="#m09a0ad918e" x="322.354232" y="305.021265" style="fill: #008000; stroke: #008000"/>
     <use xlink:href="#m09a0ad918e" x="325.269592" y="176.06392" style="fill: #008000; stroke: #008000"/>
     <use xlink:href="#m09a0ad918e" x="328.184953" y="262.035483" style="fill: #008000; stroke: #008000"/>
     <use xlink:href="#m09a0ad918e" x="331.100313" y="258.039007" style="fill: #008000; stroke: #008000"/>
     <use xlink:href="#m09a0ad918e" x="334.015674" y="191.126681" style="fill: #008000; stroke: #008000"/>
     <use xlink:href="#m09a0ad918e" x="336.931034" y="368.773601" style="fill: #008000; stroke: #008000"/>
     <use xlink:href="#m09a0ad918e" x="339.846395" y="346.554374" style="fill: #008000; stroke: #008000"/>
     <use xlink:href="#m09a0ad918e" x="342.761755" y="257.677465" style="fill: #008000; stroke: #008000"/>
     <use xlink:href="#m09a0ad918e" x="345.677116" y="326.526817" style="fill: #008000; stroke: #008000"/>
     <use xlink:href="#m09a0ad918e" x="348.592476" y="326.526817" style="fill: #008000; stroke: #008000"/>
     <use xlink:href="#m09a0ad918e" x="354.423197" y="282.818919" style="fill: #008000; stroke: #008000"/>
     <use xlink:href="#m09a0ad918e" x="357.338558" y="283.549476" style="fill: #008000; stroke: #008000"/>
     <use xlink:href="#m09a0ad918e" x="360.253918" y="348.015487" style="fill: #008000; stroke: #008000"/>
     <use xlink:href="#m09a0ad918e" x="363.169279" y="348.015487" style="fill: #008000; stroke: #008000"/>
     <use xlink:href="#m09a0ad918e" x="366.084639" y="305.162765" style="fill: #008000; stroke: #008000"/>
     <use xlink:href="#m09a0ad918e" x="369" y="197.295419" style="fill: #008000; stroke: #008000"/>
     <use xlink:href="#m09a0ad918e" x="371.915361" y="304.582998" style="fill: #008000; stroke: #008000"/>
     <use xlink:href="#m09a0ad918e" x="374.830721" y="66.96" style="fill: #008000; stroke: #008000"/>
     <use xlink:href="#m09a0ad918e" x="377.746082" y="87.348157" style="fill: #008000; stroke: #008000"/>
     <use xlink:href="#m09a0ad918e" x="380.661442" y="369.268497" style="fill: #008000; stroke: #008000"/>
     <use xlink:href="#m09a0ad918e" x="383.576803" y="347.544166" style="fill: #008000; stroke: #008000"/>
     <use xlink:href="#m09a0ad918e" x="386.492163" y="304.095504" style="fill: #008000; stroke: #008000"/>
     <use xlink:href="#m09a0ad918e" x="389.407524" y="173.57261" style="fill: #008000; stroke: #008000"/>
     <use xlink:href="#m09a0ad918e" x="395.238245" y="282.260606" style="fill: #008000; stroke: #008000"/>
     <use xlink:href="#m09a0ad918e" x="398.153605" y="238.767717" style="fill: #008000; stroke: #008000"/>
     <use xlink:href="#m09a0ad918e" x="401.068966" y="216.954464" style="fill: #008000; stroke: #008000"/>
     <use xlink:href="#m09a0ad918e" x="406.899687" y="238.737402" style="fill: #008000; stroke: #008000"/>
     <use xlink:href="#m09a0ad918e" x="409.815047" y="303.816513" style="fill: #008000; stroke: #008000"/>
     <use xlink:href="#m09a0ad918e" x="412.730408" y="303.751627" style="fill: #008000; stroke: #008000"/>
     <use xlink:href="#m09a0ad918e" x="415.645768" y="347.372228" style="fill: #008000; stroke: #008000"/>
     <use xlink:href="#m09a0ad918e" x="421.476489" y="325.561927" style="fill: #008000; stroke: #008000"/>
     <use xlink:href="#m09a0ad918e" x="424.39185" y="325.561927" style="fill: #008000; stroke: #008000"/>
     <use xlink:href="#m09a0ad918e" x="427.30721" y="369.184249" style="fill: #008000; stroke: #008000"/>
     <use xlink:href="#m09a0ad918e" x="430.222571" y="238.320726" style="fill: #008000; stroke: #008000"/>
     <use xlink:href="#m09a0ad918e" x="441.884013" y="238.206163" style="fill: #008000; stroke: #008000"/>
     <use xlink:href="#m09a0ad918e" x="444.799373" y="194.302597" style="fill: #008000; stroke: #008000"/>
     <use xlink:href="#m09a0ad918e" x="447.714734" y="369.125247" style="fill: #008000; stroke: #008000"/>
     <use xlink:href="#m09a0ad918e" x="450.630094" y="303.522637" style="fill: #008000; stroke: #008000"/>
     <use xlink:href="#m09a0ad918e" x="459.376176" y="347.257733" style="fill: #008000; stroke: #008000"/>
     <use xlink:href="#m09a0ad918e" x="462.291536" y="325.424637" style="fill: #008000; stroke: #008000"/>
     <use xlink:href="#m09a0ad918e" x="465.206897" y="303.39076" style="fill: #008000; stroke: #008000"/>
     <use xlink:href="#m09a0ad918e" x="468.122257" y="369.122537" style="fill: #008000; stroke: #008000"/>
     <use xlink:href="#m09a0ad918e" x="471.037618" y="369.092311" style="fill: #008000; stroke: #008000"/>
     <use xlink:href="#m09a0ad918e" x="476.868339" y="369.092311" style="fill: #008000; stroke: #008000"/>
     <use xlink:href="#m09a0ad918e" x="479.783699" y="369.092311" style="fill: #008000; stroke: #008000"/>
     <use xlink:href="#m09a0ad918e" x="482.69906" y="369.122537" style="fill: #008000; stroke: #008000"/>
     <use xlink:href="#m09a0ad918e" x="488.529781" y="347.191806" style="fill: #008000; stroke: #008000"/>
     <use xlink:href="#m09a0ad918e" x="506.021944" y="369.092317" style="fill: #008000; stroke: #008000"/>
     <use xlink:href="#m09a0ad918e" x="508.937304" y="303.390784" style="fill: #008000; stroke: #008000"/>
     <use xlink:href="#m09a0ad918e" x="511.852665" y="347.191806" style="fill: #008000; stroke: #008000"/>
     <use xlink:href="#m09a0ad918e" x="514.768025" y="325.291295" style="fill: #008000; stroke: #008000"/>
     <use xlink:href="#m09a0ad918e" x="517.683386" y="281.055691" style="fill: #008000; stroke: #008000"/>
     <use xlink:href="#m09a0ad918e" x="529.344828" y="369.005401" style="fill: #008000; stroke: #008000"/>
     <use xlink:href="#m09a0ad918e" x="538.090909" y="369.005401" style="fill: #008000; stroke: #008000"/>
     <use xlink:href="#m09a0ad918e" x="541.00627" y="302.590123" style="fill: #008000; stroke: #008000"/>
     <use xlink:href="#m09a0ad918e" x="543.92163" y="368.998059" style="fill: #008000; stroke: #008000"/>
     <use xlink:href="#m09a0ad918e" x="546.836991" y="347.003235" style="fill: #008000; stroke: #008000"/>
     <use xlink:href="#m09a0ad918e" x="549.752351" y="368.892152" style="fill: #008000; stroke: #008000"/>
     <use xlink:href="#m09a0ad918e" x="552.667712" y="368.897474" style="fill: #008000; stroke: #008000"/>
     <use xlink:href="#m09a0ad918e" x="561.413793" y="346.802119" style="fill: #008000; stroke: #008000"/>
     <use xlink:href="#m09a0ad918e" x="564.329154" y="346.802119" style="fill: #008000; stroke: #008000"/>
     <use xlink:href="#m09a0ad918e" x="570.159875" y="368.461267" style="fill: #008000; stroke: #008000"/>
     <use xlink:href="#m09a0ad918e" x="573.075235" y="368.392444" style="fill: #008000; stroke: #008000"/>
     <use xlink:href="#m09a0ad918e" x="578.905956" y="345.929706" style="fill: #008000; stroke: #008000"/>
     <use xlink:href="#m09a0ad918e" x="581.821317" y="368.461267" style="fill: #008000; stroke: #008000"/>
     <use xlink:href="#m09a0ad918e" x="587.652038" y="368.461267" style="fill: #008000; stroke: #008000"/>
     <use xlink:href="#m09a0ad918e" x="590.567398" y="299.676628" style="fill: #008000; stroke: #008000"/>
     <use xlink:href="#m09a0ad918e" x="593.482759" y="253.962165" style="fill: #008000; stroke: #008000"/>
     <use xlink:href="#m09a0ad918e" x="599.31348" y="253.783146" style="fill: #008000; stroke: #008000"/>
     <use xlink:href="#m09a0ad918e" x="605.144201" y="299.595636" style="fill: #008000; stroke: #008000"/>
     <use xlink:href="#m09a0ad918e" x="608.059561" y="299.595636" style="fill: #008000; stroke: #008000"/>
     <use xlink:href="#m09a0ad918e" x="616.805643" y="210.937074" style="fill: #008000; stroke: #008000"/>
     <use xlink:href="#m09a0ad918e" x="619.721003" y="345.792059" style="fill: #008000; stroke: #008000"/>
     <use xlink:href="#m09a0ad918e" x="622.636364" y="277.990905" style="fill: #008000; stroke: #008000"/>
    </g>
   </g>
   <g id="patch_7">
    <path d="M 90 384.48 
L 90 51.84 
" style="fill: none; stroke: #000000; stroke-width: 0.8; stroke-linejoin: miter; stroke-linecap: square"/>
   </g>
   <g id="patch_8">
    <path d="M 648 384.48 
L 648 51.84 
" style="fill: none; stroke: #000000; stroke-width: 0.8; stroke-linejoin: miter; stroke-linecap: square"/>
   </g>
   <g id="patch_9">
    <path d="M 90 384.48 
L 648 384.48 
" style="fill: none; stroke: #000000; stroke-width: 0.8; stroke-linejoin: miter; stroke-linecap: square"/>
   </g>
   <g id="patch_10">
    <path d="M 90 51.84 
L 648 51.84 
" style="fill: none; stroke: #000000; stroke-width: 0.8; stroke-linejoin: miter; stroke-linecap: square"/>
   </g>
  </g>
  <g id="axes_3">
   <g id="matplotlib.axis_4">
    <g id="ytick_14">
     <g id="line2d_24">
      <g>
       <use xlink:href="#mb7b3fa3398" x="708" y="376.952302" style="stroke: #000000; stroke-width: 0.8"/>
      </g>
     </g>
     <g id="text_25">
      <!-- 2175 -->
      <g style="fill: #ff0000" transform="translate(715 380.389802) scale(0.1 -0.1)">
       <use xlink:href="#SimHei-32"/>
       <use xlink:href="#SimHei-31" x="50"/>
       <use xlink:href="#SimHei-37" x="100"/>
       <use xlink:href="#SimHei-35" x="150"/>
      </g>
     </g>
    </g>
    <g id="ytick_15">
     <g id="line2d_25">
      <g>
       <use xlink:href="#mb7b3fa3398" x="708" y="332.459205" style="stroke: #000000; stroke-width: 0.8"/>
      </g>
     </g>
     <g id="text_26">
      <!-- 2200 -->
      <g style="fill: #ff0000" transform="translate(715 335.896705) scale(0.1 -0.1)">
       <use xlink:href="#SimHei-32"/>
       <use xlink:href="#SimHei-32" x="50"/>
       <use xlink:href="#SimHei-30" x="100"/>
       <use xlink:href="#SimHei-30" x="150"/>
      </g>
     </g>
    </g>
    <g id="ytick_16">
     <g id="line2d_26">
      <g>
       <use xlink:href="#mb7b3fa3398" x="708" y="287.966109" style="stroke: #000000; stroke-width: 0.8"/>
      </g>
     </g>
     <g id="text_27">
      <!-- 2225 -->
      <g style="fill: #ff0000" transform="translate(715 291.403609) scale(0.1 -0.1)">
       <use xlink:href="#SimHei-32"/>
       <use xlink:href="#SimHei-32" x="50"/>
       <use xlink:href="#SimHei-32" x="100"/>
       <use xlink:href="#SimHei-35" x="150"/>
      </g>
     </g>
    </g>
    <g id="ytick_17">
     <g id="line2d_27">
      <g>
       <use xlink:href="#mb7b3fa3398" x="708" y="243.473012" style="stroke: #000000; stroke-width: 0.8"/>
      </g>
     </g>
     <g id="text_28">
      <!-- 2250 -->
      <g style="fill: #ff0000" transform="translate(715 246.910512) scale(0.1 -0.1)">
       <use xlink:href="#SimHei-32"/>
       <use xlink:href="#SimHei-32" x="50"/>
       <use xlink:href="#SimHei-35" x="100"/>
       <use xlink:href="#SimHei-30" x="150"/>
      </g>
     </g>
    </g>
    <g id="ytick_18">
     <g id="line2d_28">
      <g>
       <use xlink:href="#mb7b3fa3398" x="708" y="198.979916" style="stroke: #000000; stroke-width: 0.8"/>
      </g>
     </g>
     <g id="text_29">
      <!-- 2275 -->
      <g style="fill: #ff0000" transform="translate(715 202.417416) scale(0.1 -0.1)">
       <use xlink:href="#SimHei-32"/>
       <use xlink:href="#SimHei-32" x="50"/>
       <use xlink:href="#SimHei-37" x="100"/>
       <use xlink:href="#SimHei-35" x="150"/>
      </g>
     </g>
    </g>
    <g id="ytick_19">
     <g id="line2d_29">
      <g>
       <use xlink:href="#mb7b3fa3398" x="708" y="154.486819" style="stroke: #000000; stroke-width: 0.8"/>
      </g>
     </g>
     <g id="text_30">
      <!-- 2300 -->
      <g style="fill: #ff0000" transform="translate(715 157.924319) scale(0.1 -0.1)">
       <use xlink:href="#SimHei-32"/>
       <use xlink:href="#SimHei-33" x="50"/>
       <use xlink:href="#SimHei-30" x="100"/>
       <use xlink:href="#SimHei-30" x="150"/>
      </g>
     </g>
    </g>
    <g id="ytick_20">
     <g id="line2d_30">
      <g>
       <use xlink:href="#mb7b3fa3398" x="708" y="109.993723" style="stroke: #000000; stroke-width: 0.8"/>
      </g>
     </g>
     <g id="text_31">
      <!-- 2325 -->
      <g style="fill: #ff0000" transform="translate(715 113.431223) scale(0.1 -0.1)">
       <use xlink:href="#SimHei-32"/>
       <use xlink:href="#SimHei-33" x="50"/>
       <use xlink:href="#SimHei-32" x="100"/>
       <use xlink:href="#SimHei-35" x="150"/>
      </g>
     </g>
    </g>
    <g id="ytick_21">
     <g id="line2d_31">
      <g>
       <use xlink:href="#mb7b3fa3398" x="708" y="65.500626" style="stroke: #000000; stroke-width: 0.8"/>
      </g>
     </g>
     <g id="text_32">
      <!-- 2350 -->
      <g style="fill: #ff0000" transform="translate(715 68.938126) scale(0.1 -0.1)">
       <use xlink:href="#SimHei-32"/>
       <use xlink:href="#SimHei-33" x="50"/>
       <use xlink:href="#SimHei-35" x="100"/>
       <use xlink:href="#SimHei-30" x="150"/>
      </g>
     </g>
    </g>
    <g id="text_33">
     <!-- 平均单价 -->
     <g style="fill: #ff0000" transform="translate(747.007812 238.16) rotate(-90) scale(0.1 -0.1)">
      <defs>
       <path id="SimHei-5e73" d="M 4525 4825 
Q 4900 4825 5450 4850 
L 5450 4375 
Q 4925 4400 4525 4400 
L 3475 4400 
L 3475 2025 
L 5000 2025 
Q 5550 2025 6025 2050 
L 6025 1575 
Q 5550 1600 5000 1600 
L 3475 1600 
L 3475 450 
Q 3475 -100 3500 -600 
L 2925 -600 
Q 2950 -100 2950 450 
L 2950 1600 
L 1125 1600 
Q 775 1600 375 1575 
L 375 2050 
Q 775 2025 1175 2025 
L 2950 2025 
L 2950 4400 
L 1775 4400 
Q 1400 4400 875 4375 
L 875 4850 
Q 1400 4825 1750 4825 
L 4525 4825 
z
M 3925 2600 
Q 4500 3300 4900 4125 
Q 5150 3950 5400 3825 
Q 4775 2850 4350 2300 
Q 4150 2475 3925 2600 
z
M 1975 2350 
Q 1600 3100 1050 3725 
Q 1250 3875 1450 4050 
Q 2075 3300 2450 2725 
Q 2150 2500 1975 2350 
z
" transform="scale(0.015625)"/>
       <path id="SimHei-5747" d="M 5775 275 
Q 5775 -325 5362 -450 
Q 4950 -575 4425 -600 
Q 4375 -275 4250 25 
Q 4950 -25 5125 62 
Q 5300 150 5300 500 
L 5375 3700 
L 3550 3700 
Q 3425 3375 3262 3037 
Q 3100 2700 2925 2400 
Q 2675 2550 2475 2625 
Q 3150 3625 3500 5200 
Q 3800 5100 4075 5025 
Q 3975 4875 3875 4650 
Q 3775 4425 3675 4125 
L 5900 4125 
L 5775 275 
z
M 1250 3625 
L 1250 4375 
Q 1250 4775 1225 5100 
L 1775 5100 
Q 1750 4725 1750 4375 
L 1750 3625 
L 1900 3625 
Q 2200 3625 2525 3650 
L 2525 3150 
Q 2200 3175 1900 3175 
L 1750 3175 
L 1750 1100 
L 2500 1375 
Q 2475 1125 2525 900 
Q 1225 475 962 362 
Q 700 250 475 150 
Q 375 475 250 750 
Q 575 800 800 850 
Q 1025 900 1250 975 
L 1250 3175 
L 1125 3175 
Q 850 3175 400 3150 
L 400 3650 
Q 850 3625 1100 3625 
L 1250 3625 
z
M 4950 1625 
Q 4675 1425 4137 1050 
Q 3600 675 3175 300 
Q 3000 575 2850 775 
Q 3350 1050 3762 1325 
Q 4175 1600 4775 2075 
Q 4825 1850 4950 1625 
z
M 3775 3150 
Q 4125 2800 4475 2300 
Q 4250 2125 4100 1975 
Q 3900 2325 3450 2825 
Q 3600 3000 3775 3150 
z
" transform="scale(0.015625)"/>
       <path id="SimHei-5355" d="M 5275 4075 
L 5275 1525 
L 3400 1525 
L 3400 925 
L 5050 925 
Q 5600 925 6000 950 
L 6000 450 
Q 5575 475 5050 475 
L 3400 475 
Q 3400 -300 3425 -625 
L 2875 -625 
Q 2925 -300 2925 475 
L 1300 475 
Q 700 475 425 450 
L 425 950 
Q 675 925 1250 925 
L 2925 925 
L 2925 1525 
L 1125 1525 
Q 1150 1950 1150 2750 
Q 1150 3550 1125 4075 
L 3600 4075 
Q 3875 4650 4075 5250 
Q 4325 5125 4650 4975 
Q 4550 4850 4400 4587 
Q 4250 4325 4100 4075 
L 5275 4075 
z
M 4775 1925 
L 4775 2600 
L 3400 2600 
L 3400 1925 
L 4775 1925 
z
M 4775 3000 
L 4775 3650 
L 3400 3650 
L 3400 3000 
L 4775 3000 
z
M 2925 1925 
L 2925 2600 
L 1625 2600 
L 1625 1925 
L 2925 1925 
z
M 2925 3000 
L 2925 3650 
L 1625 3650 
L 1625 3000 
L 2925 3000 
z
M 2100 5225 
Q 2350 4950 2675 4350 
Q 2400 4225 2225 4125 
Q 1975 4675 1725 4975 
Q 1900 5075 2100 5225 
z
" transform="scale(0.015625)"/>
       <path id="SimHei-4ef7" d="M 2200 4975 
Q 2050 4725 1650 3775 
L 1650 450 
Q 1650 -225 1675 -650 
L 1175 -650 
Q 1175 -225 1200 450 
L 1200 2975 
Q 900 2425 650 2100 
Q 525 2275 225 2450 
Q 750 3025 1125 3800 
Q 1500 4575 1625 5175 
Q 1950 5025 2200 4975 
z
M 4175 4700 
Q 4850 3525 6150 2950 
Q 5925 2750 5775 2500 
Q 4725 3100 3950 4300 
Q 3300 3125 2250 2350 
Q 2125 2525 1900 2725 
Q 2825 3325 3250 4050 
Q 3675 4775 3750 5150 
Q 4150 4950 4325 4900 
L 4175 4700 
z
M 3475 2650 
Q 3400 2075 3325 1087 
Q 3250 100 2325 -675 
Q 2175 -450 1925 -300 
Q 2850 350 2912 1262 
Q 2975 2175 2950 2700 
Q 3275 2650 3475 2650 
z
M 5075 2700 
Q 5050 2150 5050 1725 
L 5050 150 
Q 5050 -225 5075 -650 
L 4550 -650 
Q 4575 -225 4575 175 
L 4575 1875 
Q 4575 2150 4550 2700 
L 5075 2700 
z
" transform="scale(0.015625)"/>
      </defs>
      <use xlink:href="#SimHei-5e73"/>
      <use xlink:href="#SimHei-5747" x="100"/>
      <use xlink:href="#SimHei-5355" x="200"/>
      <use xlink:href="#SimHei-4ef7" x="300"/>
     </g>
    </g>
   </g>
   <g id="line2d_32">
    <path d="M 115.363636 293.061782 
L 121.194357 292.831429 
L 135.77116 292.831429 
L 138.68652 292.831429 
L 141.601881 267.466508 
L 144.517241 229.259347 
L 147.432602 216.833356 
L 150.347962 216.833356 
L 159.094044 266.303124 
L 162.009404 278.670566 
L 167.840125 237.445759 
L 176.586207 247.751961 
L 182.416928 217.442771 
L 185.332288 217.442771 
L 191.163009 218.720613 
L 196.99373 215.720191 
L 199.909091 218.720613 
L 202.824451 205.135256 
L 208.655172 177.961377 
L 211.570533 177.961377 
L 220.316614 178.737676 
L 223.231975 180.290273 
L 226.147335 180.290273 
L 240.724138 180.290273 
L 243.639498 180.290273 
L 246.554859 239.646606 
L 249.470219 239.646606 
L 252.38558 239.646606 
L 255.30094 283.882111 
L 258.216301 328.117616 
L 261.131661 328.117616 
L 264.047022 328.117616 
L 266.962382 328.117616 
L 269.877743 369.36 
L 272.793103 369.36 
L 284.454545 369.36 
L 290.285266 343.570377 
L 293.200627 326.377296 
L 296.115987 320.75233 
L 299.031348 320.75233 
L 301.946708 312.708275 
L 304.862069 308.686247 
L 307.777429 314.444972 
L 310.69279 319.051952 
L 313.60815 319.536885 
L 316.523511 319.051952 
L 319.438871 321.663127 
L 322.354232 318.415489 
L 325.269592 318.415489 
L 328.184953 318.415489 
L 331.100313 196.639579 
L 334.015674 187.794599 
L 336.931034 185.623088 
L 339.846395 185.623088 
L 342.761755 185.623088 
L 345.677116 319.18708 
L 348.592476 319.18708 
L 354.423197 292.474281 
L 357.338558 319.18708 
L 360.253918 319.18708 
L 363.169279 319.18708 
L 366.084639 324.882921 
L 369 313.105607 
L 371.915361 298.383965 
L 374.830721 298.43315 
L 377.746082 282.579208 
L 380.661442 276.10247 
L 383.576803 276.10247 
L 386.492163 276.10247 
L 389.407524 272.868146 
L 395.238245 272.059565 
L 398.153605 272.059565 
L 401.068966 270.532786 
L 406.899687 271.267796 
L 409.815047 263.350804 
L 412.730408 260.385135 
L 415.645768 260.385135 
L 421.476489 260.385135 
L 424.39185 260.385135 
L 427.30721 260.699814 
L 430.222571 260.385135 
L 441.884013 257.392996 
L 444.799373 252.309795 
L 447.714734 249.912647 
L 450.630094 249.918849 
L 459.376176 249.918849 
L 462.291536 252.018459 
L 465.206897 243.891248 
L 468.122257 249.4172 
L 471.037618 243.891248 
L 476.868339 243.891248 
L 479.783699 243.891248 
L 482.69906 249.4172 
L 488.529781 243.89236 
L 506.021944 243.89236 
L 508.937304 243.89236 
L 511.852665 243.89236 
L 514.768025 243.89236 
L 517.683386 228.001873 
L 529.344828 228.001873 
L 538.090909 228.001873 
L 541.00627 207.297159 
L 543.92163 226.659548 
L 546.836991 226.654622 
L 549.752351 207.297159 
L 552.667712 208.270075 
L 561.413793 208.270075 
L 564.329154 208.270075 
L 570.159875 128.520648 
L 573.075235 115.938001 
L 578.905956 128.520648 
L 581.821317 128.520648 
L 587.652038 128.520648 
L 590.567398 74.132287 
L 593.482759 72.414854 
L 599.31348 66.96 
L 605.144201 70.430462 
L 608.059561 70.430462 
L 616.805643 133.016676 
L 619.721003 115.938001 
L 622.636364 115.938001 
" clip-path="url(#p525e7e8336)" style="fill: none; stroke: #ff0000; stroke-width: 1.5; stroke-linecap: square"/>
    <defs>
     <path id="m416b59e2e1" d="M 0 3 
C 0.795609 3 1.55874 2.683901 2.12132 2.12132 
C 2.683901 1.55874 3 0.795609 3 0 
C 3 -0.795609 2.683901 -1.55874 2.12132 -2.12132 
C 1.55874 -2.683901 0.795609 -3 0 -3 
C -0.795609 -3 -1.55874 -2.683901 -2.12132 -2.12132 
C -2.683901 -1.55874 -3 -0.795609 -3 0 
C -3 0.795609 -2.683901 1.55874 -2.12132 2.12132 
C -1.55874 2.683901 -0.795609 3 0 3 
z
" style="stroke: #ff0000"/>
    </defs>
    <g clip-path="url(#p525e7e8336)">
     <use xlink:href="#m416b59e2e1" x="115.363636" y="293.061782" style="fill: #ff0000; stroke: #ff0000"/>
     <use xlink:href="#m416b59e2e1" x="121.194357" y="292.831429" style="fill: #ff0000; stroke: #ff0000"/>
     <use xlink:href="#m416b59e2e1" x="135.77116" y="292.831429" style="fill: #ff0000; stroke: #ff0000"/>
     <use xlink:href="#m416b59e2e1" x="138.68652" y="292.831429" style="fill: #ff0000; stroke: #ff0000"/>
     <use xlink:href="#m416b59e2e1" x="141.601881" y="267.466508" style="fill: #ff0000; stroke: #ff0000"/>
     <use xlink:href="#m416b59e2e1" x="144.517241" y="229.259347" style="fill: #ff0000; stroke: #ff0000"/>
     <use xlink:href="#m416b59e2e1" x="147.432602" y="216.833356" style="fill: #ff0000; stroke: #ff0000"/>
     <use xlink:href="#m416b59e2e1" x="150.347962" y="216.833356" style="fill: #ff0000; stroke: #ff0000"/>
     <use xlink:href="#m416b59e2e1" x="159.094044" y="266.303124" style="fill: #ff0000; stroke: #ff0000"/>
     <use xlink:href="#m416b59e2e1" x="162.009404" y="278.670566" style="fill: #ff0000; stroke: #ff0000"/>
     <use xlink:href="#m416b59e2e1" x="167.840125" y="237.445759" style="fill: #ff0000; stroke: #ff0000"/>
     <use xlink:href="#m416b59e2e1" x="176.586207" y="247.751961" style="fill: #ff0000; stroke: #ff0000"/>
     <use xlink:href="#m416b59e2e1" x="182.416928" y="217.442771" style="fill: #ff0000; stroke: #ff0000"/>
     <use xlink:href="#m416b59e2e1" x="185.332288" y="217.442771" style="fill: #ff0000; stroke: #ff0000"/>
     <use xlink:href="#m416b59e2e1" x="191.163009" y="218.720613" style="fill: #ff0000; stroke: #ff0000"/>
     <use xlink:href="#m416b59e2e1" x="196.99373" y="215.720191" style="fill: #ff0000; stroke: #ff0000"/>
     <use xlink:href="#m416b59e2e1" x="199.909091" y="218.720613" style="fill: #ff0000; stroke: #ff0000"/>
     <use xlink:href="#m416b59e2e1" x="202.824451" y="205.135256" style="fill: #ff0000; stroke: #ff0000"/>
     <use xlink:href="#m416b59e2e1" x="208.655172" y="177.961377" style="fill: #ff0000; stroke: #ff0000"/>
     <use xlink:href="#m416b59e2e1" x="211.570533" y="177.961377" style="fill: #ff0000; stroke: #ff0000"/>
     <use xlink:href="#m416b59e2e1" x="220.316614" y="178.737676" style="fill: #ff0000; stroke: #ff0000"/>
     <use xlink:href="#m416b59e2e1" x="223.231975" y="180.290273" style="fill: #ff0000; stroke: #ff0000"/>
     <use xlink:href="#m416b59e2e1" x="226.147335" y="180.290273" style="fill: #ff0000; stroke: #ff0000"/>
     <use xlink:href="#m416b59e2e1" x="240.724138" y="180.290273" style="fill: #ff0000; stroke: #ff0000"/>
     <use xlink:href="#m416b59e2e1" x="243.639498" y="180.290273" style="fill: #ff0000; stroke: #ff0000"/>
     <use xlink:href="#m416b59e2e1" x="246.554859" y="239.646606" style="fill: #ff0000; stroke: #ff0000"/>
     <use xlink:href="#m416b59e2e1" x="249.470219" y="239.646606" style="fill: #ff0000; stroke: #ff0000"/>
     <use xlink:href="#m416b59e2e1" x="252.38558" y="239.646606" style="fill: #ff0000; stroke: #ff0000"/>
     <use xlink:href="#m416b59e2e1" x="255.30094" y="283.882111" style="fill: #ff0000; stroke: #ff0000"/>
     <use xlink:href="#m416b59e2e1" x="258.216301" y="328.117616" style="fill: #ff0000; stroke: #ff0000"/>
     <use xlink:href="#m416b59e2e1" x="261.131661" y="328.117616" style="fill: #ff0000; stroke: #ff0000"/>
     <use xlink:href="#m416b59e2e1" x="264.047022" y="328.117616" style="fill: #ff0000; stroke: #ff0000"/>
     <use xlink:href="#m416b59e2e1" x="266.962382" y="328.117616" style="fill: #ff0000; stroke: #ff0000"/>
     <use xlink:href="#m416b59e2e1" x="269.877743" y="369.36" style="fill: #ff0000; stroke: #ff0000"/>
     <use xlink:href="#m416b59e2e1" x="272.793103" y="369.36" style="fill: #ff0000; stroke: #ff0000"/>
     <use xlink:href="#m416b59e2e1" x="284.454545" y="369.36" style="fill: #ff0000; stroke: #ff0000"/>
     <use xlink:href="#m416b59e2e1" x="290.285266" y="343.570377" style="fill: #ff0000; stroke: #ff0000"/>
     <use xlink:href="#m416b59e2e1" x="293.200627" y="326.377296" style="fill: #ff0000; stroke: #ff0000"/>
     <use xlink:href="#m416b59e2e1" x="296.115987" y="320.75233" style="fill: #ff0000; stroke: #ff0000"/>
     <use xlink:href="#m416b59e2e1" x="299.031348" y="320.75233" style="fill: #ff0000; stroke: #ff0000"/>
     <use xlink:href="#m416b59e2e1" x="301.946708" y="312.708275" style="fill: #ff0000; stroke: #ff0000"/>
     <use xlink:href="#m416b59e2e1" x="304.862069" y="308.686247" style="fill: #ff0000; stroke: #ff0000"/>
     <use xlink:href="#m416b59e2e1" x="307.777429" y="314.444972" style="fill: #ff0000; stroke: #ff0000"/>
     <use xlink:href="#m416b59e2e1" x="310.69279" y="319.051952" style="fill: #ff0000; stroke: #ff0000"/>
     <use xlink:href="#m416b59e2e1" x="313.60815" y="319.536885" style="fill: #ff0000; stroke: #ff0000"/>
     <use xlink:href="#m416b59e2e1" x="316.523511" y="319.051952" style="fill: #ff0000; stroke: #ff0000"/>
     <use xlink:href="#m416b59e2e1" x="319.438871" y="321.663127" style="fill: #ff0000; stroke: #ff0000"/>
     <use xlink:href="#m416b59e2e1" x="322.354232" y="318.415489" style="fill: #ff0000; stroke: #ff0000"/>
     <use xlink:href="#m416b59e2e1" x="325.269592" y="318.415489" style="fill: #ff0000; stroke: #ff0000"/>
     <use xlink:href="#m416b59e2e1" x="328.184953" y="318.415489" style="fill: #ff0000; stroke: #ff0000"/>
     <use xlink:href="#m416b59e2e1" x="331.100313" y="196.639579" style="fill: #ff0000; stroke: #ff0000"/>
     <use xlink:href="#m416b59e2e1" x="334.015674" y="187.794599" style="fill: #ff0000; stroke: #ff0000"/>
     <use xlink:href="#m416b59e2e1" x="336.931034" y="185.623088" style="fill: #ff0000; stroke: #ff0000"/>
     <use xlink:href="#m416b59e2e1" x="339.846395" y="185.623088" style="fill: #ff0000; stroke: #ff0000"/>
     <use xlink:href="#m416b59e2e1" x="342.761755" y="185.623088" style="fill: #ff0000; stroke: #ff0000"/>
     <use xlink:href="#m416b59e2e1" x="345.677116" y="319.18708" style="fill: #ff0000; stroke: #ff0000"/>
     <use xlink:href="#m416b59e2e1" x="348.592476" y="319.18708" style="fill: #ff0000; stroke: #ff0000"/>
     <use xlink:href="#m416b59e2e1" x="354.423197" y="292.474281" style="fill: #ff0000; stroke: #ff0000"/>
     <use xlink:href="#m416b59e2e1" x="357.338558" y="319.18708" style="fill: #ff0000; stroke: #ff0000"/>
     <use xlink:href="#m416b59e2e1" x="360.253918" y="319.18708" style="fill: #ff0000; stroke: #ff0000"/>
     <use xlink:href="#m416b59e2e1" x="363.169279" y="319.18708" style="fill: #ff0000; stroke: #ff0000"/>
     <use xlink:href="#m416b59e2e1" x="366.084639" y="324.882921" style="fill: #ff0000; stroke: #ff0000"/>
     <use xlink:href="#m416b59e2e1" x="369" y="313.105607" style="fill: #ff0000; stroke: #ff0000"/>
     <use xlink:href="#m416b59e2e1" x="371.915361" y="298.383965" style="fill: #ff0000; stroke: #ff0000"/>
     <use xlink:href="#m416b59e2e1" x="374.830721" y="298.43315" style="fill: #ff0000; stroke: #ff0000"/>
     <use xlink:href="#m416b59e2e1" x="377.746082" y="282.579208" style="fill: #ff0000; stroke: #ff0000"/>
     <use xlink:href="#m416b59e2e1" x="380.661442" y="276.10247" style="fill: #ff0000; stroke: #ff0000"/>
     <use xlink:href="#m416b59e2e1" x="383.576803" y="276.10247" style="fill: #ff0000; stroke: #ff0000"/>
     <use xlink:href="#m416b59e2e1" x="386.492163" y="276.10247" style="fill: #ff0000; stroke: #ff0000"/>
     <use xlink:href="#m416b59e2e1" x="389.407524" y="272.868146" style="fill: #ff0000; stroke: #ff0000"/>
     <use xlink:href="#m416b59e2e1" x="395.238245" y="272.059565" style="fill: #ff0000; stroke: #ff0000"/>
     <use xlink:href="#m416b59e2e1" x="398.153605" y="272.059565" style="fill: #ff0000; stroke: #ff0000"/>
     <use xlink:href="#m416b59e2e1" x="401.068966" y="270.532786" style="fill: #ff0000; stroke: #ff0000"/>
     <use xlink:href="#m416b59e2e1" x="406.899687" y="271.267796" style="fill: #ff0000; stroke: #ff0000"/>
     <use xlink:href="#m416b59e2e1" x="409.815047" y="263.350804" style="fill: #ff0000; stroke: #ff0000"/>
     <use xlink:href="#m416b59e2e1" x="412.730408" y="260.385135" style="fill: #ff0000; stroke: #ff0000"/>
     <use xlink:href="#m416b59e2e1" x="415.645768" y="260.385135" style="fill: #ff0000; stroke: #ff0000"/>
     <use xlink:href="#m416b59e2e1" x="421.476489" y="260.385135" style="fill: #ff0000; stroke: #ff0000"/>
     <use xlink:href="#m416b59e2e1" x="424.39185" y="260.385135" style="fill: #ff0000; stroke: #ff0000"/>
     <use xlink:href="#m416b59e2e1" x="427.30721" y="260.699814" style="fill: #ff0000; stroke: #ff0000"/>
     <use xlink:href="#m416b59e2e1" x="430.222571" y="260.385135" style="fill: #ff0000; stroke: #ff0000"/>
     <use xlink:href="#m416b59e2e1" x="441.884013" y="257.392996" style="fill: #ff0000; stroke: #ff0000"/>
     <use xlink:href="#m416b59e2e1" x="444.799373" y="252.309795" style="fill: #ff0000; stroke: #ff0000"/>
     <use xlink:href="#m416b59e2e1" x="447.714734" y="249.912647" style="fill: #ff0000; stroke: #ff0000"/>
     <use xlink:href="#m416b59e2e1" x="450.630094" y="249.918849" style="fill: #ff0000; stroke: #ff0000"/>
     <use xlink:href="#m416b59e2e1" x="459.376176" y="249.918849" style="fill: #ff0000; stroke: #ff0000"/>
     <use xlink:href="#m416b59e2e1" x="462.291536" y="252.018459" style="fill: #ff0000; stroke: #ff0000"/>
     <use xlink:href="#m416b59e2e1" x="465.206897" y="243.891248" style="fill: #ff0000; stroke: #ff0000"/>
     <use xlink:href="#m416b59e2e1" x="468.122257" y="249.4172" style="fill: #ff0000; stroke: #ff0000"/>
     <use xlink:href="#m416b59e2e1" x="471.037618" y="243.891248" style="fill: #ff0000; stroke: #ff0000"/>
     <use xlink:href="#m416b59e2e1" x="476.868339" y="243.891248" style="fill: #ff0000; stroke: #ff0000"/>
     <use xlink:href="#m416b59e2e1" x="479.783699" y="243.891248" style="fill: #ff0000; stroke: #ff0000"/>
     <use xlink:href="#m416b59e2e1" x="482.69906" y="249.4172" style="fill: #ff0000; stroke: #ff0000"/>
     <use xlink:href="#m416b59e2e1" x="488.529781" y="243.89236" style="fill: #ff0000; stroke: #ff0000"/>
     <use xlink:href="#m416b59e2e1" x="506.021944" y="243.89236" style="fill: #ff0000; stroke: #ff0000"/>
     <use xlink:href="#m416b59e2e1" x="508.937304" y="243.89236" style="fill: #ff0000; stroke: #ff0000"/>
     <use xlink:href="#m416b59e2e1" x="511.852665" y="243.89236" style="fill: #ff0000; stroke: #ff0000"/>
     <use xlink:href="#m416b59e2e1" x="514.768025" y="243.89236" style="fill: #ff0000; stroke: #ff0000"/>
     <use xlink:href="#m416b59e2e1" x="517.683386" y="228.001873" style="fill: #ff0000; stroke: #ff0000"/>
     <use xlink:href="#m416b59e2e1" x="529.344828" y="228.001873" style="fill: #ff0000; stroke: #ff0000"/>
     <use xlink:href="#m416b59e2e1" x="538.090909" y="228.001873" style="fill: #ff0000; stroke: #ff0000"/>
     <use xlink:href="#m416b59e2e1" x="541.00627" y="207.297159" style="fill: #ff0000; stroke: #ff0000"/>
     <use xlink:href="#m416b59e2e1" x="543.92163" y="226.659548" style="fill: #ff0000; stroke: #ff0000"/>
     <use xlink:href="#m416b59e2e1" x="546.836991" y="226.654622" style="fill: #ff0000; stroke: #ff0000"/>
     <use xlink:href="#m416b59e2e1" x="549.752351" y="207.297159" style="fill: #ff0000; stroke: #ff0000"/>
     <use xlink:href="#m416b59e2e1" x="552.667712" y="208.270075" style="fill: #ff0000; stroke: #ff0000"/>
     <use xlink:href="#m416b59e2e1" x="561.413793" y="208.270075" style="fill: #ff0000; stroke: #ff0000"/>
     <use xlink:href="#m416b59e2e1" x="564.329154" y="208.270075" style="fill: #ff0000; stroke: #ff0000"/>
     <use xlink:href="#m416b59e2e1" x="570.159875" y="128.520648" style="fill: #ff0000; stroke: #ff0000"/>
     <use xlink:href="#m416b59e2e1" x="573.075235" y="115.938001" style="fill: #ff0000; stroke: #ff0000"/>
     <use xlink:href="#m416b59e2e1" x="578.905956" y="128.520648" style="fill: #ff0000; stroke: #ff0000"/>
     <use xlink:href="#m416b59e2e1" x="581.821317" y="128.520648" style="fill: #ff0000; stroke: #ff0000"/>
     <use xlink:href="#m416b59e2e1" x="587.652038" y="128.520648" style="fill: #ff0000; stroke: #ff0000"/>
     <use xlink:href="#m416b59e2e1" x="590.567398" y="74.132287" style="fill: #ff0000; stroke: #ff0000"/>
     <use xlink:href="#m416b59e2e1" x="593.482759" y="72.414854" style="fill: #ff0000; stroke: #ff0000"/>
     <use xlink:href="#m416b59e2e1" x="599.31348" y="66.96" style="fill: #ff0000; stroke: #ff0000"/>
     <use xlink:href="#m416b59e2e1" x="605.144201" y="70.430462" style="fill: #ff0000; stroke: #ff0000"/>
     <use xlink:href="#m416b59e2e1" x="608.059561" y="70.430462" style="fill: #ff0000; stroke: #ff0000"/>
     <use xlink:href="#m416b59e2e1" x="616.805643" y="133.016676" style="fill: #ff0000; stroke: #ff0000"/>
     <use xlink:href="#m416b59e2e1" x="619.721003" y="115.938001" style="fill: #ff0000; stroke: #ff0000"/>
     <use xlink:href="#m416b59e2e1" x="622.636364" y="115.938001" style="fill: #ff0000; stroke: #ff0000"/>
    </g>
   </g>
   <g id="patch_11">
    <path d="M 90 384.48 
L 90 51.84 
" style="fill: none; stroke: #000000; stroke-width: 0.8; stroke-linejoin: miter; stroke-linecap: square"/>
   </g>
   <g id="patch_12">
    <path d="M 708 384.48 
L 708 51.84 
" style="fill: none; stroke: #000000; stroke-width: 0.8; stroke-linejoin: miter; stroke-linecap: square"/>
   </g>
   <g id="patch_13">
    <path d="M 90 384.48 
L 648 384.48 
" style="fill: none; stroke: #000000; stroke-width: 0.8; stroke-linejoin: miter; stroke-linecap: square"/>
   </g>
   <g id="patch_14">
    <path d="M 90 51.84 
L 648 51.84 
" style="fill: none; stroke: #000000; stroke-width: 0.8; stroke-linejoin: miter; stroke-linecap: square"/>
   </g>
   <g id="text_34">
    <!-- 6004020887 每周需求量、收益与平均单价 -->
    <g transform="translate(258 45.84) scale(0.12 -0.12)">
     <defs>
      <path id="SimHei-20" transform="scale(0.015625)"/>
      <path id="SimHei-6bcf" d="M 5225 3650 
Q 5175 3150 5150 2675 
L 5125 2200 
Q 5525 2200 6000 2225 
L 6000 1775 
Q 5625 1800 5100 1800 
L 5050 650 
Q 5325 650 5700 675 
L 5700 225 
Q 5400 250 5025 250 
Q 5000 -275 4775 -425 
Q 4550 -575 4000 -650 
Q 3950 -400 3775 -125 
Q 4375 -125 4475 -50 
Q 4575 25 4575 250 
L 1400 250 
L 1500 1100 
L 1550 1800 
L 1275 1800 
Q 825 1800 550 1775 
L 550 2225 
Q 975 2200 1275 2200 
L 1575 2200 
L 1625 2825 
L 1675 3650 
L 5225 3650 
z
M 2350 5000 
Q 2175 4825 2050 4600 
L 4875 4600 
Q 5275 4600 5775 4625 
L 5775 4175 
Q 5275 4200 4875 4200 
L 1825 4200 
L 1375 3625 
Q 1125 3325 775 2975 
Q 600 3175 350 3300 
Q 725 3575 1150 4112 
Q 1575 4650 1825 5250 
Q 2125 5075 2350 5000 
z
M 1975 1800 
L 1875 650 
L 4625 650 
L 4675 1800 
L 2950 1800 
Q 3575 1275 3825 1125 
Q 3625 925 3475 725 
Q 3100 1100 2650 1475 
Q 2775 1675 2875 1800 
L 1975 1800 
z
M 2975 3250 
Q 3125 3150 3287 3012 
Q 3450 2875 3800 2550 
Q 3650 2350 3525 2200 
L 4700 2200 
L 4750 3250 
L 2975 3250 
z
M 2075 3250 
L 2000 2200 
L 3425 2200 
Q 3150 2500 3012 2625 
Q 2875 2750 2700 2900 
Q 2800 3050 2925 3250 
L 2075 3250 
z
" transform="scale(0.015625)"/>
      <path id="SimHei-3001" d="M 1725 -275 
Q 1325 700 925 1450 
L 1325 1650 
Q 1825 950 2325 25 
L 1725 -275 
z
" transform="scale(0.015625)"/>
      <path id="SimHei-4e0e" d="M 5350 100 
Q 5275 -300 4925 -425 
Q 4575 -550 3900 -600 
Q 3875 -375 3650 -25 
Q 4375 -50 4575 0 
Q 4775 50 4837 225 
Q 4900 400 5100 2350 
L 1125 2350 
Q 1450 4350 1475 5200 
Q 1800 5150 2075 5125 
Q 1975 4825 1900 4275 
L 4900 4275 
Q 5400 4275 5800 4300 
L 5800 3825 
Q 5400 3850 4950 3850 
L 1850 3850 
L 1700 2750 
L 5675 2750 
Q 5625 2450 5575 2050 
L 5350 100 
z
M 3675 1350 
Q 4125 1350 4500 1375 
L 4500 875 
Q 4125 900 3850 900 
L 1450 900 
Q 1000 900 500 875 
L 500 1375 
Q 1000 1350 1450 1350 
L 3675 1350 
z
" transform="scale(0.015625)"/>
     </defs>
     <use xlink:href="#SimHei-36"/>
     <use xlink:href="#SimHei-30" x="50"/>
     <use xlink:href="#SimHei-30" x="100"/>
     <use xlink:href="#SimHei-34" x="150"/>
     <use xlink:href="#SimHei-30" x="200"/>
     <use xlink:href="#SimHei-32" x="250"/>
     <use xlink:href="#SimHei-30" x="300"/>
     <use xlink:href="#SimHei-38" x="350"/>
     <use xlink:href="#SimHei-38" x="400"/>
     <use xlink:href="#SimHei-37" x="450"/>
     <use xlink:href="#SimHei-20" x="500"/>
     <use xlink:href="#SimHei-6bcf" x="550"/>
     <use xlink:href="#SimHei-5468" x="650"/>
     <use xlink:href="#SimHei-9700" x="750"/>
     <use xlink:href="#SimHei-6c42" x="850"/>
     <use xlink:href="#SimHei-91cf" x="950"/>
     <use xlink:href="#SimHei-3001" x="1050"/>
     <use xlink:href="#SimHei-6536" x="1150"/>
     <use xlink:href="#SimHei-76ca" x="1250"/>
     <use xlink:href="#SimHei-4e0e" x="1350"/>
     <use xlink:href="#SimHei-5e73" x="1450"/>
     <use xlink:href="#SimHei-5747" x="1550"/>
     <use xlink:href="#SimHei-5355" x="1650"/>
     <use xlink:href="#SimHei-4ef7" x="1750"/>
    </g>
   </g>
  </g>
 </g>
 <defs>
  <clipPath id="p525e7e8336">
   <rect x="90" y="51.84" width="558" height="332.64"/>
  </clipPath>
 </defs>
</svg>
