<?xml version="1.0" encoding="utf-8" standalone="no"?>
<!DOCTYPE svg PUBLIC "-//W3C//DTD SVG 1.1//EN"
  "http://www.w3.org/Graphics/SVG/1.1/DTD/svg11.dtd">
<svg xmlns:xlink="http://www.w3.org/1999/xlink" width="720pt" height="432pt" viewBox="0 0 720 432" xmlns="http://www.w3.org/2000/svg" version="1.1">
 <metadata>
  <rdf:RDF xmlns:dc="http://purl.org/dc/elements/1.1/" xmlns:cc="http://creativecommons.org/ns#" xmlns:rdf="http://www.w3.org/1999/02/22-rdf-syntax-ns#">
   <cc:Work>
    <dc:type rdf:resource="http://purl.org/dc/dcmitype/StillImage"/>
    <dc:date>2024-08-17T14:08:53.117929</dc:date>
    <dc:format>image/svg+xml</dc:format>
    <dc:creator>
     <cc:Agent>
      <dc:title>Matplotlib v3.8.0, https://matplotlib.org/</dc:title>
     </cc:Agent>
    </dc:creator>
   </cc:Work>
  </rdf:RDF>
 </metadata>
 <defs>
  <style type="text/css">*{stroke-linejoin: round; stroke-linecap: butt}</style>
 </defs>
 <g id="figure_1">
  <g id="patch_1">
   <path d="M 0 432 
L 720 432 
L 720 0 
L 0 0 
z
" style="fill: #ffffff"/>
  </g>
  <g id="axes_1">
   <g id="patch_2">
    <path d="M 90 384.48 
L 648 384.48 
L 648 51.84 
L 90 51.84 
z
" style="fill: #ffffff"/>
   </g>
   <g id="matplotlib.axis_1">
    <g id="xtick_1">
     <g id="line2d_1">
      <path d="M 112.448276 384.48 
L 112.448276 51.84 
" clip-path="url(#pe810253451)" style="fill: none; stroke: #b0b0b0; stroke-width: 0.8; stroke-linecap: square"/>
     </g>
     <g id="line2d_2">
      <defs>
       <path id="m57f9aae057" d="M 0 0 
L 0 3.5 
" style="stroke: #000000; stroke-width: 0.8"/>
      </defs>
      <g>
       <use xlink:href="#m57f9aae057" x="112.448276" y="384.48" style="stroke: #000000; stroke-width: 0.8"/>
      </g>
     </g>
     <g id="text_1">
      <!-- 0 -->
      <g transform="translate(109.948276 398.355) scale(0.1 -0.1)">
       <defs>
        <path id="SimHei-30" d="M 225 2537 
Q 250 3200 412 3587 
Q 575 3975 875 4225 
Q 1175 4475 1612 4475 
Q 2050 4475 2375 4112 
Q 2700 3750 2800 3200 
Q 2900 2650 2862 1937 
Q 2825 1225 2612 775 
Q 2400 325 1975 150 
Q 1550 -25 1125 187 
Q 700 400 525 750 
Q 350 1100 275 1487 
Q 200 1875 225 2537 
z
M 750 2687 
Q 675 2000 800 1462 
Q 925 925 1212 700 
Q 1500 475 1800 612 
Q 2100 750 2237 1162 
Q 2375 1575 2375 2062 
Q 2375 2550 2337 2950 
Q 2300 3350 2112 3675 
Q 1925 4000 1612 4012 
Q 1300 4025 1062 3700 
Q 825 3375 750 2687 
z
" transform="scale(0.015625)"/>
       </defs>
       <use xlink:href="#SimHei-30"/>
      </g>
     </g>
    </g>
    <g id="xtick_2">
     <g id="line2d_3">
      <path d="M 185.332288 384.48 
L 185.332288 51.84 
" clip-path="url(#pe810253451)" style="fill: none; stroke: #b0b0b0; stroke-width: 0.8; stroke-linecap: square"/>
     </g>
     <g id="line2d_4">
      <g>
       <use xlink:href="#m57f9aae057" x="185.332288" y="384.48" style="stroke: #000000; stroke-width: 0.8"/>
      </g>
     </g>
     <g id="text_2">
      <!-- 25 -->
      <g transform="translate(180.332288 398.355) scale(0.1 -0.1)">
       <defs>
        <path id="SimHei-32" d="M 300 250 
Q 325 625 650 925 
Q 975 1225 1475 1862 
Q 1975 2500 2125 2850 
Q 2275 3200 2237 3450 
Q 2200 3700 2000 3862 
Q 1800 4025 1537 4000 
Q 1275 3975 1037 3800 
Q 800 3625 675 3275 
L 200 3350 
Q 400 3925 712 4187 
Q 1025 4450 1450 4475 
Q 1700 4500 1900 4462 
Q 2100 4425 2312 4287 
Q 2525 4150 2662 3875 
Q 2800 3600 2762 3212 
Q 2725 2825 2375 2287 
Q 2025 1750 1025 600 
L 2825 600 
L 2825 150 
L 300 150 
L 300 250 
z
" transform="scale(0.015625)"/>
        <path id="SimHei-35" d="M 550 1325 
Q 725 650 1150 575 
Q 1575 500 1837 662 
Q 2100 825 2212 1087 
Q 2325 1350 2312 1675 
Q 2300 2000 2137 2225 
Q 1975 2450 1725 2525 
Q 1475 2600 1162 2525 
Q 850 2450 650 2175 
L 225 2225 
Q 275 2375 700 4375 
L 2675 4375 
L 2675 3925 
L 1075 3925 
Q 950 3250 825 2850 
Q 1200 3025 1525 3012 
Q 1850 3000 2150 2862 
Q 2450 2725 2587 2487 
Q 2725 2250 2787 2012 
Q 2850 1775 2837 1500 
Q 2825 1225 2725 937 
Q 2625 650 2425 462 
Q 2225 275 1937 162 
Q 1650 50 1275 75 
Q 900 100 562 350 
Q 225 600 100 1200 
L 550 1325 
z
" transform="scale(0.015625)"/>
       </defs>
       <use xlink:href="#SimHei-32"/>
       <use xlink:href="#SimHei-35" x="50"/>
      </g>
     </g>
    </g>
    <g id="xtick_3">
     <g id="line2d_5">
      <path d="M 258.216301 384.48 
L 258.216301 51.84 
" clip-path="url(#pe810253451)" style="fill: none; stroke: #b0b0b0; stroke-width: 0.8; stroke-linecap: square"/>
     </g>
     <g id="line2d_6">
      <g>
       <use xlink:href="#m57f9aae057" x="258.216301" y="384.48" style="stroke: #000000; stroke-width: 0.8"/>
      </g>
     </g>
     <g id="text_3">
      <!-- 50 -->
      <g transform="translate(253.216301 398.355) scale(0.1 -0.1)">
       <use xlink:href="#SimHei-35"/>
       <use xlink:href="#SimHei-30" x="50"/>
      </g>
     </g>
    </g>
    <g id="xtick_4">
     <g id="line2d_7">
      <path d="M 331.100313 384.48 
L 331.100313 51.84 
" clip-path="url(#pe810253451)" style="fill: none; stroke: #b0b0b0; stroke-width: 0.8; stroke-linecap: square"/>
     </g>
     <g id="line2d_8">
      <g>
       <use xlink:href="#m57f9aae057" x="331.100313" y="384.48" style="stroke: #000000; stroke-width: 0.8"/>
      </g>
     </g>
     <g id="text_4">
      <!-- 75 -->
      <g transform="translate(326.100313 398.355) scale(0.1 -0.1)">
       <defs>
        <path id="SimHei-37" d="M 850 150 
Q 1300 2050 2425 3925 
L 275 3925 
L 275 4375 
L 2950 4375 
L 2950 3950 
Q 1775 2050 1400 150 
L 850 150 
z
" transform="scale(0.015625)"/>
       </defs>
       <use xlink:href="#SimHei-37"/>
       <use xlink:href="#SimHei-35" x="50"/>
      </g>
     </g>
    </g>
    <g id="xtick_5">
     <g id="line2d_9">
      <path d="M 403.984326 384.48 
L 403.984326 51.84 
" clip-path="url(#pe810253451)" style="fill: none; stroke: #b0b0b0; stroke-width: 0.8; stroke-linecap: square"/>
     </g>
     <g id="line2d_10">
      <g>
       <use xlink:href="#m57f9aae057" x="403.984326" y="384.48" style="stroke: #000000; stroke-width: 0.8"/>
      </g>
     </g>
     <g id="text_5">
      <!-- 100 -->
      <g transform="translate(396.484326 398.355) scale(0.1 -0.1)">
       <defs>
        <path id="SimHei-31" d="M 1400 3600 
Q 1075 3275 575 2975 
L 575 3450 
Q 1200 3875 1600 4450 
L 1900 4450 
L 1900 150 
L 1400 150 
L 1400 3600 
z
" transform="scale(0.015625)"/>
       </defs>
       <use xlink:href="#SimHei-31"/>
       <use xlink:href="#SimHei-30" x="50"/>
       <use xlink:href="#SimHei-30" x="100"/>
      </g>
     </g>
    </g>
    <g id="xtick_6">
     <g id="line2d_11">
      <path d="M 476.868339 384.48 
L 476.868339 51.84 
" clip-path="url(#pe810253451)" style="fill: none; stroke: #b0b0b0; stroke-width: 0.8; stroke-linecap: square"/>
     </g>
     <g id="line2d_12">
      <g>
       <use xlink:href="#m57f9aae057" x="476.868339" y="384.48" style="stroke: #000000; stroke-width: 0.8"/>
      </g>
     </g>
     <g id="text_6">
      <!-- 125 -->
      <g transform="translate(469.368339 398.355) scale(0.1 -0.1)">
       <use xlink:href="#SimHei-31"/>
       <use xlink:href="#SimHei-32" x="50"/>
       <use xlink:href="#SimHei-35" x="100"/>
      </g>
     </g>
    </g>
    <g id="xtick_7">
     <g id="line2d_13">
      <path d="M 549.752351 384.48 
L 549.752351 51.84 
" clip-path="url(#pe810253451)" style="fill: none; stroke: #b0b0b0; stroke-width: 0.8; stroke-linecap: square"/>
     </g>
     <g id="line2d_14">
      <g>
       <use xlink:href="#m57f9aae057" x="549.752351" y="384.48" style="stroke: #000000; stroke-width: 0.8"/>
      </g>
     </g>
     <g id="text_7">
      <!-- 150 -->
      <g transform="translate(542.252351 398.355) scale(0.1 -0.1)">
       <use xlink:href="#SimHei-31"/>
       <use xlink:href="#SimHei-35" x="50"/>
       <use xlink:href="#SimHei-30" x="100"/>
      </g>
     </g>
    </g>
    <g id="xtick_8">
     <g id="line2d_15">
      <path d="M 622.636364 384.48 
L 622.636364 51.84 
" clip-path="url(#pe810253451)" style="fill: none; stroke: #b0b0b0; stroke-width: 0.8; stroke-linecap: square"/>
     </g>
     <g id="line2d_16">
      <g>
       <use xlink:href="#m57f9aae057" x="622.636364" y="384.48" style="stroke: #000000; stroke-width: 0.8"/>
      </g>
     </g>
     <g id="text_8">
      <!-- 175 -->
      <g transform="translate(615.136364 398.355) scale(0.1 -0.1)">
       <use xlink:href="#SimHei-31"/>
       <use xlink:href="#SimHei-37" x="50"/>
       <use xlink:href="#SimHei-35" x="100"/>
      </g>
     </g>
    </g>
    <g id="text_9">
     <!-- 周数 -->
     <g transform="translate(359 411.339375) scale(0.1 -0.1)">
      <defs>
       <path id="SimHei-5468" d="M 5600 4925 
Q 5575 4400 5575 3800 
L 5575 50 
Q 5550 -375 5325 -462 
Q 5100 -550 4325 -600 
Q 4300 -400 4125 -75 
Q 4800 -100 4962 -37 
Q 5125 25 5100 225 
L 5100 4525 
L 1500 4525 
Q 1500 2575 1450 1887 
Q 1400 1200 1237 550 
Q 1075 -100 775 -625 
Q 625 -450 275 -225 
Q 650 225 825 1000 
Q 1000 1775 1025 2587 
Q 1050 3400 1000 4925 
L 5600 4925 
z
M 2050 325 
Q 2075 625 2075 950 
L 2075 1400 
Q 2075 1625 2050 1925 
L 4400 1925 
Q 4375 1725 4375 1450 
L 4375 875 
Q 4375 600 4400 325 
L 2050 325 
z
M 3000 3800 
Q 3000 4150 2975 4375 
L 3475 4375 
Q 3450 4075 3450 3800 
Q 4100 3800 4475 3825 
L 4475 3350 
Q 4125 3375 3450 3375 
L 3450 2800 
Q 4200 2800 4825 2825 
L 4825 2350 
Q 4175 2375 3725 2375 
L 2750 2375 
Q 2325 2375 1725 2350 
L 1725 2825 
Q 2325 2800 3000 2800 
L 3000 3375 
Q 2500 3375 1975 3350 
L 1975 3825 
Q 2475 3800 3000 3800 
z
M 3900 725 
L 3900 1525 
L 2550 1525 
L 2550 725 
L 3900 725 
z
" transform="scale(0.015625)"/>
       <path id="SimHei-6570" d="M 4525 4925 
Q 4475 4800 4400 4587 
Q 4325 4375 4175 3825 
L 5325 3825 
Q 5575 3825 5925 3850 
L 5925 3400 
Q 5650 3425 5500 3425 
Q 5500 3025 5362 2162 
Q 5225 1300 4875 675 
Q 5125 375 5437 137 
Q 5750 -100 6025 -200 
Q 5725 -425 5625 -625 
Q 5325 -450 5075 -225 
Q 4825 0 4575 325 
Q 4300 25 3987 -187 
Q 3675 -400 3200 -650 
Q 3075 -425 2850 -300 
Q 3225 -150 3650 125 
Q 4075 400 4300 675 
Q 4125 1025 3962 1425 
Q 3800 1825 3675 2475 
Q 3600 2275 3425 1950 
Q 3250 2050 3000 2150 
Q 3400 2850 3650 3675 
Q 3900 4500 3975 5100 
Q 4275 4975 4525 4925 
z
M 2100 2250 
Q 2000 2150 1875 1925 
L 3250 1925 
Q 3100 1300 2725 675 
Q 3125 525 3350 400 
Q 3225 225 3125 25 
Q 2900 175 2450 325 
Q 1950 -225 725 -650 
Q 600 -375 400 -275 
Q 1575 0 2000 475 
Q 1300 650 850 775 
Q 1000 1000 1250 1525 
Q 1000 1525 425 1500 
L 425 1950 
Q 900 1925 1400 1925 
Q 1500 2150 1550 2425 
Q 1825 2325 2100 2250 
z
M 1775 3950 
Q 1775 4550 1750 5100 
L 2250 5100 
Q 2225 4575 2225 3950 
Q 3075 3950 3425 3975 
L 3425 3525 
Q 3075 3550 2225 3550 
Q 2225 2825 2250 2425 
L 1750 2425 
Q 1775 2775 1775 3300 
Q 1650 3100 1300 2787 
Q 950 2475 650 2300 
Q 525 2525 275 2625 
Q 500 2700 875 2975 
Q 1250 3250 1450 3550 
Q 950 3550 500 3525 
L 500 3975 
Q 925 3950 1775 3950 
z
M 3975 3175 
Q 4200 1700 4600 1125 
Q 4850 1700 4937 2287 
Q 5025 2875 5050 3425 
L 4075 3425 
L 3975 3175 
z
M 1450 1000 
Q 1750 925 2275 800 
Q 2475 1050 2650 1525 
L 1725 1525 
Q 1600 1275 1450 1000 
z
M 3325 4825 
Q 3200 4625 3125 4450 
Q 3050 4275 2925 4025 
Q 2725 4125 2525 4175 
Q 2725 4500 2900 5000 
Q 3150 4875 3325 4825 
z
M 2575 3375 
Q 2900 3050 3200 2725 
Q 3050 2600 2875 2425 
Q 2525 2850 2300 3100 
Q 2450 3225 2575 3375 
z
M 925 5000 
Q 1275 4650 1500 4300 
L 1125 4075 
Q 950 4425 600 4725 
Q 825 4875 925 5000 
z
" transform="scale(0.015625)"/>
      </defs>
      <use xlink:href="#SimHei-5468"/>
      <use xlink:href="#SimHei-6570" x="100"/>
     </g>
    </g>
   </g>
   <g id="matplotlib.axis_2">
    <g id="ytick_1">
     <g id="line2d_17">
      <path d="M 90 342.319929 
L 648 342.319929 
" clip-path="url(#pe810253451)" style="fill: none; stroke: #b0b0b0; stroke-width: 0.8; stroke-linecap: square"/>
     </g>
     <g id="line2d_18">
      <defs>
       <path id="m25d017fa81" d="M 0 0 
L -3.5 0 
" style="stroke: #000000; stroke-width: 0.8"/>
      </defs>
      <g>
       <use xlink:href="#m25d017fa81" x="90" y="342.319929" style="stroke: #000000; stroke-width: 0.8"/>
      </g>
     </g>
     <g id="text_10">
      <!-- 5000 -->
      <g transform="translate(63 345.757429) scale(0.1 -0.1)">
       <use xlink:href="#SimHei-35"/>
       <use xlink:href="#SimHei-30" x="50"/>
       <use xlink:href="#SimHei-30" x="100"/>
       <use xlink:href="#SimHei-30" x="150"/>
      </g>
     </g>
    </g>
    <g id="ytick_2">
     <g id="line2d_19">
      <path d="M 90 293.647029 
L 648 293.647029 
" clip-path="url(#pe810253451)" style="fill: none; stroke: #b0b0b0; stroke-width: 0.8; stroke-linecap: square"/>
     </g>
     <g id="line2d_20">
      <g>
       <use xlink:href="#m25d017fa81" x="90" y="293.647029" style="stroke: #000000; stroke-width: 0.8"/>
      </g>
     </g>
     <g id="text_11">
      <!-- 10000 -->
      <g transform="translate(58 297.084529) scale(0.1 -0.1)">
       <use xlink:href="#SimHei-31"/>
       <use xlink:href="#SimHei-30" x="50"/>
       <use xlink:href="#SimHei-30" x="100"/>
       <use xlink:href="#SimHei-30" x="150"/>
       <use xlink:href="#SimHei-30" x="200"/>
      </g>
     </g>
    </g>
    <g id="ytick_3">
     <g id="line2d_21">
      <path d="M 90 244.97413 
L 648 244.97413 
" clip-path="url(#pe810253451)" style="fill: none; stroke: #b0b0b0; stroke-width: 0.8; stroke-linecap: square"/>
     </g>
     <g id="line2d_22">
      <g>
       <use xlink:href="#m25d017fa81" x="90" y="244.97413" style="stroke: #000000; stroke-width: 0.8"/>
      </g>
     </g>
     <g id="text_12">
      <!-- 15000 -->
      <g transform="translate(58 248.41163) scale(0.1 -0.1)">
       <use xlink:href="#SimHei-31"/>
       <use xlink:href="#SimHei-35" x="50"/>
       <use xlink:href="#SimHei-30" x="100"/>
       <use xlink:href="#SimHei-30" x="150"/>
       <use xlink:href="#SimHei-30" x="200"/>
      </g>
     </g>
    </g>
    <g id="ytick_4">
     <g id="line2d_23">
      <path d="M 90 196.30123 
L 648 196.30123 
" clip-path="url(#pe810253451)" style="fill: none; stroke: #b0b0b0; stroke-width: 0.8; stroke-linecap: square"/>
     </g>
     <g id="line2d_24">
      <g>
       <use xlink:href="#m25d017fa81" x="90" y="196.30123" style="stroke: #000000; stroke-width: 0.8"/>
      </g>
     </g>
     <g id="text_13">
      <!-- 20000 -->
      <g transform="translate(58 199.73873) scale(0.1 -0.1)">
       <use xlink:href="#SimHei-32"/>
       <use xlink:href="#SimHei-30" x="50"/>
       <use xlink:href="#SimHei-30" x="100"/>
       <use xlink:href="#SimHei-30" x="150"/>
       <use xlink:href="#SimHei-30" x="200"/>
      </g>
     </g>
    </g>
    <g id="ytick_5">
     <g id="line2d_25">
      <path d="M 90 147.628331 
L 648 147.628331 
" clip-path="url(#pe810253451)" style="fill: none; stroke: #b0b0b0; stroke-width: 0.8; stroke-linecap: square"/>
     </g>
     <g id="line2d_26">
      <g>
       <use xlink:href="#m25d017fa81" x="90" y="147.628331" style="stroke: #000000; stroke-width: 0.8"/>
      </g>
     </g>
     <g id="text_14">
      <!-- 25000 -->
      <g transform="translate(58 151.065831) scale(0.1 -0.1)">
       <use xlink:href="#SimHei-32"/>
       <use xlink:href="#SimHei-35" x="50"/>
       <use xlink:href="#SimHei-30" x="100"/>
       <use xlink:href="#SimHei-30" x="150"/>
       <use xlink:href="#SimHei-30" x="200"/>
      </g>
     </g>
    </g>
    <g id="ytick_6">
     <g id="line2d_27">
      <path d="M 90 98.955431 
L 648 98.955431 
" clip-path="url(#pe810253451)" style="fill: none; stroke: #b0b0b0; stroke-width: 0.8; stroke-linecap: square"/>
     </g>
     <g id="line2d_28">
      <g>
       <use xlink:href="#m25d017fa81" x="90" y="98.955431" style="stroke: #000000; stroke-width: 0.8"/>
      </g>
     </g>
     <g id="text_15">
      <!-- 30000 -->
      <g transform="translate(58 102.392931) scale(0.1 -0.1)">
       <defs>
        <path id="SimHei-33" d="M 250 1225 
L 700 1300 
Q 800 975 1025 762 
Q 1250 550 1587 562 
Q 1925 575 2125 837 
Q 2325 1100 2300 1437 
Q 2275 1775 2037 1962 
Q 1800 2150 1275 2225 
L 1275 2550 
Q 1800 2600 2037 2825 
Q 2275 3050 2250 3412 
Q 2225 3775 1925 3937 
Q 1625 4100 1287 3975 
Q 950 3850 750 3275 
L 300 3350 
Q 450 3800 712 4100 
Q 975 4400 1425 4450 
Q 1875 4500 2212 4337 
Q 2550 4175 2687 3837 
Q 2825 3500 2725 3100 
Q 2625 2700 2150 2400 
Q 2500 2250 2687 1950 
Q 2875 1650 2812 1162 
Q 2750 675 2375 375 
Q 2000 75 1525 87 
Q 1050 100 700 387 
Q 350 675 250 1225 
z
" transform="scale(0.015625)"/>
       </defs>
       <use xlink:href="#SimHei-33"/>
       <use xlink:href="#SimHei-30" x="50"/>
       <use xlink:href="#SimHei-30" x="100"/>
       <use xlink:href="#SimHei-30" x="150"/>
       <use xlink:href="#SimHei-30" x="200"/>
      </g>
     </g>
    </g>
    <g id="text_16">
     <!-- 收益 -->
     <g transform="translate(52.75 228.16) rotate(-90) scale(0.1 -0.1)">
      <defs>
       <path id="SimHei-6536" d="M 4250 5050 
Q 4125 4850 3750 4050 
L 5150 4050 
Q 5675 4050 6125 4075 
L 6125 3600 
Q 5675 3625 5300 3625 
Q 5225 2625 5025 1975 
Q 4825 1325 4575 900 
Q 4900 500 5287 275 
Q 5675 50 6200 -75 
Q 5900 -275 5800 -550 
Q 5300 -350 4950 -100 
Q 4600 150 4275 525 
Q 3800 0 2775 -625 
Q 2650 -425 2300 -225 
Q 3275 150 3950 925 
Q 3775 1325 3612 1787 
Q 3450 2250 3250 3000 
Q 2975 2450 2825 2275 
Q 2650 2400 2425 2525 
Q 2775 3025 3137 3837 
Q 3500 4650 3625 5250 
Q 3925 5125 4250 5050 
z
M 975 4275 
Q 925 3950 925 3450 
L 925 1575 
L 1775 1725 
L 1775 4425 
Q 1775 4775 1750 5150 
L 2250 5150 
Q 2225 4850 2225 4450 
L 2225 300 
Q 2225 -50 2250 -550 
L 1750 -550 
Q 1775 -25 1775 350 
L 1775 1350 
Q 625 1050 500 925 
Q 375 1125 225 1350 
Q 450 1475 450 1800 
L 450 3575 
Q 450 3925 425 4275 
L 975 4275 
z
M 3725 3150 
Q 3800 2700 3962 2212 
Q 4125 1725 4300 1375 
Q 4725 2150 4825 3625 
L 3575 3625 
Q 3400 3275 3300 3100 
L 3725 3150 
z
" transform="scale(0.015625)"/>
       <path id="SimHei-76ca" d="M 2825 2925 
Q 2425 2775 2012 2487 
Q 1600 2200 1225 1975 
L 5275 1975 
Q 5250 1575 5250 1000 
L 5250 -50 
Q 5800 -50 6175 -25 
L 6175 -525 
Q 5725 -500 5250 -500 
L 1325 -500 
Q 700 -500 250 -525 
L 250 -25 
Q 600 -50 1175 -50 
L 1175 1050 
Q 1175 1575 1150 1925 
Q 1000 1800 800 1700 
Q 650 1950 425 2125 
Q 800 2275 1312 2600 
Q 1825 2925 2325 3400 
Q 2550 3150 2825 2925 
z
M 4725 5050 
Q 4575 4900 4462 4637 
Q 4350 4375 4175 4075 
L 4625 4075 
Q 5350 4075 5900 4100 
L 5900 3625 
Q 5350 3650 4625 3650 
L 1975 3650 
Q 1350 3650 550 3625 
L 550 4100 
Q 1175 4075 1975 4075 
L 3675 4075 
Q 3775 4300 3887 4625 
Q 4000 4950 4125 5250 
L 4725 5050 
z
M 3600 -50 
L 3600 1575 
L 2800 1575 
L 2800 -50 
L 3600 -50 
z
M 4800 -50 
L 4800 1575 
L 4025 1575 
L 4025 -50 
L 4800 -50 
z
M 2375 -50 
L 2375 1575 
L 1625 1575 
L 1625 -50 
L 2375 -50 
z
M 3900 3350 
Q 4375 3150 4900 2925 
Q 5425 2700 5900 2500 
Q 5700 2300 5550 2000 
Q 5025 2300 4512 2537 
Q 4000 2775 3625 2900 
Q 3750 3075 3900 3350 
z
M 2150 5250 
Q 2375 4925 2650 4350 
Q 2425 4275 2150 4125 
Q 1950 4650 1675 5025 
Q 1875 5100 2150 5250 
z
" transform="scale(0.015625)"/>
      </defs>
      <use xlink:href="#SimHei-6536"/>
      <use xlink:href="#SimHei-76ca" x="100"/>
     </g>
    </g>
   </g>
   <g id="line2d_29">
    <path d="M 115.363636 282.834986 
L 121.194357 282.828687 
L 135.77116 347.727172 
L 138.68652 369.36 
L 141.601881 282.134992 
L 144.517241 325.05118 
L 147.432602 346.895796 
L 150.347962 324.84728 
L 159.094044 282.103175 
L 162.009404 347.57226 
L 167.840125 259.378196 
L 176.586207 347.234028 
L 182.416928 346.902463 
L 185.332288 368.947646 
L 191.163009 324.878248 
L 196.99373 214.55599 
L 199.909091 302.840055 
L 202.824451 191.980316 
L 208.655172 346.470559 
L 211.570533 368.731694 
L 220.316614 324.222163 
L 223.231975 346.496036 
L 226.147335 368.744432 
L 240.724138 301.999243 
L 243.639498 279.750847 
L 246.554859 259.450424 
L 249.470219 369.069094 
L 252.38558 325.221626 
L 255.30094 347.629271 
L 258.216301 262.35389 
L 261.131661 326.673359 
L 264.047022 348.113182 
L 266.962382 283.793713 
L 269.877743 327.350111 
L 272.793103 284.921633 
L 284.454545 348.56435 
L 290.285266 284.216324 
L 293.200627 262.296776 
L 296.115987 348.03261 
L 299.031348 176.191738 
L 301.946708 68.131213 
L 304.862069 89.34733 
L 307.777429 197.361352 
L 310.69279 283.54578 
L 313.60815 240.585528 
L 316.523511 348.014009 
L 319.438871 111.816174 
L 322.354232 305.021265 
L 325.269592 176.06392 
L 328.184953 262.035483 
L 331.100313 258.039007 
L 334.015674 191.126681 
L 336.931034 368.773601 
L 339.846395 346.554374 
L 342.761755 257.677465 
L 345.677116 326.526817 
L 348.592476 326.526817 
L 354.423197 282.818919 
L 357.338558 283.549476 
L 360.253918 348.015487 
L 363.169279 348.015487 
L 366.084639 305.162765 
L 369 197.295419 
L 371.915361 304.582998 
L 374.830721 66.96 
L 377.746082 87.348157 
L 380.661442 369.268497 
L 383.576803 347.544166 
L 386.492163 304.095504 
L 389.407524 173.57261 
L 395.238245 282.260606 
L 398.153605 238.767717 
L 401.068966 216.954464 
L 406.899687 238.737402 
L 409.815047 303.816513 
L 412.730408 303.751627 
L 415.645768 347.372228 
L 421.476489 325.561927 
L 424.39185 325.561927 
L 427.30721 369.184249 
L 430.222571 238.320726 
L 441.884013 238.206163 
L 444.799373 194.302597 
L 447.714734 369.125247 
L 450.630094 303.522637 
L 459.376176 347.257733 
L 462.291536 325.424637 
L 465.206897 303.39076 
L 468.122257 369.122537 
L 471.037618 369.092311 
L 476.868339 369.092311 
L 479.783699 369.092311 
L 482.69906 369.122537 
L 488.529781 347.191806 
L 506.021944 369.092317 
L 508.937304 303.390784 
L 511.852665 347.191806 
L 514.768025 325.291295 
L 517.683386 281.055691 
L 529.344828 369.005401 
L 538.090909 369.005401 
L 541.00627 302.590123 
L 543.92163 368.998059 
L 546.836991 347.003235 
L 549.752351 368.892152 
L 552.667712 368.897474 
L 561.413793 346.802119 
L 564.329154 346.802119 
L 570.159875 368.461267 
L 573.075235 368.392444 
L 578.905956 345.929706 
L 581.821317 368.461267 
L 587.652038 368.461267 
L 590.567398 299.676628 
L 593.482759 253.962165 
L 599.31348 253.783146 
L 605.144201 299.595636 
L 608.059561 299.595636 
L 616.805643 210.937074 
L 619.721003 345.792059 
L 622.636364 277.990905 
" clip-path="url(#pe810253451)" style="fill: none; stroke: #008000; stroke-width: 1.5; stroke-linecap: square"/>
    <defs>
     <path id="m5963011581" d="M 0 3 
C 0.795609 3 1.55874 2.683901 2.12132 2.12132 
C 2.683901 1.55874 3 0.795609 3 0 
C 3 -0.795609 2.683901 -1.55874 2.12132 -2.12132 
C 1.55874 -2.683901 0.795609 -3 0 -3 
C -0.795609 -3 -1.55874 -2.683901 -2.12132 -2.12132 
C -2.683901 -1.55874 -3 -0.795609 -3 0 
C -3 0.795609 -2.683901 1.55874 -2.12132 2.12132 
C -1.55874 2.683901 -0.795609 3 0 3 
z
" style="stroke: #008000"/>
    </defs>
    <g clip-path="url(#pe810253451)">
     <use xlink:href="#m5963011581" x="115.363636" y="282.834986" style="fill: #008000; stroke: #008000"/>
     <use xlink:href="#m5963011581" x="121.194357" y="282.828687" style="fill: #008000; stroke: #008000"/>
     <use xlink:href="#m5963011581" x="135.77116" y="347.727172" style="fill: #008000; stroke: #008000"/>
     <use xlink:href="#m5963011581" x="138.68652" y="369.36" style="fill: #008000; stroke: #008000"/>
     <use xlink:href="#m5963011581" x="141.601881" y="282.134992" style="fill: #008000; stroke: #008000"/>
     <use xlink:href="#m5963011581" x="144.517241" y="325.05118" style="fill: #008000; stroke: #008000"/>
     <use xlink:href="#m5963011581" x="147.432602" y="346.895796" style="fill: #008000; stroke: #008000"/>
     <use xlink:href="#m5963011581" x="150.347962" y="324.84728" style="fill: #008000; stroke: #008000"/>
     <use xlink:href="#m5963011581" x="159.094044" y="282.103175" style="fill: #008000; stroke: #008000"/>
     <use xlink:href="#m5963011581" x="162.009404" y="347.57226" style="fill: #008000; stroke: #008000"/>
     <use xlink:href="#m5963011581" x="167.840125" y="259.378196" style="fill: #008000; stroke: #008000"/>
     <use xlink:href="#m5963011581" x="176.586207" y="347.234028" style="fill: #008000; stroke: #008000"/>
     <use xlink:href="#m5963011581" x="182.416928" y="346.902463" style="fill: #008000; stroke: #008000"/>
     <use xlink:href="#m5963011581" x="185.332288" y="368.947646" style="fill: #008000; stroke: #008000"/>
     <use xlink:href="#m5963011581" x="191.163009" y="324.878248" style="fill: #008000; stroke: #008000"/>
     <use xlink:href="#m5963011581" x="196.99373" y="214.55599" style="fill: #008000; stroke: #008000"/>
     <use xlink:href="#m5963011581" x="199.909091" y="302.840055" style="fill: #008000; stroke: #008000"/>
     <use xlink:href="#m5963011581" x="202.824451" y="191.980316" style="fill: #008000; stroke: #008000"/>
     <use xlink:href="#m5963011581" x="208.655172" y="346.470559" style="fill: #008000; stroke: #008000"/>
     <use xlink:href="#m5963011581" x="211.570533" y="368.731694" style="fill: #008000; stroke: #008000"/>
     <use xlink:href="#m5963011581" x="220.316614" y="324.222163" style="fill: #008000; stroke: #008000"/>
     <use xlink:href="#m5963011581" x="223.231975" y="346.496036" style="fill: #008000; stroke: #008000"/>
     <use xlink:href="#m5963011581" x="226.147335" y="368.744432" style="fill: #008000; stroke: #008000"/>
     <use xlink:href="#m5963011581" x="240.724138" y="301.999243" style="fill: #008000; stroke: #008000"/>
     <use xlink:href="#m5963011581" x="243.639498" y="279.750847" style="fill: #008000; stroke: #008000"/>
     <use xlink:href="#m5963011581" x="246.554859" y="259.450424" style="fill: #008000; stroke: #008000"/>
     <use xlink:href="#m5963011581" x="249.470219" y="369.069094" style="fill: #008000; stroke: #008000"/>
     <use xlink:href="#m5963011581" x="252.38558" y="325.221626" style="fill: #008000; stroke: #008000"/>
     <use xlink:href="#m5963011581" x="255.30094" y="347.629271" style="fill: #008000; stroke: #008000"/>
     <use xlink:href="#m5963011581" x="258.216301" y="262.35389" style="fill: #008000; stroke: #008000"/>
     <use xlink:href="#m5963011581" x="261.131661" y="326.673359" style="fill: #008000; stroke: #008000"/>
     <use xlink:href="#m5963011581" x="264.047022" y="348.113182" style="fill: #008000; stroke: #008000"/>
     <use xlink:href="#m5963011581" x="266.962382" y="283.793713" style="fill: #008000; stroke: #008000"/>
     <use xlink:href="#m5963011581" x="269.877743" y="327.350111" style="fill: #008000; stroke: #008000"/>
     <use xlink:href="#m5963011581" x="272.793103" y="284.921633" style="fill: #008000; stroke: #008000"/>
     <use xlink:href="#m5963011581" x="284.454545" y="348.56435" style="fill: #008000; stroke: #008000"/>
     <use xlink:href="#m5963011581" x="290.285266" y="284.216324" style="fill: #008000; stroke: #008000"/>
     <use xlink:href="#m5963011581" x="293.200627" y="262.296776" style="fill: #008000; stroke: #008000"/>
     <use xlink:href="#m5963011581" x="296.115987" y="348.03261" style="fill: #008000; stroke: #008000"/>
     <use xlink:href="#m5963011581" x="299.031348" y="176.191738" style="fill: #008000; stroke: #008000"/>
     <use xlink:href="#m5963011581" x="301.946708" y="68.131213" style="fill: #008000; stroke: #008000"/>
     <use xlink:href="#m5963011581" x="304.862069" y="89.34733" style="fill: #008000; stroke: #008000"/>
     <use xlink:href="#m5963011581" x="307.777429" y="197.361352" style="fill: #008000; stroke: #008000"/>
     <use xlink:href="#m5963011581" x="310.69279" y="283.54578" style="fill: #008000; stroke: #008000"/>
     <use xlink:href="#m5963011581" x="313.60815" y="240.585528" style="fill: #008000; stroke: #008000"/>
     <use xlink:href="#m5963011581" x="316.523511" y="348.014009" style="fill: #008000; stroke: #008000"/>
     <use xlink:href="#m5963011581" x="319.438871" y="111.816174" style="fill: #008000; stroke: #008000"/>
     <use xlink:href="#m5963011581" x="322.354232" y="305.021265" style="fill: #008000; stroke: #008000"/>
     <use xlink:href="#m5963011581" x="325.269592" y="176.06392" style="fill: #008000; stroke: #008000"/>
     <use xlink:href="#m5963011581" x="328.184953" y="262.035483" style="fill: #008000; stroke: #008000"/>
     <use xlink:href="#m5963011581" x="331.100313" y="258.039007" style="fill: #008000; stroke: #008000"/>
     <use xlink:href="#m5963011581" x="334.015674" y="191.126681" style="fill: #008000; stroke: #008000"/>
     <use xlink:href="#m5963011581" x="336.931034" y="368.773601" style="fill: #008000; stroke: #008000"/>
     <use xlink:href="#m5963011581" x="339.846395" y="346.554374" style="fill: #008000; stroke: #008000"/>
     <use xlink:href="#m5963011581" x="342.761755" y="257.677465" style="fill: #008000; stroke: #008000"/>
     <use xlink:href="#m5963011581" x="345.677116" y="326.526817" style="fill: #008000; stroke: #008000"/>
     <use xlink:href="#m5963011581" x="348.592476" y="326.526817" style="fill: #008000; stroke: #008000"/>
     <use xlink:href="#m5963011581" x="354.423197" y="282.818919" style="fill: #008000; stroke: #008000"/>
     <use xlink:href="#m5963011581" x="357.338558" y="283.549476" style="fill: #008000; stroke: #008000"/>
     <use xlink:href="#m5963011581" x="360.253918" y="348.015487" style="fill: #008000; stroke: #008000"/>
     <use xlink:href="#m5963011581" x="363.169279" y="348.015487" style="fill: #008000; stroke: #008000"/>
     <use xlink:href="#m5963011581" x="366.084639" y="305.162765" style="fill: #008000; stroke: #008000"/>
     <use xlink:href="#m5963011581" x="369" y="197.295419" style="fill: #008000; stroke: #008000"/>
     <use xlink:href="#m5963011581" x="371.915361" y="304.582998" style="fill: #008000; stroke: #008000"/>
     <use xlink:href="#m5963011581" x="374.830721" y="66.96" style="fill: #008000; stroke: #008000"/>
     <use xlink:href="#m5963011581" x="377.746082" y="87.348157" style="fill: #008000; stroke: #008000"/>
     <use xlink:href="#m5963011581" x="380.661442" y="369.268497" style="fill: #008000; stroke: #008000"/>
     <use xlink:href="#m5963011581" x="383.576803" y="347.544166" style="fill: #008000; stroke: #008000"/>
     <use xlink:href="#m5963011581" x="386.492163" y="304.095504" style="fill: #008000; stroke: #008000"/>
     <use xlink:href="#m5963011581" x="389.407524" y="173.57261" style="fill: #008000; stroke: #008000"/>
     <use xlink:href="#m5963011581" x="395.238245" y="282.260606" style="fill: #008000; stroke: #008000"/>
     <use xlink:href="#m5963011581" x="398.153605" y="238.767717" style="fill: #008000; stroke: #008000"/>
     <use xlink:href="#m5963011581" x="401.068966" y="216.954464" style="fill: #008000; stroke: #008000"/>
     <use xlink:href="#m5963011581" x="406.899687" y="238.737402" style="fill: #008000; stroke: #008000"/>
     <use xlink:href="#m5963011581" x="409.815047" y="303.816513" style="fill: #008000; stroke: #008000"/>
     <use xlink:href="#m5963011581" x="412.730408" y="303.751627" style="fill: #008000; stroke: #008000"/>
     <use xlink:href="#m5963011581" x="415.645768" y="347.372228" style="fill: #008000; stroke: #008000"/>
     <use xlink:href="#m5963011581" x="421.476489" y="325.561927" style="fill: #008000; stroke: #008000"/>
     <use xlink:href="#m5963011581" x="424.39185" y="325.561927" style="fill: #008000; stroke: #008000"/>
     <use xlink:href="#m5963011581" x="427.30721" y="369.184249" style="fill: #008000; stroke: #008000"/>
     <use xlink:href="#m5963011581" x="430.222571" y="238.320726" style="fill: #008000; stroke: #008000"/>
     <use xlink:href="#m5963011581" x="441.884013" y="238.206163" style="fill: #008000; stroke: #008000"/>
     <use xlink:href="#m5963011581" x="444.799373" y="194.302597" style="fill: #008000; stroke: #008000"/>
     <use xlink:href="#m5963011581" x="447.714734" y="369.125247" style="fill: #008000; stroke: #008000"/>
     <use xlink:href="#m5963011581" x="450.630094" y="303.522637" style="fill: #008000; stroke: #008000"/>
     <use xlink:href="#m5963011581" x="459.376176" y="347.257733" style="fill: #008000; stroke: #008000"/>
     <use xlink:href="#m5963011581" x="462.291536" y="325.424637" style="fill: #008000; stroke: #008000"/>
     <use xlink:href="#m5963011581" x="465.206897" y="303.39076" style="fill: #008000; stroke: #008000"/>
     <use xlink:href="#m5963011581" x="468.122257" y="369.122537" style="fill: #008000; stroke: #008000"/>
     <use xlink:href="#m5963011581" x="471.037618" y="369.092311" style="fill: #008000; stroke: #008000"/>
     <use xlink:href="#m5963011581" x="476.868339" y="369.092311" style="fill: #008000; stroke: #008000"/>
     <use xlink:href="#m5963011581" x="479.783699" y="369.092311" style="fill: #008000; stroke: #008000"/>
     <use xlink:href="#m5963011581" x="482.69906" y="369.122537" style="fill: #008000; stroke: #008000"/>
     <use xlink:href="#m5963011581" x="488.529781" y="347.191806" style="fill: #008000; stroke: #008000"/>
     <use xlink:href="#m5963011581" x="506.021944" y="369.092317" style="fill: #008000; stroke: #008000"/>
     <use xlink:href="#m5963011581" x="508.937304" y="303.390784" style="fill: #008000; stroke: #008000"/>
     <use xlink:href="#m5963011581" x="511.852665" y="347.191806" style="fill: #008000; stroke: #008000"/>
     <use xlink:href="#m5963011581" x="514.768025" y="325.291295" style="fill: #008000; stroke: #008000"/>
     <use xlink:href="#m5963011581" x="517.683386" y="281.055691" style="fill: #008000; stroke: #008000"/>
     <use xlink:href="#m5963011581" x="529.344828" y="369.005401" style="fill: #008000; stroke: #008000"/>
     <use xlink:href="#m5963011581" x="538.090909" y="369.005401" style="fill: #008000; stroke: #008000"/>
     <use xlink:href="#m5963011581" x="541.00627" y="302.590123" style="fill: #008000; stroke: #008000"/>
     <use xlink:href="#m5963011581" x="543.92163" y="368.998059" style="fill: #008000; stroke: #008000"/>
     <use xlink:href="#m5963011581" x="546.836991" y="347.003235" style="fill: #008000; stroke: #008000"/>
     <use xlink:href="#m5963011581" x="549.752351" y="368.892152" style="fill: #008000; stroke: #008000"/>
     <use xlink:href="#m5963011581" x="552.667712" y="368.897474" style="fill: #008000; stroke: #008000"/>
     <use xlink:href="#m5963011581" x="561.413793" y="346.802119" style="fill: #008000; stroke: #008000"/>
     <use xlink:href="#m5963011581" x="564.329154" y="346.802119" style="fill: #008000; stroke: #008000"/>
     <use xlink:href="#m5963011581" x="570.159875" y="368.461267" style="fill: #008000; stroke: #008000"/>
     <use xlink:href="#m5963011581" x="573.075235" y="368.392444" style="fill: #008000; stroke: #008000"/>
     <use xlink:href="#m5963011581" x="578.905956" y="345.929706" style="fill: #008000; stroke: #008000"/>
     <use xlink:href="#m5963011581" x="581.821317" y="368.461267" style="fill: #008000; stroke: #008000"/>
     <use xlink:href="#m5963011581" x="587.652038" y="368.461267" style="fill: #008000; stroke: #008000"/>
     <use xlink:href="#m5963011581" x="590.567398" y="299.676628" style="fill: #008000; stroke: #008000"/>
     <use xlink:href="#m5963011581" x="593.482759" y="253.962165" style="fill: #008000; stroke: #008000"/>
     <use xlink:href="#m5963011581" x="599.31348" y="253.783146" style="fill: #008000; stroke: #008000"/>
     <use xlink:href="#m5963011581" x="605.144201" y="299.595636" style="fill: #008000; stroke: #008000"/>
     <use xlink:href="#m5963011581" x="608.059561" y="299.595636" style="fill: #008000; stroke: #008000"/>
     <use xlink:href="#m5963011581" x="616.805643" y="210.937074" style="fill: #008000; stroke: #008000"/>
     <use xlink:href="#m5963011581" x="619.721003" y="345.792059" style="fill: #008000; stroke: #008000"/>
     <use xlink:href="#m5963011581" x="622.636364" y="277.990905" style="fill: #008000; stroke: #008000"/>
    </g>
   </g>
   <g id="patch_3">
    <path d="M 90 384.48 
L 90 51.84 
" style="fill: none; stroke: #000000; stroke-width: 0.8; stroke-linejoin: miter; stroke-linecap: square"/>
   </g>
   <g id="patch_4">
    <path d="M 648 384.48 
L 648 51.84 
" style="fill: none; stroke: #000000; stroke-width: 0.8; stroke-linejoin: miter; stroke-linecap: square"/>
   </g>
   <g id="patch_5">
    <path d="M 90 384.48 
L 648 384.48 
" style="fill: none; stroke: #000000; stroke-width: 0.8; stroke-linejoin: miter; stroke-linecap: square"/>
   </g>
   <g id="patch_6">
    <path d="M 90 51.84 
L 648 51.84 
" style="fill: none; stroke: #000000; stroke-width: 0.8; stroke-linejoin: miter; stroke-linecap: square"/>
   </g>
   <g id="text_17">
    <!-- 6004020887 每周收益 -->
    <g transform="translate(312 45.84) scale(0.12 -0.12)">
     <defs>
      <path id="SimHei-36" d="M 250 1612 
Q 275 1975 387 2225 
Q 500 2475 725 2850 
L 1750 4450 
L 2325 4450 
L 1275 2800 
Q 1950 2975 2350 2750 
Q 2750 2525 2887 2237 
Q 3025 1950 3037 1612 
Q 3050 1275 2937 950 
Q 2825 625 2537 362 
Q 2250 100 1737 75 
Q 1225 50 862 262 
Q 500 475 362 862 
Q 225 1250 250 1612 
z
M 1025 787 
Q 1250 550 1625 525 
Q 2000 500 2250 775 
Q 2500 1050 2500 1575 
Q 2500 2100 2187 2300 
Q 1875 2500 1487 2450 
Q 1100 2400 925 2075 
Q 750 1750 775 1387 
Q 800 1025 1025 787 
z
" transform="scale(0.015625)"/>
      <path id="SimHei-34" d="M 2000 1100 
L 75 1100 
L 75 1525 
L 2100 4450 
L 2475 4450 
L 2475 1525 
L 3075 1525 
L 3075 1100 
L 2475 1100 
L 2475 150 
L 2000 150 
L 2000 1100 
z
M 2000 1525 
L 2000 3500 
L 600 1525 
L 2000 1525 
z
" transform="scale(0.015625)"/>
      <path id="SimHei-38" d="M 175 1375 
Q 175 1675 325 1962 
Q 475 2250 825 2425 
Q 525 2600 425 2812 
Q 325 3025 312 3300 
Q 300 3575 387 3775 
Q 475 3975 650 4150 
Q 825 4325 1037 4387 
Q 1250 4450 1500 4450 
Q 1750 4450 1950 4400 
Q 2150 4350 2375 4187 
Q 2600 4025 2700 3725 
Q 2800 3425 2687 3025 
Q 2575 2625 2100 2400 
Q 2525 2275 2700 2012 
Q 2875 1750 2875 1375 
Q 2875 1000 2762 775 
Q 2650 550 2512 400 
Q 2375 250 2137 162 
Q 1900 75 1537 75 
Q 1175 75 912 162 
Q 650 250 475 425 
Q 300 600 237 837 
Q 175 1075 175 1375 
z
M 687 1400 
Q 675 1100 787 875 
Q 900 650 1200 587 
Q 1500 525 1825 600 
Q 2150 675 2275 950 
Q 2400 1225 2362 1500 
Q 2325 1775 2050 1962 
Q 1775 2150 1450 2125 
Q 1125 2100 912 1900 
Q 700 1700 687 1400 
z
M 775 3350 
Q 775 3100 950 2875 
Q 1125 2650 1500 2650 
Q 1875 2650 2062 2875 
Q 2250 3100 2237 3412 
Q 2225 3725 2012 3875 
Q 1800 4025 1437 4000 
Q 1075 3975 925 3787 
Q 775 3600 775 3350 
z
" transform="scale(0.015625)"/>
      <path id="SimHei-20" transform="scale(0.015625)"/>
      <path id="SimHei-6bcf" d="M 5225 3650 
Q 5175 3150 5150 2675 
L 5125 2200 
Q 5525 2200 6000 2225 
L 6000 1775 
Q 5625 1800 5100 1800 
L 5050 650 
Q 5325 650 5700 675 
L 5700 225 
Q 5400 250 5025 250 
Q 5000 -275 4775 -425 
Q 4550 -575 4000 -650 
Q 3950 -400 3775 -125 
Q 4375 -125 4475 -50 
Q 4575 25 4575 250 
L 1400 250 
L 1500 1100 
L 1550 1800 
L 1275 1800 
Q 825 1800 550 1775 
L 550 2225 
Q 975 2200 1275 2200 
L 1575 2200 
L 1625 2825 
L 1675 3650 
L 5225 3650 
z
M 2350 5000 
Q 2175 4825 2050 4600 
L 4875 4600 
Q 5275 4600 5775 4625 
L 5775 4175 
Q 5275 4200 4875 4200 
L 1825 4200 
L 1375 3625 
Q 1125 3325 775 2975 
Q 600 3175 350 3300 
Q 725 3575 1150 4112 
Q 1575 4650 1825 5250 
Q 2125 5075 2350 5000 
z
M 1975 1800 
L 1875 650 
L 4625 650 
L 4675 1800 
L 2950 1800 
Q 3575 1275 3825 1125 
Q 3625 925 3475 725 
Q 3100 1100 2650 1475 
Q 2775 1675 2875 1800 
L 1975 1800 
z
M 2975 3250 
Q 3125 3150 3287 3012 
Q 3450 2875 3800 2550 
Q 3650 2350 3525 2200 
L 4700 2200 
L 4750 3250 
L 2975 3250 
z
M 2075 3250 
L 2000 2200 
L 3425 2200 
Q 3150 2500 3012 2625 
Q 2875 2750 2700 2900 
Q 2800 3050 2925 3250 
L 2075 3250 
z
" transform="scale(0.015625)"/>
     </defs>
     <use xlink:href="#SimHei-36"/>
     <use xlink:href="#SimHei-30" x="50"/>
     <use xlink:href="#SimHei-30" x="100"/>
     <use xlink:href="#SimHei-34" x="150"/>
     <use xlink:href="#SimHei-30" x="200"/>
     <use xlink:href="#SimHei-32" x="250"/>
     <use xlink:href="#SimHei-30" x="300"/>
     <use xlink:href="#SimHei-38" x="350"/>
     <use xlink:href="#SimHei-38" x="400"/>
     <use xlink:href="#SimHei-37" x="450"/>
     <use xlink:href="#SimHei-20" x="500"/>
     <use xlink:href="#SimHei-6bcf" x="550"/>
     <use xlink:href="#SimHei-5468" x="650"/>
     <use xlink:href="#SimHei-6536" x="750"/>
     <use xlink:href="#SimHei-76ca" x="850"/>
    </g>
   </g>
  </g>
 </g>
 <defs>
  <clipPath id="pe810253451">
   <rect x="90" y="51.84" width="558" height="332.64"/>
  </clipPath>
 </defs>
</svg>
