<?xml version="1.0" encoding="utf-8" standalone="no"?>
<!DOCTYPE svg PUBLIC "-//W3C//DTD SVG 1.1//EN"
  "http://www.w3.org/Graphics/SVG/1.1/DTD/svg11.dtd">
<svg xmlns:xlink="http://www.w3.org/1999/xlink" width="720pt" height="432pt" viewBox="0 0 720 432" xmlns="http://www.w3.org/2000/svg" version="1.1">
 <metadata>
  <rdf:RDF xmlns:dc="http://purl.org/dc/elements/1.1/" xmlns:cc="http://creativecommons.org/ns#" xmlns:rdf="http://www.w3.org/1999/02/22-rdf-syntax-ns#">
   <cc:Work>
    <dc:type rdf:resource="http://purl.org/dc/dcmitype/StillImage"/>
    <dc:date>2024-08-17T14:02:09.777136</dc:date>
    <dc:format>image/svg+xml</dc:format>
    <dc:creator>
     <cc:Agent>
      <dc:title>Matplotlib v3.8.0, https://matplotlib.org/</dc:title>
     </cc:Agent>
    </dc:creator>
   </cc:Work>
  </rdf:RDF>
 </metadata>
 <defs>
  <style type="text/css">*{stroke-linejoin: round; stroke-linecap: butt}</style>
 </defs>
 <g id="figure_1">
  <g id="patch_1">
   <path d="M 0 432 
L 720 432 
L 720 0 
L 0 0 
z
" style="fill: #ffffff"/>
  </g>
  <g id="axes_1">
   <g id="patch_2">
    <path d="M 90 384.48 
L 648 384.48 
L 648 51.84 
L 90 51.84 
z
" style="fill: #ffffff"/>
   </g>
   <g id="matplotlib.axis_1">
    <g id="xtick_1">
     <g id="line2d_1">
      <defs>
       <path id="mae04353960" d="M 0 0 
L 0 3.5 
" style="stroke: #000000; stroke-width: 0.8"/>
      </defs>
      <g>
       <use xlink:href="#mae04353960" x="112.464935" y="384.48" style="stroke: #000000; stroke-width: 0.8"/>
      </g>
     </g>
     <g id="text_1">
      <!-- 0 -->
      <g transform="translate(109.964935 398.355) scale(0.1 -0.1)">
       <defs>
        <path id="SimHei-30" d="M 225 2537 
Q 250 3200 412 3587 
Q 575 3975 875 4225 
Q 1175 4475 1612 4475 
Q 2050 4475 2375 4112 
Q 2700 3750 2800 3200 
Q 2900 2650 2862 1937 
Q 2825 1225 2612 775 
Q 2400 325 1975 150 
Q 1550 -25 1125 187 
Q 700 400 525 750 
Q 350 1100 275 1487 
Q 200 1875 225 2537 
z
M 750 2687 
Q 675 2000 800 1462 
Q 925 925 1212 700 
Q 1500 475 1800 612 
Q 2100 750 2237 1162 
Q 2375 1575 2375 2062 
Q 2375 2550 2337 2950 
Q 2300 3350 2112 3675 
Q 1925 4000 1612 4012 
Q 1300 4025 1062 3700 
Q 825 3375 750 2687 
z
" transform="scale(0.015625)"/>
       </defs>
       <use xlink:href="#SimHei-30"/>
      </g>
     </g>
    </g>
    <g id="xtick_2">
     <g id="line2d_2">
      <g>
       <use xlink:href="#mae04353960" x="184.932468" y="384.48" style="stroke: #000000; stroke-width: 0.8"/>
      </g>
     </g>
     <g id="text_2">
      <!-- 25 -->
      <g transform="translate(179.932468 398.355) scale(0.1 -0.1)">
       <defs>
        <path id="SimHei-32" d="M 300 250 
Q 325 625 650 925 
Q 975 1225 1475 1862 
Q 1975 2500 2125 2850 
Q 2275 3200 2237 3450 
Q 2200 3700 2000 3862 
Q 1800 4025 1537 4000 
Q 1275 3975 1037 3800 
Q 800 3625 675 3275 
L 200 3350 
Q 400 3925 712 4187 
Q 1025 4450 1450 4475 
Q 1700 4500 1900 4462 
Q 2100 4425 2312 4287 
Q 2525 4150 2662 3875 
Q 2800 3600 2762 3212 
Q 2725 2825 2375 2287 
Q 2025 1750 1025 600 
L 2825 600 
L 2825 150 
L 300 150 
L 300 250 
z
" transform="scale(0.015625)"/>
        <path id="SimHei-35" d="M 550 1325 
Q 725 650 1150 575 
Q 1575 500 1837 662 
Q 2100 825 2212 1087 
Q 2325 1350 2312 1675 
Q 2300 2000 2137 2225 
Q 1975 2450 1725 2525 
Q 1475 2600 1162 2525 
Q 850 2450 650 2175 
L 225 2225 
Q 275 2375 700 4375 
L 2675 4375 
L 2675 3925 
L 1075 3925 
Q 950 3250 825 2850 
Q 1200 3025 1525 3012 
Q 1850 3000 2150 2862 
Q 2450 2725 2587 2487 
Q 2725 2250 2787 2012 
Q 2850 1775 2837 1500 
Q 2825 1225 2725 937 
Q 2625 650 2425 462 
Q 2225 275 1937 162 
Q 1650 50 1275 75 
Q 900 100 562 350 
Q 225 600 100 1200 
L 550 1325 
z
" transform="scale(0.015625)"/>
       </defs>
       <use xlink:href="#SimHei-32"/>
       <use xlink:href="#SimHei-35" x="50"/>
      </g>
     </g>
    </g>
    <g id="xtick_3">
     <g id="line2d_3">
      <g>
       <use xlink:href="#mae04353960" x="257.4" y="384.48" style="stroke: #000000; stroke-width: 0.8"/>
      </g>
     </g>
     <g id="text_3">
      <!-- 50 -->
      <g transform="translate(252.4 398.355) scale(0.1 -0.1)">
       <use xlink:href="#SimHei-35"/>
       <use xlink:href="#SimHei-30" x="50"/>
      </g>
     </g>
    </g>
    <g id="xtick_4">
     <g id="line2d_4">
      <g>
       <use xlink:href="#mae04353960" x="329.867532" y="384.48" style="stroke: #000000; stroke-width: 0.8"/>
      </g>
     </g>
     <g id="text_4">
      <!-- 75 -->
      <g transform="translate(324.867532 398.355) scale(0.1 -0.1)">
       <defs>
        <path id="SimHei-37" d="M 850 150 
Q 1300 2050 2425 3925 
L 275 3925 
L 275 4375 
L 2950 4375 
L 2950 3950 
Q 1775 2050 1400 150 
L 850 150 
z
" transform="scale(0.015625)"/>
       </defs>
       <use xlink:href="#SimHei-37"/>
       <use xlink:href="#SimHei-35" x="50"/>
      </g>
     </g>
    </g>
    <g id="xtick_5">
     <g id="line2d_5">
      <g>
       <use xlink:href="#mae04353960" x="402.335065" y="384.48" style="stroke: #000000; stroke-width: 0.8"/>
      </g>
     </g>
     <g id="text_5">
      <!-- 100 -->
      <g transform="translate(394.835065 398.355) scale(0.1 -0.1)">
       <defs>
        <path id="SimHei-31" d="M 1400 3600 
Q 1075 3275 575 2975 
L 575 3450 
Q 1200 3875 1600 4450 
L 1900 4450 
L 1900 150 
L 1400 150 
L 1400 3600 
z
" transform="scale(0.015625)"/>
       </defs>
       <use xlink:href="#SimHei-31"/>
       <use xlink:href="#SimHei-30" x="50"/>
       <use xlink:href="#SimHei-30" x="100"/>
      </g>
     </g>
    </g>
    <g id="xtick_6">
     <g id="line2d_6">
      <g>
       <use xlink:href="#mae04353960" x="474.802597" y="384.48" style="stroke: #000000; stroke-width: 0.8"/>
      </g>
     </g>
     <g id="text_6">
      <!-- 125 -->
      <g transform="translate(467.302597 398.355) scale(0.1 -0.1)">
       <use xlink:href="#SimHei-31"/>
       <use xlink:href="#SimHei-32" x="50"/>
       <use xlink:href="#SimHei-35" x="100"/>
      </g>
     </g>
    </g>
    <g id="xtick_7">
     <g id="line2d_7">
      <g>
       <use xlink:href="#mae04353960" x="547.27013" y="384.48" style="stroke: #000000; stroke-width: 0.8"/>
      </g>
     </g>
     <g id="text_7">
      <!-- 150 -->
      <g transform="translate(539.77013 398.355) scale(0.1 -0.1)">
       <use xlink:href="#SimHei-31"/>
       <use xlink:href="#SimHei-35" x="50"/>
       <use xlink:href="#SimHei-30" x="100"/>
      </g>
     </g>
    </g>
    <g id="xtick_8">
     <g id="line2d_8">
      <g>
       <use xlink:href="#mae04353960" x="619.737662" y="384.48" style="stroke: #000000; stroke-width: 0.8"/>
      </g>
     </g>
     <g id="text_8">
      <!-- 175 -->
      <g transform="translate(612.237662 398.355) scale(0.1 -0.1)">
       <use xlink:href="#SimHei-31"/>
       <use xlink:href="#SimHei-37" x="50"/>
       <use xlink:href="#SimHei-35" x="100"/>
      </g>
     </g>
    </g>
    <g id="text_9">
     <!-- 周数 -->
     <g transform="translate(359 411.339375) scale(0.1 -0.1)">
      <defs>
       <path id="SimHei-5468" d="M 5600 4925 
Q 5575 4400 5575 3800 
L 5575 50 
Q 5550 -375 5325 -462 
Q 5100 -550 4325 -600 
Q 4300 -400 4125 -75 
Q 4800 -100 4962 -37 
Q 5125 25 5100 225 
L 5100 4525 
L 1500 4525 
Q 1500 2575 1450 1887 
Q 1400 1200 1237 550 
Q 1075 -100 775 -625 
Q 625 -450 275 -225 
Q 650 225 825 1000 
Q 1000 1775 1025 2587 
Q 1050 3400 1000 4925 
L 5600 4925 
z
M 2050 325 
Q 2075 625 2075 950 
L 2075 1400 
Q 2075 1625 2050 1925 
L 4400 1925 
Q 4375 1725 4375 1450 
L 4375 875 
Q 4375 600 4400 325 
L 2050 325 
z
M 3000 3800 
Q 3000 4150 2975 4375 
L 3475 4375 
Q 3450 4075 3450 3800 
Q 4100 3800 4475 3825 
L 4475 3350 
Q 4125 3375 3450 3375 
L 3450 2800 
Q 4200 2800 4825 2825 
L 4825 2350 
Q 4175 2375 3725 2375 
L 2750 2375 
Q 2325 2375 1725 2350 
L 1725 2825 
Q 2325 2800 3000 2800 
L 3000 3375 
Q 2500 3375 1975 3350 
L 1975 3825 
Q 2475 3800 3000 3800 
z
M 3900 725 
L 3900 1525 
L 2550 1525 
L 2550 725 
L 3900 725 
z
" transform="scale(0.015625)"/>
       <path id="SimHei-6570" d="M 4525 4925 
Q 4475 4800 4400 4587 
Q 4325 4375 4175 3825 
L 5325 3825 
Q 5575 3825 5925 3850 
L 5925 3400 
Q 5650 3425 5500 3425 
Q 5500 3025 5362 2162 
Q 5225 1300 4875 675 
Q 5125 375 5437 137 
Q 5750 -100 6025 -200 
Q 5725 -425 5625 -625 
Q 5325 -450 5075 -225 
Q 4825 0 4575 325 
Q 4300 25 3987 -187 
Q 3675 -400 3200 -650 
Q 3075 -425 2850 -300 
Q 3225 -150 3650 125 
Q 4075 400 4300 675 
Q 4125 1025 3962 1425 
Q 3800 1825 3675 2475 
Q 3600 2275 3425 1950 
Q 3250 2050 3000 2150 
Q 3400 2850 3650 3675 
Q 3900 4500 3975 5100 
Q 4275 4975 4525 4925 
z
M 2100 2250 
Q 2000 2150 1875 1925 
L 3250 1925 
Q 3100 1300 2725 675 
Q 3125 525 3350 400 
Q 3225 225 3125 25 
Q 2900 175 2450 325 
Q 1950 -225 725 -650 
Q 600 -375 400 -275 
Q 1575 0 2000 475 
Q 1300 650 850 775 
Q 1000 1000 1250 1525 
Q 1000 1525 425 1500 
L 425 1950 
Q 900 1925 1400 1925 
Q 1500 2150 1550 2425 
Q 1825 2325 2100 2250 
z
M 1775 3950 
Q 1775 4550 1750 5100 
L 2250 5100 
Q 2225 4575 2225 3950 
Q 3075 3950 3425 3975 
L 3425 3525 
Q 3075 3550 2225 3550 
Q 2225 2825 2250 2425 
L 1750 2425 
Q 1775 2775 1775 3300 
Q 1650 3100 1300 2787 
Q 950 2475 650 2300 
Q 525 2525 275 2625 
Q 500 2700 875 2975 
Q 1250 3250 1450 3550 
Q 950 3550 500 3525 
L 500 3975 
Q 925 3950 1775 3950 
z
M 3975 3175 
Q 4200 1700 4600 1125 
Q 4850 1700 4937 2287 
Q 5025 2875 5050 3425 
L 4075 3425 
L 3975 3175 
z
M 1450 1000 
Q 1750 925 2275 800 
Q 2475 1050 2650 1525 
L 1725 1525 
Q 1600 1275 1450 1000 
z
M 3325 4825 
Q 3200 4625 3125 4450 
Q 3050 4275 2925 4025 
Q 2725 4125 2525 4175 
Q 2725 4500 2900 5000 
Q 3150 4875 3325 4825 
z
M 2575 3375 
Q 2900 3050 3200 2725 
Q 3050 2600 2875 2425 
Q 2525 2850 2300 3100 
Q 2450 3225 2575 3375 
z
M 925 5000 
Q 1275 4650 1500 4300 
L 1125 4075 
Q 950 4425 600 4725 
Q 825 4875 925 5000 
z
" transform="scale(0.015625)"/>
      </defs>
      <use xlink:href="#SimHei-5468"/>
      <use xlink:href="#SimHei-6570" x="100"/>
     </g>
    </g>
   </g>
   <g id="matplotlib.axis_2">
    <g id="ytick_1">
     <g id="line2d_9">
      <defs>
       <path id="m7621e16955" d="M 0 0 
L -3.5 0 
" style="stroke: #000000; stroke-width: 0.8"/>
      </defs>
      <g>
       <use xlink:href="#m7621e16955" x="90" y="354.594432" style="stroke: #000000; stroke-width: 0.8"/>
      </g>
     </g>
     <g id="text_10">
      <!-- 0 -->
      <g transform="translate(78 358.031932) scale(0.1 -0.1)">
       <use xlink:href="#SimHei-30"/>
      </g>
     </g>
    </g>
    <g id="ytick_2">
     <g id="line2d_10">
      <g>
       <use xlink:href="#m7621e16955" x="90" y="314.645205" style="stroke: #000000; stroke-width: 0.8"/>
      </g>
     </g>
     <g id="text_11">
      <!-- 5 -->
      <g transform="translate(78 318.082705) scale(0.1 -0.1)">
       <use xlink:href="#SimHei-35"/>
      </g>
     </g>
    </g>
    <g id="ytick_3">
     <g id="line2d_11">
      <g>
       <use xlink:href="#m7621e16955" x="90" y="274.695979" style="stroke: #000000; stroke-width: 0.8"/>
      </g>
     </g>
     <g id="text_12">
      <!-- 10 -->
      <g transform="translate(73 278.133479) scale(0.1 -0.1)">
       <use xlink:href="#SimHei-31"/>
       <use xlink:href="#SimHei-30" x="50"/>
      </g>
     </g>
    </g>
    <g id="ytick_4">
     <g id="line2d_12">
      <g>
       <use xlink:href="#m7621e16955" x="90" y="234.746752" style="stroke: #000000; stroke-width: 0.8"/>
      </g>
     </g>
     <g id="text_13">
      <!-- 15 -->
      <g transform="translate(73 238.184252) scale(0.1 -0.1)">
       <use xlink:href="#SimHei-31"/>
       <use xlink:href="#SimHei-35" x="50"/>
      </g>
     </g>
    </g>
    <g id="ytick_5">
     <g id="line2d_13">
      <g>
       <use xlink:href="#m7621e16955" x="90" y="194.797525" style="stroke: #000000; stroke-width: 0.8"/>
      </g>
     </g>
     <g id="text_14">
      <!-- 20 -->
      <g transform="translate(73 198.235025) scale(0.1 -0.1)">
       <use xlink:href="#SimHei-32"/>
       <use xlink:href="#SimHei-30" x="50"/>
      </g>
     </g>
    </g>
    <g id="ytick_6">
     <g id="line2d_14">
      <g>
       <use xlink:href="#m7621e16955" x="90" y="154.848299" style="stroke: #000000; stroke-width: 0.8"/>
      </g>
     </g>
     <g id="text_15">
      <!-- 25 -->
      <g transform="translate(73 158.285799) scale(0.1 -0.1)">
       <use xlink:href="#SimHei-32"/>
       <use xlink:href="#SimHei-35" x="50"/>
      </g>
     </g>
    </g>
    <g id="ytick_7">
     <g id="line2d_15">
      <g>
       <use xlink:href="#m7621e16955" x="90" y="114.899072" style="stroke: #000000; stroke-width: 0.8"/>
      </g>
     </g>
     <g id="text_16">
      <!-- 30 -->
      <g transform="translate(73 118.336572) scale(0.1 -0.1)">
       <defs>
        <path id="SimHei-33" d="M 250 1225 
L 700 1300 
Q 800 975 1025 762 
Q 1250 550 1587 562 
Q 1925 575 2125 837 
Q 2325 1100 2300 1437 
Q 2275 1775 2037 1962 
Q 1800 2150 1275 2225 
L 1275 2550 
Q 1800 2600 2037 2825 
Q 2275 3050 2250 3412 
Q 2225 3775 1925 3937 
Q 1625 4100 1287 3975 
Q 950 3850 750 3275 
L 300 3350 
Q 450 3800 712 4100 
Q 975 4400 1425 4450 
Q 1875 4500 2212 4337 
Q 2550 4175 2687 3837 
Q 2825 3500 2725 3100 
Q 2625 2700 2150 2400 
Q 2500 2250 2687 1950 
Q 2875 1650 2812 1162 
Q 2750 675 2375 375 
Q 2000 75 1525 87 
Q 1050 100 700 387 
Q 350 675 250 1225 
z
" transform="scale(0.015625)"/>
       </defs>
       <use xlink:href="#SimHei-33"/>
       <use xlink:href="#SimHei-30" x="50"/>
      </g>
     </g>
    </g>
    <g id="ytick_8">
     <g id="line2d_16">
      <g>
       <use xlink:href="#m7621e16955" x="90" y="74.949845" style="stroke: #000000; stroke-width: 0.8"/>
      </g>
     </g>
     <g id="text_17">
      <!-- 35 -->
      <g transform="translate(73 78.387345) scale(0.1 -0.1)">
       <use xlink:href="#SimHei-33"/>
       <use xlink:href="#SimHei-35" x="50"/>
      </g>
     </g>
    </g>
    <g id="text_18">
     <!-- 需求量 -->
     <g transform="translate(67.75 233.16) rotate(-90) scale(0.1 -0.1)">
      <defs>
       <path id="SimHei-9700" d="M 5150 2100 
Q 5500 2100 5975 2125 
L 5975 1700 
Q 5500 1725 5150 1725 
L 3425 1725 
Q 3300 1500 3250 1275 
L 5600 1275 
Q 5575 950 5575 700 
L 5575 -50 
Q 5575 -350 5425 -437 
Q 5275 -525 4775 -625 
Q 4750 -400 4550 -100 
Q 4950 -100 5025 -50 
Q 5100 0 5100 200 
L 5100 900 
L 4125 900 
L 4125 -375 
L 3650 -375 
L 3650 900 
L 2775 900 
L 2775 -375 
L 2300 -375 
L 2300 900 
L 1350 900 
L 1350 -575 
L 875 -575 
Q 900 -225 900 175 
L 900 575 
Q 900 900 875 1275 
L 2800 1275 
Q 2875 1500 2925 1725 
L 1350 1725 
Q 925 1725 525 1700 
L 525 2125 
Q 900 2100 1325 2100 
L 5150 2100 
z
M 4700 5075 
Q 5075 5075 5550 5100 
L 5550 4675 
Q 5075 4700 4700 4700 
L 3475 4700 
L 3475 4275 
L 5975 4275 
L 5975 3100 
L 5500 3100 
L 5500 3900 
L 3475 3900 
L 3475 3200 
Q 3475 2775 3500 2425 
L 2975 2425 
Q 3000 2750 3000 3175 
L 3000 3900 
L 950 3900 
L 950 3100 
L 450 3100 
Q 450 3375 462 3650 
Q 475 3925 450 4275 
L 3000 4275 
L 3000 4700 
L 1775 4700 
Q 1400 4700 1025 4675 
L 1025 5100 
Q 1400 5075 1750 5075 
L 4700 5075 
z
M 2475 2450 
L 1250 2450 
L 1250 2800 
L 2475 2800 
L 2475 2450 
z
M 2500 3150 
L 1325 3150 
L 1325 3500 
L 2500 3500 
L 2500 3150 
z
M 5000 3175 
L 3825 3175 
L 3825 3525 
L 5000 3525 
L 5000 3175 
z
M 5025 2500 
L 3850 2500 
L 3850 2850 
L 5025 2850 
L 5025 2500 
z
" transform="scale(0.015625)"/>
       <path id="SimHei-6c42" d="M 475 4025 
Q 875 4000 1325 4000 
L 2875 4000 
Q 2875 4725 2850 5125 
L 3400 5125 
Q 3375 4725 3375 4000 
L 5150 4000 
Q 5500 4000 5925 4025 
L 5925 3575 
Q 5475 3600 5150 3600 
L 3375 3600 
Q 3400 3200 3612 2750 
Q 3825 2300 4050 2000 
Q 4600 2450 5075 3150 
Q 5250 2950 5575 2750 
Q 5275 2600 4250 1650 
Q 4575 1225 5037 850 
Q 5500 475 6050 325 
Q 5700 125 5550 -150 
Q 5000 150 4437 687 
Q 3875 1225 3375 2375 
L 3375 150 
Q 3400 -225 3137 -350 
Q 2875 -475 2375 -525 
Q 2325 -275 2150 25 
Q 2575 0 2737 37 
Q 2900 75 2875 300 
L 2875 1675 
Q 1875 900 1437 550 
Q 1000 200 725 -50 
Q 500 200 300 400 
Q 650 575 1200 937 
Q 1750 1300 2875 2250 
L 2875 3600 
L 1325 3600 
Q 875 3600 475 3575 
L 475 4025 
z
M 1225 3175 
Q 1775 2725 2250 2325 
L 1825 1950 
Q 1450 2375 825 2825 
L 1225 3175 
z
M 4500 5100 
Q 4900 4825 5300 4425 
Q 5125 4300 4925 4100 
Q 4650 4400 4125 4825 
Q 4275 4950 4500 5100 
z
" transform="scale(0.015625)"/>
       <path id="SimHei-91cf" d="M 5250 2500 
Q 5225 2200 5225 1700 
Q 5225 1225 5250 950 
L 3425 950 
L 3425 625 
L 4575 625 
Q 5000 625 5375 650 
L 5375 275 
Q 5025 300 4575 300 
L 3425 300 
L 3425 -75 
L 5125 -75 
Q 5525 -75 5925 -50 
L 5925 -425 
Q 5525 -400 5125 -400 
L 1275 -400 
Q 900 -400 475 -425 
L 475 -50 
Q 925 -50 1275 -75 
L 2975 -75 
L 2975 300 
L 1725 300 
Q 1350 300 975 250 
L 975 650 
Q 1375 625 1725 625 
L 2975 625 
L 2975 950 
L 1150 950 
Q 1175 1375 1175 1775 
Q 1175 2175 1150 2500 
L 5250 2500 
z
M 5200 4950 
Q 5175 4575 5175 4250 
Q 5175 3925 5200 3400 
L 1200 3400 
Q 1225 3925 1225 4250 
Q 1225 4575 1200 4950 
L 5200 4950 
z
M 4900 3100 
Q 5500 3125 6000 3150 
L 6000 2750 
Q 5500 2775 4925 2775 
L 1650 2775 
Q 975 2775 325 2750 
L 325 3150 
Q 975 3125 1650 3100 
L 4900 3100 
z
M 4725 3700 
L 4725 4025 
L 1675 4025 
L 1675 3700 
L 4725 3700 
z
M 4725 4350 
L 4725 4650 
L 1675 4650 
L 1675 4350 
L 4725 4350 
z
M 4750 1875 
L 4750 2175 
L 3425 2175 
L 3425 1875 
L 4750 1875 
z
M 2975 1875 
L 2975 2175 
L 1650 2175 
L 1650 1875 
L 2975 1875 
z
M 2975 1275 
L 2975 1550 
L 1650 1550 
L 1650 1275 
L 2975 1275 
z
M 4750 1275 
L 4750 1550 
L 3425 1550 
L 3425 1275 
L 4750 1275 
z
" transform="scale(0.015625)"/>
      </defs>
      <use xlink:href="#SimHei-9700"/>
      <use xlink:href="#SimHei-6c42" x="100"/>
      <use xlink:href="#SimHei-91cf" x="200"/>
     </g>
    </g>
   </g>
   <g id="line2d_17">
    <path d="M 115.363636 322.635051 
L 118.262338 346.604587 
L 121.161039 322.635051 
L 153.046753 314.645205 
L 158.844156 346.604587 
L 161.742857 346.604587 
L 170.438961 274.695979 
L 173.337662 346.604587 
L 179.135065 346.604587 
L 184.932468 202.787371 
L 193.628571 282.685824 
L 199.425974 338.614741 
L 202.324675 258.716288 
L 211.020779 330.624896 
L 213.919481 338.614741 
L 222.615584 346.604587 
L 225.514286 338.614741 
L 231.311688 346.604587 
L 242.906494 346.604587 
L 251.602597 346.604587 
L 254.501299 250.726443 
L 263.197403 322.635051 
L 266.096104 330.624896 
L 309.576623 330.624896 
L 315.374026 194.797525 
L 318.272727 98.919381 
L 321.171429 322.635051 
L 332.766234 194.797525 
L 335.664935 114.899072 
L 338.563636 122.888917 
L 341.462338 218.767061 
L 344.361039 306.65536 
L 350.158442 322.635051 
L 353.057143 210.777216 
L 358.854545 322.635051 
L 364.651948 242.736597 
L 367.550649 290.675669 
L 370.449351 250.726443 
L 373.348052 290.675669 
L 376.246753 234.746752 
L 379.145455 138.868608 
L 382.044156 330.624896 
L 384.942857 202.787371 
L 387.841558 258.716288 
L 390.74026 298.665515 
L 396.537662 282.685824 
L 399.436364 258.716288 
L 402.335065 322.635051 
L 405.233766 266.706133 
L 408.132468 266.706133 
L 413.92987 210.777216 
L 416.828571 274.695979 
L 419.727273 346.604587 
L 422.625974 314.645205 
L 425.524675 314.645205 
L 437.119481 346.604587 
L 440.018182 298.665515 
L 442.916883 346.604587 
L 451.612987 202.787371 
L 454.511688 114.899072 
L 457.41039 250.726443 
L 460.309091 170.827989 
L 463.207792 242.736597 
L 469.005195 306.65536 
L 471.903896 274.695979 
L 477.701299 146.858453 
L 480.6 258.716288 
L 483.498701 298.665515 
L 486.397403 322.635051 
L 489.296104 66.96 
L 492.194805 210.777216 
L 497.992208 346.604587 
L 500.890909 282.685824 
L 506.688312 338.614741 
L 509.587013 338.614741 
L 512.485714 322.635051 
L 515.384416 250.726443 
L 518.283117 282.685824 
L 521.181818 330.624896 
L 524.080519 322.635051 
L 526.979221 330.624896 
L 529.877922 346.604587 
L 532.776623 330.624896 
L 535.675325 346.604587 
L 538.574026 306.65536 
L 541.472727 226.756907 
L 544.371429 346.604587 
L 553.067532 250.726443 
L 555.966234 282.685824 
L 558.864935 298.665515 
L 561.763636 306.65536 
L 567.561039 282.685824 
L 576.257143 274.695979 
L 584.953247 306.65536 
L 587.851948 338.614741 
L 593.649351 330.624896 
L 596.548052 186.80768 
L 599.446753 346.604587 
L 602.345455 314.645205 
L 605.244156 306.65536 
L 608.142857 322.635051 
L 613.94026 338.614741 
L 616.838961 218.767061 
L 619.737662 346.604587 
L 622.636364 306.65536 
" clip-path="url(#p19e9ce8bea)" style="fill: none; stroke: #0000ff; stroke-width: 1.5; stroke-linecap: square"/>
    <defs>
     <path id="m23ac2a6cc0" d="M 0 3 
C 0.795609 3 1.55874 2.683901 2.12132 2.12132 
C 2.683901 1.55874 3 0.795609 3 0 
C 3 -0.795609 2.683901 -1.55874 2.12132 -2.12132 
C 1.55874 -2.683901 0.795609 -3 0 -3 
C -0.795609 -3 -1.55874 -2.683901 -2.12132 -2.12132 
C -2.683901 -1.55874 -3 -0.795609 -3 0 
C -3 0.795609 -2.683901 1.55874 -2.12132 2.12132 
C -1.55874 2.683901 -0.795609 3 0 3 
z
" style="stroke: #0000ff"/>
    </defs>
    <g clip-path="url(#p19e9ce8bea)">
     <use xlink:href="#m23ac2a6cc0" x="115.363636" y="322.635051" style="fill: #0000ff; stroke: #0000ff"/>
     <use xlink:href="#m23ac2a6cc0" x="118.262338" y="346.604587" style="fill: #0000ff; stroke: #0000ff"/>
     <use xlink:href="#m23ac2a6cc0" x="121.161039" y="322.635051" style="fill: #0000ff; stroke: #0000ff"/>
     <use xlink:href="#m23ac2a6cc0" x="153.046753" y="314.645205" style="fill: #0000ff; stroke: #0000ff"/>
     <use xlink:href="#m23ac2a6cc0" x="158.844156" y="346.604587" style="fill: #0000ff; stroke: #0000ff"/>
     <use xlink:href="#m23ac2a6cc0" x="161.742857" y="346.604587" style="fill: #0000ff; stroke: #0000ff"/>
     <use xlink:href="#m23ac2a6cc0" x="170.438961" y="274.695979" style="fill: #0000ff; stroke: #0000ff"/>
     <use xlink:href="#m23ac2a6cc0" x="173.337662" y="346.604587" style="fill: #0000ff; stroke: #0000ff"/>
     <use xlink:href="#m23ac2a6cc0" x="179.135065" y="346.604587" style="fill: #0000ff; stroke: #0000ff"/>
     <use xlink:href="#m23ac2a6cc0" x="184.932468" y="202.787371" style="fill: #0000ff; stroke: #0000ff"/>
     <use xlink:href="#m23ac2a6cc0" x="193.628571" y="282.685824" style="fill: #0000ff; stroke: #0000ff"/>
     <use xlink:href="#m23ac2a6cc0" x="199.425974" y="338.614741" style="fill: #0000ff; stroke: #0000ff"/>
     <use xlink:href="#m23ac2a6cc0" x="202.324675" y="258.716288" style="fill: #0000ff; stroke: #0000ff"/>
     <use xlink:href="#m23ac2a6cc0" x="211.020779" y="330.624896" style="fill: #0000ff; stroke: #0000ff"/>
     <use xlink:href="#m23ac2a6cc0" x="213.919481" y="338.614741" style="fill: #0000ff; stroke: #0000ff"/>
     <use xlink:href="#m23ac2a6cc0" x="222.615584" y="346.604587" style="fill: #0000ff; stroke: #0000ff"/>
     <use xlink:href="#m23ac2a6cc0" x="225.514286" y="338.614741" style="fill: #0000ff; stroke: #0000ff"/>
     <use xlink:href="#m23ac2a6cc0" x="231.311688" y="346.604587" style="fill: #0000ff; stroke: #0000ff"/>
     <use xlink:href="#m23ac2a6cc0" x="242.906494" y="346.604587" style="fill: #0000ff; stroke: #0000ff"/>
     <use xlink:href="#m23ac2a6cc0" x="251.602597" y="346.604587" style="fill: #0000ff; stroke: #0000ff"/>
     <use xlink:href="#m23ac2a6cc0" x="254.501299" y="250.726443" style="fill: #0000ff; stroke: #0000ff"/>
     <use xlink:href="#m23ac2a6cc0" x="263.197403" y="322.635051" style="fill: #0000ff; stroke: #0000ff"/>
     <use xlink:href="#m23ac2a6cc0" x="266.096104" y="330.624896" style="fill: #0000ff; stroke: #0000ff"/>
     <use xlink:href="#m23ac2a6cc0" x="309.576623" y="330.624896" style="fill: #0000ff; stroke: #0000ff"/>
     <use xlink:href="#m23ac2a6cc0" x="315.374026" y="194.797525" style="fill: #0000ff; stroke: #0000ff"/>
     <use xlink:href="#m23ac2a6cc0" x="318.272727" y="98.919381" style="fill: #0000ff; stroke: #0000ff"/>
     <use xlink:href="#m23ac2a6cc0" x="321.171429" y="322.635051" style="fill: #0000ff; stroke: #0000ff"/>
     <use xlink:href="#m23ac2a6cc0" x="332.766234" y="194.797525" style="fill: #0000ff; stroke: #0000ff"/>
     <use xlink:href="#m23ac2a6cc0" x="335.664935" y="114.899072" style="fill: #0000ff; stroke: #0000ff"/>
     <use xlink:href="#m23ac2a6cc0" x="338.563636" y="122.888917" style="fill: #0000ff; stroke: #0000ff"/>
     <use xlink:href="#m23ac2a6cc0" x="341.462338" y="218.767061" style="fill: #0000ff; stroke: #0000ff"/>
     <use xlink:href="#m23ac2a6cc0" x="344.361039" y="306.65536" style="fill: #0000ff; stroke: #0000ff"/>
     <use xlink:href="#m23ac2a6cc0" x="350.158442" y="322.635051" style="fill: #0000ff; stroke: #0000ff"/>
     <use xlink:href="#m23ac2a6cc0" x="353.057143" y="210.777216" style="fill: #0000ff; stroke: #0000ff"/>
     <use xlink:href="#m23ac2a6cc0" x="358.854545" y="322.635051" style="fill: #0000ff; stroke: #0000ff"/>
     <use xlink:href="#m23ac2a6cc0" x="364.651948" y="242.736597" style="fill: #0000ff; stroke: #0000ff"/>
     <use xlink:href="#m23ac2a6cc0" x="367.550649" y="290.675669" style="fill: #0000ff; stroke: #0000ff"/>
     <use xlink:href="#m23ac2a6cc0" x="370.449351" y="250.726443" style="fill: #0000ff; stroke: #0000ff"/>
     <use xlink:href="#m23ac2a6cc0" x="373.348052" y="290.675669" style="fill: #0000ff; stroke: #0000ff"/>
     <use xlink:href="#m23ac2a6cc0" x="376.246753" y="234.746752" style="fill: #0000ff; stroke: #0000ff"/>
     <use xlink:href="#m23ac2a6cc0" x="379.145455" y="138.868608" style="fill: #0000ff; stroke: #0000ff"/>
     <use xlink:href="#m23ac2a6cc0" x="382.044156" y="330.624896" style="fill: #0000ff; stroke: #0000ff"/>
     <use xlink:href="#m23ac2a6cc0" x="384.942857" y="202.787371" style="fill: #0000ff; stroke: #0000ff"/>
     <use xlink:href="#m23ac2a6cc0" x="387.841558" y="258.716288" style="fill: #0000ff; stroke: #0000ff"/>
     <use xlink:href="#m23ac2a6cc0" x="390.74026" y="298.665515" style="fill: #0000ff; stroke: #0000ff"/>
     <use xlink:href="#m23ac2a6cc0" x="396.537662" y="282.685824" style="fill: #0000ff; stroke: #0000ff"/>
     <use xlink:href="#m23ac2a6cc0" x="399.436364" y="258.716288" style="fill: #0000ff; stroke: #0000ff"/>
     <use xlink:href="#m23ac2a6cc0" x="402.335065" y="322.635051" style="fill: #0000ff; stroke: #0000ff"/>
     <use xlink:href="#m23ac2a6cc0" x="405.233766" y="266.706133" style="fill: #0000ff; stroke: #0000ff"/>
     <use xlink:href="#m23ac2a6cc0" x="408.132468" y="266.706133" style="fill: #0000ff; stroke: #0000ff"/>
     <use xlink:href="#m23ac2a6cc0" x="413.92987" y="210.777216" style="fill: #0000ff; stroke: #0000ff"/>
     <use xlink:href="#m23ac2a6cc0" x="416.828571" y="274.695979" style="fill: #0000ff; stroke: #0000ff"/>
     <use xlink:href="#m23ac2a6cc0" x="419.727273" y="346.604587" style="fill: #0000ff; stroke: #0000ff"/>
     <use xlink:href="#m23ac2a6cc0" x="422.625974" y="314.645205" style="fill: #0000ff; stroke: #0000ff"/>
     <use xlink:href="#m23ac2a6cc0" x="425.524675" y="314.645205" style="fill: #0000ff; stroke: #0000ff"/>
     <use xlink:href="#m23ac2a6cc0" x="437.119481" y="346.604587" style="fill: #0000ff; stroke: #0000ff"/>
     <use xlink:href="#m23ac2a6cc0" x="440.018182" y="298.665515" style="fill: #0000ff; stroke: #0000ff"/>
     <use xlink:href="#m23ac2a6cc0" x="442.916883" y="346.604587" style="fill: #0000ff; stroke: #0000ff"/>
     <use xlink:href="#m23ac2a6cc0" x="451.612987" y="202.787371" style="fill: #0000ff; stroke: #0000ff"/>
     <use xlink:href="#m23ac2a6cc0" x="454.511688" y="114.899072" style="fill: #0000ff; stroke: #0000ff"/>
     <use xlink:href="#m23ac2a6cc0" x="457.41039" y="250.726443" style="fill: #0000ff; stroke: #0000ff"/>
     <use xlink:href="#m23ac2a6cc0" x="460.309091" y="170.827989" style="fill: #0000ff; stroke: #0000ff"/>
     <use xlink:href="#m23ac2a6cc0" x="463.207792" y="242.736597" style="fill: #0000ff; stroke: #0000ff"/>
     <use xlink:href="#m23ac2a6cc0" x="469.005195" y="306.65536" style="fill: #0000ff; stroke: #0000ff"/>
     <use xlink:href="#m23ac2a6cc0" x="471.903896" y="274.695979" style="fill: #0000ff; stroke: #0000ff"/>
     <use xlink:href="#m23ac2a6cc0" x="477.701299" y="146.858453" style="fill: #0000ff; stroke: #0000ff"/>
     <use xlink:href="#m23ac2a6cc0" x="480.6" y="258.716288" style="fill: #0000ff; stroke: #0000ff"/>
     <use xlink:href="#m23ac2a6cc0" x="483.498701" y="298.665515" style="fill: #0000ff; stroke: #0000ff"/>
     <use xlink:href="#m23ac2a6cc0" x="486.397403" y="322.635051" style="fill: #0000ff; stroke: #0000ff"/>
     <use xlink:href="#m23ac2a6cc0" x="489.296104" y="66.96" style="fill: #0000ff; stroke: #0000ff"/>
     <use xlink:href="#m23ac2a6cc0" x="492.194805" y="210.777216" style="fill: #0000ff; stroke: #0000ff"/>
     <use xlink:href="#m23ac2a6cc0" x="497.992208" y="346.604587" style="fill: #0000ff; stroke: #0000ff"/>
     <use xlink:href="#m23ac2a6cc0" x="500.890909" y="282.685824" style="fill: #0000ff; stroke: #0000ff"/>
     <use xlink:href="#m23ac2a6cc0" x="506.688312" y="338.614741" style="fill: #0000ff; stroke: #0000ff"/>
     <use xlink:href="#m23ac2a6cc0" x="509.587013" y="338.614741" style="fill: #0000ff; stroke: #0000ff"/>
     <use xlink:href="#m23ac2a6cc0" x="512.485714" y="322.635051" style="fill: #0000ff; stroke: #0000ff"/>
     <use xlink:href="#m23ac2a6cc0" x="515.384416" y="250.726443" style="fill: #0000ff; stroke: #0000ff"/>
     <use xlink:href="#m23ac2a6cc0" x="518.283117" y="282.685824" style="fill: #0000ff; stroke: #0000ff"/>
     <use xlink:href="#m23ac2a6cc0" x="521.181818" y="330.624896" style="fill: #0000ff; stroke: #0000ff"/>
     <use xlink:href="#m23ac2a6cc0" x="524.080519" y="322.635051" style="fill: #0000ff; stroke: #0000ff"/>
     <use xlink:href="#m23ac2a6cc0" x="526.979221" y="330.624896" style="fill: #0000ff; stroke: #0000ff"/>
     <use xlink:href="#m23ac2a6cc0" x="529.877922" y="346.604587" style="fill: #0000ff; stroke: #0000ff"/>
     <use xlink:href="#m23ac2a6cc0" x="532.776623" y="330.624896" style="fill: #0000ff; stroke: #0000ff"/>
     <use xlink:href="#m23ac2a6cc0" x="535.675325" y="346.604587" style="fill: #0000ff; stroke: #0000ff"/>
     <use xlink:href="#m23ac2a6cc0" x="538.574026" y="306.65536" style="fill: #0000ff; stroke: #0000ff"/>
     <use xlink:href="#m23ac2a6cc0" x="541.472727" y="226.756907" style="fill: #0000ff; stroke: #0000ff"/>
     <use xlink:href="#m23ac2a6cc0" x="544.371429" y="346.604587" style="fill: #0000ff; stroke: #0000ff"/>
     <use xlink:href="#m23ac2a6cc0" x="553.067532" y="250.726443" style="fill: #0000ff; stroke: #0000ff"/>
     <use xlink:href="#m23ac2a6cc0" x="555.966234" y="282.685824" style="fill: #0000ff; stroke: #0000ff"/>
     <use xlink:href="#m23ac2a6cc0" x="558.864935" y="298.665515" style="fill: #0000ff; stroke: #0000ff"/>
     <use xlink:href="#m23ac2a6cc0" x="561.763636" y="306.65536" style="fill: #0000ff; stroke: #0000ff"/>
     <use xlink:href="#m23ac2a6cc0" x="567.561039" y="282.685824" style="fill: #0000ff; stroke: #0000ff"/>
     <use xlink:href="#m23ac2a6cc0" x="576.257143" y="274.695979" style="fill: #0000ff; stroke: #0000ff"/>
     <use xlink:href="#m23ac2a6cc0" x="584.953247" y="306.65536" style="fill: #0000ff; stroke: #0000ff"/>
     <use xlink:href="#m23ac2a6cc0" x="587.851948" y="338.614741" style="fill: #0000ff; stroke: #0000ff"/>
     <use xlink:href="#m23ac2a6cc0" x="593.649351" y="330.624896" style="fill: #0000ff; stroke: #0000ff"/>
     <use xlink:href="#m23ac2a6cc0" x="596.548052" y="186.80768" style="fill: #0000ff; stroke: #0000ff"/>
     <use xlink:href="#m23ac2a6cc0" x="599.446753" y="346.604587" style="fill: #0000ff; stroke: #0000ff"/>
     <use xlink:href="#m23ac2a6cc0" x="602.345455" y="314.645205" style="fill: #0000ff; stroke: #0000ff"/>
     <use xlink:href="#m23ac2a6cc0" x="605.244156" y="306.65536" style="fill: #0000ff; stroke: #0000ff"/>
     <use xlink:href="#m23ac2a6cc0" x="608.142857" y="322.635051" style="fill: #0000ff; stroke: #0000ff"/>
     <use xlink:href="#m23ac2a6cc0" x="613.94026" y="338.614741" style="fill: #0000ff; stroke: #0000ff"/>
     <use xlink:href="#m23ac2a6cc0" x="616.838961" y="218.767061" style="fill: #0000ff; stroke: #0000ff"/>
     <use xlink:href="#m23ac2a6cc0" x="619.737662" y="346.604587" style="fill: #0000ff; stroke: #0000ff"/>
     <use xlink:href="#m23ac2a6cc0" x="622.636364" y="306.65536" style="fill: #0000ff; stroke: #0000ff"/>
    </g>
   </g>
   <g id="line2d_18">
    <path d="M 115.363636 306.472319 
L 118.262338 311.720432 
L 121.161039 357.904431 
L 153.046753 331.758708 
L 158.844156 313.616633 
L 161.742857 332.795988 
L 170.438961 329.584699 
L 173.337662 361.722702 
L 179.135065 347.533366 
L 184.932468 304.451115 
L 193.628571 308.841912 
L 199.425974 316.044379 
L 202.324675 280.86094 
L 211.020779 278.603921 
L 213.919481 328.145336 
L 222.615584 310.9607 
L 225.514286 303.154789 
L 231.311688 322.818453 
L 242.906494 321.561943 
L 251.602597 369.36 
L 254.501299 353.674376 
L 263.197403 290.604653 
L 266.096104 321.188642 
L 309.576623 335.364321 
L 315.374026 294.830378 
L 318.272727 277.313612 
L 321.171429 281.712372 
L 332.766234 270.494104 
L 335.664935 240.874513 
L 338.563636 228.909961 
L 341.462338 202.221796 
L 344.361039 248.355053 
L 350.158442 248.549752 
L 353.057143 220.164167 
L 358.854545 242.63372 
L 364.651948 270.634416 
L 367.550649 225.563299 
L 370.449351 240.401564 
L 373.348052 281.773953 
L 376.246753 264.282167 
L 379.145455 243.706406 
L 382.044156 235.883116 
L 384.942857 248.528159 
L 387.841558 282.458416 
L 390.74026 266.579469 
L 396.537662 229.965435 
L 399.436364 264.602988 
L 402.335065 275.776599 
L 405.233766 245.351646 
L 408.132468 251.616916 
L 413.92987 293.922728 
L 416.828571 258.397163 
L 419.727273 246.801177 
L 422.625974 279.070951 
L 425.524675 280.123953 
L 437.119481 329.779049 
L 440.018182 321.848072 
L 442.916883 274.405887 
L 451.612987 312.859599 
L 454.511688 303.621322 
L 457.41039 227.041698 
L 460.309091 233.763509 
L 463.207792 260.782804 
L 469.005195 238.011422 
L 471.903896 236.670835 
L 477.701299 256.837083 
L 480.6 229.373551 
L 483.498701 278.014077 
L 486.397403 270.832662 
L 489.296104 238.081441 
L 492.194805 228.864164 
L 497.992208 237.647516 
L 500.890909 219.388864 
L 506.688312 233.871439 
L 509.587013 293.742158 
L 512.485714 283.297754 
L 515.384416 276.215444 
L 518.283117 283.938067 
L 521.181818 277.776084 
L 524.080519 331.021888 
L 526.979221 318.151335 
L 529.877922 277.694836 
L 532.776623 315.504179 
L 535.675325 330.793547 
L 538.574026 294.28584 
L 541.472727 298.790782 
L 544.371429 324.027537 
L 553.067532 309.21502 
L 555.966234 282.966784 
L 558.864935 295.628136 
L 561.763636 290.306576 
L 567.561039 336.401336 
L 576.257143 314.650049 
L 584.953247 263.922003 
L 587.851948 296.602894 
L 593.649351 317.160738 
L 596.548052 280.193233 
L 599.446753 263.978767 
L 602.345455 319.516261 
L 605.244156 299.326138 
L 608.142857 285.972846 
L 613.94026 305.872056 
L 616.838961 306.370323 
L 619.737662 332.098924 
L 622.636364 323.713444 
" clip-path="url(#p19e9ce8bea)" style="fill: none; stroke: #ff0000; stroke-width: 1.5; stroke-linecap: square"/>
   </g>
   <g id="patch_3">
    <path d="M 90 384.48 
L 90 51.84 
" style="fill: none; stroke: #000000; stroke-width: 0.8; stroke-linejoin: miter; stroke-linecap: square"/>
   </g>
   <g id="patch_4">
    <path d="M 648 384.48 
L 648 51.84 
" style="fill: none; stroke: #000000; stroke-width: 0.8; stroke-linejoin: miter; stroke-linecap: square"/>
   </g>
   <g id="patch_5">
    <path d="M 90 384.48 
L 648 384.48 
" style="fill: none; stroke: #000000; stroke-width: 0.8; stroke-linejoin: miter; stroke-linecap: square"/>
   </g>
   <g id="patch_6">
    <path d="M 90 51.84 
L 648 51.84 
" style="fill: none; stroke: #000000; stroke-width: 0.8; stroke-linejoin: miter; stroke-linecap: square"/>
   </g>
   <g id="text_19">
    <!-- 6004010255 - 指数平滑模型 拟合 -->
    <g transform="translate(279 45.84) scale(0.12 -0.12)">
     <defs>
      <path id="SimHei-36" d="M 250 1612 
Q 275 1975 387 2225 
Q 500 2475 725 2850 
L 1750 4450 
L 2325 4450 
L 1275 2800 
Q 1950 2975 2350 2750 
Q 2750 2525 2887 2237 
Q 3025 1950 3037 1612 
Q 3050 1275 2937 950 
Q 2825 625 2537 362 
Q 2250 100 1737 75 
Q 1225 50 862 262 
Q 500 475 362 862 
Q 225 1250 250 1612 
z
M 1025 787 
Q 1250 550 1625 525 
Q 2000 500 2250 775 
Q 2500 1050 2500 1575 
Q 2500 2100 2187 2300 
Q 1875 2500 1487 2450 
Q 1100 2400 925 2075 
Q 750 1750 775 1387 
Q 800 1025 1025 787 
z
" transform="scale(0.015625)"/>
      <path id="SimHei-34" d="M 2000 1100 
L 75 1100 
L 75 1525 
L 2100 4450 
L 2475 4450 
L 2475 1525 
L 3075 1525 
L 3075 1100 
L 2475 1100 
L 2475 150 
L 2000 150 
L 2000 1100 
z
M 2000 1525 
L 2000 3500 
L 600 1525 
L 2000 1525 
z
" transform="scale(0.015625)"/>
      <path id="SimHei-20" transform="scale(0.015625)"/>
      <path id="SimHei-2d" d="M 2975 2125 
L 125 2125 
L 125 2525 
L 2975 2525 
L 2975 2125 
z
" transform="scale(0.015625)"/>
      <path id="SimHei-6307" d="M 5625 2225 
Q 5600 1925 5600 1350 
L 5600 300 
Q 5600 -225 5625 -525 
L 5125 -525 
L 5125 -125 
L 3300 -125 
L 3300 -625 
L 2800 -625 
Q 2825 -300 2825 300 
L 2825 1350 
Q 2825 1925 2800 2225 
L 5625 2225 
z
M 500 25 
Q 1075 -25 1175 37 
Q 1275 100 1275 275 
L 1275 1675 
Q 1050 1600 925 1537 
Q 800 1475 475 1275 
Q 400 1525 225 1800 
Q 625 1900 825 1975 
Q 1025 2050 1275 2125 
L 1275 3300 
L 1100 3300 
Q 775 3300 450 3275 
L 450 3725 
Q 750 3700 1100 3700 
L 1275 3700 
L 1275 4450 
Q 1275 4800 1250 5125 
L 1775 5125 
Q 1750 4850 1750 4450 
L 1750 3700 
Q 2075 3700 2425 3725 
L 2425 3275 
Q 2050 3300 1750 3300 
L 1750 2325 
Q 1850 2350 2025 2425 
L 2375 2575 
Q 2350 2300 2375 2100 
Q 2225 2050 2062 1987 
Q 1900 1925 1750 1850 
L 1750 100 
Q 1725 -200 1575 -337 
Q 1425 -475 675 -525 
Q 625 -250 500 25 
z
M 3325 5025 
Q 3300 4675 3300 4125 
Q 4125 4275 4512 4412 
Q 4900 4550 5225 4725 
Q 5325 4475 5575 4250 
Q 5450 4225 5237 4175 
Q 5025 4125 4725 4050 
Q 4425 3975 4037 3887 
Q 3650 3800 3300 3725 
L 3300 3175 
Q 3275 2925 3700 2925 
L 4925 2925 
Q 5300 2925 5387 3087 
Q 5475 3250 5550 3600 
Q 5750 3400 6050 3300 
Q 5825 2725 5700 2637 
Q 5575 2550 5275 2525 
L 3350 2525 
Q 3050 2525 2937 2687 
Q 2825 2850 2825 2975 
L 2825 4125 
Q 2825 4775 2800 5025 
L 3325 5025 
z
M 5125 275 
L 5125 875 
L 3300 875 
L 3300 275 
L 5125 275 
z
M 5125 1250 
L 5125 1825 
L 3300 1825 
L 3300 1250 
L 5125 1250 
z
" transform="scale(0.015625)"/>
      <path id="SimHei-5e73" d="M 4525 4825 
Q 4900 4825 5450 4850 
L 5450 4375 
Q 4925 4400 4525 4400 
L 3475 4400 
L 3475 2025 
L 5000 2025 
Q 5550 2025 6025 2050 
L 6025 1575 
Q 5550 1600 5000 1600 
L 3475 1600 
L 3475 450 
Q 3475 -100 3500 -600 
L 2925 -600 
Q 2950 -100 2950 450 
L 2950 1600 
L 1125 1600 
Q 775 1600 375 1575 
L 375 2050 
Q 775 2025 1175 2025 
L 2950 2025 
L 2950 4400 
L 1775 4400 
Q 1400 4400 875 4375 
L 875 4850 
Q 1400 4825 1750 4825 
L 4525 4825 
z
M 3925 2600 
Q 4500 3300 4900 4125 
Q 5150 3950 5400 3825 
Q 4775 2850 4350 2300 
Q 4150 2475 3925 2600 
z
M 1975 2350 
Q 1600 3100 1050 3725 
Q 1250 3875 1450 4050 
Q 2075 3300 2450 2725 
Q 2150 2500 1975 2350 
z
" transform="scale(0.015625)"/>
      <path id="SimHei-6ed1" d="M 5350 5100 
Q 5325 4725 5325 4400 
L 5325 3325 
L 6125 3325 
Q 6100 3050 6100 2775 
Q 6100 2500 6125 2275 
L 5650 2275 
L 5650 2925 
L 2150 2925 
L 2150 2275 
L 1700 2275 
Q 1725 2550 1725 2800 
Q 1725 3075 1700 3325 
L 2475 3325 
L 2475 4375 
Q 2475 4675 2450 5100 
L 5350 5100 
z
M 5275 2500 
Q 5250 2150 5250 1725 
L 5250 -75 
Q 5250 -375 5025 -475 
Q 4800 -575 4375 -625 
Q 4375 -400 4225 -75 
Q 4775 -175 4775 75 
L 4775 425 
L 3000 425 
L 3000 -625 
L 2525 -625 
Q 2550 -125 2550 225 
L 2550 1750 
Q 2550 2125 2525 2500 
L 5275 2500 
z
M 4300 4225 
L 4300 3325 
L 4900 3325 
L 4900 4700 
L 2925 4700 
L 2925 4225 
L 4300 4225 
z
M 1675 1900 
Q 1525 1675 1375 1262 
Q 1225 850 1062 437 
Q 900 25 775 -300 
Q 500 -100 200 50 
Q 375 250 525 525 
Q 675 800 875 1275 
Q 1075 1750 1175 2125 
Q 1375 2000 1675 1900 
z
M 4775 1625 
L 4775 2125 
L 3000 2125 
L 3000 1625 
L 4775 1625 
z
M 4775 800 
L 4775 1250 
L 3000 1250 
L 3000 800 
L 4775 800 
z
M 950 5125 
Q 1100 5025 1362 4825 
Q 1625 4625 1850 4450 
Q 1700 4275 1550 4000 
Q 1325 4225 1112 4400 
Q 900 4575 650 4725 
Q 825 4950 950 5125 
z
M 1000 3375 
Q 1225 3225 1475 3025 
Q 1325 2875 1175 2625 
Q 950 2800 750 2950 
Q 550 3100 250 3275 
L 550 3675 
L 1000 3375 
z
M 3900 3325 
L 3900 3825 
L 2925 3825 
L 2925 3325 
L 3900 3325 
z
" transform="scale(0.015625)"/>
      <path id="SimHei-6a21" d="M 5700 3675 
Q 5675 3400 5675 2725 
Q 5675 2050 5700 1725 
L 4375 1725 
Q 4350 1450 4325 1200 
L 5225 1200 
Q 5750 1200 6025 1225 
L 6025 825 
Q 5725 850 5225 850 
L 4700 850 
Q 5075 375 5437 137 
Q 5800 -100 6200 -200 
Q 5975 -375 5850 -625 
Q 5275 -400 4862 25 
Q 4450 450 4300 775 
L 4225 775 
Q 4000 275 3537 -62 
Q 3075 -400 2475 -625 
Q 2350 -375 2125 -200 
Q 2775 -75 3200 200 
Q 3625 475 3775 850 
L 3325 850 
Q 2800 850 2400 825 
L 2400 1225 
Q 2800 1200 3350 1200 
L 3875 1200 
Q 3925 1475 3925 1725 
L 2750 1725 
Q 2775 2075 2775 2700 
Q 2775 3350 2750 3675 
L 5700 3675 
z
M 2175 1650 
Q 2025 1975 1675 2525 
L 1675 300 
Q 1675 -300 1700 -550 
L 1175 -550 
Q 1200 -275 1200 250 
L 1200 2225 
Q 1125 2000 962 1712 
Q 800 1425 600 1050 
Q 450 1275 200 1425 
Q 600 1825 850 2425 
Q 1100 3025 1175 3425 
L 950 3425 
Q 700 3425 400 3400 
L 400 3825 
Q 675 3800 825 3800 
L 1200 3800 
L 1200 4350 
Q 1200 4775 1175 5150 
L 1700 5150 
Q 1675 4825 1675 4425 
L 1675 3800 
Q 2075 3800 2375 3825 
L 2375 3400 
Q 2050 3425 1675 3425 
L 1675 2575 
Q 1850 2675 2000 2775 
Q 2150 2525 2287 2325 
Q 2425 2125 2550 1925 
Q 2325 1775 2175 1650 
z
M 3375 4300 
L 3175 4300 
Q 2700 4300 2425 4275 
L 2425 4675 
Q 2700 4650 3150 4650 
L 3375 4650 
Q 3375 5000 3350 5225 
L 3825 5225 
Q 3800 5000 3800 4650 
L 4550 4650 
Q 4550 4975 4525 5200 
L 5025 5200 
Q 5000 4925 5000 4650 
L 5375 4650 
Q 5650 4650 5950 4675 
L 5950 4275 
Q 5650 4300 5375 4300 
L 5000 4300 
L 5000 3850 
L 4550 3850 
L 4550 4300 
L 3800 4300 
L 3800 3875 
L 3375 3875 
L 3375 4300 
z
M 5275 2075 
L 5275 2525 
L 3200 2525 
L 3200 2075 
L 5275 2075 
z
M 5275 2875 
L 5275 3325 
L 3200 3325 
L 3200 2875 
L 5275 2875 
z
" transform="scale(0.015625)"/>
      <path id="SimHei-578b" d="M 2625 1775 
Q 2650 2325 2650 2700 
L 2650 3000 
L 1825 3000 
Q 1725 2375 1425 2000 
Q 1125 1625 775 1425 
Q 650 1650 375 1900 
Q 850 2075 1062 2362 
Q 1275 2650 1350 3000 
Q 900 3000 375 2975 
L 375 3450 
Q 925 3425 1400 3425 
Q 1425 3950 1425 4475 
Q 1075 4475 700 4450 
L 700 4900 
Q 1050 4875 1525 4875 
L 3000 4875 
Q 3275 4875 3650 4900 
L 3650 4450 
Q 3325 4475 3125 4475 
L 3125 3425 
Q 3450 3425 3825 3450 
L 3825 2975 
Q 3450 3000 3125 3000 
L 3125 2675 
Q 3125 2225 3150 1775 
L 2625 1775 
z
M 3000 1175 
Q 3000 1375 2975 1725 
L 3500 1725 
Q 3475 1375 3475 1175 
L 4550 1175 
Q 5050 1175 5450 1200 
L 5450 725 
Q 4975 750 4550 750 
L 3475 750 
L 3475 -50 
L 5275 -50 
Q 5700 -50 6100 -25 
L 6100 -500 
Q 5725 -475 5300 -475 
L 1250 -475 
Q 775 -475 400 -500 
L 400 -25 
Q 775 -50 1250 -50 
L 3000 -50 
L 3000 750 
L 2025 750 
Q 1500 750 975 725 
L 1050 1200 
Q 1500 1175 2025 1175 
L 3000 1175 
z
M 5775 5200 
Q 5750 4775 5750 4325 
L 5750 2400 
Q 5775 1950 5612 1775 
Q 5450 1600 4900 1525 
Q 4825 1775 4675 2100 
Q 5175 2075 5237 2150 
Q 5300 2225 5300 2525 
L 5300 4325 
Q 5300 4775 5275 5200 
L 5775 5200 
z
M 4600 4750 
Q 4575 4450 4575 3975 
L 4575 3200 
Q 4575 2825 4600 2425 
L 4100 2425 
Q 4125 2825 4125 3200 
L 4125 3975 
Q 4125 4450 4100 4750 
L 4600 4750 
z
M 2650 3425 
L 2650 4475 
L 1875 4475 
Q 1850 3750 1850 3425 
L 2650 3425 
z
" transform="scale(0.015625)"/>
      <path id="SimHei-62df" d="M 1675 125 
Q 1675 -175 1500 -275 
Q 1325 -375 800 -500 
Q 750 -225 575 0 
Q 1225 25 1225 275 
L 1225 1875 
Q 700 1625 475 1500 
Q 375 1800 250 1975 
Q 525 2050 1225 2325 
L 1225 3550 
Q 725 3550 350 3525 
L 350 4000 
Q 700 3950 1225 3950 
Q 1225 4625 1200 5225 
L 1725 5225 
Q 1675 4550 1675 3950 
Q 2025 3950 2325 3975 
L 2325 3525 
Q 1975 3550 1675 3550 
L 1675 2475 
Q 2150 2675 2300 2800 
Q 2300 2550 2325 2325 
Q 2125 2250 1675 2050 
L 1675 125 
z
M 4950 5050 
Q 5275 5025 5500 5000 
Q 5425 4650 5450 3337 
Q 5475 2025 5250 1275 
Q 5850 550 6200 -50 
Q 5975 -225 5775 -400 
Q 5525 100 5050 800 
Q 4800 450 4437 112 
Q 4075 -225 3325 -650 
Q 3175 -450 2925 -250 
Q 3425 -25 3900 325 
Q 4375 675 4612 1050 
Q 4850 1425 4925 2150 
Q 5000 2875 4950 5050 
z
M 2500 700 
Q 2675 875 2675 1200 
L 2675 3475 
Q 2675 3925 2650 4400 
L 3175 4400 
Q 3125 3975 3125 3500 
L 3125 1175 
Q 3775 1850 4050 2200 
Q 4150 1925 4300 1725 
Q 4025 1500 2900 300 
L 2500 700 
z
M 3800 5100 
Q 4375 4025 4575 3550 
Q 4250 3400 4100 3300 
Q 3850 3875 3375 4875 
Q 3575 4950 3800 5100 
z
" transform="scale(0.015625)"/>
      <path id="SimHei-5408" d="M 5050 1800 
Q 5025 1550 5025 650 
Q 5025 -250 5050 -525 
L 4525 -525 
L 4525 -50 
L 1750 -50 
L 1750 -600 
L 1250 -600 
Q 1275 -300 1275 550 
Q 1275 1425 1250 1800 
L 5050 1800 
z
M 3375 4800 
Q 4100 3925 4550 3600 
Q 5000 3275 5375 3100 
Q 5750 2925 6100 2825 
Q 5850 2550 5775 2300 
Q 5275 2525 4875 2775 
Q 4475 3025 4062 3412 
Q 3650 3800 3125 4475 
Q 2650 3800 2187 3362 
Q 1725 2925 1400 2675 
Q 1075 2425 675 2175 
Q 625 2275 275 2575 
Q 800 2825 1275 3175 
Q 1750 3525 2225 4062 
Q 2700 4600 3000 5225 
Q 3275 5050 3500 4950 
L 3375 4800 
z
M 4525 350 
L 4525 1400 
L 1750 1400 
L 1750 350 
L 4525 350 
z
M 3925 2825 
Q 4325 2825 4625 2850 
L 4625 2375 
Q 4300 2400 3950 2400 
L 2550 2400 
Q 2025 2400 1700 2375 
L 1700 2850 
Q 2175 2825 2550 2825 
L 3925 2825 
z
" transform="scale(0.015625)"/>
     </defs>
     <use xlink:href="#SimHei-36"/>
     <use xlink:href="#SimHei-30" x="50"/>
     <use xlink:href="#SimHei-30" x="100"/>
     <use xlink:href="#SimHei-34" x="150"/>
     <use xlink:href="#SimHei-30" x="200"/>
     <use xlink:href="#SimHei-31" x="250"/>
     <use xlink:href="#SimHei-30" x="300"/>
     <use xlink:href="#SimHei-32" x="350"/>
     <use xlink:href="#SimHei-35" x="400"/>
     <use xlink:href="#SimHei-35" x="450"/>
     <use xlink:href="#SimHei-20" x="500"/>
     <use xlink:href="#SimHei-2d" x="550"/>
     <use xlink:href="#SimHei-20" x="600"/>
     <use xlink:href="#SimHei-6307" x="650"/>
     <use xlink:href="#SimHei-6570" x="750"/>
     <use xlink:href="#SimHei-5e73" x="850"/>
     <use xlink:href="#SimHei-6ed1" x="950"/>
     <use xlink:href="#SimHei-6a21" x="1050"/>
     <use xlink:href="#SimHei-578b" x="1150"/>
     <use xlink:href="#SimHei-20" x="1250"/>
     <use xlink:href="#SimHei-62df" x="1300"/>
     <use xlink:href="#SimHei-5408" x="1400"/>
    </g>
   </g>
   <g id="legend_1">
    <g id="patch_7">
     <path d="M 524 88.2775 
L 641 88.2775 
Q 643 88.2775 643 86.2775 
L 643 58.84 
Q 643 56.84 641 56.84 
L 524 56.84 
Q 522 56.84 522 58.84 
L 522 86.2775 
Q 522 88.2775 524 88.2775 
z
" style="fill: #ffffff; opacity: 0.8; stroke: #cccccc; stroke-linejoin: miter"/>
    </g>
    <g id="line2d_19">
     <path d="M 526 65.347812 
L 536 65.347812 
L 546 65.347812 
" style="fill: none; stroke: #0000ff; stroke-width: 1.5; stroke-linecap: square"/>
     <g>
      <use xlink:href="#m23ac2a6cc0" x="536" y="65.347812" style="fill: #0000ff; stroke: #0000ff"/>
     </g>
    </g>
    <g id="text_20">
     <!-- 实际需求量 -->
     <g transform="translate(554 68.847812) scale(0.1 -0.1)">
      <defs>
       <path id="SimHei-5b9e" d="M 4125 3500 
Q 4050 3200 4000 2675 
Q 3950 2150 3850 1550 
L 5025 1550 
Q 5475 1550 5975 1575 
L 5975 1100 
Q 5450 1125 5000 1125 
L 3725 1125 
Q 3500 625 3050 250 
Q 2600 -125 2000 -337 
Q 1400 -550 925 -675 
Q 825 -375 500 -200 
Q 1225 -125 2050 212 
Q 2875 550 3200 1125 
L 1425 1125 
Q 975 1125 425 1100 
L 425 1575 
Q 1000 1550 1425 1550 
L 3375 1550 
Q 3450 1975 3487 2462 
Q 3525 2950 3500 3650 
Q 3800 3550 4125 3500 
z
M 3250 5250 
Q 3450 4850 3600 4375 
L 5775 4375 
Q 5750 4100 5750 3825 
Q 5750 3575 5775 3275 
L 5200 3275 
L 5200 3975 
L 1225 3975 
L 1225 3225 
L 675 3225 
Q 700 3525 700 3800 
Q 700 4100 675 4375 
L 2975 4375 
Q 2900 4675 2700 5075 
Q 2900 5150 3250 5250 
z
M 4000 825 
Q 4550 525 5050 262 
Q 5550 0 5925 -225 
Q 5750 -425 5550 -650 
Q 5100 -325 4575 -37 
Q 4050 250 3675 400 
Q 3875 650 4000 825 
z
M 1175 2750 
Q 1600 2550 2350 2050 
Q 2250 1900 2050 1650 
Q 1350 2175 925 2350 
Q 1075 2500 1175 2750 
z
M 3150 2825 
Q 2975 2625 2850 2425 
Q 2050 3000 1675 3125 
Q 1800 3300 1950 3525 
L 3150 2825 
z
" transform="scale(0.015625)"/>
       <path id="SimHei-9645" d="M 2500 4900 
Q 2425 4700 2250 4100 
Q 2075 3500 1875 2900 
Q 2200 2400 2312 2050 
Q 2425 1700 2362 1412 
Q 2300 1125 2012 912 
Q 1725 700 1350 650 
Q 1225 1050 1125 1225 
Q 1675 1225 1787 1412 
Q 1900 1600 1837 1862 
Q 1775 2125 1662 2375 
Q 1550 2625 1350 2875 
Q 1475 3225 1600 3650 
Q 1725 4075 1850 4475 
L 1025 4475 
L 1025 -525 
L 500 -525 
Q 525 175 525 850 
L 525 3825 
Q 525 4375 500 4900 
L 2500 4900 
z
M 5250 3300 
Q 5650 3300 6050 3325 
L 6050 2850 
Q 5725 2875 5325 2875 
L 4500 2875 
L 4500 75 
Q 4500 -325 4225 -387 
Q 3950 -450 3475 -525 
Q 3450 -225 3275 75 
Q 3775 75 3887 100 
Q 4000 125 4000 275 
L 4000 2875 
L 3375 2875 
Q 2825 2875 2475 2850 
L 2475 3325 
Q 3025 3300 3375 3300 
L 5250 3300 
z
M 4975 4775 
Q 5375 4775 5675 4825 
L 5675 4350 
Q 5375 4375 4975 4375 
L 3650 4375 
Q 3225 4375 2900 4350 
L 2900 4825 
Q 3200 4775 3700 4775 
L 4975 4775 
z
M 2150 200 
Q 2450 700 2662 1187 
Q 2875 1675 3050 2175 
Q 3250 2100 3575 1950 
Q 3325 1500 3112 1000 
Q 2900 500 2650 -25 
Q 2450 75 2150 200 
z
M 5275 2200 
Q 5900 975 6200 350 
Q 5950 250 5675 100 
Q 5300 1025 4800 1925 
Q 4950 2000 5275 2200 
z
" transform="scale(0.015625)"/>
      </defs>
      <use xlink:href="#SimHei-5b9e"/>
      <use xlink:href="#SimHei-9645" x="100"/>
      <use xlink:href="#SimHei-9700" x="200"/>
      <use xlink:href="#SimHei-6c42" x="300"/>
      <use xlink:href="#SimHei-91cf" x="400"/>
     </g>
    </g>
    <g id="line2d_20">
     <path d="M 526 79.5275 
L 536 79.5275 
L 546 79.5275 
" style="fill: none; stroke: #ff0000; stroke-width: 1.5; stroke-linecap: square"/>
    </g>
    <g id="text_21">
     <!-- 指数平滑模型 拟合 -->
     <g transform="translate(554 83.0275) scale(0.1 -0.1)">
      <use xlink:href="#SimHei-6307"/>
      <use xlink:href="#SimHei-6570" x="100"/>
      <use xlink:href="#SimHei-5e73" x="200"/>
      <use xlink:href="#SimHei-6ed1" x="300"/>
      <use xlink:href="#SimHei-6a21" x="400"/>
      <use xlink:href="#SimHei-578b" x="500"/>
      <use xlink:href="#SimHei-20" x="600"/>
      <use xlink:href="#SimHei-62df" x="650"/>
      <use xlink:href="#SimHei-5408" x="750"/>
     </g>
    </g>
   </g>
  </g>
  <g id="text_22">
   <!-- 拟合函数: Exponential Smoothing -->
   <g transform="translate(267 450.7125) scale(0.12 -0.12)">
    <defs>
     <path id="SimHei-51fd" d="M 1200 200 
L 5200 200 
L 5200 2225 
Q 5200 2600 5150 3075 
L 5700 3075 
Q 5675 2500 5675 2225 
L 5675 50 
Q 5675 -275 5700 -625 
L 5200 -625 
L 5200 -225 
L 700 -225 
Q 725 50 725 1375 
Q 725 2700 700 3075 
L 1225 3075 
Q 1200 2800 1200 2475 
L 1200 200 
z
M 5450 4925 
L 5450 4450 
Q 5075 4325 4475 4037 
Q 3875 3750 3475 3575 
L 3475 1100 
Q 3475 700 3200 587 
Q 2925 475 2525 400 
Q 2475 675 2350 950 
Q 2750 950 2887 1000 
Q 3025 1050 3025 1375 
L 3025 3075 
Q 3025 3550 2975 3850 
Q 3225 3925 3700 4125 
Q 4175 4325 4500 4500 
L 1950 4500 
Q 1425 4500 1025 4475 
L 1025 4950 
Q 1525 4925 1950 4925 
L 5450 4925 
z
M 4500 1750 
Q 4700 1575 5000 1275 
Q 4825 1125 4650 900 
Q 4400 1175 4200 1375 
Q 4000 1575 3600 1925 
Q 3775 2100 3900 2275 
L 4500 1750 
z
M 2700 1800 
Q 2525 1675 2237 1487 
Q 1950 1300 1600 1000 
Q 1525 1175 1325 1425 
Q 1500 1500 1887 1737 
Q 2275 1975 2550 2225 
Q 2600 2025 2700 1800 
z
M 4975 3175 
Q 4800 3100 4562 2912 
Q 4325 2725 4000 2475 
Q 3875 2700 3750 2850 
Q 4025 3050 4200 3200 
Q 4375 3350 4600 3575 
Q 4775 3375 4975 3175 
z
M 2350 2550 
Q 2200 2750 2000 2937 
Q 1800 3125 1475 3350 
Q 1650 3525 1750 3700 
Q 2025 3500 2650 2950 
Q 2475 2725 2350 2550 
z
" transform="scale(0.015625)"/>
     <path id="SimHei-3a" d="M 1825 2425 
L 1250 2425 
L 1250 2975 
L 1825 2975 
L 1825 2425 
z
M 1825 125 
L 1250 125 
L 1250 675 
L 1825 675 
L 1825 125 
z
" transform="scale(0.015625)"/>
     <path id="SimHei-45" d="M 2900 125 
L 350 125 
L 350 4400 
L 2775 4400 
L 2775 3925 
L 925 3925 
L 925 2600 
L 2625 2600 
L 2625 2125 
L 925 2125 
L 925 600 
L 2900 600 
L 2900 125 
z
" transform="scale(0.015625)"/>
     <path id="SimHei-78" d="M 2875 125 
L 2275 125 
L 1550 1200 
L 825 125 
L 225 125 
L 1250 1550 
L 300 2925 
L 900 2925 
L 1550 1875 
L 2200 2925 
L 2800 2925 
L 1850 1550 
L 2875 125 
z
" transform="scale(0.015625)"/>
     <path id="SimHei-70" d="M 2825 1525 
Q 2825 800 2475 425 
Q 2125 50 1625 50 
Q 1350 50 1150 162 
Q 950 275 800 500 
L 800 -800 
L 300 -800 
L 300 2925 
L 800 2925 
L 800 2550 
Q 950 2775 1150 2875 
Q 1350 2975 1625 2975 
Q 2125 2975 2475 2612 
Q 2825 2250 2825 1525 
z
M 2275 1525 
Q 2275 2000 2087 2262 
Q 1900 2525 1525 2525 
Q 1225 2525 1012 2262 
Q 800 2000 800 1525 
Q 800 1050 1012 775 
Q 1225 500 1525 500 
Q 1900 500 2087 775 
Q 2275 1050 2275 1525 
z
" transform="scale(0.015625)"/>
     <path id="SimHei-6f" d="M 2925 1525 
Q 2925 875 2525 475 
Q 2125 75 1575 75 
Q 1025 75 625 475 
Q 225 875 225 1525 
Q 225 2175 625 2575 
Q 1025 2975 1575 2975 
Q 2125 2975 2525 2575 
Q 2925 2175 2925 1525 
z
M 2375 1525 
Q 2375 2025 2125 2275 
Q 1875 2525 1575 2525 
Q 1275 2525 1025 2275 
Q 775 2025 775 1525 
Q 775 1025 1025 775 
Q 1275 525 1575 525 
Q 1875 525 2125 775 
Q 2375 1025 2375 1525 
z
" transform="scale(0.015625)"/>
     <path id="SimHei-6e" d="M 2800 125 
L 2300 125 
L 2300 1925 
Q 2300 2225 2150 2400 
Q 2000 2575 1750 2575 
Q 1425 2575 1137 2237 
Q 850 1900 850 1400 
L 850 125 
L 350 125 
L 350 2925 
L 850 2925 
L 850 2400 
Q 1050 2675 1287 2825 
Q 1525 2975 1900 2975 
Q 2350 2975 2575 2725 
Q 2800 2475 2800 2100 
L 2800 125 
z
" transform="scale(0.015625)"/>
     <path id="SimHei-65" d="M 2850 1075 
Q 2800 625 2450 350 
Q 2100 75 1625 75 
Q 1025 75 637 462 
Q 250 850 250 1525 
Q 250 2200 637 2587 
Q 1025 2975 1625 2975 
Q 2150 2975 2487 2637 
Q 2825 2300 2825 1525 
L 800 1525 
Q 800 975 1037 750 
Q 1275 525 1625 525 
Q 1900 525 2075 662 
Q 2250 800 2300 1075 
L 2850 1075 
z
M 2250 1925 
Q 2200 2275 2025 2412 
Q 1850 2550 1575 2550 
Q 1325 2550 1125 2412 
Q 925 2275 825 1925 
L 2250 1925 
z
" transform="scale(0.015625)"/>
     <path id="SimHei-74" d="M 2750 200 
Q 2625 150 2462 112 
Q 2300 75 2025 75 
Q 1575 75 1300 325 
Q 1025 575 1025 1025 
L 1025 2525 
L 175 2525 
L 175 2925 
L 1025 2925 
L 1025 3900 
L 1525 3900 
L 1525 2925 
L 2550 2925 
L 2550 2525 
L 1525 2525 
L 1525 1000 
Q 1525 800 1625 662 
Q 1725 525 2000 525 
Q 2275 525 2450 575 
Q 2625 625 2750 700 
L 2750 200 
z
" transform="scale(0.015625)"/>
     <path id="SimHei-69" d="M 1800 3725 
L 1300 3725 
L 1300 4375 
L 1800 4375 
L 1800 3725 
z
M 1800 125 
L 1300 125 
L 1300 2925 
L 1800 2925 
L 1800 125 
z
" transform="scale(0.015625)"/>
     <path id="SimHei-61" d="M 2875 125 
L 2275 125 
Q 2225 175 2200 262 
Q 2175 350 2175 475 
Q 2000 275 1750 175 
Q 1500 75 1225 75 
Q 825 75 550 275 
Q 275 475 275 850 
Q 275 1225 525 1450 
Q 775 1675 1300 1750 
Q 1650 1800 1912 1875 
Q 2175 1950 2175 2075 
Q 2175 2225 2062 2375 
Q 1950 2525 1575 2525 
Q 1275 2525 1137 2412 
Q 1000 2300 950 2100 
L 400 2100 
Q 450 2500 762 2737 
Q 1075 2975 1575 2975 
Q 2125 2975 2400 2725 
Q 2675 2475 2675 2025 
L 2675 650 
Q 2675 500 2725 375 
Q 2775 250 2875 125 
z
M 2175 1050 
L 2175 1550 
Q 2025 1500 1887 1462 
Q 1750 1425 1425 1375 
Q 1050 1325 937 1200 
Q 825 1075 825 900 
Q 825 750 937 637 
Q 1050 525 1275 525 
Q 1500 525 1762 650 
Q 2025 775 2175 1050 
z
" transform="scale(0.015625)"/>
     <path id="SimHei-6c" d="M 1825 125 
L 1325 125 
L 1325 4400 
L 1825 4400 
L 1825 125 
z
" transform="scale(0.015625)"/>
     <path id="SimHei-53" d="M 2900 1325 
Q 2900 750 2537 412 
Q 2175 75 1550 75 
Q 925 75 575 425 
Q 225 775 225 1300 
L 225 1475 
L 800 1475 
L 800 1325 
Q 800 950 1025 750 
Q 1250 550 1550 550 
Q 1950 550 2137 762 
Q 2325 975 2325 1275 
Q 2325 1525 2100 1737 
Q 1875 1950 1450 2125 
Q 850 2350 587 2625 
Q 325 2900 325 3275 
Q 325 3800 687 4125 
Q 1050 4450 1550 4450 
Q 2200 4450 2487 4062 
Q 2775 3675 2775 3225 
L 2200 3225 
Q 2225 3500 2050 3725 
Q 1875 3950 1550 3950 
Q 1250 3950 1075 3787 
Q 900 3625 900 3350 
Q 900 3125 1037 2962 
Q 1175 2800 1750 2575 
Q 2300 2350 2600 2037 
Q 2900 1725 2900 1325 
z
" transform="scale(0.015625)"/>
     <path id="SimHei-6d" d="M 3050 125 
L 2550 125 
L 2550 2150 
Q 2550 2300 2500 2400 
Q 2450 2500 2300 2500 
Q 2125 2500 1975 2312 
Q 1825 2125 1825 1825 
L 1825 125 
L 1325 125 
L 1325 2150 
Q 1325 2300 1275 2400 
Q 1225 2500 1075 2500 
Q 900 2500 750 2312 
Q 600 2125 600 1825 
L 600 125 
L 100 125 
L 100 2925 
L 600 2925 
L 600 2550 
Q 725 2750 900 2862 
Q 1075 2975 1275 2975 
Q 1475 2975 1612 2862 
Q 1750 2750 1800 2550 
Q 1925 2750 2087 2862 
Q 2250 2975 2450 2975 
Q 2750 2975 2900 2812 
Q 3050 2650 3050 2350 
L 3050 125 
z
" transform="scale(0.015625)"/>
     <path id="SimHei-68" d="M 2800 125 
L 2300 125 
L 2300 1925 
Q 2300 2225 2150 2400 
Q 2000 2575 1750 2575 
Q 1425 2575 1137 2237 
Q 850 1900 850 1400 
L 850 125 
L 350 125 
L 350 4400 
L 850 4400 
L 850 2400 
Q 1050 2675 1287 2825 
Q 1525 2975 1900 2975 
Q 2350 2975 2575 2725 
Q 2800 2475 2800 2100 
L 2800 125 
z
" transform="scale(0.015625)"/>
     <path id="SimHei-67" d="M 2975 2500 
Q 2800 2550 2637 2562 
Q 2475 2575 2300 2525 
Q 2375 2450 2425 2337 
Q 2475 2225 2475 2000 
Q 2475 1575 2187 1300 
Q 1900 1025 1475 1025 
Q 1375 1025 1212 1062 
Q 1050 1100 950 1150 
Q 875 1100 850 1050 
Q 825 1000 825 925 
Q 825 800 1000 737 
Q 1175 675 1625 675 
Q 2350 675 2612 475 
Q 2875 275 2875 -25 
Q 2875 -425 2487 -612 
Q 2100 -800 1575 -800 
Q 900 -800 575 -625 
Q 250 -450 250 -150 
Q 250 0 375 150 
Q 500 300 700 400 
Q 550 475 462 587 
Q 375 700 375 875 
Q 375 1025 487 1137 
Q 600 1250 750 1325 
Q 625 1450 550 1625 
Q 475 1800 475 2000 
Q 475 2425 762 2700 
Q 1050 2975 1475 2975 
Q 1700 2975 1862 2912 
Q 2025 2850 2150 2725 
Q 2350 2875 2550 2937 
Q 2750 3000 2975 2975 
L 2975 2500 
z
M 1975 2000 
Q 1975 2250 1850 2400 
Q 1725 2550 1475 2550 
Q 1225 2550 1100 2400 
Q 975 2250 975 2000 
Q 975 1750 1100 1600 
Q 1225 1450 1475 1450 
Q 1725 1450 1850 1600 
Q 1975 1750 1975 2000 
z
M 2400 -75 
Q 2400 25 2287 125 
Q 2175 225 1725 225 
Q 1625 225 1450 237 
Q 1275 250 1050 275 
Q 850 200 775 100 
Q 700 0 700 -100 
Q 700 -250 900 -350 
Q 1100 -450 1600 -450 
Q 2025 -450 2212 -337 
Q 2400 -225 2400 -75 
z
" transform="scale(0.015625)"/>
    </defs>
    <use xlink:href="#SimHei-62df"/>
    <use xlink:href="#SimHei-5408" x="100"/>
    <use xlink:href="#SimHei-51fd" x="200"/>
    <use xlink:href="#SimHei-6570" x="300"/>
    <use xlink:href="#SimHei-3a" x="400"/>
    <use xlink:href="#SimHei-20" x="450"/>
    <use xlink:href="#SimHei-45" x="500"/>
    <use xlink:href="#SimHei-78" x="550"/>
    <use xlink:href="#SimHei-70" x="600"/>
    <use xlink:href="#SimHei-6f" x="650"/>
    <use xlink:href="#SimHei-6e" x="700"/>
    <use xlink:href="#SimHei-65" x="750"/>
    <use xlink:href="#SimHei-6e" x="800"/>
    <use xlink:href="#SimHei-74" x="850"/>
    <use xlink:href="#SimHei-69" x="900"/>
    <use xlink:href="#SimHei-61" x="950"/>
    <use xlink:href="#SimHei-6c" x="1000"/>
    <use xlink:href="#SimHei-20" x="1050"/>
    <use xlink:href="#SimHei-53" x="1100"/>
    <use xlink:href="#SimHei-6d" x="1150"/>
    <use xlink:href="#SimHei-6f" x="1200"/>
    <use xlink:href="#SimHei-6f" x="1250"/>
    <use xlink:href="#SimHei-74" x="1300"/>
    <use xlink:href="#SimHei-68" x="1350"/>
    <use xlink:href="#SimHei-69" x="1400"/>
    <use xlink:href="#SimHei-6e" x="1450"/>
    <use xlink:href="#SimHei-67" x="1500"/>
   </g>
   <!-- 交叉验证得分: -1.529086931657196 -->
   <g transform="translate(264 463.85625) scale(0.12 -0.12)">
    <defs>
     <path id="SimHei-4ea4" d="M 2325 2600 
Q 2775 1575 3200 1150 
Q 3875 1825 4225 2725 
Q 4425 2575 4725 2400 
Q 4125 1450 3550 825 
Q 4400 175 6000 25 
Q 5750 -325 5700 -550 
Q 4100 -250 3150 525 
Q 2075 -275 650 -600 
Q 575 -300 375 -50 
Q 1900 125 2775 850 
Q 2200 1525 1850 2350 
Q 2150 2475 2325 2600 
z
M 1250 3725 
Q 875 3725 525 3700 
L 525 4200 
L 1225 4150 
L 5125 4150 
Q 5525 4175 5950 4200 
L 5950 3675 
Q 5525 3700 5125 3725 
L 1250 3725 
z
M 2525 3300 
Q 2175 2975 1025 2000 
Q 825 2250 550 2400 
Q 1025 2650 1412 3025 
Q 1800 3400 2000 3675 
Q 2250 3500 2525 3300 
z
M 4325 3675 
Q 4450 3575 4900 3237 
Q 5350 2900 5775 2600 
Q 5500 2400 5300 2175 
Q 5075 2475 3900 3300 
Q 4100 3500 4325 3675 
z
M 3250 5300 
Q 3500 4725 3625 4375 
Q 3275 4275 3025 4200 
Q 2875 4625 2650 5125 
Q 2950 5225 3250 5300 
z
" transform="scale(0.015625)"/>
     <path id="SimHei-53c9" d="M 5325 4700 
Q 5075 3675 4650 2712 
Q 4225 1750 3575 975 
Q 4025 600 4775 350 
Q 5525 100 6150 25 
Q 5825 -225 5750 -600 
Q 4775 -300 4175 -12 
Q 3575 275 3150 650 
Q 2525 175 1962 -112 
Q 1400 -400 550 -675 
Q 450 -425 200 -175 
Q 850 -25 1525 262 
Q 2200 550 2775 1000 
Q 2350 1500 1987 2275 
Q 1625 3050 1275 4250 
L 575 4225 
L 575 4725 
Q 1200 4700 2025 4700 
L 5325 4700 
z
M 1825 4250 
Q 2125 3175 2500 2450 
Q 2875 1725 3200 1350 
Q 3650 1875 4012 2612 
Q 4375 3350 4600 4250 
L 1825 4250 
z
M 3025 3850 
Q 3400 3325 3675 2775 
Q 3425 2675 3175 2500 
Q 2950 3050 2550 3600 
Q 2750 3675 3025 3850 
z
" transform="scale(0.015625)"/>
     <path id="SimHei-9a8c" d="M 2300 4725 
Q 2250 4500 2225 4075 
L 2050 2125 
L 2525 2125 
Q 2500 1925 2475 1450 
L 2375 75 
Q 2375 -450 2075 -525 
Q 1775 -600 1250 -675 
Q 1175 -325 1050 -100 
Q 1575 -100 1737 -87 
Q 1900 -75 1950 150 
L 2025 1700 
L 550 1700 
Q 575 2175 587 2737 
Q 600 3300 600 3800 
L 1100 3800 
Q 1050 3525 1025 3087 
Q 1000 2650 1000 2125 
L 1625 2125 
L 1800 4325 
L 1125 4325 
Q 725 4325 350 4300 
L 350 4750 
Q 725 4725 1125 4725 
L 2300 4725 
z
M 4325 4875 
Q 4725 4125 5150 3775 
Q 5575 3425 6150 3225 
Q 5925 3025 5800 2725 
Q 5450 2925 5125 3200 
L 5125 2775 
Q 4800 2800 4200 2800 
Q 3600 2800 3225 2775 
L 3225 3175 
Q 3075 2975 2800 2650 
Q 2575 2875 2325 3000 
Q 2725 3275 2937 3550 
Q 3150 3825 3312 4125 
Q 3475 4425 3587 4675 
Q 3700 4925 3775 5225 
Q 4100 5150 4450 5075 
L 4325 4875 
z
M 5600 2150 
Q 5475 2000 5400 1737 
Q 5325 1475 5162 912 
Q 5000 350 4900 25 
L 5250 25 
Q 5425 25 5800 50 
L 5800 -400 
Q 5475 -375 5250 -375 
L 3325 -375 
Q 2875 -375 2675 -400 
L 2675 50 
Q 2975 25 3350 25 
L 4475 25 
Q 4675 575 4800 1150 
L 5050 2300 
Q 5250 2225 5600 2150 
z
M 5100 3225 
Q 4800 3450 4550 3775 
Q 4300 4100 4050 4600 
Q 3850 4200 3687 3912 
Q 3525 3625 3250 3225 
L 5100 3225 
z
M 3250 2175 
Q 3350 1825 3462 1375 
Q 3575 925 3675 550 
Q 3450 525 3250 425 
Q 3175 900 3087 1225 
Q 3000 1550 2850 2050 
Q 3050 2125 3250 2175 
z
M 1775 1125 
Q 1750 950 1725 700 
Q 1350 625 1112 575 
Q 875 525 375 375 
Q 300 650 200 925 
Q 550 950 925 1000 
Q 1300 1050 1775 1125 
z
M 4300 1650 
Q 4350 1325 4425 825 
L 4025 725 
Q 3925 1275 3875 1562 
Q 3825 1850 3750 2225 
Q 3975 2275 4200 2300 
L 4300 1650 
z
" transform="scale(0.015625)"/>
     <path id="SimHei-8bc1" d="M 5125 4675 
Q 5625 4675 6050 4700 
L 6050 4225 
Q 5625 4250 5125 4250 
L 4500 4250 
L 4500 2625 
L 5075 2625 
Q 5500 2625 5900 2650 
L 5900 2175 
Q 5525 2200 5075 2200 
L 4500 2200 
L 4500 125 
L 5200 125 
Q 5625 125 6175 150 
L 6175 -325 
Q 5625 -300 5200 -300 
L 3000 -300 
Q 2400 -300 2000 -325 
L 2000 150 
Q 2400 125 2775 125 
L 2775 2075 
Q 2775 2600 2750 2950 
L 3275 2950 
Q 3250 2625 3250 2075 
L 3250 125 
L 4000 125 
L 4000 4250 
L 3550 4250 
Q 2975 4250 2450 4225 
L 2450 4700 
Q 2975 4675 3550 4675 
L 5125 4675 
z
M 850 -125 
Q 1150 175 1150 500 
L 1150 2750 
L 925 2750 
Q 575 2750 225 2725 
L 225 3200 
Q 550 3175 925 3175 
L 1650 3175 
Q 1625 2700 1625 2175 
L 1625 800 
Q 1850 1075 2025 1325 
Q 2150 1050 2325 825 
Q 2050 500 1812 212 
Q 1575 -75 1225 -525 
Q 1050 -300 850 -125 
z
M 1525 3900 
Q 1100 4500 800 4825 
Q 1000 4975 1175 5175 
L 1925 4275 
Q 1675 4100 1525 3900 
z
" transform="scale(0.015625)"/>
     <path id="SimHei-5f97" d="M 5575 4975 
Q 5550 4625 5550 3950 
Q 5550 3300 5575 2900 
L 2675 2900 
Q 2700 3300 2700 3950 
Q 2700 4600 2675 4975 
L 5575 4975 
z
M 1950 1625 
Q 2400 1600 2950 1600 
L 4775 1600 
L 4775 2100 
L 3125 2100 
Q 2700 2100 2325 2075 
L 2325 2500 
Q 2700 2475 3125 2475 
L 5000 2475 
Q 5525 2475 5900 2500 
L 5900 2075 
Q 5575 2100 5225 2100 
L 5225 1600 
Q 5675 1600 6075 1625 
L 6075 1175 
Q 5700 1200 5225 1200 
L 5225 250 
Q 5250 -275 4950 -400 
Q 4650 -525 4175 -600 
Q 4125 -350 3975 -25 
Q 4550 -25 4675 62 
Q 4800 150 4775 425 
L 4775 1200 
L 2950 1200 
Q 2400 1200 1950 1175 
L 1950 1625 
z
M 1150 -550 
Q 1175 125 1175 575 
L 1175 2075 
Q 950 1825 625 1500 
Q 475 1750 275 1925 
Q 775 2300 1150 2775 
Q 1525 3250 1800 3775 
Q 2000 3600 2275 3450 
Q 2050 3150 1625 2575 
L 1625 575 
Q 1625 125 1650 -550 
L 1150 -550 
z
M 2150 4875 
Q 1450 4000 825 3375 
Q 675 3575 475 3750 
Q 1175 4325 1700 5200 
Q 1900 5025 2150 4875 
z
M 5100 3300 
L 5100 3775 
L 3150 3775 
L 3150 3300 
L 5100 3300 
z
M 5100 4150 
L 5100 4600 
L 3150 4600 
L 3150 4150 
L 5100 4150 
z
M 2950 1050 
Q 3325 525 3550 175 
Q 3375 75 3100 -125 
Q 2950 275 2575 750 
Q 2800 900 2950 1050 
z
" transform="scale(0.015625)"/>
     <path id="SimHei-5206" d="M 1000 -650 
Q 825 -375 575 -225 
Q 975 -75 1300 137 
Q 1625 350 1875 662 
Q 2125 975 2250 1350 
Q 2375 1725 2425 2275 
Q 1850 2275 1500 2250 
L 1500 2775 
Q 1900 2750 2525 2750 
L 5025 2750 
Q 4975 2375 4950 2100 
L 4750 250 
Q 4700 -200 4350 -350 
Q 4000 -500 3575 -525 
Q 3550 -275 3325 50 
Q 3850 25 4037 87 
Q 4225 150 4275 525 
L 4450 2275 
L 2950 2275 
Q 2875 1625 2737 1187 
Q 2600 750 2350 425 
Q 2100 100 1750 -175 
Q 1400 -450 1000 -650 
z
M 3950 5175 
Q 4125 4650 4662 3975 
Q 5200 3300 6175 2800 
Q 5975 2625 5775 2275 
Q 5325 2600 4987 2887 
Q 4650 3175 4425 3425 
Q 4200 3675 3925 4137 
Q 3650 4600 3475 5000 
Q 3750 5075 3950 5175 
z
M 2700 4825 
Q 2475 4425 2325 4125 
Q 2175 3825 2025 3587 
Q 1875 3350 1575 2950 
Q 1275 2550 850 2125 
Q 625 2350 400 2475 
Q 900 2925 1187 3300 
Q 1475 3675 1737 4112 
Q 2000 4550 2200 5075 
Q 2400 4925 2700 4825 
z
" transform="scale(0.015625)"/>
     <path id="SimHei-2e" d="M 1075 125 
L 500 125 
L 500 675 
L 1075 675 
L 1075 125 
z
" transform="scale(0.015625)"/>
     <path id="SimHei-39" d="M 800 75 
Q 1350 1000 1700 1750 
Q 1075 1650 662 1912 
Q 250 2175 162 2625 
Q 75 3075 175 3437 
Q 275 3800 487 4037 
Q 700 4275 1000 4375 
Q 1300 4475 1537 4475 
Q 1775 4475 2025 4375 
Q 2275 4275 2475 4075 
Q 2675 3875 2750 3662 
Q 2825 3450 2825 3112 
Q 2825 2775 2575 2250 
Q 2325 1725 1350 75 
L 800 75 
z
M 662 2875 
Q 700 2550 937 2337 
Q 1175 2125 1450 2150 
Q 1725 2175 1887 2300 
Q 2050 2425 2200 2725 
Q 2300 3100 2250 3362 
Q 2200 3625 1987 3800 
Q 1775 3975 1525 3975 
Q 1375 4000 1137 3900 
Q 900 3800 762 3500 
Q 625 3200 662 2875 
z
" transform="scale(0.015625)"/>
     <path id="SimHei-38" d="M 175 1375 
Q 175 1675 325 1962 
Q 475 2250 825 2425 
Q 525 2600 425 2812 
Q 325 3025 312 3300 
Q 300 3575 387 3775 
Q 475 3975 650 4150 
Q 825 4325 1037 4387 
Q 1250 4450 1500 4450 
Q 1750 4450 1950 4400 
Q 2150 4350 2375 4187 
Q 2600 4025 2700 3725 
Q 2800 3425 2687 3025 
Q 2575 2625 2100 2400 
Q 2525 2275 2700 2012 
Q 2875 1750 2875 1375 
Q 2875 1000 2762 775 
Q 2650 550 2512 400 
Q 2375 250 2137 162 
Q 1900 75 1537 75 
Q 1175 75 912 162 
Q 650 250 475 425 
Q 300 600 237 837 
Q 175 1075 175 1375 
z
M 687 1400 
Q 675 1100 787 875 
Q 900 650 1200 587 
Q 1500 525 1825 600 
Q 2150 675 2275 950 
Q 2400 1225 2362 1500 
Q 2325 1775 2050 1962 
Q 1775 2150 1450 2125 
Q 1125 2100 912 1900 
Q 700 1700 687 1400 
z
M 775 3350 
Q 775 3100 950 2875 
Q 1125 2650 1500 2650 
Q 1875 2650 2062 2875 
Q 2250 3100 2237 3412 
Q 2225 3725 2012 3875 
Q 1800 4025 1437 4000 
Q 1075 3975 925 3787 
Q 775 3600 775 3350 
z
" transform="scale(0.015625)"/>
    </defs>
    <use xlink:href="#SimHei-4ea4"/>
    <use xlink:href="#SimHei-53c9" x="100"/>
    <use xlink:href="#SimHei-9a8c" x="200"/>
    <use xlink:href="#SimHei-8bc1" x="300"/>
    <use xlink:href="#SimHei-5f97" x="400"/>
    <use xlink:href="#SimHei-5206" x="500"/>
    <use xlink:href="#SimHei-3a" x="600"/>
    <use xlink:href="#SimHei-20" x="650"/>
    <use xlink:href="#SimHei-2d" x="700"/>
    <use xlink:href="#SimHei-31" x="750"/>
    <use xlink:href="#SimHei-2e" x="800"/>
    <use xlink:href="#SimHei-35" x="850"/>
    <use xlink:href="#SimHei-32" x="900"/>
    <use xlink:href="#SimHei-39" x="950"/>
    <use xlink:href="#SimHei-30" x="1000"/>
    <use xlink:href="#SimHei-38" x="1050"/>
    <use xlink:href="#SimHei-36" x="1100"/>
    <use xlink:href="#SimHei-39" x="1150"/>
    <use xlink:href="#SimHei-33" x="1200"/>
    <use xlink:href="#SimHei-31" x="1250"/>
    <use xlink:href="#SimHei-36" x="1300"/>
    <use xlink:href="#SimHei-35" x="1350"/>
    <use xlink:href="#SimHei-37" x="1400"/>
    <use xlink:href="#SimHei-31" x="1450"/>
    <use xlink:href="#SimHei-39" x="1500"/>
    <use xlink:href="#SimHei-36" x="1550"/>
   </g>
   <!-- 残差均值: 0.19, 残差标准差: 7.55 -->
   <g transform="translate(264 477.16875) scale(0.12 -0.12)">
    <defs>
     <path id="SimHei-6b8b" d="M 5700 3350 
Q 5325 3300 4900 3225 
Q 4475 3150 4075 3075 
Q 4100 2700 4150 2325 
Q 4625 2425 4987 2500 
Q 5350 2575 5925 2725 
L 6000 2250 
Q 5775 2225 5300 2137 
Q 4825 2050 4200 1900 
Q 4300 1375 4475 1075 
Q 5025 1500 5325 1950 
Q 5525 1750 5800 1550 
Q 5550 1425 5350 1237 
Q 5150 1050 4675 650 
Q 5000 200 5275 37 
Q 5550 -125 5600 -12 
Q 5650 100 5625 525 
Q 5825 325 6175 300 
Q 6125 -850 5450 -587 
Q 4775 -325 4275 400 
Q 3950 150 3537 -75 
Q 3125 -300 2625 -525 
Q 2475 -250 2250 -100 
Q 2775 50 3200 262 
Q 3625 475 4075 775 
Q 3850 1225 3750 1800 
Q 3100 1675 2700 1525 
L 2575 2025 
Q 3300 2125 3700 2225 
Q 3650 2600 3625 3000 
Q 3225 2950 2800 2850 
L 2675 3325 
Q 3150 3375 3600 3450 
Q 3575 3925 3550 4275 
Q 3525 4625 3475 5125 
Q 3775 5075 4050 5075 
Q 4025 4700 4012 4412 
Q 4000 4125 4050 3525 
Q 5200 3725 5625 3850 
L 5700 3350 
z
M 2125 4650 
Q 2450 4650 2800 4675 
L 2800 4175 
Q 2450 4200 2125 4200 
L 1675 4200 
Q 1550 3700 1425 3225 
L 2600 3225 
Q 2525 2500 2400 1925 
Q 2275 1350 2050 925 
Q 1825 500 1512 137 
Q 1200 -225 675 -625 
Q 525 -400 250 -225 
Q 700 25 1037 375 
Q 1375 725 1575 1075 
Q 1275 1450 950 1750 
Q 1125 1900 1250 2100 
Q 1550 1825 1800 1550 
Q 2025 2175 2075 2775 
L 1300 2775 
Q 1125 2375 987 2150 
Q 850 1925 550 1525 
Q 350 1825 200 1925 
Q 575 2300 825 2862 
Q 1075 3425 1200 4200 
Q 775 4200 375 4175 
L 375 4675 
Q 750 4650 1075 4650 
L 2125 4650 
z
M 4825 4975 
Q 5150 4575 5425 4175 
Q 5125 4050 4975 3900 
Q 4750 4325 4400 4700 
Q 4600 4825 4825 4975 
z
" transform="scale(0.015625)"/>
     <path id="SimHei-5dee" d="M 4725 4975 
Q 4500 4725 4250 4275 
L 4850 4275 
Q 5450 4275 5825 4300 
L 5825 3850 
Q 5425 3875 4850 3875 
L 3275 3875 
Q 3225 3600 3150 3275 
L 4525 3275 
Q 5075 3275 5525 3300 
L 5525 2850 
Q 5075 2875 4500 2875 
L 3050 2875 
Q 2975 2650 2850 2325 
L 5125 2325 
Q 5675 2325 6025 2350 
L 6025 1900 
Q 5700 1925 5150 1925 
L 2650 1925 
Q 2425 1550 2250 1300 
Q 2650 1275 3100 1275 
L 4525 1275 
Q 4975 1275 5350 1300 
L 5350 850 
Q 4975 875 4575 875 
L 3925 875 
L 3925 -50 
L 5000 -50 
Q 5200 -50 5900 -25 
L 5900 -500 
Q 5275 -475 5025 -475 
L 2100 -475 
Q 1700 -475 1400 -500 
L 1400 -25 
Q 1775 -50 2125 -50 
L 3425 -50 
L 3425 875 
L 3100 875 
Q 2625 875 2175 850 
L 2175 1200 
Q 1925 875 1487 475 
Q 1050 75 625 -250 
Q 425 -25 200 150 
Q 750 475 1262 925 
Q 1775 1375 2100 1925 
L 1325 1925 
Q 750 1925 375 1900 
L 375 2350 
Q 750 2325 1350 2325 
L 2325 2325 
Q 2450 2575 2550 2875 
L 1725 2875 
Q 1375 2875 1000 2850 
L 1000 3300 
Q 1500 3275 1700 3275 
L 2650 3275 
Q 2725 3575 2775 3875 
L 1500 3875 
Q 1100 3875 650 3850 
L 650 4300 
Q 1025 4275 1425 4275 
L 2275 4275 
Q 2075 4675 1850 4950 
Q 2025 5050 2250 5225 
Q 2450 4975 2725 4550 
Q 2525 4450 2325 4275 
L 3750 4275 
Q 4000 4700 4150 5250 
Q 4400 5100 4725 4975 
z
" transform="scale(0.015625)"/>
     <path id="SimHei-5747" d="M 5775 275 
Q 5775 -325 5362 -450 
Q 4950 -575 4425 -600 
Q 4375 -275 4250 25 
Q 4950 -25 5125 62 
Q 5300 150 5300 500 
L 5375 3700 
L 3550 3700 
Q 3425 3375 3262 3037 
Q 3100 2700 2925 2400 
Q 2675 2550 2475 2625 
Q 3150 3625 3500 5200 
Q 3800 5100 4075 5025 
Q 3975 4875 3875 4650 
Q 3775 4425 3675 4125 
L 5900 4125 
L 5775 275 
z
M 1250 3625 
L 1250 4375 
Q 1250 4775 1225 5100 
L 1775 5100 
Q 1750 4725 1750 4375 
L 1750 3625 
L 1900 3625 
Q 2200 3625 2525 3650 
L 2525 3150 
Q 2200 3175 1900 3175 
L 1750 3175 
L 1750 1100 
L 2500 1375 
Q 2475 1125 2525 900 
Q 1225 475 962 362 
Q 700 250 475 150 
Q 375 475 250 750 
Q 575 800 800 850 
Q 1025 900 1250 975 
L 1250 3175 
L 1125 3175 
Q 850 3175 400 3150 
L 400 3650 
Q 850 3625 1100 3625 
L 1250 3625 
z
M 4950 1625 
Q 4675 1425 4137 1050 
Q 3600 675 3175 300 
Q 3000 575 2850 775 
Q 3350 1050 3762 1325 
Q 4175 1600 4775 2075 
Q 4825 1850 4950 1625 
z
M 3775 3150 
Q 4125 2800 4475 2300 
Q 4250 2125 4100 1975 
Q 3900 2325 3450 2825 
Q 3600 3000 3775 3150 
z
" transform="scale(0.015625)"/>
     <path id="SimHei-503c" d="M 3675 4450 
L 3675 5100 
Q 3975 5075 4350 5050 
Q 4225 4875 4200 4450 
L 5125 4450 
Q 5550 4450 5875 4475 
L 5875 4025 
Q 5525 4050 5125 4050 
L 4175 4050 
L 4125 3500 
L 5400 3500 
Q 5375 3200 5375 2700 
L 5375 150 
Q 5875 150 6100 175 
L 6100 -275 
Q 5775 -250 5200 -250 
L 2850 -250 
Q 2275 -250 1900 -275 
L 1900 175 
Q 2125 150 2600 150 
L 2600 2700 
Q 2600 3175 2575 3500 
L 3600 3500 
L 3650 4050 
L 3200 4050 
Q 2575 4050 2225 4025 
L 2225 4475 
Q 2550 4450 3200 4450 
L 3675 4450 
z
M 2225 4900 
Q 2025 4675 1650 3750 
L 1650 450 
Q 1650 -75 1675 -550 
L 1150 -550 
Q 1175 -125 1175 375 
L 1175 2950 
Q 875 2450 625 2150 
Q 425 2425 250 2575 
Q 500 2825 937 3537 
Q 1375 4250 1625 5150 
Q 1975 4975 2225 4900 
z
M 4925 2650 
L 4925 3150 
L 3075 3150 
L 3075 2650 
L 4925 2650 
z
M 4925 150 
L 4925 625 
L 3075 625 
L 3075 150 
L 4925 150 
z
M 4925 1000 
L 4925 1450 
L 3075 1450 
L 3075 1000 
L 4925 1000 
z
M 4925 1825 
L 4925 2275 
L 3075 2275 
L 3075 1825 
L 4925 1825 
z
" transform="scale(0.015625)"/>
     <path id="SimHei-2c" d="M 1100 125 
L 775 -550 
L 525 -550 
L 775 125 
L 525 125 
L 525 675 
L 1100 675 
L 1100 125 
z
" transform="scale(0.015625)"/>
     <path id="SimHei-6807" d="M 1275 4400 
Q 1275 4800 1250 5175 
L 1750 5175 
Q 1725 4825 1725 4400 
L 1725 3800 
Q 2125 3800 2575 3825 
L 2575 3350 
Q 2125 3375 1725 3375 
L 1725 2525 
Q 1900 2650 2075 2800 
Q 2400 2275 2650 1775 
Q 2375 1650 2175 1500 
Q 2025 2000 1725 2425 
L 1725 475 
Q 1725 -50 1750 -575 
L 1250 -575 
Q 1275 -25 1275 475 
L 1275 2100 
Q 1025 1400 500 750 
Q 350 950 125 1125 
Q 550 1550 812 2187 
Q 1075 2825 1150 3375 
Q 675 3375 325 3325 
L 325 3825 
Q 800 3800 1275 3800 
L 1275 4400 
z
M 5175 3125 
Q 5675 3125 6050 3150 
L 6050 2675 
Q 5675 2700 5275 2700 
L 4500 2700 
L 4500 175 
Q 4500 -225 4275 -350 
Q 4050 -475 3475 -550 
Q 3425 -250 3275 25 
Q 3775 25 3900 62 
Q 4025 100 4025 350 
L 4025 2700 
L 3400 2700 
Q 2775 2700 2500 2650 
L 2500 3150 
Q 2825 3125 3400 3125 
L 5175 3125 
z
M 4900 4775 
Q 5425 4775 5750 4800 
L 5750 4300 
Q 5275 4350 4750 4350 
L 3525 4350 
Q 3125 4350 2750 4300 
L 2750 4800 
Q 3100 4775 3525 4775 
L 4900 4775 
z
M 5275 2025 
Q 5825 1175 6200 500 
Q 5925 375 5650 200 
Q 5375 925 4825 1725 
Q 5075 1850 5275 2025 
z
M 3600 1775 
Q 3500 1625 3225 975 
Q 2950 325 2800 50 
Q 2575 175 2300 275 
Q 2625 775 2787 1187 
Q 2950 1600 3050 2000 
Q 3325 1875 3600 1775 
z
" transform="scale(0.015625)"/>
     <path id="SimHei-51c6" d="M 1600 2775 
Q 1900 3050 2275 3787 
Q 2650 4525 2800 5175 
Q 3075 5050 3400 4950 
Q 3250 4775 3000 4100 
L 4825 4100 
Q 5400 4100 5875 4125 
L 5875 3675 
Q 5375 3700 4825 3700 
L 4525 3700 
L 4525 2850 
Q 5250 2850 5700 2875 
L 5700 2425 
Q 5250 2450 4525 2450 
L 4525 1600 
Q 5275 1600 5700 1625 
L 5700 1200 
Q 5275 1225 4525 1225 
L 4525 375 
Q 5575 375 6050 400 
L 6050 -100 
Q 5575 -75 4975 -75 
L 2950 -75 
L 2950 -600 
L 2425 -600 
Q 2450 -150 2450 675 
L 2450 3050 
Q 2300 2775 2075 2400 
Q 1875 2650 1600 2775 
z
M 1675 2050 
Q 1425 1425 1200 850 
Q 975 275 775 -125 
Q 550 50 275 200 
Q 550 650 775 1112 
Q 1000 1575 1225 2300 
Q 1400 2125 1675 2050 
z
M 4025 1600 
L 4025 2450 
L 2950 2450 
L 2950 1600 
L 4025 1600 
z
M 4025 2850 
L 4025 3700 
L 2950 3700 
L 2950 2850 
L 4025 2850 
z
M 4025 375 
L 4025 1225 
L 2950 1225 
L 2950 375 
L 4025 375 
z
M 725 4775 
Q 850 4625 1162 4312 
Q 1475 4000 1750 3700 
Q 1525 3475 1375 3300 
Q 1100 3700 350 4450 
Q 550 4600 725 4775 
z
M 4150 5225 
Q 4600 4800 4800 4500 
Q 4625 4400 4400 4200 
Q 4225 4500 3775 4925 
Q 3925 5000 4150 5225 
z
" transform="scale(0.015625)"/>
    </defs>
    <use xlink:href="#SimHei-6b8b"/>
    <use xlink:href="#SimHei-5dee" x="100"/>
    <use xlink:href="#SimHei-5747" x="200"/>
    <use xlink:href="#SimHei-503c" x="300"/>
    <use xlink:href="#SimHei-3a" x="400"/>
    <use xlink:href="#SimHei-20" x="450"/>
    <use xlink:href="#SimHei-30" x="500"/>
    <use xlink:href="#SimHei-2e" x="550"/>
    <use xlink:href="#SimHei-31" x="600"/>
    <use xlink:href="#SimHei-39" x="650"/>
    <use xlink:href="#SimHei-2c" x="700"/>
    <use xlink:href="#SimHei-20" x="750"/>
    <use xlink:href="#SimHei-6b8b" x="800"/>
    <use xlink:href="#SimHei-5dee" x="900"/>
    <use xlink:href="#SimHei-6807" x="1000"/>
    <use xlink:href="#SimHei-51c6" x="1100"/>
    <use xlink:href="#SimHei-5dee" x="1200"/>
    <use xlink:href="#SimHei-3a" x="1300"/>
    <use xlink:href="#SimHei-20" x="1350"/>
    <use xlink:href="#SimHei-37" x="1400"/>
    <use xlink:href="#SimHei-2e" x="1450"/>
    <use xlink:href="#SimHei-35" x="1500"/>
    <use xlink:href="#SimHei-35" x="1550"/>
   </g>
  </g>
 </g>
 <defs>
  <clipPath id="p19e9ce8bea">
   <rect x="90" y="51.84" width="558" height="332.64"/>
  </clipPath>
 </defs>
</svg>
