<?xml version="1.0" encoding="utf-8" standalone="no"?>
<!DOCTYPE svg PUBLIC "-//W3C//DTD SVG 1.1//EN"
  "http://www.w3.org/Graphics/SVG/1.1/DTD/svg11.dtd">
<svg xmlns:xlink="http://www.w3.org/1999/xlink" width="720pt" height="432pt" viewBox="0 0 720 432" xmlns="http://www.w3.org/2000/svg" version="1.1">
 <metadata>
  <rdf:RDF xmlns:dc="http://purl.org/dc/elements/1.1/" xmlns:cc="http://creativecommons.org/ns#" xmlns:rdf="http://www.w3.org/1999/02/22-rdf-syntax-ns#">
   <cc:Work>
    <dc:type rdf:resource="http://purl.org/dc/dcmitype/StillImage"/>
    <dc:date>2024-08-17T14:06:55.718979</dc:date>
    <dc:format>image/svg+xml</dc:format>
    <dc:creator>
     <cc:Agent>
      <dc:title>Matplotlib v3.8.0, https://matplotlib.org/</dc:title>
     </cc:Agent>
    </dc:creator>
   </cc:Work>
  </rdf:RDF>
 </metadata>
 <defs>
  <style type="text/css">*{stroke-linejoin: round; stroke-linecap: butt}</style>
 </defs>
 <g id="figure_1">
  <g id="patch_1">
   <path d="M 0 432 
L 720 432 
L 720 0 
L 0 0 
z
" style="fill: #ffffff"/>
  </g>
  <g id="axes_1">
   <g id="patch_2">
    <path d="M 90 384.48 
L 648 384.48 
L 648 51.84 
L 90 51.84 
z
" style="fill: #ffffff"/>
   </g>
   <g id="matplotlib.axis_1">
    <g id="xtick_1">
     <g id="line2d_1">
      <path d="M 112.464935 384.48 
L 112.464935 51.84 
" clip-path="url(#p478a6b9381)" style="fill: none; stroke: #b0b0b0; stroke-width: 0.8; stroke-linecap: square"/>
     </g>
     <g id="line2d_2">
      <defs>
       <path id="m5714ddb746" d="M 0 0 
L 0 3.5 
" style="stroke: #000000; stroke-width: 0.8"/>
      </defs>
      <g>
       <use xlink:href="#m5714ddb746" x="112.464935" y="384.48" style="stroke: #000000; stroke-width: 0.8"/>
      </g>
     </g>
     <g id="text_1">
      <!-- 0 -->
      <g transform="translate(109.964935 398.355) scale(0.1 -0.1)">
       <defs>
        <path id="SimHei-30" d="M 225 2537 
Q 250 3200 412 3587 
Q 575 3975 875 4225 
Q 1175 4475 1612 4475 
Q 2050 4475 2375 4112 
Q 2700 3750 2800 3200 
Q 2900 2650 2862 1937 
Q 2825 1225 2612 775 
Q 2400 325 1975 150 
Q 1550 -25 1125 187 
Q 700 400 525 750 
Q 350 1100 275 1487 
Q 200 1875 225 2537 
z
M 750 2687 
Q 675 2000 800 1462 
Q 925 925 1212 700 
Q 1500 475 1800 612 
Q 2100 750 2237 1162 
Q 2375 1575 2375 2062 
Q 2375 2550 2337 2950 
Q 2300 3350 2112 3675 
Q 1925 4000 1612 4012 
Q 1300 4025 1062 3700 
Q 825 3375 750 2687 
z
" transform="scale(0.015625)"/>
       </defs>
       <use xlink:href="#SimHei-30"/>
      </g>
     </g>
    </g>
    <g id="xtick_2">
     <g id="line2d_3">
      <path d="M 184.932468 384.48 
L 184.932468 51.84 
" clip-path="url(#p478a6b9381)" style="fill: none; stroke: #b0b0b0; stroke-width: 0.8; stroke-linecap: square"/>
     </g>
     <g id="line2d_4">
      <g>
       <use xlink:href="#m5714ddb746" x="184.932468" y="384.48" style="stroke: #000000; stroke-width: 0.8"/>
      </g>
     </g>
     <g id="text_2">
      <!-- 25 -->
      <g transform="translate(179.932468 398.355) scale(0.1 -0.1)">
       <defs>
        <path id="SimHei-32" d="M 300 250 
Q 325 625 650 925 
Q 975 1225 1475 1862 
Q 1975 2500 2125 2850 
Q 2275 3200 2237 3450 
Q 2200 3700 2000 3862 
Q 1800 4025 1537 4000 
Q 1275 3975 1037 3800 
Q 800 3625 675 3275 
L 200 3350 
Q 400 3925 712 4187 
Q 1025 4450 1450 4475 
Q 1700 4500 1900 4462 
Q 2100 4425 2312 4287 
Q 2525 4150 2662 3875 
Q 2800 3600 2762 3212 
Q 2725 2825 2375 2287 
Q 2025 1750 1025 600 
L 2825 600 
L 2825 150 
L 300 150 
L 300 250 
z
" transform="scale(0.015625)"/>
        <path id="SimHei-35" d="M 550 1325 
Q 725 650 1150 575 
Q 1575 500 1837 662 
Q 2100 825 2212 1087 
Q 2325 1350 2312 1675 
Q 2300 2000 2137 2225 
Q 1975 2450 1725 2525 
Q 1475 2600 1162 2525 
Q 850 2450 650 2175 
L 225 2225 
Q 275 2375 700 4375 
L 2675 4375 
L 2675 3925 
L 1075 3925 
Q 950 3250 825 2850 
Q 1200 3025 1525 3012 
Q 1850 3000 2150 2862 
Q 2450 2725 2587 2487 
Q 2725 2250 2787 2012 
Q 2850 1775 2837 1500 
Q 2825 1225 2725 937 
Q 2625 650 2425 462 
Q 2225 275 1937 162 
Q 1650 50 1275 75 
Q 900 100 562 350 
Q 225 600 100 1200 
L 550 1325 
z
" transform="scale(0.015625)"/>
       </defs>
       <use xlink:href="#SimHei-32"/>
       <use xlink:href="#SimHei-35" x="50"/>
      </g>
     </g>
    </g>
    <g id="xtick_3">
     <g id="line2d_5">
      <path d="M 257.4 384.48 
L 257.4 51.84 
" clip-path="url(#p478a6b9381)" style="fill: none; stroke: #b0b0b0; stroke-width: 0.8; stroke-linecap: square"/>
     </g>
     <g id="line2d_6">
      <g>
       <use xlink:href="#m5714ddb746" x="257.4" y="384.48" style="stroke: #000000; stroke-width: 0.8"/>
      </g>
     </g>
     <g id="text_3">
      <!-- 50 -->
      <g transform="translate(252.4 398.355) scale(0.1 -0.1)">
       <use xlink:href="#SimHei-35"/>
       <use xlink:href="#SimHei-30" x="50"/>
      </g>
     </g>
    </g>
    <g id="xtick_4">
     <g id="line2d_7">
      <path d="M 329.867532 384.48 
L 329.867532 51.84 
" clip-path="url(#p478a6b9381)" style="fill: none; stroke: #b0b0b0; stroke-width: 0.8; stroke-linecap: square"/>
     </g>
     <g id="line2d_8">
      <g>
       <use xlink:href="#m5714ddb746" x="329.867532" y="384.48" style="stroke: #000000; stroke-width: 0.8"/>
      </g>
     </g>
     <g id="text_4">
      <!-- 75 -->
      <g transform="translate(324.867532 398.355) scale(0.1 -0.1)">
       <defs>
        <path id="SimHei-37" d="M 850 150 
Q 1300 2050 2425 3925 
L 275 3925 
L 275 4375 
L 2950 4375 
L 2950 3950 
Q 1775 2050 1400 150 
L 850 150 
z
" transform="scale(0.015625)"/>
       </defs>
       <use xlink:href="#SimHei-37"/>
       <use xlink:href="#SimHei-35" x="50"/>
      </g>
     </g>
    </g>
    <g id="xtick_5">
     <g id="line2d_9">
      <path d="M 402.335065 384.48 
L 402.335065 51.84 
" clip-path="url(#p478a6b9381)" style="fill: none; stroke: #b0b0b0; stroke-width: 0.8; stroke-linecap: square"/>
     </g>
     <g id="line2d_10">
      <g>
       <use xlink:href="#m5714ddb746" x="402.335065" y="384.48" style="stroke: #000000; stroke-width: 0.8"/>
      </g>
     </g>
     <g id="text_5">
      <!-- 100 -->
      <g transform="translate(394.835065 398.355) scale(0.1 -0.1)">
       <defs>
        <path id="SimHei-31" d="M 1400 3600 
Q 1075 3275 575 2975 
L 575 3450 
Q 1200 3875 1600 4450 
L 1900 4450 
L 1900 150 
L 1400 150 
L 1400 3600 
z
" transform="scale(0.015625)"/>
       </defs>
       <use xlink:href="#SimHei-31"/>
       <use xlink:href="#SimHei-30" x="50"/>
       <use xlink:href="#SimHei-30" x="100"/>
      </g>
     </g>
    </g>
    <g id="xtick_6">
     <g id="line2d_11">
      <path d="M 474.802597 384.48 
L 474.802597 51.84 
" clip-path="url(#p478a6b9381)" style="fill: none; stroke: #b0b0b0; stroke-width: 0.8; stroke-linecap: square"/>
     </g>
     <g id="line2d_12">
      <g>
       <use xlink:href="#m5714ddb746" x="474.802597" y="384.48" style="stroke: #000000; stroke-width: 0.8"/>
      </g>
     </g>
     <g id="text_6">
      <!-- 125 -->
      <g transform="translate(467.302597 398.355) scale(0.1 -0.1)">
       <use xlink:href="#SimHei-31"/>
       <use xlink:href="#SimHei-32" x="50"/>
       <use xlink:href="#SimHei-35" x="100"/>
      </g>
     </g>
    </g>
    <g id="xtick_7">
     <g id="line2d_13">
      <path d="M 547.27013 384.48 
L 547.27013 51.84 
" clip-path="url(#p478a6b9381)" style="fill: none; stroke: #b0b0b0; stroke-width: 0.8; stroke-linecap: square"/>
     </g>
     <g id="line2d_14">
      <g>
       <use xlink:href="#m5714ddb746" x="547.27013" y="384.48" style="stroke: #000000; stroke-width: 0.8"/>
      </g>
     </g>
     <g id="text_7">
      <!-- 150 -->
      <g transform="translate(539.77013 398.355) scale(0.1 -0.1)">
       <use xlink:href="#SimHei-31"/>
       <use xlink:href="#SimHei-35" x="50"/>
       <use xlink:href="#SimHei-30" x="100"/>
      </g>
     </g>
    </g>
    <g id="xtick_8">
     <g id="line2d_15">
      <path d="M 619.737662 384.48 
L 619.737662 51.84 
" clip-path="url(#p478a6b9381)" style="fill: none; stroke: #b0b0b0; stroke-width: 0.8; stroke-linecap: square"/>
     </g>
     <g id="line2d_16">
      <g>
       <use xlink:href="#m5714ddb746" x="619.737662" y="384.48" style="stroke: #000000; stroke-width: 0.8"/>
      </g>
     </g>
     <g id="text_8">
      <!-- 175 -->
      <g transform="translate(612.237662 398.355) scale(0.1 -0.1)">
       <use xlink:href="#SimHei-31"/>
       <use xlink:href="#SimHei-37" x="50"/>
       <use xlink:href="#SimHei-35" x="100"/>
      </g>
     </g>
    </g>
    <g id="text_9">
     <!-- 周数 -->
     <g transform="translate(359 411.339375) scale(0.1 -0.1)">
      <defs>
       <path id="SimHei-5468" d="M 5600 4925 
Q 5575 4400 5575 3800 
L 5575 50 
Q 5550 -375 5325 -462 
Q 5100 -550 4325 -600 
Q 4300 -400 4125 -75 
Q 4800 -100 4962 -37 
Q 5125 25 5100 225 
L 5100 4525 
L 1500 4525 
Q 1500 2575 1450 1887 
Q 1400 1200 1237 550 
Q 1075 -100 775 -625 
Q 625 -450 275 -225 
Q 650 225 825 1000 
Q 1000 1775 1025 2587 
Q 1050 3400 1000 4925 
L 5600 4925 
z
M 2050 325 
Q 2075 625 2075 950 
L 2075 1400 
Q 2075 1625 2050 1925 
L 4400 1925 
Q 4375 1725 4375 1450 
L 4375 875 
Q 4375 600 4400 325 
L 2050 325 
z
M 3000 3800 
Q 3000 4150 2975 4375 
L 3475 4375 
Q 3450 4075 3450 3800 
Q 4100 3800 4475 3825 
L 4475 3350 
Q 4125 3375 3450 3375 
L 3450 2800 
Q 4200 2800 4825 2825 
L 4825 2350 
Q 4175 2375 3725 2375 
L 2750 2375 
Q 2325 2375 1725 2350 
L 1725 2825 
Q 2325 2800 3000 2800 
L 3000 3375 
Q 2500 3375 1975 3350 
L 1975 3825 
Q 2475 3800 3000 3800 
z
M 3900 725 
L 3900 1525 
L 2550 1525 
L 2550 725 
L 3900 725 
z
" transform="scale(0.015625)"/>
       <path id="SimHei-6570" d="M 4525 4925 
Q 4475 4800 4400 4587 
Q 4325 4375 4175 3825 
L 5325 3825 
Q 5575 3825 5925 3850 
L 5925 3400 
Q 5650 3425 5500 3425 
Q 5500 3025 5362 2162 
Q 5225 1300 4875 675 
Q 5125 375 5437 137 
Q 5750 -100 6025 -200 
Q 5725 -425 5625 -625 
Q 5325 -450 5075 -225 
Q 4825 0 4575 325 
Q 4300 25 3987 -187 
Q 3675 -400 3200 -650 
Q 3075 -425 2850 -300 
Q 3225 -150 3650 125 
Q 4075 400 4300 675 
Q 4125 1025 3962 1425 
Q 3800 1825 3675 2475 
Q 3600 2275 3425 1950 
Q 3250 2050 3000 2150 
Q 3400 2850 3650 3675 
Q 3900 4500 3975 5100 
Q 4275 4975 4525 4925 
z
M 2100 2250 
Q 2000 2150 1875 1925 
L 3250 1925 
Q 3100 1300 2725 675 
Q 3125 525 3350 400 
Q 3225 225 3125 25 
Q 2900 175 2450 325 
Q 1950 -225 725 -650 
Q 600 -375 400 -275 
Q 1575 0 2000 475 
Q 1300 650 850 775 
Q 1000 1000 1250 1525 
Q 1000 1525 425 1500 
L 425 1950 
Q 900 1925 1400 1925 
Q 1500 2150 1550 2425 
Q 1825 2325 2100 2250 
z
M 1775 3950 
Q 1775 4550 1750 5100 
L 2250 5100 
Q 2225 4575 2225 3950 
Q 3075 3950 3425 3975 
L 3425 3525 
Q 3075 3550 2225 3550 
Q 2225 2825 2250 2425 
L 1750 2425 
Q 1775 2775 1775 3300 
Q 1650 3100 1300 2787 
Q 950 2475 650 2300 
Q 525 2525 275 2625 
Q 500 2700 875 2975 
Q 1250 3250 1450 3550 
Q 950 3550 500 3525 
L 500 3975 
Q 925 3950 1775 3950 
z
M 3975 3175 
Q 4200 1700 4600 1125 
Q 4850 1700 4937 2287 
Q 5025 2875 5050 3425 
L 4075 3425 
L 3975 3175 
z
M 1450 1000 
Q 1750 925 2275 800 
Q 2475 1050 2650 1525 
L 1725 1525 
Q 1600 1275 1450 1000 
z
M 3325 4825 
Q 3200 4625 3125 4450 
Q 3050 4275 2925 4025 
Q 2725 4125 2525 4175 
Q 2725 4500 2900 5000 
Q 3150 4875 3325 4825 
z
M 2575 3375 
Q 2900 3050 3200 2725 
Q 3050 2600 2875 2425 
Q 2525 2850 2300 3100 
Q 2450 3225 2575 3375 
z
M 925 5000 
Q 1275 4650 1500 4300 
L 1125 4075 
Q 950 4425 600 4725 
Q 825 4875 925 5000 
z
" transform="scale(0.015625)"/>
      </defs>
      <use xlink:href="#SimHei-5468"/>
      <use xlink:href="#SimHei-6570" x="100"/>
     </g>
    </g>
   </g>
   <g id="matplotlib.axis_2">
    <g id="ytick_1">
     <g id="line2d_17">
      <path d="M 90 363.687097 
L 648 363.687097 
" clip-path="url(#p478a6b9381)" style="fill: none; stroke: #b0b0b0; stroke-width: 0.8; stroke-linecap: square"/>
     </g>
     <g id="line2d_18">
      <defs>
       <path id="md9293e6a67" d="M 0 0 
L -3.5 0 
" style="stroke: #000000; stroke-width: 0.8"/>
      </defs>
      <g>
       <use xlink:href="#md9293e6a67" x="90" y="363.687097" style="stroke: #000000; stroke-width: 0.8"/>
      </g>
     </g>
     <g id="text_10">
      <!-- 1300 -->
      <g transform="translate(63 367.124597) scale(0.1 -0.1)">
       <defs>
        <path id="SimHei-33" d="M 250 1225 
L 700 1300 
Q 800 975 1025 762 
Q 1250 550 1587 562 
Q 1925 575 2125 837 
Q 2325 1100 2300 1437 
Q 2275 1775 2037 1962 
Q 1800 2150 1275 2225 
L 1275 2550 
Q 1800 2600 2037 2825 
Q 2275 3050 2250 3412 
Q 2225 3775 1925 3937 
Q 1625 4100 1287 3975 
Q 950 3850 750 3275 
L 300 3350 
Q 450 3800 712 4100 
Q 975 4400 1425 4450 
Q 1875 4500 2212 4337 
Q 2550 4175 2687 3837 
Q 2825 3500 2725 3100 
Q 2625 2700 2150 2400 
Q 2500 2250 2687 1950 
Q 2875 1650 2812 1162 
Q 2750 675 2375 375 
Q 2000 75 1525 87 
Q 1050 100 700 387 
Q 350 675 250 1225 
z
" transform="scale(0.015625)"/>
       </defs>
       <use xlink:href="#SimHei-31"/>
       <use xlink:href="#SimHei-33" x="50"/>
       <use xlink:href="#SimHei-30" x="100"/>
       <use xlink:href="#SimHei-30" x="150"/>
      </g>
     </g>
    </g>
    <g id="ytick_2">
     <g id="line2d_19">
      <path d="M 90 318.011548 
L 648 318.011548 
" clip-path="url(#p478a6b9381)" style="fill: none; stroke: #b0b0b0; stroke-width: 0.8; stroke-linecap: square"/>
     </g>
     <g id="line2d_20">
      <g>
       <use xlink:href="#md9293e6a67" x="90" y="318.011548" style="stroke: #000000; stroke-width: 0.8"/>
      </g>
     </g>
     <g id="text_11">
      <!-- 1325 -->
      <g transform="translate(63 321.449048) scale(0.1 -0.1)">
       <use xlink:href="#SimHei-31"/>
       <use xlink:href="#SimHei-33" x="50"/>
       <use xlink:href="#SimHei-32" x="100"/>
       <use xlink:href="#SimHei-35" x="150"/>
      </g>
     </g>
    </g>
    <g id="ytick_3">
     <g id="line2d_21">
      <path d="M 90 272.336 
L 648 272.336 
" clip-path="url(#p478a6b9381)" style="fill: none; stroke: #b0b0b0; stroke-width: 0.8; stroke-linecap: square"/>
     </g>
     <g id="line2d_22">
      <g>
       <use xlink:href="#md9293e6a67" x="90" y="272.336" style="stroke: #000000; stroke-width: 0.8"/>
      </g>
     </g>
     <g id="text_12">
      <!-- 1350 -->
      <g transform="translate(63 275.7735) scale(0.1 -0.1)">
       <use xlink:href="#SimHei-31"/>
       <use xlink:href="#SimHei-33" x="50"/>
       <use xlink:href="#SimHei-35" x="100"/>
       <use xlink:href="#SimHei-30" x="150"/>
      </g>
     </g>
    </g>
    <g id="ytick_4">
     <g id="line2d_23">
      <path d="M 90 226.660451 
L 648 226.660451 
" clip-path="url(#p478a6b9381)" style="fill: none; stroke: #b0b0b0; stroke-width: 0.8; stroke-linecap: square"/>
     </g>
     <g id="line2d_24">
      <g>
       <use xlink:href="#md9293e6a67" x="90" y="226.660451" style="stroke: #000000; stroke-width: 0.8"/>
      </g>
     </g>
     <g id="text_13">
      <!-- 1375 -->
      <g transform="translate(63 230.097951) scale(0.1 -0.1)">
       <use xlink:href="#SimHei-31"/>
       <use xlink:href="#SimHei-33" x="50"/>
       <use xlink:href="#SimHei-37" x="100"/>
       <use xlink:href="#SimHei-35" x="150"/>
      </g>
     </g>
    </g>
    <g id="ytick_5">
     <g id="line2d_25">
      <path d="M 90 180.984903 
L 648 180.984903 
" clip-path="url(#p478a6b9381)" style="fill: none; stroke: #b0b0b0; stroke-width: 0.8; stroke-linecap: square"/>
     </g>
     <g id="line2d_26">
      <g>
       <use xlink:href="#md9293e6a67" x="90" y="180.984903" style="stroke: #000000; stroke-width: 0.8"/>
      </g>
     </g>
     <g id="text_14">
      <!-- 1400 -->
      <g transform="translate(63 184.422403) scale(0.1 -0.1)">
       <defs>
        <path id="SimHei-34" d="M 2000 1100 
L 75 1100 
L 75 1525 
L 2100 4450 
L 2475 4450 
L 2475 1525 
L 3075 1525 
L 3075 1100 
L 2475 1100 
L 2475 150 
L 2000 150 
L 2000 1100 
z
M 2000 1525 
L 2000 3500 
L 600 1525 
L 2000 1525 
z
" transform="scale(0.015625)"/>
       </defs>
       <use xlink:href="#SimHei-31"/>
       <use xlink:href="#SimHei-34" x="50"/>
       <use xlink:href="#SimHei-30" x="100"/>
       <use xlink:href="#SimHei-30" x="150"/>
      </g>
     </g>
    </g>
    <g id="ytick_6">
     <g id="line2d_27">
      <path d="M 90 135.309354 
L 648 135.309354 
" clip-path="url(#p478a6b9381)" style="fill: none; stroke: #b0b0b0; stroke-width: 0.8; stroke-linecap: square"/>
     </g>
     <g id="line2d_28">
      <g>
       <use xlink:href="#md9293e6a67" x="90" y="135.309354" style="stroke: #000000; stroke-width: 0.8"/>
      </g>
     </g>
     <g id="text_15">
      <!-- 1425 -->
      <g transform="translate(63 138.746854) scale(0.1 -0.1)">
       <use xlink:href="#SimHei-31"/>
       <use xlink:href="#SimHei-34" x="50"/>
       <use xlink:href="#SimHei-32" x="100"/>
       <use xlink:href="#SimHei-35" x="150"/>
      </g>
     </g>
    </g>
    <g id="ytick_7">
     <g id="line2d_29">
      <path d="M 90 89.633805 
L 648 89.633805 
" clip-path="url(#p478a6b9381)" style="fill: none; stroke: #b0b0b0; stroke-width: 0.8; stroke-linecap: square"/>
     </g>
     <g id="line2d_30">
      <g>
       <use xlink:href="#md9293e6a67" x="90" y="89.633805" style="stroke: #000000; stroke-width: 0.8"/>
      </g>
     </g>
     <g id="text_16">
      <!-- 1450 -->
      <g transform="translate(63 93.071305) scale(0.1 -0.1)">
       <use xlink:href="#SimHei-31"/>
       <use xlink:href="#SimHei-34" x="50"/>
       <use xlink:href="#SimHei-35" x="100"/>
       <use xlink:href="#SimHei-30" x="150"/>
      </g>
     </g>
    </g>
    <g id="text_17">
     <!-- 平均价格 -->
     <g transform="translate(57.75 238.16) rotate(-90) scale(0.1 -0.1)">
      <defs>
       <path id="SimHei-5e73" d="M 4525 4825 
Q 4900 4825 5450 4850 
L 5450 4375 
Q 4925 4400 4525 4400 
L 3475 4400 
L 3475 2025 
L 5000 2025 
Q 5550 2025 6025 2050 
L 6025 1575 
Q 5550 1600 5000 1600 
L 3475 1600 
L 3475 450 
Q 3475 -100 3500 -600 
L 2925 -600 
Q 2950 -100 2950 450 
L 2950 1600 
L 1125 1600 
Q 775 1600 375 1575 
L 375 2050 
Q 775 2025 1175 2025 
L 2950 2025 
L 2950 4400 
L 1775 4400 
Q 1400 4400 875 4375 
L 875 4850 
Q 1400 4825 1750 4825 
L 4525 4825 
z
M 3925 2600 
Q 4500 3300 4900 4125 
Q 5150 3950 5400 3825 
Q 4775 2850 4350 2300 
Q 4150 2475 3925 2600 
z
M 1975 2350 
Q 1600 3100 1050 3725 
Q 1250 3875 1450 4050 
Q 2075 3300 2450 2725 
Q 2150 2500 1975 2350 
z
" transform="scale(0.015625)"/>
       <path id="SimHei-5747" d="M 5775 275 
Q 5775 -325 5362 -450 
Q 4950 -575 4425 -600 
Q 4375 -275 4250 25 
Q 4950 -25 5125 62 
Q 5300 150 5300 500 
L 5375 3700 
L 3550 3700 
Q 3425 3375 3262 3037 
Q 3100 2700 2925 2400 
Q 2675 2550 2475 2625 
Q 3150 3625 3500 5200 
Q 3800 5100 4075 5025 
Q 3975 4875 3875 4650 
Q 3775 4425 3675 4125 
L 5900 4125 
L 5775 275 
z
M 1250 3625 
L 1250 4375 
Q 1250 4775 1225 5100 
L 1775 5100 
Q 1750 4725 1750 4375 
L 1750 3625 
L 1900 3625 
Q 2200 3625 2525 3650 
L 2525 3150 
Q 2200 3175 1900 3175 
L 1750 3175 
L 1750 1100 
L 2500 1375 
Q 2475 1125 2525 900 
Q 1225 475 962 362 
Q 700 250 475 150 
Q 375 475 250 750 
Q 575 800 800 850 
Q 1025 900 1250 975 
L 1250 3175 
L 1125 3175 
Q 850 3175 400 3150 
L 400 3650 
Q 850 3625 1100 3625 
L 1250 3625 
z
M 4950 1625 
Q 4675 1425 4137 1050 
Q 3600 675 3175 300 
Q 3000 575 2850 775 
Q 3350 1050 3762 1325 
Q 4175 1600 4775 2075 
Q 4825 1850 4950 1625 
z
M 3775 3150 
Q 4125 2800 4475 2300 
Q 4250 2125 4100 1975 
Q 3900 2325 3450 2825 
Q 3600 3000 3775 3150 
z
" transform="scale(0.015625)"/>
       <path id="SimHei-4ef7" d="M 2200 4975 
Q 2050 4725 1650 3775 
L 1650 450 
Q 1650 -225 1675 -650 
L 1175 -650 
Q 1175 -225 1200 450 
L 1200 2975 
Q 900 2425 650 2100 
Q 525 2275 225 2450 
Q 750 3025 1125 3800 
Q 1500 4575 1625 5175 
Q 1950 5025 2200 4975 
z
M 4175 4700 
Q 4850 3525 6150 2950 
Q 5925 2750 5775 2500 
Q 4725 3100 3950 4300 
Q 3300 3125 2250 2350 
Q 2125 2525 1900 2725 
Q 2825 3325 3250 4050 
Q 3675 4775 3750 5150 
Q 4150 4950 4325 4900 
L 4175 4700 
z
M 3475 2650 
Q 3400 2075 3325 1087 
Q 3250 100 2325 -675 
Q 2175 -450 1925 -300 
Q 2850 350 2912 1262 
Q 2975 2175 2950 2700 
Q 3275 2650 3475 2650 
z
M 5075 2700 
Q 5050 2150 5050 1725 
L 5050 150 
Q 5050 -225 5075 -650 
L 4550 -650 
Q 4575 -225 4575 175 
L 4575 1875 
Q 4575 2150 4550 2700 
L 5075 2700 
z
" transform="scale(0.015625)"/>
       <path id="SimHei-683c" d="M 4075 4875 
Q 3975 4750 3750 4350 
L 5625 4350 
Q 5450 3850 5212 3437 
Q 4975 3025 4650 2650 
Q 4950 2450 5412 2287 
Q 5875 2125 6150 2100 
Q 5975 1900 5875 1600 
Q 5550 1725 5125 1912 
Q 4700 2100 4300 2400 
Q 3925 2125 3537 1937 
Q 3150 1750 2575 1550 
Q 2475 1775 2300 1925 
Q 2825 2050 3262 2250 
Q 3700 2450 3975 2675 
Q 3625 3050 3325 3575 
Q 3175 3350 2875 2950 
Q 2700 3100 2475 3200 
Q 2825 3550 3112 4075 
Q 3400 4600 3550 5100 
Q 3775 4950 4075 4875 
z
M 5575 1650 
Q 5550 1350 5550 575 
Q 5550 -200 5575 -575 
L 5050 -575 
L 5050 -175 
L 3500 -175 
L 3500 -600 
L 2975 -600 
Q 3000 -200 3000 550 
Q 3000 1325 2975 1650 
L 5575 1650 
z
M 1850 5100 
Q 1825 4775 1825 4475 
L 1825 3825 
Q 2300 3825 2525 3850 
L 2525 3400 
Q 2300 3425 1825 3425 
L 1825 2725 
Q 1950 2800 2125 2950 
Q 2350 2600 2550 2200 
Q 2350 2075 2175 1950 
Q 1975 2375 1825 2625 
L 1825 275 
Q 1825 -275 1850 -625 
L 1350 -625 
Q 1375 -275 1375 275 
L 1375 2425 
Q 1150 1850 625 850 
Q 475 1025 250 1150 
Q 650 1775 900 2375 
Q 1150 2975 1250 3425 
Q 900 3425 475 3400 
L 475 3850 
Q 925 3825 1375 3825 
L 1375 4475 
Q 1375 4750 1350 5100 
L 1850 5100 
z
M 5050 200 
L 5050 1275 
L 3500 1275 
L 3500 200 
L 5050 200 
z
M 4300 2925 
Q 4675 3300 4975 3975 
L 3550 3975 
Q 3850 3350 4300 2925 
z
" transform="scale(0.015625)"/>
      </defs>
      <use xlink:href="#SimHei-5e73"/>
      <use xlink:href="#SimHei-5747" x="100"/>
      <use xlink:href="#SimHei-4ef7" x="200"/>
      <use xlink:href="#SimHei-683c" x="300"/>
     </g>
    </g>
   </g>
   <g id="line2d_31">
    <path d="M 115.363636 364.655418 
L 118.262338 364.655418 
L 121.161039 364.655418 
L 153.046753 66.96 
L 158.844156 66.96 
L 161.742857 364.655418 
L 170.438961 66.96 
L 173.337662 364.655418 
L 179.135065 66.96 
L 184.932468 98.29636 
L 193.628571 66.96 
L 199.425974 66.96 
L 202.324675 66.96 
L 211.020779 66.96 
L 213.919481 66.96 
L 222.615584 66.96 
L 225.514286 66.96 
L 231.311688 66.96 
L 242.906494 66.96 
L 251.602597 66.96 
L 254.501299 89.859648 
L 263.197403 66.96 
L 266.096104 66.96 
L 309.576623 66.96 
L 315.374026 66.96 
L 318.272727 66.96 
L 321.171429 66.96 
L 332.766234 89.089933 
L 335.664935 119.955242 
L 338.563636 145.842276 
L 341.462338 145.842276 
L 344.361039 178.953785 
L 350.158442 76.531484 
L 353.057143 148.738835 
L 358.854545 168.838743 
L 364.651948 163.825756 
L 367.550649 160.143667 
L 370.449351 176.779555 
L 373.348052 176.779555 
L 376.246753 191.787533 
L 379.145455 194.096453 
L 382.044156 202.77762 
L 384.942857 193.744285 
L 387.841558 200.323198 
L 390.74026 199.271302 
L 396.537662 166.682202 
L 399.436364 206.981761 
L 402.335065 233.292441 
L 405.233766 233.292441 
L 408.132468 208.372352 
L 413.92987 233.292441 
L 416.828571 234.974132 
L 419.727273 66.96 
L 422.625974 237.063541 
L 425.524675 233.628779 
L 437.119481 233.292441 
L 440.018182 254.394326 
L 442.916883 252.14794 
L 451.612987 281.505658 
L 454.511688 304.366309 
L 457.41039 293.000033 
L 460.309091 301.903916 
L 463.207792 311.863789 
L 469.005195 317.325735 
L 471.903896 314.128897 
L 477.701299 306.951686 
L 480.6 305.598549 
L 483.498701 301.261149 
L 486.397403 300.538249 
L 489.296104 344.33113 
L 492.194805 344.33113 
L 497.992208 344.33113 
L 500.890909 339.465254 
L 506.688312 344.33113 
L 509.587013 322.434689 
L 512.485714 359.730409 
L 515.384416 359.730409 
L 518.283117 359.730409 
L 521.181818 252.14794 
L 524.080519 359.730409 
L 526.979221 359.730409 
L 529.877922 359.730409 
L 532.776623 359.730409 
L 535.675325 300.538249 
L 538.574026 341.799997 
L 541.472727 311.636779 
L 544.371429 305.598549 
L 553.067532 331.831136 
L 555.966234 360.421764 
L 558.864935 363.28265 
L 561.763636 357.784561 
L 567.561039 367.855484 
L 576.257143 323.189633 
L 584.953247 368.400813 
L 587.851948 369.36 
L 593.649351 369.040271 
L 596.548052 368.857569 
L 599.446753 368.400813 
L 602.345455 363.586877 
L 605.244156 368.400813 
L 608.142857 369.36 
L 613.94026 369.076812 
L 616.838961 369.105829 
L 619.737662 368.802758 
L 622.636364 367.586069 
" clip-path="url(#p478a6b9381)" style="fill: none; stroke: #ff0000; stroke-width: 1.5; stroke-linecap: square"/>
    <defs>
     <path id="md469608ede" d="M 0 3 
C 0.795609 3 1.55874 2.683901 2.12132 2.12132 
C 2.683901 1.55874 3 0.795609 3 0 
C 3 -0.795609 2.683901 -1.55874 2.12132 -2.12132 
C 1.55874 -2.683901 0.795609 -3 0 -3 
C -0.795609 -3 -1.55874 -2.683901 -2.12132 -2.12132 
C -2.683901 -1.55874 -3 -0.795609 -3 0 
C -3 0.795609 -2.683901 1.55874 -2.12132 2.12132 
C -1.55874 2.683901 -0.795609 3 0 3 
z
" style="stroke: #ff0000"/>
    </defs>
    <g clip-path="url(#p478a6b9381)">
     <use xlink:href="#md469608ede" x="115.363636" y="364.655418" style="fill: #ff0000; stroke: #ff0000"/>
     <use xlink:href="#md469608ede" x="118.262338" y="364.655418" style="fill: #ff0000; stroke: #ff0000"/>
     <use xlink:href="#md469608ede" x="121.161039" y="364.655418" style="fill: #ff0000; stroke: #ff0000"/>
     <use xlink:href="#md469608ede" x="153.046753" y="66.96" style="fill: #ff0000; stroke: #ff0000"/>
     <use xlink:href="#md469608ede" x="158.844156" y="66.96" style="fill: #ff0000; stroke: #ff0000"/>
     <use xlink:href="#md469608ede" x="161.742857" y="364.655418" style="fill: #ff0000; stroke: #ff0000"/>
     <use xlink:href="#md469608ede" x="170.438961" y="66.96" style="fill: #ff0000; stroke: #ff0000"/>
     <use xlink:href="#md469608ede" x="173.337662" y="364.655418" style="fill: #ff0000; stroke: #ff0000"/>
     <use xlink:href="#md469608ede" x="179.135065" y="66.96" style="fill: #ff0000; stroke: #ff0000"/>
     <use xlink:href="#md469608ede" x="184.932468" y="98.29636" style="fill: #ff0000; stroke: #ff0000"/>
     <use xlink:href="#md469608ede" x="193.628571" y="66.96" style="fill: #ff0000; stroke: #ff0000"/>
     <use xlink:href="#md469608ede" x="199.425974" y="66.96" style="fill: #ff0000; stroke: #ff0000"/>
     <use xlink:href="#md469608ede" x="202.324675" y="66.96" style="fill: #ff0000; stroke: #ff0000"/>
     <use xlink:href="#md469608ede" x="211.020779" y="66.96" style="fill: #ff0000; stroke: #ff0000"/>
     <use xlink:href="#md469608ede" x="213.919481" y="66.96" style="fill: #ff0000; stroke: #ff0000"/>
     <use xlink:href="#md469608ede" x="222.615584" y="66.96" style="fill: #ff0000; stroke: #ff0000"/>
     <use xlink:href="#md469608ede" x="225.514286" y="66.96" style="fill: #ff0000; stroke: #ff0000"/>
     <use xlink:href="#md469608ede" x="231.311688" y="66.96" style="fill: #ff0000; stroke: #ff0000"/>
     <use xlink:href="#md469608ede" x="242.906494" y="66.96" style="fill: #ff0000; stroke: #ff0000"/>
     <use xlink:href="#md469608ede" x="251.602597" y="66.96" style="fill: #ff0000; stroke: #ff0000"/>
     <use xlink:href="#md469608ede" x="254.501299" y="89.859648" style="fill: #ff0000; stroke: #ff0000"/>
     <use xlink:href="#md469608ede" x="263.197403" y="66.96" style="fill: #ff0000; stroke: #ff0000"/>
     <use xlink:href="#md469608ede" x="266.096104" y="66.96" style="fill: #ff0000; stroke: #ff0000"/>
     <use xlink:href="#md469608ede" x="309.576623" y="66.96" style="fill: #ff0000; stroke: #ff0000"/>
     <use xlink:href="#md469608ede" x="315.374026" y="66.96" style="fill: #ff0000; stroke: #ff0000"/>
     <use xlink:href="#md469608ede" x="318.272727" y="66.96" style="fill: #ff0000; stroke: #ff0000"/>
     <use xlink:href="#md469608ede" x="321.171429" y="66.96" style="fill: #ff0000; stroke: #ff0000"/>
     <use xlink:href="#md469608ede" x="332.766234" y="89.089933" style="fill: #ff0000; stroke: #ff0000"/>
     <use xlink:href="#md469608ede" x="335.664935" y="119.955242" style="fill: #ff0000; stroke: #ff0000"/>
     <use xlink:href="#md469608ede" x="338.563636" y="145.842276" style="fill: #ff0000; stroke: #ff0000"/>
     <use xlink:href="#md469608ede" x="341.462338" y="145.842276" style="fill: #ff0000; stroke: #ff0000"/>
     <use xlink:href="#md469608ede" x="344.361039" y="178.953785" style="fill: #ff0000; stroke: #ff0000"/>
     <use xlink:href="#md469608ede" x="350.158442" y="76.531484" style="fill: #ff0000; stroke: #ff0000"/>
     <use xlink:href="#md469608ede" x="353.057143" y="148.738835" style="fill: #ff0000; stroke: #ff0000"/>
     <use xlink:href="#md469608ede" x="358.854545" y="168.838743" style="fill: #ff0000; stroke: #ff0000"/>
     <use xlink:href="#md469608ede" x="364.651948" y="163.825756" style="fill: #ff0000; stroke: #ff0000"/>
     <use xlink:href="#md469608ede" x="367.550649" y="160.143667" style="fill: #ff0000; stroke: #ff0000"/>
     <use xlink:href="#md469608ede" x="370.449351" y="176.779555" style="fill: #ff0000; stroke: #ff0000"/>
     <use xlink:href="#md469608ede" x="373.348052" y="176.779555" style="fill: #ff0000; stroke: #ff0000"/>
     <use xlink:href="#md469608ede" x="376.246753" y="191.787533" style="fill: #ff0000; stroke: #ff0000"/>
     <use xlink:href="#md469608ede" x="379.145455" y="194.096453" style="fill: #ff0000; stroke: #ff0000"/>
     <use xlink:href="#md469608ede" x="382.044156" y="202.77762" style="fill: #ff0000; stroke: #ff0000"/>
     <use xlink:href="#md469608ede" x="384.942857" y="193.744285" style="fill: #ff0000; stroke: #ff0000"/>
     <use xlink:href="#md469608ede" x="387.841558" y="200.323198" style="fill: #ff0000; stroke: #ff0000"/>
     <use xlink:href="#md469608ede" x="390.74026" y="199.271302" style="fill: #ff0000; stroke: #ff0000"/>
     <use xlink:href="#md469608ede" x="396.537662" y="166.682202" style="fill: #ff0000; stroke: #ff0000"/>
     <use xlink:href="#md469608ede" x="399.436364" y="206.981761" style="fill: #ff0000; stroke: #ff0000"/>
     <use xlink:href="#md469608ede" x="402.335065" y="233.292441" style="fill: #ff0000; stroke: #ff0000"/>
     <use xlink:href="#md469608ede" x="405.233766" y="233.292441" style="fill: #ff0000; stroke: #ff0000"/>
     <use xlink:href="#md469608ede" x="408.132468" y="208.372352" style="fill: #ff0000; stroke: #ff0000"/>
     <use xlink:href="#md469608ede" x="413.92987" y="233.292441" style="fill: #ff0000; stroke: #ff0000"/>
     <use xlink:href="#md469608ede" x="416.828571" y="234.974132" style="fill: #ff0000; stroke: #ff0000"/>
     <use xlink:href="#md469608ede" x="419.727273" y="66.96" style="fill: #ff0000; stroke: #ff0000"/>
     <use xlink:href="#md469608ede" x="422.625974" y="237.063541" style="fill: #ff0000; stroke: #ff0000"/>
     <use xlink:href="#md469608ede" x="425.524675" y="233.628779" style="fill: #ff0000; stroke: #ff0000"/>
     <use xlink:href="#md469608ede" x="437.119481" y="233.292441" style="fill: #ff0000; stroke: #ff0000"/>
     <use xlink:href="#md469608ede" x="440.018182" y="254.394326" style="fill: #ff0000; stroke: #ff0000"/>
     <use xlink:href="#md469608ede" x="442.916883" y="252.14794" style="fill: #ff0000; stroke: #ff0000"/>
     <use xlink:href="#md469608ede" x="451.612987" y="281.505658" style="fill: #ff0000; stroke: #ff0000"/>
     <use xlink:href="#md469608ede" x="454.511688" y="304.366309" style="fill: #ff0000; stroke: #ff0000"/>
     <use xlink:href="#md469608ede" x="457.41039" y="293.000033" style="fill: #ff0000; stroke: #ff0000"/>
     <use xlink:href="#md469608ede" x="460.309091" y="301.903916" style="fill: #ff0000; stroke: #ff0000"/>
     <use xlink:href="#md469608ede" x="463.207792" y="311.863789" style="fill: #ff0000; stroke: #ff0000"/>
     <use xlink:href="#md469608ede" x="469.005195" y="317.325735" style="fill: #ff0000; stroke: #ff0000"/>
     <use xlink:href="#md469608ede" x="471.903896" y="314.128897" style="fill: #ff0000; stroke: #ff0000"/>
     <use xlink:href="#md469608ede" x="477.701299" y="306.951686" style="fill: #ff0000; stroke: #ff0000"/>
     <use xlink:href="#md469608ede" x="480.6" y="305.598549" style="fill: #ff0000; stroke: #ff0000"/>
     <use xlink:href="#md469608ede" x="483.498701" y="301.261149" style="fill: #ff0000; stroke: #ff0000"/>
     <use xlink:href="#md469608ede" x="486.397403" y="300.538249" style="fill: #ff0000; stroke: #ff0000"/>
     <use xlink:href="#md469608ede" x="489.296104" y="344.33113" style="fill: #ff0000; stroke: #ff0000"/>
     <use xlink:href="#md469608ede" x="492.194805" y="344.33113" style="fill: #ff0000; stroke: #ff0000"/>
     <use xlink:href="#md469608ede" x="497.992208" y="344.33113" style="fill: #ff0000; stroke: #ff0000"/>
     <use xlink:href="#md469608ede" x="500.890909" y="339.465254" style="fill: #ff0000; stroke: #ff0000"/>
     <use xlink:href="#md469608ede" x="506.688312" y="344.33113" style="fill: #ff0000; stroke: #ff0000"/>
     <use xlink:href="#md469608ede" x="509.587013" y="322.434689" style="fill: #ff0000; stroke: #ff0000"/>
     <use xlink:href="#md469608ede" x="512.485714" y="359.730409" style="fill: #ff0000; stroke: #ff0000"/>
     <use xlink:href="#md469608ede" x="515.384416" y="359.730409" style="fill: #ff0000; stroke: #ff0000"/>
     <use xlink:href="#md469608ede" x="518.283117" y="359.730409" style="fill: #ff0000; stroke: #ff0000"/>
     <use xlink:href="#md469608ede" x="521.181818" y="252.14794" style="fill: #ff0000; stroke: #ff0000"/>
     <use xlink:href="#md469608ede" x="524.080519" y="359.730409" style="fill: #ff0000; stroke: #ff0000"/>
     <use xlink:href="#md469608ede" x="526.979221" y="359.730409" style="fill: #ff0000; stroke: #ff0000"/>
     <use xlink:href="#md469608ede" x="529.877922" y="359.730409" style="fill: #ff0000; stroke: #ff0000"/>
     <use xlink:href="#md469608ede" x="532.776623" y="359.730409" style="fill: #ff0000; stroke: #ff0000"/>
     <use xlink:href="#md469608ede" x="535.675325" y="300.538249" style="fill: #ff0000; stroke: #ff0000"/>
     <use xlink:href="#md469608ede" x="538.574026" y="341.799997" style="fill: #ff0000; stroke: #ff0000"/>
     <use xlink:href="#md469608ede" x="541.472727" y="311.636779" style="fill: #ff0000; stroke: #ff0000"/>
     <use xlink:href="#md469608ede" x="544.371429" y="305.598549" style="fill: #ff0000; stroke: #ff0000"/>
     <use xlink:href="#md469608ede" x="553.067532" y="331.831136" style="fill: #ff0000; stroke: #ff0000"/>
     <use xlink:href="#md469608ede" x="555.966234" y="360.421764" style="fill: #ff0000; stroke: #ff0000"/>
     <use xlink:href="#md469608ede" x="558.864935" y="363.28265" style="fill: #ff0000; stroke: #ff0000"/>
     <use xlink:href="#md469608ede" x="561.763636" y="357.784561" style="fill: #ff0000; stroke: #ff0000"/>
     <use xlink:href="#md469608ede" x="567.561039" y="367.855484" style="fill: #ff0000; stroke: #ff0000"/>
     <use xlink:href="#md469608ede" x="576.257143" y="323.189633" style="fill: #ff0000; stroke: #ff0000"/>
     <use xlink:href="#md469608ede" x="584.953247" y="368.400813" style="fill: #ff0000; stroke: #ff0000"/>
     <use xlink:href="#md469608ede" x="587.851948" y="369.36" style="fill: #ff0000; stroke: #ff0000"/>
     <use xlink:href="#md469608ede" x="593.649351" y="369.040271" style="fill: #ff0000; stroke: #ff0000"/>
     <use xlink:href="#md469608ede" x="596.548052" y="368.857569" style="fill: #ff0000; stroke: #ff0000"/>
     <use xlink:href="#md469608ede" x="599.446753" y="368.400813" style="fill: #ff0000; stroke: #ff0000"/>
     <use xlink:href="#md469608ede" x="602.345455" y="363.586877" style="fill: #ff0000; stroke: #ff0000"/>
     <use xlink:href="#md469608ede" x="605.244156" y="368.400813" style="fill: #ff0000; stroke: #ff0000"/>
     <use xlink:href="#md469608ede" x="608.142857" y="369.36" style="fill: #ff0000; stroke: #ff0000"/>
     <use xlink:href="#md469608ede" x="613.94026" y="369.076812" style="fill: #ff0000; stroke: #ff0000"/>
     <use xlink:href="#md469608ede" x="616.838961" y="369.105829" style="fill: #ff0000; stroke: #ff0000"/>
     <use xlink:href="#md469608ede" x="619.737662" y="368.802758" style="fill: #ff0000; stroke: #ff0000"/>
     <use xlink:href="#md469608ede" x="622.636364" y="367.586069" style="fill: #ff0000; stroke: #ff0000"/>
    </g>
   </g>
   <g id="patch_3">
    <path d="M 90 384.48 
L 90 51.84 
" style="fill: none; stroke: #000000; stroke-width: 0.8; stroke-linejoin: miter; stroke-linecap: square"/>
   </g>
   <g id="patch_4">
    <path d="M 648 384.48 
L 648 51.84 
" style="fill: none; stroke: #000000; stroke-width: 0.8; stroke-linejoin: miter; stroke-linecap: square"/>
   </g>
   <g id="patch_5">
    <path d="M 90 384.48 
L 648 384.48 
" style="fill: none; stroke: #000000; stroke-width: 0.8; stroke-linejoin: miter; stroke-linecap: square"/>
   </g>
   <g id="patch_6">
    <path d="M 90 51.84 
L 648 51.84 
" style="fill: none; stroke: #000000; stroke-width: 0.8; stroke-linejoin: miter; stroke-linecap: square"/>
   </g>
   <g id="text_18">
    <!-- 6004010255 每周平均价格 -->
    <g transform="translate(300 45.84) scale(0.12 -0.12)">
     <defs>
      <path id="SimHei-36" d="M 250 1612 
Q 275 1975 387 2225 
Q 500 2475 725 2850 
L 1750 4450 
L 2325 4450 
L 1275 2800 
Q 1950 2975 2350 2750 
Q 2750 2525 2887 2237 
Q 3025 1950 3037 1612 
Q 3050 1275 2937 950 
Q 2825 625 2537 362 
Q 2250 100 1737 75 
Q 1225 50 862 262 
Q 500 475 362 862 
Q 225 1250 250 1612 
z
M 1025 787 
Q 1250 550 1625 525 
Q 2000 500 2250 775 
Q 2500 1050 2500 1575 
Q 2500 2100 2187 2300 
Q 1875 2500 1487 2450 
Q 1100 2400 925 2075 
Q 750 1750 775 1387 
Q 800 1025 1025 787 
z
" transform="scale(0.015625)"/>
      <path id="SimHei-20" transform="scale(0.015625)"/>
      <path id="SimHei-6bcf" d="M 5225 3650 
Q 5175 3150 5150 2675 
L 5125 2200 
Q 5525 2200 6000 2225 
L 6000 1775 
Q 5625 1800 5100 1800 
L 5050 650 
Q 5325 650 5700 675 
L 5700 225 
Q 5400 250 5025 250 
Q 5000 -275 4775 -425 
Q 4550 -575 4000 -650 
Q 3950 -400 3775 -125 
Q 4375 -125 4475 -50 
Q 4575 25 4575 250 
L 1400 250 
L 1500 1100 
L 1550 1800 
L 1275 1800 
Q 825 1800 550 1775 
L 550 2225 
Q 975 2200 1275 2200 
L 1575 2200 
L 1625 2825 
L 1675 3650 
L 5225 3650 
z
M 2350 5000 
Q 2175 4825 2050 4600 
L 4875 4600 
Q 5275 4600 5775 4625 
L 5775 4175 
Q 5275 4200 4875 4200 
L 1825 4200 
L 1375 3625 
Q 1125 3325 775 2975 
Q 600 3175 350 3300 
Q 725 3575 1150 4112 
Q 1575 4650 1825 5250 
Q 2125 5075 2350 5000 
z
M 1975 1800 
L 1875 650 
L 4625 650 
L 4675 1800 
L 2950 1800 
Q 3575 1275 3825 1125 
Q 3625 925 3475 725 
Q 3100 1100 2650 1475 
Q 2775 1675 2875 1800 
L 1975 1800 
z
M 2975 3250 
Q 3125 3150 3287 3012 
Q 3450 2875 3800 2550 
Q 3650 2350 3525 2200 
L 4700 2200 
L 4750 3250 
L 2975 3250 
z
M 2075 3250 
L 2000 2200 
L 3425 2200 
Q 3150 2500 3012 2625 
Q 2875 2750 2700 2900 
Q 2800 3050 2925 3250 
L 2075 3250 
z
" transform="scale(0.015625)"/>
     </defs>
     <use xlink:href="#SimHei-36"/>
     <use xlink:href="#SimHei-30" x="50"/>
     <use xlink:href="#SimHei-30" x="100"/>
     <use xlink:href="#SimHei-34" x="150"/>
     <use xlink:href="#SimHei-30" x="200"/>
     <use xlink:href="#SimHei-31" x="250"/>
     <use xlink:href="#SimHei-30" x="300"/>
     <use xlink:href="#SimHei-32" x="350"/>
     <use xlink:href="#SimHei-35" x="400"/>
     <use xlink:href="#SimHei-35" x="450"/>
     <use xlink:href="#SimHei-20" x="500"/>
     <use xlink:href="#SimHei-6bcf" x="550"/>
     <use xlink:href="#SimHei-5468" x="650"/>
     <use xlink:href="#SimHei-5e73" x="750"/>
     <use xlink:href="#SimHei-5747" x="850"/>
     <use xlink:href="#SimHei-4ef7" x="950"/>
     <use xlink:href="#SimHei-683c" x="1050"/>
    </g>
   </g>
  </g>
 </g>
 <defs>
  <clipPath id="p478a6b9381">
   <rect x="90" y="51.84" width="558" height="332.64"/>
  </clipPath>
 </defs>
</svg>
