<?xml version="1.0" encoding="utf-8" standalone="no"?>
<!DOCTYPE svg PUBLIC "-//W3C//DTD SVG 1.1//EN"
  "http://www.w3.org/Graphics/SVG/1.1/DTD/svg11.dtd">
<svg xmlns:xlink="http://www.w3.org/1999/xlink" width="720pt" height="432pt" viewBox="0 0 720 432" xmlns="http://www.w3.org/2000/svg" version="1.1">
 <metadata>
  <rdf:RDF xmlns:dc="http://purl.org/dc/elements/1.1/" xmlns:cc="http://creativecommons.org/ns#" xmlns:rdf="http://www.w3.org/1999/02/22-rdf-syntax-ns#">
   <cc:Work>
    <dc:type rdf:resource="http://purl.org/dc/dcmitype/StillImage"/>
    <dc:date>2024-08-17T14:08:56.459952</dc:date>
    <dc:format>image/svg+xml</dc:format>
    <dc:creator>
     <cc:Agent>
      <dc:title>Matplotlib v3.8.0, https://matplotlib.org/</dc:title>
     </cc:Agent>
    </dc:creator>
   </cc:Work>
  </rdf:RDF>
 </metadata>
 <defs>
  <style type="text/css">*{stroke-linejoin: round; stroke-linecap: butt}</style>
 </defs>
 <g id="figure_1">
  <g id="patch_1">
   <path d="M 0 432 
L 720 432 
L 720 0 
L 0 0 
z
" style="fill: #ffffff"/>
  </g>
  <g id="axes_1">
   <g id="patch_2">
    <path d="M 90 384.48 
L 648 384.48 
L 648 51.84 
L 90 51.84 
z
" style="fill: #ffffff"/>
   </g>
   <g id="matplotlib.axis_1">
    <g id="xtick_1">
     <g id="line2d_1">
      <path d="M 107.848485 384.48 
L 107.848485 51.84 
" clip-path="url(#p1816ce0e3a)" style="fill: none; stroke: #b0b0b0; stroke-width: 0.8; stroke-linecap: square"/>
     </g>
     <g id="line2d_2">
      <defs>
       <path id="m7ffc5fb5f4" d="M 0 0 
L 0 3.5 
" style="stroke: #000000; stroke-width: 0.8"/>
      </defs>
      <g>
       <use xlink:href="#m7ffc5fb5f4" x="107.848485" y="384.48" style="stroke: #000000; stroke-width: 0.8"/>
      </g>
     </g>
     <g id="text_1">
      <!-- 40 -->
      <g transform="translate(102.848485 398.355) scale(0.1 -0.1)">
       <defs>
        <path id="SimHei-34" d="M 2000 1100 
L 75 1100 
L 75 1525 
L 2100 4450 
L 2475 4450 
L 2475 1525 
L 3075 1525 
L 3075 1100 
L 2475 1100 
L 2475 150 
L 2000 150 
L 2000 1100 
z
M 2000 1525 
L 2000 3500 
L 600 1525 
L 2000 1525 
z
" transform="scale(0.015625)"/>
        <path id="SimHei-30" d="M 225 2537 
Q 250 3200 412 3587 
Q 575 3975 875 4225 
Q 1175 4475 1612 4475 
Q 2050 4475 2375 4112 
Q 2700 3750 2800 3200 
Q 2900 2650 2862 1937 
Q 2825 1225 2612 775 
Q 2400 325 1975 150 
Q 1550 -25 1125 187 
Q 700 400 525 750 
Q 350 1100 275 1487 
Q 200 1875 225 2537 
z
M 750 2687 
Q 675 2000 800 1462 
Q 925 925 1212 700 
Q 1500 475 1800 612 
Q 2100 750 2237 1162 
Q 2375 1575 2375 2062 
Q 2375 2550 2337 2950 
Q 2300 3350 2112 3675 
Q 1925 4000 1612 4012 
Q 1300 4025 1062 3700 
Q 825 3375 750 2687 
z
" transform="scale(0.015625)"/>
       </defs>
       <use xlink:href="#SimHei-34"/>
       <use xlink:href="#SimHei-30" x="50"/>
      </g>
     </g>
    </g>
    <g id="xtick_2">
     <g id="line2d_3">
      <path d="M 183 384.48 
L 183 51.84 
" clip-path="url(#p1816ce0e3a)" style="fill: none; stroke: #b0b0b0; stroke-width: 0.8; stroke-linecap: square"/>
     </g>
     <g id="line2d_4">
      <g>
       <use xlink:href="#m7ffc5fb5f4" x="183" y="384.48" style="stroke: #000000; stroke-width: 0.8"/>
      </g>
     </g>
     <g id="text_2">
      <!-- 60 -->
      <g transform="translate(178 398.355) scale(0.1 -0.1)">
       <defs>
        <path id="SimHei-36" d="M 250 1612 
Q 275 1975 387 2225 
Q 500 2475 725 2850 
L 1750 4450 
L 2325 4450 
L 1275 2800 
Q 1950 2975 2350 2750 
Q 2750 2525 2887 2237 
Q 3025 1950 3037 1612 
Q 3050 1275 2937 950 
Q 2825 625 2537 362 
Q 2250 100 1737 75 
Q 1225 50 862 262 
Q 500 475 362 862 
Q 225 1250 250 1612 
z
M 1025 787 
Q 1250 550 1625 525 
Q 2000 500 2250 775 
Q 2500 1050 2500 1575 
Q 2500 2100 2187 2300 
Q 1875 2500 1487 2450 
Q 1100 2400 925 2075 
Q 750 1750 775 1387 
Q 800 1025 1025 787 
z
" transform="scale(0.015625)"/>
       </defs>
       <use xlink:href="#SimHei-36"/>
       <use xlink:href="#SimHei-30" x="50"/>
      </g>
     </g>
    </g>
    <g id="xtick_3">
     <g id="line2d_5">
      <path d="M 258.151515 384.48 
L 258.151515 51.84 
" clip-path="url(#p1816ce0e3a)" style="fill: none; stroke: #b0b0b0; stroke-width: 0.8; stroke-linecap: square"/>
     </g>
     <g id="line2d_6">
      <g>
       <use xlink:href="#m7ffc5fb5f4" x="258.151515" y="384.48" style="stroke: #000000; stroke-width: 0.8"/>
      </g>
     </g>
     <g id="text_3">
      <!-- 80 -->
      <g transform="translate(253.151515 398.355) scale(0.1 -0.1)">
       <defs>
        <path id="SimHei-38" d="M 175 1375 
Q 175 1675 325 1962 
Q 475 2250 825 2425 
Q 525 2600 425 2812 
Q 325 3025 312 3300 
Q 300 3575 387 3775 
Q 475 3975 650 4150 
Q 825 4325 1037 4387 
Q 1250 4450 1500 4450 
Q 1750 4450 1950 4400 
Q 2150 4350 2375 4187 
Q 2600 4025 2700 3725 
Q 2800 3425 2687 3025 
Q 2575 2625 2100 2400 
Q 2525 2275 2700 2012 
Q 2875 1750 2875 1375 
Q 2875 1000 2762 775 
Q 2650 550 2512 400 
Q 2375 250 2137 162 
Q 1900 75 1537 75 
Q 1175 75 912 162 
Q 650 250 475 425 
Q 300 600 237 837 
Q 175 1075 175 1375 
z
M 687 1400 
Q 675 1100 787 875 
Q 900 650 1200 587 
Q 1500 525 1825 600 
Q 2150 675 2275 950 
Q 2400 1225 2362 1500 
Q 2325 1775 2050 1962 
Q 1775 2150 1450 2125 
Q 1125 2100 912 1900 
Q 700 1700 687 1400 
z
M 775 3350 
Q 775 3100 950 2875 
Q 1125 2650 1500 2650 
Q 1875 2650 2062 2875 
Q 2250 3100 2237 3412 
Q 2225 3725 2012 3875 
Q 1800 4025 1437 4000 
Q 1075 3975 925 3787 
Q 775 3600 775 3350 
z
" transform="scale(0.015625)"/>
       </defs>
       <use xlink:href="#SimHei-38"/>
       <use xlink:href="#SimHei-30" x="50"/>
      </g>
     </g>
    </g>
    <g id="xtick_4">
     <g id="line2d_7">
      <path d="M 333.30303 384.48 
L 333.30303 51.84 
" clip-path="url(#p1816ce0e3a)" style="fill: none; stroke: #b0b0b0; stroke-width: 0.8; stroke-linecap: square"/>
     </g>
     <g id="line2d_8">
      <g>
       <use xlink:href="#m7ffc5fb5f4" x="333.30303" y="384.48" style="stroke: #000000; stroke-width: 0.8"/>
      </g>
     </g>
     <g id="text_4">
      <!-- 100 -->
      <g transform="translate(325.80303 398.355) scale(0.1 -0.1)">
       <defs>
        <path id="SimHei-31" d="M 1400 3600 
Q 1075 3275 575 2975 
L 575 3450 
Q 1200 3875 1600 4450 
L 1900 4450 
L 1900 150 
L 1400 150 
L 1400 3600 
z
" transform="scale(0.015625)"/>
       </defs>
       <use xlink:href="#SimHei-31"/>
       <use xlink:href="#SimHei-30" x="50"/>
       <use xlink:href="#SimHei-30" x="100"/>
      </g>
     </g>
    </g>
    <g id="xtick_5">
     <g id="line2d_9">
      <path d="M 408.454545 384.48 
L 408.454545 51.84 
" clip-path="url(#p1816ce0e3a)" style="fill: none; stroke: #b0b0b0; stroke-width: 0.8; stroke-linecap: square"/>
     </g>
     <g id="line2d_10">
      <g>
       <use xlink:href="#m7ffc5fb5f4" x="408.454545" y="384.48" style="stroke: #000000; stroke-width: 0.8"/>
      </g>
     </g>
     <g id="text_5">
      <!-- 120 -->
      <g transform="translate(400.954545 398.355) scale(0.1 -0.1)">
       <defs>
        <path id="SimHei-32" d="M 300 250 
Q 325 625 650 925 
Q 975 1225 1475 1862 
Q 1975 2500 2125 2850 
Q 2275 3200 2237 3450 
Q 2200 3700 2000 3862 
Q 1800 4025 1537 4000 
Q 1275 3975 1037 3800 
Q 800 3625 675 3275 
L 200 3350 
Q 400 3925 712 4187 
Q 1025 4450 1450 4475 
Q 1700 4500 1900 4462 
Q 2100 4425 2312 4287 
Q 2525 4150 2662 3875 
Q 2800 3600 2762 3212 
Q 2725 2825 2375 2287 
Q 2025 1750 1025 600 
L 2825 600 
L 2825 150 
L 300 150 
L 300 250 
z
" transform="scale(0.015625)"/>
       </defs>
       <use xlink:href="#SimHei-31"/>
       <use xlink:href="#SimHei-32" x="50"/>
       <use xlink:href="#SimHei-30" x="100"/>
      </g>
     </g>
    </g>
    <g id="xtick_6">
     <g id="line2d_11">
      <path d="M 483.606061 384.48 
L 483.606061 51.84 
" clip-path="url(#p1816ce0e3a)" style="fill: none; stroke: #b0b0b0; stroke-width: 0.8; stroke-linecap: square"/>
     </g>
     <g id="line2d_12">
      <g>
       <use xlink:href="#m7ffc5fb5f4" x="483.606061" y="384.48" style="stroke: #000000; stroke-width: 0.8"/>
      </g>
     </g>
     <g id="text_6">
      <!-- 140 -->
      <g transform="translate(476.106061 398.355) scale(0.1 -0.1)">
       <use xlink:href="#SimHei-31"/>
       <use xlink:href="#SimHei-34" x="50"/>
       <use xlink:href="#SimHei-30" x="100"/>
      </g>
     </g>
    </g>
    <g id="xtick_7">
     <g id="line2d_13">
      <path d="M 558.757576 384.48 
L 558.757576 51.84 
" clip-path="url(#p1816ce0e3a)" style="fill: none; stroke: #b0b0b0; stroke-width: 0.8; stroke-linecap: square"/>
     </g>
     <g id="line2d_14">
      <g>
       <use xlink:href="#m7ffc5fb5f4" x="558.757576" y="384.48" style="stroke: #000000; stroke-width: 0.8"/>
      </g>
     </g>
     <g id="text_7">
      <!-- 160 -->
      <g transform="translate(551.257576 398.355) scale(0.1 -0.1)">
       <use xlink:href="#SimHei-31"/>
       <use xlink:href="#SimHei-36" x="50"/>
       <use xlink:href="#SimHei-30" x="100"/>
      </g>
     </g>
    </g>
    <g id="xtick_8">
     <g id="line2d_15">
      <path d="M 633.909091 384.48 
L 633.909091 51.84 
" clip-path="url(#p1816ce0e3a)" style="fill: none; stroke: #b0b0b0; stroke-width: 0.8; stroke-linecap: square"/>
     </g>
     <g id="line2d_16">
      <g>
       <use xlink:href="#m7ffc5fb5f4" x="633.909091" y="384.48" style="stroke: #000000; stroke-width: 0.8"/>
      </g>
     </g>
     <g id="text_8">
      <!-- 180 -->
      <g transform="translate(626.409091 398.355) scale(0.1 -0.1)">
       <use xlink:href="#SimHei-31"/>
       <use xlink:href="#SimHei-38" x="50"/>
       <use xlink:href="#SimHei-30" x="100"/>
      </g>
     </g>
    </g>
    <g id="text_9">
     <!-- 周数 -->
     <g transform="translate(359 411.339375) scale(0.1 -0.1)">
      <defs>
       <path id="SimHei-5468" d="M 5600 4925 
Q 5575 4400 5575 3800 
L 5575 50 
Q 5550 -375 5325 -462 
Q 5100 -550 4325 -600 
Q 4300 -400 4125 -75 
Q 4800 -100 4962 -37 
Q 5125 25 5100 225 
L 5100 4525 
L 1500 4525 
Q 1500 2575 1450 1887 
Q 1400 1200 1237 550 
Q 1075 -100 775 -625 
Q 625 -450 275 -225 
Q 650 225 825 1000 
Q 1000 1775 1025 2587 
Q 1050 3400 1000 4925 
L 5600 4925 
z
M 2050 325 
Q 2075 625 2075 950 
L 2075 1400 
Q 2075 1625 2050 1925 
L 4400 1925 
Q 4375 1725 4375 1450 
L 4375 875 
Q 4375 600 4400 325 
L 2050 325 
z
M 3000 3800 
Q 3000 4150 2975 4375 
L 3475 4375 
Q 3450 4075 3450 3800 
Q 4100 3800 4475 3825 
L 4475 3350 
Q 4125 3375 3450 3375 
L 3450 2800 
Q 4200 2800 4825 2825 
L 4825 2350 
Q 4175 2375 3725 2375 
L 2750 2375 
Q 2325 2375 1725 2350 
L 1725 2825 
Q 2325 2800 3000 2800 
L 3000 3375 
Q 2500 3375 1975 3350 
L 1975 3825 
Q 2475 3800 3000 3800 
z
M 3900 725 
L 3900 1525 
L 2550 1525 
L 2550 725 
L 3900 725 
z
" transform="scale(0.015625)"/>
       <path id="SimHei-6570" d="M 4525 4925 
Q 4475 4800 4400 4587 
Q 4325 4375 4175 3825 
L 5325 3825 
Q 5575 3825 5925 3850 
L 5925 3400 
Q 5650 3425 5500 3425 
Q 5500 3025 5362 2162 
Q 5225 1300 4875 675 
Q 5125 375 5437 137 
Q 5750 -100 6025 -200 
Q 5725 -425 5625 -625 
Q 5325 -450 5075 -225 
Q 4825 0 4575 325 
Q 4300 25 3987 -187 
Q 3675 -400 3200 -650 
Q 3075 -425 2850 -300 
Q 3225 -150 3650 125 
Q 4075 400 4300 675 
Q 4125 1025 3962 1425 
Q 3800 1825 3675 2475 
Q 3600 2275 3425 1950 
Q 3250 2050 3000 2150 
Q 3400 2850 3650 3675 
Q 3900 4500 3975 5100 
Q 4275 4975 4525 4925 
z
M 2100 2250 
Q 2000 2150 1875 1925 
L 3250 1925 
Q 3100 1300 2725 675 
Q 3125 525 3350 400 
Q 3225 225 3125 25 
Q 2900 175 2450 325 
Q 1950 -225 725 -650 
Q 600 -375 400 -275 
Q 1575 0 2000 475 
Q 1300 650 850 775 
Q 1000 1000 1250 1525 
Q 1000 1525 425 1500 
L 425 1950 
Q 900 1925 1400 1925 
Q 1500 2150 1550 2425 
Q 1825 2325 2100 2250 
z
M 1775 3950 
Q 1775 4550 1750 5100 
L 2250 5100 
Q 2225 4575 2225 3950 
Q 3075 3950 3425 3975 
L 3425 3525 
Q 3075 3550 2225 3550 
Q 2225 2825 2250 2425 
L 1750 2425 
Q 1775 2775 1775 3300 
Q 1650 3100 1300 2787 
Q 950 2475 650 2300 
Q 525 2525 275 2625 
Q 500 2700 875 2975 
Q 1250 3250 1450 3550 
Q 950 3550 500 3525 
L 500 3975 
Q 925 3950 1775 3950 
z
M 3975 3175 
Q 4200 1700 4600 1125 
Q 4850 1700 4937 2287 
Q 5025 2875 5050 3425 
L 4075 3425 
L 3975 3175 
z
M 1450 1000 
Q 1750 925 2275 800 
Q 2475 1050 2650 1525 
L 1725 1525 
Q 1600 1275 1450 1000 
z
M 3325 4825 
Q 3200 4625 3125 4450 
Q 3050 4275 2925 4025 
Q 2725 4125 2525 4175 
Q 2725 4500 2900 5000 
Q 3150 4875 3325 4825 
z
M 2575 3375 
Q 2900 3050 3200 2725 
Q 3050 2600 2875 2425 
Q 2525 2850 2300 3100 
Q 2450 3225 2575 3375 
z
M 925 5000 
Q 1275 4650 1500 4300 
L 1125 4075 
Q 950 4425 600 4725 
Q 825 4875 925 5000 
z
" transform="scale(0.015625)"/>
      </defs>
      <use xlink:href="#SimHei-5468"/>
      <use xlink:href="#SimHei-6570" x="100"/>
     </g>
    </g>
   </g>
   <g id="matplotlib.axis_2">
    <g id="ytick_1">
     <g id="line2d_17">
      <path d="M 90 344.16 
L 648 344.16 
" clip-path="url(#p1816ce0e3a)" style="fill: none; stroke: #b0b0b0; stroke-width: 0.8; stroke-linecap: square"/>
     </g>
     <g id="line2d_18">
      <defs>
       <path id="m84c7a71f2e" d="M 0 0 
L -3.5 0 
" style="stroke: #000000; stroke-width: 0.8"/>
      </defs>
      <g>
       <use xlink:href="#m84c7a71f2e" x="90" y="344.16" style="stroke: #000000; stroke-width: 0.8"/>
      </g>
     </g>
     <g id="text_10">
      <!-- 2.5 -->
      <g transform="translate(68 347.5975) scale(0.1 -0.1)">
       <defs>
        <path id="SimHei-2e" d="M 1075 125 
L 500 125 
L 500 675 
L 1075 675 
L 1075 125 
z
" transform="scale(0.015625)"/>
        <path id="SimHei-35" d="M 550 1325 
Q 725 650 1150 575 
Q 1575 500 1837 662 
Q 2100 825 2212 1087 
Q 2325 1350 2312 1675 
Q 2300 2000 2137 2225 
Q 1975 2450 1725 2525 
Q 1475 2600 1162 2525 
Q 850 2450 650 2175 
L 225 2225 
Q 275 2375 700 4375 
L 2675 4375 
L 2675 3925 
L 1075 3925 
Q 950 3250 825 2850 
Q 1200 3025 1525 3012 
Q 1850 3000 2150 2862 
Q 2450 2725 2587 2487 
Q 2725 2250 2787 2012 
Q 2850 1775 2837 1500 
Q 2825 1225 2725 937 
Q 2625 650 2425 462 
Q 2225 275 1937 162 
Q 1650 50 1275 75 
Q 900 100 562 350 
Q 225 600 100 1200 
L 550 1325 
z
" transform="scale(0.015625)"/>
       </defs>
       <use xlink:href="#SimHei-32"/>
       <use xlink:href="#SimHei-2e" x="50"/>
       <use xlink:href="#SimHei-35" x="100"/>
      </g>
     </g>
    </g>
    <g id="ytick_2">
     <g id="line2d_19">
      <path d="M 90 302.16 
L 648 302.16 
" clip-path="url(#p1816ce0e3a)" style="fill: none; stroke: #b0b0b0; stroke-width: 0.8; stroke-linecap: square"/>
     </g>
     <g id="line2d_20">
      <g>
       <use xlink:href="#m84c7a71f2e" x="90" y="302.16" style="stroke: #000000; stroke-width: 0.8"/>
      </g>
     </g>
     <g id="text_11">
      <!-- 5.0 -->
      <g transform="translate(68 305.5975) scale(0.1 -0.1)">
       <use xlink:href="#SimHei-35"/>
       <use xlink:href="#SimHei-2e" x="50"/>
       <use xlink:href="#SimHei-30" x="100"/>
      </g>
     </g>
    </g>
    <g id="ytick_3">
     <g id="line2d_21">
      <path d="M 90 260.16 
L 648 260.16 
" clip-path="url(#p1816ce0e3a)" style="fill: none; stroke: #b0b0b0; stroke-width: 0.8; stroke-linecap: square"/>
     </g>
     <g id="line2d_22">
      <g>
       <use xlink:href="#m84c7a71f2e" x="90" y="260.16" style="stroke: #000000; stroke-width: 0.8"/>
      </g>
     </g>
     <g id="text_12">
      <!-- 7.5 -->
      <g transform="translate(68 263.5975) scale(0.1 -0.1)">
       <defs>
        <path id="SimHei-37" d="M 850 150 
Q 1300 2050 2425 3925 
L 275 3925 
L 275 4375 
L 2950 4375 
L 2950 3950 
Q 1775 2050 1400 150 
L 850 150 
z
" transform="scale(0.015625)"/>
       </defs>
       <use xlink:href="#SimHei-37"/>
       <use xlink:href="#SimHei-2e" x="50"/>
       <use xlink:href="#SimHei-35" x="100"/>
      </g>
     </g>
    </g>
    <g id="ytick_4">
     <g id="line2d_23">
      <path d="M 90 218.16 
L 648 218.16 
" clip-path="url(#p1816ce0e3a)" style="fill: none; stroke: #b0b0b0; stroke-width: 0.8; stroke-linecap: square"/>
     </g>
     <g id="line2d_24">
      <g>
       <use xlink:href="#m84c7a71f2e" x="90" y="218.16" style="stroke: #000000; stroke-width: 0.8"/>
      </g>
     </g>
     <g id="text_13">
      <!-- 10.0 -->
      <g transform="translate(63 221.5975) scale(0.1 -0.1)">
       <use xlink:href="#SimHei-31"/>
       <use xlink:href="#SimHei-30" x="50"/>
       <use xlink:href="#SimHei-2e" x="100"/>
       <use xlink:href="#SimHei-30" x="150"/>
      </g>
     </g>
    </g>
    <g id="ytick_5">
     <g id="line2d_25">
      <path d="M 90 176.16 
L 648 176.16 
" clip-path="url(#p1816ce0e3a)" style="fill: none; stroke: #b0b0b0; stroke-width: 0.8; stroke-linecap: square"/>
     </g>
     <g id="line2d_26">
      <g>
       <use xlink:href="#m84c7a71f2e" x="90" y="176.16" style="stroke: #000000; stroke-width: 0.8"/>
      </g>
     </g>
     <g id="text_14">
      <!-- 12.5 -->
      <g transform="translate(63 179.5975) scale(0.1 -0.1)">
       <use xlink:href="#SimHei-31"/>
       <use xlink:href="#SimHei-32" x="50"/>
       <use xlink:href="#SimHei-2e" x="100"/>
       <use xlink:href="#SimHei-35" x="150"/>
      </g>
     </g>
    </g>
    <g id="ytick_6">
     <g id="line2d_27">
      <path d="M 90 134.16 
L 648 134.16 
" clip-path="url(#p1816ce0e3a)" style="fill: none; stroke: #b0b0b0; stroke-width: 0.8; stroke-linecap: square"/>
     </g>
     <g id="line2d_28">
      <g>
       <use xlink:href="#m84c7a71f2e" x="90" y="134.16" style="stroke: #000000; stroke-width: 0.8"/>
      </g>
     </g>
     <g id="text_15">
      <!-- 15.0 -->
      <g transform="translate(63 137.5975) scale(0.1 -0.1)">
       <use xlink:href="#SimHei-31"/>
       <use xlink:href="#SimHei-35" x="50"/>
       <use xlink:href="#SimHei-2e" x="100"/>
       <use xlink:href="#SimHei-30" x="150"/>
      </g>
     </g>
    </g>
    <g id="ytick_7">
     <g id="line2d_29">
      <path d="M 90 92.16 
L 648 92.16 
" clip-path="url(#p1816ce0e3a)" style="fill: none; stroke: #b0b0b0; stroke-width: 0.8; stroke-linecap: square"/>
     </g>
     <g id="line2d_30">
      <g>
       <use xlink:href="#m84c7a71f2e" x="90" y="92.16" style="stroke: #000000; stroke-width: 0.8"/>
      </g>
     </g>
     <g id="text_16">
      <!-- 17.5 -->
      <g transform="translate(63 95.5975) scale(0.1 -0.1)">
       <use xlink:href="#SimHei-31"/>
       <use xlink:href="#SimHei-37" x="50"/>
       <use xlink:href="#SimHei-2e" x="100"/>
       <use xlink:href="#SimHei-35" x="150"/>
      </g>
     </g>
    </g>
    <g id="text_17">
     <!-- 需求量 -->
     <g transform="translate(57.75 233.16) rotate(-90) scale(0.1 -0.1)">
      <defs>
       <path id="SimHei-9700" d="M 5150 2100 
Q 5500 2100 5975 2125 
L 5975 1700 
Q 5500 1725 5150 1725 
L 3425 1725 
Q 3300 1500 3250 1275 
L 5600 1275 
Q 5575 950 5575 700 
L 5575 -50 
Q 5575 -350 5425 -437 
Q 5275 -525 4775 -625 
Q 4750 -400 4550 -100 
Q 4950 -100 5025 -50 
Q 5100 0 5100 200 
L 5100 900 
L 4125 900 
L 4125 -375 
L 3650 -375 
L 3650 900 
L 2775 900 
L 2775 -375 
L 2300 -375 
L 2300 900 
L 1350 900 
L 1350 -575 
L 875 -575 
Q 900 -225 900 175 
L 900 575 
Q 900 900 875 1275 
L 2800 1275 
Q 2875 1500 2925 1725 
L 1350 1725 
Q 925 1725 525 1700 
L 525 2125 
Q 900 2100 1325 2100 
L 5150 2100 
z
M 4700 5075 
Q 5075 5075 5550 5100 
L 5550 4675 
Q 5075 4700 4700 4700 
L 3475 4700 
L 3475 4275 
L 5975 4275 
L 5975 3100 
L 5500 3100 
L 5500 3900 
L 3475 3900 
L 3475 3200 
Q 3475 2775 3500 2425 
L 2975 2425 
Q 3000 2750 3000 3175 
L 3000 3900 
L 950 3900 
L 950 3100 
L 450 3100 
Q 450 3375 462 3650 
Q 475 3925 450 4275 
L 3000 4275 
L 3000 4700 
L 1775 4700 
Q 1400 4700 1025 4675 
L 1025 5100 
Q 1400 5075 1750 5075 
L 4700 5075 
z
M 2475 2450 
L 1250 2450 
L 1250 2800 
L 2475 2800 
L 2475 2450 
z
M 2500 3150 
L 1325 3150 
L 1325 3500 
L 2500 3500 
L 2500 3150 
z
M 5000 3175 
L 3825 3175 
L 3825 3525 
L 5000 3525 
L 5000 3175 
z
M 5025 2500 
L 3850 2500 
L 3850 2850 
L 5025 2850 
L 5025 2500 
z
" transform="scale(0.015625)"/>
       <path id="SimHei-6c42" d="M 475 4025 
Q 875 4000 1325 4000 
L 2875 4000 
Q 2875 4725 2850 5125 
L 3400 5125 
Q 3375 4725 3375 4000 
L 5150 4000 
Q 5500 4000 5925 4025 
L 5925 3575 
Q 5475 3600 5150 3600 
L 3375 3600 
Q 3400 3200 3612 2750 
Q 3825 2300 4050 2000 
Q 4600 2450 5075 3150 
Q 5250 2950 5575 2750 
Q 5275 2600 4250 1650 
Q 4575 1225 5037 850 
Q 5500 475 6050 325 
Q 5700 125 5550 -150 
Q 5000 150 4437 687 
Q 3875 1225 3375 2375 
L 3375 150 
Q 3400 -225 3137 -350 
Q 2875 -475 2375 -525 
Q 2325 -275 2150 25 
Q 2575 0 2737 37 
Q 2900 75 2875 300 
L 2875 1675 
Q 1875 900 1437 550 
Q 1000 200 725 -50 
Q 500 200 300 400 
Q 650 575 1200 937 
Q 1750 1300 2875 2250 
L 2875 3600 
L 1325 3600 
Q 875 3600 475 3575 
L 475 4025 
z
M 1225 3175 
Q 1775 2725 2250 2325 
L 1825 1950 
Q 1450 2375 825 2825 
L 1225 3175 
z
M 4500 5100 
Q 4900 4825 5300 4425 
Q 5125 4300 4925 4100 
Q 4650 4400 4125 4825 
Q 4275 4950 4500 5100 
z
" transform="scale(0.015625)"/>
       <path id="SimHei-91cf" d="M 5250 2500 
Q 5225 2200 5225 1700 
Q 5225 1225 5250 950 
L 3425 950 
L 3425 625 
L 4575 625 
Q 5000 625 5375 650 
L 5375 275 
Q 5025 300 4575 300 
L 3425 300 
L 3425 -75 
L 5125 -75 
Q 5525 -75 5925 -50 
L 5925 -425 
Q 5525 -400 5125 -400 
L 1275 -400 
Q 900 -400 475 -425 
L 475 -50 
Q 925 -50 1275 -75 
L 2975 -75 
L 2975 300 
L 1725 300 
Q 1350 300 975 250 
L 975 650 
Q 1375 625 1725 625 
L 2975 625 
L 2975 950 
L 1150 950 
Q 1175 1375 1175 1775 
Q 1175 2175 1150 2500 
L 5250 2500 
z
M 5200 4950 
Q 5175 4575 5175 4250 
Q 5175 3925 5200 3400 
L 1200 3400 
Q 1225 3925 1225 4250 
Q 1225 4575 1200 4950 
L 5200 4950 
z
M 4900 3100 
Q 5500 3125 6000 3150 
L 6000 2750 
Q 5500 2775 4925 2775 
L 1650 2775 
Q 975 2775 325 2750 
L 325 3150 
Q 975 3125 1650 3100 
L 4900 3100 
z
M 4725 3700 
L 4725 4025 
L 1675 4025 
L 1675 3700 
L 4725 3700 
z
M 4725 4350 
L 4725 4650 
L 1675 4650 
L 1675 4350 
L 4725 4350 
z
M 4750 1875 
L 4750 2175 
L 3425 2175 
L 3425 1875 
L 4750 1875 
z
M 2975 1875 
L 2975 2175 
L 1650 2175 
L 1650 1875 
L 2975 1875 
z
M 2975 1275 
L 2975 1550 
L 1650 1550 
L 1650 1275 
L 2975 1275 
z
M 4750 1275 
L 4750 1550 
L 3425 1550 
L 3425 1275 
L 4750 1275 
z
" transform="scale(0.015625)"/>
      </defs>
      <use xlink:href="#SimHei-9700"/>
      <use xlink:href="#SimHei-6c42" x="100"/>
      <use xlink:href="#SimHei-91cf" x="200"/>
     </g>
    </g>
   </g>
   <g id="line2d_31">
    <path d="M 115.363636 352.56 
L 122.878788 352.56 
L 126.636364 352.56 
L 130.393939 318.96 
L 134.151515 352.56 
L 137.909091 352.56 
L 145.424242 318.96 
L 149.181818 335.76 
L 152.939394 352.56 
L 156.69697 318.96 
L 160.454545 251.76 
L 164.212121 335.76 
L 186.757576 318.96 
L 190.515152 318.96 
L 194.272727 218.16 
L 201.787879 318.96 
L 205.545455 251.76 
L 209.30303 184.56 
L 213.060606 318.96 
L 216.818182 318.96 
L 220.575758 318.96 
L 224.333333 335.76 
L 228.090909 268.56 
L 231.848485 218.16 
L 235.606061 318.96 
L 239.363636 66.96 
L 243.121212 352.56 
L 246.878788 285.36 
L 250.636364 318.96 
L 254.393939 268.56 
L 258.151515 285.36 
L 261.909091 318.96 
L 265.666667 218.16 
L 269.424242 150.96 
L 273.181818 318.96 
L 276.939394 218.16 
L 280.69697 318.96 
L 284.454545 150.96 
L 288.212121 302.16 
L 291.969697 285.36 
L 295.727273 302.16 
L 299.484848 134.16 
L 303.242424 352.56 
L 307 234.96 
L 310.757576 251.76 
L 314.515152 251.76 
L 318.272727 251.76 
L 322.030303 335.76 
L 325.787879 285.36 
L 329.545455 268.56 
L 333.30303 268.56 
L 337.060606 318.96 
L 340.818182 352.56 
L 344.575758 352.56 
L 348.333333 318.96 
L 352.090909 352.56 
L 355.848485 352.56 
L 359.606061 318.96 
L 363.363636 335.76 
L 370.878788 302.16 
L 382.151515 335.76 
L 385.909091 318.96 
L 389.666667 318.96 
L 400.939394 352.56 
L 404.69697 352.56 
L 408.454545 352.56 
L 412.212121 318.96 
L 415.969697 285.36 
L 419.727273 335.76 
L 423.484848 369.36 
L 427.242424 302.16 
L 434.757576 352.56 
L 442.272727 335.76 
L 453.545455 318.96 
L 457.30303 285.36 
L 461.060606 302.16 
L 464.818182 285.36 
L 468.575758 352.56 
L 472.333333 335.76 
L 476.090909 318.96 
L 479.848485 285.36 
L 483.606061 302.16 
L 487.363636 285.36 
L 491.121212 369.36 
L 494.878788 318.96 
L 498.636364 318.96 
L 502.393939 150.96 
L 506.151515 285.36 
L 509.909091 302.16 
L 513.666667 184.56 
L 517.424242 302.16 
L 521.181818 318.96 
L 524.939394 352.56 
L 528.69697 268.56 
L 532.454545 150.96 
L 539.969697 335.76 
L 543.727273 251.76 
L 547.484848 352.56 
L 562.515152 352.56 
L 570.030303 352.56 
L 577.545455 268.56 
L 581.30303 268.56 
L 585.060606 218.16 
L 588.818182 234.96 
L 592.575758 218.16 
L 596.333333 302.16 
L 600.090909 352.56 
L 603.848485 268.56 
L 607.606061 318.96 
L 611.363636 302.16 
L 618.878788 302.16 
L 622.636364 218.16 
" clip-path="url(#p1816ce0e3a)" style="fill: none; stroke: #0000ff; stroke-width: 1.5; stroke-linecap: square"/>
    <defs>
     <path id="mdfcfdd2dcf" d="M 0 3 
C 0.795609 3 1.55874 2.683901 2.12132 2.12132 
C 2.683901 1.55874 3 0.795609 3 0 
C 3 -0.795609 2.683901 -1.55874 2.12132 -2.12132 
C 1.55874 -2.683901 0.795609 -3 0 -3 
C -0.795609 -3 -1.55874 -2.683901 -2.12132 -2.12132 
C -2.683901 -1.55874 -3 -0.795609 -3 0 
C -3 0.795609 -2.683901 1.55874 -2.12132 2.12132 
C -1.55874 2.683901 -0.795609 3 0 3 
z
" style="stroke: #0000ff"/>
    </defs>
    <g clip-path="url(#p1816ce0e3a)">
     <use xlink:href="#mdfcfdd2dcf" x="115.363636" y="352.56" style="fill: #0000ff; stroke: #0000ff"/>
     <use xlink:href="#mdfcfdd2dcf" x="122.878788" y="352.56" style="fill: #0000ff; stroke: #0000ff"/>
     <use xlink:href="#mdfcfdd2dcf" x="126.636364" y="352.56" style="fill: #0000ff; stroke: #0000ff"/>
     <use xlink:href="#mdfcfdd2dcf" x="130.393939" y="318.96" style="fill: #0000ff; stroke: #0000ff"/>
     <use xlink:href="#mdfcfdd2dcf" x="134.151515" y="352.56" style="fill: #0000ff; stroke: #0000ff"/>
     <use xlink:href="#mdfcfdd2dcf" x="137.909091" y="352.56" style="fill: #0000ff; stroke: #0000ff"/>
     <use xlink:href="#mdfcfdd2dcf" x="145.424242" y="318.96" style="fill: #0000ff; stroke: #0000ff"/>
     <use xlink:href="#mdfcfdd2dcf" x="149.181818" y="335.76" style="fill: #0000ff; stroke: #0000ff"/>
     <use xlink:href="#mdfcfdd2dcf" x="152.939394" y="352.56" style="fill: #0000ff; stroke: #0000ff"/>
     <use xlink:href="#mdfcfdd2dcf" x="156.69697" y="318.96" style="fill: #0000ff; stroke: #0000ff"/>
     <use xlink:href="#mdfcfdd2dcf" x="160.454545" y="251.76" style="fill: #0000ff; stroke: #0000ff"/>
     <use xlink:href="#mdfcfdd2dcf" x="164.212121" y="335.76" style="fill: #0000ff; stroke: #0000ff"/>
     <use xlink:href="#mdfcfdd2dcf" x="186.757576" y="318.96" style="fill: #0000ff; stroke: #0000ff"/>
     <use xlink:href="#mdfcfdd2dcf" x="190.515152" y="318.96" style="fill: #0000ff; stroke: #0000ff"/>
     <use xlink:href="#mdfcfdd2dcf" x="194.272727" y="218.16" style="fill: #0000ff; stroke: #0000ff"/>
     <use xlink:href="#mdfcfdd2dcf" x="201.787879" y="318.96" style="fill: #0000ff; stroke: #0000ff"/>
     <use xlink:href="#mdfcfdd2dcf" x="205.545455" y="251.76" style="fill: #0000ff; stroke: #0000ff"/>
     <use xlink:href="#mdfcfdd2dcf" x="209.30303" y="184.56" style="fill: #0000ff; stroke: #0000ff"/>
     <use xlink:href="#mdfcfdd2dcf" x="213.060606" y="318.96" style="fill: #0000ff; stroke: #0000ff"/>
     <use xlink:href="#mdfcfdd2dcf" x="216.818182" y="318.96" style="fill: #0000ff; stroke: #0000ff"/>
     <use xlink:href="#mdfcfdd2dcf" x="220.575758" y="318.96" style="fill: #0000ff; stroke: #0000ff"/>
     <use xlink:href="#mdfcfdd2dcf" x="224.333333" y="335.76" style="fill: #0000ff; stroke: #0000ff"/>
     <use xlink:href="#mdfcfdd2dcf" x="228.090909" y="268.56" style="fill: #0000ff; stroke: #0000ff"/>
     <use xlink:href="#mdfcfdd2dcf" x="231.848485" y="218.16" style="fill: #0000ff; stroke: #0000ff"/>
     <use xlink:href="#mdfcfdd2dcf" x="235.606061" y="318.96" style="fill: #0000ff; stroke: #0000ff"/>
     <use xlink:href="#mdfcfdd2dcf" x="239.363636" y="66.96" style="fill: #0000ff; stroke: #0000ff"/>
     <use xlink:href="#mdfcfdd2dcf" x="243.121212" y="352.56" style="fill: #0000ff; stroke: #0000ff"/>
     <use xlink:href="#mdfcfdd2dcf" x="246.878788" y="285.36" style="fill: #0000ff; stroke: #0000ff"/>
     <use xlink:href="#mdfcfdd2dcf" x="250.636364" y="318.96" style="fill: #0000ff; stroke: #0000ff"/>
     <use xlink:href="#mdfcfdd2dcf" x="254.393939" y="268.56" style="fill: #0000ff; stroke: #0000ff"/>
     <use xlink:href="#mdfcfdd2dcf" x="258.151515" y="285.36" style="fill: #0000ff; stroke: #0000ff"/>
     <use xlink:href="#mdfcfdd2dcf" x="261.909091" y="318.96" style="fill: #0000ff; stroke: #0000ff"/>
     <use xlink:href="#mdfcfdd2dcf" x="265.666667" y="218.16" style="fill: #0000ff; stroke: #0000ff"/>
     <use xlink:href="#mdfcfdd2dcf" x="269.424242" y="150.96" style="fill: #0000ff; stroke: #0000ff"/>
     <use xlink:href="#mdfcfdd2dcf" x="273.181818" y="318.96" style="fill: #0000ff; stroke: #0000ff"/>
     <use xlink:href="#mdfcfdd2dcf" x="276.939394" y="218.16" style="fill: #0000ff; stroke: #0000ff"/>
     <use xlink:href="#mdfcfdd2dcf" x="280.69697" y="318.96" style="fill: #0000ff; stroke: #0000ff"/>
     <use xlink:href="#mdfcfdd2dcf" x="284.454545" y="150.96" style="fill: #0000ff; stroke: #0000ff"/>
     <use xlink:href="#mdfcfdd2dcf" x="288.212121" y="302.16" style="fill: #0000ff; stroke: #0000ff"/>
     <use xlink:href="#mdfcfdd2dcf" x="291.969697" y="285.36" style="fill: #0000ff; stroke: #0000ff"/>
     <use xlink:href="#mdfcfdd2dcf" x="295.727273" y="302.16" style="fill: #0000ff; stroke: #0000ff"/>
     <use xlink:href="#mdfcfdd2dcf" x="299.484848" y="134.16" style="fill: #0000ff; stroke: #0000ff"/>
     <use xlink:href="#mdfcfdd2dcf" x="303.242424" y="352.56" style="fill: #0000ff; stroke: #0000ff"/>
     <use xlink:href="#mdfcfdd2dcf" x="307" y="234.96" style="fill: #0000ff; stroke: #0000ff"/>
     <use xlink:href="#mdfcfdd2dcf" x="310.757576" y="251.76" style="fill: #0000ff; stroke: #0000ff"/>
     <use xlink:href="#mdfcfdd2dcf" x="314.515152" y="251.76" style="fill: #0000ff; stroke: #0000ff"/>
     <use xlink:href="#mdfcfdd2dcf" x="318.272727" y="251.76" style="fill: #0000ff; stroke: #0000ff"/>
     <use xlink:href="#mdfcfdd2dcf" x="322.030303" y="335.76" style="fill: #0000ff; stroke: #0000ff"/>
     <use xlink:href="#mdfcfdd2dcf" x="325.787879" y="285.36" style="fill: #0000ff; stroke: #0000ff"/>
     <use xlink:href="#mdfcfdd2dcf" x="329.545455" y="268.56" style="fill: #0000ff; stroke: #0000ff"/>
     <use xlink:href="#mdfcfdd2dcf" x="333.30303" y="268.56" style="fill: #0000ff; stroke: #0000ff"/>
     <use xlink:href="#mdfcfdd2dcf" x="337.060606" y="318.96" style="fill: #0000ff; stroke: #0000ff"/>
     <use xlink:href="#mdfcfdd2dcf" x="340.818182" y="352.56" style="fill: #0000ff; stroke: #0000ff"/>
     <use xlink:href="#mdfcfdd2dcf" x="344.575758" y="352.56" style="fill: #0000ff; stroke: #0000ff"/>
     <use xlink:href="#mdfcfdd2dcf" x="348.333333" y="318.96" style="fill: #0000ff; stroke: #0000ff"/>
     <use xlink:href="#mdfcfdd2dcf" x="352.090909" y="352.56" style="fill: #0000ff; stroke: #0000ff"/>
     <use xlink:href="#mdfcfdd2dcf" x="355.848485" y="352.56" style="fill: #0000ff; stroke: #0000ff"/>
     <use xlink:href="#mdfcfdd2dcf" x="359.606061" y="318.96" style="fill: #0000ff; stroke: #0000ff"/>
     <use xlink:href="#mdfcfdd2dcf" x="363.363636" y="335.76" style="fill: #0000ff; stroke: #0000ff"/>
     <use xlink:href="#mdfcfdd2dcf" x="370.878788" y="302.16" style="fill: #0000ff; stroke: #0000ff"/>
     <use xlink:href="#mdfcfdd2dcf" x="382.151515" y="335.76" style="fill: #0000ff; stroke: #0000ff"/>
     <use xlink:href="#mdfcfdd2dcf" x="385.909091" y="318.96" style="fill: #0000ff; stroke: #0000ff"/>
     <use xlink:href="#mdfcfdd2dcf" x="389.666667" y="318.96" style="fill: #0000ff; stroke: #0000ff"/>
     <use xlink:href="#mdfcfdd2dcf" x="400.939394" y="352.56" style="fill: #0000ff; stroke: #0000ff"/>
     <use xlink:href="#mdfcfdd2dcf" x="404.69697" y="352.56" style="fill: #0000ff; stroke: #0000ff"/>
     <use xlink:href="#mdfcfdd2dcf" x="408.454545" y="352.56" style="fill: #0000ff; stroke: #0000ff"/>
     <use xlink:href="#mdfcfdd2dcf" x="412.212121" y="318.96" style="fill: #0000ff; stroke: #0000ff"/>
     <use xlink:href="#mdfcfdd2dcf" x="415.969697" y="285.36" style="fill: #0000ff; stroke: #0000ff"/>
     <use xlink:href="#mdfcfdd2dcf" x="419.727273" y="335.76" style="fill: #0000ff; stroke: #0000ff"/>
     <use xlink:href="#mdfcfdd2dcf" x="423.484848" y="369.36" style="fill: #0000ff; stroke: #0000ff"/>
     <use xlink:href="#mdfcfdd2dcf" x="427.242424" y="302.16" style="fill: #0000ff; stroke: #0000ff"/>
     <use xlink:href="#mdfcfdd2dcf" x="434.757576" y="352.56" style="fill: #0000ff; stroke: #0000ff"/>
     <use xlink:href="#mdfcfdd2dcf" x="442.272727" y="335.76" style="fill: #0000ff; stroke: #0000ff"/>
     <use xlink:href="#mdfcfdd2dcf" x="453.545455" y="318.96" style="fill: #0000ff; stroke: #0000ff"/>
     <use xlink:href="#mdfcfdd2dcf" x="457.30303" y="285.36" style="fill: #0000ff; stroke: #0000ff"/>
     <use xlink:href="#mdfcfdd2dcf" x="461.060606" y="302.16" style="fill: #0000ff; stroke: #0000ff"/>
     <use xlink:href="#mdfcfdd2dcf" x="464.818182" y="285.36" style="fill: #0000ff; stroke: #0000ff"/>
     <use xlink:href="#mdfcfdd2dcf" x="468.575758" y="352.56" style="fill: #0000ff; stroke: #0000ff"/>
     <use xlink:href="#mdfcfdd2dcf" x="472.333333" y="335.76" style="fill: #0000ff; stroke: #0000ff"/>
     <use xlink:href="#mdfcfdd2dcf" x="476.090909" y="318.96" style="fill: #0000ff; stroke: #0000ff"/>
     <use xlink:href="#mdfcfdd2dcf" x="479.848485" y="285.36" style="fill: #0000ff; stroke: #0000ff"/>
     <use xlink:href="#mdfcfdd2dcf" x="483.606061" y="302.16" style="fill: #0000ff; stroke: #0000ff"/>
     <use xlink:href="#mdfcfdd2dcf" x="487.363636" y="285.36" style="fill: #0000ff; stroke: #0000ff"/>
     <use xlink:href="#mdfcfdd2dcf" x="491.121212" y="369.36" style="fill: #0000ff; stroke: #0000ff"/>
     <use xlink:href="#mdfcfdd2dcf" x="494.878788" y="318.96" style="fill: #0000ff; stroke: #0000ff"/>
     <use xlink:href="#mdfcfdd2dcf" x="498.636364" y="318.96" style="fill: #0000ff; stroke: #0000ff"/>
     <use xlink:href="#mdfcfdd2dcf" x="502.393939" y="150.96" style="fill: #0000ff; stroke: #0000ff"/>
     <use xlink:href="#mdfcfdd2dcf" x="506.151515" y="285.36" style="fill: #0000ff; stroke: #0000ff"/>
     <use xlink:href="#mdfcfdd2dcf" x="509.909091" y="302.16" style="fill: #0000ff; stroke: #0000ff"/>
     <use xlink:href="#mdfcfdd2dcf" x="513.666667" y="184.56" style="fill: #0000ff; stroke: #0000ff"/>
     <use xlink:href="#mdfcfdd2dcf" x="517.424242" y="302.16" style="fill: #0000ff; stroke: #0000ff"/>
     <use xlink:href="#mdfcfdd2dcf" x="521.181818" y="318.96" style="fill: #0000ff; stroke: #0000ff"/>
     <use xlink:href="#mdfcfdd2dcf" x="524.939394" y="352.56" style="fill: #0000ff; stroke: #0000ff"/>
     <use xlink:href="#mdfcfdd2dcf" x="528.69697" y="268.56" style="fill: #0000ff; stroke: #0000ff"/>
     <use xlink:href="#mdfcfdd2dcf" x="532.454545" y="150.96" style="fill: #0000ff; stroke: #0000ff"/>
     <use xlink:href="#mdfcfdd2dcf" x="539.969697" y="335.76" style="fill: #0000ff; stroke: #0000ff"/>
     <use xlink:href="#mdfcfdd2dcf" x="543.727273" y="251.76" style="fill: #0000ff; stroke: #0000ff"/>
     <use xlink:href="#mdfcfdd2dcf" x="547.484848" y="352.56" style="fill: #0000ff; stroke: #0000ff"/>
     <use xlink:href="#mdfcfdd2dcf" x="562.515152" y="352.56" style="fill: #0000ff; stroke: #0000ff"/>
     <use xlink:href="#mdfcfdd2dcf" x="570.030303" y="352.56" style="fill: #0000ff; stroke: #0000ff"/>
     <use xlink:href="#mdfcfdd2dcf" x="577.545455" y="268.56" style="fill: #0000ff; stroke: #0000ff"/>
     <use xlink:href="#mdfcfdd2dcf" x="581.30303" y="268.56" style="fill: #0000ff; stroke: #0000ff"/>
     <use xlink:href="#mdfcfdd2dcf" x="585.060606" y="218.16" style="fill: #0000ff; stroke: #0000ff"/>
     <use xlink:href="#mdfcfdd2dcf" x="588.818182" y="234.96" style="fill: #0000ff; stroke: #0000ff"/>
     <use xlink:href="#mdfcfdd2dcf" x="592.575758" y="218.16" style="fill: #0000ff; stroke: #0000ff"/>
     <use xlink:href="#mdfcfdd2dcf" x="596.333333" y="302.16" style="fill: #0000ff; stroke: #0000ff"/>
     <use xlink:href="#mdfcfdd2dcf" x="600.090909" y="352.56" style="fill: #0000ff; stroke: #0000ff"/>
     <use xlink:href="#mdfcfdd2dcf" x="603.848485" y="268.56" style="fill: #0000ff; stroke: #0000ff"/>
     <use xlink:href="#mdfcfdd2dcf" x="607.606061" y="318.96" style="fill: #0000ff; stroke: #0000ff"/>
     <use xlink:href="#mdfcfdd2dcf" x="611.363636" y="302.16" style="fill: #0000ff; stroke: #0000ff"/>
     <use xlink:href="#mdfcfdd2dcf" x="618.878788" y="302.16" style="fill: #0000ff; stroke: #0000ff"/>
     <use xlink:href="#mdfcfdd2dcf" x="622.636364" y="218.16" style="fill: #0000ff; stroke: #0000ff"/>
    </g>
   </g>
   <g id="patch_3">
    <path d="M 90 384.48 
L 90 51.84 
" style="fill: none; stroke: #000000; stroke-width: 0.8; stroke-linejoin: miter; stroke-linecap: square"/>
   </g>
   <g id="patch_4">
    <path d="M 648 384.48 
L 648 51.84 
" style="fill: none; stroke: #000000; stroke-width: 0.8; stroke-linejoin: miter; stroke-linecap: square"/>
   </g>
   <g id="patch_5">
    <path d="M 90 384.48 
L 648 384.48 
" style="fill: none; stroke: #000000; stroke-width: 0.8; stroke-linejoin: miter; stroke-linecap: square"/>
   </g>
   <g id="patch_6">
    <path d="M 90 51.84 
L 648 51.84 
" style="fill: none; stroke: #000000; stroke-width: 0.8; stroke-linejoin: miter; stroke-linecap: square"/>
   </g>
   <g id="text_18">
    <!-- 6004020900 每周需求量 -->
    <g transform="translate(306 45.84) scale(0.12 -0.12)">
     <defs>
      <path id="SimHei-39" d="M 800 75 
Q 1350 1000 1700 1750 
Q 1075 1650 662 1912 
Q 250 2175 162 2625 
Q 75 3075 175 3437 
Q 275 3800 487 4037 
Q 700 4275 1000 4375 
Q 1300 4475 1537 4475 
Q 1775 4475 2025 4375 
Q 2275 4275 2475 4075 
Q 2675 3875 2750 3662 
Q 2825 3450 2825 3112 
Q 2825 2775 2575 2250 
Q 2325 1725 1350 75 
L 800 75 
z
M 662 2875 
Q 700 2550 937 2337 
Q 1175 2125 1450 2150 
Q 1725 2175 1887 2300 
Q 2050 2425 2200 2725 
Q 2300 3100 2250 3362 
Q 2200 3625 1987 3800 
Q 1775 3975 1525 3975 
Q 1375 4000 1137 3900 
Q 900 3800 762 3500 
Q 625 3200 662 2875 
z
" transform="scale(0.015625)"/>
      <path id="SimHei-20" transform="scale(0.015625)"/>
      <path id="SimHei-6bcf" d="M 5225 3650 
Q 5175 3150 5150 2675 
L 5125 2200 
Q 5525 2200 6000 2225 
L 6000 1775 
Q 5625 1800 5100 1800 
L 5050 650 
Q 5325 650 5700 675 
L 5700 225 
Q 5400 250 5025 250 
Q 5000 -275 4775 -425 
Q 4550 -575 4000 -650 
Q 3950 -400 3775 -125 
Q 4375 -125 4475 -50 
Q 4575 25 4575 250 
L 1400 250 
L 1500 1100 
L 1550 1800 
L 1275 1800 
Q 825 1800 550 1775 
L 550 2225 
Q 975 2200 1275 2200 
L 1575 2200 
L 1625 2825 
L 1675 3650 
L 5225 3650 
z
M 2350 5000 
Q 2175 4825 2050 4600 
L 4875 4600 
Q 5275 4600 5775 4625 
L 5775 4175 
Q 5275 4200 4875 4200 
L 1825 4200 
L 1375 3625 
Q 1125 3325 775 2975 
Q 600 3175 350 3300 
Q 725 3575 1150 4112 
Q 1575 4650 1825 5250 
Q 2125 5075 2350 5000 
z
M 1975 1800 
L 1875 650 
L 4625 650 
L 4675 1800 
L 2950 1800 
Q 3575 1275 3825 1125 
Q 3625 925 3475 725 
Q 3100 1100 2650 1475 
Q 2775 1675 2875 1800 
L 1975 1800 
z
M 2975 3250 
Q 3125 3150 3287 3012 
Q 3450 2875 3800 2550 
Q 3650 2350 3525 2200 
L 4700 2200 
L 4750 3250 
L 2975 3250 
z
M 2075 3250 
L 2000 2200 
L 3425 2200 
Q 3150 2500 3012 2625 
Q 2875 2750 2700 2900 
Q 2800 3050 2925 3250 
L 2075 3250 
z
" transform="scale(0.015625)"/>
     </defs>
     <use xlink:href="#SimHei-36"/>
     <use xlink:href="#SimHei-30" x="50"/>
     <use xlink:href="#SimHei-30" x="100"/>
     <use xlink:href="#SimHei-34" x="150"/>
     <use xlink:href="#SimHei-30" x="200"/>
     <use xlink:href="#SimHei-32" x="250"/>
     <use xlink:href="#SimHei-30" x="300"/>
     <use xlink:href="#SimHei-39" x="350"/>
     <use xlink:href="#SimHei-30" x="400"/>
     <use xlink:href="#SimHei-30" x="450"/>
     <use xlink:href="#SimHei-20" x="500"/>
     <use xlink:href="#SimHei-6bcf" x="550"/>
     <use xlink:href="#SimHei-5468" x="650"/>
     <use xlink:href="#SimHei-9700" x="750"/>
     <use xlink:href="#SimHei-6c42" x="850"/>
     <use xlink:href="#SimHei-91cf" x="950"/>
    </g>
   </g>
  </g>
 </g>
 <defs>
  <clipPath id="p1816ce0e3a">
   <rect x="90" y="51.84" width="558" height="332.64"/>
  </clipPath>
 </defs>
</svg>
