<?xml version="1.0" encoding="utf-8" standalone="no"?>
<!DOCTYPE svg PUBLIC "-//W3C//DTD SVG 1.1//EN"
  "http://www.w3.org/Graphics/SVG/1.1/DTD/svg11.dtd">
<svg xmlns:xlink="http://www.w3.org/1999/xlink" width="720pt" height="432pt" viewBox="0 0 720 432" xmlns="http://www.w3.org/2000/svg" version="1.1">
 <metadata>
  <rdf:RDF xmlns:dc="http://purl.org/dc/elements/1.1/" xmlns:cc="http://creativecommons.org/ns#" xmlns:rdf="http://www.w3.org/1999/02/22-rdf-syntax-ns#">
   <cc:Work>
    <dc:type rdf:resource="http://purl.org/dc/dcmitype/StillImage"/>
    <dc:date>2024-08-17T14:08:56.689900</dc:date>
    <dc:format>image/svg+xml</dc:format>
    <dc:creator>
     <cc:Agent>
      <dc:title>Matplotlib v3.8.0, https://matplotlib.org/</dc:title>
     </cc:Agent>
    </dc:creator>
   </cc:Work>
  </rdf:RDF>
 </metadata>
 <defs>
  <style type="text/css">*{stroke-linejoin: round; stroke-linecap: butt}</style>
 </defs>
 <g id="figure_1">
  <g id="patch_1">
   <path d="M 0 432 
L 720 432 
L 720 0 
L 0 0 
z
" style="fill: #ffffff"/>
  </g>
  <g id="axes_1">
   <g id="patch_2">
    <path d="M 90 384.48 
L 648 384.48 
L 648 51.84 
L 90 51.84 
z
" style="fill: #ffffff"/>
   </g>
   <g id="matplotlib.axis_1">
    <g id="xtick_1">
     <g id="line2d_1">
      <path d="M 107.848485 384.48 
L 107.848485 51.84 
" clip-path="url(#pb635a4723e)" style="fill: none; stroke: #b0b0b0; stroke-width: 0.8; stroke-linecap: square"/>
     </g>
     <g id="line2d_2">
      <defs>
       <path id="ma3ca5584d3" d="M 0 0 
L 0 3.5 
" style="stroke: #000000; stroke-width: 0.8"/>
      </defs>
      <g>
       <use xlink:href="#ma3ca5584d3" x="107.848485" y="384.48" style="stroke: #000000; stroke-width: 0.8"/>
      </g>
     </g>
     <g id="text_1">
      <!-- 40 -->
      <g transform="translate(102.848485 398.355) scale(0.1 -0.1)">
       <defs>
        <path id="SimHei-34" d="M 2000 1100 
L 75 1100 
L 75 1525 
L 2100 4450 
L 2475 4450 
L 2475 1525 
L 3075 1525 
L 3075 1100 
L 2475 1100 
L 2475 150 
L 2000 150 
L 2000 1100 
z
M 2000 1525 
L 2000 3500 
L 600 1525 
L 2000 1525 
z
" transform="scale(0.015625)"/>
        <path id="SimHei-30" d="M 225 2537 
Q 250 3200 412 3587 
Q 575 3975 875 4225 
Q 1175 4475 1612 4475 
Q 2050 4475 2375 4112 
Q 2700 3750 2800 3200 
Q 2900 2650 2862 1937 
Q 2825 1225 2612 775 
Q 2400 325 1975 150 
Q 1550 -25 1125 187 
Q 700 400 525 750 
Q 350 1100 275 1487 
Q 200 1875 225 2537 
z
M 750 2687 
Q 675 2000 800 1462 
Q 925 925 1212 700 
Q 1500 475 1800 612 
Q 2100 750 2237 1162 
Q 2375 1575 2375 2062 
Q 2375 2550 2337 2950 
Q 2300 3350 2112 3675 
Q 1925 4000 1612 4012 
Q 1300 4025 1062 3700 
Q 825 3375 750 2687 
z
" transform="scale(0.015625)"/>
       </defs>
       <use xlink:href="#SimHei-34"/>
       <use xlink:href="#SimHei-30" x="50"/>
      </g>
     </g>
    </g>
    <g id="xtick_2">
     <g id="line2d_3">
      <path d="M 183 384.48 
L 183 51.84 
" clip-path="url(#pb635a4723e)" style="fill: none; stroke: #b0b0b0; stroke-width: 0.8; stroke-linecap: square"/>
     </g>
     <g id="line2d_4">
      <g>
       <use xlink:href="#ma3ca5584d3" x="183" y="384.48" style="stroke: #000000; stroke-width: 0.8"/>
      </g>
     </g>
     <g id="text_2">
      <!-- 60 -->
      <g transform="translate(178 398.355) scale(0.1 -0.1)">
       <defs>
        <path id="SimHei-36" d="M 250 1612 
Q 275 1975 387 2225 
Q 500 2475 725 2850 
L 1750 4450 
L 2325 4450 
L 1275 2800 
Q 1950 2975 2350 2750 
Q 2750 2525 2887 2237 
Q 3025 1950 3037 1612 
Q 3050 1275 2937 950 
Q 2825 625 2537 362 
Q 2250 100 1737 75 
Q 1225 50 862 262 
Q 500 475 362 862 
Q 225 1250 250 1612 
z
M 1025 787 
Q 1250 550 1625 525 
Q 2000 500 2250 775 
Q 2500 1050 2500 1575 
Q 2500 2100 2187 2300 
Q 1875 2500 1487 2450 
Q 1100 2400 925 2075 
Q 750 1750 775 1387 
Q 800 1025 1025 787 
z
" transform="scale(0.015625)"/>
       </defs>
       <use xlink:href="#SimHei-36"/>
       <use xlink:href="#SimHei-30" x="50"/>
      </g>
     </g>
    </g>
    <g id="xtick_3">
     <g id="line2d_5">
      <path d="M 258.151515 384.48 
L 258.151515 51.84 
" clip-path="url(#pb635a4723e)" style="fill: none; stroke: #b0b0b0; stroke-width: 0.8; stroke-linecap: square"/>
     </g>
     <g id="line2d_6">
      <g>
       <use xlink:href="#ma3ca5584d3" x="258.151515" y="384.48" style="stroke: #000000; stroke-width: 0.8"/>
      </g>
     </g>
     <g id="text_3">
      <!-- 80 -->
      <g transform="translate(253.151515 398.355) scale(0.1 -0.1)">
       <defs>
        <path id="SimHei-38" d="M 175 1375 
Q 175 1675 325 1962 
Q 475 2250 825 2425 
Q 525 2600 425 2812 
Q 325 3025 312 3300 
Q 300 3575 387 3775 
Q 475 3975 650 4150 
Q 825 4325 1037 4387 
Q 1250 4450 1500 4450 
Q 1750 4450 1950 4400 
Q 2150 4350 2375 4187 
Q 2600 4025 2700 3725 
Q 2800 3425 2687 3025 
Q 2575 2625 2100 2400 
Q 2525 2275 2700 2012 
Q 2875 1750 2875 1375 
Q 2875 1000 2762 775 
Q 2650 550 2512 400 
Q 2375 250 2137 162 
Q 1900 75 1537 75 
Q 1175 75 912 162 
Q 650 250 475 425 
Q 300 600 237 837 
Q 175 1075 175 1375 
z
M 687 1400 
Q 675 1100 787 875 
Q 900 650 1200 587 
Q 1500 525 1825 600 
Q 2150 675 2275 950 
Q 2400 1225 2362 1500 
Q 2325 1775 2050 1962 
Q 1775 2150 1450 2125 
Q 1125 2100 912 1900 
Q 700 1700 687 1400 
z
M 775 3350 
Q 775 3100 950 2875 
Q 1125 2650 1500 2650 
Q 1875 2650 2062 2875 
Q 2250 3100 2237 3412 
Q 2225 3725 2012 3875 
Q 1800 4025 1437 4000 
Q 1075 3975 925 3787 
Q 775 3600 775 3350 
z
" transform="scale(0.015625)"/>
       </defs>
       <use xlink:href="#SimHei-38"/>
       <use xlink:href="#SimHei-30" x="50"/>
      </g>
     </g>
    </g>
    <g id="xtick_4">
     <g id="line2d_7">
      <path d="M 333.30303 384.48 
L 333.30303 51.84 
" clip-path="url(#pb635a4723e)" style="fill: none; stroke: #b0b0b0; stroke-width: 0.8; stroke-linecap: square"/>
     </g>
     <g id="line2d_8">
      <g>
       <use xlink:href="#ma3ca5584d3" x="333.30303" y="384.48" style="stroke: #000000; stroke-width: 0.8"/>
      </g>
     </g>
     <g id="text_4">
      <!-- 100 -->
      <g transform="translate(325.80303 398.355) scale(0.1 -0.1)">
       <defs>
        <path id="SimHei-31" d="M 1400 3600 
Q 1075 3275 575 2975 
L 575 3450 
Q 1200 3875 1600 4450 
L 1900 4450 
L 1900 150 
L 1400 150 
L 1400 3600 
z
" transform="scale(0.015625)"/>
       </defs>
       <use xlink:href="#SimHei-31"/>
       <use xlink:href="#SimHei-30" x="50"/>
       <use xlink:href="#SimHei-30" x="100"/>
      </g>
     </g>
    </g>
    <g id="xtick_5">
     <g id="line2d_9">
      <path d="M 408.454545 384.48 
L 408.454545 51.84 
" clip-path="url(#pb635a4723e)" style="fill: none; stroke: #b0b0b0; stroke-width: 0.8; stroke-linecap: square"/>
     </g>
     <g id="line2d_10">
      <g>
       <use xlink:href="#ma3ca5584d3" x="408.454545" y="384.48" style="stroke: #000000; stroke-width: 0.8"/>
      </g>
     </g>
     <g id="text_5">
      <!-- 120 -->
      <g transform="translate(400.954545 398.355) scale(0.1 -0.1)">
       <defs>
        <path id="SimHei-32" d="M 300 250 
Q 325 625 650 925 
Q 975 1225 1475 1862 
Q 1975 2500 2125 2850 
Q 2275 3200 2237 3450 
Q 2200 3700 2000 3862 
Q 1800 4025 1537 4000 
Q 1275 3975 1037 3800 
Q 800 3625 675 3275 
L 200 3350 
Q 400 3925 712 4187 
Q 1025 4450 1450 4475 
Q 1700 4500 1900 4462 
Q 2100 4425 2312 4287 
Q 2525 4150 2662 3875 
Q 2800 3600 2762 3212 
Q 2725 2825 2375 2287 
Q 2025 1750 1025 600 
L 2825 600 
L 2825 150 
L 300 150 
L 300 250 
z
" transform="scale(0.015625)"/>
       </defs>
       <use xlink:href="#SimHei-31"/>
       <use xlink:href="#SimHei-32" x="50"/>
       <use xlink:href="#SimHei-30" x="100"/>
      </g>
     </g>
    </g>
    <g id="xtick_6">
     <g id="line2d_11">
      <path d="M 483.606061 384.48 
L 483.606061 51.84 
" clip-path="url(#pb635a4723e)" style="fill: none; stroke: #b0b0b0; stroke-width: 0.8; stroke-linecap: square"/>
     </g>
     <g id="line2d_12">
      <g>
       <use xlink:href="#ma3ca5584d3" x="483.606061" y="384.48" style="stroke: #000000; stroke-width: 0.8"/>
      </g>
     </g>
     <g id="text_6">
      <!-- 140 -->
      <g transform="translate(476.106061 398.355) scale(0.1 -0.1)">
       <use xlink:href="#SimHei-31"/>
       <use xlink:href="#SimHei-34" x="50"/>
       <use xlink:href="#SimHei-30" x="100"/>
      </g>
     </g>
    </g>
    <g id="xtick_7">
     <g id="line2d_13">
      <path d="M 558.757576 384.48 
L 558.757576 51.84 
" clip-path="url(#pb635a4723e)" style="fill: none; stroke: #b0b0b0; stroke-width: 0.8; stroke-linecap: square"/>
     </g>
     <g id="line2d_14">
      <g>
       <use xlink:href="#ma3ca5584d3" x="558.757576" y="384.48" style="stroke: #000000; stroke-width: 0.8"/>
      </g>
     </g>
     <g id="text_7">
      <!-- 160 -->
      <g transform="translate(551.257576 398.355) scale(0.1 -0.1)">
       <use xlink:href="#SimHei-31"/>
       <use xlink:href="#SimHei-36" x="50"/>
       <use xlink:href="#SimHei-30" x="100"/>
      </g>
     </g>
    </g>
    <g id="xtick_8">
     <g id="line2d_15">
      <path d="M 633.909091 384.48 
L 633.909091 51.84 
" clip-path="url(#pb635a4723e)" style="fill: none; stroke: #b0b0b0; stroke-width: 0.8; stroke-linecap: square"/>
     </g>
     <g id="line2d_16">
      <g>
       <use xlink:href="#ma3ca5584d3" x="633.909091" y="384.48" style="stroke: #000000; stroke-width: 0.8"/>
      </g>
     </g>
     <g id="text_8">
      <!-- 180 -->
      <g transform="translate(626.409091 398.355) scale(0.1 -0.1)">
       <use xlink:href="#SimHei-31"/>
       <use xlink:href="#SimHei-38" x="50"/>
       <use xlink:href="#SimHei-30" x="100"/>
      </g>
     </g>
    </g>
    <g id="text_9">
     <!-- 周数 -->
     <g transform="translate(359 411.339375) scale(0.1 -0.1)">
      <defs>
       <path id="SimHei-5468" d="M 5600 4925 
Q 5575 4400 5575 3800 
L 5575 50 
Q 5550 -375 5325 -462 
Q 5100 -550 4325 -600 
Q 4300 -400 4125 -75 
Q 4800 -100 4962 -37 
Q 5125 25 5100 225 
L 5100 4525 
L 1500 4525 
Q 1500 2575 1450 1887 
Q 1400 1200 1237 550 
Q 1075 -100 775 -625 
Q 625 -450 275 -225 
Q 650 225 825 1000 
Q 1000 1775 1025 2587 
Q 1050 3400 1000 4925 
L 5600 4925 
z
M 2050 325 
Q 2075 625 2075 950 
L 2075 1400 
Q 2075 1625 2050 1925 
L 4400 1925 
Q 4375 1725 4375 1450 
L 4375 875 
Q 4375 600 4400 325 
L 2050 325 
z
M 3000 3800 
Q 3000 4150 2975 4375 
L 3475 4375 
Q 3450 4075 3450 3800 
Q 4100 3800 4475 3825 
L 4475 3350 
Q 4125 3375 3450 3375 
L 3450 2800 
Q 4200 2800 4825 2825 
L 4825 2350 
Q 4175 2375 3725 2375 
L 2750 2375 
Q 2325 2375 1725 2350 
L 1725 2825 
Q 2325 2800 3000 2800 
L 3000 3375 
Q 2500 3375 1975 3350 
L 1975 3825 
Q 2475 3800 3000 3800 
z
M 3900 725 
L 3900 1525 
L 2550 1525 
L 2550 725 
L 3900 725 
z
" transform="scale(0.015625)"/>
       <path id="SimHei-6570" d="M 4525 4925 
Q 4475 4800 4400 4587 
Q 4325 4375 4175 3825 
L 5325 3825 
Q 5575 3825 5925 3850 
L 5925 3400 
Q 5650 3425 5500 3425 
Q 5500 3025 5362 2162 
Q 5225 1300 4875 675 
Q 5125 375 5437 137 
Q 5750 -100 6025 -200 
Q 5725 -425 5625 -625 
Q 5325 -450 5075 -225 
Q 4825 0 4575 325 
Q 4300 25 3987 -187 
Q 3675 -400 3200 -650 
Q 3075 -425 2850 -300 
Q 3225 -150 3650 125 
Q 4075 400 4300 675 
Q 4125 1025 3962 1425 
Q 3800 1825 3675 2475 
Q 3600 2275 3425 1950 
Q 3250 2050 3000 2150 
Q 3400 2850 3650 3675 
Q 3900 4500 3975 5100 
Q 4275 4975 4525 4925 
z
M 2100 2250 
Q 2000 2150 1875 1925 
L 3250 1925 
Q 3100 1300 2725 675 
Q 3125 525 3350 400 
Q 3225 225 3125 25 
Q 2900 175 2450 325 
Q 1950 -225 725 -650 
Q 600 -375 400 -275 
Q 1575 0 2000 475 
Q 1300 650 850 775 
Q 1000 1000 1250 1525 
Q 1000 1525 425 1500 
L 425 1950 
Q 900 1925 1400 1925 
Q 1500 2150 1550 2425 
Q 1825 2325 2100 2250 
z
M 1775 3950 
Q 1775 4550 1750 5100 
L 2250 5100 
Q 2225 4575 2225 3950 
Q 3075 3950 3425 3975 
L 3425 3525 
Q 3075 3550 2225 3550 
Q 2225 2825 2250 2425 
L 1750 2425 
Q 1775 2775 1775 3300 
Q 1650 3100 1300 2787 
Q 950 2475 650 2300 
Q 525 2525 275 2625 
Q 500 2700 875 2975 
Q 1250 3250 1450 3550 
Q 950 3550 500 3525 
L 500 3975 
Q 925 3950 1775 3950 
z
M 3975 3175 
Q 4200 1700 4600 1125 
Q 4850 1700 4937 2287 
Q 5025 2875 5050 3425 
L 4075 3425 
L 3975 3175 
z
M 1450 1000 
Q 1750 925 2275 800 
Q 2475 1050 2650 1525 
L 1725 1525 
Q 1600 1275 1450 1000 
z
M 3325 4825 
Q 3200 4625 3125 4450 
Q 3050 4275 2925 4025 
Q 2725 4125 2525 4175 
Q 2725 4500 2900 5000 
Q 3150 4875 3325 4825 
z
M 2575 3375 
Q 2900 3050 3200 2725 
Q 3050 2600 2875 2425 
Q 2525 2850 2300 3100 
Q 2450 3225 2575 3375 
z
M 925 5000 
Q 1275 4650 1500 4300 
L 1125 4075 
Q 950 4425 600 4725 
Q 825 4875 925 5000 
z
" transform="scale(0.015625)"/>
      </defs>
      <use xlink:href="#SimHei-5468"/>
      <use xlink:href="#SimHei-6570" x="100"/>
     </g>
    </g>
   </g>
   <g id="matplotlib.axis_2">
    <g id="ytick_1">
     <g id="line2d_17">
      <path d="M 90 333.077337 
L 648 333.077337 
" clip-path="url(#pb635a4723e)" style="fill: none; stroke: #b0b0b0; stroke-width: 0.8; stroke-linecap: square"/>
     </g>
     <g id="line2d_18">
      <defs>
       <path id="md635909f50" d="M 0 0 
L -3.5 0 
" style="stroke: #000000; stroke-width: 0.8"/>
      </defs>
      <g>
       <use xlink:href="#md635909f50" x="90" y="333.077337" style="stroke: #000000; stroke-width: 0.8"/>
      </g>
     </g>
     <g id="text_10">
      <!-- 20000 -->
      <g transform="translate(58 336.514837) scale(0.1 -0.1)">
       <use xlink:href="#SimHei-32"/>
       <use xlink:href="#SimHei-30" x="50"/>
       <use xlink:href="#SimHei-30" x="100"/>
       <use xlink:href="#SimHei-30" x="150"/>
       <use xlink:href="#SimHei-30" x="200"/>
      </g>
     </g>
    </g>
    <g id="ytick_2">
     <g id="line2d_19">
      <path d="M 90 280.003449 
L 648 280.003449 
" clip-path="url(#pb635a4723e)" style="fill: none; stroke: #b0b0b0; stroke-width: 0.8; stroke-linecap: square"/>
     </g>
     <g id="line2d_20">
      <g>
       <use xlink:href="#md635909f50" x="90" y="280.003449" style="stroke: #000000; stroke-width: 0.8"/>
      </g>
     </g>
     <g id="text_11">
      <!-- 40000 -->
      <g transform="translate(58 283.440949) scale(0.1 -0.1)">
       <use xlink:href="#SimHei-34"/>
       <use xlink:href="#SimHei-30" x="50"/>
       <use xlink:href="#SimHei-30" x="100"/>
       <use xlink:href="#SimHei-30" x="150"/>
       <use xlink:href="#SimHei-30" x="200"/>
      </g>
     </g>
    </g>
    <g id="ytick_3">
     <g id="line2d_21">
      <path d="M 90 226.929561 
L 648 226.929561 
" clip-path="url(#pb635a4723e)" style="fill: none; stroke: #b0b0b0; stroke-width: 0.8; stroke-linecap: square"/>
     </g>
     <g id="line2d_22">
      <g>
       <use xlink:href="#md635909f50" x="90" y="226.929561" style="stroke: #000000; stroke-width: 0.8"/>
      </g>
     </g>
     <g id="text_12">
      <!-- 60000 -->
      <g transform="translate(58 230.367061) scale(0.1 -0.1)">
       <use xlink:href="#SimHei-36"/>
       <use xlink:href="#SimHei-30" x="50"/>
       <use xlink:href="#SimHei-30" x="100"/>
       <use xlink:href="#SimHei-30" x="150"/>
       <use xlink:href="#SimHei-30" x="200"/>
      </g>
     </g>
    </g>
    <g id="ytick_4">
     <g id="line2d_23">
      <path d="M 90 173.855673 
L 648 173.855673 
" clip-path="url(#pb635a4723e)" style="fill: none; stroke: #b0b0b0; stroke-width: 0.8; stroke-linecap: square"/>
     </g>
     <g id="line2d_24">
      <g>
       <use xlink:href="#md635909f50" x="90" y="173.855673" style="stroke: #000000; stroke-width: 0.8"/>
      </g>
     </g>
     <g id="text_13">
      <!-- 80000 -->
      <g transform="translate(58 177.293173) scale(0.1 -0.1)">
       <use xlink:href="#SimHei-38"/>
       <use xlink:href="#SimHei-30" x="50"/>
       <use xlink:href="#SimHei-30" x="100"/>
       <use xlink:href="#SimHei-30" x="150"/>
       <use xlink:href="#SimHei-30" x="200"/>
      </g>
     </g>
    </g>
    <g id="ytick_5">
     <g id="line2d_25">
      <path d="M 90 120.781785 
L 648 120.781785 
" clip-path="url(#pb635a4723e)" style="fill: none; stroke: #b0b0b0; stroke-width: 0.8; stroke-linecap: square"/>
     </g>
     <g id="line2d_26">
      <g>
       <use xlink:href="#md635909f50" x="90" y="120.781785" style="stroke: #000000; stroke-width: 0.8"/>
      </g>
     </g>
     <g id="text_14">
      <!-- 100000 -->
      <g transform="translate(53 124.219285) scale(0.1 -0.1)">
       <use xlink:href="#SimHei-31"/>
       <use xlink:href="#SimHei-30" x="50"/>
       <use xlink:href="#SimHei-30" x="100"/>
       <use xlink:href="#SimHei-30" x="150"/>
       <use xlink:href="#SimHei-30" x="200"/>
       <use xlink:href="#SimHei-30" x="250"/>
      </g>
     </g>
    </g>
    <g id="ytick_6">
     <g id="line2d_27">
      <path d="M 90 67.707897 
L 648 67.707897 
" clip-path="url(#pb635a4723e)" style="fill: none; stroke: #b0b0b0; stroke-width: 0.8; stroke-linecap: square"/>
     </g>
     <g id="line2d_28">
      <g>
       <use xlink:href="#md635909f50" x="90" y="67.707897" style="stroke: #000000; stroke-width: 0.8"/>
      </g>
     </g>
     <g id="text_15">
      <!-- 120000 -->
      <g transform="translate(53 71.145397) scale(0.1 -0.1)">
       <use xlink:href="#SimHei-31"/>
       <use xlink:href="#SimHei-32" x="50"/>
       <use xlink:href="#SimHei-30" x="100"/>
       <use xlink:href="#SimHei-30" x="150"/>
       <use xlink:href="#SimHei-30" x="200"/>
       <use xlink:href="#SimHei-30" x="250"/>
      </g>
     </g>
    </g>
    <g id="text_16">
     <!-- 收益 -->
     <g transform="translate(47.75 228.16) rotate(-90) scale(0.1 -0.1)">
      <defs>
       <path id="SimHei-6536" d="M 4250 5050 
Q 4125 4850 3750 4050 
L 5150 4050 
Q 5675 4050 6125 4075 
L 6125 3600 
Q 5675 3625 5300 3625 
Q 5225 2625 5025 1975 
Q 4825 1325 4575 900 
Q 4900 500 5287 275 
Q 5675 50 6200 -75 
Q 5900 -275 5800 -550 
Q 5300 -350 4950 -100 
Q 4600 150 4275 525 
Q 3800 0 2775 -625 
Q 2650 -425 2300 -225 
Q 3275 150 3950 925 
Q 3775 1325 3612 1787 
Q 3450 2250 3250 3000 
Q 2975 2450 2825 2275 
Q 2650 2400 2425 2525 
Q 2775 3025 3137 3837 
Q 3500 4650 3625 5250 
Q 3925 5125 4250 5050 
z
M 975 4275 
Q 925 3950 925 3450 
L 925 1575 
L 1775 1725 
L 1775 4425 
Q 1775 4775 1750 5150 
L 2250 5150 
Q 2225 4850 2225 4450 
L 2225 300 
Q 2225 -50 2250 -550 
L 1750 -550 
Q 1775 -25 1775 350 
L 1775 1350 
Q 625 1050 500 925 
Q 375 1125 225 1350 
Q 450 1475 450 1800 
L 450 3575 
Q 450 3925 425 4275 
L 975 4275 
z
M 3725 3150 
Q 3800 2700 3962 2212 
Q 4125 1725 4300 1375 
Q 4725 2150 4825 3625 
L 3575 3625 
Q 3400 3275 3300 3100 
L 3725 3150 
z
" transform="scale(0.015625)"/>
       <path id="SimHei-76ca" d="M 2825 2925 
Q 2425 2775 2012 2487 
Q 1600 2200 1225 1975 
L 5275 1975 
Q 5250 1575 5250 1000 
L 5250 -50 
Q 5800 -50 6175 -25 
L 6175 -525 
Q 5725 -500 5250 -500 
L 1325 -500 
Q 700 -500 250 -525 
L 250 -25 
Q 600 -50 1175 -50 
L 1175 1050 
Q 1175 1575 1150 1925 
Q 1000 1800 800 1700 
Q 650 1950 425 2125 
Q 800 2275 1312 2600 
Q 1825 2925 2325 3400 
Q 2550 3150 2825 2925 
z
M 4725 5050 
Q 4575 4900 4462 4637 
Q 4350 4375 4175 4075 
L 4625 4075 
Q 5350 4075 5900 4100 
L 5900 3625 
Q 5350 3650 4625 3650 
L 1975 3650 
Q 1350 3650 550 3625 
L 550 4100 
Q 1175 4075 1975 4075 
L 3675 4075 
Q 3775 4300 3887 4625 
Q 4000 4950 4125 5250 
L 4725 5050 
z
M 3600 -50 
L 3600 1575 
L 2800 1575 
L 2800 -50 
L 3600 -50 
z
M 4800 -50 
L 4800 1575 
L 4025 1575 
L 4025 -50 
L 4800 -50 
z
M 2375 -50 
L 2375 1575 
L 1625 1575 
L 1625 -50 
L 2375 -50 
z
M 3900 3350 
Q 4375 3150 4900 2925 
Q 5425 2700 5900 2500 
Q 5700 2300 5550 2000 
Q 5025 2300 4512 2537 
Q 4000 2775 3625 2900 
Q 3750 3075 3900 3350 
z
M 2150 5250 
Q 2375 4925 2650 4350 
Q 2425 4275 2150 4125 
Q 1950 4650 1675 5025 
Q 1875 5100 2150 5250 
z
" transform="scale(0.015625)"/>
      </defs>
      <use xlink:href="#SimHei-6536"/>
      <use xlink:href="#SimHei-76ca" x="100"/>
     </g>
    </g>
   </g>
   <g id="line2d_29">
    <path d="M 115.363636 352.332596 
L 122.878788 352.332161 
L 126.636364 352.332586 
L 130.393939 318.513947 
L 134.151515 352.332166 
L 137.909091 352.332166 
L 145.424242 318.513108 
L 149.181818 335.422637 
L 152.939394 352.332166 
L 156.69697 318.513108 
L 160.454545 251.292428 
L 164.212121 335.579176 
L 186.757576 318.721832 
L 190.515152 318.721832 
L 194.272727 217.780631 
L 201.787879 318.802987 
L 205.545455 251.454749 
L 209.30303 184.106512 
L 213.060606 318.802987 
L 216.818182 318.802987 
L 220.575758 318.565662 
L 224.333333 335.655756 
L 228.090909 268.554453 
L 231.848485 218.155837 
L 235.606061 318.953071 
L 239.363636 66.96 
L 243.121212 352.552148 
L 246.878788 285.366409 
L 250.636364 318.961348 
L 254.393939 268.573257 
L 258.151515 285.365142 
L 261.909091 318.960503 
L 265.666667 218.22815 
L 269.424242 151.058916 
L 273.181818 318.981991 
L 276.939394 218.228141 
L 280.69697 318.981991 
L 284.454545 151.060573 
L 288.212121 302.190278 
L 291.969697 285.398462 
L 295.727273 302.190613 
L 299.484848 134.269448 
L 303.242424 352.566995 
L 307 235.02219 
L 310.757576 251.814305 
L 314.515152 251.815067 
L 318.272727 251.814311 
L 322.030303 335.773097 
L 325.787879 285.397668 
L 329.545455 268.604275 
L 333.30303 268.603376 
L 337.060606 318.982823 
L 340.818182 352.567024 
L 344.575758 352.567024 
L 348.333333 318.982823 
L 352.090909 352.567024 
L 355.848485 352.567024 
L 359.606061 318.983636 
L 363.363636 335.775108 
L 370.878788 302.1911 
L 382.151515 335.775723 
L 385.909091 318.983636 
L 389.666667 318.983636 
L 400.939394 352.567809 
L 404.69697 352.567988 
L 408.454545 352.567988 
L 412.212121 318.984751 
L 415.969697 285.401156 
L 419.727273 335.776369 
L 423.484848 369.359606 
L 427.242424 302.19355 
L 434.757576 352.567988 
L 442.272727 335.77703 
L 453.545455 318.986422 
L 457.30303 285.40363 
L 461.060606 302.194845 
L 464.818182 285.403264 
L 468.575758 352.568825 
L 472.333333 335.777302 
L 476.090909 318.986283 
L 479.848485 285.403745 
L 483.606061 302.195083 
L 487.363636 285.403882 
L 491.121212 369.36 
L 494.878788 318.986326 
L 498.636364 318.986326 
L 502.393939 151.074259 
L 506.151515 285.403877 
L 509.909091 302.195172 
L 513.666667 184.656737 
L 517.424242 302.195171 
L 521.181818 318.986371 
L 524.939394 352.568821 
L 528.69697 268.61283 
L 532.454545 151.074412 
L 539.969697 335.777627 
L 543.727273 251.821632 
L 547.484848 352.568828 
L 562.515152 352.568828 
L 570.030303 352.568828 
L 577.545455 268.612837 
L 581.30303 268.612837 
L 585.060606 218.239239 
L 588.818182 235.03044 
L 592.575758 218.239242 
L 596.333333 302.19523 
L 600.090909 352.568828 
L 603.848485 268.6122 
L 607.606061 318.985795 
L 611.363636 302.194756 
L 618.878788 302.194278 
L 622.636364 218.23765 
" clip-path="url(#pb635a4723e)" style="fill: none; stroke: #008000; stroke-width: 1.5; stroke-linecap: square"/>
    <defs>
     <path id="m7b85a6d3bf" d="M 0 3 
C 0.795609 3 1.55874 2.683901 2.12132 2.12132 
C 2.683901 1.55874 3 0.795609 3 0 
C 3 -0.795609 2.683901 -1.55874 2.12132 -2.12132 
C 1.55874 -2.683901 0.795609 -3 0 -3 
C -0.795609 -3 -1.55874 -2.683901 -2.12132 -2.12132 
C -2.683901 -1.55874 -3 -0.795609 -3 0 
C -3 0.795609 -2.683901 1.55874 -2.12132 2.12132 
C -1.55874 2.683901 -0.795609 3 0 3 
z
" style="stroke: #008000"/>
    </defs>
    <g clip-path="url(#pb635a4723e)">
     <use xlink:href="#m7b85a6d3bf" x="115.363636" y="352.332596" style="fill: #008000; stroke: #008000"/>
     <use xlink:href="#m7b85a6d3bf" x="122.878788" y="352.332161" style="fill: #008000; stroke: #008000"/>
     <use xlink:href="#m7b85a6d3bf" x="126.636364" y="352.332586" style="fill: #008000; stroke: #008000"/>
     <use xlink:href="#m7b85a6d3bf" x="130.393939" y="318.513947" style="fill: #008000; stroke: #008000"/>
     <use xlink:href="#m7b85a6d3bf" x="134.151515" y="352.332166" style="fill: #008000; stroke: #008000"/>
     <use xlink:href="#m7b85a6d3bf" x="137.909091" y="352.332166" style="fill: #008000; stroke: #008000"/>
     <use xlink:href="#m7b85a6d3bf" x="145.424242" y="318.513108" style="fill: #008000; stroke: #008000"/>
     <use xlink:href="#m7b85a6d3bf" x="149.181818" y="335.422637" style="fill: #008000; stroke: #008000"/>
     <use xlink:href="#m7b85a6d3bf" x="152.939394" y="352.332166" style="fill: #008000; stroke: #008000"/>
     <use xlink:href="#m7b85a6d3bf" x="156.69697" y="318.513108" style="fill: #008000; stroke: #008000"/>
     <use xlink:href="#m7b85a6d3bf" x="160.454545" y="251.292428" style="fill: #008000; stroke: #008000"/>
     <use xlink:href="#m7b85a6d3bf" x="164.212121" y="335.579176" style="fill: #008000; stroke: #008000"/>
     <use xlink:href="#m7b85a6d3bf" x="186.757576" y="318.721832" style="fill: #008000; stroke: #008000"/>
     <use xlink:href="#m7b85a6d3bf" x="190.515152" y="318.721832" style="fill: #008000; stroke: #008000"/>
     <use xlink:href="#m7b85a6d3bf" x="194.272727" y="217.780631" style="fill: #008000; stroke: #008000"/>
     <use xlink:href="#m7b85a6d3bf" x="201.787879" y="318.802987" style="fill: #008000; stroke: #008000"/>
     <use xlink:href="#m7b85a6d3bf" x="205.545455" y="251.454749" style="fill: #008000; stroke: #008000"/>
     <use xlink:href="#m7b85a6d3bf" x="209.30303" y="184.106512" style="fill: #008000; stroke: #008000"/>
     <use xlink:href="#m7b85a6d3bf" x="213.060606" y="318.802987" style="fill: #008000; stroke: #008000"/>
     <use xlink:href="#m7b85a6d3bf" x="216.818182" y="318.802987" style="fill: #008000; stroke: #008000"/>
     <use xlink:href="#m7b85a6d3bf" x="220.575758" y="318.565662" style="fill: #008000; stroke: #008000"/>
     <use xlink:href="#m7b85a6d3bf" x="224.333333" y="335.655756" style="fill: #008000; stroke: #008000"/>
     <use xlink:href="#m7b85a6d3bf" x="228.090909" y="268.554453" style="fill: #008000; stroke: #008000"/>
     <use xlink:href="#m7b85a6d3bf" x="231.848485" y="218.155837" style="fill: #008000; stroke: #008000"/>
     <use xlink:href="#m7b85a6d3bf" x="235.606061" y="318.953071" style="fill: #008000; stroke: #008000"/>
     <use xlink:href="#m7b85a6d3bf" x="239.363636" y="66.96" style="fill: #008000; stroke: #008000"/>
     <use xlink:href="#m7b85a6d3bf" x="243.121212" y="352.552148" style="fill: #008000; stroke: #008000"/>
     <use xlink:href="#m7b85a6d3bf" x="246.878788" y="285.366409" style="fill: #008000; stroke: #008000"/>
     <use xlink:href="#m7b85a6d3bf" x="250.636364" y="318.961348" style="fill: #008000; stroke: #008000"/>
     <use xlink:href="#m7b85a6d3bf" x="254.393939" y="268.573257" style="fill: #008000; stroke: #008000"/>
     <use xlink:href="#m7b85a6d3bf" x="258.151515" y="285.365142" style="fill: #008000; stroke: #008000"/>
     <use xlink:href="#m7b85a6d3bf" x="261.909091" y="318.960503" style="fill: #008000; stroke: #008000"/>
     <use xlink:href="#m7b85a6d3bf" x="265.666667" y="218.22815" style="fill: #008000; stroke: #008000"/>
     <use xlink:href="#m7b85a6d3bf" x="269.424242" y="151.058916" style="fill: #008000; stroke: #008000"/>
     <use xlink:href="#m7b85a6d3bf" x="273.181818" y="318.981991" style="fill: #008000; stroke: #008000"/>
     <use xlink:href="#m7b85a6d3bf" x="276.939394" y="218.228141" style="fill: #008000; stroke: #008000"/>
     <use xlink:href="#m7b85a6d3bf" x="280.69697" y="318.981991" style="fill: #008000; stroke: #008000"/>
     <use xlink:href="#m7b85a6d3bf" x="284.454545" y="151.060573" style="fill: #008000; stroke: #008000"/>
     <use xlink:href="#m7b85a6d3bf" x="288.212121" y="302.190278" style="fill: #008000; stroke: #008000"/>
     <use xlink:href="#m7b85a6d3bf" x="291.969697" y="285.398462" style="fill: #008000; stroke: #008000"/>
     <use xlink:href="#m7b85a6d3bf" x="295.727273" y="302.190613" style="fill: #008000; stroke: #008000"/>
     <use xlink:href="#m7b85a6d3bf" x="299.484848" y="134.269448" style="fill: #008000; stroke: #008000"/>
     <use xlink:href="#m7b85a6d3bf" x="303.242424" y="352.566995" style="fill: #008000; stroke: #008000"/>
     <use xlink:href="#m7b85a6d3bf" x="307" y="235.02219" style="fill: #008000; stroke: #008000"/>
     <use xlink:href="#m7b85a6d3bf" x="310.757576" y="251.814305" style="fill: #008000; stroke: #008000"/>
     <use xlink:href="#m7b85a6d3bf" x="314.515152" y="251.815067" style="fill: #008000; stroke: #008000"/>
     <use xlink:href="#m7b85a6d3bf" x="318.272727" y="251.814311" style="fill: #008000; stroke: #008000"/>
     <use xlink:href="#m7b85a6d3bf" x="322.030303" y="335.773097" style="fill: #008000; stroke: #008000"/>
     <use xlink:href="#m7b85a6d3bf" x="325.787879" y="285.397668" style="fill: #008000; stroke: #008000"/>
     <use xlink:href="#m7b85a6d3bf" x="329.545455" y="268.604275" style="fill: #008000; stroke: #008000"/>
     <use xlink:href="#m7b85a6d3bf" x="333.30303" y="268.603376" style="fill: #008000; stroke: #008000"/>
     <use xlink:href="#m7b85a6d3bf" x="337.060606" y="318.982823" style="fill: #008000; stroke: #008000"/>
     <use xlink:href="#m7b85a6d3bf" x="340.818182" y="352.567024" style="fill: #008000; stroke: #008000"/>
     <use xlink:href="#m7b85a6d3bf" x="344.575758" y="352.567024" style="fill: #008000; stroke: #008000"/>
     <use xlink:href="#m7b85a6d3bf" x="348.333333" y="318.982823" style="fill: #008000; stroke: #008000"/>
     <use xlink:href="#m7b85a6d3bf" x="352.090909" y="352.567024" style="fill: #008000; stroke: #008000"/>
     <use xlink:href="#m7b85a6d3bf" x="355.848485" y="352.567024" style="fill: #008000; stroke: #008000"/>
     <use xlink:href="#m7b85a6d3bf" x="359.606061" y="318.983636" style="fill: #008000; stroke: #008000"/>
     <use xlink:href="#m7b85a6d3bf" x="363.363636" y="335.775108" style="fill: #008000; stroke: #008000"/>
     <use xlink:href="#m7b85a6d3bf" x="370.878788" y="302.1911" style="fill: #008000; stroke: #008000"/>
     <use xlink:href="#m7b85a6d3bf" x="382.151515" y="335.775723" style="fill: #008000; stroke: #008000"/>
     <use xlink:href="#m7b85a6d3bf" x="385.909091" y="318.983636" style="fill: #008000; stroke: #008000"/>
     <use xlink:href="#m7b85a6d3bf" x="389.666667" y="318.983636" style="fill: #008000; stroke: #008000"/>
     <use xlink:href="#m7b85a6d3bf" x="400.939394" y="352.567809" style="fill: #008000; stroke: #008000"/>
     <use xlink:href="#m7b85a6d3bf" x="404.69697" y="352.567988" style="fill: #008000; stroke: #008000"/>
     <use xlink:href="#m7b85a6d3bf" x="408.454545" y="352.567988" style="fill: #008000; stroke: #008000"/>
     <use xlink:href="#m7b85a6d3bf" x="412.212121" y="318.984751" style="fill: #008000; stroke: #008000"/>
     <use xlink:href="#m7b85a6d3bf" x="415.969697" y="285.401156" style="fill: #008000; stroke: #008000"/>
     <use xlink:href="#m7b85a6d3bf" x="419.727273" y="335.776369" style="fill: #008000; stroke: #008000"/>
     <use xlink:href="#m7b85a6d3bf" x="423.484848" y="369.359606" style="fill: #008000; stroke: #008000"/>
     <use xlink:href="#m7b85a6d3bf" x="427.242424" y="302.19355" style="fill: #008000; stroke: #008000"/>
     <use xlink:href="#m7b85a6d3bf" x="434.757576" y="352.567988" style="fill: #008000; stroke: #008000"/>
     <use xlink:href="#m7b85a6d3bf" x="442.272727" y="335.77703" style="fill: #008000; stroke: #008000"/>
     <use xlink:href="#m7b85a6d3bf" x="453.545455" y="318.986422" style="fill: #008000; stroke: #008000"/>
     <use xlink:href="#m7b85a6d3bf" x="457.30303" y="285.40363" style="fill: #008000; stroke: #008000"/>
     <use xlink:href="#m7b85a6d3bf" x="461.060606" y="302.194845" style="fill: #008000; stroke: #008000"/>
     <use xlink:href="#m7b85a6d3bf" x="464.818182" y="285.403264" style="fill: #008000; stroke: #008000"/>
     <use xlink:href="#m7b85a6d3bf" x="468.575758" y="352.568825" style="fill: #008000; stroke: #008000"/>
     <use xlink:href="#m7b85a6d3bf" x="472.333333" y="335.777302" style="fill: #008000; stroke: #008000"/>
     <use xlink:href="#m7b85a6d3bf" x="476.090909" y="318.986283" style="fill: #008000; stroke: #008000"/>
     <use xlink:href="#m7b85a6d3bf" x="479.848485" y="285.403745" style="fill: #008000; stroke: #008000"/>
     <use xlink:href="#m7b85a6d3bf" x="483.606061" y="302.195083" style="fill: #008000; stroke: #008000"/>
     <use xlink:href="#m7b85a6d3bf" x="487.363636" y="285.403882" style="fill: #008000; stroke: #008000"/>
     <use xlink:href="#m7b85a6d3bf" x="491.121212" y="369.36" style="fill: #008000; stroke: #008000"/>
     <use xlink:href="#m7b85a6d3bf" x="494.878788" y="318.986326" style="fill: #008000; stroke: #008000"/>
     <use xlink:href="#m7b85a6d3bf" x="498.636364" y="318.986326" style="fill: #008000; stroke: #008000"/>
     <use xlink:href="#m7b85a6d3bf" x="502.393939" y="151.074259" style="fill: #008000; stroke: #008000"/>
     <use xlink:href="#m7b85a6d3bf" x="506.151515" y="285.403877" style="fill: #008000; stroke: #008000"/>
     <use xlink:href="#m7b85a6d3bf" x="509.909091" y="302.195172" style="fill: #008000; stroke: #008000"/>
     <use xlink:href="#m7b85a6d3bf" x="513.666667" y="184.656737" style="fill: #008000; stroke: #008000"/>
     <use xlink:href="#m7b85a6d3bf" x="517.424242" y="302.195171" style="fill: #008000; stroke: #008000"/>
     <use xlink:href="#m7b85a6d3bf" x="521.181818" y="318.986371" style="fill: #008000; stroke: #008000"/>
     <use xlink:href="#m7b85a6d3bf" x="524.939394" y="352.568821" style="fill: #008000; stroke: #008000"/>
     <use xlink:href="#m7b85a6d3bf" x="528.69697" y="268.61283" style="fill: #008000; stroke: #008000"/>
     <use xlink:href="#m7b85a6d3bf" x="532.454545" y="151.074412" style="fill: #008000; stroke: #008000"/>
     <use xlink:href="#m7b85a6d3bf" x="539.969697" y="335.777627" style="fill: #008000; stroke: #008000"/>
     <use xlink:href="#m7b85a6d3bf" x="543.727273" y="251.821632" style="fill: #008000; stroke: #008000"/>
     <use xlink:href="#m7b85a6d3bf" x="547.484848" y="352.568828" style="fill: #008000; stroke: #008000"/>
     <use xlink:href="#m7b85a6d3bf" x="562.515152" y="352.568828" style="fill: #008000; stroke: #008000"/>
     <use xlink:href="#m7b85a6d3bf" x="570.030303" y="352.568828" style="fill: #008000; stroke: #008000"/>
     <use xlink:href="#m7b85a6d3bf" x="577.545455" y="268.612837" style="fill: #008000; stroke: #008000"/>
     <use xlink:href="#m7b85a6d3bf" x="581.30303" y="268.612837" style="fill: #008000; stroke: #008000"/>
     <use xlink:href="#m7b85a6d3bf" x="585.060606" y="218.239239" style="fill: #008000; stroke: #008000"/>
     <use xlink:href="#m7b85a6d3bf" x="588.818182" y="235.03044" style="fill: #008000; stroke: #008000"/>
     <use xlink:href="#m7b85a6d3bf" x="592.575758" y="218.239242" style="fill: #008000; stroke: #008000"/>
     <use xlink:href="#m7b85a6d3bf" x="596.333333" y="302.19523" style="fill: #008000; stroke: #008000"/>
     <use xlink:href="#m7b85a6d3bf" x="600.090909" y="352.568828" style="fill: #008000; stroke: #008000"/>
     <use xlink:href="#m7b85a6d3bf" x="603.848485" y="268.6122" style="fill: #008000; stroke: #008000"/>
     <use xlink:href="#m7b85a6d3bf" x="607.606061" y="318.985795" style="fill: #008000; stroke: #008000"/>
     <use xlink:href="#m7b85a6d3bf" x="611.363636" y="302.194756" style="fill: #008000; stroke: #008000"/>
     <use xlink:href="#m7b85a6d3bf" x="618.878788" y="302.194278" style="fill: #008000; stroke: #008000"/>
     <use xlink:href="#m7b85a6d3bf" x="622.636364" y="218.23765" style="fill: #008000; stroke: #008000"/>
    </g>
   </g>
   <g id="patch_3">
    <path d="M 90 384.48 
L 90 51.84 
" style="fill: none; stroke: #000000; stroke-width: 0.8; stroke-linejoin: miter; stroke-linecap: square"/>
   </g>
   <g id="patch_4">
    <path d="M 648 384.48 
L 648 51.84 
" style="fill: none; stroke: #000000; stroke-width: 0.8; stroke-linejoin: miter; stroke-linecap: square"/>
   </g>
   <g id="patch_5">
    <path d="M 90 384.48 
L 648 384.48 
" style="fill: none; stroke: #000000; stroke-width: 0.8; stroke-linejoin: miter; stroke-linecap: square"/>
   </g>
   <g id="patch_6">
    <path d="M 90 51.84 
L 648 51.84 
" style="fill: none; stroke: #000000; stroke-width: 0.8; stroke-linejoin: miter; stroke-linecap: square"/>
   </g>
   <g id="text_17">
    <!-- 6004020900 每周收益 -->
    <g transform="translate(312 45.84) scale(0.12 -0.12)">
     <defs>
      <path id="SimHei-39" d="M 800 75 
Q 1350 1000 1700 1750 
Q 1075 1650 662 1912 
Q 250 2175 162 2625 
Q 75 3075 175 3437 
Q 275 3800 487 4037 
Q 700 4275 1000 4375 
Q 1300 4475 1537 4475 
Q 1775 4475 2025 4375 
Q 2275 4275 2475 4075 
Q 2675 3875 2750 3662 
Q 2825 3450 2825 3112 
Q 2825 2775 2575 2250 
Q 2325 1725 1350 75 
L 800 75 
z
M 662 2875 
Q 700 2550 937 2337 
Q 1175 2125 1450 2150 
Q 1725 2175 1887 2300 
Q 2050 2425 2200 2725 
Q 2300 3100 2250 3362 
Q 2200 3625 1987 3800 
Q 1775 3975 1525 3975 
Q 1375 4000 1137 3900 
Q 900 3800 762 3500 
Q 625 3200 662 2875 
z
" transform="scale(0.015625)"/>
      <path id="SimHei-20" transform="scale(0.015625)"/>
      <path id="SimHei-6bcf" d="M 5225 3650 
Q 5175 3150 5150 2675 
L 5125 2200 
Q 5525 2200 6000 2225 
L 6000 1775 
Q 5625 1800 5100 1800 
L 5050 650 
Q 5325 650 5700 675 
L 5700 225 
Q 5400 250 5025 250 
Q 5000 -275 4775 -425 
Q 4550 -575 4000 -650 
Q 3950 -400 3775 -125 
Q 4375 -125 4475 -50 
Q 4575 25 4575 250 
L 1400 250 
L 1500 1100 
L 1550 1800 
L 1275 1800 
Q 825 1800 550 1775 
L 550 2225 
Q 975 2200 1275 2200 
L 1575 2200 
L 1625 2825 
L 1675 3650 
L 5225 3650 
z
M 2350 5000 
Q 2175 4825 2050 4600 
L 4875 4600 
Q 5275 4600 5775 4625 
L 5775 4175 
Q 5275 4200 4875 4200 
L 1825 4200 
L 1375 3625 
Q 1125 3325 775 2975 
Q 600 3175 350 3300 
Q 725 3575 1150 4112 
Q 1575 4650 1825 5250 
Q 2125 5075 2350 5000 
z
M 1975 1800 
L 1875 650 
L 4625 650 
L 4675 1800 
L 2950 1800 
Q 3575 1275 3825 1125 
Q 3625 925 3475 725 
Q 3100 1100 2650 1475 
Q 2775 1675 2875 1800 
L 1975 1800 
z
M 2975 3250 
Q 3125 3150 3287 3012 
Q 3450 2875 3800 2550 
Q 3650 2350 3525 2200 
L 4700 2200 
L 4750 3250 
L 2975 3250 
z
M 2075 3250 
L 2000 2200 
L 3425 2200 
Q 3150 2500 3012 2625 
Q 2875 2750 2700 2900 
Q 2800 3050 2925 3250 
L 2075 3250 
z
" transform="scale(0.015625)"/>
     </defs>
     <use xlink:href="#SimHei-36"/>
     <use xlink:href="#SimHei-30" x="50"/>
     <use xlink:href="#SimHei-30" x="100"/>
     <use xlink:href="#SimHei-34" x="150"/>
     <use xlink:href="#SimHei-30" x="200"/>
     <use xlink:href="#SimHei-32" x="250"/>
     <use xlink:href="#SimHei-30" x="300"/>
     <use xlink:href="#SimHei-39" x="350"/>
     <use xlink:href="#SimHei-30" x="400"/>
     <use xlink:href="#SimHei-30" x="450"/>
     <use xlink:href="#SimHei-20" x="500"/>
     <use xlink:href="#SimHei-6bcf" x="550"/>
     <use xlink:href="#SimHei-5468" x="650"/>
     <use xlink:href="#SimHei-6536" x="750"/>
     <use xlink:href="#SimHei-76ca" x="850"/>
    </g>
   </g>
  </g>
 </g>
 <defs>
  <clipPath id="pb635a4723e">
   <rect x="90" y="51.84" width="558" height="332.64"/>
  </clipPath>
 </defs>
</svg>
