<?xml version="1.0" encoding="utf-8" standalone="no"?>
<!DOCTYPE svg PUBLIC "-//W3C//DTD SVG 1.1//EN"
  "http://www.w3.org/Graphics/SVG/1.1/DTD/svg11.dtd">
<svg xmlns:xlink="http://www.w3.org/1999/xlink" width="720pt" height="432pt" viewBox="0 0 720 432" xmlns="http://www.w3.org/2000/svg" version="1.1">
 <metadata>
  <rdf:RDF xmlns:dc="http://purl.org/dc/elements/1.1/" xmlns:cc="http://creativecommons.org/ns#" xmlns:rdf="http://www.w3.org/1999/02/22-rdf-syntax-ns#">
   <cc:Work>
    <dc:type rdf:resource="http://purl.org/dc/dcmitype/StillImage"/>
    <dc:date>2024-08-17T14:06:54.796743</dc:date>
    <dc:format>image/svg+xml</dc:format>
    <dc:creator>
     <cc:Agent>
      <dc:title>Matplotlib v3.8.0, https://matplotlib.org/</dc:title>
     </cc:Agent>
    </dc:creator>
   </cc:Work>
  </rdf:RDF>
 </metadata>
 <defs>
  <style type="text/css">*{stroke-linejoin: round; stroke-linecap: butt}</style>
 </defs>
 <g id="figure_1">
  <g id="patch_1">
   <path d="M 0 432 
L 720 432 
L 720 0 
L 0 0 
z
" style="fill: #ffffff"/>
  </g>
  <g id="axes_1">
   <g id="patch_2">
    <path d="M 90 384.48 
L 648 384.48 
L 648 51.84 
L 90 51.84 
z
" style="fill: #ffffff"/>
   </g>
   <g id="matplotlib.axis_1">
    <g id="xtick_1">
     <g id="line2d_1">
      <path d="M 163.675325 384.48 
L 163.675325 51.84 
" clip-path="url(#p56bf6980e4)" style="fill: none; stroke: #b0b0b0; stroke-width: 0.8; stroke-linecap: square"/>
     </g>
     <g id="line2d_2">
      <defs>
       <path id="m5965a378e2" d="M 0 0 
L 0 3.5 
" style="stroke: #000000; stroke-width: 0.8"/>
      </defs>
      <g>
       <use xlink:href="#m5965a378e2" x="163.675325" y="384.48" style="stroke: #000000; stroke-width: 0.8"/>
      </g>
     </g>
     <g id="text_1">
      <!-- 25 -->
      <g transform="translate(158.675325 398.355) scale(0.1 -0.1)">
       <defs>
        <path id="SimHei-32" d="M 300 250 
Q 325 625 650 925 
Q 975 1225 1475 1862 
Q 1975 2500 2125 2850 
Q 2275 3200 2237 3450 
Q 2200 3700 2000 3862 
Q 1800 4025 1537 4000 
Q 1275 3975 1037 3800 
Q 800 3625 675 3275 
L 200 3350 
Q 400 3925 712 4187 
Q 1025 4450 1450 4475 
Q 1700 4500 1900 4462 
Q 2100 4425 2312 4287 
Q 2525 4150 2662 3875 
Q 2800 3600 2762 3212 
Q 2725 2825 2375 2287 
Q 2025 1750 1025 600 
L 2825 600 
L 2825 150 
L 300 150 
L 300 250 
z
" transform="scale(0.015625)"/>
        <path id="SimHei-35" d="M 550 1325 
Q 725 650 1150 575 
Q 1575 500 1837 662 
Q 2100 825 2212 1087 
Q 2325 1350 2312 1675 
Q 2300 2000 2137 2225 
Q 1975 2450 1725 2525 
Q 1475 2600 1162 2525 
Q 850 2450 650 2175 
L 225 2225 
Q 275 2375 700 4375 
L 2675 4375 
L 2675 3925 
L 1075 3925 
Q 950 3250 825 2850 
Q 1200 3025 1525 3012 
Q 1850 3000 2150 2862 
Q 2450 2725 2587 2487 
Q 2725 2250 2787 2012 
Q 2850 1775 2837 1500 
Q 2825 1225 2725 937 
Q 2625 650 2425 462 
Q 2225 275 1937 162 
Q 1650 50 1275 75 
Q 900 100 562 350 
Q 225 600 100 1200 
L 550 1325 
z
" transform="scale(0.015625)"/>
       </defs>
       <use xlink:href="#SimHei-32"/>
       <use xlink:href="#SimHei-35" x="50"/>
      </g>
     </g>
    </g>
    <g id="xtick_2">
     <g id="line2d_3">
      <path d="M 239.162338 384.48 
L 239.162338 51.84 
" clip-path="url(#p56bf6980e4)" style="fill: none; stroke: #b0b0b0; stroke-width: 0.8; stroke-linecap: square"/>
     </g>
     <g id="line2d_4">
      <g>
       <use xlink:href="#m5965a378e2" x="239.162338" y="384.48" style="stroke: #000000; stroke-width: 0.8"/>
      </g>
     </g>
     <g id="text_2">
      <!-- 50 -->
      <g transform="translate(234.162338 398.355) scale(0.1 -0.1)">
       <defs>
        <path id="SimHei-30" d="M 225 2537 
Q 250 3200 412 3587 
Q 575 3975 875 4225 
Q 1175 4475 1612 4475 
Q 2050 4475 2375 4112 
Q 2700 3750 2800 3200 
Q 2900 2650 2862 1937 
Q 2825 1225 2612 775 
Q 2400 325 1975 150 
Q 1550 -25 1125 187 
Q 700 400 525 750 
Q 350 1100 275 1487 
Q 200 1875 225 2537 
z
M 750 2687 
Q 675 2000 800 1462 
Q 925 925 1212 700 
Q 1500 475 1800 612 
Q 2100 750 2237 1162 
Q 2375 1575 2375 2062 
Q 2375 2550 2337 2950 
Q 2300 3350 2112 3675 
Q 1925 4000 1612 4012 
Q 1300 4025 1062 3700 
Q 825 3375 750 2687 
z
" transform="scale(0.015625)"/>
       </defs>
       <use xlink:href="#SimHei-35"/>
       <use xlink:href="#SimHei-30" x="50"/>
      </g>
     </g>
    </g>
    <g id="xtick_3">
     <g id="line2d_5">
      <path d="M 314.649351 384.48 
L 314.649351 51.84 
" clip-path="url(#p56bf6980e4)" style="fill: none; stroke: #b0b0b0; stroke-width: 0.8; stroke-linecap: square"/>
     </g>
     <g id="line2d_6">
      <g>
       <use xlink:href="#m5965a378e2" x="314.649351" y="384.48" style="stroke: #000000; stroke-width: 0.8"/>
      </g>
     </g>
     <g id="text_3">
      <!-- 75 -->
      <g transform="translate(309.649351 398.355) scale(0.1 -0.1)">
       <defs>
        <path id="SimHei-37" d="M 850 150 
Q 1300 2050 2425 3925 
L 275 3925 
L 275 4375 
L 2950 4375 
L 2950 3950 
Q 1775 2050 1400 150 
L 850 150 
z
" transform="scale(0.015625)"/>
       </defs>
       <use xlink:href="#SimHei-37"/>
       <use xlink:href="#SimHei-35" x="50"/>
      </g>
     </g>
    </g>
    <g id="xtick_4">
     <g id="line2d_7">
      <path d="M 390.136364 384.48 
L 390.136364 51.84 
" clip-path="url(#p56bf6980e4)" style="fill: none; stroke: #b0b0b0; stroke-width: 0.8; stroke-linecap: square"/>
     </g>
     <g id="line2d_8">
      <g>
       <use xlink:href="#m5965a378e2" x="390.136364" y="384.48" style="stroke: #000000; stroke-width: 0.8"/>
      </g>
     </g>
     <g id="text_4">
      <!-- 100 -->
      <g transform="translate(382.636364 398.355) scale(0.1 -0.1)">
       <defs>
        <path id="SimHei-31" d="M 1400 3600 
Q 1075 3275 575 2975 
L 575 3450 
Q 1200 3875 1600 4450 
L 1900 4450 
L 1900 150 
L 1400 150 
L 1400 3600 
z
" transform="scale(0.015625)"/>
       </defs>
       <use xlink:href="#SimHei-31"/>
       <use xlink:href="#SimHei-30" x="50"/>
       <use xlink:href="#SimHei-30" x="100"/>
      </g>
     </g>
    </g>
    <g id="xtick_5">
     <g id="line2d_9">
      <path d="M 465.623377 384.48 
L 465.623377 51.84 
" clip-path="url(#p56bf6980e4)" style="fill: none; stroke: #b0b0b0; stroke-width: 0.8; stroke-linecap: square"/>
     </g>
     <g id="line2d_10">
      <g>
       <use xlink:href="#m5965a378e2" x="465.623377" y="384.48" style="stroke: #000000; stroke-width: 0.8"/>
      </g>
     </g>
     <g id="text_5">
      <!-- 125 -->
      <g transform="translate(458.123377 398.355) scale(0.1 -0.1)">
       <use xlink:href="#SimHei-31"/>
       <use xlink:href="#SimHei-32" x="50"/>
       <use xlink:href="#SimHei-35" x="100"/>
      </g>
     </g>
    </g>
    <g id="xtick_6">
     <g id="line2d_11">
      <path d="M 541.11039 384.48 
L 541.11039 51.84 
" clip-path="url(#p56bf6980e4)" style="fill: none; stroke: #b0b0b0; stroke-width: 0.8; stroke-linecap: square"/>
     </g>
     <g id="line2d_12">
      <g>
       <use xlink:href="#m5965a378e2" x="541.11039" y="384.48" style="stroke: #000000; stroke-width: 0.8"/>
      </g>
     </g>
     <g id="text_6">
      <!-- 150 -->
      <g transform="translate(533.61039 398.355) scale(0.1 -0.1)">
       <use xlink:href="#SimHei-31"/>
       <use xlink:href="#SimHei-35" x="50"/>
       <use xlink:href="#SimHei-30" x="100"/>
      </g>
     </g>
    </g>
    <g id="xtick_7">
     <g id="line2d_13">
      <path d="M 616.597403 384.48 
L 616.597403 51.84 
" clip-path="url(#p56bf6980e4)" style="fill: none; stroke: #b0b0b0; stroke-width: 0.8; stroke-linecap: square"/>
     </g>
     <g id="line2d_14">
      <g>
       <use xlink:href="#m5965a378e2" x="616.597403" y="384.48" style="stroke: #000000; stroke-width: 0.8"/>
      </g>
     </g>
     <g id="text_7">
      <!-- 175 -->
      <g transform="translate(609.097403 398.355) scale(0.1 -0.1)">
       <use xlink:href="#SimHei-31"/>
       <use xlink:href="#SimHei-37" x="50"/>
       <use xlink:href="#SimHei-35" x="100"/>
      </g>
     </g>
    </g>
    <g id="text_8">
     <!-- 周数 -->
     <g transform="translate(359 411.339375) scale(0.1 -0.1)">
      <defs>
       <path id="SimHei-5468" d="M 5600 4925 
Q 5575 4400 5575 3800 
L 5575 50 
Q 5550 -375 5325 -462 
Q 5100 -550 4325 -600 
Q 4300 -400 4125 -75 
Q 4800 -100 4962 -37 
Q 5125 25 5100 225 
L 5100 4525 
L 1500 4525 
Q 1500 2575 1450 1887 
Q 1400 1200 1237 550 
Q 1075 -100 775 -625 
Q 625 -450 275 -225 
Q 650 225 825 1000 
Q 1000 1775 1025 2587 
Q 1050 3400 1000 4925 
L 5600 4925 
z
M 2050 325 
Q 2075 625 2075 950 
L 2075 1400 
Q 2075 1625 2050 1925 
L 4400 1925 
Q 4375 1725 4375 1450 
L 4375 875 
Q 4375 600 4400 325 
L 2050 325 
z
M 3000 3800 
Q 3000 4150 2975 4375 
L 3475 4375 
Q 3450 4075 3450 3800 
Q 4100 3800 4475 3825 
L 4475 3350 
Q 4125 3375 3450 3375 
L 3450 2800 
Q 4200 2800 4825 2825 
L 4825 2350 
Q 4175 2375 3725 2375 
L 2750 2375 
Q 2325 2375 1725 2350 
L 1725 2825 
Q 2325 2800 3000 2800 
L 3000 3375 
Q 2500 3375 1975 3350 
L 1975 3825 
Q 2475 3800 3000 3800 
z
M 3900 725 
L 3900 1525 
L 2550 1525 
L 2550 725 
L 3900 725 
z
" transform="scale(0.015625)"/>
       <path id="SimHei-6570" d="M 4525 4925 
Q 4475 4800 4400 4587 
Q 4325 4375 4175 3825 
L 5325 3825 
Q 5575 3825 5925 3850 
L 5925 3400 
Q 5650 3425 5500 3425 
Q 5500 3025 5362 2162 
Q 5225 1300 4875 675 
Q 5125 375 5437 137 
Q 5750 -100 6025 -200 
Q 5725 -425 5625 -625 
Q 5325 -450 5075 -225 
Q 4825 0 4575 325 
Q 4300 25 3987 -187 
Q 3675 -400 3200 -650 
Q 3075 -425 2850 -300 
Q 3225 -150 3650 125 
Q 4075 400 4300 675 
Q 4125 1025 3962 1425 
Q 3800 1825 3675 2475 
Q 3600 2275 3425 1950 
Q 3250 2050 3000 2150 
Q 3400 2850 3650 3675 
Q 3900 4500 3975 5100 
Q 4275 4975 4525 4925 
z
M 2100 2250 
Q 2000 2150 1875 1925 
L 3250 1925 
Q 3100 1300 2725 675 
Q 3125 525 3350 400 
Q 3225 225 3125 25 
Q 2900 175 2450 325 
Q 1950 -225 725 -650 
Q 600 -375 400 -275 
Q 1575 0 2000 475 
Q 1300 650 850 775 
Q 1000 1000 1250 1525 
Q 1000 1525 425 1500 
L 425 1950 
Q 900 1925 1400 1925 
Q 1500 2150 1550 2425 
Q 1825 2325 2100 2250 
z
M 1775 3950 
Q 1775 4550 1750 5100 
L 2250 5100 
Q 2225 4575 2225 3950 
Q 3075 3950 3425 3975 
L 3425 3525 
Q 3075 3550 2225 3550 
Q 2225 2825 2250 2425 
L 1750 2425 
Q 1775 2775 1775 3300 
Q 1650 3100 1300 2787 
Q 950 2475 650 2300 
Q 525 2525 275 2625 
Q 500 2700 875 2975 
Q 1250 3250 1450 3550 
Q 950 3550 500 3525 
L 500 3975 
Q 925 3950 1775 3950 
z
M 3975 3175 
Q 4200 1700 4600 1125 
Q 4850 1700 4937 2287 
Q 5025 2875 5050 3425 
L 4075 3425 
L 3975 3175 
z
M 1450 1000 
Q 1750 925 2275 800 
Q 2475 1050 2650 1525 
L 1725 1525 
Q 1600 1275 1450 1000 
z
M 3325 4825 
Q 3200 4625 3125 4450 
Q 3050 4275 2925 4025 
Q 2725 4125 2525 4175 
Q 2725 4500 2900 5000 
Q 3150 4875 3325 4825 
z
M 2575 3375 
Q 2900 3050 3200 2725 
Q 3050 2600 2875 2425 
Q 2525 2850 2300 3100 
Q 2450 3225 2575 3375 
z
M 925 5000 
Q 1275 4650 1500 4300 
L 1125 4075 
Q 950 4425 600 4725 
Q 825 4875 925 5000 
z
" transform="scale(0.015625)"/>
      </defs>
      <use xlink:href="#SimHei-5468"/>
      <use xlink:href="#SimHei-6570" x="100"/>
     </g>
    </g>
   </g>
   <g id="matplotlib.axis_2">
    <g id="ytick_1">
     <g id="line2d_15">
      <path d="M 90 375.175385 
L 648 375.175385 
" clip-path="url(#p56bf6980e4)" style="fill: none; stroke: #b0b0b0; stroke-width: 0.8; stroke-linecap: square"/>
     </g>
     <g id="line2d_16">
      <defs>
       <path id="mb84745742c" d="M 0 0 
L -3.5 0 
" style="stroke: #000000; stroke-width: 0.8"/>
      </defs>
      <g>
       <use xlink:href="#mb84745742c" x="90" y="375.175385" style="stroke: #000000; stroke-width: 0.8"/>
      </g>
     </g>
     <g id="text_9">
      <!-- 0 -->
      <g transform="translate(78 378.612885) scale(0.1 -0.1)">
       <use xlink:href="#SimHei-30"/>
      </g>
     </g>
    </g>
    <g id="ytick_2">
     <g id="line2d_17">
      <path d="M 90 317.021538 
L 648 317.021538 
" clip-path="url(#p56bf6980e4)" style="fill: none; stroke: #b0b0b0; stroke-width: 0.8; stroke-linecap: square"/>
     </g>
     <g id="line2d_18">
      <g>
       <use xlink:href="#mb84745742c" x="90" y="317.021538" style="stroke: #000000; stroke-width: 0.8"/>
      </g>
     </g>
     <g id="text_10">
      <!-- 10 -->
      <g transform="translate(73 320.459038) scale(0.1 -0.1)">
       <use xlink:href="#SimHei-31"/>
       <use xlink:href="#SimHei-30" x="50"/>
      </g>
     </g>
    </g>
    <g id="ytick_3">
     <g id="line2d_19">
      <path d="M 90 258.867692 
L 648 258.867692 
" clip-path="url(#p56bf6980e4)" style="fill: none; stroke: #b0b0b0; stroke-width: 0.8; stroke-linecap: square"/>
     </g>
     <g id="line2d_20">
      <g>
       <use xlink:href="#mb84745742c" x="90" y="258.867692" style="stroke: #000000; stroke-width: 0.8"/>
      </g>
     </g>
     <g id="text_11">
      <!-- 20 -->
      <g transform="translate(73 262.305192) scale(0.1 -0.1)">
       <use xlink:href="#SimHei-32"/>
       <use xlink:href="#SimHei-30" x="50"/>
      </g>
     </g>
    </g>
    <g id="ytick_4">
     <g id="line2d_21">
      <path d="M 90 200.713846 
L 648 200.713846 
" clip-path="url(#p56bf6980e4)" style="fill: none; stroke: #b0b0b0; stroke-width: 0.8; stroke-linecap: square"/>
     </g>
     <g id="line2d_22">
      <g>
       <use xlink:href="#mb84745742c" x="90" y="200.713846" style="stroke: #000000; stroke-width: 0.8"/>
      </g>
     </g>
     <g id="text_12">
      <!-- 30 -->
      <g transform="translate(73 204.151346) scale(0.1 -0.1)">
       <defs>
        <path id="SimHei-33" d="M 250 1225 
L 700 1300 
Q 800 975 1025 762 
Q 1250 550 1587 562 
Q 1925 575 2125 837 
Q 2325 1100 2300 1437 
Q 2275 1775 2037 1962 
Q 1800 2150 1275 2225 
L 1275 2550 
Q 1800 2600 2037 2825 
Q 2275 3050 2250 3412 
Q 2225 3775 1925 3937 
Q 1625 4100 1287 3975 
Q 950 3850 750 3275 
L 300 3350 
Q 450 3800 712 4100 
Q 975 4400 1425 4450 
Q 1875 4500 2212 4337 
Q 2550 4175 2687 3837 
Q 2825 3500 2725 3100 
Q 2625 2700 2150 2400 
Q 2500 2250 2687 1950 
Q 2875 1650 2812 1162 
Q 2750 675 2375 375 
Q 2000 75 1525 87 
Q 1050 100 700 387 
Q 350 675 250 1225 
z
" transform="scale(0.015625)"/>
       </defs>
       <use xlink:href="#SimHei-33"/>
       <use xlink:href="#SimHei-30" x="50"/>
      </g>
     </g>
    </g>
    <g id="ytick_5">
     <g id="line2d_23">
      <path d="M 90 142.56 
L 648 142.56 
" clip-path="url(#p56bf6980e4)" style="fill: none; stroke: #b0b0b0; stroke-width: 0.8; stroke-linecap: square"/>
     </g>
     <g id="line2d_24">
      <g>
       <use xlink:href="#mb84745742c" x="90" y="142.56" style="stroke: #000000; stroke-width: 0.8"/>
      </g>
     </g>
     <g id="text_13">
      <!-- 40 -->
      <g transform="translate(73 145.9975) scale(0.1 -0.1)">
       <defs>
        <path id="SimHei-34" d="M 2000 1100 
L 75 1100 
L 75 1525 
L 2100 4450 
L 2475 4450 
L 2475 1525 
L 3075 1525 
L 3075 1100 
L 2475 1100 
L 2475 150 
L 2000 150 
L 2000 1100 
z
M 2000 1525 
L 2000 3500 
L 600 1525 
L 2000 1525 
z
" transform="scale(0.015625)"/>
       </defs>
       <use xlink:href="#SimHei-34"/>
       <use xlink:href="#SimHei-30" x="50"/>
      </g>
     </g>
    </g>
    <g id="ytick_6">
     <g id="line2d_25">
      <path d="M 90 84.406154 
L 648 84.406154 
" clip-path="url(#p56bf6980e4)" style="fill: none; stroke: #b0b0b0; stroke-width: 0.8; stroke-linecap: square"/>
     </g>
     <g id="line2d_26">
      <g>
       <use xlink:href="#mb84745742c" x="90" y="84.406154" style="stroke: #000000; stroke-width: 0.8"/>
      </g>
     </g>
     <g id="text_14">
      <!-- 50 -->
      <g transform="translate(73 87.843654) scale(0.1 -0.1)">
       <use xlink:href="#SimHei-35"/>
       <use xlink:href="#SimHei-30" x="50"/>
      </g>
     </g>
    </g>
    <g id="text_15">
     <!-- 需求量 -->
     <g transform="translate(67.75 233.16) rotate(-90) scale(0.1 -0.1)">
      <defs>
       <path id="SimHei-9700" d="M 5150 2100 
Q 5500 2100 5975 2125 
L 5975 1700 
Q 5500 1725 5150 1725 
L 3425 1725 
Q 3300 1500 3250 1275 
L 5600 1275 
Q 5575 950 5575 700 
L 5575 -50 
Q 5575 -350 5425 -437 
Q 5275 -525 4775 -625 
Q 4750 -400 4550 -100 
Q 4950 -100 5025 -50 
Q 5100 0 5100 200 
L 5100 900 
L 4125 900 
L 4125 -375 
L 3650 -375 
L 3650 900 
L 2775 900 
L 2775 -375 
L 2300 -375 
L 2300 900 
L 1350 900 
L 1350 -575 
L 875 -575 
Q 900 -225 900 175 
L 900 575 
Q 900 900 875 1275 
L 2800 1275 
Q 2875 1500 2925 1725 
L 1350 1725 
Q 925 1725 525 1700 
L 525 2125 
Q 900 2100 1325 2100 
L 5150 2100 
z
M 4700 5075 
Q 5075 5075 5550 5100 
L 5550 4675 
Q 5075 4700 4700 4700 
L 3475 4700 
L 3475 4275 
L 5975 4275 
L 5975 3100 
L 5500 3100 
L 5500 3900 
L 3475 3900 
L 3475 3200 
Q 3475 2775 3500 2425 
L 2975 2425 
Q 3000 2750 3000 3175 
L 3000 3900 
L 950 3900 
L 950 3100 
L 450 3100 
Q 450 3375 462 3650 
Q 475 3925 450 4275 
L 3000 4275 
L 3000 4700 
L 1775 4700 
Q 1400 4700 1025 4675 
L 1025 5100 
Q 1400 5075 1750 5075 
L 4700 5075 
z
M 2475 2450 
L 1250 2450 
L 1250 2800 
L 2475 2800 
L 2475 2450 
z
M 2500 3150 
L 1325 3150 
L 1325 3500 
L 2500 3500 
L 2500 3150 
z
M 5000 3175 
L 3825 3175 
L 3825 3525 
L 5000 3525 
L 5000 3175 
z
M 5025 2500 
L 3850 2500 
L 3850 2850 
L 5025 2850 
L 5025 2500 
z
" transform="scale(0.015625)"/>
       <path id="SimHei-6c42" d="M 475 4025 
Q 875 4000 1325 4000 
L 2875 4000 
Q 2875 4725 2850 5125 
L 3400 5125 
Q 3375 4725 3375 4000 
L 5150 4000 
Q 5500 4000 5925 4025 
L 5925 3575 
Q 5475 3600 5150 3600 
L 3375 3600 
Q 3400 3200 3612 2750 
Q 3825 2300 4050 2000 
Q 4600 2450 5075 3150 
Q 5250 2950 5575 2750 
Q 5275 2600 4250 1650 
Q 4575 1225 5037 850 
Q 5500 475 6050 325 
Q 5700 125 5550 -150 
Q 5000 150 4437 687 
Q 3875 1225 3375 2375 
L 3375 150 
Q 3400 -225 3137 -350 
Q 2875 -475 2375 -525 
Q 2325 -275 2150 25 
Q 2575 0 2737 37 
Q 2900 75 2875 300 
L 2875 1675 
Q 1875 900 1437 550 
Q 1000 200 725 -50 
Q 500 200 300 400 
Q 650 575 1200 937 
Q 1750 1300 2875 2250 
L 2875 3600 
L 1325 3600 
Q 875 3600 475 3575 
L 475 4025 
z
M 1225 3175 
Q 1775 2725 2250 2325 
L 1825 1950 
Q 1450 2375 825 2825 
L 1225 3175 
z
M 4500 5100 
Q 4900 4825 5300 4425 
Q 5125 4300 4925 4100 
Q 4650 4400 4125 4825 
Q 4275 4950 4500 5100 
z
" transform="scale(0.015625)"/>
       <path id="SimHei-91cf" d="M 5250 2500 
Q 5225 2200 5225 1700 
Q 5225 1225 5250 950 
L 3425 950 
L 3425 625 
L 4575 625 
Q 5000 625 5375 650 
L 5375 275 
Q 5025 300 4575 300 
L 3425 300 
L 3425 -75 
L 5125 -75 
Q 5525 -75 5925 -50 
L 5925 -425 
Q 5525 -400 5125 -400 
L 1275 -400 
Q 900 -400 475 -425 
L 475 -50 
Q 925 -50 1275 -75 
L 2975 -75 
L 2975 300 
L 1725 300 
Q 1350 300 975 250 
L 975 650 
Q 1375 625 1725 625 
L 2975 625 
L 2975 950 
L 1150 950 
Q 1175 1375 1175 1775 
Q 1175 2175 1150 2500 
L 5250 2500 
z
M 5200 4950 
Q 5175 4575 5175 4250 
Q 5175 3925 5200 3400 
L 1200 3400 
Q 1225 3925 1225 4250 
Q 1225 4575 1200 4950 
L 5200 4950 
z
M 4900 3100 
Q 5500 3125 6000 3150 
L 6000 2750 
Q 5500 2775 4925 2775 
L 1650 2775 
Q 975 2775 325 2750 
L 325 3150 
Q 975 3125 1650 3100 
L 4900 3100 
z
M 4725 3700 
L 4725 4025 
L 1675 4025 
L 1675 3700 
L 4725 3700 
z
M 4725 4350 
L 4725 4650 
L 1675 4650 
L 1675 4350 
L 4725 4350 
z
M 4750 1875 
L 4750 2175 
L 3425 2175 
L 3425 1875 
L 4750 1875 
z
M 2975 1875 
L 2975 2175 
L 1650 2175 
L 1650 1875 
L 2975 1875 
z
M 2975 1275 
L 2975 1550 
L 1650 1550 
L 1650 1275 
L 2975 1275 
z
M 4750 1275 
L 4750 1550 
L 3425 1550 
L 3425 1275 
L 4750 1275 
z
" transform="scale(0.015625)"/>
      </defs>
      <use xlink:href="#SimHei-9700"/>
      <use xlink:href="#SimHei-6c42" x="100"/>
      <use xlink:href="#SimHei-91cf" x="200"/>
     </g>
    </g>
   </g>
   <g id="line2d_27">
    <path d="M 115.363636 363.544615 
L 145.558442 357.729231 
L 151.597403 351.913846 
L 157.636364 351.913846 
L 160.655844 363.544615 
L 163.675325 311.206154 
L 166.694805 276.313846 
L 169.714286 247.236923 
L 175.753247 287.944615 
L 178.772727 369.36 
L 187.831169 340.283077 
L 196.88961 363.544615 
L 199.909091 369.36 
L 202.928571 363.544615 
L 205.948052 363.544615 
L 215.006494 351.913846 
L 221.045455 357.729231 
L 224.064935 351.913846 
L 227.084416 369.36 
L 230.103896 322.836923 
L 233.123377 270.498462 
L 236.142857 357.729231 
L 242.181818 363.544615 
L 248.220779 363.544615 
L 254.25974 363.544615 
L 281.435065 363.544615 
L 287.474026 346.098462 
L 290.493506 351.913846 
L 293.512987 351.913846 
L 296.532468 357.729231 
L 299.551948 369.36 
L 302.571429 346.098462 
L 305.590909 287.944615 
L 308.61039 340.283077 
L 311.62987 357.729231 
L 314.649351 351.913846 
L 317.668831 351.913846 
L 320.688312 317.021538 
L 323.707792 305.390769 
L 326.727273 346.098462 
L 332.766234 340.283077 
L 335.785714 369.36 
L 338.805195 351.913846 
L 344.844156 351.913846 
L 347.863636 363.544615 
L 350.883117 357.729231 
L 353.902597 363.544615 
L 356.922078 346.098462 
L 359.941558 346.098462 
L 362.961039 258.867692 
L 365.980519 340.283077 
L 369 369.36 
L 372.019481 66.96 
L 375.038961 299.575385 
L 378.058442 270.498462 
L 381.077922 328.652308 
L 384.097403 334.467692 
L 387.116883 317.021538 
L 390.136364 276.313846 
L 393.155844 351.913846 
L 396.175325 346.098462 
L 399.194805 346.098462 
L 402.214286 317.021538 
L 408.253247 328.652308 
L 414.292208 334.467692 
L 426.37013 357.729231 
L 429.38961 317.021538 
L 432.409091 264.683077 
L 435.428571 299.575385 
L 438.448052 317.021538 
L 441.467532 293.76 
L 444.487013 340.283077 
L 447.506494 346.098462 
L 450.525974 322.836923 
L 453.545455 340.283077 
L 459.584416 363.544615 
L 465.623377 317.021538 
L 468.642857 340.283077 
L 471.662338 299.575385 
L 474.681818 351.913846 
L 477.701299 346.098462 
L 480.720779 229.790769 
L 483.74026 287.944615 
L 486.75974 369.36 
L 489.779221 317.021538 
L 492.798701 334.467692 
L 498.837662 351.913846 
L 501.857143 346.098462 
L 504.876623 363.544615 
L 507.896104 369.36 
L 510.915584 299.575385 
L 513.935065 317.021538 
L 516.954545 317.021538 
L 519.974026 223.975385 
L 522.993506 340.283077 
L 529.032468 247.236923 
L 532.051948 340.283077 
L 535.071429 235.606154 
L 538.090909 305.390769 
L 541.11039 369.36 
L 544.12987 340.283077 
L 547.149351 334.467692 
L 550.168831 258.867692 
L 553.188312 340.283077 
L 556.207792 357.729231 
L 559.227273 334.467692 
L 562.246753 351.913846 
L 565.266234 346.098462 
L 568.285714 369.36 
L 571.305195 351.913846 
L 574.324675 369.36 
L 583.383117 369.36 
L 586.402597 363.544615 
L 589.422078 340.283077 
L 592.441558 340.283077 
L 598.480519 334.467692 
L 601.5 369.36 
L 604.519481 357.729231 
L 607.538961 317.021538 
L 610.558442 299.575385 
L 613.577922 346.098462 
L 619.616883 334.467692 
L 622.636364 369.36 
" clip-path="url(#p56bf6980e4)" style="fill: none; stroke: #0000ff; stroke-width: 1.5; stroke-linecap: square"/>
    <defs>
     <path id="m384071eb1a" d="M 0 3 
C 0.795609 3 1.55874 2.683901 2.12132 2.12132 
C 2.683901 1.55874 3 0.795609 3 0 
C 3 -0.795609 2.683901 -1.55874 2.12132 -2.12132 
C 1.55874 -2.683901 0.795609 -3 0 -3 
C -0.795609 -3 -1.55874 -2.683901 -2.12132 -2.12132 
C -2.683901 -1.55874 -3 -0.795609 -3 0 
C -3 0.795609 -2.683901 1.55874 -2.12132 2.12132 
C -1.55874 2.683901 -0.795609 3 0 3 
z
" style="stroke: #0000ff"/>
    </defs>
    <g clip-path="url(#p56bf6980e4)">
     <use xlink:href="#m384071eb1a" x="115.363636" y="363.544615" style="fill: #0000ff; stroke: #0000ff"/>
     <use xlink:href="#m384071eb1a" x="145.558442" y="357.729231" style="fill: #0000ff; stroke: #0000ff"/>
     <use xlink:href="#m384071eb1a" x="151.597403" y="351.913846" style="fill: #0000ff; stroke: #0000ff"/>
     <use xlink:href="#m384071eb1a" x="157.636364" y="351.913846" style="fill: #0000ff; stroke: #0000ff"/>
     <use xlink:href="#m384071eb1a" x="160.655844" y="363.544615" style="fill: #0000ff; stroke: #0000ff"/>
     <use xlink:href="#m384071eb1a" x="163.675325" y="311.206154" style="fill: #0000ff; stroke: #0000ff"/>
     <use xlink:href="#m384071eb1a" x="166.694805" y="276.313846" style="fill: #0000ff; stroke: #0000ff"/>
     <use xlink:href="#m384071eb1a" x="169.714286" y="247.236923" style="fill: #0000ff; stroke: #0000ff"/>
     <use xlink:href="#m384071eb1a" x="175.753247" y="287.944615" style="fill: #0000ff; stroke: #0000ff"/>
     <use xlink:href="#m384071eb1a" x="178.772727" y="369.36" style="fill: #0000ff; stroke: #0000ff"/>
     <use xlink:href="#m384071eb1a" x="187.831169" y="340.283077" style="fill: #0000ff; stroke: #0000ff"/>
     <use xlink:href="#m384071eb1a" x="196.88961" y="363.544615" style="fill: #0000ff; stroke: #0000ff"/>
     <use xlink:href="#m384071eb1a" x="199.909091" y="369.36" style="fill: #0000ff; stroke: #0000ff"/>
     <use xlink:href="#m384071eb1a" x="202.928571" y="363.544615" style="fill: #0000ff; stroke: #0000ff"/>
     <use xlink:href="#m384071eb1a" x="205.948052" y="363.544615" style="fill: #0000ff; stroke: #0000ff"/>
     <use xlink:href="#m384071eb1a" x="215.006494" y="351.913846" style="fill: #0000ff; stroke: #0000ff"/>
     <use xlink:href="#m384071eb1a" x="221.045455" y="357.729231" style="fill: #0000ff; stroke: #0000ff"/>
     <use xlink:href="#m384071eb1a" x="224.064935" y="351.913846" style="fill: #0000ff; stroke: #0000ff"/>
     <use xlink:href="#m384071eb1a" x="227.084416" y="369.36" style="fill: #0000ff; stroke: #0000ff"/>
     <use xlink:href="#m384071eb1a" x="230.103896" y="322.836923" style="fill: #0000ff; stroke: #0000ff"/>
     <use xlink:href="#m384071eb1a" x="233.123377" y="270.498462" style="fill: #0000ff; stroke: #0000ff"/>
     <use xlink:href="#m384071eb1a" x="236.142857" y="357.729231" style="fill: #0000ff; stroke: #0000ff"/>
     <use xlink:href="#m384071eb1a" x="242.181818" y="363.544615" style="fill: #0000ff; stroke: #0000ff"/>
     <use xlink:href="#m384071eb1a" x="248.220779" y="363.544615" style="fill: #0000ff; stroke: #0000ff"/>
     <use xlink:href="#m384071eb1a" x="254.25974" y="363.544615" style="fill: #0000ff; stroke: #0000ff"/>
     <use xlink:href="#m384071eb1a" x="281.435065" y="363.544615" style="fill: #0000ff; stroke: #0000ff"/>
     <use xlink:href="#m384071eb1a" x="287.474026" y="346.098462" style="fill: #0000ff; stroke: #0000ff"/>
     <use xlink:href="#m384071eb1a" x="290.493506" y="351.913846" style="fill: #0000ff; stroke: #0000ff"/>
     <use xlink:href="#m384071eb1a" x="293.512987" y="351.913846" style="fill: #0000ff; stroke: #0000ff"/>
     <use xlink:href="#m384071eb1a" x="296.532468" y="357.729231" style="fill: #0000ff; stroke: #0000ff"/>
     <use xlink:href="#m384071eb1a" x="299.551948" y="369.36" style="fill: #0000ff; stroke: #0000ff"/>
     <use xlink:href="#m384071eb1a" x="302.571429" y="346.098462" style="fill: #0000ff; stroke: #0000ff"/>
     <use xlink:href="#m384071eb1a" x="305.590909" y="287.944615" style="fill: #0000ff; stroke: #0000ff"/>
     <use xlink:href="#m384071eb1a" x="308.61039" y="340.283077" style="fill: #0000ff; stroke: #0000ff"/>
     <use xlink:href="#m384071eb1a" x="311.62987" y="357.729231" style="fill: #0000ff; stroke: #0000ff"/>
     <use xlink:href="#m384071eb1a" x="314.649351" y="351.913846" style="fill: #0000ff; stroke: #0000ff"/>
     <use xlink:href="#m384071eb1a" x="317.668831" y="351.913846" style="fill: #0000ff; stroke: #0000ff"/>
     <use xlink:href="#m384071eb1a" x="320.688312" y="317.021538" style="fill: #0000ff; stroke: #0000ff"/>
     <use xlink:href="#m384071eb1a" x="323.707792" y="305.390769" style="fill: #0000ff; stroke: #0000ff"/>
     <use xlink:href="#m384071eb1a" x="326.727273" y="346.098462" style="fill: #0000ff; stroke: #0000ff"/>
     <use xlink:href="#m384071eb1a" x="332.766234" y="340.283077" style="fill: #0000ff; stroke: #0000ff"/>
     <use xlink:href="#m384071eb1a" x="335.785714" y="369.36" style="fill: #0000ff; stroke: #0000ff"/>
     <use xlink:href="#m384071eb1a" x="338.805195" y="351.913846" style="fill: #0000ff; stroke: #0000ff"/>
     <use xlink:href="#m384071eb1a" x="344.844156" y="351.913846" style="fill: #0000ff; stroke: #0000ff"/>
     <use xlink:href="#m384071eb1a" x="347.863636" y="363.544615" style="fill: #0000ff; stroke: #0000ff"/>
     <use xlink:href="#m384071eb1a" x="350.883117" y="357.729231" style="fill: #0000ff; stroke: #0000ff"/>
     <use xlink:href="#m384071eb1a" x="353.902597" y="363.544615" style="fill: #0000ff; stroke: #0000ff"/>
     <use xlink:href="#m384071eb1a" x="356.922078" y="346.098462" style="fill: #0000ff; stroke: #0000ff"/>
     <use xlink:href="#m384071eb1a" x="359.941558" y="346.098462" style="fill: #0000ff; stroke: #0000ff"/>
     <use xlink:href="#m384071eb1a" x="362.961039" y="258.867692" style="fill: #0000ff; stroke: #0000ff"/>
     <use xlink:href="#m384071eb1a" x="365.980519" y="340.283077" style="fill: #0000ff; stroke: #0000ff"/>
     <use xlink:href="#m384071eb1a" x="369" y="369.36" style="fill: #0000ff; stroke: #0000ff"/>
     <use xlink:href="#m384071eb1a" x="372.019481" y="66.96" style="fill: #0000ff; stroke: #0000ff"/>
     <use xlink:href="#m384071eb1a" x="375.038961" y="299.575385" style="fill: #0000ff; stroke: #0000ff"/>
     <use xlink:href="#m384071eb1a" x="378.058442" y="270.498462" style="fill: #0000ff; stroke: #0000ff"/>
     <use xlink:href="#m384071eb1a" x="381.077922" y="328.652308" style="fill: #0000ff; stroke: #0000ff"/>
     <use xlink:href="#m384071eb1a" x="384.097403" y="334.467692" style="fill: #0000ff; stroke: #0000ff"/>
     <use xlink:href="#m384071eb1a" x="387.116883" y="317.021538" style="fill: #0000ff; stroke: #0000ff"/>
     <use xlink:href="#m384071eb1a" x="390.136364" y="276.313846" style="fill: #0000ff; stroke: #0000ff"/>
     <use xlink:href="#m384071eb1a" x="393.155844" y="351.913846" style="fill: #0000ff; stroke: #0000ff"/>
     <use xlink:href="#m384071eb1a" x="396.175325" y="346.098462" style="fill: #0000ff; stroke: #0000ff"/>
     <use xlink:href="#m384071eb1a" x="399.194805" y="346.098462" style="fill: #0000ff; stroke: #0000ff"/>
     <use xlink:href="#m384071eb1a" x="402.214286" y="317.021538" style="fill: #0000ff; stroke: #0000ff"/>
     <use xlink:href="#m384071eb1a" x="408.253247" y="328.652308" style="fill: #0000ff; stroke: #0000ff"/>
     <use xlink:href="#m384071eb1a" x="414.292208" y="334.467692" style="fill: #0000ff; stroke: #0000ff"/>
     <use xlink:href="#m384071eb1a" x="426.37013" y="357.729231" style="fill: #0000ff; stroke: #0000ff"/>
     <use xlink:href="#m384071eb1a" x="429.38961" y="317.021538" style="fill: #0000ff; stroke: #0000ff"/>
     <use xlink:href="#m384071eb1a" x="432.409091" y="264.683077" style="fill: #0000ff; stroke: #0000ff"/>
     <use xlink:href="#m384071eb1a" x="435.428571" y="299.575385" style="fill: #0000ff; stroke: #0000ff"/>
     <use xlink:href="#m384071eb1a" x="438.448052" y="317.021538" style="fill: #0000ff; stroke: #0000ff"/>
     <use xlink:href="#m384071eb1a" x="441.467532" y="293.76" style="fill: #0000ff; stroke: #0000ff"/>
     <use xlink:href="#m384071eb1a" x="444.487013" y="340.283077" style="fill: #0000ff; stroke: #0000ff"/>
     <use xlink:href="#m384071eb1a" x="447.506494" y="346.098462" style="fill: #0000ff; stroke: #0000ff"/>
     <use xlink:href="#m384071eb1a" x="450.525974" y="322.836923" style="fill: #0000ff; stroke: #0000ff"/>
     <use xlink:href="#m384071eb1a" x="453.545455" y="340.283077" style="fill: #0000ff; stroke: #0000ff"/>
     <use xlink:href="#m384071eb1a" x="459.584416" y="363.544615" style="fill: #0000ff; stroke: #0000ff"/>
     <use xlink:href="#m384071eb1a" x="465.623377" y="317.021538" style="fill: #0000ff; stroke: #0000ff"/>
     <use xlink:href="#m384071eb1a" x="468.642857" y="340.283077" style="fill: #0000ff; stroke: #0000ff"/>
     <use xlink:href="#m384071eb1a" x="471.662338" y="299.575385" style="fill: #0000ff; stroke: #0000ff"/>
     <use xlink:href="#m384071eb1a" x="474.681818" y="351.913846" style="fill: #0000ff; stroke: #0000ff"/>
     <use xlink:href="#m384071eb1a" x="477.701299" y="346.098462" style="fill: #0000ff; stroke: #0000ff"/>
     <use xlink:href="#m384071eb1a" x="480.720779" y="229.790769" style="fill: #0000ff; stroke: #0000ff"/>
     <use xlink:href="#m384071eb1a" x="483.74026" y="287.944615" style="fill: #0000ff; stroke: #0000ff"/>
     <use xlink:href="#m384071eb1a" x="486.75974" y="369.36" style="fill: #0000ff; stroke: #0000ff"/>
     <use xlink:href="#m384071eb1a" x="489.779221" y="317.021538" style="fill: #0000ff; stroke: #0000ff"/>
     <use xlink:href="#m384071eb1a" x="492.798701" y="334.467692" style="fill: #0000ff; stroke: #0000ff"/>
     <use xlink:href="#m384071eb1a" x="498.837662" y="351.913846" style="fill: #0000ff; stroke: #0000ff"/>
     <use xlink:href="#m384071eb1a" x="501.857143" y="346.098462" style="fill: #0000ff; stroke: #0000ff"/>
     <use xlink:href="#m384071eb1a" x="504.876623" y="363.544615" style="fill: #0000ff; stroke: #0000ff"/>
     <use xlink:href="#m384071eb1a" x="507.896104" y="369.36" style="fill: #0000ff; stroke: #0000ff"/>
     <use xlink:href="#m384071eb1a" x="510.915584" y="299.575385" style="fill: #0000ff; stroke: #0000ff"/>
     <use xlink:href="#m384071eb1a" x="513.935065" y="317.021538" style="fill: #0000ff; stroke: #0000ff"/>
     <use xlink:href="#m384071eb1a" x="516.954545" y="317.021538" style="fill: #0000ff; stroke: #0000ff"/>
     <use xlink:href="#m384071eb1a" x="519.974026" y="223.975385" style="fill: #0000ff; stroke: #0000ff"/>
     <use xlink:href="#m384071eb1a" x="522.993506" y="340.283077" style="fill: #0000ff; stroke: #0000ff"/>
     <use xlink:href="#m384071eb1a" x="529.032468" y="247.236923" style="fill: #0000ff; stroke: #0000ff"/>
     <use xlink:href="#m384071eb1a" x="532.051948" y="340.283077" style="fill: #0000ff; stroke: #0000ff"/>
     <use xlink:href="#m384071eb1a" x="535.071429" y="235.606154" style="fill: #0000ff; stroke: #0000ff"/>
     <use xlink:href="#m384071eb1a" x="538.090909" y="305.390769" style="fill: #0000ff; stroke: #0000ff"/>
     <use xlink:href="#m384071eb1a" x="541.11039" y="369.36" style="fill: #0000ff; stroke: #0000ff"/>
     <use xlink:href="#m384071eb1a" x="544.12987" y="340.283077" style="fill: #0000ff; stroke: #0000ff"/>
     <use xlink:href="#m384071eb1a" x="547.149351" y="334.467692" style="fill: #0000ff; stroke: #0000ff"/>
     <use xlink:href="#m384071eb1a" x="550.168831" y="258.867692" style="fill: #0000ff; stroke: #0000ff"/>
     <use xlink:href="#m384071eb1a" x="553.188312" y="340.283077" style="fill: #0000ff; stroke: #0000ff"/>
     <use xlink:href="#m384071eb1a" x="556.207792" y="357.729231" style="fill: #0000ff; stroke: #0000ff"/>
     <use xlink:href="#m384071eb1a" x="559.227273" y="334.467692" style="fill: #0000ff; stroke: #0000ff"/>
     <use xlink:href="#m384071eb1a" x="562.246753" y="351.913846" style="fill: #0000ff; stroke: #0000ff"/>
     <use xlink:href="#m384071eb1a" x="565.266234" y="346.098462" style="fill: #0000ff; stroke: #0000ff"/>
     <use xlink:href="#m384071eb1a" x="568.285714" y="369.36" style="fill: #0000ff; stroke: #0000ff"/>
     <use xlink:href="#m384071eb1a" x="571.305195" y="351.913846" style="fill: #0000ff; stroke: #0000ff"/>
     <use xlink:href="#m384071eb1a" x="574.324675" y="369.36" style="fill: #0000ff; stroke: #0000ff"/>
     <use xlink:href="#m384071eb1a" x="583.383117" y="369.36" style="fill: #0000ff; stroke: #0000ff"/>
     <use xlink:href="#m384071eb1a" x="586.402597" y="363.544615" style="fill: #0000ff; stroke: #0000ff"/>
     <use xlink:href="#m384071eb1a" x="589.422078" y="340.283077" style="fill: #0000ff; stroke: #0000ff"/>
     <use xlink:href="#m384071eb1a" x="592.441558" y="340.283077" style="fill: #0000ff; stroke: #0000ff"/>
     <use xlink:href="#m384071eb1a" x="598.480519" y="334.467692" style="fill: #0000ff; stroke: #0000ff"/>
     <use xlink:href="#m384071eb1a" x="601.5" y="369.36" style="fill: #0000ff; stroke: #0000ff"/>
     <use xlink:href="#m384071eb1a" x="604.519481" y="357.729231" style="fill: #0000ff; stroke: #0000ff"/>
     <use xlink:href="#m384071eb1a" x="607.538961" y="317.021538" style="fill: #0000ff; stroke: #0000ff"/>
     <use xlink:href="#m384071eb1a" x="610.558442" y="299.575385" style="fill: #0000ff; stroke: #0000ff"/>
     <use xlink:href="#m384071eb1a" x="613.577922" y="346.098462" style="fill: #0000ff; stroke: #0000ff"/>
     <use xlink:href="#m384071eb1a" x="619.616883" y="334.467692" style="fill: #0000ff; stroke: #0000ff"/>
     <use xlink:href="#m384071eb1a" x="622.636364" y="369.36" style="fill: #0000ff; stroke: #0000ff"/>
    </g>
   </g>
   <g id="patch_3">
    <path d="M 90 384.48 
L 90 51.84 
" style="fill: none; stroke: #000000; stroke-width: 0.8; stroke-linejoin: miter; stroke-linecap: square"/>
   </g>
   <g id="patch_4">
    <path d="M 648 384.48 
L 648 51.84 
" style="fill: none; stroke: #000000; stroke-width: 0.8; stroke-linejoin: miter; stroke-linecap: square"/>
   </g>
   <g id="patch_5">
    <path d="M 90 384.48 
L 648 384.48 
" style="fill: none; stroke: #000000; stroke-width: 0.8; stroke-linejoin: miter; stroke-linecap: square"/>
   </g>
   <g id="patch_6">
    <path d="M 90 51.84 
L 648 51.84 
" style="fill: none; stroke: #000000; stroke-width: 0.8; stroke-linejoin: miter; stroke-linecap: square"/>
   </g>
   <g id="text_16">
    <!-- 6004010254 每周需求量 -->
    <g transform="translate(306 45.84) scale(0.12 -0.12)">
     <defs>
      <path id="SimHei-36" d="M 250 1612 
Q 275 1975 387 2225 
Q 500 2475 725 2850 
L 1750 4450 
L 2325 4450 
L 1275 2800 
Q 1950 2975 2350 2750 
Q 2750 2525 2887 2237 
Q 3025 1950 3037 1612 
Q 3050 1275 2937 950 
Q 2825 625 2537 362 
Q 2250 100 1737 75 
Q 1225 50 862 262 
Q 500 475 362 862 
Q 225 1250 250 1612 
z
M 1025 787 
Q 1250 550 1625 525 
Q 2000 500 2250 775 
Q 2500 1050 2500 1575 
Q 2500 2100 2187 2300 
Q 1875 2500 1487 2450 
Q 1100 2400 925 2075 
Q 750 1750 775 1387 
Q 800 1025 1025 787 
z
" transform="scale(0.015625)"/>
      <path id="SimHei-20" transform="scale(0.015625)"/>
      <path id="SimHei-6bcf" d="M 5225 3650 
Q 5175 3150 5150 2675 
L 5125 2200 
Q 5525 2200 6000 2225 
L 6000 1775 
Q 5625 1800 5100 1800 
L 5050 650 
Q 5325 650 5700 675 
L 5700 225 
Q 5400 250 5025 250 
Q 5000 -275 4775 -425 
Q 4550 -575 4000 -650 
Q 3950 -400 3775 -125 
Q 4375 -125 4475 -50 
Q 4575 25 4575 250 
L 1400 250 
L 1500 1100 
L 1550 1800 
L 1275 1800 
Q 825 1800 550 1775 
L 550 2225 
Q 975 2200 1275 2200 
L 1575 2200 
L 1625 2825 
L 1675 3650 
L 5225 3650 
z
M 2350 5000 
Q 2175 4825 2050 4600 
L 4875 4600 
Q 5275 4600 5775 4625 
L 5775 4175 
Q 5275 4200 4875 4200 
L 1825 4200 
L 1375 3625 
Q 1125 3325 775 2975 
Q 600 3175 350 3300 
Q 725 3575 1150 4112 
Q 1575 4650 1825 5250 
Q 2125 5075 2350 5000 
z
M 1975 1800 
L 1875 650 
L 4625 650 
L 4675 1800 
L 2950 1800 
Q 3575 1275 3825 1125 
Q 3625 925 3475 725 
Q 3100 1100 2650 1475 
Q 2775 1675 2875 1800 
L 1975 1800 
z
M 2975 3250 
Q 3125 3150 3287 3012 
Q 3450 2875 3800 2550 
Q 3650 2350 3525 2200 
L 4700 2200 
L 4750 3250 
L 2975 3250 
z
M 2075 3250 
L 2000 2200 
L 3425 2200 
Q 3150 2500 3012 2625 
Q 2875 2750 2700 2900 
Q 2800 3050 2925 3250 
L 2075 3250 
z
" transform="scale(0.015625)"/>
     </defs>
     <use xlink:href="#SimHei-36"/>
     <use xlink:href="#SimHei-30" x="50"/>
     <use xlink:href="#SimHei-30" x="100"/>
     <use xlink:href="#SimHei-34" x="150"/>
     <use xlink:href="#SimHei-30" x="200"/>
     <use xlink:href="#SimHei-31" x="250"/>
     <use xlink:href="#SimHei-30" x="300"/>
     <use xlink:href="#SimHei-32" x="350"/>
     <use xlink:href="#SimHei-35" x="400"/>
     <use xlink:href="#SimHei-34" x="450"/>
     <use xlink:href="#SimHei-20" x="500"/>
     <use xlink:href="#SimHei-6bcf" x="550"/>
     <use xlink:href="#SimHei-5468" x="650"/>
     <use xlink:href="#SimHei-9700" x="750"/>
     <use xlink:href="#SimHei-6c42" x="850"/>
     <use xlink:href="#SimHei-91cf" x="950"/>
    </g>
   </g>
  </g>
 </g>
 <defs>
  <clipPath id="p56bf6980e4">
   <rect x="90" y="51.84" width="558" height="332.64"/>
  </clipPath>
 </defs>
</svg>
