<?xml version="1.0" encoding="utf-8" standalone="no"?>
<!DOCTYPE svg PUBLIC "-//W3C//DTD SVG 1.1//EN"
  "http://www.w3.org/Graphics/SVG/1.1/DTD/svg11.dtd">
<svg xmlns:xlink="http://www.w3.org/1999/xlink" width="720pt" height="432pt" viewBox="0 0 720 432" xmlns="http://www.w3.org/2000/svg" version="1.1">
 <metadata>
  <rdf:RDF xmlns:dc="http://purl.org/dc/elements/1.1/" xmlns:cc="http://creativecommons.org/ns#" xmlns:rdf="http://www.w3.org/1999/02/22-rdf-syntax-ns#">
   <cc:Work>
    <dc:type rdf:resource="http://purl.org/dc/dcmitype/StillImage"/>
    <dc:date>2024-08-17T14:09:52.237067</dc:date>
    <dc:format>image/svg+xml</dc:format>
    <dc:creator>
     <cc:Agent>
      <dc:title>Matplotlib v3.8.0, https://matplotlib.org/</dc:title>
     </cc:Agent>
    </dc:creator>
   </cc:Work>
  </rdf:RDF>
 </metadata>
 <defs>
  <style type="text/css">*{stroke-linejoin: round; stroke-linecap: butt}</style>
 </defs>
 <g id="figure_1">
  <g id="patch_1">
   <path d="M 0 432 
L 720 432 
L 720 0 
L 0 0 
z
" style="fill: #ffffff"/>
  </g>
  <g id="axes_1">
   <g id="patch_2">
    <path d="M 90 384.48 
L 648 384.48 
L 648 51.84 
L 90 51.84 
z
" style="fill: #ffffff"/>
   </g>
   <g id="matplotlib.axis_1">
    <g id="xtick_1">
     <g id="line2d_1">
      <defs>
       <path id="ma8a8468690" d="M 0 0 
L 0 3.5 
" style="stroke: #000000; stroke-width: 0.8"/>
      </defs>
      <g>
       <use xlink:href="#ma8a8468690" x="163.675325" y="384.48" style="stroke: #000000; stroke-width: 0.8"/>
      </g>
     </g>
     <g id="text_1">
      <!-- 25 -->
      <g transform="translate(158.675325 398.355) scale(0.1 -0.1)">
       <defs>
        <path id="SimHei-32" d="M 300 250 
Q 325 625 650 925 
Q 975 1225 1475 1862 
Q 1975 2500 2125 2850 
Q 2275 3200 2237 3450 
Q 2200 3700 2000 3862 
Q 1800 4025 1537 4000 
Q 1275 3975 1037 3800 
Q 800 3625 675 3275 
L 200 3350 
Q 400 3925 712 4187 
Q 1025 4450 1450 4475 
Q 1700 4500 1900 4462 
Q 2100 4425 2312 4287 
Q 2525 4150 2662 3875 
Q 2800 3600 2762 3212 
Q 2725 2825 2375 2287 
Q 2025 1750 1025 600 
L 2825 600 
L 2825 150 
L 300 150 
L 300 250 
z
" transform="scale(0.015625)"/>
        <path id="SimHei-35" d="M 550 1325 
Q 725 650 1150 575 
Q 1575 500 1837 662 
Q 2100 825 2212 1087 
Q 2325 1350 2312 1675 
Q 2300 2000 2137 2225 
Q 1975 2450 1725 2525 
Q 1475 2600 1162 2525 
Q 850 2450 650 2175 
L 225 2225 
Q 275 2375 700 4375 
L 2675 4375 
L 2675 3925 
L 1075 3925 
Q 950 3250 825 2850 
Q 1200 3025 1525 3012 
Q 1850 3000 2150 2862 
Q 2450 2725 2587 2487 
Q 2725 2250 2787 2012 
Q 2850 1775 2837 1500 
Q 2825 1225 2725 937 
Q 2625 650 2425 462 
Q 2225 275 1937 162 
Q 1650 50 1275 75 
Q 900 100 562 350 
Q 225 600 100 1200 
L 550 1325 
z
" transform="scale(0.015625)"/>
       </defs>
       <use xlink:href="#SimHei-32"/>
       <use xlink:href="#SimHei-35" x="50"/>
      </g>
     </g>
    </g>
    <g id="xtick_2">
     <g id="line2d_2">
      <g>
       <use xlink:href="#ma8a8468690" x="239.162338" y="384.48" style="stroke: #000000; stroke-width: 0.8"/>
      </g>
     </g>
     <g id="text_2">
      <!-- 50 -->
      <g transform="translate(234.162338 398.355) scale(0.1 -0.1)">
       <defs>
        <path id="SimHei-30" d="M 225 2537 
Q 250 3200 412 3587 
Q 575 3975 875 4225 
Q 1175 4475 1612 4475 
Q 2050 4475 2375 4112 
Q 2700 3750 2800 3200 
Q 2900 2650 2862 1937 
Q 2825 1225 2612 775 
Q 2400 325 1975 150 
Q 1550 -25 1125 187 
Q 700 400 525 750 
Q 350 1100 275 1487 
Q 200 1875 225 2537 
z
M 750 2687 
Q 675 2000 800 1462 
Q 925 925 1212 700 
Q 1500 475 1800 612 
Q 2100 750 2237 1162 
Q 2375 1575 2375 2062 
Q 2375 2550 2337 2950 
Q 2300 3350 2112 3675 
Q 1925 4000 1612 4012 
Q 1300 4025 1062 3700 
Q 825 3375 750 2687 
z
" transform="scale(0.015625)"/>
       </defs>
       <use xlink:href="#SimHei-35"/>
       <use xlink:href="#SimHei-30" x="50"/>
      </g>
     </g>
    </g>
    <g id="xtick_3">
     <g id="line2d_3">
      <g>
       <use xlink:href="#ma8a8468690" x="314.649351" y="384.48" style="stroke: #000000; stroke-width: 0.8"/>
      </g>
     </g>
     <g id="text_3">
      <!-- 75 -->
      <g transform="translate(309.649351 398.355) scale(0.1 -0.1)">
       <defs>
        <path id="SimHei-37" d="M 850 150 
Q 1300 2050 2425 3925 
L 275 3925 
L 275 4375 
L 2950 4375 
L 2950 3950 
Q 1775 2050 1400 150 
L 850 150 
z
" transform="scale(0.015625)"/>
       </defs>
       <use xlink:href="#SimHei-37"/>
       <use xlink:href="#SimHei-35" x="50"/>
      </g>
     </g>
    </g>
    <g id="xtick_4">
     <g id="line2d_4">
      <g>
       <use xlink:href="#ma8a8468690" x="390.136364" y="384.48" style="stroke: #000000; stroke-width: 0.8"/>
      </g>
     </g>
     <g id="text_4">
      <!-- 100 -->
      <g transform="translate(382.636364 398.355) scale(0.1 -0.1)">
       <defs>
        <path id="SimHei-31" d="M 1400 3600 
Q 1075 3275 575 2975 
L 575 3450 
Q 1200 3875 1600 4450 
L 1900 4450 
L 1900 150 
L 1400 150 
L 1400 3600 
z
" transform="scale(0.015625)"/>
       </defs>
       <use xlink:href="#SimHei-31"/>
       <use xlink:href="#SimHei-30" x="50"/>
       <use xlink:href="#SimHei-30" x="100"/>
      </g>
     </g>
    </g>
    <g id="xtick_5">
     <g id="line2d_5">
      <g>
       <use xlink:href="#ma8a8468690" x="465.623377" y="384.48" style="stroke: #000000; stroke-width: 0.8"/>
      </g>
     </g>
     <g id="text_5">
      <!-- 125 -->
      <g transform="translate(458.123377 398.355) scale(0.1 -0.1)">
       <use xlink:href="#SimHei-31"/>
       <use xlink:href="#SimHei-32" x="50"/>
       <use xlink:href="#SimHei-35" x="100"/>
      </g>
     </g>
    </g>
    <g id="xtick_6">
     <g id="line2d_6">
      <g>
       <use xlink:href="#ma8a8468690" x="541.11039" y="384.48" style="stroke: #000000; stroke-width: 0.8"/>
      </g>
     </g>
     <g id="text_6">
      <!-- 150 -->
      <g transform="translate(533.61039 398.355) scale(0.1 -0.1)">
       <use xlink:href="#SimHei-31"/>
       <use xlink:href="#SimHei-35" x="50"/>
       <use xlink:href="#SimHei-30" x="100"/>
      </g>
     </g>
    </g>
    <g id="xtick_7">
     <g id="line2d_7">
      <g>
       <use xlink:href="#ma8a8468690" x="616.597403" y="384.48" style="stroke: #000000; stroke-width: 0.8"/>
      </g>
     </g>
     <g id="text_7">
      <!-- 175 -->
      <g transform="translate(609.097403 398.355) scale(0.1 -0.1)">
       <use xlink:href="#SimHei-31"/>
       <use xlink:href="#SimHei-37" x="50"/>
       <use xlink:href="#SimHei-35" x="100"/>
      </g>
     </g>
    </g>
    <g id="text_8">
     <!-- 周数 -->
     <g transform="translate(359 411.339375) scale(0.1 -0.1)">
      <defs>
       <path id="SimHei-5468" d="M 5600 4925 
Q 5575 4400 5575 3800 
L 5575 50 
Q 5550 -375 5325 -462 
Q 5100 -550 4325 -600 
Q 4300 -400 4125 -75 
Q 4800 -100 4962 -37 
Q 5125 25 5100 225 
L 5100 4525 
L 1500 4525 
Q 1500 2575 1450 1887 
Q 1400 1200 1237 550 
Q 1075 -100 775 -625 
Q 625 -450 275 -225 
Q 650 225 825 1000 
Q 1000 1775 1025 2587 
Q 1050 3400 1000 4925 
L 5600 4925 
z
M 2050 325 
Q 2075 625 2075 950 
L 2075 1400 
Q 2075 1625 2050 1925 
L 4400 1925 
Q 4375 1725 4375 1450 
L 4375 875 
Q 4375 600 4400 325 
L 2050 325 
z
M 3000 3800 
Q 3000 4150 2975 4375 
L 3475 4375 
Q 3450 4075 3450 3800 
Q 4100 3800 4475 3825 
L 4475 3350 
Q 4125 3375 3450 3375 
L 3450 2800 
Q 4200 2800 4825 2825 
L 4825 2350 
Q 4175 2375 3725 2375 
L 2750 2375 
Q 2325 2375 1725 2350 
L 1725 2825 
Q 2325 2800 3000 2800 
L 3000 3375 
Q 2500 3375 1975 3350 
L 1975 3825 
Q 2475 3800 3000 3800 
z
M 3900 725 
L 3900 1525 
L 2550 1525 
L 2550 725 
L 3900 725 
z
" transform="scale(0.015625)"/>
       <path id="SimHei-6570" d="M 4525 4925 
Q 4475 4800 4400 4587 
Q 4325 4375 4175 3825 
L 5325 3825 
Q 5575 3825 5925 3850 
L 5925 3400 
Q 5650 3425 5500 3425 
Q 5500 3025 5362 2162 
Q 5225 1300 4875 675 
Q 5125 375 5437 137 
Q 5750 -100 6025 -200 
Q 5725 -425 5625 -625 
Q 5325 -450 5075 -225 
Q 4825 0 4575 325 
Q 4300 25 3987 -187 
Q 3675 -400 3200 -650 
Q 3075 -425 2850 -300 
Q 3225 -150 3650 125 
Q 4075 400 4300 675 
Q 4125 1025 3962 1425 
Q 3800 1825 3675 2475 
Q 3600 2275 3425 1950 
Q 3250 2050 3000 2150 
Q 3400 2850 3650 3675 
Q 3900 4500 3975 5100 
Q 4275 4975 4525 4925 
z
M 2100 2250 
Q 2000 2150 1875 1925 
L 3250 1925 
Q 3100 1300 2725 675 
Q 3125 525 3350 400 
Q 3225 225 3125 25 
Q 2900 175 2450 325 
Q 1950 -225 725 -650 
Q 600 -375 400 -275 
Q 1575 0 2000 475 
Q 1300 650 850 775 
Q 1000 1000 1250 1525 
Q 1000 1525 425 1500 
L 425 1950 
Q 900 1925 1400 1925 
Q 1500 2150 1550 2425 
Q 1825 2325 2100 2250 
z
M 1775 3950 
Q 1775 4550 1750 5100 
L 2250 5100 
Q 2225 4575 2225 3950 
Q 3075 3950 3425 3975 
L 3425 3525 
Q 3075 3550 2225 3550 
Q 2225 2825 2250 2425 
L 1750 2425 
Q 1775 2775 1775 3300 
Q 1650 3100 1300 2787 
Q 950 2475 650 2300 
Q 525 2525 275 2625 
Q 500 2700 875 2975 
Q 1250 3250 1450 3550 
Q 950 3550 500 3525 
L 500 3975 
Q 925 3950 1775 3950 
z
M 3975 3175 
Q 4200 1700 4600 1125 
Q 4850 1700 4937 2287 
Q 5025 2875 5050 3425 
L 4075 3425 
L 3975 3175 
z
M 1450 1000 
Q 1750 925 2275 800 
Q 2475 1050 2650 1525 
L 1725 1525 
Q 1600 1275 1450 1000 
z
M 3325 4825 
Q 3200 4625 3125 4450 
Q 3050 4275 2925 4025 
Q 2725 4125 2525 4175 
Q 2725 4500 2900 5000 
Q 3150 4875 3325 4825 
z
M 2575 3375 
Q 2900 3050 3200 2725 
Q 3050 2600 2875 2425 
Q 2525 2850 2300 3100 
Q 2450 3225 2575 3375 
z
M 925 5000 
Q 1275 4650 1500 4300 
L 1125 4075 
Q 950 4425 600 4725 
Q 825 4875 925 5000 
z
" transform="scale(0.015625)"/>
      </defs>
      <use xlink:href="#SimHei-5468"/>
      <use xlink:href="#SimHei-6570" x="100"/>
     </g>
    </g>
   </g>
   <g id="matplotlib.axis_2">
    <g id="ytick_1">
     <g id="line2d_8">
      <defs>
       <path id="m48350f7348" d="M 0 0 
L -3.5 0 
" style="stroke: #000000; stroke-width: 0.8"/>
      </defs>
      <g>
       <use xlink:href="#m48350f7348" x="90" y="375.175385" style="stroke: #000000; stroke-width: 0.8"/>
      </g>
     </g>
     <g id="text_9">
      <!-- 0 -->
      <g style="fill: #0000ff" transform="translate(78 378.612885) scale(0.1 -0.1)">
       <use xlink:href="#SimHei-30"/>
      </g>
     </g>
    </g>
    <g id="ytick_2">
     <g id="line2d_9">
      <g>
       <use xlink:href="#m48350f7348" x="90" y="317.021538" style="stroke: #000000; stroke-width: 0.8"/>
      </g>
     </g>
     <g id="text_10">
      <!-- 10 -->
      <g style="fill: #0000ff" transform="translate(73 320.459038) scale(0.1 -0.1)">
       <use xlink:href="#SimHei-31"/>
       <use xlink:href="#SimHei-30" x="50"/>
      </g>
     </g>
    </g>
    <g id="ytick_3">
     <g id="line2d_10">
      <g>
       <use xlink:href="#m48350f7348" x="90" y="258.867692" style="stroke: #000000; stroke-width: 0.8"/>
      </g>
     </g>
     <g id="text_11">
      <!-- 20 -->
      <g style="fill: #0000ff" transform="translate(73 262.305192) scale(0.1 -0.1)">
       <use xlink:href="#SimHei-32"/>
       <use xlink:href="#SimHei-30" x="50"/>
      </g>
     </g>
    </g>
    <g id="ytick_4">
     <g id="line2d_11">
      <g>
       <use xlink:href="#m48350f7348" x="90" y="200.713846" style="stroke: #000000; stroke-width: 0.8"/>
      </g>
     </g>
     <g id="text_12">
      <!-- 30 -->
      <g style="fill: #0000ff" transform="translate(73 204.151346) scale(0.1 -0.1)">
       <defs>
        <path id="SimHei-33" d="M 250 1225 
L 700 1300 
Q 800 975 1025 762 
Q 1250 550 1587 562 
Q 1925 575 2125 837 
Q 2325 1100 2300 1437 
Q 2275 1775 2037 1962 
Q 1800 2150 1275 2225 
L 1275 2550 
Q 1800 2600 2037 2825 
Q 2275 3050 2250 3412 
Q 2225 3775 1925 3937 
Q 1625 4100 1287 3975 
Q 950 3850 750 3275 
L 300 3350 
Q 450 3800 712 4100 
Q 975 4400 1425 4450 
Q 1875 4500 2212 4337 
Q 2550 4175 2687 3837 
Q 2825 3500 2725 3100 
Q 2625 2700 2150 2400 
Q 2500 2250 2687 1950 
Q 2875 1650 2812 1162 
Q 2750 675 2375 375 
Q 2000 75 1525 87 
Q 1050 100 700 387 
Q 350 675 250 1225 
z
" transform="scale(0.015625)"/>
       </defs>
       <use xlink:href="#SimHei-33"/>
       <use xlink:href="#SimHei-30" x="50"/>
      </g>
     </g>
    </g>
    <g id="ytick_5">
     <g id="line2d_12">
      <g>
       <use xlink:href="#m48350f7348" x="90" y="142.56" style="stroke: #000000; stroke-width: 0.8"/>
      </g>
     </g>
     <g id="text_13">
      <!-- 40 -->
      <g style="fill: #0000ff" transform="translate(73 145.9975) scale(0.1 -0.1)">
       <defs>
        <path id="SimHei-34" d="M 2000 1100 
L 75 1100 
L 75 1525 
L 2100 4450 
L 2475 4450 
L 2475 1525 
L 3075 1525 
L 3075 1100 
L 2475 1100 
L 2475 150 
L 2000 150 
L 2000 1100 
z
M 2000 1525 
L 2000 3500 
L 600 1525 
L 2000 1525 
z
" transform="scale(0.015625)"/>
       </defs>
       <use xlink:href="#SimHei-34"/>
       <use xlink:href="#SimHei-30" x="50"/>
      </g>
     </g>
    </g>
    <g id="ytick_6">
     <g id="line2d_13">
      <g>
       <use xlink:href="#m48350f7348" x="90" y="84.406154" style="stroke: #000000; stroke-width: 0.8"/>
      </g>
     </g>
     <g id="text_14">
      <!-- 50 -->
      <g style="fill: #0000ff" transform="translate(73 87.843654) scale(0.1 -0.1)">
       <use xlink:href="#SimHei-35"/>
       <use xlink:href="#SimHei-30" x="50"/>
      </g>
     </g>
    </g>
    <g id="text_15">
     <!-- 需求量 -->
     <g style="fill: #0000ff" transform="translate(67.75 233.16) rotate(-90) scale(0.1 -0.1)">
      <defs>
       <path id="SimHei-9700" d="M 5150 2100 
Q 5500 2100 5975 2125 
L 5975 1700 
Q 5500 1725 5150 1725 
L 3425 1725 
Q 3300 1500 3250 1275 
L 5600 1275 
Q 5575 950 5575 700 
L 5575 -50 
Q 5575 -350 5425 -437 
Q 5275 -525 4775 -625 
Q 4750 -400 4550 -100 
Q 4950 -100 5025 -50 
Q 5100 0 5100 200 
L 5100 900 
L 4125 900 
L 4125 -375 
L 3650 -375 
L 3650 900 
L 2775 900 
L 2775 -375 
L 2300 -375 
L 2300 900 
L 1350 900 
L 1350 -575 
L 875 -575 
Q 900 -225 900 175 
L 900 575 
Q 900 900 875 1275 
L 2800 1275 
Q 2875 1500 2925 1725 
L 1350 1725 
Q 925 1725 525 1700 
L 525 2125 
Q 900 2100 1325 2100 
L 5150 2100 
z
M 4700 5075 
Q 5075 5075 5550 5100 
L 5550 4675 
Q 5075 4700 4700 4700 
L 3475 4700 
L 3475 4275 
L 5975 4275 
L 5975 3100 
L 5500 3100 
L 5500 3900 
L 3475 3900 
L 3475 3200 
Q 3475 2775 3500 2425 
L 2975 2425 
Q 3000 2750 3000 3175 
L 3000 3900 
L 950 3900 
L 950 3100 
L 450 3100 
Q 450 3375 462 3650 
Q 475 3925 450 4275 
L 3000 4275 
L 3000 4700 
L 1775 4700 
Q 1400 4700 1025 4675 
L 1025 5100 
Q 1400 5075 1750 5075 
L 4700 5075 
z
M 2475 2450 
L 1250 2450 
L 1250 2800 
L 2475 2800 
L 2475 2450 
z
M 2500 3150 
L 1325 3150 
L 1325 3500 
L 2500 3500 
L 2500 3150 
z
M 5000 3175 
L 3825 3175 
L 3825 3525 
L 5000 3525 
L 5000 3175 
z
M 5025 2500 
L 3850 2500 
L 3850 2850 
L 5025 2850 
L 5025 2500 
z
" transform="scale(0.015625)"/>
       <path id="SimHei-6c42" d="M 475 4025 
Q 875 4000 1325 4000 
L 2875 4000 
Q 2875 4725 2850 5125 
L 3400 5125 
Q 3375 4725 3375 4000 
L 5150 4000 
Q 5500 4000 5925 4025 
L 5925 3575 
Q 5475 3600 5150 3600 
L 3375 3600 
Q 3400 3200 3612 2750 
Q 3825 2300 4050 2000 
Q 4600 2450 5075 3150 
Q 5250 2950 5575 2750 
Q 5275 2600 4250 1650 
Q 4575 1225 5037 850 
Q 5500 475 6050 325 
Q 5700 125 5550 -150 
Q 5000 150 4437 687 
Q 3875 1225 3375 2375 
L 3375 150 
Q 3400 -225 3137 -350 
Q 2875 -475 2375 -525 
Q 2325 -275 2150 25 
Q 2575 0 2737 37 
Q 2900 75 2875 300 
L 2875 1675 
Q 1875 900 1437 550 
Q 1000 200 725 -50 
Q 500 200 300 400 
Q 650 575 1200 937 
Q 1750 1300 2875 2250 
L 2875 3600 
L 1325 3600 
Q 875 3600 475 3575 
L 475 4025 
z
M 1225 3175 
Q 1775 2725 2250 2325 
L 1825 1950 
Q 1450 2375 825 2825 
L 1225 3175 
z
M 4500 5100 
Q 4900 4825 5300 4425 
Q 5125 4300 4925 4100 
Q 4650 4400 4125 4825 
Q 4275 4950 4500 5100 
z
" transform="scale(0.015625)"/>
       <path id="SimHei-91cf" d="M 5250 2500 
Q 5225 2200 5225 1700 
Q 5225 1225 5250 950 
L 3425 950 
L 3425 625 
L 4575 625 
Q 5000 625 5375 650 
L 5375 275 
Q 5025 300 4575 300 
L 3425 300 
L 3425 -75 
L 5125 -75 
Q 5525 -75 5925 -50 
L 5925 -425 
Q 5525 -400 5125 -400 
L 1275 -400 
Q 900 -400 475 -425 
L 475 -50 
Q 925 -50 1275 -75 
L 2975 -75 
L 2975 300 
L 1725 300 
Q 1350 300 975 250 
L 975 650 
Q 1375 625 1725 625 
L 2975 625 
L 2975 950 
L 1150 950 
Q 1175 1375 1175 1775 
Q 1175 2175 1150 2500 
L 5250 2500 
z
M 5200 4950 
Q 5175 4575 5175 4250 
Q 5175 3925 5200 3400 
L 1200 3400 
Q 1225 3925 1225 4250 
Q 1225 4575 1200 4950 
L 5200 4950 
z
M 4900 3100 
Q 5500 3125 6000 3150 
L 6000 2750 
Q 5500 2775 4925 2775 
L 1650 2775 
Q 975 2775 325 2750 
L 325 3150 
Q 975 3125 1650 3100 
L 4900 3100 
z
M 4725 3700 
L 4725 4025 
L 1675 4025 
L 1675 3700 
L 4725 3700 
z
M 4725 4350 
L 4725 4650 
L 1675 4650 
L 1675 4350 
L 4725 4350 
z
M 4750 1875 
L 4750 2175 
L 3425 2175 
L 3425 1875 
L 4750 1875 
z
M 2975 1875 
L 2975 2175 
L 1650 2175 
L 1650 1875 
L 2975 1875 
z
M 2975 1275 
L 2975 1550 
L 1650 1550 
L 1650 1275 
L 2975 1275 
z
M 4750 1275 
L 4750 1550 
L 3425 1550 
L 3425 1275 
L 4750 1275 
z
" transform="scale(0.015625)"/>
      </defs>
      <use xlink:href="#SimHei-9700"/>
      <use xlink:href="#SimHei-6c42" x="100"/>
      <use xlink:href="#SimHei-91cf" x="200"/>
     </g>
    </g>
   </g>
   <g id="line2d_14">
    <path d="M 115.363636 363.544615 
L 145.558442 357.729231 
L 151.597403 351.913846 
L 157.636364 351.913846 
L 160.655844 363.544615 
L 163.675325 311.206154 
L 166.694805 276.313846 
L 169.714286 247.236923 
L 175.753247 287.944615 
L 178.772727 369.36 
L 187.831169 340.283077 
L 196.88961 363.544615 
L 199.909091 369.36 
L 202.928571 363.544615 
L 205.948052 363.544615 
L 215.006494 351.913846 
L 221.045455 357.729231 
L 224.064935 351.913846 
L 227.084416 369.36 
L 230.103896 322.836923 
L 233.123377 270.498462 
L 236.142857 357.729231 
L 242.181818 363.544615 
L 248.220779 363.544615 
L 254.25974 363.544615 
L 281.435065 363.544615 
L 287.474026 346.098462 
L 290.493506 351.913846 
L 293.512987 351.913846 
L 296.532468 357.729231 
L 299.551948 369.36 
L 302.571429 346.098462 
L 305.590909 287.944615 
L 308.61039 340.283077 
L 311.62987 357.729231 
L 314.649351 351.913846 
L 317.668831 351.913846 
L 320.688312 317.021538 
L 323.707792 305.390769 
L 326.727273 346.098462 
L 332.766234 340.283077 
L 335.785714 369.36 
L 338.805195 351.913846 
L 344.844156 351.913846 
L 347.863636 363.544615 
L 350.883117 357.729231 
L 353.902597 363.544615 
L 356.922078 346.098462 
L 359.941558 346.098462 
L 362.961039 258.867692 
L 365.980519 340.283077 
L 369 369.36 
L 372.019481 66.96 
L 375.038961 299.575385 
L 378.058442 270.498462 
L 381.077922 328.652308 
L 384.097403 334.467692 
L 387.116883 317.021538 
L 390.136364 276.313846 
L 393.155844 351.913846 
L 396.175325 346.098462 
L 399.194805 346.098462 
L 402.214286 317.021538 
L 408.253247 328.652308 
L 414.292208 334.467692 
L 426.37013 357.729231 
L 429.38961 317.021538 
L 432.409091 264.683077 
L 435.428571 299.575385 
L 438.448052 317.021538 
L 441.467532 293.76 
L 444.487013 340.283077 
L 447.506494 346.098462 
L 450.525974 322.836923 
L 453.545455 340.283077 
L 459.584416 363.544615 
L 465.623377 317.021538 
L 468.642857 340.283077 
L 471.662338 299.575385 
L 474.681818 351.913846 
L 477.701299 346.098462 
L 480.720779 229.790769 
L 483.74026 287.944615 
L 486.75974 369.36 
L 489.779221 317.021538 
L 492.798701 334.467692 
L 498.837662 351.913846 
L 501.857143 346.098462 
L 504.876623 363.544615 
L 507.896104 369.36 
L 510.915584 299.575385 
L 513.935065 317.021538 
L 516.954545 317.021538 
L 519.974026 223.975385 
L 522.993506 340.283077 
L 529.032468 247.236923 
L 532.051948 340.283077 
L 535.071429 235.606154 
L 538.090909 305.390769 
L 541.11039 369.36 
L 544.12987 340.283077 
L 547.149351 334.467692 
L 550.168831 258.867692 
L 553.188312 340.283077 
L 556.207792 357.729231 
L 559.227273 334.467692 
L 562.246753 351.913846 
L 565.266234 346.098462 
L 568.285714 369.36 
L 571.305195 351.913846 
L 574.324675 369.36 
L 583.383117 369.36 
L 586.402597 363.544615 
L 589.422078 340.283077 
L 592.441558 340.283077 
L 598.480519 334.467692 
L 601.5 369.36 
L 604.519481 357.729231 
L 607.538961 317.021538 
L 610.558442 299.575385 
L 613.577922 346.098462 
L 619.616883 334.467692 
L 622.636364 369.36 
" clip-path="url(#p6342633fea)" style="fill: none; stroke: #0000ff; stroke-width: 1.5; stroke-linecap: square"/>
    <defs>
     <path id="m57194b616e" d="M 0 3 
C 0.795609 3 1.55874 2.683901 2.12132 2.12132 
C 2.683901 1.55874 3 0.795609 3 0 
C 3 -0.795609 2.683901 -1.55874 2.12132 -2.12132 
C 1.55874 -2.683901 0.795609 -3 0 -3 
C -0.795609 -3 -1.55874 -2.683901 -2.12132 -2.12132 
C -2.683901 -1.55874 -3 -0.795609 -3 0 
C -3 0.795609 -2.683901 1.55874 -2.12132 2.12132 
C -1.55874 2.683901 -0.795609 3 0 3 
z
" style="stroke: #0000ff"/>
    </defs>
    <g clip-path="url(#p6342633fea)">
     <use xlink:href="#m57194b616e" x="115.363636" y="363.544615" style="fill: #0000ff; stroke: #0000ff"/>
     <use xlink:href="#m57194b616e" x="145.558442" y="357.729231" style="fill: #0000ff; stroke: #0000ff"/>
     <use xlink:href="#m57194b616e" x="151.597403" y="351.913846" style="fill: #0000ff; stroke: #0000ff"/>
     <use xlink:href="#m57194b616e" x="157.636364" y="351.913846" style="fill: #0000ff; stroke: #0000ff"/>
     <use xlink:href="#m57194b616e" x="160.655844" y="363.544615" style="fill: #0000ff; stroke: #0000ff"/>
     <use xlink:href="#m57194b616e" x="163.675325" y="311.206154" style="fill: #0000ff; stroke: #0000ff"/>
     <use xlink:href="#m57194b616e" x="166.694805" y="276.313846" style="fill: #0000ff; stroke: #0000ff"/>
     <use xlink:href="#m57194b616e" x="169.714286" y="247.236923" style="fill: #0000ff; stroke: #0000ff"/>
     <use xlink:href="#m57194b616e" x="175.753247" y="287.944615" style="fill: #0000ff; stroke: #0000ff"/>
     <use xlink:href="#m57194b616e" x="178.772727" y="369.36" style="fill: #0000ff; stroke: #0000ff"/>
     <use xlink:href="#m57194b616e" x="187.831169" y="340.283077" style="fill: #0000ff; stroke: #0000ff"/>
     <use xlink:href="#m57194b616e" x="196.88961" y="363.544615" style="fill: #0000ff; stroke: #0000ff"/>
     <use xlink:href="#m57194b616e" x="199.909091" y="369.36" style="fill: #0000ff; stroke: #0000ff"/>
     <use xlink:href="#m57194b616e" x="202.928571" y="363.544615" style="fill: #0000ff; stroke: #0000ff"/>
     <use xlink:href="#m57194b616e" x="205.948052" y="363.544615" style="fill: #0000ff; stroke: #0000ff"/>
     <use xlink:href="#m57194b616e" x="215.006494" y="351.913846" style="fill: #0000ff; stroke: #0000ff"/>
     <use xlink:href="#m57194b616e" x="221.045455" y="357.729231" style="fill: #0000ff; stroke: #0000ff"/>
     <use xlink:href="#m57194b616e" x="224.064935" y="351.913846" style="fill: #0000ff; stroke: #0000ff"/>
     <use xlink:href="#m57194b616e" x="227.084416" y="369.36" style="fill: #0000ff; stroke: #0000ff"/>
     <use xlink:href="#m57194b616e" x="230.103896" y="322.836923" style="fill: #0000ff; stroke: #0000ff"/>
     <use xlink:href="#m57194b616e" x="233.123377" y="270.498462" style="fill: #0000ff; stroke: #0000ff"/>
     <use xlink:href="#m57194b616e" x="236.142857" y="357.729231" style="fill: #0000ff; stroke: #0000ff"/>
     <use xlink:href="#m57194b616e" x="242.181818" y="363.544615" style="fill: #0000ff; stroke: #0000ff"/>
     <use xlink:href="#m57194b616e" x="248.220779" y="363.544615" style="fill: #0000ff; stroke: #0000ff"/>
     <use xlink:href="#m57194b616e" x="254.25974" y="363.544615" style="fill: #0000ff; stroke: #0000ff"/>
     <use xlink:href="#m57194b616e" x="281.435065" y="363.544615" style="fill: #0000ff; stroke: #0000ff"/>
     <use xlink:href="#m57194b616e" x="287.474026" y="346.098462" style="fill: #0000ff; stroke: #0000ff"/>
     <use xlink:href="#m57194b616e" x="290.493506" y="351.913846" style="fill: #0000ff; stroke: #0000ff"/>
     <use xlink:href="#m57194b616e" x="293.512987" y="351.913846" style="fill: #0000ff; stroke: #0000ff"/>
     <use xlink:href="#m57194b616e" x="296.532468" y="357.729231" style="fill: #0000ff; stroke: #0000ff"/>
     <use xlink:href="#m57194b616e" x="299.551948" y="369.36" style="fill: #0000ff; stroke: #0000ff"/>
     <use xlink:href="#m57194b616e" x="302.571429" y="346.098462" style="fill: #0000ff; stroke: #0000ff"/>
     <use xlink:href="#m57194b616e" x="305.590909" y="287.944615" style="fill: #0000ff; stroke: #0000ff"/>
     <use xlink:href="#m57194b616e" x="308.61039" y="340.283077" style="fill: #0000ff; stroke: #0000ff"/>
     <use xlink:href="#m57194b616e" x="311.62987" y="357.729231" style="fill: #0000ff; stroke: #0000ff"/>
     <use xlink:href="#m57194b616e" x="314.649351" y="351.913846" style="fill: #0000ff; stroke: #0000ff"/>
     <use xlink:href="#m57194b616e" x="317.668831" y="351.913846" style="fill: #0000ff; stroke: #0000ff"/>
     <use xlink:href="#m57194b616e" x="320.688312" y="317.021538" style="fill: #0000ff; stroke: #0000ff"/>
     <use xlink:href="#m57194b616e" x="323.707792" y="305.390769" style="fill: #0000ff; stroke: #0000ff"/>
     <use xlink:href="#m57194b616e" x="326.727273" y="346.098462" style="fill: #0000ff; stroke: #0000ff"/>
     <use xlink:href="#m57194b616e" x="332.766234" y="340.283077" style="fill: #0000ff; stroke: #0000ff"/>
     <use xlink:href="#m57194b616e" x="335.785714" y="369.36" style="fill: #0000ff; stroke: #0000ff"/>
     <use xlink:href="#m57194b616e" x="338.805195" y="351.913846" style="fill: #0000ff; stroke: #0000ff"/>
     <use xlink:href="#m57194b616e" x="344.844156" y="351.913846" style="fill: #0000ff; stroke: #0000ff"/>
     <use xlink:href="#m57194b616e" x="347.863636" y="363.544615" style="fill: #0000ff; stroke: #0000ff"/>
     <use xlink:href="#m57194b616e" x="350.883117" y="357.729231" style="fill: #0000ff; stroke: #0000ff"/>
     <use xlink:href="#m57194b616e" x="353.902597" y="363.544615" style="fill: #0000ff; stroke: #0000ff"/>
     <use xlink:href="#m57194b616e" x="356.922078" y="346.098462" style="fill: #0000ff; stroke: #0000ff"/>
     <use xlink:href="#m57194b616e" x="359.941558" y="346.098462" style="fill: #0000ff; stroke: #0000ff"/>
     <use xlink:href="#m57194b616e" x="362.961039" y="258.867692" style="fill: #0000ff; stroke: #0000ff"/>
     <use xlink:href="#m57194b616e" x="365.980519" y="340.283077" style="fill: #0000ff; stroke: #0000ff"/>
     <use xlink:href="#m57194b616e" x="369" y="369.36" style="fill: #0000ff; stroke: #0000ff"/>
     <use xlink:href="#m57194b616e" x="372.019481" y="66.96" style="fill: #0000ff; stroke: #0000ff"/>
     <use xlink:href="#m57194b616e" x="375.038961" y="299.575385" style="fill: #0000ff; stroke: #0000ff"/>
     <use xlink:href="#m57194b616e" x="378.058442" y="270.498462" style="fill: #0000ff; stroke: #0000ff"/>
     <use xlink:href="#m57194b616e" x="381.077922" y="328.652308" style="fill: #0000ff; stroke: #0000ff"/>
     <use xlink:href="#m57194b616e" x="384.097403" y="334.467692" style="fill: #0000ff; stroke: #0000ff"/>
     <use xlink:href="#m57194b616e" x="387.116883" y="317.021538" style="fill: #0000ff; stroke: #0000ff"/>
     <use xlink:href="#m57194b616e" x="390.136364" y="276.313846" style="fill: #0000ff; stroke: #0000ff"/>
     <use xlink:href="#m57194b616e" x="393.155844" y="351.913846" style="fill: #0000ff; stroke: #0000ff"/>
     <use xlink:href="#m57194b616e" x="396.175325" y="346.098462" style="fill: #0000ff; stroke: #0000ff"/>
     <use xlink:href="#m57194b616e" x="399.194805" y="346.098462" style="fill: #0000ff; stroke: #0000ff"/>
     <use xlink:href="#m57194b616e" x="402.214286" y="317.021538" style="fill: #0000ff; stroke: #0000ff"/>
     <use xlink:href="#m57194b616e" x="408.253247" y="328.652308" style="fill: #0000ff; stroke: #0000ff"/>
     <use xlink:href="#m57194b616e" x="414.292208" y="334.467692" style="fill: #0000ff; stroke: #0000ff"/>
     <use xlink:href="#m57194b616e" x="426.37013" y="357.729231" style="fill: #0000ff; stroke: #0000ff"/>
     <use xlink:href="#m57194b616e" x="429.38961" y="317.021538" style="fill: #0000ff; stroke: #0000ff"/>
     <use xlink:href="#m57194b616e" x="432.409091" y="264.683077" style="fill: #0000ff; stroke: #0000ff"/>
     <use xlink:href="#m57194b616e" x="435.428571" y="299.575385" style="fill: #0000ff; stroke: #0000ff"/>
     <use xlink:href="#m57194b616e" x="438.448052" y="317.021538" style="fill: #0000ff; stroke: #0000ff"/>
     <use xlink:href="#m57194b616e" x="441.467532" y="293.76" style="fill: #0000ff; stroke: #0000ff"/>
     <use xlink:href="#m57194b616e" x="444.487013" y="340.283077" style="fill: #0000ff; stroke: #0000ff"/>
     <use xlink:href="#m57194b616e" x="447.506494" y="346.098462" style="fill: #0000ff; stroke: #0000ff"/>
     <use xlink:href="#m57194b616e" x="450.525974" y="322.836923" style="fill: #0000ff; stroke: #0000ff"/>
     <use xlink:href="#m57194b616e" x="453.545455" y="340.283077" style="fill: #0000ff; stroke: #0000ff"/>
     <use xlink:href="#m57194b616e" x="459.584416" y="363.544615" style="fill: #0000ff; stroke: #0000ff"/>
     <use xlink:href="#m57194b616e" x="465.623377" y="317.021538" style="fill: #0000ff; stroke: #0000ff"/>
     <use xlink:href="#m57194b616e" x="468.642857" y="340.283077" style="fill: #0000ff; stroke: #0000ff"/>
     <use xlink:href="#m57194b616e" x="471.662338" y="299.575385" style="fill: #0000ff; stroke: #0000ff"/>
     <use xlink:href="#m57194b616e" x="474.681818" y="351.913846" style="fill: #0000ff; stroke: #0000ff"/>
     <use xlink:href="#m57194b616e" x="477.701299" y="346.098462" style="fill: #0000ff; stroke: #0000ff"/>
     <use xlink:href="#m57194b616e" x="480.720779" y="229.790769" style="fill: #0000ff; stroke: #0000ff"/>
     <use xlink:href="#m57194b616e" x="483.74026" y="287.944615" style="fill: #0000ff; stroke: #0000ff"/>
     <use xlink:href="#m57194b616e" x="486.75974" y="369.36" style="fill: #0000ff; stroke: #0000ff"/>
     <use xlink:href="#m57194b616e" x="489.779221" y="317.021538" style="fill: #0000ff; stroke: #0000ff"/>
     <use xlink:href="#m57194b616e" x="492.798701" y="334.467692" style="fill: #0000ff; stroke: #0000ff"/>
     <use xlink:href="#m57194b616e" x="498.837662" y="351.913846" style="fill: #0000ff; stroke: #0000ff"/>
     <use xlink:href="#m57194b616e" x="501.857143" y="346.098462" style="fill: #0000ff; stroke: #0000ff"/>
     <use xlink:href="#m57194b616e" x="504.876623" y="363.544615" style="fill: #0000ff; stroke: #0000ff"/>
     <use xlink:href="#m57194b616e" x="507.896104" y="369.36" style="fill: #0000ff; stroke: #0000ff"/>
     <use xlink:href="#m57194b616e" x="510.915584" y="299.575385" style="fill: #0000ff; stroke: #0000ff"/>
     <use xlink:href="#m57194b616e" x="513.935065" y="317.021538" style="fill: #0000ff; stroke: #0000ff"/>
     <use xlink:href="#m57194b616e" x="516.954545" y="317.021538" style="fill: #0000ff; stroke: #0000ff"/>
     <use xlink:href="#m57194b616e" x="519.974026" y="223.975385" style="fill: #0000ff; stroke: #0000ff"/>
     <use xlink:href="#m57194b616e" x="522.993506" y="340.283077" style="fill: #0000ff; stroke: #0000ff"/>
     <use xlink:href="#m57194b616e" x="529.032468" y="247.236923" style="fill: #0000ff; stroke: #0000ff"/>
     <use xlink:href="#m57194b616e" x="532.051948" y="340.283077" style="fill: #0000ff; stroke: #0000ff"/>
     <use xlink:href="#m57194b616e" x="535.071429" y="235.606154" style="fill: #0000ff; stroke: #0000ff"/>
     <use xlink:href="#m57194b616e" x="538.090909" y="305.390769" style="fill: #0000ff; stroke: #0000ff"/>
     <use xlink:href="#m57194b616e" x="541.11039" y="369.36" style="fill: #0000ff; stroke: #0000ff"/>
     <use xlink:href="#m57194b616e" x="544.12987" y="340.283077" style="fill: #0000ff; stroke: #0000ff"/>
     <use xlink:href="#m57194b616e" x="547.149351" y="334.467692" style="fill: #0000ff; stroke: #0000ff"/>
     <use xlink:href="#m57194b616e" x="550.168831" y="258.867692" style="fill: #0000ff; stroke: #0000ff"/>
     <use xlink:href="#m57194b616e" x="553.188312" y="340.283077" style="fill: #0000ff; stroke: #0000ff"/>
     <use xlink:href="#m57194b616e" x="556.207792" y="357.729231" style="fill: #0000ff; stroke: #0000ff"/>
     <use xlink:href="#m57194b616e" x="559.227273" y="334.467692" style="fill: #0000ff; stroke: #0000ff"/>
     <use xlink:href="#m57194b616e" x="562.246753" y="351.913846" style="fill: #0000ff; stroke: #0000ff"/>
     <use xlink:href="#m57194b616e" x="565.266234" y="346.098462" style="fill: #0000ff; stroke: #0000ff"/>
     <use xlink:href="#m57194b616e" x="568.285714" y="369.36" style="fill: #0000ff; stroke: #0000ff"/>
     <use xlink:href="#m57194b616e" x="571.305195" y="351.913846" style="fill: #0000ff; stroke: #0000ff"/>
     <use xlink:href="#m57194b616e" x="574.324675" y="369.36" style="fill: #0000ff; stroke: #0000ff"/>
     <use xlink:href="#m57194b616e" x="583.383117" y="369.36" style="fill: #0000ff; stroke: #0000ff"/>
     <use xlink:href="#m57194b616e" x="586.402597" y="363.544615" style="fill: #0000ff; stroke: #0000ff"/>
     <use xlink:href="#m57194b616e" x="589.422078" y="340.283077" style="fill: #0000ff; stroke: #0000ff"/>
     <use xlink:href="#m57194b616e" x="592.441558" y="340.283077" style="fill: #0000ff; stroke: #0000ff"/>
     <use xlink:href="#m57194b616e" x="598.480519" y="334.467692" style="fill: #0000ff; stroke: #0000ff"/>
     <use xlink:href="#m57194b616e" x="601.5" y="369.36" style="fill: #0000ff; stroke: #0000ff"/>
     <use xlink:href="#m57194b616e" x="604.519481" y="357.729231" style="fill: #0000ff; stroke: #0000ff"/>
     <use xlink:href="#m57194b616e" x="607.538961" y="317.021538" style="fill: #0000ff; stroke: #0000ff"/>
     <use xlink:href="#m57194b616e" x="610.558442" y="299.575385" style="fill: #0000ff; stroke: #0000ff"/>
     <use xlink:href="#m57194b616e" x="613.577922" y="346.098462" style="fill: #0000ff; stroke: #0000ff"/>
     <use xlink:href="#m57194b616e" x="619.616883" y="334.467692" style="fill: #0000ff; stroke: #0000ff"/>
     <use xlink:href="#m57194b616e" x="622.636364" y="369.36" style="fill: #0000ff; stroke: #0000ff"/>
    </g>
   </g>
   <g id="patch_3">
    <path d="M 90 384.48 
L 90 51.84 
" style="fill: none; stroke: #000000; stroke-width: 0.8; stroke-linejoin: miter; stroke-linecap: square"/>
   </g>
   <g id="patch_4">
    <path d="M 648 384.48 
L 648 51.84 
" style="fill: none; stroke: #000000; stroke-width: 0.8; stroke-linejoin: miter; stroke-linecap: square"/>
   </g>
   <g id="patch_5">
    <path d="M 90 384.48 
L 648 384.48 
" style="fill: none; stroke: #000000; stroke-width: 0.8; stroke-linejoin: miter; stroke-linecap: square"/>
   </g>
   <g id="patch_6">
    <path d="M 90 51.84 
L 648 51.84 
" style="fill: none; stroke: #000000; stroke-width: 0.8; stroke-linejoin: miter; stroke-linecap: square"/>
   </g>
  </g>
  <g id="axes_2">
   <g id="matplotlib.axis_3">
    <g id="ytick_7">
     <g id="line2d_15">
      <defs>
       <path id="md4f4119ec0" d="M 0 0 
L 3.5 0 
" style="stroke: #000000; stroke-width: 0.8"/>
      </defs>
      <g>
       <use xlink:href="#md4f4119ec0" x="648" y="374.820761" style="stroke: #000000; stroke-width: 0.8"/>
      </g>
     </g>
     <g id="text_16">
      <!-- 0 -->
      <g style="fill: #008000" transform="translate(655 378.258261) scale(0.1 -0.1)">
       <use xlink:href="#SimHei-30"/>
      </g>
     </g>
    </g>
    <g id="ytick_8">
     <g id="line2d_16">
      <g>
       <use xlink:href="#md4f4119ec0" x="648" y="324.774382" style="stroke: #000000; stroke-width: 0.8"/>
      </g>
     </g>
     <g id="text_17">
      <!-- 10000 -->
      <g style="fill: #008000" transform="translate(655 328.211882) scale(0.1 -0.1)">
       <use xlink:href="#SimHei-31"/>
       <use xlink:href="#SimHei-30" x="50"/>
       <use xlink:href="#SimHei-30" x="100"/>
       <use xlink:href="#SimHei-30" x="150"/>
       <use xlink:href="#SimHei-30" x="200"/>
      </g>
     </g>
    </g>
    <g id="ytick_9">
     <g id="line2d_17">
      <g>
       <use xlink:href="#md4f4119ec0" x="648" y="274.728003" style="stroke: #000000; stroke-width: 0.8"/>
      </g>
     </g>
     <g id="text_18">
      <!-- 20000 -->
      <g style="fill: #008000" transform="translate(655 278.165503) scale(0.1 -0.1)">
       <use xlink:href="#SimHei-32"/>
       <use xlink:href="#SimHei-30" x="50"/>
       <use xlink:href="#SimHei-30" x="100"/>
       <use xlink:href="#SimHei-30" x="150"/>
       <use xlink:href="#SimHei-30" x="200"/>
      </g>
     </g>
    </g>
    <g id="ytick_10">
     <g id="line2d_18">
      <g>
       <use xlink:href="#md4f4119ec0" x="648" y="224.681625" style="stroke: #000000; stroke-width: 0.8"/>
      </g>
     </g>
     <g id="text_19">
      <!-- 30000 -->
      <g style="fill: #008000" transform="translate(655 228.119125) scale(0.1 -0.1)">
       <use xlink:href="#SimHei-33"/>
       <use xlink:href="#SimHei-30" x="50"/>
       <use xlink:href="#SimHei-30" x="100"/>
       <use xlink:href="#SimHei-30" x="150"/>
       <use xlink:href="#SimHei-30" x="200"/>
      </g>
     </g>
    </g>
    <g id="ytick_11">
     <g id="line2d_19">
      <g>
       <use xlink:href="#md4f4119ec0" x="648" y="174.635246" style="stroke: #000000; stroke-width: 0.8"/>
      </g>
     </g>
     <g id="text_20">
      <!-- 40000 -->
      <g style="fill: #008000" transform="translate(655 178.072746) scale(0.1 -0.1)">
       <use xlink:href="#SimHei-34"/>
       <use xlink:href="#SimHei-30" x="50"/>
       <use xlink:href="#SimHei-30" x="100"/>
       <use xlink:href="#SimHei-30" x="150"/>
       <use xlink:href="#SimHei-30" x="200"/>
      </g>
     </g>
    </g>
    <g id="ytick_12">
     <g id="line2d_20">
      <g>
       <use xlink:href="#md4f4119ec0" x="648" y="124.588867" style="stroke: #000000; stroke-width: 0.8"/>
      </g>
     </g>
     <g id="text_21">
      <!-- 50000 -->
      <g style="fill: #008000" transform="translate(655 128.026367) scale(0.1 -0.1)">
       <use xlink:href="#SimHei-35"/>
       <use xlink:href="#SimHei-30" x="50"/>
       <use xlink:href="#SimHei-30" x="100"/>
       <use xlink:href="#SimHei-30" x="150"/>
       <use xlink:href="#SimHei-30" x="200"/>
      </g>
     </g>
    </g>
    <g id="ytick_13">
     <g id="line2d_21">
      <g>
       <use xlink:href="#md4f4119ec0" x="648" y="74.542489" style="stroke: #000000; stroke-width: 0.8"/>
      </g>
     </g>
     <g id="text_22">
      <!-- 60000 -->
      <g style="fill: #008000" transform="translate(655 77.979989) scale(0.1 -0.1)">
       <defs>
        <path id="SimHei-36" d="M 250 1612 
Q 275 1975 387 2225 
Q 500 2475 725 2850 
L 1750 4450 
L 2325 4450 
L 1275 2800 
Q 1950 2975 2350 2750 
Q 2750 2525 2887 2237 
Q 3025 1950 3037 1612 
Q 3050 1275 2937 950 
Q 2825 625 2537 362 
Q 2250 100 1737 75 
Q 1225 50 862 262 
Q 500 475 362 862 
Q 225 1250 250 1612 
z
M 1025 787 
Q 1250 550 1625 525 
Q 2000 500 2250 775 
Q 2500 1050 2500 1575 
Q 2500 2100 2187 2300 
Q 1875 2500 1487 2450 
Q 1100 2400 925 2075 
Q 750 1750 775 1387 
Q 800 1025 1025 787 
z
" transform="scale(0.015625)"/>
       </defs>
       <use xlink:href="#SimHei-36"/>
       <use xlink:href="#SimHei-30" x="50"/>
       <use xlink:href="#SimHei-30" x="100"/>
       <use xlink:href="#SimHei-30" x="150"/>
       <use xlink:href="#SimHei-30" x="200"/>
      </g>
     </g>
    </g>
    <g id="text_23">
     <!-- 收益 -->
     <g style="fill: #008000" transform="translate(691.929688 228.16) rotate(-90) scale(0.1 -0.1)">
      <defs>
       <path id="SimHei-6536" d="M 4250 5050 
Q 4125 4850 3750 4050 
L 5150 4050 
Q 5675 4050 6125 4075 
L 6125 3600 
Q 5675 3625 5300 3625 
Q 5225 2625 5025 1975 
Q 4825 1325 4575 900 
Q 4900 500 5287 275 
Q 5675 50 6200 -75 
Q 5900 -275 5800 -550 
Q 5300 -350 4950 -100 
Q 4600 150 4275 525 
Q 3800 0 2775 -625 
Q 2650 -425 2300 -225 
Q 3275 150 3950 925 
Q 3775 1325 3612 1787 
Q 3450 2250 3250 3000 
Q 2975 2450 2825 2275 
Q 2650 2400 2425 2525 
Q 2775 3025 3137 3837 
Q 3500 4650 3625 5250 
Q 3925 5125 4250 5050 
z
M 975 4275 
Q 925 3950 925 3450 
L 925 1575 
L 1775 1725 
L 1775 4425 
Q 1775 4775 1750 5150 
L 2250 5150 
Q 2225 4850 2225 4450 
L 2225 300 
Q 2225 -50 2250 -550 
L 1750 -550 
Q 1775 -25 1775 350 
L 1775 1350 
Q 625 1050 500 925 
Q 375 1125 225 1350 
Q 450 1475 450 1800 
L 450 3575 
Q 450 3925 425 4275 
L 975 4275 
z
M 3725 3150 
Q 3800 2700 3962 2212 
Q 4125 1725 4300 1375 
Q 4725 2150 4825 3625 
L 3575 3625 
Q 3400 3275 3300 3100 
L 3725 3150 
z
" transform="scale(0.015625)"/>
       <path id="SimHei-76ca" d="M 2825 2925 
Q 2425 2775 2012 2487 
Q 1600 2200 1225 1975 
L 5275 1975 
Q 5250 1575 5250 1000 
L 5250 -50 
Q 5800 -50 6175 -25 
L 6175 -525 
Q 5725 -500 5250 -500 
L 1325 -500 
Q 700 -500 250 -525 
L 250 -25 
Q 600 -50 1175 -50 
L 1175 1050 
Q 1175 1575 1150 1925 
Q 1000 1800 800 1700 
Q 650 1950 425 2125 
Q 800 2275 1312 2600 
Q 1825 2925 2325 3400 
Q 2550 3150 2825 2925 
z
M 4725 5050 
Q 4575 4900 4462 4637 
Q 4350 4375 4175 4075 
L 4625 4075 
Q 5350 4075 5900 4100 
L 5900 3625 
Q 5350 3650 4625 3650 
L 1975 3650 
Q 1350 3650 550 3625 
L 550 4100 
Q 1175 4075 1975 4075 
L 3675 4075 
Q 3775 4300 3887 4625 
Q 4000 4950 4125 5250 
L 4725 5050 
z
M 3600 -50 
L 3600 1575 
L 2800 1575 
L 2800 -50 
L 3600 -50 
z
M 4800 -50 
L 4800 1575 
L 4025 1575 
L 4025 -50 
L 4800 -50 
z
M 2375 -50 
L 2375 1575 
L 1625 1575 
L 1625 -50 
L 2375 -50 
z
M 3900 3350 
Q 4375 3150 4900 2925 
Q 5425 2700 5900 2500 
Q 5700 2300 5550 2000 
Q 5025 2300 4512 2537 
Q 4000 2775 3625 2900 
Q 3750 3075 3900 3350 
z
M 2150 5250 
Q 2375 4925 2650 4350 
Q 2425 4275 2150 4125 
Q 1950 4650 1675 5025 
Q 1875 5100 2150 5250 
z
" transform="scale(0.015625)"/>
      </defs>
      <use xlink:href="#SimHei-6536"/>
      <use xlink:href="#SimHei-76ca" x="100"/>
     </g>
    </g>
   </g>
   <g id="line2d_22">
    <path d="M 115.363636 363.886628 
L 145.558442 358.419561 
L 151.597403 352.952495 
L 157.636364 352.952495 
L 160.655844 363.886628 
L 163.675325 307.783948 
L 166.694805 270.152193 
L 169.714286 239.36732 
L 175.753247 282.466142 
L 178.772727 369.353694 
L 187.831169 342.018362 
L 196.88961 363.886628 
L 199.909091 369.353694 
L 202.928571 363.886628 
L 205.948052 363.886628 
L 215.006494 351.572679 
L 221.045455 358.419561 
L 224.064935 352.952495 
L 227.084416 368.663786 
L 230.103896 323.547438 
L 233.123377 272.964024 
L 236.142857 356.349837 
L 242.181818 362.506811 
L 248.220779 363.886628 
L 254.25974 362.506811 
L 281.435065 362.506811 
L 287.474026 344.167605 
L 290.493506 350.258721 
L 293.512987 351.638537 
L 296.532468 356.448625 
L 299.551948 368.663786 
L 302.571429 344.200534 
L 305.590909 282.978523 
L 308.61039 338.076489 
L 311.62987 356.448625 
L 314.649351 350.324579 
L 317.668831 350.324579 
L 320.688312 314.8518 
L 323.707792 303.203286 
L 326.727273 345.108743 
L 332.766234 339.253622 
L 335.785714 368.878357 
L 338.805195 351.167523 
L 344.844156 351.105798 
L 347.863636 362.994142 
L 350.883117 357.080833 
L 353.902597 362.935953 
L 356.922078 345.254214 
L 359.941558 345.254214 
L 362.961039 257.557304 
L 365.980519 339.649436 
L 369 369.353694 
L 372.019481 66.96 
L 375.038961 298.641958 
L 378.058442 275.623923 
L 381.077922 329.899766 
L 384.097403 336.551296 
L 387.116883 319.005726 
L 390.136364 276.696787 
L 393.155844 351.7599 
L 396.175325 346.474664 
L 399.194805 346.510919 
L 402.214286 317.207901 
L 408.253247 328.807803 
L 414.292208 334.630587 
L 426.37013 357.571382 
L 429.38961 317.20608 
L 432.409091 265.352868 
L 435.428571 300.804881 
L 438.448052 318.008955 
L 441.467532 295.696542 
L 444.487013 340.910381 
L 447.506494 346.552732 
L 450.525974 323.955191 
L 453.545455 340.910381 
L 459.584416 363.517301 
L 465.623377 318.334106 
L 468.642857 341.03296 
L 471.662338 301.747449 
L 474.681818 352.331723 
L 477.701299 346.885111 
L 480.720779 234.017829 
L 483.74026 291.353366 
L 486.75974 369.256268 
L 489.779221 319.175831 
L 492.798701 336.023242 
L 498.837662 352.614099 
L 501.857143 347.100917 
L 504.876623 363.743085 
L 507.896104 369.353694 
L 510.915584 302.815872 
L 513.935065 319.432385 
L 516.954545 319.66279 
L 519.974026 232.009093 
L 522.993506 341.864222 
L 529.032468 254.031499 
L 532.051948 341.674668 
L 535.071429 243.065111 
L 538.090909 308.74871 
L 541.11039 369.342105 
L 544.12987 341.948827 
L 547.149351 336.466878 
L 550.168831 265.468077 
L 553.188312 342.010855 
L 556.207792 358.406721 
L 559.227273 336.563704 
L 562.246753 352.926814 
L 565.266234 347.485767 
L 568.285714 369.356675 
L 571.305195 352.974115 
L 574.324675 369.359099 
L 583.383117 369.356676 
L 586.402597 363.890782 
L 589.422078 342.050792 
L 592.441558 342.046226 
L 598.480519 336.595437 
L 601.5 369.36 
L 604.519481 358.437578 
L 607.538961 320.190834 
L 610.558442 303.835866 
L 613.577922 347.525015 
L 619.616883 336.622762 
L 622.636364 369.352443 
" clip-path="url(#p6342633fea)" style="fill: none; stroke: #008000; stroke-width: 1.5; stroke-linecap: square"/>
    <defs>
     <path id="m79449fed24" d="M 0 3 
C 0.795609 3 1.55874 2.683901 2.12132 2.12132 
C 2.683901 1.55874 3 0.795609 3 0 
C 3 -0.795609 2.683901 -1.55874 2.12132 -2.12132 
C 1.55874 -2.683901 0.795609 -3 0 -3 
C -0.795609 -3 -1.55874 -2.683901 -2.12132 -2.12132 
C -2.683901 -1.55874 -3 -0.795609 -3 0 
C -3 0.795609 -2.683901 1.55874 -2.12132 2.12132 
C -1.55874 2.683901 -0.795609 3 0 3 
z
" style="stroke: #008000"/>
    </defs>
    <g clip-path="url(#p6342633fea)">
     <use xlink:href="#m79449fed24" x="115.363636" y="363.886628" style="fill: #008000; stroke: #008000"/>
     <use xlink:href="#m79449fed24" x="145.558442" y="358.419561" style="fill: #008000; stroke: #008000"/>
     <use xlink:href="#m79449fed24" x="151.597403" y="352.952495" style="fill: #008000; stroke: #008000"/>
     <use xlink:href="#m79449fed24" x="157.636364" y="352.952495" style="fill: #008000; stroke: #008000"/>
     <use xlink:href="#m79449fed24" x="160.655844" y="363.886628" style="fill: #008000; stroke: #008000"/>
     <use xlink:href="#m79449fed24" x="163.675325" y="307.783948" style="fill: #008000; stroke: #008000"/>
     <use xlink:href="#m79449fed24" x="166.694805" y="270.152193" style="fill: #008000; stroke: #008000"/>
     <use xlink:href="#m79449fed24" x="169.714286" y="239.36732" style="fill: #008000; stroke: #008000"/>
     <use xlink:href="#m79449fed24" x="175.753247" y="282.466142" style="fill: #008000; stroke: #008000"/>
     <use xlink:href="#m79449fed24" x="178.772727" y="369.353694" style="fill: #008000; stroke: #008000"/>
     <use xlink:href="#m79449fed24" x="187.831169" y="342.018362" style="fill: #008000; stroke: #008000"/>
     <use xlink:href="#m79449fed24" x="196.88961" y="363.886628" style="fill: #008000; stroke: #008000"/>
     <use xlink:href="#m79449fed24" x="199.909091" y="369.353694" style="fill: #008000; stroke: #008000"/>
     <use xlink:href="#m79449fed24" x="202.928571" y="363.886628" style="fill: #008000; stroke: #008000"/>
     <use xlink:href="#m79449fed24" x="205.948052" y="363.886628" style="fill: #008000; stroke: #008000"/>
     <use xlink:href="#m79449fed24" x="215.006494" y="351.572679" style="fill: #008000; stroke: #008000"/>
     <use xlink:href="#m79449fed24" x="221.045455" y="358.419561" style="fill: #008000; stroke: #008000"/>
     <use xlink:href="#m79449fed24" x="224.064935" y="352.952495" style="fill: #008000; stroke: #008000"/>
     <use xlink:href="#m79449fed24" x="227.084416" y="368.663786" style="fill: #008000; stroke: #008000"/>
     <use xlink:href="#m79449fed24" x="230.103896" y="323.547438" style="fill: #008000; stroke: #008000"/>
     <use xlink:href="#m79449fed24" x="233.123377" y="272.964024" style="fill: #008000; stroke: #008000"/>
     <use xlink:href="#m79449fed24" x="236.142857" y="356.349837" style="fill: #008000; stroke: #008000"/>
     <use xlink:href="#m79449fed24" x="242.181818" y="362.506811" style="fill: #008000; stroke: #008000"/>
     <use xlink:href="#m79449fed24" x="248.220779" y="363.886628" style="fill: #008000; stroke: #008000"/>
     <use xlink:href="#m79449fed24" x="254.25974" y="362.506811" style="fill: #008000; stroke: #008000"/>
     <use xlink:href="#m79449fed24" x="281.435065" y="362.506811" style="fill: #008000; stroke: #008000"/>
     <use xlink:href="#m79449fed24" x="287.474026" y="344.167605" style="fill: #008000; stroke: #008000"/>
     <use xlink:href="#m79449fed24" x="290.493506" y="350.258721" style="fill: #008000; stroke: #008000"/>
     <use xlink:href="#m79449fed24" x="293.512987" y="351.638537" style="fill: #008000; stroke: #008000"/>
     <use xlink:href="#m79449fed24" x="296.532468" y="356.448625" style="fill: #008000; stroke: #008000"/>
     <use xlink:href="#m79449fed24" x="299.551948" y="368.663786" style="fill: #008000; stroke: #008000"/>
     <use xlink:href="#m79449fed24" x="302.571429" y="344.200534" style="fill: #008000; stroke: #008000"/>
     <use xlink:href="#m79449fed24" x="305.590909" y="282.978523" style="fill: #008000; stroke: #008000"/>
     <use xlink:href="#m79449fed24" x="308.61039" y="338.076489" style="fill: #008000; stroke: #008000"/>
     <use xlink:href="#m79449fed24" x="311.62987" y="356.448625" style="fill: #008000; stroke: #008000"/>
     <use xlink:href="#m79449fed24" x="314.649351" y="350.324579" style="fill: #008000; stroke: #008000"/>
     <use xlink:href="#m79449fed24" x="317.668831" y="350.324579" style="fill: #008000; stroke: #008000"/>
     <use xlink:href="#m79449fed24" x="320.688312" y="314.8518" style="fill: #008000; stroke: #008000"/>
     <use xlink:href="#m79449fed24" x="323.707792" y="303.203286" style="fill: #008000; stroke: #008000"/>
     <use xlink:href="#m79449fed24" x="326.727273" y="345.108743" style="fill: #008000; stroke: #008000"/>
     <use xlink:href="#m79449fed24" x="332.766234" y="339.253622" style="fill: #008000; stroke: #008000"/>
     <use xlink:href="#m79449fed24" x="335.785714" y="368.878357" style="fill: #008000; stroke: #008000"/>
     <use xlink:href="#m79449fed24" x="338.805195" y="351.167523" style="fill: #008000; stroke: #008000"/>
     <use xlink:href="#m79449fed24" x="344.844156" y="351.105798" style="fill: #008000; stroke: #008000"/>
     <use xlink:href="#m79449fed24" x="347.863636" y="362.994142" style="fill: #008000; stroke: #008000"/>
     <use xlink:href="#m79449fed24" x="350.883117" y="357.080833" style="fill: #008000; stroke: #008000"/>
     <use xlink:href="#m79449fed24" x="353.902597" y="362.935953" style="fill: #008000; stroke: #008000"/>
     <use xlink:href="#m79449fed24" x="356.922078" y="345.254214" style="fill: #008000; stroke: #008000"/>
     <use xlink:href="#m79449fed24" x="359.941558" y="345.254214" style="fill: #008000; stroke: #008000"/>
     <use xlink:href="#m79449fed24" x="362.961039" y="257.557304" style="fill: #008000; stroke: #008000"/>
     <use xlink:href="#m79449fed24" x="365.980519" y="339.649436" style="fill: #008000; stroke: #008000"/>
     <use xlink:href="#m79449fed24" x="369" y="369.353694" style="fill: #008000; stroke: #008000"/>
     <use xlink:href="#m79449fed24" x="372.019481" y="66.96" style="fill: #008000; stroke: #008000"/>
     <use xlink:href="#m79449fed24" x="375.038961" y="298.641958" style="fill: #008000; stroke: #008000"/>
     <use xlink:href="#m79449fed24" x="378.058442" y="275.623923" style="fill: #008000; stroke: #008000"/>
     <use xlink:href="#m79449fed24" x="381.077922" y="329.899766" style="fill: #008000; stroke: #008000"/>
     <use xlink:href="#m79449fed24" x="384.097403" y="336.551296" style="fill: #008000; stroke: #008000"/>
     <use xlink:href="#m79449fed24" x="387.116883" y="319.005726" style="fill: #008000; stroke: #008000"/>
     <use xlink:href="#m79449fed24" x="390.136364" y="276.696787" style="fill: #008000; stroke: #008000"/>
     <use xlink:href="#m79449fed24" x="393.155844" y="351.7599" style="fill: #008000; stroke: #008000"/>
     <use xlink:href="#m79449fed24" x="396.175325" y="346.474664" style="fill: #008000; stroke: #008000"/>
     <use xlink:href="#m79449fed24" x="399.194805" y="346.510919" style="fill: #008000; stroke: #008000"/>
     <use xlink:href="#m79449fed24" x="402.214286" y="317.207901" style="fill: #008000; stroke: #008000"/>
     <use xlink:href="#m79449fed24" x="408.253247" y="328.807803" style="fill: #008000; stroke: #008000"/>
     <use xlink:href="#m79449fed24" x="414.292208" y="334.630587" style="fill: #008000; stroke: #008000"/>
     <use xlink:href="#m79449fed24" x="426.37013" y="357.571382" style="fill: #008000; stroke: #008000"/>
     <use xlink:href="#m79449fed24" x="429.38961" y="317.20608" style="fill: #008000; stroke: #008000"/>
     <use xlink:href="#m79449fed24" x="432.409091" y="265.352868" style="fill: #008000; stroke: #008000"/>
     <use xlink:href="#m79449fed24" x="435.428571" y="300.804881" style="fill: #008000; stroke: #008000"/>
     <use xlink:href="#m79449fed24" x="438.448052" y="318.008955" style="fill: #008000; stroke: #008000"/>
     <use xlink:href="#m79449fed24" x="441.467532" y="295.696542" style="fill: #008000; stroke: #008000"/>
     <use xlink:href="#m79449fed24" x="444.487013" y="340.910381" style="fill: #008000; stroke: #008000"/>
     <use xlink:href="#m79449fed24" x="447.506494" y="346.552732" style="fill: #008000; stroke: #008000"/>
     <use xlink:href="#m79449fed24" x="450.525974" y="323.955191" style="fill: #008000; stroke: #008000"/>
     <use xlink:href="#m79449fed24" x="453.545455" y="340.910381" style="fill: #008000; stroke: #008000"/>
     <use xlink:href="#m79449fed24" x="459.584416" y="363.517301" style="fill: #008000; stroke: #008000"/>
     <use xlink:href="#m79449fed24" x="465.623377" y="318.334106" style="fill: #008000; stroke: #008000"/>
     <use xlink:href="#m79449fed24" x="468.642857" y="341.03296" style="fill: #008000; stroke: #008000"/>
     <use xlink:href="#m79449fed24" x="471.662338" y="301.747449" style="fill: #008000; stroke: #008000"/>
     <use xlink:href="#m79449fed24" x="474.681818" y="352.331723" style="fill: #008000; stroke: #008000"/>
     <use xlink:href="#m79449fed24" x="477.701299" y="346.885111" style="fill: #008000; stroke: #008000"/>
     <use xlink:href="#m79449fed24" x="480.720779" y="234.017829" style="fill: #008000; stroke: #008000"/>
     <use xlink:href="#m79449fed24" x="483.74026" y="291.353366" style="fill: #008000; stroke: #008000"/>
     <use xlink:href="#m79449fed24" x="486.75974" y="369.256268" style="fill: #008000; stroke: #008000"/>
     <use xlink:href="#m79449fed24" x="489.779221" y="319.175831" style="fill: #008000; stroke: #008000"/>
     <use xlink:href="#m79449fed24" x="492.798701" y="336.023242" style="fill: #008000; stroke: #008000"/>
     <use xlink:href="#m79449fed24" x="498.837662" y="352.614099" style="fill: #008000; stroke: #008000"/>
     <use xlink:href="#m79449fed24" x="501.857143" y="347.100917" style="fill: #008000; stroke: #008000"/>
     <use xlink:href="#m79449fed24" x="504.876623" y="363.743085" style="fill: #008000; stroke: #008000"/>
     <use xlink:href="#m79449fed24" x="507.896104" y="369.353694" style="fill: #008000; stroke: #008000"/>
     <use xlink:href="#m79449fed24" x="510.915584" y="302.815872" style="fill: #008000; stroke: #008000"/>
     <use xlink:href="#m79449fed24" x="513.935065" y="319.432385" style="fill: #008000; stroke: #008000"/>
     <use xlink:href="#m79449fed24" x="516.954545" y="319.66279" style="fill: #008000; stroke: #008000"/>
     <use xlink:href="#m79449fed24" x="519.974026" y="232.009093" style="fill: #008000; stroke: #008000"/>
     <use xlink:href="#m79449fed24" x="522.993506" y="341.864222" style="fill: #008000; stroke: #008000"/>
     <use xlink:href="#m79449fed24" x="529.032468" y="254.031499" style="fill: #008000; stroke: #008000"/>
     <use xlink:href="#m79449fed24" x="532.051948" y="341.674668" style="fill: #008000; stroke: #008000"/>
     <use xlink:href="#m79449fed24" x="535.071429" y="243.065111" style="fill: #008000; stroke: #008000"/>
     <use xlink:href="#m79449fed24" x="538.090909" y="308.74871" style="fill: #008000; stroke: #008000"/>
     <use xlink:href="#m79449fed24" x="541.11039" y="369.342105" style="fill: #008000; stroke: #008000"/>
     <use xlink:href="#m79449fed24" x="544.12987" y="341.948827" style="fill: #008000; stroke: #008000"/>
     <use xlink:href="#m79449fed24" x="547.149351" y="336.466878" style="fill: #008000; stroke: #008000"/>
     <use xlink:href="#m79449fed24" x="550.168831" y="265.468077" style="fill: #008000; stroke: #008000"/>
     <use xlink:href="#m79449fed24" x="553.188312" y="342.010855" style="fill: #008000; stroke: #008000"/>
     <use xlink:href="#m79449fed24" x="556.207792" y="358.406721" style="fill: #008000; stroke: #008000"/>
     <use xlink:href="#m79449fed24" x="559.227273" y="336.563704" style="fill: #008000; stroke: #008000"/>
     <use xlink:href="#m79449fed24" x="562.246753" y="352.926814" style="fill: #008000; stroke: #008000"/>
     <use xlink:href="#m79449fed24" x="565.266234" y="347.485767" style="fill: #008000; stroke: #008000"/>
     <use xlink:href="#m79449fed24" x="568.285714" y="369.356675" style="fill: #008000; stroke: #008000"/>
     <use xlink:href="#m79449fed24" x="571.305195" y="352.974115" style="fill: #008000; stroke: #008000"/>
     <use xlink:href="#m79449fed24" x="574.324675" y="369.359099" style="fill: #008000; stroke: #008000"/>
     <use xlink:href="#m79449fed24" x="583.383117" y="369.356676" style="fill: #008000; stroke: #008000"/>
     <use xlink:href="#m79449fed24" x="586.402597" y="363.890782" style="fill: #008000; stroke: #008000"/>
     <use xlink:href="#m79449fed24" x="589.422078" y="342.050792" style="fill: #008000; stroke: #008000"/>
     <use xlink:href="#m79449fed24" x="592.441558" y="342.046226" style="fill: #008000; stroke: #008000"/>
     <use xlink:href="#m79449fed24" x="598.480519" y="336.595437" style="fill: #008000; stroke: #008000"/>
     <use xlink:href="#m79449fed24" x="601.5" y="369.36" style="fill: #008000; stroke: #008000"/>
     <use xlink:href="#m79449fed24" x="604.519481" y="358.437578" style="fill: #008000; stroke: #008000"/>
     <use xlink:href="#m79449fed24" x="607.538961" y="320.190834" style="fill: #008000; stroke: #008000"/>
     <use xlink:href="#m79449fed24" x="610.558442" y="303.835866" style="fill: #008000; stroke: #008000"/>
     <use xlink:href="#m79449fed24" x="613.577922" y="347.525015" style="fill: #008000; stroke: #008000"/>
     <use xlink:href="#m79449fed24" x="619.616883" y="336.622762" style="fill: #008000; stroke: #008000"/>
     <use xlink:href="#m79449fed24" x="622.636364" y="369.352443" style="fill: #008000; stroke: #008000"/>
    </g>
   </g>
   <g id="patch_7">
    <path d="M 90 384.48 
L 90 51.84 
" style="fill: none; stroke: #000000; stroke-width: 0.8; stroke-linejoin: miter; stroke-linecap: square"/>
   </g>
   <g id="patch_8">
    <path d="M 648 384.48 
L 648 51.84 
" style="fill: none; stroke: #000000; stroke-width: 0.8; stroke-linejoin: miter; stroke-linecap: square"/>
   </g>
   <g id="patch_9">
    <path d="M 90 384.48 
L 648 384.48 
" style="fill: none; stroke: #000000; stroke-width: 0.8; stroke-linejoin: miter; stroke-linecap: square"/>
   </g>
   <g id="patch_10">
    <path d="M 90 51.84 
L 648 51.84 
" style="fill: none; stroke: #000000; stroke-width: 0.8; stroke-linejoin: miter; stroke-linecap: square"/>
   </g>
  </g>
  <g id="axes_3">
   <g id="matplotlib.axis_4">
    <g id="ytick_14">
     <g id="line2d_23">
      <g>
       <use xlink:href="#md4f4119ec0" x="708" y="348.521787" style="stroke: #000000; stroke-width: 0.8"/>
      </g>
     </g>
     <g id="text_24">
      <!-- 1100 -->
      <g style="fill: #ff0000" transform="translate(715 351.959287) scale(0.1 -0.1)">
       <use xlink:href="#SimHei-31"/>
       <use xlink:href="#SimHei-31" x="50"/>
       <use xlink:href="#SimHei-30" x="100"/>
       <use xlink:href="#SimHei-30" x="150"/>
      </g>
     </g>
    </g>
    <g id="ytick_15">
     <g id="line2d_24">
      <g>
       <use xlink:href="#md4f4119ec0" x="708" y="305.288981" style="stroke: #000000; stroke-width: 0.8"/>
      </g>
     </g>
     <g id="text_25">
      <!-- 1120 -->
      <g style="fill: #ff0000" transform="translate(715 308.726481) scale(0.1 -0.1)">
       <use xlink:href="#SimHei-31"/>
       <use xlink:href="#SimHei-31" x="50"/>
       <use xlink:href="#SimHei-32" x="100"/>
       <use xlink:href="#SimHei-30" x="150"/>
      </g>
     </g>
    </g>
    <g id="ytick_16">
     <g id="line2d_25">
      <g>
       <use xlink:href="#md4f4119ec0" x="708" y="262.056175" style="stroke: #000000; stroke-width: 0.8"/>
      </g>
     </g>
     <g id="text_26">
      <!-- 1140 -->
      <g style="fill: #ff0000" transform="translate(715 265.493675) scale(0.1 -0.1)">
       <use xlink:href="#SimHei-31"/>
       <use xlink:href="#SimHei-31" x="50"/>
       <use xlink:href="#SimHei-34" x="100"/>
       <use xlink:href="#SimHei-30" x="150"/>
      </g>
     </g>
    </g>
    <g id="ytick_17">
     <g id="line2d_26">
      <g>
       <use xlink:href="#md4f4119ec0" x="708" y="218.823369" style="stroke: #000000; stroke-width: 0.8"/>
      </g>
     </g>
     <g id="text_27">
      <!-- 1160 -->
      <g style="fill: #ff0000" transform="translate(715 222.260869) scale(0.1 -0.1)">
       <use xlink:href="#SimHei-31"/>
       <use xlink:href="#SimHei-31" x="50"/>
       <use xlink:href="#SimHei-36" x="100"/>
       <use xlink:href="#SimHei-30" x="150"/>
      </g>
     </g>
    </g>
    <g id="ytick_18">
     <g id="line2d_27">
      <g>
       <use xlink:href="#md4f4119ec0" x="708" y="175.590563" style="stroke: #000000; stroke-width: 0.8"/>
      </g>
     </g>
     <g id="text_28">
      <!-- 1180 -->
      <g style="fill: #ff0000" transform="translate(715 179.028063) scale(0.1 -0.1)">
       <defs>
        <path id="SimHei-38" d="M 175 1375 
Q 175 1675 325 1962 
Q 475 2250 825 2425 
Q 525 2600 425 2812 
Q 325 3025 312 3300 
Q 300 3575 387 3775 
Q 475 3975 650 4150 
Q 825 4325 1037 4387 
Q 1250 4450 1500 4450 
Q 1750 4450 1950 4400 
Q 2150 4350 2375 4187 
Q 2600 4025 2700 3725 
Q 2800 3425 2687 3025 
Q 2575 2625 2100 2400 
Q 2525 2275 2700 2012 
Q 2875 1750 2875 1375 
Q 2875 1000 2762 775 
Q 2650 550 2512 400 
Q 2375 250 2137 162 
Q 1900 75 1537 75 
Q 1175 75 912 162 
Q 650 250 475 425 
Q 300 600 237 837 
Q 175 1075 175 1375 
z
M 687 1400 
Q 675 1100 787 875 
Q 900 650 1200 587 
Q 1500 525 1825 600 
Q 2150 675 2275 950 
Q 2400 1225 2362 1500 
Q 2325 1775 2050 1962 
Q 1775 2150 1450 2125 
Q 1125 2100 912 1900 
Q 700 1700 687 1400 
z
M 775 3350 
Q 775 3100 950 2875 
Q 1125 2650 1500 2650 
Q 1875 2650 2062 2875 
Q 2250 3100 2237 3412 
Q 2225 3725 2012 3875 
Q 1800 4025 1437 4000 
Q 1075 3975 925 3787 
Q 775 3600 775 3350 
z
" transform="scale(0.015625)"/>
       </defs>
       <use xlink:href="#SimHei-31"/>
       <use xlink:href="#SimHei-31" x="50"/>
       <use xlink:href="#SimHei-38" x="100"/>
       <use xlink:href="#SimHei-30" x="150"/>
      </g>
     </g>
    </g>
    <g id="ytick_19">
     <g id="line2d_28">
      <g>
       <use xlink:href="#md4f4119ec0" x="708" y="132.357757" style="stroke: #000000; stroke-width: 0.8"/>
      </g>
     </g>
     <g id="text_29">
      <!-- 1200 -->
      <g style="fill: #ff0000" transform="translate(715 135.795257) scale(0.1 -0.1)">
       <use xlink:href="#SimHei-31"/>
       <use xlink:href="#SimHei-32" x="50"/>
       <use xlink:href="#SimHei-30" x="100"/>
       <use xlink:href="#SimHei-30" x="150"/>
      </g>
     </g>
    </g>
    <g id="ytick_20">
     <g id="line2d_29">
      <g>
       <use xlink:href="#md4f4119ec0" x="708" y="89.124951" style="stroke: #000000; stroke-width: 0.8"/>
      </g>
     </g>
     <g id="text_30">
      <!-- 1220 -->
      <g style="fill: #ff0000" transform="translate(715 92.562451) scale(0.1 -0.1)">
       <use xlink:href="#SimHei-31"/>
       <use xlink:href="#SimHei-32" x="50"/>
       <use xlink:href="#SimHei-32" x="100"/>
       <use xlink:href="#SimHei-30" x="150"/>
      </g>
     </g>
    </g>
    <g id="text_31">
     <!-- 平均单价 -->
     <g style="fill: #ff0000" transform="translate(747.007812 238.16) rotate(-90) scale(0.1 -0.1)">
      <defs>
       <path id="SimHei-5e73" d="M 4525 4825 
Q 4900 4825 5450 4850 
L 5450 4375 
Q 4925 4400 4525 4400 
L 3475 4400 
L 3475 2025 
L 5000 2025 
Q 5550 2025 6025 2050 
L 6025 1575 
Q 5550 1600 5000 1600 
L 3475 1600 
L 3475 450 
Q 3475 -100 3500 -600 
L 2925 -600 
Q 2950 -100 2950 450 
L 2950 1600 
L 1125 1600 
Q 775 1600 375 1575 
L 375 2050 
Q 775 2025 1175 2025 
L 2950 2025 
L 2950 4400 
L 1775 4400 
Q 1400 4400 875 4375 
L 875 4850 
Q 1400 4825 1750 4825 
L 4525 4825 
z
M 3925 2600 
Q 4500 3300 4900 4125 
Q 5150 3950 5400 3825 
Q 4775 2850 4350 2300 
Q 4150 2475 3925 2600 
z
M 1975 2350 
Q 1600 3100 1050 3725 
Q 1250 3875 1450 4050 
Q 2075 3300 2450 2725 
Q 2150 2500 1975 2350 
z
" transform="scale(0.015625)"/>
       <path id="SimHei-5747" d="M 5775 275 
Q 5775 -325 5362 -450 
Q 4950 -575 4425 -600 
Q 4375 -275 4250 25 
Q 4950 -25 5125 62 
Q 5300 150 5300 500 
L 5375 3700 
L 3550 3700 
Q 3425 3375 3262 3037 
Q 3100 2700 2925 2400 
Q 2675 2550 2475 2625 
Q 3150 3625 3500 5200 
Q 3800 5100 4075 5025 
Q 3975 4875 3875 4650 
Q 3775 4425 3675 4125 
L 5900 4125 
L 5775 275 
z
M 1250 3625 
L 1250 4375 
Q 1250 4775 1225 5100 
L 1775 5100 
Q 1750 4725 1750 4375 
L 1750 3625 
L 1900 3625 
Q 2200 3625 2525 3650 
L 2525 3150 
Q 2200 3175 1900 3175 
L 1750 3175 
L 1750 1100 
L 2500 1375 
Q 2475 1125 2525 900 
Q 1225 475 962 362 
Q 700 250 475 150 
Q 375 475 250 750 
Q 575 800 800 850 
Q 1025 900 1250 975 
L 1250 3175 
L 1125 3175 
Q 850 3175 400 3150 
L 400 3650 
Q 850 3625 1100 3625 
L 1250 3625 
z
M 4950 1625 
Q 4675 1425 4137 1050 
Q 3600 675 3175 300 
Q 3000 575 2850 775 
Q 3350 1050 3762 1325 
Q 4175 1600 4775 2075 
Q 4825 1850 4950 1625 
z
M 3775 3150 
Q 4125 2800 4475 2300 
Q 4250 2125 4100 1975 
Q 3900 2325 3450 2825 
Q 3600 3000 3775 3150 
z
" transform="scale(0.015625)"/>
       <path id="SimHei-5355" d="M 5275 4075 
L 5275 1525 
L 3400 1525 
L 3400 925 
L 5050 925 
Q 5600 925 6000 950 
L 6000 450 
Q 5575 475 5050 475 
L 3400 475 
Q 3400 -300 3425 -625 
L 2875 -625 
Q 2925 -300 2925 475 
L 1300 475 
Q 700 475 425 450 
L 425 950 
Q 675 925 1250 925 
L 2925 925 
L 2925 1525 
L 1125 1525 
Q 1150 1950 1150 2750 
Q 1150 3550 1125 4075 
L 3600 4075 
Q 3875 4650 4075 5250 
Q 4325 5125 4650 4975 
Q 4550 4850 4400 4587 
Q 4250 4325 4100 4075 
L 5275 4075 
z
M 4775 1925 
L 4775 2600 
L 3400 2600 
L 3400 1925 
L 4775 1925 
z
M 4775 3000 
L 4775 3650 
L 3400 3650 
L 3400 3000 
L 4775 3000 
z
M 2925 1925 
L 2925 2600 
L 1625 2600 
L 1625 1925 
L 2925 1925 
z
M 2925 3000 
L 2925 3650 
L 1625 3650 
L 1625 3000 
L 2925 3000 
z
M 2100 5225 
Q 2350 4950 2675 4350 
Q 2400 4225 2225 4125 
Q 1975 4675 1725 4975 
Q 1900 5075 2100 5225 
z
" transform="scale(0.015625)"/>
       <path id="SimHei-4ef7" d="M 2200 4975 
Q 2050 4725 1650 3775 
L 1650 450 
Q 1650 -225 1675 -650 
L 1175 -650 
Q 1175 -225 1200 450 
L 1200 2975 
Q 900 2425 650 2100 
Q 525 2275 225 2450 
Q 750 3025 1125 3800 
Q 1500 4575 1625 5175 
Q 1950 5025 2200 4975 
z
M 4175 4700 
Q 4850 3525 6150 2950 
Q 5925 2750 5775 2500 
Q 4725 3100 3950 4300 
Q 3300 3125 2250 2350 
Q 2125 2525 1900 2725 
Q 2825 3325 3250 4050 
Q 3675 4775 3750 5150 
Q 4150 4950 4325 4900 
L 4175 4700 
z
M 3475 2650 
Q 3400 2075 3325 1087 
Q 3250 100 2325 -675 
Q 2175 -450 1925 -300 
Q 2850 350 2912 1262 
Q 2975 2175 2950 2700 
Q 3275 2650 3475 2650 
z
M 5075 2700 
Q 5050 2150 5050 1725 
L 5050 150 
Q 5050 -225 5075 -650 
L 4550 -650 
Q 4575 -225 4575 175 
L 4575 1875 
Q 4575 2150 4550 2700 
L 5075 2700 
z
" transform="scale(0.015625)"/>
      </defs>
      <use xlink:href="#SimHei-5e73"/>
      <use xlink:href="#SimHei-5747" x="100"/>
      <use xlink:href="#SimHei-5355" x="200"/>
      <use xlink:href="#SimHei-4ef7" x="300"/>
     </g>
    </g>
   </g>
   <g id="line2d_30">
    <path d="M 115.363636 364.950254 
L 145.558442 364.950254 
L 151.597403 364.950254 
L 157.636364 364.950254 
L 160.655844 364.950254 
L 163.675325 94.050023 
L 166.694805 66.96 
L 169.714286 66.96 
L 175.753247 66.96 
L 178.772727 364.950254 
L 187.831169 364.950254 
L 196.88961 364.950254 
L 199.909091 364.950254 
L 202.928571 364.950254 
L 205.948052 364.950254 
L 215.006494 215.955127 
L 221.045455 364.950254 
L 224.064935 364.950254 
L 227.084416 66.96 
L 230.103896 265.620169 
L 233.123377 282.175183 
L 236.142857 66.96 
L 242.181818 66.96 
L 248.220779 364.950254 
L 254.25974 66.96 
L 281.435065 66.96 
L 287.474026 78.338456 
L 290.493506 74.071535 
L 293.512987 223.066662 
L 296.532468 81.18307 
L 299.551948 66.96 
L 302.571429 81.18307 
L 305.590909 81.714086 
L 308.61039 81.18307 
L 311.62987 81.18307 
L 314.649351 81.18307 
L 317.668831 81.18307 
L 320.688312 136.10229 
L 323.707792 148.530231 
L 326.727273 159.639099 
L 332.766234 165.922398 
L 335.785714 159.639099 
L 338.805195 172.205696 
L 344.844156 165.54051 
L 347.863636 172.205696 
L 350.883117 172.205696 
L 353.902597 159.639099 
L 356.922078 172.205696 
L 359.941558 172.205696 
L 362.961039 193.861028 
L 365.980519 194.416222 
L 369 364.950254 
L 372.019481 217.392104 
L 375.038961 195.271244 
L 378.058442 346.002028 
L 381.077922 300.999992 
L 384.097403 364.950254 
L 387.116883 315.521741 
L 390.136364 233.241756 
L 393.155844 236.171602 
L 396.175325 277.634847 
L 399.194805 280.766741 
L 402.214286 237.868743 
L 408.253247 242.043904 
L 414.292208 246.434983 
L 426.37013 242.832958 
L 429.38961 237.790122 
L 432.409091 237.790122 
L 435.428571 267.134768 
L 438.448052 272.468468 
L 441.467532 285.189028 
L 444.487013 285.189028 
L 447.506494 284.378833 
L 450.525974 285.189028 
L 453.545455 285.189028 
L 459.584416 285.189028 
L 465.623377 286.512658 
L 468.642857 294.013233 
L 471.662338 298.451749 
L 474.681818 297.918107 
L 477.701299 313.091555 
L 480.720779 293.660265 
L 483.74026 322.869036 
L 486.75974 322.869036 
L 489.779221 322.869036 
L 492.798701 332.367268 
L 498.837662 328.409671 
L 501.857143 331.734052 
L 504.876623 333.950306 
L 507.896104 364.950254 
L 510.915584 333.950306 
L 513.935065 333.950306 
L 516.954545 343.902168 
L 519.974026 353.854029 
L 522.993506 353.854029 
L 529.032468 354.862777 
L 532.051948 340.208411 
L 535.071429 355.122897 
L 538.090909 348.131945 
L 541.11039 359.944596 
L 544.12987 359.944596 
L 547.149351 359.741366 
L 550.168831 364.705012 
L 553.188312 364.409844 
L 556.207792 363.101565 
L 559.227273 365.715922 
L 562.246753 362.17722 
L 565.266234 364.979469 
L 568.285714 366.237871 
L 571.305195 367.284825 
L 574.324675 367.284825 
L 583.383117 366.238293 
L 586.402597 365.847335 
L 589.422078 367.284825 
L 592.441558 366.956107 
L 598.480519 367.673921 
L 601.5 367.673921 
L 604.519481 367.544222 
L 607.538961 366.709829 
L 610.558442 367.839799 
L 613.577922 368.369969 
L 619.616883 369.36 
L 622.636364 364.409844 
" clip-path="url(#p6342633fea)" style="fill: none; stroke: #ff0000; stroke-width: 1.5; stroke-linecap: square"/>
    <defs>
     <path id="macb52885fe" d="M 0 3 
C 0.795609 3 1.55874 2.683901 2.12132 2.12132 
C 2.683901 1.55874 3 0.795609 3 0 
C 3 -0.795609 2.683901 -1.55874 2.12132 -2.12132 
C 1.55874 -2.683901 0.795609 -3 0 -3 
C -0.795609 -3 -1.55874 -2.683901 -2.12132 -2.12132 
C -2.683901 -1.55874 -3 -0.795609 -3 0 
C -3 0.795609 -2.683901 1.55874 -2.12132 2.12132 
C -1.55874 2.683901 -0.795609 3 0 3 
z
" style="stroke: #ff0000"/>
    </defs>
    <g clip-path="url(#p6342633fea)">
     <use xlink:href="#macb52885fe" x="115.363636" y="364.950254" style="fill: #ff0000; stroke: #ff0000"/>
     <use xlink:href="#macb52885fe" x="145.558442" y="364.950254" style="fill: #ff0000; stroke: #ff0000"/>
     <use xlink:href="#macb52885fe" x="151.597403" y="364.950254" style="fill: #ff0000; stroke: #ff0000"/>
     <use xlink:href="#macb52885fe" x="157.636364" y="364.950254" style="fill: #ff0000; stroke: #ff0000"/>
     <use xlink:href="#macb52885fe" x="160.655844" y="364.950254" style="fill: #ff0000; stroke: #ff0000"/>
     <use xlink:href="#macb52885fe" x="163.675325" y="94.050023" style="fill: #ff0000; stroke: #ff0000"/>
     <use xlink:href="#macb52885fe" x="166.694805" y="66.96" style="fill: #ff0000; stroke: #ff0000"/>
     <use xlink:href="#macb52885fe" x="169.714286" y="66.96" style="fill: #ff0000; stroke: #ff0000"/>
     <use xlink:href="#macb52885fe" x="175.753247" y="66.96" style="fill: #ff0000; stroke: #ff0000"/>
     <use xlink:href="#macb52885fe" x="178.772727" y="364.950254" style="fill: #ff0000; stroke: #ff0000"/>
     <use xlink:href="#macb52885fe" x="187.831169" y="364.950254" style="fill: #ff0000; stroke: #ff0000"/>
     <use xlink:href="#macb52885fe" x="196.88961" y="364.950254" style="fill: #ff0000; stroke: #ff0000"/>
     <use xlink:href="#macb52885fe" x="199.909091" y="364.950254" style="fill: #ff0000; stroke: #ff0000"/>
     <use xlink:href="#macb52885fe" x="202.928571" y="364.950254" style="fill: #ff0000; stroke: #ff0000"/>
     <use xlink:href="#macb52885fe" x="205.948052" y="364.950254" style="fill: #ff0000; stroke: #ff0000"/>
     <use xlink:href="#macb52885fe" x="215.006494" y="215.955127" style="fill: #ff0000; stroke: #ff0000"/>
     <use xlink:href="#macb52885fe" x="221.045455" y="364.950254" style="fill: #ff0000; stroke: #ff0000"/>
     <use xlink:href="#macb52885fe" x="224.064935" y="364.950254" style="fill: #ff0000; stroke: #ff0000"/>
     <use xlink:href="#macb52885fe" x="227.084416" y="66.96" style="fill: #ff0000; stroke: #ff0000"/>
     <use xlink:href="#macb52885fe" x="230.103896" y="265.620169" style="fill: #ff0000; stroke: #ff0000"/>
     <use xlink:href="#macb52885fe" x="233.123377" y="282.175183" style="fill: #ff0000; stroke: #ff0000"/>
     <use xlink:href="#macb52885fe" x="236.142857" y="66.96" style="fill: #ff0000; stroke: #ff0000"/>
     <use xlink:href="#macb52885fe" x="242.181818" y="66.96" style="fill: #ff0000; stroke: #ff0000"/>
     <use xlink:href="#macb52885fe" x="248.220779" y="364.950254" style="fill: #ff0000; stroke: #ff0000"/>
     <use xlink:href="#macb52885fe" x="254.25974" y="66.96" style="fill: #ff0000; stroke: #ff0000"/>
     <use xlink:href="#macb52885fe" x="281.435065" y="66.96" style="fill: #ff0000; stroke: #ff0000"/>
     <use xlink:href="#macb52885fe" x="287.474026" y="78.338456" style="fill: #ff0000; stroke: #ff0000"/>
     <use xlink:href="#macb52885fe" x="290.493506" y="74.071535" style="fill: #ff0000; stroke: #ff0000"/>
     <use xlink:href="#macb52885fe" x="293.512987" y="223.066662" style="fill: #ff0000; stroke: #ff0000"/>
     <use xlink:href="#macb52885fe" x="296.532468" y="81.18307" style="fill: #ff0000; stroke: #ff0000"/>
     <use xlink:href="#macb52885fe" x="299.551948" y="66.96" style="fill: #ff0000; stroke: #ff0000"/>
     <use xlink:href="#macb52885fe" x="302.571429" y="81.18307" style="fill: #ff0000; stroke: #ff0000"/>
     <use xlink:href="#macb52885fe" x="305.590909" y="81.714086" style="fill: #ff0000; stroke: #ff0000"/>
     <use xlink:href="#macb52885fe" x="308.61039" y="81.18307" style="fill: #ff0000; stroke: #ff0000"/>
     <use xlink:href="#macb52885fe" x="311.62987" y="81.18307" style="fill: #ff0000; stroke: #ff0000"/>
     <use xlink:href="#macb52885fe" x="314.649351" y="81.18307" style="fill: #ff0000; stroke: #ff0000"/>
     <use xlink:href="#macb52885fe" x="317.668831" y="81.18307" style="fill: #ff0000; stroke: #ff0000"/>
     <use xlink:href="#macb52885fe" x="320.688312" y="136.10229" style="fill: #ff0000; stroke: #ff0000"/>
     <use xlink:href="#macb52885fe" x="323.707792" y="148.530231" style="fill: #ff0000; stroke: #ff0000"/>
     <use xlink:href="#macb52885fe" x="326.727273" y="159.639099" style="fill: #ff0000; stroke: #ff0000"/>
     <use xlink:href="#macb52885fe" x="332.766234" y="165.922398" style="fill: #ff0000; stroke: #ff0000"/>
     <use xlink:href="#macb52885fe" x="335.785714" y="159.639099" style="fill: #ff0000; stroke: #ff0000"/>
     <use xlink:href="#macb52885fe" x="338.805195" y="172.205696" style="fill: #ff0000; stroke: #ff0000"/>
     <use xlink:href="#macb52885fe" x="344.844156" y="165.54051" style="fill: #ff0000; stroke: #ff0000"/>
     <use xlink:href="#macb52885fe" x="347.863636" y="172.205696" style="fill: #ff0000; stroke: #ff0000"/>
     <use xlink:href="#macb52885fe" x="350.883117" y="172.205696" style="fill: #ff0000; stroke: #ff0000"/>
     <use xlink:href="#macb52885fe" x="353.902597" y="159.639099" style="fill: #ff0000; stroke: #ff0000"/>
     <use xlink:href="#macb52885fe" x="356.922078" y="172.205696" style="fill: #ff0000; stroke: #ff0000"/>
     <use xlink:href="#macb52885fe" x="359.941558" y="172.205696" style="fill: #ff0000; stroke: #ff0000"/>
     <use xlink:href="#macb52885fe" x="362.961039" y="193.861028" style="fill: #ff0000; stroke: #ff0000"/>
     <use xlink:href="#macb52885fe" x="365.980519" y="194.416222" style="fill: #ff0000; stroke: #ff0000"/>
     <use xlink:href="#macb52885fe" x="369" y="364.950254" style="fill: #ff0000; stroke: #ff0000"/>
     <use xlink:href="#macb52885fe" x="372.019481" y="217.392104" style="fill: #ff0000; stroke: #ff0000"/>
     <use xlink:href="#macb52885fe" x="375.038961" y="195.271244" style="fill: #ff0000; stroke: #ff0000"/>
     <use xlink:href="#macb52885fe" x="378.058442" y="346.002028" style="fill: #ff0000; stroke: #ff0000"/>
     <use xlink:href="#macb52885fe" x="381.077922" y="300.999992" style="fill: #ff0000; stroke: #ff0000"/>
     <use xlink:href="#macb52885fe" x="384.097403" y="364.950254" style="fill: #ff0000; stroke: #ff0000"/>
     <use xlink:href="#macb52885fe" x="387.116883" y="315.521741" style="fill: #ff0000; stroke: #ff0000"/>
     <use xlink:href="#macb52885fe" x="390.136364" y="233.241756" style="fill: #ff0000; stroke: #ff0000"/>
     <use xlink:href="#macb52885fe" x="393.155844" y="236.171602" style="fill: #ff0000; stroke: #ff0000"/>
     <use xlink:href="#macb52885fe" x="396.175325" y="277.634847" style="fill: #ff0000; stroke: #ff0000"/>
     <use xlink:href="#macb52885fe" x="399.194805" y="280.766741" style="fill: #ff0000; stroke: #ff0000"/>
     <use xlink:href="#macb52885fe" x="402.214286" y="237.868743" style="fill: #ff0000; stroke: #ff0000"/>
     <use xlink:href="#macb52885fe" x="408.253247" y="242.043904" style="fill: #ff0000; stroke: #ff0000"/>
     <use xlink:href="#macb52885fe" x="414.292208" y="246.434983" style="fill: #ff0000; stroke: #ff0000"/>
     <use xlink:href="#macb52885fe" x="426.37013" y="242.832958" style="fill: #ff0000; stroke: #ff0000"/>
     <use xlink:href="#macb52885fe" x="429.38961" y="237.790122" style="fill: #ff0000; stroke: #ff0000"/>
     <use xlink:href="#macb52885fe" x="432.409091" y="237.790122" style="fill: #ff0000; stroke: #ff0000"/>
     <use xlink:href="#macb52885fe" x="435.428571" y="267.134768" style="fill: #ff0000; stroke: #ff0000"/>
     <use xlink:href="#macb52885fe" x="438.448052" y="272.468468" style="fill: #ff0000; stroke: #ff0000"/>
     <use xlink:href="#macb52885fe" x="441.467532" y="285.189028" style="fill: #ff0000; stroke: #ff0000"/>
     <use xlink:href="#macb52885fe" x="444.487013" y="285.189028" style="fill: #ff0000; stroke: #ff0000"/>
     <use xlink:href="#macb52885fe" x="447.506494" y="284.378833" style="fill: #ff0000; stroke: #ff0000"/>
     <use xlink:href="#macb52885fe" x="450.525974" y="285.189028" style="fill: #ff0000; stroke: #ff0000"/>
     <use xlink:href="#macb52885fe" x="453.545455" y="285.189028" style="fill: #ff0000; stroke: #ff0000"/>
     <use xlink:href="#macb52885fe" x="459.584416" y="285.189028" style="fill: #ff0000; stroke: #ff0000"/>
     <use xlink:href="#macb52885fe" x="465.623377" y="286.512658" style="fill: #ff0000; stroke: #ff0000"/>
     <use xlink:href="#macb52885fe" x="468.642857" y="294.013233" style="fill: #ff0000; stroke: #ff0000"/>
     <use xlink:href="#macb52885fe" x="471.662338" y="298.451749" style="fill: #ff0000; stroke: #ff0000"/>
     <use xlink:href="#macb52885fe" x="474.681818" y="297.918107" style="fill: #ff0000; stroke: #ff0000"/>
     <use xlink:href="#macb52885fe" x="477.701299" y="313.091555" style="fill: #ff0000; stroke: #ff0000"/>
     <use xlink:href="#macb52885fe" x="480.720779" y="293.660265" style="fill: #ff0000; stroke: #ff0000"/>
     <use xlink:href="#macb52885fe" x="483.74026" y="322.869036" style="fill: #ff0000; stroke: #ff0000"/>
     <use xlink:href="#macb52885fe" x="486.75974" y="322.869036" style="fill: #ff0000; stroke: #ff0000"/>
     <use xlink:href="#macb52885fe" x="489.779221" y="322.869036" style="fill: #ff0000; stroke: #ff0000"/>
     <use xlink:href="#macb52885fe" x="492.798701" y="332.367268" style="fill: #ff0000; stroke: #ff0000"/>
     <use xlink:href="#macb52885fe" x="498.837662" y="328.409671" style="fill: #ff0000; stroke: #ff0000"/>
     <use xlink:href="#macb52885fe" x="501.857143" y="331.734052" style="fill: #ff0000; stroke: #ff0000"/>
     <use xlink:href="#macb52885fe" x="504.876623" y="333.950306" style="fill: #ff0000; stroke: #ff0000"/>
     <use xlink:href="#macb52885fe" x="507.896104" y="364.950254" style="fill: #ff0000; stroke: #ff0000"/>
     <use xlink:href="#macb52885fe" x="510.915584" y="333.950306" style="fill: #ff0000; stroke: #ff0000"/>
     <use xlink:href="#macb52885fe" x="513.935065" y="333.950306" style="fill: #ff0000; stroke: #ff0000"/>
     <use xlink:href="#macb52885fe" x="516.954545" y="343.902168" style="fill: #ff0000; stroke: #ff0000"/>
     <use xlink:href="#macb52885fe" x="519.974026" y="353.854029" style="fill: #ff0000; stroke: #ff0000"/>
     <use xlink:href="#macb52885fe" x="522.993506" y="353.854029" style="fill: #ff0000; stroke: #ff0000"/>
     <use xlink:href="#macb52885fe" x="529.032468" y="354.862777" style="fill: #ff0000; stroke: #ff0000"/>
     <use xlink:href="#macb52885fe" x="532.051948" y="340.208411" style="fill: #ff0000; stroke: #ff0000"/>
     <use xlink:href="#macb52885fe" x="535.071429" y="355.122897" style="fill: #ff0000; stroke: #ff0000"/>
     <use xlink:href="#macb52885fe" x="538.090909" y="348.131945" style="fill: #ff0000; stroke: #ff0000"/>
     <use xlink:href="#macb52885fe" x="541.11039" y="359.944596" style="fill: #ff0000; stroke: #ff0000"/>
     <use xlink:href="#macb52885fe" x="544.12987" y="359.944596" style="fill: #ff0000; stroke: #ff0000"/>
     <use xlink:href="#macb52885fe" x="547.149351" y="359.741366" style="fill: #ff0000; stroke: #ff0000"/>
     <use xlink:href="#macb52885fe" x="550.168831" y="364.705012" style="fill: #ff0000; stroke: #ff0000"/>
     <use xlink:href="#macb52885fe" x="553.188312" y="364.409844" style="fill: #ff0000; stroke: #ff0000"/>
     <use xlink:href="#macb52885fe" x="556.207792" y="363.101565" style="fill: #ff0000; stroke: #ff0000"/>
     <use xlink:href="#macb52885fe" x="559.227273" y="365.715922" style="fill: #ff0000; stroke: #ff0000"/>
     <use xlink:href="#macb52885fe" x="562.246753" y="362.17722" style="fill: #ff0000; stroke: #ff0000"/>
     <use xlink:href="#macb52885fe" x="565.266234" y="364.979469" style="fill: #ff0000; stroke: #ff0000"/>
     <use xlink:href="#macb52885fe" x="568.285714" y="366.237871" style="fill: #ff0000; stroke: #ff0000"/>
     <use xlink:href="#macb52885fe" x="571.305195" y="367.284825" style="fill: #ff0000; stroke: #ff0000"/>
     <use xlink:href="#macb52885fe" x="574.324675" y="367.284825" style="fill: #ff0000; stroke: #ff0000"/>
     <use xlink:href="#macb52885fe" x="583.383117" y="366.238293" style="fill: #ff0000; stroke: #ff0000"/>
     <use xlink:href="#macb52885fe" x="586.402597" y="365.847335" style="fill: #ff0000; stroke: #ff0000"/>
     <use xlink:href="#macb52885fe" x="589.422078" y="367.284825" style="fill: #ff0000; stroke: #ff0000"/>
     <use xlink:href="#macb52885fe" x="592.441558" y="366.956107" style="fill: #ff0000; stroke: #ff0000"/>
     <use xlink:href="#macb52885fe" x="598.480519" y="367.673921" style="fill: #ff0000; stroke: #ff0000"/>
     <use xlink:href="#macb52885fe" x="601.5" y="367.673921" style="fill: #ff0000; stroke: #ff0000"/>
     <use xlink:href="#macb52885fe" x="604.519481" y="367.544222" style="fill: #ff0000; stroke: #ff0000"/>
     <use xlink:href="#macb52885fe" x="607.538961" y="366.709829" style="fill: #ff0000; stroke: #ff0000"/>
     <use xlink:href="#macb52885fe" x="610.558442" y="367.839799" style="fill: #ff0000; stroke: #ff0000"/>
     <use xlink:href="#macb52885fe" x="613.577922" y="368.369969" style="fill: #ff0000; stroke: #ff0000"/>
     <use xlink:href="#macb52885fe" x="619.616883" y="369.36" style="fill: #ff0000; stroke: #ff0000"/>
     <use xlink:href="#macb52885fe" x="622.636364" y="364.409844" style="fill: #ff0000; stroke: #ff0000"/>
    </g>
   </g>
   <g id="patch_11">
    <path d="M 90 384.48 
L 90 51.84 
" style="fill: none; stroke: #000000; stroke-width: 0.8; stroke-linejoin: miter; stroke-linecap: square"/>
   </g>
   <g id="patch_12">
    <path d="M 708 384.48 
L 708 51.84 
" style="fill: none; stroke: #000000; stroke-width: 0.8; stroke-linejoin: miter; stroke-linecap: square"/>
   </g>
   <g id="patch_13">
    <path d="M 90 384.48 
L 648 384.48 
" style="fill: none; stroke: #000000; stroke-width: 0.8; stroke-linejoin: miter; stroke-linecap: square"/>
   </g>
   <g id="patch_14">
    <path d="M 90 51.84 
L 648 51.84 
" style="fill: none; stroke: #000000; stroke-width: 0.8; stroke-linejoin: miter; stroke-linecap: square"/>
   </g>
   <g id="text_32">
    <!-- 6004010254 每周需求量、收益与平均单价 -->
    <g transform="translate(258 45.84) scale(0.12 -0.12)">
     <defs>
      <path id="SimHei-20" transform="scale(0.015625)"/>
      <path id="SimHei-6bcf" d="M 5225 3650 
Q 5175 3150 5150 2675 
L 5125 2200 
Q 5525 2200 6000 2225 
L 6000 1775 
Q 5625 1800 5100 1800 
L 5050 650 
Q 5325 650 5700 675 
L 5700 225 
Q 5400 250 5025 250 
Q 5000 -275 4775 -425 
Q 4550 -575 4000 -650 
Q 3950 -400 3775 -125 
Q 4375 -125 4475 -50 
Q 4575 25 4575 250 
L 1400 250 
L 1500 1100 
L 1550 1800 
L 1275 1800 
Q 825 1800 550 1775 
L 550 2225 
Q 975 2200 1275 2200 
L 1575 2200 
L 1625 2825 
L 1675 3650 
L 5225 3650 
z
M 2350 5000 
Q 2175 4825 2050 4600 
L 4875 4600 
Q 5275 4600 5775 4625 
L 5775 4175 
Q 5275 4200 4875 4200 
L 1825 4200 
L 1375 3625 
Q 1125 3325 775 2975 
Q 600 3175 350 3300 
Q 725 3575 1150 4112 
Q 1575 4650 1825 5250 
Q 2125 5075 2350 5000 
z
M 1975 1800 
L 1875 650 
L 4625 650 
L 4675 1800 
L 2950 1800 
Q 3575 1275 3825 1125 
Q 3625 925 3475 725 
Q 3100 1100 2650 1475 
Q 2775 1675 2875 1800 
L 1975 1800 
z
M 2975 3250 
Q 3125 3150 3287 3012 
Q 3450 2875 3800 2550 
Q 3650 2350 3525 2200 
L 4700 2200 
L 4750 3250 
L 2975 3250 
z
M 2075 3250 
L 2000 2200 
L 3425 2200 
Q 3150 2500 3012 2625 
Q 2875 2750 2700 2900 
Q 2800 3050 2925 3250 
L 2075 3250 
z
" transform="scale(0.015625)"/>
      <path id="SimHei-3001" d="M 1725 -275 
Q 1325 700 925 1450 
L 1325 1650 
Q 1825 950 2325 25 
L 1725 -275 
z
" transform="scale(0.015625)"/>
      <path id="SimHei-4e0e" d="M 5350 100 
Q 5275 -300 4925 -425 
Q 4575 -550 3900 -600 
Q 3875 -375 3650 -25 
Q 4375 -50 4575 0 
Q 4775 50 4837 225 
Q 4900 400 5100 2350 
L 1125 2350 
Q 1450 4350 1475 5200 
Q 1800 5150 2075 5125 
Q 1975 4825 1900 4275 
L 4900 4275 
Q 5400 4275 5800 4300 
L 5800 3825 
Q 5400 3850 4950 3850 
L 1850 3850 
L 1700 2750 
L 5675 2750 
Q 5625 2450 5575 2050 
L 5350 100 
z
M 3675 1350 
Q 4125 1350 4500 1375 
L 4500 875 
Q 4125 900 3850 900 
L 1450 900 
Q 1000 900 500 875 
L 500 1375 
Q 1000 1350 1450 1350 
L 3675 1350 
z
" transform="scale(0.015625)"/>
     </defs>
     <use xlink:href="#SimHei-36"/>
     <use xlink:href="#SimHei-30" x="50"/>
     <use xlink:href="#SimHei-30" x="100"/>
     <use xlink:href="#SimHei-34" x="150"/>
     <use xlink:href="#SimHei-30" x="200"/>
     <use xlink:href="#SimHei-31" x="250"/>
     <use xlink:href="#SimHei-30" x="300"/>
     <use xlink:href="#SimHei-32" x="350"/>
     <use xlink:href="#SimHei-35" x="400"/>
     <use xlink:href="#SimHei-34" x="450"/>
     <use xlink:href="#SimHei-20" x="500"/>
     <use xlink:href="#SimHei-6bcf" x="550"/>
     <use xlink:href="#SimHei-5468" x="650"/>
     <use xlink:href="#SimHei-9700" x="750"/>
     <use xlink:href="#SimHei-6c42" x="850"/>
     <use xlink:href="#SimHei-91cf" x="950"/>
     <use xlink:href="#SimHei-3001" x="1050"/>
     <use xlink:href="#SimHei-6536" x="1150"/>
     <use xlink:href="#SimHei-76ca" x="1250"/>
     <use xlink:href="#SimHei-4e0e" x="1350"/>
     <use xlink:href="#SimHei-5e73" x="1450"/>
     <use xlink:href="#SimHei-5747" x="1550"/>
     <use xlink:href="#SimHei-5355" x="1650"/>
     <use xlink:href="#SimHei-4ef7" x="1750"/>
    </g>
   </g>
  </g>
 </g>
 <defs>
  <clipPath id="p6342633fea">
   <rect x="90" y="51.84" width="558" height="332.64"/>
  </clipPath>
 </defs>
</svg>
