<?xml version="1.0" encoding="utf-8" standalone="no"?>
<!DOCTYPE svg PUBLIC "-//W3C//DTD SVG 1.1//EN"
  "http://www.w3.org/Graphics/SVG/1.1/DTD/svg11.dtd">
<svg xmlns:xlink="http://www.w3.org/1999/xlink" width="720pt" height="432pt" viewBox="0 0 720 432" xmlns="http://www.w3.org/2000/svg" version="1.1">
 <metadata>
  <rdf:RDF xmlns:dc="http://purl.org/dc/elements/1.1/" xmlns:cc="http://creativecommons.org/ns#" xmlns:rdf="http://www.w3.org/1999/02/22-rdf-syntax-ns#">
   <cc:Work>
    <dc:type rdf:resource="http://purl.org/dc/dcmitype/StillImage"/>
    <dc:date>2024-08-17T14:07:53.718350</dc:date>
    <dc:format>image/svg+xml</dc:format>
    <dc:creator>
     <cc:Agent>
      <dc:title>Matplotlib v3.8.0, https://matplotlib.org/</dc:title>
     </cc:Agent>
    </dc:creator>
   </cc:Work>
  </rdf:RDF>
 </metadata>
 <defs>
  <style type="text/css">*{stroke-linejoin: round; stroke-linecap: butt}</style>
 </defs>
 <g id="figure_1">
  <g id="patch_1">
   <path d="M 0 432 
L 720 432 
L 720 0 
L 0 0 
z
" style="fill: #ffffff"/>
  </g>
  <g id="axes_1">
   <g id="patch_2">
    <path d="M 90 384.48 
L 648 384.48 
L 648 51.84 
L 90 51.84 
z
" style="fill: #ffffff"/>
   </g>
   <g id="matplotlib.axis_1">
    <g id="xtick_1">
     <g id="line2d_1">
      <path d="M 112.397129 384.48 
L 112.397129 51.84 
" clip-path="url(#pac6b0b9244)" style="fill: none; stroke: #b0b0b0; stroke-width: 0.8; stroke-linecap: square"/>
     </g>
     <g id="line2d_2">
      <defs>
       <path id="mb60e11ad01" d="M 0 0 
L 0 3.5 
" style="stroke: #000000; stroke-width: 0.8"/>
      </defs>
      <g>
       <use xlink:href="#mb60e11ad01" x="112.397129" y="384.48" style="stroke: #000000; stroke-width: 0.8"/>
      </g>
     </g>
     <g id="text_1">
      <!-- 0 -->
      <g transform="translate(109.897129 398.355) scale(0.1 -0.1)">
       <defs>
        <path id="SimHei-30" d="M 225 2537 
Q 250 3200 412 3587 
Q 575 3975 875 4225 
Q 1175 4475 1612 4475 
Q 2050 4475 2375 4112 
Q 2700 3750 2800 3200 
Q 2900 2650 2862 1937 
Q 2825 1225 2612 775 
Q 2400 325 1975 150 
Q 1550 -25 1125 187 
Q 700 400 525 750 
Q 350 1100 275 1487 
Q 200 1875 225 2537 
z
M 750 2687 
Q 675 2000 800 1462 
Q 925 925 1212 700 
Q 1500 475 1800 612 
Q 2100 750 2237 1162 
Q 2375 1575 2375 2062 
Q 2375 2550 2337 2950 
Q 2300 3350 2112 3675 
Q 1925 4000 1612 4012 
Q 1300 4025 1062 3700 
Q 825 3375 750 2687 
z
" transform="scale(0.015625)"/>
       </defs>
       <use xlink:href="#SimHei-30"/>
      </g>
     </g>
    </g>
    <g id="xtick_2">
     <g id="line2d_3">
      <path d="M 186.559809 384.48 
L 186.559809 51.84 
" clip-path="url(#pac6b0b9244)" style="fill: none; stroke: #b0b0b0; stroke-width: 0.8; stroke-linecap: square"/>
     </g>
     <g id="line2d_4">
      <g>
       <use xlink:href="#mb60e11ad01" x="186.559809" y="384.48" style="stroke: #000000; stroke-width: 0.8"/>
      </g>
     </g>
     <g id="text_2">
      <!-- 25 -->
      <g transform="translate(181.559809 398.355) scale(0.1 -0.1)">
       <defs>
        <path id="SimHei-32" d="M 300 250 
Q 325 625 650 925 
Q 975 1225 1475 1862 
Q 1975 2500 2125 2850 
Q 2275 3200 2237 3450 
Q 2200 3700 2000 3862 
Q 1800 4025 1537 4000 
Q 1275 3975 1037 3800 
Q 800 3625 675 3275 
L 200 3350 
Q 400 3925 712 4187 
Q 1025 4450 1450 4475 
Q 1700 4500 1900 4462 
Q 2100 4425 2312 4287 
Q 2525 4150 2662 3875 
Q 2800 3600 2762 3212 
Q 2725 2825 2375 2287 
Q 2025 1750 1025 600 
L 2825 600 
L 2825 150 
L 300 150 
L 300 250 
z
" transform="scale(0.015625)"/>
        <path id="SimHei-35" d="M 550 1325 
Q 725 650 1150 575 
Q 1575 500 1837 662 
Q 2100 825 2212 1087 
Q 2325 1350 2312 1675 
Q 2300 2000 2137 2225 
Q 1975 2450 1725 2525 
Q 1475 2600 1162 2525 
Q 850 2450 650 2175 
L 225 2225 
Q 275 2375 700 4375 
L 2675 4375 
L 2675 3925 
L 1075 3925 
Q 950 3250 825 2850 
Q 1200 3025 1525 3012 
Q 1850 3000 2150 2862 
Q 2450 2725 2587 2487 
Q 2725 2250 2787 2012 
Q 2850 1775 2837 1500 
Q 2825 1225 2725 937 
Q 2625 650 2425 462 
Q 2225 275 1937 162 
Q 1650 50 1275 75 
Q 900 100 562 350 
Q 225 600 100 1200 
L 550 1325 
z
" transform="scale(0.015625)"/>
       </defs>
       <use xlink:href="#SimHei-32"/>
       <use xlink:href="#SimHei-35" x="50"/>
      </g>
     </g>
    </g>
    <g id="xtick_3">
     <g id="line2d_5">
      <path d="M 260.722488 384.48 
L 260.722488 51.84 
" clip-path="url(#pac6b0b9244)" style="fill: none; stroke: #b0b0b0; stroke-width: 0.8; stroke-linecap: square"/>
     </g>
     <g id="line2d_6">
      <g>
       <use xlink:href="#mb60e11ad01" x="260.722488" y="384.48" style="stroke: #000000; stroke-width: 0.8"/>
      </g>
     </g>
     <g id="text_3">
      <!-- 50 -->
      <g transform="translate(255.722488 398.355) scale(0.1 -0.1)">
       <use xlink:href="#SimHei-35"/>
       <use xlink:href="#SimHei-30" x="50"/>
      </g>
     </g>
    </g>
    <g id="xtick_4">
     <g id="line2d_7">
      <path d="M 334.885167 384.48 
L 334.885167 51.84 
" clip-path="url(#pac6b0b9244)" style="fill: none; stroke: #b0b0b0; stroke-width: 0.8; stroke-linecap: square"/>
     </g>
     <g id="line2d_8">
      <g>
       <use xlink:href="#mb60e11ad01" x="334.885167" y="384.48" style="stroke: #000000; stroke-width: 0.8"/>
      </g>
     </g>
     <g id="text_4">
      <!-- 75 -->
      <g transform="translate(329.885167 398.355) scale(0.1 -0.1)">
       <defs>
        <path id="SimHei-37" d="M 850 150 
Q 1300 2050 2425 3925 
L 275 3925 
L 275 4375 
L 2950 4375 
L 2950 3950 
Q 1775 2050 1400 150 
L 850 150 
z
" transform="scale(0.015625)"/>
       </defs>
       <use xlink:href="#SimHei-37"/>
       <use xlink:href="#SimHei-35" x="50"/>
      </g>
     </g>
    </g>
    <g id="xtick_5">
     <g id="line2d_9">
      <path d="M 409.047847 384.48 
L 409.047847 51.84 
" clip-path="url(#pac6b0b9244)" style="fill: none; stroke: #b0b0b0; stroke-width: 0.8; stroke-linecap: square"/>
     </g>
     <g id="line2d_10">
      <g>
       <use xlink:href="#mb60e11ad01" x="409.047847" y="384.48" style="stroke: #000000; stroke-width: 0.8"/>
      </g>
     </g>
     <g id="text_5">
      <!-- 100 -->
      <g transform="translate(401.547847 398.355) scale(0.1 -0.1)">
       <defs>
        <path id="SimHei-31" d="M 1400 3600 
Q 1075 3275 575 2975 
L 575 3450 
Q 1200 3875 1600 4450 
L 1900 4450 
L 1900 150 
L 1400 150 
L 1400 3600 
z
" transform="scale(0.015625)"/>
       </defs>
       <use xlink:href="#SimHei-31"/>
       <use xlink:href="#SimHei-30" x="50"/>
       <use xlink:href="#SimHei-30" x="100"/>
      </g>
     </g>
    </g>
    <g id="xtick_6">
     <g id="line2d_11">
      <path d="M 483.210526 384.48 
L 483.210526 51.84 
" clip-path="url(#pac6b0b9244)" style="fill: none; stroke: #b0b0b0; stroke-width: 0.8; stroke-linecap: square"/>
     </g>
     <g id="line2d_12">
      <g>
       <use xlink:href="#mb60e11ad01" x="483.210526" y="384.48" style="stroke: #000000; stroke-width: 0.8"/>
      </g>
     </g>
     <g id="text_6">
      <!-- 125 -->
      <g transform="translate(475.710526 398.355) scale(0.1 -0.1)">
       <use xlink:href="#SimHei-31"/>
       <use xlink:href="#SimHei-32" x="50"/>
       <use xlink:href="#SimHei-35" x="100"/>
      </g>
     </g>
    </g>
    <g id="xtick_7">
     <g id="line2d_13">
      <path d="M 557.373206 384.48 
L 557.373206 51.84 
" clip-path="url(#pac6b0b9244)" style="fill: none; stroke: #b0b0b0; stroke-width: 0.8; stroke-linecap: square"/>
     </g>
     <g id="line2d_14">
      <g>
       <use xlink:href="#mb60e11ad01" x="557.373206" y="384.48" style="stroke: #000000; stroke-width: 0.8"/>
      </g>
     </g>
     <g id="text_7">
      <!-- 150 -->
      <g transform="translate(549.873206 398.355) scale(0.1 -0.1)">
       <use xlink:href="#SimHei-31"/>
       <use xlink:href="#SimHei-35" x="50"/>
       <use xlink:href="#SimHei-30" x="100"/>
      </g>
     </g>
    </g>
    <g id="xtick_8">
     <g id="line2d_15">
      <path d="M 631.535885 384.48 
L 631.535885 51.84 
" clip-path="url(#pac6b0b9244)" style="fill: none; stroke: #b0b0b0; stroke-width: 0.8; stroke-linecap: square"/>
     </g>
     <g id="line2d_16">
      <g>
       <use xlink:href="#mb60e11ad01" x="631.535885" y="384.48" style="stroke: #000000; stroke-width: 0.8"/>
      </g>
     </g>
     <g id="text_8">
      <!-- 175 -->
      <g transform="translate(624.035885 398.355) scale(0.1 -0.1)">
       <use xlink:href="#SimHei-31"/>
       <use xlink:href="#SimHei-37" x="50"/>
       <use xlink:href="#SimHei-35" x="100"/>
      </g>
     </g>
    </g>
    <g id="text_9">
     <!-- 周数 -->
     <g transform="translate(359 411.339375) scale(0.1 -0.1)">
      <defs>
       <path id="SimHei-5468" d="M 5600 4925 
Q 5575 4400 5575 3800 
L 5575 50 
Q 5550 -375 5325 -462 
Q 5100 -550 4325 -600 
Q 4300 -400 4125 -75 
Q 4800 -100 4962 -37 
Q 5125 25 5100 225 
L 5100 4525 
L 1500 4525 
Q 1500 2575 1450 1887 
Q 1400 1200 1237 550 
Q 1075 -100 775 -625 
Q 625 -450 275 -225 
Q 650 225 825 1000 
Q 1000 1775 1025 2587 
Q 1050 3400 1000 4925 
L 5600 4925 
z
M 2050 325 
Q 2075 625 2075 950 
L 2075 1400 
Q 2075 1625 2050 1925 
L 4400 1925 
Q 4375 1725 4375 1450 
L 4375 875 
Q 4375 600 4400 325 
L 2050 325 
z
M 3000 3800 
Q 3000 4150 2975 4375 
L 3475 4375 
Q 3450 4075 3450 3800 
Q 4100 3800 4475 3825 
L 4475 3350 
Q 4125 3375 3450 3375 
L 3450 2800 
Q 4200 2800 4825 2825 
L 4825 2350 
Q 4175 2375 3725 2375 
L 2750 2375 
Q 2325 2375 1725 2350 
L 1725 2825 
Q 2325 2800 3000 2800 
L 3000 3375 
Q 2500 3375 1975 3350 
L 1975 3825 
Q 2475 3800 3000 3800 
z
M 3900 725 
L 3900 1525 
L 2550 1525 
L 2550 725 
L 3900 725 
z
" transform="scale(0.015625)"/>
       <path id="SimHei-6570" d="M 4525 4925 
Q 4475 4800 4400 4587 
Q 4325 4375 4175 3825 
L 5325 3825 
Q 5575 3825 5925 3850 
L 5925 3400 
Q 5650 3425 5500 3425 
Q 5500 3025 5362 2162 
Q 5225 1300 4875 675 
Q 5125 375 5437 137 
Q 5750 -100 6025 -200 
Q 5725 -425 5625 -625 
Q 5325 -450 5075 -225 
Q 4825 0 4575 325 
Q 4300 25 3987 -187 
Q 3675 -400 3200 -650 
Q 3075 -425 2850 -300 
Q 3225 -150 3650 125 
Q 4075 400 4300 675 
Q 4125 1025 3962 1425 
Q 3800 1825 3675 2475 
Q 3600 2275 3425 1950 
Q 3250 2050 3000 2150 
Q 3400 2850 3650 3675 
Q 3900 4500 3975 5100 
Q 4275 4975 4525 4925 
z
M 2100 2250 
Q 2000 2150 1875 1925 
L 3250 1925 
Q 3100 1300 2725 675 
Q 3125 525 3350 400 
Q 3225 225 3125 25 
Q 2900 175 2450 325 
Q 1950 -225 725 -650 
Q 600 -375 400 -275 
Q 1575 0 2000 475 
Q 1300 650 850 775 
Q 1000 1000 1250 1525 
Q 1000 1525 425 1500 
L 425 1950 
Q 900 1925 1400 1925 
Q 1500 2150 1550 2425 
Q 1825 2325 2100 2250 
z
M 1775 3950 
Q 1775 4550 1750 5100 
L 2250 5100 
Q 2225 4575 2225 3950 
Q 3075 3950 3425 3975 
L 3425 3525 
Q 3075 3550 2225 3550 
Q 2225 2825 2250 2425 
L 1750 2425 
Q 1775 2775 1775 3300 
Q 1650 3100 1300 2787 
Q 950 2475 650 2300 
Q 525 2525 275 2625 
Q 500 2700 875 2975 
Q 1250 3250 1450 3550 
Q 950 3550 500 3525 
L 500 3975 
Q 925 3950 1775 3950 
z
M 3975 3175 
Q 4200 1700 4600 1125 
Q 4850 1700 4937 2287 
Q 5025 2875 5050 3425 
L 4075 3425 
L 3975 3175 
z
M 1450 1000 
Q 1750 925 2275 800 
Q 2475 1050 2650 1525 
L 1725 1525 
Q 1600 1275 1450 1000 
z
M 3325 4825 
Q 3200 4625 3125 4450 
Q 3050 4275 2925 4025 
Q 2725 4125 2525 4175 
Q 2725 4500 2900 5000 
Q 3150 4875 3325 4825 
z
M 2575 3375 
Q 2900 3050 3200 2725 
Q 3050 2600 2875 2425 
Q 2525 2850 2300 3100 
Q 2450 3225 2575 3375 
z
M 925 5000 
Q 1275 4650 1500 4300 
L 1125 4075 
Q 950 4425 600 4725 
Q 825 4875 925 5000 
z
" transform="scale(0.015625)"/>
      </defs>
      <use xlink:href="#SimHei-5468"/>
      <use xlink:href="#SimHei-6570" x="100"/>
     </g>
    </g>
   </g>
   <g id="matplotlib.axis_2">
    <g id="ytick_1">
     <g id="line2d_17">
      <path d="M 90 363.435697 
L 648 363.435697 
" clip-path="url(#pac6b0b9244)" style="fill: none; stroke: #b0b0b0; stroke-width: 0.8; stroke-linecap: square"/>
     </g>
     <g id="line2d_18">
      <defs>
       <path id="me0aaed1871" d="M 0 0 
L -3.5 0 
" style="stroke: #000000; stroke-width: 0.8"/>
      </defs>
      <g>
       <use xlink:href="#me0aaed1871" x="90" y="363.435697" style="stroke: #000000; stroke-width: 0.8"/>
      </g>
     </g>
     <g id="text_10">
      <!-- 3300 -->
      <g transform="translate(63 366.873197) scale(0.1 -0.1)">
       <defs>
        <path id="SimHei-33" d="M 250 1225 
L 700 1300 
Q 800 975 1025 762 
Q 1250 550 1587 562 
Q 1925 575 2125 837 
Q 2325 1100 2300 1437 
Q 2275 1775 2037 1962 
Q 1800 2150 1275 2225 
L 1275 2550 
Q 1800 2600 2037 2825 
Q 2275 3050 2250 3412 
Q 2225 3775 1925 3937 
Q 1625 4100 1287 3975 
Q 950 3850 750 3275 
L 300 3350 
Q 450 3800 712 4100 
Q 975 4400 1425 4450 
Q 1875 4500 2212 4337 
Q 2550 4175 2687 3837 
Q 2825 3500 2725 3100 
Q 2625 2700 2150 2400 
Q 2500 2250 2687 1950 
Q 2875 1650 2812 1162 
Q 2750 675 2375 375 
Q 2000 75 1525 87 
Q 1050 100 700 387 
Q 350 675 250 1225 
z
" transform="scale(0.015625)"/>
       </defs>
       <use xlink:href="#SimHei-33"/>
       <use xlink:href="#SimHei-33" x="50"/>
       <use xlink:href="#SimHei-30" x="100"/>
       <use xlink:href="#SimHei-30" x="150"/>
      </g>
     </g>
    </g>
    <g id="ytick_2">
     <g id="line2d_19">
      <path d="M 90 292.400892 
L 648 292.400892 
" clip-path="url(#pac6b0b9244)" style="fill: none; stroke: #b0b0b0; stroke-width: 0.8; stroke-linecap: square"/>
     </g>
     <g id="line2d_20">
      <g>
       <use xlink:href="#me0aaed1871" x="90" y="292.400892" style="stroke: #000000; stroke-width: 0.8"/>
      </g>
     </g>
     <g id="text_11">
      <!-- 3310 -->
      <g transform="translate(63 295.838392) scale(0.1 -0.1)">
       <use xlink:href="#SimHei-33"/>
       <use xlink:href="#SimHei-33" x="50"/>
       <use xlink:href="#SimHei-31" x="100"/>
       <use xlink:href="#SimHei-30" x="150"/>
      </g>
     </g>
    </g>
    <g id="ytick_3">
     <g id="line2d_21">
      <path d="M 90 221.366086 
L 648 221.366086 
" clip-path="url(#pac6b0b9244)" style="fill: none; stroke: #b0b0b0; stroke-width: 0.8; stroke-linecap: square"/>
     </g>
     <g id="line2d_22">
      <g>
       <use xlink:href="#me0aaed1871" x="90" y="221.366086" style="stroke: #000000; stroke-width: 0.8"/>
      </g>
     </g>
     <g id="text_12">
      <!-- 3320 -->
      <g transform="translate(63 224.803586) scale(0.1 -0.1)">
       <use xlink:href="#SimHei-33"/>
       <use xlink:href="#SimHei-33" x="50"/>
       <use xlink:href="#SimHei-32" x="100"/>
       <use xlink:href="#SimHei-30" x="150"/>
      </g>
     </g>
    </g>
    <g id="ytick_4">
     <g id="line2d_23">
      <path d="M 90 150.33128 
L 648 150.33128 
" clip-path="url(#pac6b0b9244)" style="fill: none; stroke: #b0b0b0; stroke-width: 0.8; stroke-linecap: square"/>
     </g>
     <g id="line2d_24">
      <g>
       <use xlink:href="#me0aaed1871" x="90" y="150.33128" style="stroke: #000000; stroke-width: 0.8"/>
      </g>
     </g>
     <g id="text_13">
      <!-- 3330 -->
      <g transform="translate(63 153.76878) scale(0.1 -0.1)">
       <use xlink:href="#SimHei-33"/>
       <use xlink:href="#SimHei-33" x="50"/>
       <use xlink:href="#SimHei-33" x="100"/>
       <use xlink:href="#SimHei-30" x="150"/>
      </g>
     </g>
    </g>
    <g id="ytick_5">
     <g id="line2d_25">
      <path d="M 90 79.296475 
L 648 79.296475 
" clip-path="url(#pac6b0b9244)" style="fill: none; stroke: #b0b0b0; stroke-width: 0.8; stroke-linecap: square"/>
     </g>
     <g id="line2d_26">
      <g>
       <use xlink:href="#me0aaed1871" x="90" y="79.296475" style="stroke: #000000; stroke-width: 0.8"/>
      </g>
     </g>
     <g id="text_14">
      <!-- 3340 -->
      <g transform="translate(63 82.733975) scale(0.1 -0.1)">
       <defs>
        <path id="SimHei-34" d="M 2000 1100 
L 75 1100 
L 75 1525 
L 2100 4450 
L 2475 4450 
L 2475 1525 
L 3075 1525 
L 3075 1100 
L 2475 1100 
L 2475 150 
L 2000 150 
L 2000 1100 
z
M 2000 1525 
L 2000 3500 
L 600 1525 
L 2000 1525 
z
" transform="scale(0.015625)"/>
       </defs>
       <use xlink:href="#SimHei-33"/>
       <use xlink:href="#SimHei-33" x="50"/>
       <use xlink:href="#SimHei-34" x="100"/>
       <use xlink:href="#SimHei-30" x="150"/>
      </g>
     </g>
    </g>
    <g id="text_15">
     <!-- 平均价格 -->
     <g transform="translate(57.75 238.16) rotate(-90) scale(0.1 -0.1)">
      <defs>
       <path id="SimHei-5e73" d="M 4525 4825 
Q 4900 4825 5450 4850 
L 5450 4375 
Q 4925 4400 4525 4400 
L 3475 4400 
L 3475 2025 
L 5000 2025 
Q 5550 2025 6025 2050 
L 6025 1575 
Q 5550 1600 5000 1600 
L 3475 1600 
L 3475 450 
Q 3475 -100 3500 -600 
L 2925 -600 
Q 2950 -100 2950 450 
L 2950 1600 
L 1125 1600 
Q 775 1600 375 1575 
L 375 2050 
Q 775 2025 1175 2025 
L 2950 2025 
L 2950 4400 
L 1775 4400 
Q 1400 4400 875 4375 
L 875 4850 
Q 1400 4825 1750 4825 
L 4525 4825 
z
M 3925 2600 
Q 4500 3300 4900 4125 
Q 5150 3950 5400 3825 
Q 4775 2850 4350 2300 
Q 4150 2475 3925 2600 
z
M 1975 2350 
Q 1600 3100 1050 3725 
Q 1250 3875 1450 4050 
Q 2075 3300 2450 2725 
Q 2150 2500 1975 2350 
z
" transform="scale(0.015625)"/>
       <path id="SimHei-5747" d="M 5775 275 
Q 5775 -325 5362 -450 
Q 4950 -575 4425 -600 
Q 4375 -275 4250 25 
Q 4950 -25 5125 62 
Q 5300 150 5300 500 
L 5375 3700 
L 3550 3700 
Q 3425 3375 3262 3037 
Q 3100 2700 2925 2400 
Q 2675 2550 2475 2625 
Q 3150 3625 3500 5200 
Q 3800 5100 4075 5025 
Q 3975 4875 3875 4650 
Q 3775 4425 3675 4125 
L 5900 4125 
L 5775 275 
z
M 1250 3625 
L 1250 4375 
Q 1250 4775 1225 5100 
L 1775 5100 
Q 1750 4725 1750 4375 
L 1750 3625 
L 1900 3625 
Q 2200 3625 2525 3650 
L 2525 3150 
Q 2200 3175 1900 3175 
L 1750 3175 
L 1750 1100 
L 2500 1375 
Q 2475 1125 2525 900 
Q 1225 475 962 362 
Q 700 250 475 150 
Q 375 475 250 750 
Q 575 800 800 850 
Q 1025 900 1250 975 
L 1250 3175 
L 1125 3175 
Q 850 3175 400 3150 
L 400 3650 
Q 850 3625 1100 3625 
L 1250 3625 
z
M 4950 1625 
Q 4675 1425 4137 1050 
Q 3600 675 3175 300 
Q 3000 575 2850 775 
Q 3350 1050 3762 1325 
Q 4175 1600 4775 2075 
Q 4825 1850 4950 1625 
z
M 3775 3150 
Q 4125 2800 4475 2300 
Q 4250 2125 4100 1975 
Q 3900 2325 3450 2825 
Q 3600 3000 3775 3150 
z
" transform="scale(0.015625)"/>
       <path id="SimHei-4ef7" d="M 2200 4975 
Q 2050 4725 1650 3775 
L 1650 450 
Q 1650 -225 1675 -650 
L 1175 -650 
Q 1175 -225 1200 450 
L 1200 2975 
Q 900 2425 650 2100 
Q 525 2275 225 2450 
Q 750 3025 1125 3800 
Q 1500 4575 1625 5175 
Q 1950 5025 2200 4975 
z
M 4175 4700 
Q 4850 3525 6150 2950 
Q 5925 2750 5775 2500 
Q 4725 3100 3950 4300 
Q 3300 3125 2250 2350 
Q 2125 2525 1900 2725 
Q 2825 3325 3250 4050 
Q 3675 4775 3750 5150 
Q 4150 4950 4325 4900 
L 4175 4700 
z
M 3475 2650 
Q 3400 2075 3325 1087 
Q 3250 100 2325 -675 
Q 2175 -450 1925 -300 
Q 2850 350 2912 1262 
Q 2975 2175 2950 2700 
Q 3275 2650 3475 2650 
z
M 5075 2700 
Q 5050 2150 5050 1725 
L 5050 150 
Q 5050 -225 5075 -650 
L 4550 -650 
Q 4575 -225 4575 175 
L 4575 1875 
Q 4575 2150 4550 2700 
L 5075 2700 
z
" transform="scale(0.015625)"/>
       <path id="SimHei-683c" d="M 4075 4875 
Q 3975 4750 3750 4350 
L 5625 4350 
Q 5450 3850 5212 3437 
Q 4975 3025 4650 2650 
Q 4950 2450 5412 2287 
Q 5875 2125 6150 2100 
Q 5975 1900 5875 1600 
Q 5550 1725 5125 1912 
Q 4700 2100 4300 2400 
Q 3925 2125 3537 1937 
Q 3150 1750 2575 1550 
Q 2475 1775 2300 1925 
Q 2825 2050 3262 2250 
Q 3700 2450 3975 2675 
Q 3625 3050 3325 3575 
Q 3175 3350 2875 2950 
Q 2700 3100 2475 3200 
Q 2825 3550 3112 4075 
Q 3400 4600 3550 5100 
Q 3775 4950 4075 4875 
z
M 5575 1650 
Q 5550 1350 5550 575 
Q 5550 -200 5575 -575 
L 5050 -575 
L 5050 -175 
L 3500 -175 
L 3500 -600 
L 2975 -600 
Q 3000 -200 3000 550 
Q 3000 1325 2975 1650 
L 5575 1650 
z
M 1850 5100 
Q 1825 4775 1825 4475 
L 1825 3825 
Q 2300 3825 2525 3850 
L 2525 3400 
Q 2300 3425 1825 3425 
L 1825 2725 
Q 1950 2800 2125 2950 
Q 2350 2600 2550 2200 
Q 2350 2075 2175 1950 
Q 1975 2375 1825 2625 
L 1825 275 
Q 1825 -275 1850 -625 
L 1350 -625 
Q 1375 -275 1375 275 
L 1375 2425 
Q 1150 1850 625 850 
Q 475 1025 250 1150 
Q 650 1775 900 2375 
Q 1150 2975 1250 3425 
Q 900 3425 475 3400 
L 475 3850 
Q 925 3825 1375 3825 
L 1375 4475 
Q 1375 4750 1350 5100 
L 1850 5100 
z
M 5050 200 
L 5050 1275 
L 3500 1275 
L 3500 200 
L 5050 200 
z
M 4300 2925 
Q 4675 3300 4975 3975 
L 3550 3975 
Q 3850 3350 4300 2925 
z
" transform="scale(0.015625)"/>
      </defs>
      <use xlink:href="#SimHei-5e73"/>
      <use xlink:href="#SimHei-5747" x="100"/>
      <use xlink:href="#SimHei-4ef7" x="200"/>
      <use xlink:href="#SimHei-683c" x="300"/>
     </g>
    </g>
   </g>
   <g id="line2d_27">
    <path d="M 115.363636 326.933059 
L 118.330144 317.317534 
L 121.296651 343.455974 
L 124.263158 343.455974 
L 133.162679 268.139546 
L 136.129187 269.17251 
L 139.095694 310.410144 
L 142.062201 269.17251 
L 147.995215 236.484588 
L 150.961722 229.054685 
L 153.92823 236.482507 
L 159.861244 264.076912 
L 162.827751 222.685304 
L 165.794258 222.685304 
L 168.760766 264.076912 
L 171.727273 267.473978 
L 174.69378 308.626425 
L 177.660287 264.076912 
L 183.593301 250.052883 
L 186.559809 250.213506 
L 189.526316 198.371275 
L 192.492823 232.161444 
L 195.45933 221.522954 
L 198.425837 184.540815 
L 204.358852 283.438729 
L 207.325359 280.303064 
L 210.291866 262.543785 
L 213.258373 66.96 
L 216.22488 296.052081 
L 219.191388 296.052081 
L 222.157895 278.009467 
L 225.124402 304.163663 
L 228.090909 304.165045 
L 231.057416 267.418063 
L 234.023923 268.827424 
L 236.990431 261.293566 
L 239.956938 261.293566 
L 242.923445 261.293566 
L 245.889952 261.293566 
L 248.856459 263.437274 
L 251.822967 265.71759 
L 254.789474 264.577432 
L 257.755981 220.803564 
L 260.722488 270.278223 
L 263.688995 206.724456 
L 266.655502 183.064596 
L 269.62201 215.953544 
L 272.588517 244.093858 
L 275.555024 249.988934 
L 293.354067 249.988934 
L 296.320574 249.988934 
L 299.287081 249.988934 
L 302.253589 249.988934 
L 305.220096 249.989979 
L 308.186603 258.23315 
L 311.15311 249.988934 
L 314.119617 265.141584 
L 317.086124 268.335878 
L 320.052632 262.153761 
L 323.019139 251.660954 
L 325.985646 262.353169 
L 328.952153 270.330114 
L 331.91866 274.318587 
L 334.885167 279.854445 
L 337.851675 352.212198 
L 343.784689 279.741067 
L 346.751196 285.390303 
L 349.717703 262.793362 
L 352.684211 262.793362 
L 355.650718 262.793362 
L 358.617225 276.351526 
L 361.583732 285.368446 
L 364.550239 285.368446 
L 367.516746 272.937355 
L 370.483254 272.937355 
L 373.449761 272.937355 
L 382.349282 272.937355 
L 391.248804 248.042388 
L 394.215311 262.793362 
L 397.181818 248.042388 
L 400.148325 248.042388 
L 403.114833 279.650144 
L 406.08134 279.652876 
L 409.047847 279.652876 
L 414.980861 270.788044 
L 420.913876 279.652876 
L 429.813397 282.624919 
L 432.779904 282.624919 
L 435.746411 284.473948 
L 444.645933 282.624919 
L 450.578947 284.473948 
L 453.545455 282.624919 
L 456.511962 282.624919 
L 459.478469 284.473948 
L 462.444976 286.322976 
L 471.344498 282.624919 
L 486.177033 286.322976 
L 489.143541 284.199314 
L 495.076555 284.199314 
L 518.808612 284.199314 
L 524.741627 284.199314 
L 530.674641 286.322976 
L 539.574163 284.199314 
L 545.507177 286.322976 
L 551.440191 284.199314 
L 554.406699 284.231889 
L 557.373206 286.169202 
L 578.138756 283.521541 
L 581.105263 283.521541 
L 590.004785 278.549104 
L 601.870813 278.549104 
L 604.837321 369.36 
L 616.703349 286.055116 
L 622.636364 283.521541 
" clip-path="url(#pac6b0b9244)" style="fill: none; stroke: #ff0000; stroke-width: 1.5; stroke-linecap: square"/>
    <defs>
     <path id="m974894db8f" d="M 0 3 
C 0.795609 3 1.55874 2.683901 2.12132 2.12132 
C 2.683901 1.55874 3 0.795609 3 0 
C 3 -0.795609 2.683901 -1.55874 2.12132 -2.12132 
C 1.55874 -2.683901 0.795609 -3 0 -3 
C -0.795609 -3 -1.55874 -2.683901 -2.12132 -2.12132 
C -2.683901 -1.55874 -3 -0.795609 -3 0 
C -3 0.795609 -2.683901 1.55874 -2.12132 2.12132 
C -1.55874 2.683901 -0.795609 3 0 3 
z
" style="stroke: #ff0000"/>
    </defs>
    <g clip-path="url(#pac6b0b9244)">
     <use xlink:href="#m974894db8f" x="115.363636" y="326.933059" style="fill: #ff0000; stroke: #ff0000"/>
     <use xlink:href="#m974894db8f" x="118.330144" y="317.317534" style="fill: #ff0000; stroke: #ff0000"/>
     <use xlink:href="#m974894db8f" x="121.296651" y="343.455974" style="fill: #ff0000; stroke: #ff0000"/>
     <use xlink:href="#m974894db8f" x="124.263158" y="343.455974" style="fill: #ff0000; stroke: #ff0000"/>
     <use xlink:href="#m974894db8f" x="133.162679" y="268.139546" style="fill: #ff0000; stroke: #ff0000"/>
     <use xlink:href="#m974894db8f" x="136.129187" y="269.17251" style="fill: #ff0000; stroke: #ff0000"/>
     <use xlink:href="#m974894db8f" x="139.095694" y="310.410144" style="fill: #ff0000; stroke: #ff0000"/>
     <use xlink:href="#m974894db8f" x="142.062201" y="269.17251" style="fill: #ff0000; stroke: #ff0000"/>
     <use xlink:href="#m974894db8f" x="147.995215" y="236.484588" style="fill: #ff0000; stroke: #ff0000"/>
     <use xlink:href="#m974894db8f" x="150.961722" y="229.054685" style="fill: #ff0000; stroke: #ff0000"/>
     <use xlink:href="#m974894db8f" x="153.92823" y="236.482507" style="fill: #ff0000; stroke: #ff0000"/>
     <use xlink:href="#m974894db8f" x="159.861244" y="264.076912" style="fill: #ff0000; stroke: #ff0000"/>
     <use xlink:href="#m974894db8f" x="162.827751" y="222.685304" style="fill: #ff0000; stroke: #ff0000"/>
     <use xlink:href="#m974894db8f" x="165.794258" y="222.685304" style="fill: #ff0000; stroke: #ff0000"/>
     <use xlink:href="#m974894db8f" x="168.760766" y="264.076912" style="fill: #ff0000; stroke: #ff0000"/>
     <use xlink:href="#m974894db8f" x="171.727273" y="267.473978" style="fill: #ff0000; stroke: #ff0000"/>
     <use xlink:href="#m974894db8f" x="174.69378" y="308.626425" style="fill: #ff0000; stroke: #ff0000"/>
     <use xlink:href="#m974894db8f" x="177.660287" y="264.076912" style="fill: #ff0000; stroke: #ff0000"/>
     <use xlink:href="#m974894db8f" x="183.593301" y="250.052883" style="fill: #ff0000; stroke: #ff0000"/>
     <use xlink:href="#m974894db8f" x="186.559809" y="250.213506" style="fill: #ff0000; stroke: #ff0000"/>
     <use xlink:href="#m974894db8f" x="189.526316" y="198.371275" style="fill: #ff0000; stroke: #ff0000"/>
     <use xlink:href="#m974894db8f" x="192.492823" y="232.161444" style="fill: #ff0000; stroke: #ff0000"/>
     <use xlink:href="#m974894db8f" x="195.45933" y="221.522954" style="fill: #ff0000; stroke: #ff0000"/>
     <use xlink:href="#m974894db8f" x="198.425837" y="184.540815" style="fill: #ff0000; stroke: #ff0000"/>
     <use xlink:href="#m974894db8f" x="204.358852" y="283.438729" style="fill: #ff0000; stroke: #ff0000"/>
     <use xlink:href="#m974894db8f" x="207.325359" y="280.303064" style="fill: #ff0000; stroke: #ff0000"/>
     <use xlink:href="#m974894db8f" x="210.291866" y="262.543785" style="fill: #ff0000; stroke: #ff0000"/>
     <use xlink:href="#m974894db8f" x="213.258373" y="66.96" style="fill: #ff0000; stroke: #ff0000"/>
     <use xlink:href="#m974894db8f" x="216.22488" y="296.052081" style="fill: #ff0000; stroke: #ff0000"/>
     <use xlink:href="#m974894db8f" x="219.191388" y="296.052081" style="fill: #ff0000; stroke: #ff0000"/>
     <use xlink:href="#m974894db8f" x="222.157895" y="278.009467" style="fill: #ff0000; stroke: #ff0000"/>
     <use xlink:href="#m974894db8f" x="225.124402" y="304.163663" style="fill: #ff0000; stroke: #ff0000"/>
     <use xlink:href="#m974894db8f" x="228.090909" y="304.165045" style="fill: #ff0000; stroke: #ff0000"/>
     <use xlink:href="#m974894db8f" x="231.057416" y="267.418063" style="fill: #ff0000; stroke: #ff0000"/>
     <use xlink:href="#m974894db8f" x="234.023923" y="268.827424" style="fill: #ff0000; stroke: #ff0000"/>
     <use xlink:href="#m974894db8f" x="236.990431" y="261.293566" style="fill: #ff0000; stroke: #ff0000"/>
     <use xlink:href="#m974894db8f" x="239.956938" y="261.293566" style="fill: #ff0000; stroke: #ff0000"/>
     <use xlink:href="#m974894db8f" x="242.923445" y="261.293566" style="fill: #ff0000; stroke: #ff0000"/>
     <use xlink:href="#m974894db8f" x="245.889952" y="261.293566" style="fill: #ff0000; stroke: #ff0000"/>
     <use xlink:href="#m974894db8f" x="248.856459" y="263.437274" style="fill: #ff0000; stroke: #ff0000"/>
     <use xlink:href="#m974894db8f" x="251.822967" y="265.71759" style="fill: #ff0000; stroke: #ff0000"/>
     <use xlink:href="#m974894db8f" x="254.789474" y="264.577432" style="fill: #ff0000; stroke: #ff0000"/>
     <use xlink:href="#m974894db8f" x="257.755981" y="220.803564" style="fill: #ff0000; stroke: #ff0000"/>
     <use xlink:href="#m974894db8f" x="260.722488" y="270.278223" style="fill: #ff0000; stroke: #ff0000"/>
     <use xlink:href="#m974894db8f" x="263.688995" y="206.724456" style="fill: #ff0000; stroke: #ff0000"/>
     <use xlink:href="#m974894db8f" x="266.655502" y="183.064596" style="fill: #ff0000; stroke: #ff0000"/>
     <use xlink:href="#m974894db8f" x="269.62201" y="215.953544" style="fill: #ff0000; stroke: #ff0000"/>
     <use xlink:href="#m974894db8f" x="272.588517" y="244.093858" style="fill: #ff0000; stroke: #ff0000"/>
     <use xlink:href="#m974894db8f" x="275.555024" y="249.988934" style="fill: #ff0000; stroke: #ff0000"/>
     <use xlink:href="#m974894db8f" x="293.354067" y="249.988934" style="fill: #ff0000; stroke: #ff0000"/>
     <use xlink:href="#m974894db8f" x="296.320574" y="249.988934" style="fill: #ff0000; stroke: #ff0000"/>
     <use xlink:href="#m974894db8f" x="299.287081" y="249.988934" style="fill: #ff0000; stroke: #ff0000"/>
     <use xlink:href="#m974894db8f" x="302.253589" y="249.988934" style="fill: #ff0000; stroke: #ff0000"/>
     <use xlink:href="#m974894db8f" x="305.220096" y="249.989979" style="fill: #ff0000; stroke: #ff0000"/>
     <use xlink:href="#m974894db8f" x="308.186603" y="258.23315" style="fill: #ff0000; stroke: #ff0000"/>
     <use xlink:href="#m974894db8f" x="311.15311" y="249.988934" style="fill: #ff0000; stroke: #ff0000"/>
     <use xlink:href="#m974894db8f" x="314.119617" y="265.141584" style="fill: #ff0000; stroke: #ff0000"/>
     <use xlink:href="#m974894db8f" x="317.086124" y="268.335878" style="fill: #ff0000; stroke: #ff0000"/>
     <use xlink:href="#m974894db8f" x="320.052632" y="262.153761" style="fill: #ff0000; stroke: #ff0000"/>
     <use xlink:href="#m974894db8f" x="323.019139" y="251.660954" style="fill: #ff0000; stroke: #ff0000"/>
     <use xlink:href="#m974894db8f" x="325.985646" y="262.353169" style="fill: #ff0000; stroke: #ff0000"/>
     <use xlink:href="#m974894db8f" x="328.952153" y="270.330114" style="fill: #ff0000; stroke: #ff0000"/>
     <use xlink:href="#m974894db8f" x="331.91866" y="274.318587" style="fill: #ff0000; stroke: #ff0000"/>
     <use xlink:href="#m974894db8f" x="334.885167" y="279.854445" style="fill: #ff0000; stroke: #ff0000"/>
     <use xlink:href="#m974894db8f" x="337.851675" y="352.212198" style="fill: #ff0000; stroke: #ff0000"/>
     <use xlink:href="#m974894db8f" x="343.784689" y="279.741067" style="fill: #ff0000; stroke: #ff0000"/>
     <use xlink:href="#m974894db8f" x="346.751196" y="285.390303" style="fill: #ff0000; stroke: #ff0000"/>
     <use xlink:href="#m974894db8f" x="349.717703" y="262.793362" style="fill: #ff0000; stroke: #ff0000"/>
     <use xlink:href="#m974894db8f" x="352.684211" y="262.793362" style="fill: #ff0000; stroke: #ff0000"/>
     <use xlink:href="#m974894db8f" x="355.650718" y="262.793362" style="fill: #ff0000; stroke: #ff0000"/>
     <use xlink:href="#m974894db8f" x="358.617225" y="276.351526" style="fill: #ff0000; stroke: #ff0000"/>
     <use xlink:href="#m974894db8f" x="361.583732" y="285.368446" style="fill: #ff0000; stroke: #ff0000"/>
     <use xlink:href="#m974894db8f" x="364.550239" y="285.368446" style="fill: #ff0000; stroke: #ff0000"/>
     <use xlink:href="#m974894db8f" x="367.516746" y="272.937355" style="fill: #ff0000; stroke: #ff0000"/>
     <use xlink:href="#m974894db8f" x="370.483254" y="272.937355" style="fill: #ff0000; stroke: #ff0000"/>
     <use xlink:href="#m974894db8f" x="373.449761" y="272.937355" style="fill: #ff0000; stroke: #ff0000"/>
     <use xlink:href="#m974894db8f" x="382.349282" y="272.937355" style="fill: #ff0000; stroke: #ff0000"/>
     <use xlink:href="#m974894db8f" x="391.248804" y="248.042388" style="fill: #ff0000; stroke: #ff0000"/>
     <use xlink:href="#m974894db8f" x="394.215311" y="262.793362" style="fill: #ff0000; stroke: #ff0000"/>
     <use xlink:href="#m974894db8f" x="397.181818" y="248.042388" style="fill: #ff0000; stroke: #ff0000"/>
     <use xlink:href="#m974894db8f" x="400.148325" y="248.042388" style="fill: #ff0000; stroke: #ff0000"/>
     <use xlink:href="#m974894db8f" x="403.114833" y="279.650144" style="fill: #ff0000; stroke: #ff0000"/>
     <use xlink:href="#m974894db8f" x="406.08134" y="279.652876" style="fill: #ff0000; stroke: #ff0000"/>
     <use xlink:href="#m974894db8f" x="409.047847" y="279.652876" style="fill: #ff0000; stroke: #ff0000"/>
     <use xlink:href="#m974894db8f" x="414.980861" y="270.788044" style="fill: #ff0000; stroke: #ff0000"/>
     <use xlink:href="#m974894db8f" x="420.913876" y="279.652876" style="fill: #ff0000; stroke: #ff0000"/>
     <use xlink:href="#m974894db8f" x="429.813397" y="282.624919" style="fill: #ff0000; stroke: #ff0000"/>
     <use xlink:href="#m974894db8f" x="432.779904" y="282.624919" style="fill: #ff0000; stroke: #ff0000"/>
     <use xlink:href="#m974894db8f" x="435.746411" y="284.473948" style="fill: #ff0000; stroke: #ff0000"/>
     <use xlink:href="#m974894db8f" x="444.645933" y="282.624919" style="fill: #ff0000; stroke: #ff0000"/>
     <use xlink:href="#m974894db8f" x="450.578947" y="284.473948" style="fill: #ff0000; stroke: #ff0000"/>
     <use xlink:href="#m974894db8f" x="453.545455" y="282.624919" style="fill: #ff0000; stroke: #ff0000"/>
     <use xlink:href="#m974894db8f" x="456.511962" y="282.624919" style="fill: #ff0000; stroke: #ff0000"/>
     <use xlink:href="#m974894db8f" x="459.478469" y="284.473948" style="fill: #ff0000; stroke: #ff0000"/>
     <use xlink:href="#m974894db8f" x="462.444976" y="286.322976" style="fill: #ff0000; stroke: #ff0000"/>
     <use xlink:href="#m974894db8f" x="471.344498" y="282.624919" style="fill: #ff0000; stroke: #ff0000"/>
     <use xlink:href="#m974894db8f" x="486.177033" y="286.322976" style="fill: #ff0000; stroke: #ff0000"/>
     <use xlink:href="#m974894db8f" x="489.143541" y="284.199314" style="fill: #ff0000; stroke: #ff0000"/>
     <use xlink:href="#m974894db8f" x="495.076555" y="284.199314" style="fill: #ff0000; stroke: #ff0000"/>
     <use xlink:href="#m974894db8f" x="518.808612" y="284.199314" style="fill: #ff0000; stroke: #ff0000"/>
     <use xlink:href="#m974894db8f" x="524.741627" y="284.199314" style="fill: #ff0000; stroke: #ff0000"/>
     <use xlink:href="#m974894db8f" x="530.674641" y="286.322976" style="fill: #ff0000; stroke: #ff0000"/>
     <use xlink:href="#m974894db8f" x="539.574163" y="284.199314" style="fill: #ff0000; stroke: #ff0000"/>
     <use xlink:href="#m974894db8f" x="545.507177" y="286.322976" style="fill: #ff0000; stroke: #ff0000"/>
     <use xlink:href="#m974894db8f" x="551.440191" y="284.199314" style="fill: #ff0000; stroke: #ff0000"/>
     <use xlink:href="#m974894db8f" x="554.406699" y="284.231889" style="fill: #ff0000; stroke: #ff0000"/>
     <use xlink:href="#m974894db8f" x="557.373206" y="286.169202" style="fill: #ff0000; stroke: #ff0000"/>
     <use xlink:href="#m974894db8f" x="578.138756" y="283.521541" style="fill: #ff0000; stroke: #ff0000"/>
     <use xlink:href="#m974894db8f" x="581.105263" y="283.521541" style="fill: #ff0000; stroke: #ff0000"/>
     <use xlink:href="#m974894db8f" x="590.004785" y="278.549104" style="fill: #ff0000; stroke: #ff0000"/>
     <use xlink:href="#m974894db8f" x="601.870813" y="278.549104" style="fill: #ff0000; stroke: #ff0000"/>
     <use xlink:href="#m974894db8f" x="604.837321" y="369.36" style="fill: #ff0000; stroke: #ff0000"/>
     <use xlink:href="#m974894db8f" x="616.703349" y="286.055116" style="fill: #ff0000; stroke: #ff0000"/>
     <use xlink:href="#m974894db8f" x="622.636364" y="283.521541" style="fill: #ff0000; stroke: #ff0000"/>
    </g>
   </g>
   <g id="patch_3">
    <path d="M 90 384.48 
L 90 51.84 
" style="fill: none; stroke: #000000; stroke-width: 0.8; stroke-linejoin: miter; stroke-linecap: square"/>
   </g>
   <g id="patch_4">
    <path d="M 648 384.48 
L 648 51.84 
" style="fill: none; stroke: #000000; stroke-width: 0.8; stroke-linejoin: miter; stroke-linecap: square"/>
   </g>
   <g id="patch_5">
    <path d="M 90 384.48 
L 648 384.48 
" style="fill: none; stroke: #000000; stroke-width: 0.8; stroke-linejoin: miter; stroke-linecap: square"/>
   </g>
   <g id="patch_6">
    <path d="M 90 51.84 
L 648 51.84 
" style="fill: none; stroke: #000000; stroke-width: 0.8; stroke-linejoin: miter; stroke-linecap: square"/>
   </g>
   <g id="text_16">
    <!-- 6004020372 每周平均价格 -->
    <g transform="translate(300 45.84) scale(0.12 -0.12)">
     <defs>
      <path id="SimHei-36" d="M 250 1612 
Q 275 1975 387 2225 
Q 500 2475 725 2850 
L 1750 4450 
L 2325 4450 
L 1275 2800 
Q 1950 2975 2350 2750 
Q 2750 2525 2887 2237 
Q 3025 1950 3037 1612 
Q 3050 1275 2937 950 
Q 2825 625 2537 362 
Q 2250 100 1737 75 
Q 1225 50 862 262 
Q 500 475 362 862 
Q 225 1250 250 1612 
z
M 1025 787 
Q 1250 550 1625 525 
Q 2000 500 2250 775 
Q 2500 1050 2500 1575 
Q 2500 2100 2187 2300 
Q 1875 2500 1487 2450 
Q 1100 2400 925 2075 
Q 750 1750 775 1387 
Q 800 1025 1025 787 
z
" transform="scale(0.015625)"/>
      <path id="SimHei-20" transform="scale(0.015625)"/>
      <path id="SimHei-6bcf" d="M 5225 3650 
Q 5175 3150 5150 2675 
L 5125 2200 
Q 5525 2200 6000 2225 
L 6000 1775 
Q 5625 1800 5100 1800 
L 5050 650 
Q 5325 650 5700 675 
L 5700 225 
Q 5400 250 5025 250 
Q 5000 -275 4775 -425 
Q 4550 -575 4000 -650 
Q 3950 -400 3775 -125 
Q 4375 -125 4475 -50 
Q 4575 25 4575 250 
L 1400 250 
L 1500 1100 
L 1550 1800 
L 1275 1800 
Q 825 1800 550 1775 
L 550 2225 
Q 975 2200 1275 2200 
L 1575 2200 
L 1625 2825 
L 1675 3650 
L 5225 3650 
z
M 2350 5000 
Q 2175 4825 2050 4600 
L 4875 4600 
Q 5275 4600 5775 4625 
L 5775 4175 
Q 5275 4200 4875 4200 
L 1825 4200 
L 1375 3625 
Q 1125 3325 775 2975 
Q 600 3175 350 3300 
Q 725 3575 1150 4112 
Q 1575 4650 1825 5250 
Q 2125 5075 2350 5000 
z
M 1975 1800 
L 1875 650 
L 4625 650 
L 4675 1800 
L 2950 1800 
Q 3575 1275 3825 1125 
Q 3625 925 3475 725 
Q 3100 1100 2650 1475 
Q 2775 1675 2875 1800 
L 1975 1800 
z
M 2975 3250 
Q 3125 3150 3287 3012 
Q 3450 2875 3800 2550 
Q 3650 2350 3525 2200 
L 4700 2200 
L 4750 3250 
L 2975 3250 
z
M 2075 3250 
L 2000 2200 
L 3425 2200 
Q 3150 2500 3012 2625 
Q 2875 2750 2700 2900 
Q 2800 3050 2925 3250 
L 2075 3250 
z
" transform="scale(0.015625)"/>
     </defs>
     <use xlink:href="#SimHei-36"/>
     <use xlink:href="#SimHei-30" x="50"/>
     <use xlink:href="#SimHei-30" x="100"/>
     <use xlink:href="#SimHei-34" x="150"/>
     <use xlink:href="#SimHei-30" x="200"/>
     <use xlink:href="#SimHei-32" x="250"/>
     <use xlink:href="#SimHei-30" x="300"/>
     <use xlink:href="#SimHei-33" x="350"/>
     <use xlink:href="#SimHei-37" x="400"/>
     <use xlink:href="#SimHei-32" x="450"/>
     <use xlink:href="#SimHei-20" x="500"/>
     <use xlink:href="#SimHei-6bcf" x="550"/>
     <use xlink:href="#SimHei-5468" x="650"/>
     <use xlink:href="#SimHei-5e73" x="750"/>
     <use xlink:href="#SimHei-5747" x="850"/>
     <use xlink:href="#SimHei-4ef7" x="950"/>
     <use xlink:href="#SimHei-683c" x="1050"/>
    </g>
   </g>
  </g>
 </g>
 <defs>
  <clipPath id="pac6b0b9244">
   <rect x="90" y="51.84" width="558" height="332.64"/>
  </clipPath>
 </defs>
</svg>
