<?xml version="1.0" encoding="utf-8" standalone="no"?>
<!DOCTYPE svg PUBLIC "-//W3C//DTD SVG 1.1//EN"
  "http://www.w3.org/Graphics/SVG/1.1/DTD/svg11.dtd">
<svg xmlns:xlink="http://www.w3.org/1999/xlink" width="720pt" height="432pt" viewBox="0 0 720 432" xmlns="http://www.w3.org/2000/svg" version="1.1">
 <metadata>
  <rdf:RDF xmlns:dc="http://purl.org/dc/elements/1.1/" xmlns:cc="http://creativecommons.org/ns#" xmlns:rdf="http://www.w3.org/1999/02/22-rdf-syntax-ns#">
   <cc:Work>
    <dc:type rdf:resource="http://purl.org/dc/dcmitype/StillImage"/>
    <dc:date>2024-08-17T14:10:43.437875</dc:date>
    <dc:format>image/svg+xml</dc:format>
    <dc:creator>
     <cc:Agent>
      <dc:title>Matplotlib v3.8.0, https://matplotlib.org/</dc:title>
     </cc:Agent>
    </dc:creator>
   </cc:Work>
  </rdf:RDF>
 </metadata>
 <defs>
  <style type="text/css">*{stroke-linejoin: round; stroke-linecap: butt}</style>
 </defs>
 <g id="figure_1">
  <g id="patch_1">
   <path d="M 0 432 
L 720 432 
L 720 0 
L 0 0 
z
" style="fill: #ffffff"/>
  </g>
  <g id="axes_1">
   <g id="patch_2">
    <path d="M 90 384.48 
L 648 384.48 
L 648 51.84 
L 90 51.84 
z
" style="fill: #ffffff"/>
   </g>
   <g id="matplotlib.axis_1">
    <g id="xtick_1">
     <g id="line2d_1">
      <defs>
       <path id="mc584bca451" d="M 0 0 
L 0 3.5 
" style="stroke: #000000; stroke-width: 0.8"/>
      </defs>
      <g>
       <use xlink:href="#mc584bca451" x="109.566234" y="384.48" style="stroke: #000000; stroke-width: 0.8"/>
      </g>
     </g>
     <g id="text_1">
      <!-- 0 -->
      <g transform="translate(107.066234 398.355) scale(0.1 -0.1)">
       <defs>
        <path id="SimHei-30" d="M 225 2537 
Q 250 3200 412 3587 
Q 575 3975 875 4225 
Q 1175 4475 1612 4475 
Q 2050 4475 2375 4112 
Q 2700 3750 2800 3200 
Q 2900 2650 2862 1937 
Q 2825 1225 2612 775 
Q 2400 325 1975 150 
Q 1550 -25 1125 187 
Q 700 400 525 750 
Q 350 1100 275 1487 
Q 200 1875 225 2537 
z
M 750 2687 
Q 675 2000 800 1462 
Q 925 925 1212 700 
Q 1500 475 1800 612 
Q 2100 750 2237 1162 
Q 2375 1575 2375 2062 
Q 2375 2550 2337 2950 
Q 2300 3350 2112 3675 
Q 1925 4000 1612 4012 
Q 1300 4025 1062 3700 
Q 825 3375 750 2687 
z
" transform="scale(0.015625)"/>
       </defs>
       <use xlink:href="#SimHei-30"/>
      </g>
     </g>
    </g>
    <g id="xtick_2">
     <g id="line2d_2">
      <g>
       <use xlink:href="#mc584bca451" x="182.033766" y="384.48" style="stroke: #000000; stroke-width: 0.8"/>
      </g>
     </g>
     <g id="text_2">
      <!-- 25 -->
      <g transform="translate(177.033766 398.355) scale(0.1 -0.1)">
       <defs>
        <path id="SimHei-32" d="M 300 250 
Q 325 625 650 925 
Q 975 1225 1475 1862 
Q 1975 2500 2125 2850 
Q 2275 3200 2237 3450 
Q 2200 3700 2000 3862 
Q 1800 4025 1537 4000 
Q 1275 3975 1037 3800 
Q 800 3625 675 3275 
L 200 3350 
Q 400 3925 712 4187 
Q 1025 4450 1450 4475 
Q 1700 4500 1900 4462 
Q 2100 4425 2312 4287 
Q 2525 4150 2662 3875 
Q 2800 3600 2762 3212 
Q 2725 2825 2375 2287 
Q 2025 1750 1025 600 
L 2825 600 
L 2825 150 
L 300 150 
L 300 250 
z
" transform="scale(0.015625)"/>
        <path id="SimHei-35" d="M 550 1325 
Q 725 650 1150 575 
Q 1575 500 1837 662 
Q 2100 825 2212 1087 
Q 2325 1350 2312 1675 
Q 2300 2000 2137 2225 
Q 1975 2450 1725 2525 
Q 1475 2600 1162 2525 
Q 850 2450 650 2175 
L 225 2225 
Q 275 2375 700 4375 
L 2675 4375 
L 2675 3925 
L 1075 3925 
Q 950 3250 825 2850 
Q 1200 3025 1525 3012 
Q 1850 3000 2150 2862 
Q 2450 2725 2587 2487 
Q 2725 2250 2787 2012 
Q 2850 1775 2837 1500 
Q 2825 1225 2725 937 
Q 2625 650 2425 462 
Q 2225 275 1937 162 
Q 1650 50 1275 75 
Q 900 100 562 350 
Q 225 600 100 1200 
L 550 1325 
z
" transform="scale(0.015625)"/>
       </defs>
       <use xlink:href="#SimHei-32"/>
       <use xlink:href="#SimHei-35" x="50"/>
      </g>
     </g>
    </g>
    <g id="xtick_3">
     <g id="line2d_3">
      <g>
       <use xlink:href="#mc584bca451" x="254.501299" y="384.48" style="stroke: #000000; stroke-width: 0.8"/>
      </g>
     </g>
     <g id="text_3">
      <!-- 50 -->
      <g transform="translate(249.501299 398.355) scale(0.1 -0.1)">
       <use xlink:href="#SimHei-35"/>
       <use xlink:href="#SimHei-30" x="50"/>
      </g>
     </g>
    </g>
    <g id="xtick_4">
     <g id="line2d_4">
      <g>
       <use xlink:href="#mc584bca451" x="326.968831" y="384.48" style="stroke: #000000; stroke-width: 0.8"/>
      </g>
     </g>
     <g id="text_4">
      <!-- 75 -->
      <g transform="translate(321.968831 398.355) scale(0.1 -0.1)">
       <defs>
        <path id="SimHei-37" d="M 850 150 
Q 1300 2050 2425 3925 
L 275 3925 
L 275 4375 
L 2950 4375 
L 2950 3950 
Q 1775 2050 1400 150 
L 850 150 
z
" transform="scale(0.015625)"/>
       </defs>
       <use xlink:href="#SimHei-37"/>
       <use xlink:href="#SimHei-35" x="50"/>
      </g>
     </g>
    </g>
    <g id="xtick_5">
     <g id="line2d_5">
      <g>
       <use xlink:href="#mc584bca451" x="399.436364" y="384.48" style="stroke: #000000; stroke-width: 0.8"/>
      </g>
     </g>
     <g id="text_5">
      <!-- 100 -->
      <g transform="translate(391.936364 398.355) scale(0.1 -0.1)">
       <defs>
        <path id="SimHei-31" d="M 1400 3600 
Q 1075 3275 575 2975 
L 575 3450 
Q 1200 3875 1600 4450 
L 1900 4450 
L 1900 150 
L 1400 150 
L 1400 3600 
z
" transform="scale(0.015625)"/>
       </defs>
       <use xlink:href="#SimHei-31"/>
       <use xlink:href="#SimHei-30" x="50"/>
       <use xlink:href="#SimHei-30" x="100"/>
      </g>
     </g>
    </g>
    <g id="xtick_6">
     <g id="line2d_6">
      <g>
       <use xlink:href="#mc584bca451" x="471.903896" y="384.48" style="stroke: #000000; stroke-width: 0.8"/>
      </g>
     </g>
     <g id="text_6">
      <!-- 125 -->
      <g transform="translate(464.403896 398.355) scale(0.1 -0.1)">
       <use xlink:href="#SimHei-31"/>
       <use xlink:href="#SimHei-32" x="50"/>
       <use xlink:href="#SimHei-35" x="100"/>
      </g>
     </g>
    </g>
    <g id="xtick_7">
     <g id="line2d_7">
      <g>
       <use xlink:href="#mc584bca451" x="544.371429" y="384.48" style="stroke: #000000; stroke-width: 0.8"/>
      </g>
     </g>
     <g id="text_7">
      <!-- 150 -->
      <g transform="translate(536.871429 398.355) scale(0.1 -0.1)">
       <use xlink:href="#SimHei-31"/>
       <use xlink:href="#SimHei-35" x="50"/>
       <use xlink:href="#SimHei-30" x="100"/>
      </g>
     </g>
    </g>
    <g id="xtick_8">
     <g id="line2d_8">
      <g>
       <use xlink:href="#mc584bca451" x="616.838961" y="384.48" style="stroke: #000000; stroke-width: 0.8"/>
      </g>
     </g>
     <g id="text_8">
      <!-- 175 -->
      <g transform="translate(609.338961 398.355) scale(0.1 -0.1)">
       <use xlink:href="#SimHei-31"/>
       <use xlink:href="#SimHei-37" x="50"/>
       <use xlink:href="#SimHei-35" x="100"/>
      </g>
     </g>
    </g>
    <g id="text_9">
     <!-- 周数 -->
     <g transform="translate(359 411.339375) scale(0.1 -0.1)">
      <defs>
       <path id="SimHei-5468" d="M 5600 4925 
Q 5575 4400 5575 3800 
L 5575 50 
Q 5550 -375 5325 -462 
Q 5100 -550 4325 -600 
Q 4300 -400 4125 -75 
Q 4800 -100 4962 -37 
Q 5125 25 5100 225 
L 5100 4525 
L 1500 4525 
Q 1500 2575 1450 1887 
Q 1400 1200 1237 550 
Q 1075 -100 775 -625 
Q 625 -450 275 -225 
Q 650 225 825 1000 
Q 1000 1775 1025 2587 
Q 1050 3400 1000 4925 
L 5600 4925 
z
M 2050 325 
Q 2075 625 2075 950 
L 2075 1400 
Q 2075 1625 2050 1925 
L 4400 1925 
Q 4375 1725 4375 1450 
L 4375 875 
Q 4375 600 4400 325 
L 2050 325 
z
M 3000 3800 
Q 3000 4150 2975 4375 
L 3475 4375 
Q 3450 4075 3450 3800 
Q 4100 3800 4475 3825 
L 4475 3350 
Q 4125 3375 3450 3375 
L 3450 2800 
Q 4200 2800 4825 2825 
L 4825 2350 
Q 4175 2375 3725 2375 
L 2750 2375 
Q 2325 2375 1725 2350 
L 1725 2825 
Q 2325 2800 3000 2800 
L 3000 3375 
Q 2500 3375 1975 3350 
L 1975 3825 
Q 2475 3800 3000 3800 
z
M 3900 725 
L 3900 1525 
L 2550 1525 
L 2550 725 
L 3900 725 
z
" transform="scale(0.015625)"/>
       <path id="SimHei-6570" d="M 4525 4925 
Q 4475 4800 4400 4587 
Q 4325 4375 4175 3825 
L 5325 3825 
Q 5575 3825 5925 3850 
L 5925 3400 
Q 5650 3425 5500 3425 
Q 5500 3025 5362 2162 
Q 5225 1300 4875 675 
Q 5125 375 5437 137 
Q 5750 -100 6025 -200 
Q 5725 -425 5625 -625 
Q 5325 -450 5075 -225 
Q 4825 0 4575 325 
Q 4300 25 3987 -187 
Q 3675 -400 3200 -650 
Q 3075 -425 2850 -300 
Q 3225 -150 3650 125 
Q 4075 400 4300 675 
Q 4125 1025 3962 1425 
Q 3800 1825 3675 2475 
Q 3600 2275 3425 1950 
Q 3250 2050 3000 2150 
Q 3400 2850 3650 3675 
Q 3900 4500 3975 5100 
Q 4275 4975 4525 4925 
z
M 2100 2250 
Q 2000 2150 1875 1925 
L 3250 1925 
Q 3100 1300 2725 675 
Q 3125 525 3350 400 
Q 3225 225 3125 25 
Q 2900 175 2450 325 
Q 1950 -225 725 -650 
Q 600 -375 400 -275 
Q 1575 0 2000 475 
Q 1300 650 850 775 
Q 1000 1000 1250 1525 
Q 1000 1525 425 1500 
L 425 1950 
Q 900 1925 1400 1925 
Q 1500 2150 1550 2425 
Q 1825 2325 2100 2250 
z
M 1775 3950 
Q 1775 4550 1750 5100 
L 2250 5100 
Q 2225 4575 2225 3950 
Q 3075 3950 3425 3975 
L 3425 3525 
Q 3075 3550 2225 3550 
Q 2225 2825 2250 2425 
L 1750 2425 
Q 1775 2775 1775 3300 
Q 1650 3100 1300 2787 
Q 950 2475 650 2300 
Q 525 2525 275 2625 
Q 500 2700 875 2975 
Q 1250 3250 1450 3550 
Q 950 3550 500 3525 
L 500 3975 
Q 925 3950 1775 3950 
z
M 3975 3175 
Q 4200 1700 4600 1125 
Q 4850 1700 4937 2287 
Q 5025 2875 5050 3425 
L 4075 3425 
L 3975 3175 
z
M 1450 1000 
Q 1750 925 2275 800 
Q 2475 1050 2650 1525 
L 1725 1525 
Q 1600 1275 1450 1000 
z
M 3325 4825 
Q 3200 4625 3125 4450 
Q 3050 4275 2925 4025 
Q 2725 4125 2525 4175 
Q 2725 4500 2900 5000 
Q 3150 4875 3325 4825 
z
M 2575 3375 
Q 2900 3050 3200 2725 
Q 3050 2600 2875 2425 
Q 2525 2850 2300 3100 
Q 2450 3225 2575 3375 
z
M 925 5000 
Q 1275 4650 1500 4300 
L 1125 4075 
Q 950 4425 600 4725 
Q 825 4875 925 5000 
z
" transform="scale(0.015625)"/>
      </defs>
      <use xlink:href="#SimHei-5468"/>
      <use xlink:href="#SimHei-6570" x="100"/>
     </g>
    </g>
   </g>
   <g id="matplotlib.axis_2">
    <g id="ytick_1">
     <g id="line2d_9">
      <defs>
       <path id="m1c95fb6e68" d="M 0 0 
L -3.5 0 
" style="stroke: #000000; stroke-width: 0.8"/>
      </defs>
      <g>
       <use xlink:href="#m1c95fb6e68" x="90" y="344.16" style="stroke: #000000; stroke-width: 0.8"/>
      </g>
     </g>
     <g id="text_10">
      <!-- 2.5 -->
      <g style="fill: #0000ff" transform="translate(68 347.5975) scale(0.1 -0.1)">
       <defs>
        <path id="SimHei-2e" d="M 1075 125 
L 500 125 
L 500 675 
L 1075 675 
L 1075 125 
z
" transform="scale(0.015625)"/>
       </defs>
       <use xlink:href="#SimHei-32"/>
       <use xlink:href="#SimHei-2e" x="50"/>
       <use xlink:href="#SimHei-35" x="100"/>
      </g>
     </g>
    </g>
    <g id="ytick_2">
     <g id="line2d_10">
      <g>
       <use xlink:href="#m1c95fb6e68" x="90" y="302.16" style="stroke: #000000; stroke-width: 0.8"/>
      </g>
     </g>
     <g id="text_11">
      <!-- 5.0 -->
      <g style="fill: #0000ff" transform="translate(68 305.5975) scale(0.1 -0.1)">
       <use xlink:href="#SimHei-35"/>
       <use xlink:href="#SimHei-2e" x="50"/>
       <use xlink:href="#SimHei-30" x="100"/>
      </g>
     </g>
    </g>
    <g id="ytick_3">
     <g id="line2d_11">
      <g>
       <use xlink:href="#m1c95fb6e68" x="90" y="260.16" style="stroke: #000000; stroke-width: 0.8"/>
      </g>
     </g>
     <g id="text_12">
      <!-- 7.5 -->
      <g style="fill: #0000ff" transform="translate(68 263.5975) scale(0.1 -0.1)">
       <use xlink:href="#SimHei-37"/>
       <use xlink:href="#SimHei-2e" x="50"/>
       <use xlink:href="#SimHei-35" x="100"/>
      </g>
     </g>
    </g>
    <g id="ytick_4">
     <g id="line2d_12">
      <g>
       <use xlink:href="#m1c95fb6e68" x="90" y="218.16" style="stroke: #000000; stroke-width: 0.8"/>
      </g>
     </g>
     <g id="text_13">
      <!-- 10.0 -->
      <g style="fill: #0000ff" transform="translate(63 221.5975) scale(0.1 -0.1)">
       <use xlink:href="#SimHei-31"/>
       <use xlink:href="#SimHei-30" x="50"/>
       <use xlink:href="#SimHei-2e" x="100"/>
       <use xlink:href="#SimHei-30" x="150"/>
      </g>
     </g>
    </g>
    <g id="ytick_5">
     <g id="line2d_13">
      <g>
       <use xlink:href="#m1c95fb6e68" x="90" y="176.16" style="stroke: #000000; stroke-width: 0.8"/>
      </g>
     </g>
     <g id="text_14">
      <!-- 12.5 -->
      <g style="fill: #0000ff" transform="translate(63 179.5975) scale(0.1 -0.1)">
       <use xlink:href="#SimHei-31"/>
       <use xlink:href="#SimHei-32" x="50"/>
       <use xlink:href="#SimHei-2e" x="100"/>
       <use xlink:href="#SimHei-35" x="150"/>
      </g>
     </g>
    </g>
    <g id="ytick_6">
     <g id="line2d_14">
      <g>
       <use xlink:href="#m1c95fb6e68" x="90" y="134.16" style="stroke: #000000; stroke-width: 0.8"/>
      </g>
     </g>
     <g id="text_15">
      <!-- 15.0 -->
      <g style="fill: #0000ff" transform="translate(63 137.5975) scale(0.1 -0.1)">
       <use xlink:href="#SimHei-31"/>
       <use xlink:href="#SimHei-35" x="50"/>
       <use xlink:href="#SimHei-2e" x="100"/>
       <use xlink:href="#SimHei-30" x="150"/>
      </g>
     </g>
    </g>
    <g id="ytick_7">
     <g id="line2d_15">
      <g>
       <use xlink:href="#m1c95fb6e68" x="90" y="92.16" style="stroke: #000000; stroke-width: 0.8"/>
      </g>
     </g>
     <g id="text_16">
      <!-- 17.5 -->
      <g style="fill: #0000ff" transform="translate(63 95.5975) scale(0.1 -0.1)">
       <use xlink:href="#SimHei-31"/>
       <use xlink:href="#SimHei-37" x="50"/>
       <use xlink:href="#SimHei-2e" x="100"/>
       <use xlink:href="#SimHei-35" x="150"/>
      </g>
     </g>
    </g>
    <g id="text_17">
     <!-- 需求量 -->
     <g style="fill: #0000ff" transform="translate(57.75 233.16) rotate(-90) scale(0.1 -0.1)">
      <defs>
       <path id="SimHei-9700" d="M 5150 2100 
Q 5500 2100 5975 2125 
L 5975 1700 
Q 5500 1725 5150 1725 
L 3425 1725 
Q 3300 1500 3250 1275 
L 5600 1275 
Q 5575 950 5575 700 
L 5575 -50 
Q 5575 -350 5425 -437 
Q 5275 -525 4775 -625 
Q 4750 -400 4550 -100 
Q 4950 -100 5025 -50 
Q 5100 0 5100 200 
L 5100 900 
L 4125 900 
L 4125 -375 
L 3650 -375 
L 3650 900 
L 2775 900 
L 2775 -375 
L 2300 -375 
L 2300 900 
L 1350 900 
L 1350 -575 
L 875 -575 
Q 900 -225 900 175 
L 900 575 
Q 900 900 875 1275 
L 2800 1275 
Q 2875 1500 2925 1725 
L 1350 1725 
Q 925 1725 525 1700 
L 525 2125 
Q 900 2100 1325 2100 
L 5150 2100 
z
M 4700 5075 
Q 5075 5075 5550 5100 
L 5550 4675 
Q 5075 4700 4700 4700 
L 3475 4700 
L 3475 4275 
L 5975 4275 
L 5975 3100 
L 5500 3100 
L 5500 3900 
L 3475 3900 
L 3475 3200 
Q 3475 2775 3500 2425 
L 2975 2425 
Q 3000 2750 3000 3175 
L 3000 3900 
L 950 3900 
L 950 3100 
L 450 3100 
Q 450 3375 462 3650 
Q 475 3925 450 4275 
L 3000 4275 
L 3000 4700 
L 1775 4700 
Q 1400 4700 1025 4675 
L 1025 5100 
Q 1400 5075 1750 5075 
L 4700 5075 
z
M 2475 2450 
L 1250 2450 
L 1250 2800 
L 2475 2800 
L 2475 2450 
z
M 2500 3150 
L 1325 3150 
L 1325 3500 
L 2500 3500 
L 2500 3150 
z
M 5000 3175 
L 3825 3175 
L 3825 3525 
L 5000 3525 
L 5000 3175 
z
M 5025 2500 
L 3850 2500 
L 3850 2850 
L 5025 2850 
L 5025 2500 
z
" transform="scale(0.015625)"/>
       <path id="SimHei-6c42" d="M 475 4025 
Q 875 4000 1325 4000 
L 2875 4000 
Q 2875 4725 2850 5125 
L 3400 5125 
Q 3375 4725 3375 4000 
L 5150 4000 
Q 5500 4000 5925 4025 
L 5925 3575 
Q 5475 3600 5150 3600 
L 3375 3600 
Q 3400 3200 3612 2750 
Q 3825 2300 4050 2000 
Q 4600 2450 5075 3150 
Q 5250 2950 5575 2750 
Q 5275 2600 4250 1650 
Q 4575 1225 5037 850 
Q 5500 475 6050 325 
Q 5700 125 5550 -150 
Q 5000 150 4437 687 
Q 3875 1225 3375 2375 
L 3375 150 
Q 3400 -225 3137 -350 
Q 2875 -475 2375 -525 
Q 2325 -275 2150 25 
Q 2575 0 2737 37 
Q 2900 75 2875 300 
L 2875 1675 
Q 1875 900 1437 550 
Q 1000 200 725 -50 
Q 500 200 300 400 
Q 650 575 1200 937 
Q 1750 1300 2875 2250 
L 2875 3600 
L 1325 3600 
Q 875 3600 475 3575 
L 475 4025 
z
M 1225 3175 
Q 1775 2725 2250 2325 
L 1825 1950 
Q 1450 2375 825 2825 
L 1225 3175 
z
M 4500 5100 
Q 4900 4825 5300 4425 
Q 5125 4300 4925 4100 
Q 4650 4400 4125 4825 
Q 4275 4950 4500 5100 
z
" transform="scale(0.015625)"/>
       <path id="SimHei-91cf" d="M 5250 2500 
Q 5225 2200 5225 1700 
Q 5225 1225 5250 950 
L 3425 950 
L 3425 625 
L 4575 625 
Q 5000 625 5375 650 
L 5375 275 
Q 5025 300 4575 300 
L 3425 300 
L 3425 -75 
L 5125 -75 
Q 5525 -75 5925 -50 
L 5925 -425 
Q 5525 -400 5125 -400 
L 1275 -400 
Q 900 -400 475 -425 
L 475 -50 
Q 925 -50 1275 -75 
L 2975 -75 
L 2975 300 
L 1725 300 
Q 1350 300 975 250 
L 975 650 
Q 1375 625 1725 625 
L 2975 625 
L 2975 950 
L 1150 950 
Q 1175 1375 1175 1775 
Q 1175 2175 1150 2500 
L 5250 2500 
z
M 5200 4950 
Q 5175 4575 5175 4250 
Q 5175 3925 5200 3400 
L 1200 3400 
Q 1225 3925 1225 4250 
Q 1225 4575 1200 4950 
L 5200 4950 
z
M 4900 3100 
Q 5500 3125 6000 3150 
L 6000 2750 
Q 5500 2775 4925 2775 
L 1650 2775 
Q 975 2775 325 2750 
L 325 3150 
Q 975 3125 1650 3100 
L 4900 3100 
z
M 4725 3700 
L 4725 4025 
L 1675 4025 
L 1675 3700 
L 4725 3700 
z
M 4725 4350 
L 4725 4650 
L 1675 4650 
L 1675 4350 
L 4725 4350 
z
M 4750 1875 
L 4750 2175 
L 3425 2175 
L 3425 1875 
L 4750 1875 
z
M 2975 1875 
L 2975 2175 
L 1650 2175 
L 1650 1875 
L 2975 1875 
z
M 2975 1275 
L 2975 1550 
L 1650 1550 
L 1650 1275 
L 2975 1275 
z
M 4750 1275 
L 4750 1550 
L 3425 1550 
L 3425 1275 
L 4750 1275 
z
" transform="scale(0.015625)"/>
      </defs>
      <use xlink:href="#SimHei-9700"/>
      <use xlink:href="#SimHei-6c42" x="100"/>
      <use xlink:href="#SimHei-91cf" x="200"/>
     </g>
    </g>
   </g>
   <g id="line2d_16">
    <path d="M 115.363636 318.96 
L 121.161039 369.36 
L 132.755844 369.36 
L 135.654545 335.76 
L 138.553247 352.56 
L 141.451948 352.56 
L 144.350649 318.96 
L 147.249351 369.36 
L 153.046753 302.16 
L 155.945455 352.56 
L 158.844156 352.56 
L 164.641558 251.76 
L 167.54026 318.96 
L 170.438961 352.56 
L 173.337662 318.96 
L 176.236364 335.76 
L 179.135065 285.36 
L 182.033766 318.96 
L 187.831169 318.96 
L 190.72987 352.56 
L 196.527273 285.36 
L 199.425974 352.56 
L 202.324675 352.56 
L 205.223377 117.36 
L 208.122078 352.56 
L 219.716883 318.96 
L 222.615584 167.76 
L 225.514286 335.76 
L 228.412987 285.36 
L 231.311688 318.96 
L 234.21039 184.56 
L 237.109091 285.36 
L 240.007792 352.56 
L 245.805195 234.96 
L 248.703896 134.16 
L 251.602597 335.76 
L 254.501299 234.96 
L 257.4 285.36 
L 260.298701 285.36 
L 263.197403 234.96 
L 266.096104 251.76 
L 268.994805 318.96 
L 286.387013 251.76 
L 289.285714 318.96 
L 292.184416 302.16 
L 295.083117 318.96 
L 297.981818 369.36 
L 300.880519 335.76 
L 303.779221 369.36 
L 306.677922 268.56 
L 312.475325 369.36 
L 315.374026 285.36 
L 318.272727 335.76 
L 321.171429 369.36 
L 324.07013 201.36 
L 326.968831 369.36 
L 329.867532 335.76 
L 332.766234 285.36 
L 335.664935 369.36 
L 338.563636 335.76 
L 344.361039 335.76 
L 347.25974 352.56 
L 350.158442 318.96 
L 353.057143 352.56 
L 355.955844 335.76 
L 358.854545 167.76 
L 361.753247 268.56 
L 364.651948 218.16 
L 367.550649 285.36 
L 370.449351 134.16 
L 373.348052 302.16 
L 376.246753 302.16 
L 379.145455 251.76 
L 382.044156 302.16 
L 390.74026 352.56 
L 393.638961 268.56 
L 399.436364 369.36 
L 402.335065 335.76 
L 405.233766 352.56 
L 408.132468 352.56 
L 411.031169 318.96 
L 416.828571 352.56 
L 419.727273 268.56 
L 422.625974 318.96 
L 425.524675 352.56 
L 428.423377 335.76 
L 437.119481 302.16 
L 440.018182 335.76 
L 442.916883 268.56 
L 445.815584 302.16 
L 448.714286 369.36 
L 451.612987 251.76 
L 454.511688 302.16 
L 457.41039 335.76 
L 460.309091 335.76 
L 463.207792 369.36 
L 466.106494 335.76 
L 469.005195 318.96 
L 471.903896 352.56 
L 474.802597 369.36 
L 477.701299 369.36 
L 483.498701 335.76 
L 486.397403 352.56 
L 489.296104 335.76 
L 492.194805 335.76 
L 497.992208 268.56 
L 500.890909 369.36 
L 503.78961 285.36 
L 506.688312 285.36 
L 509.587013 318.96 
L 515.384416 117.36 
L 518.283117 234.96 
L 521.181818 150.96 
L 524.080519 201.36 
L 526.979221 369.36 
L 529.877922 167.76 
L 532.776623 66.96 
L 535.675325 184.56 
L 538.574026 335.76 
L 541.472727 268.56 
L 544.371429 251.76 
L 547.27013 335.76 
L 550.168831 268.56 
L 553.067532 234.96 
L 555.966234 335.76 
L 558.864935 285.36 
L 564.662338 352.56 
L 570.45974 369.36 
L 573.358442 285.36 
L 576.257143 369.36 
L 584.953247 318.96 
L 587.851948 318.96 
L 590.750649 302.16 
L 599.446753 352.56 
L 602.345455 352.56 
L 605.244156 268.56 
L 608.142857 352.56 
L 611.041558 335.76 
L 619.737662 369.36 
L 622.636364 268.56 
L 622.636364 268.56 
" clip-path="url(#pe53e34a62e)" style="fill: none; stroke: #0000ff; stroke-width: 1.5; stroke-linecap: square"/>
    <defs>
     <path id="m5fd174252b" d="M 0 3 
C 0.795609 3 1.55874 2.683901 2.12132 2.12132 
C 2.683901 1.55874 3 0.795609 3 0 
C 3 -0.795609 2.683901 -1.55874 2.12132 -2.12132 
C 1.55874 -2.683901 0.795609 -3 0 -3 
C -0.795609 -3 -1.55874 -2.683901 -2.12132 -2.12132 
C -2.683901 -1.55874 -3 -0.795609 -3 0 
C -3 0.795609 -2.683901 1.55874 -2.12132 2.12132 
C -1.55874 2.683901 -0.795609 3 0 3 
z
" style="stroke: #0000ff"/>
    </defs>
    <g clip-path="url(#pe53e34a62e)">
     <use xlink:href="#m5fd174252b" x="115.363636" y="318.96" style="fill: #0000ff; stroke: #0000ff"/>
     <use xlink:href="#m5fd174252b" x="121.161039" y="369.36" style="fill: #0000ff; stroke: #0000ff"/>
     <use xlink:href="#m5fd174252b" x="129.857143" y="369.36" style="fill: #0000ff; stroke: #0000ff"/>
     <use xlink:href="#m5fd174252b" x="132.755844" y="369.36" style="fill: #0000ff; stroke: #0000ff"/>
     <use xlink:href="#m5fd174252b" x="135.654545" y="335.76" style="fill: #0000ff; stroke: #0000ff"/>
     <use xlink:href="#m5fd174252b" x="138.553247" y="352.56" style="fill: #0000ff; stroke: #0000ff"/>
     <use xlink:href="#m5fd174252b" x="141.451948" y="352.56" style="fill: #0000ff; stroke: #0000ff"/>
     <use xlink:href="#m5fd174252b" x="144.350649" y="318.96" style="fill: #0000ff; stroke: #0000ff"/>
     <use xlink:href="#m5fd174252b" x="147.249351" y="369.36" style="fill: #0000ff; stroke: #0000ff"/>
     <use xlink:href="#m5fd174252b" x="153.046753" y="302.16" style="fill: #0000ff; stroke: #0000ff"/>
     <use xlink:href="#m5fd174252b" x="155.945455" y="352.56" style="fill: #0000ff; stroke: #0000ff"/>
     <use xlink:href="#m5fd174252b" x="158.844156" y="352.56" style="fill: #0000ff; stroke: #0000ff"/>
     <use xlink:href="#m5fd174252b" x="164.641558" y="251.76" style="fill: #0000ff; stroke: #0000ff"/>
     <use xlink:href="#m5fd174252b" x="167.54026" y="318.96" style="fill: #0000ff; stroke: #0000ff"/>
     <use xlink:href="#m5fd174252b" x="170.438961" y="352.56" style="fill: #0000ff; stroke: #0000ff"/>
     <use xlink:href="#m5fd174252b" x="173.337662" y="318.96" style="fill: #0000ff; stroke: #0000ff"/>
     <use xlink:href="#m5fd174252b" x="176.236364" y="335.76" style="fill: #0000ff; stroke: #0000ff"/>
     <use xlink:href="#m5fd174252b" x="179.135065" y="285.36" style="fill: #0000ff; stroke: #0000ff"/>
     <use xlink:href="#m5fd174252b" x="182.033766" y="318.96" style="fill: #0000ff; stroke: #0000ff"/>
     <use xlink:href="#m5fd174252b" x="184.932468" y="318.96" style="fill: #0000ff; stroke: #0000ff"/>
     <use xlink:href="#m5fd174252b" x="187.831169" y="318.96" style="fill: #0000ff; stroke: #0000ff"/>
     <use xlink:href="#m5fd174252b" x="190.72987" y="352.56" style="fill: #0000ff; stroke: #0000ff"/>
     <use xlink:href="#m5fd174252b" x="193.628571" y="318.96" style="fill: #0000ff; stroke: #0000ff"/>
     <use xlink:href="#m5fd174252b" x="196.527273" y="285.36" style="fill: #0000ff; stroke: #0000ff"/>
     <use xlink:href="#m5fd174252b" x="199.425974" y="352.56" style="fill: #0000ff; stroke: #0000ff"/>
     <use xlink:href="#m5fd174252b" x="202.324675" y="352.56" style="fill: #0000ff; stroke: #0000ff"/>
     <use xlink:href="#m5fd174252b" x="205.223377" y="117.36" style="fill: #0000ff; stroke: #0000ff"/>
     <use xlink:href="#m5fd174252b" x="208.122078" y="352.56" style="fill: #0000ff; stroke: #0000ff"/>
     <use xlink:href="#m5fd174252b" x="213.919481" y="335.76" style="fill: #0000ff; stroke: #0000ff"/>
     <use xlink:href="#m5fd174252b" x="219.716883" y="318.96" style="fill: #0000ff; stroke: #0000ff"/>
     <use xlink:href="#m5fd174252b" x="222.615584" y="167.76" style="fill: #0000ff; stroke: #0000ff"/>
     <use xlink:href="#m5fd174252b" x="225.514286" y="335.76" style="fill: #0000ff; stroke: #0000ff"/>
     <use xlink:href="#m5fd174252b" x="228.412987" y="285.36" style="fill: #0000ff; stroke: #0000ff"/>
     <use xlink:href="#m5fd174252b" x="231.311688" y="318.96" style="fill: #0000ff; stroke: #0000ff"/>
     <use xlink:href="#m5fd174252b" x="234.21039" y="184.56" style="fill: #0000ff; stroke: #0000ff"/>
     <use xlink:href="#m5fd174252b" x="237.109091" y="285.36" style="fill: #0000ff; stroke: #0000ff"/>
     <use xlink:href="#m5fd174252b" x="240.007792" y="352.56" style="fill: #0000ff; stroke: #0000ff"/>
     <use xlink:href="#m5fd174252b" x="245.805195" y="234.96" style="fill: #0000ff; stroke: #0000ff"/>
     <use xlink:href="#m5fd174252b" x="248.703896" y="134.16" style="fill: #0000ff; stroke: #0000ff"/>
     <use xlink:href="#m5fd174252b" x="251.602597" y="335.76" style="fill: #0000ff; stroke: #0000ff"/>
     <use xlink:href="#m5fd174252b" x="254.501299" y="234.96" style="fill: #0000ff; stroke: #0000ff"/>
     <use xlink:href="#m5fd174252b" x="257.4" y="285.36" style="fill: #0000ff; stroke: #0000ff"/>
     <use xlink:href="#m5fd174252b" x="260.298701" y="285.36" style="fill: #0000ff; stroke: #0000ff"/>
     <use xlink:href="#m5fd174252b" x="263.197403" y="234.96" style="fill: #0000ff; stroke: #0000ff"/>
     <use xlink:href="#m5fd174252b" x="266.096104" y="251.76" style="fill: #0000ff; stroke: #0000ff"/>
     <use xlink:href="#m5fd174252b" x="268.994805" y="318.96" style="fill: #0000ff; stroke: #0000ff"/>
     <use xlink:href="#m5fd174252b" x="286.387013" y="251.76" style="fill: #0000ff; stroke: #0000ff"/>
     <use xlink:href="#m5fd174252b" x="289.285714" y="318.96" style="fill: #0000ff; stroke: #0000ff"/>
     <use xlink:href="#m5fd174252b" x="292.184416" y="302.16" style="fill: #0000ff; stroke: #0000ff"/>
     <use xlink:href="#m5fd174252b" x="295.083117" y="318.96" style="fill: #0000ff; stroke: #0000ff"/>
     <use xlink:href="#m5fd174252b" x="297.981818" y="369.36" style="fill: #0000ff; stroke: #0000ff"/>
     <use xlink:href="#m5fd174252b" x="300.880519" y="335.76" style="fill: #0000ff; stroke: #0000ff"/>
     <use xlink:href="#m5fd174252b" x="303.779221" y="369.36" style="fill: #0000ff; stroke: #0000ff"/>
     <use xlink:href="#m5fd174252b" x="306.677922" y="268.56" style="fill: #0000ff; stroke: #0000ff"/>
     <use xlink:href="#m5fd174252b" x="309.576623" y="318.96" style="fill: #0000ff; stroke: #0000ff"/>
     <use xlink:href="#m5fd174252b" x="312.475325" y="369.36" style="fill: #0000ff; stroke: #0000ff"/>
     <use xlink:href="#m5fd174252b" x="315.374026" y="285.36" style="fill: #0000ff; stroke: #0000ff"/>
     <use xlink:href="#m5fd174252b" x="318.272727" y="335.76" style="fill: #0000ff; stroke: #0000ff"/>
     <use xlink:href="#m5fd174252b" x="321.171429" y="369.36" style="fill: #0000ff; stroke: #0000ff"/>
     <use xlink:href="#m5fd174252b" x="324.07013" y="201.36" style="fill: #0000ff; stroke: #0000ff"/>
     <use xlink:href="#m5fd174252b" x="326.968831" y="369.36" style="fill: #0000ff; stroke: #0000ff"/>
     <use xlink:href="#m5fd174252b" x="329.867532" y="335.76" style="fill: #0000ff; stroke: #0000ff"/>
     <use xlink:href="#m5fd174252b" x="332.766234" y="285.36" style="fill: #0000ff; stroke: #0000ff"/>
     <use xlink:href="#m5fd174252b" x="335.664935" y="369.36" style="fill: #0000ff; stroke: #0000ff"/>
     <use xlink:href="#m5fd174252b" x="338.563636" y="335.76" style="fill: #0000ff; stroke: #0000ff"/>
     <use xlink:href="#m5fd174252b" x="344.361039" y="335.76" style="fill: #0000ff; stroke: #0000ff"/>
     <use xlink:href="#m5fd174252b" x="347.25974" y="352.56" style="fill: #0000ff; stroke: #0000ff"/>
     <use xlink:href="#m5fd174252b" x="350.158442" y="318.96" style="fill: #0000ff; stroke: #0000ff"/>
     <use xlink:href="#m5fd174252b" x="353.057143" y="352.56" style="fill: #0000ff; stroke: #0000ff"/>
     <use xlink:href="#m5fd174252b" x="355.955844" y="335.76" style="fill: #0000ff; stroke: #0000ff"/>
     <use xlink:href="#m5fd174252b" x="358.854545" y="167.76" style="fill: #0000ff; stroke: #0000ff"/>
     <use xlink:href="#m5fd174252b" x="361.753247" y="268.56" style="fill: #0000ff; stroke: #0000ff"/>
     <use xlink:href="#m5fd174252b" x="364.651948" y="218.16" style="fill: #0000ff; stroke: #0000ff"/>
     <use xlink:href="#m5fd174252b" x="367.550649" y="285.36" style="fill: #0000ff; stroke: #0000ff"/>
     <use xlink:href="#m5fd174252b" x="370.449351" y="134.16" style="fill: #0000ff; stroke: #0000ff"/>
     <use xlink:href="#m5fd174252b" x="373.348052" y="302.16" style="fill: #0000ff; stroke: #0000ff"/>
     <use xlink:href="#m5fd174252b" x="376.246753" y="302.16" style="fill: #0000ff; stroke: #0000ff"/>
     <use xlink:href="#m5fd174252b" x="379.145455" y="251.76" style="fill: #0000ff; stroke: #0000ff"/>
     <use xlink:href="#m5fd174252b" x="382.044156" y="302.16" style="fill: #0000ff; stroke: #0000ff"/>
     <use xlink:href="#m5fd174252b" x="387.841558" y="335.76" style="fill: #0000ff; stroke: #0000ff"/>
     <use xlink:href="#m5fd174252b" x="390.74026" y="352.56" style="fill: #0000ff; stroke: #0000ff"/>
     <use xlink:href="#m5fd174252b" x="393.638961" y="268.56" style="fill: #0000ff; stroke: #0000ff"/>
     <use xlink:href="#m5fd174252b" x="396.537662" y="318.96" style="fill: #0000ff; stroke: #0000ff"/>
     <use xlink:href="#m5fd174252b" x="399.436364" y="369.36" style="fill: #0000ff; stroke: #0000ff"/>
     <use xlink:href="#m5fd174252b" x="402.335065" y="335.76" style="fill: #0000ff; stroke: #0000ff"/>
     <use xlink:href="#m5fd174252b" x="405.233766" y="352.56" style="fill: #0000ff; stroke: #0000ff"/>
     <use xlink:href="#m5fd174252b" x="408.132468" y="352.56" style="fill: #0000ff; stroke: #0000ff"/>
     <use xlink:href="#m5fd174252b" x="411.031169" y="318.96" style="fill: #0000ff; stroke: #0000ff"/>
     <use xlink:href="#m5fd174252b" x="416.828571" y="352.56" style="fill: #0000ff; stroke: #0000ff"/>
     <use xlink:href="#m5fd174252b" x="419.727273" y="268.56" style="fill: #0000ff; stroke: #0000ff"/>
     <use xlink:href="#m5fd174252b" x="422.625974" y="318.96" style="fill: #0000ff; stroke: #0000ff"/>
     <use xlink:href="#m5fd174252b" x="425.524675" y="352.56" style="fill: #0000ff; stroke: #0000ff"/>
     <use xlink:href="#m5fd174252b" x="428.423377" y="335.76" style="fill: #0000ff; stroke: #0000ff"/>
     <use xlink:href="#m5fd174252b" x="437.119481" y="302.16" style="fill: #0000ff; stroke: #0000ff"/>
     <use xlink:href="#m5fd174252b" x="440.018182" y="335.76" style="fill: #0000ff; stroke: #0000ff"/>
     <use xlink:href="#m5fd174252b" x="442.916883" y="268.56" style="fill: #0000ff; stroke: #0000ff"/>
     <use xlink:href="#m5fd174252b" x="445.815584" y="302.16" style="fill: #0000ff; stroke: #0000ff"/>
     <use xlink:href="#m5fd174252b" x="448.714286" y="369.36" style="fill: #0000ff; stroke: #0000ff"/>
     <use xlink:href="#m5fd174252b" x="451.612987" y="251.76" style="fill: #0000ff; stroke: #0000ff"/>
     <use xlink:href="#m5fd174252b" x="454.511688" y="302.16" style="fill: #0000ff; stroke: #0000ff"/>
     <use xlink:href="#m5fd174252b" x="457.41039" y="335.76" style="fill: #0000ff; stroke: #0000ff"/>
     <use xlink:href="#m5fd174252b" x="460.309091" y="335.76" style="fill: #0000ff; stroke: #0000ff"/>
     <use xlink:href="#m5fd174252b" x="463.207792" y="369.36" style="fill: #0000ff; stroke: #0000ff"/>
     <use xlink:href="#m5fd174252b" x="466.106494" y="335.76" style="fill: #0000ff; stroke: #0000ff"/>
     <use xlink:href="#m5fd174252b" x="469.005195" y="318.96" style="fill: #0000ff; stroke: #0000ff"/>
     <use xlink:href="#m5fd174252b" x="471.903896" y="352.56" style="fill: #0000ff; stroke: #0000ff"/>
     <use xlink:href="#m5fd174252b" x="474.802597" y="369.36" style="fill: #0000ff; stroke: #0000ff"/>
     <use xlink:href="#m5fd174252b" x="477.701299" y="369.36" style="fill: #0000ff; stroke: #0000ff"/>
     <use xlink:href="#m5fd174252b" x="483.498701" y="335.76" style="fill: #0000ff; stroke: #0000ff"/>
     <use xlink:href="#m5fd174252b" x="486.397403" y="352.56" style="fill: #0000ff; stroke: #0000ff"/>
     <use xlink:href="#m5fd174252b" x="489.296104" y="335.76" style="fill: #0000ff; stroke: #0000ff"/>
     <use xlink:href="#m5fd174252b" x="492.194805" y="335.76" style="fill: #0000ff; stroke: #0000ff"/>
     <use xlink:href="#m5fd174252b" x="497.992208" y="268.56" style="fill: #0000ff; stroke: #0000ff"/>
     <use xlink:href="#m5fd174252b" x="500.890909" y="369.36" style="fill: #0000ff; stroke: #0000ff"/>
     <use xlink:href="#m5fd174252b" x="503.78961" y="285.36" style="fill: #0000ff; stroke: #0000ff"/>
     <use xlink:href="#m5fd174252b" x="506.688312" y="285.36" style="fill: #0000ff; stroke: #0000ff"/>
     <use xlink:href="#m5fd174252b" x="509.587013" y="318.96" style="fill: #0000ff; stroke: #0000ff"/>
     <use xlink:href="#m5fd174252b" x="512.485714" y="218.16" style="fill: #0000ff; stroke: #0000ff"/>
     <use xlink:href="#m5fd174252b" x="515.384416" y="117.36" style="fill: #0000ff; stroke: #0000ff"/>
     <use xlink:href="#m5fd174252b" x="518.283117" y="234.96" style="fill: #0000ff; stroke: #0000ff"/>
     <use xlink:href="#m5fd174252b" x="521.181818" y="150.96" style="fill: #0000ff; stroke: #0000ff"/>
     <use xlink:href="#m5fd174252b" x="524.080519" y="201.36" style="fill: #0000ff; stroke: #0000ff"/>
     <use xlink:href="#m5fd174252b" x="526.979221" y="369.36" style="fill: #0000ff; stroke: #0000ff"/>
     <use xlink:href="#m5fd174252b" x="529.877922" y="167.76" style="fill: #0000ff; stroke: #0000ff"/>
     <use xlink:href="#m5fd174252b" x="532.776623" y="66.96" style="fill: #0000ff; stroke: #0000ff"/>
     <use xlink:href="#m5fd174252b" x="535.675325" y="184.56" style="fill: #0000ff; stroke: #0000ff"/>
     <use xlink:href="#m5fd174252b" x="538.574026" y="335.76" style="fill: #0000ff; stroke: #0000ff"/>
     <use xlink:href="#m5fd174252b" x="541.472727" y="268.56" style="fill: #0000ff; stroke: #0000ff"/>
     <use xlink:href="#m5fd174252b" x="544.371429" y="251.76" style="fill: #0000ff; stroke: #0000ff"/>
     <use xlink:href="#m5fd174252b" x="547.27013" y="335.76" style="fill: #0000ff; stroke: #0000ff"/>
     <use xlink:href="#m5fd174252b" x="550.168831" y="268.56" style="fill: #0000ff; stroke: #0000ff"/>
     <use xlink:href="#m5fd174252b" x="553.067532" y="234.96" style="fill: #0000ff; stroke: #0000ff"/>
     <use xlink:href="#m5fd174252b" x="555.966234" y="335.76" style="fill: #0000ff; stroke: #0000ff"/>
     <use xlink:href="#m5fd174252b" x="558.864935" y="285.36" style="fill: #0000ff; stroke: #0000ff"/>
     <use xlink:href="#m5fd174252b" x="564.662338" y="352.56" style="fill: #0000ff; stroke: #0000ff"/>
     <use xlink:href="#m5fd174252b" x="570.45974" y="369.36" style="fill: #0000ff; stroke: #0000ff"/>
     <use xlink:href="#m5fd174252b" x="573.358442" y="285.36" style="fill: #0000ff; stroke: #0000ff"/>
     <use xlink:href="#m5fd174252b" x="576.257143" y="369.36" style="fill: #0000ff; stroke: #0000ff"/>
     <use xlink:href="#m5fd174252b" x="584.953247" y="318.96" style="fill: #0000ff; stroke: #0000ff"/>
     <use xlink:href="#m5fd174252b" x="587.851948" y="318.96" style="fill: #0000ff; stroke: #0000ff"/>
     <use xlink:href="#m5fd174252b" x="590.750649" y="302.16" style="fill: #0000ff; stroke: #0000ff"/>
     <use xlink:href="#m5fd174252b" x="593.649351" y="318.96" style="fill: #0000ff; stroke: #0000ff"/>
     <use xlink:href="#m5fd174252b" x="599.446753" y="352.56" style="fill: #0000ff; stroke: #0000ff"/>
     <use xlink:href="#m5fd174252b" x="602.345455" y="352.56" style="fill: #0000ff; stroke: #0000ff"/>
     <use xlink:href="#m5fd174252b" x="605.244156" y="268.56" style="fill: #0000ff; stroke: #0000ff"/>
     <use xlink:href="#m5fd174252b" x="608.142857" y="352.56" style="fill: #0000ff; stroke: #0000ff"/>
     <use xlink:href="#m5fd174252b" x="611.041558" y="335.76" style="fill: #0000ff; stroke: #0000ff"/>
     <use xlink:href="#m5fd174252b" x="619.737662" y="369.36" style="fill: #0000ff; stroke: #0000ff"/>
     <use xlink:href="#m5fd174252b" x="622.636364" y="268.56" style="fill: #0000ff; stroke: #0000ff"/>
    </g>
   </g>
   <g id="patch_3">
    <path d="M 90 384.48 
L 90 51.84 
" style="fill: none; stroke: #000000; stroke-width: 0.8; stroke-linejoin: miter; stroke-linecap: square"/>
   </g>
   <g id="patch_4">
    <path d="M 648 384.48 
L 648 51.84 
" style="fill: none; stroke: #000000; stroke-width: 0.8; stroke-linejoin: miter; stroke-linecap: square"/>
   </g>
   <g id="patch_5">
    <path d="M 90 384.48 
L 648 384.48 
" style="fill: none; stroke: #000000; stroke-width: 0.8; stroke-linejoin: miter; stroke-linecap: square"/>
   </g>
   <g id="patch_6">
    <path d="M 90 51.84 
L 648 51.84 
" style="fill: none; stroke: #000000; stroke-width: 0.8; stroke-linejoin: miter; stroke-linecap: square"/>
   </g>
  </g>
  <g id="axes_2">
   <g id="matplotlib.axis_3">
    <g id="ytick_8">
     <g id="line2d_17">
      <defs>
       <path id="mc8be1a1490" d="M 0 0 
L 3.5 0 
" style="stroke: #000000; stroke-width: 0.8"/>
      </defs>
      <g>
       <use xlink:href="#mc8be1a1490" x="648" y="332.060129" style="stroke: #000000; stroke-width: 0.8"/>
      </g>
     </g>
     <g id="text_18">
      <!-- 1000 -->
      <g style="fill: #008000" transform="translate(655 335.497629) scale(0.1 -0.1)">
       <use xlink:href="#SimHei-31"/>
       <use xlink:href="#SimHei-30" x="50"/>
       <use xlink:href="#SimHei-30" x="100"/>
       <use xlink:href="#SimHei-30" x="150"/>
      </g>
     </g>
    </g>
    <g id="ytick_9">
     <g id="line2d_18">
      <g>
       <use xlink:href="#mc8be1a1490" x="648" y="278.059477" style="stroke: #000000; stroke-width: 0.8"/>
      </g>
     </g>
     <g id="text_19">
      <!-- 2000 -->
      <g style="fill: #008000" transform="translate(655 281.496977) scale(0.1 -0.1)">
       <use xlink:href="#SimHei-32"/>
       <use xlink:href="#SimHei-30" x="50"/>
       <use xlink:href="#SimHei-30" x="100"/>
       <use xlink:href="#SimHei-30" x="150"/>
      </g>
     </g>
    </g>
    <g id="ytick_10">
     <g id="line2d_19">
      <g>
       <use xlink:href="#mc8be1a1490" x="648" y="224.058824" style="stroke: #000000; stroke-width: 0.8"/>
      </g>
     </g>
     <g id="text_20">
      <!-- 3000 -->
      <g style="fill: #008000" transform="translate(655 227.496324) scale(0.1 -0.1)">
       <defs>
        <path id="SimHei-33" d="M 250 1225 
L 700 1300 
Q 800 975 1025 762 
Q 1250 550 1587 562 
Q 1925 575 2125 837 
Q 2325 1100 2300 1437 
Q 2275 1775 2037 1962 
Q 1800 2150 1275 2225 
L 1275 2550 
Q 1800 2600 2037 2825 
Q 2275 3050 2250 3412 
Q 2225 3775 1925 3937 
Q 1625 4100 1287 3975 
Q 950 3850 750 3275 
L 300 3350 
Q 450 3800 712 4100 
Q 975 4400 1425 4450 
Q 1875 4500 2212 4337 
Q 2550 4175 2687 3837 
Q 2825 3500 2725 3100 
Q 2625 2700 2150 2400 
Q 2500 2250 2687 1950 
Q 2875 1650 2812 1162 
Q 2750 675 2375 375 
Q 2000 75 1525 87 
Q 1050 100 700 387 
Q 350 675 250 1225 
z
" transform="scale(0.015625)"/>
       </defs>
       <use xlink:href="#SimHei-33"/>
       <use xlink:href="#SimHei-30" x="50"/>
       <use xlink:href="#SimHei-30" x="100"/>
       <use xlink:href="#SimHei-30" x="150"/>
      </g>
     </g>
    </g>
    <g id="ytick_11">
     <g id="line2d_20">
      <g>
       <use xlink:href="#mc8be1a1490" x="648" y="170.058171" style="stroke: #000000; stroke-width: 0.8"/>
      </g>
     </g>
     <g id="text_21">
      <!-- 4000 -->
      <g style="fill: #008000" transform="translate(655 173.495671) scale(0.1 -0.1)">
       <defs>
        <path id="SimHei-34" d="M 2000 1100 
L 75 1100 
L 75 1525 
L 2100 4450 
L 2475 4450 
L 2475 1525 
L 3075 1525 
L 3075 1100 
L 2475 1100 
L 2475 150 
L 2000 150 
L 2000 1100 
z
M 2000 1525 
L 2000 3500 
L 600 1525 
L 2000 1525 
z
" transform="scale(0.015625)"/>
       </defs>
       <use xlink:href="#SimHei-34"/>
       <use xlink:href="#SimHei-30" x="50"/>
       <use xlink:href="#SimHei-30" x="100"/>
       <use xlink:href="#SimHei-30" x="150"/>
      </g>
     </g>
    </g>
    <g id="ytick_12">
     <g id="line2d_21">
      <g>
       <use xlink:href="#mc8be1a1490" x="648" y="116.057518" style="stroke: #000000; stroke-width: 0.8"/>
      </g>
     </g>
     <g id="text_22">
      <!-- 5000 -->
      <g style="fill: #008000" transform="translate(655 119.495018) scale(0.1 -0.1)">
       <use xlink:href="#SimHei-35"/>
       <use xlink:href="#SimHei-30" x="50"/>
       <use xlink:href="#SimHei-30" x="100"/>
       <use xlink:href="#SimHei-30" x="150"/>
      </g>
     </g>
    </g>
    <g id="ytick_13">
     <g id="line2d_22">
      <g>
       <use xlink:href="#mc8be1a1490" x="648" y="62.056866" style="stroke: #000000; stroke-width: 0.8"/>
      </g>
     </g>
     <g id="text_23">
      <!-- 6000 -->
      <g style="fill: #008000" transform="translate(655 65.494366) scale(0.1 -0.1)">
       <defs>
        <path id="SimHei-36" d="M 250 1612 
Q 275 1975 387 2225 
Q 500 2475 725 2850 
L 1750 4450 
L 2325 4450 
L 1275 2800 
Q 1950 2975 2350 2750 
Q 2750 2525 2887 2237 
Q 3025 1950 3037 1612 
Q 3050 1275 2937 950 
Q 2825 625 2537 362 
Q 2250 100 1737 75 
Q 1225 50 862 262 
Q 500 475 362 862 
Q 225 1250 250 1612 
z
M 1025 787 
Q 1250 550 1625 525 
Q 2000 500 2250 775 
Q 2500 1050 2500 1575 
Q 2500 2100 2187 2300 
Q 1875 2500 1487 2450 
Q 1100 2400 925 2075 
Q 750 1750 775 1387 
Q 800 1025 1025 787 
z
" transform="scale(0.015625)"/>
       </defs>
       <use xlink:href="#SimHei-36"/>
       <use xlink:href="#SimHei-30" x="50"/>
       <use xlink:href="#SimHei-30" x="100"/>
       <use xlink:href="#SimHei-30" x="150"/>
      </g>
     </g>
    </g>
    <g id="text_24">
     <!-- 收益 -->
     <g style="fill: #008000" transform="translate(686.929688 228.16) rotate(-90) scale(0.1 -0.1)">
      <defs>
       <path id="SimHei-6536" d="M 4250 5050 
Q 4125 4850 3750 4050 
L 5150 4050 
Q 5675 4050 6125 4075 
L 6125 3600 
Q 5675 3625 5300 3625 
Q 5225 2625 5025 1975 
Q 4825 1325 4575 900 
Q 4900 500 5287 275 
Q 5675 50 6200 -75 
Q 5900 -275 5800 -550 
Q 5300 -350 4950 -100 
Q 4600 150 4275 525 
Q 3800 0 2775 -625 
Q 2650 -425 2300 -225 
Q 3275 150 3950 925 
Q 3775 1325 3612 1787 
Q 3450 2250 3250 3000 
Q 2975 2450 2825 2275 
Q 2650 2400 2425 2525 
Q 2775 3025 3137 3837 
Q 3500 4650 3625 5250 
Q 3925 5125 4250 5050 
z
M 975 4275 
Q 925 3950 925 3450 
L 925 1575 
L 1775 1725 
L 1775 4425 
Q 1775 4775 1750 5150 
L 2250 5150 
Q 2225 4850 2225 4450 
L 2225 300 
Q 2225 -50 2250 -550 
L 1750 -550 
Q 1775 -25 1775 350 
L 1775 1350 
Q 625 1050 500 925 
Q 375 1125 225 1350 
Q 450 1475 450 1800 
L 450 3575 
Q 450 3925 425 4275 
L 975 4275 
z
M 3725 3150 
Q 3800 2700 3962 2212 
Q 4125 1725 4300 1375 
Q 4725 2150 4825 3625 
L 3575 3625 
Q 3400 3275 3300 3100 
L 3725 3150 
z
" transform="scale(0.015625)"/>
       <path id="SimHei-76ca" d="M 2825 2925 
Q 2425 2775 2012 2487 
Q 1600 2200 1225 1975 
L 5275 1975 
Q 5250 1575 5250 1000 
L 5250 -50 
Q 5800 -50 6175 -25 
L 6175 -525 
Q 5725 -500 5250 -500 
L 1325 -500 
Q 700 -500 250 -525 
L 250 -25 
Q 600 -50 1175 -50 
L 1175 1050 
Q 1175 1575 1150 1925 
Q 1000 1800 800 1700 
Q 650 1950 425 2125 
Q 800 2275 1312 2600 
Q 1825 2925 2325 3400 
Q 2550 3150 2825 2925 
z
M 4725 5050 
Q 4575 4900 4462 4637 
Q 4350 4375 4175 4075 
L 4625 4075 
Q 5350 4075 5900 4100 
L 5900 3625 
Q 5350 3650 4625 3650 
L 1975 3650 
Q 1350 3650 550 3625 
L 550 4100 
Q 1175 4075 1975 4075 
L 3675 4075 
Q 3775 4300 3887 4625 
Q 4000 4950 4125 5250 
L 4725 5050 
z
M 3600 -50 
L 3600 1575 
L 2800 1575 
L 2800 -50 
L 3600 -50 
z
M 4800 -50 
L 4800 1575 
L 4025 1575 
L 4025 -50 
L 4800 -50 
z
M 2375 -50 
L 2375 1575 
L 1625 1575 
L 1625 -50 
L 2375 -50 
z
M 3900 3350 
Q 4375 3150 4900 2925 
Q 5425 2700 5900 2500 
Q 5700 2300 5550 2000 
Q 5025 2300 4512 2537 
Q 4000 2775 3625 2900 
Q 3750 3075 3900 3350 
z
M 2150 5250 
Q 2375 4925 2650 4350 
Q 2425 4275 2150 4125 
Q 1950 4650 1675 5025 
Q 1875 5100 2150 5250 
z
" transform="scale(0.015625)"/>
      </defs>
      <use xlink:href="#SimHei-6536"/>
      <use xlink:href="#SimHei-76ca" x="100"/>
     </g>
    </g>
   </g>
   <g id="line2d_23">
    <path d="M 115.363636 315.922574 
L 121.161039 368.52623 
L 132.755844 368.52623 
L 135.654545 333.457126 
L 138.553247 350.991678 
L 141.451948 350.991678 
L 144.350649 315.943904 
L 147.249351 368.54756 
L 153.046753 298.494887 
L 155.945455 351.034424 
L 158.844156 351.034424 
L 164.641558 245.956272 
L 167.54026 316.009295 
L 170.438961 351.035039 
L 173.337662 316.009295 
L 176.236364 333.522167 
L 179.135065 280.983552 
L 182.033766 316.009295 
L 184.932468 316.016175 
L 187.831169 316.134172 
L 190.72987 351.156475 
L 196.527273 281.347862 
L 199.425974 351.156475 
L 202.324675 351.156475 
L 205.223377 106.814703 
L 208.122078 351.1526 
L 219.716883 316.250493 
L 222.615584 159.183925 
L 225.514286 333.704584 
L 228.412987 281.348386 
L 231.311688 316.252518 
L 234.21039 177.84463 
L 237.109091 282.798754 
L 240.007792 351.640106 
L 245.805195 231.16528 
L 248.703896 128.220625 
L 251.602597 334.56684 
L 254.501299 231.597969 
L 257.4 281.884132 
L 260.298701 283.186986 
L 263.197403 231.750088 
L 266.096104 248.89572 
L 268.994805 317.493135 
L 286.387013 248.925487 
L 289.285714 317.493135 
L 292.184416 300.351223 
L 295.083117 317.493135 
L 297.981818 368.91887 
L 300.880519 333.608058 
L 303.779221 368.896134 
L 306.677922 263.671093 
L 312.475325 368.576541 
L 315.374026 281.180714 
L 318.272727 333.620748 
L 321.171429 368.580771 
L 324.07013 193.821158 
L 326.968831 368.588871 
L 329.867532 333.645048 
L 332.766234 281.257395 
L 335.664935 368.595891 
L 338.563636 333.666109 
L 344.361039 333.666109 
L 347.25974 351.142291 
L 350.158442 316.246382 
L 353.057143 351.153582 
L 355.955844 333.699982 
L 358.854545 159.117131 
L 361.753247 264.025944 
L 364.651948 212.040709 
L 367.550649 281.707734 
L 370.449351 125.915607 
L 373.348052 299.345724 
L 376.246753 299.345724 
L 379.145455 247.316689 
L 382.044156 299.345724 
L 390.74026 351.302679 
L 393.638961 264.410304 
L 399.436364 368.773822 
L 402.335065 334.461591 
L 405.233766 351.748551 
L 408.132468 351.617706 
L 411.031169 317.399226 
L 416.828571 351.750304 
L 419.727273 265.70831 
L 422.625974 317.325912 
L 425.524675 351.674361 
L 428.423377 334.520556 
L 437.119481 300.094731 
L 440.018182 334.727676 
L 442.916883 267.847358 
L 445.815584 302.091402 
L 448.714286 369.196771 
L 451.612987 252.083825 
L 454.511688 301.740729 
L 457.41039 335.567343 
L 460.309091 335.767518 
L 463.207792 369.246068 
L 466.106494 335.616639 
L 469.005195 318.87822 
L 471.903896 352.431353 
L 474.802597 369.322364 
L 477.701299 369.322364 
L 483.498701 335.845527 
L 486.397403 352.583945 
L 489.296104 335.845527 
L 492.194805 335.883163 
L 497.992208 269.080036 
L 500.890909 369.36 
L 503.78961 285.936079 
L 506.688312 285.78713 
L 509.587013 319.188693 
L 515.384416 118.572428 
L 518.283117 235.501257 
L 521.181818 151.473182 
L 524.080519 201.810826 
L 526.979221 369.3303 
L 529.877922 167.829902 
L 532.776623 66.96 
L 535.675325 184.515183 
L 538.574026 335.666533 
L 541.472727 268.474185 
L 544.371429 251.560786 
L 547.27013 335.597334 
L 550.168831 268.312737 
L 553.067532 234.670438 
L 555.966234 335.575194 
L 558.864935 285.001044 
L 564.662338 352.374203 
L 570.45974 369.217492 
L 573.358442 285.001044 
L 576.257143 369.217492 
L 584.953247 318.687624 
L 587.851948 318.687624 
L 590.750649 301.844334 
L 599.446753 352.374203 
L 602.345455 352.374203 
L 605.244156 267.642157 
L 608.142857 352.374203 
L 611.041558 335.144215 
L 619.737662 369.088593 
L 622.636364 267.255458 
L 622.636364 267.255458 
" clip-path="url(#pe53e34a62e)" style="fill: none; stroke: #008000; stroke-width: 1.5; stroke-linecap: square"/>
    <defs>
     <path id="m4affe2743b" d="M 0 3 
C 0.795609 3 1.55874 2.683901 2.12132 2.12132 
C 2.683901 1.55874 3 0.795609 3 0 
C 3 -0.795609 2.683901 -1.55874 2.12132 -2.12132 
C 1.55874 -2.683901 0.795609 -3 0 -3 
C -0.795609 -3 -1.55874 -2.683901 -2.12132 -2.12132 
C -2.683901 -1.55874 -3 -0.795609 -3 0 
C -3 0.795609 -2.683901 1.55874 -2.12132 2.12132 
C -1.55874 2.683901 -0.795609 3 0 3 
z
" style="stroke: #008000"/>
    </defs>
    <g clip-path="url(#pe53e34a62e)">
     <use xlink:href="#m4affe2743b" x="115.363636" y="315.922574" style="fill: #008000; stroke: #008000"/>
     <use xlink:href="#m4affe2743b" x="121.161039" y="368.52623" style="fill: #008000; stroke: #008000"/>
     <use xlink:href="#m4affe2743b" x="129.857143" y="368.52623" style="fill: #008000; stroke: #008000"/>
     <use xlink:href="#m4affe2743b" x="132.755844" y="368.52623" style="fill: #008000; stroke: #008000"/>
     <use xlink:href="#m4affe2743b" x="135.654545" y="333.457126" style="fill: #008000; stroke: #008000"/>
     <use xlink:href="#m4affe2743b" x="138.553247" y="350.991678" style="fill: #008000; stroke: #008000"/>
     <use xlink:href="#m4affe2743b" x="141.451948" y="350.991678" style="fill: #008000; stroke: #008000"/>
     <use xlink:href="#m4affe2743b" x="144.350649" y="315.943904" style="fill: #008000; stroke: #008000"/>
     <use xlink:href="#m4affe2743b" x="147.249351" y="368.54756" style="fill: #008000; stroke: #008000"/>
     <use xlink:href="#m4affe2743b" x="153.046753" y="298.494887" style="fill: #008000; stroke: #008000"/>
     <use xlink:href="#m4affe2743b" x="155.945455" y="351.034424" style="fill: #008000; stroke: #008000"/>
     <use xlink:href="#m4affe2743b" x="158.844156" y="351.034424" style="fill: #008000; stroke: #008000"/>
     <use xlink:href="#m4affe2743b" x="164.641558" y="245.956272" style="fill: #008000; stroke: #008000"/>
     <use xlink:href="#m4affe2743b" x="167.54026" y="316.009295" style="fill: #008000; stroke: #008000"/>
     <use xlink:href="#m4affe2743b" x="170.438961" y="351.035039" style="fill: #008000; stroke: #008000"/>
     <use xlink:href="#m4affe2743b" x="173.337662" y="316.009295" style="fill: #008000; stroke: #008000"/>
     <use xlink:href="#m4affe2743b" x="176.236364" y="333.522167" style="fill: #008000; stroke: #008000"/>
     <use xlink:href="#m4affe2743b" x="179.135065" y="280.983552" style="fill: #008000; stroke: #008000"/>
     <use xlink:href="#m4affe2743b" x="182.033766" y="316.009295" style="fill: #008000; stroke: #008000"/>
     <use xlink:href="#m4affe2743b" x="184.932468" y="316.016175" style="fill: #008000; stroke: #008000"/>
     <use xlink:href="#m4affe2743b" x="187.831169" y="316.134172" style="fill: #008000; stroke: #008000"/>
     <use xlink:href="#m4affe2743b" x="190.72987" y="351.156475" style="fill: #008000; stroke: #008000"/>
     <use xlink:href="#m4affe2743b" x="193.628571" y="316.252169" style="fill: #008000; stroke: #008000"/>
     <use xlink:href="#m4affe2743b" x="196.527273" y="281.347862" style="fill: #008000; stroke: #008000"/>
     <use xlink:href="#m4affe2743b" x="199.425974" y="351.156475" style="fill: #008000; stroke: #008000"/>
     <use xlink:href="#m4affe2743b" x="202.324675" y="351.156475" style="fill: #008000; stroke: #008000"/>
     <use xlink:href="#m4affe2743b" x="205.223377" y="106.814703" style="fill: #008000; stroke: #008000"/>
     <use xlink:href="#m4affe2743b" x="208.122078" y="351.1526" style="fill: #008000; stroke: #008000"/>
     <use xlink:href="#m4affe2743b" x="213.919481" y="333.698509" style="fill: #008000; stroke: #008000"/>
     <use xlink:href="#m4affe2743b" x="219.716883" y="316.250493" style="fill: #008000; stroke: #008000"/>
     <use xlink:href="#m4affe2743b" x="222.615584" y="159.183925" style="fill: #008000; stroke: #008000"/>
     <use xlink:href="#m4affe2743b" x="225.514286" y="333.704584" style="fill: #008000; stroke: #008000"/>
     <use xlink:href="#m4affe2743b" x="228.412987" y="281.348386" style="fill: #008000; stroke: #008000"/>
     <use xlink:href="#m4affe2743b" x="231.311688" y="316.252518" style="fill: #008000; stroke: #008000"/>
     <use xlink:href="#m4affe2743b" x="234.21039" y="177.84463" style="fill: #008000; stroke: #008000"/>
     <use xlink:href="#m4affe2743b" x="237.109091" y="282.798754" style="fill: #008000; stroke: #008000"/>
     <use xlink:href="#m4affe2743b" x="240.007792" y="351.640106" style="fill: #008000; stroke: #008000"/>
     <use xlink:href="#m4affe2743b" x="245.805195" y="231.16528" style="fill: #008000; stroke: #008000"/>
     <use xlink:href="#m4affe2743b" x="248.703896" y="128.220625" style="fill: #008000; stroke: #008000"/>
     <use xlink:href="#m4affe2743b" x="251.602597" y="334.56684" style="fill: #008000; stroke: #008000"/>
     <use xlink:href="#m4affe2743b" x="254.501299" y="231.597969" style="fill: #008000; stroke: #008000"/>
     <use xlink:href="#m4affe2743b" x="257.4" y="281.884132" style="fill: #008000; stroke: #008000"/>
     <use xlink:href="#m4affe2743b" x="260.298701" y="283.186986" style="fill: #008000; stroke: #008000"/>
     <use xlink:href="#m4affe2743b" x="263.197403" y="231.750088" style="fill: #008000; stroke: #008000"/>
     <use xlink:href="#m4affe2743b" x="266.096104" y="248.89572" style="fill: #008000; stroke: #008000"/>
     <use xlink:href="#m4affe2743b" x="268.994805" y="317.493135" style="fill: #008000; stroke: #008000"/>
     <use xlink:href="#m4affe2743b" x="286.387013" y="248.925487" style="fill: #008000; stroke: #008000"/>
     <use xlink:href="#m4affe2743b" x="289.285714" y="317.493135" style="fill: #008000; stroke: #008000"/>
     <use xlink:href="#m4affe2743b" x="292.184416" y="300.351223" style="fill: #008000; stroke: #008000"/>
     <use xlink:href="#m4affe2743b" x="295.083117" y="317.493135" style="fill: #008000; stroke: #008000"/>
     <use xlink:href="#m4affe2743b" x="297.981818" y="368.91887" style="fill: #008000; stroke: #008000"/>
     <use xlink:href="#m4affe2743b" x="300.880519" y="333.608058" style="fill: #008000; stroke: #008000"/>
     <use xlink:href="#m4affe2743b" x="303.779221" y="368.896134" style="fill: #008000; stroke: #008000"/>
     <use xlink:href="#m4affe2743b" x="306.677922" y="263.671093" style="fill: #008000; stroke: #008000"/>
     <use xlink:href="#m4affe2743b" x="309.576623" y="316.128047" style="fill: #008000; stroke: #008000"/>
     <use xlink:href="#m4affe2743b" x="312.475325" y="368.576541" style="fill: #008000; stroke: #008000"/>
     <use xlink:href="#m4affe2743b" x="315.374026" y="281.180714" style="fill: #008000; stroke: #008000"/>
     <use xlink:href="#m4affe2743b" x="318.272727" y="333.620748" style="fill: #008000; stroke: #008000"/>
     <use xlink:href="#m4affe2743b" x="321.171429" y="368.580771" style="fill: #008000; stroke: #008000"/>
     <use xlink:href="#m4affe2743b" x="324.07013" y="193.821158" style="fill: #008000; stroke: #008000"/>
     <use xlink:href="#m4affe2743b" x="326.968831" y="368.588871" style="fill: #008000; stroke: #008000"/>
     <use xlink:href="#m4affe2743b" x="329.867532" y="333.645048" style="fill: #008000; stroke: #008000"/>
     <use xlink:href="#m4affe2743b" x="332.766234" y="281.257395" style="fill: #008000; stroke: #008000"/>
     <use xlink:href="#m4affe2743b" x="335.664935" y="368.595891" style="fill: #008000; stroke: #008000"/>
     <use xlink:href="#m4affe2743b" x="338.563636" y="333.666109" style="fill: #008000; stroke: #008000"/>
     <use xlink:href="#m4affe2743b" x="344.361039" y="333.666109" style="fill: #008000; stroke: #008000"/>
     <use xlink:href="#m4affe2743b" x="347.25974" y="351.142291" style="fill: #008000; stroke: #008000"/>
     <use xlink:href="#m4affe2743b" x="350.158442" y="316.246382" style="fill: #008000; stroke: #008000"/>
     <use xlink:href="#m4affe2743b" x="353.057143" y="351.153582" style="fill: #008000; stroke: #008000"/>
     <use xlink:href="#m4affe2743b" x="355.955844" y="333.699982" style="fill: #008000; stroke: #008000"/>
     <use xlink:href="#m4affe2743b" x="358.854545" y="159.117131" style="fill: #008000; stroke: #008000"/>
     <use xlink:href="#m4affe2743b" x="361.753247" y="264.025944" style="fill: #008000; stroke: #008000"/>
     <use xlink:href="#m4affe2743b" x="364.651948" y="212.040709" style="fill: #008000; stroke: #008000"/>
     <use xlink:href="#m4affe2743b" x="367.550649" y="281.707734" style="fill: #008000; stroke: #008000"/>
     <use xlink:href="#m4affe2743b" x="370.449351" y="125.915607" style="fill: #008000; stroke: #008000"/>
     <use xlink:href="#m4affe2743b" x="373.348052" y="299.345724" style="fill: #008000; stroke: #008000"/>
     <use xlink:href="#m4affe2743b" x="376.246753" y="299.345724" style="fill: #008000; stroke: #008000"/>
     <use xlink:href="#m4affe2743b" x="379.145455" y="247.316689" style="fill: #008000; stroke: #008000"/>
     <use xlink:href="#m4affe2743b" x="382.044156" y="299.345724" style="fill: #008000; stroke: #008000"/>
     <use xlink:href="#m4affe2743b" x="387.841558" y="333.923627" style="fill: #008000; stroke: #008000"/>
     <use xlink:href="#m4affe2743b" x="390.74026" y="351.302679" style="fill: #008000; stroke: #008000"/>
     <use xlink:href="#m4affe2743b" x="393.638961" y="264.410304" style="fill: #008000; stroke: #008000"/>
     <use xlink:href="#m4affe2743b" x="396.537662" y="316.544575" style="fill: #008000; stroke: #008000"/>
     <use xlink:href="#m4affe2743b" x="399.436364" y="368.773822" style="fill: #008000; stroke: #008000"/>
     <use xlink:href="#m4affe2743b" x="402.335065" y="334.461591" style="fill: #008000; stroke: #008000"/>
     <use xlink:href="#m4affe2743b" x="405.233766" y="351.748551" style="fill: #008000; stroke: #008000"/>
     <use xlink:href="#m4affe2743b" x="408.132468" y="351.617706" style="fill: #008000; stroke: #008000"/>
     <use xlink:href="#m4affe2743b" x="411.031169" y="317.399226" style="fill: #008000; stroke: #008000"/>
     <use xlink:href="#m4affe2743b" x="416.828571" y="351.750304" style="fill: #008000; stroke: #008000"/>
     <use xlink:href="#m4affe2743b" x="419.727273" y="265.70831" style="fill: #008000; stroke: #008000"/>
     <use xlink:href="#m4affe2743b" x="422.625974" y="317.325912" style="fill: #008000; stroke: #008000"/>
     <use xlink:href="#m4affe2743b" x="425.524675" y="351.674361" style="fill: #008000; stroke: #008000"/>
     <use xlink:href="#m4affe2743b" x="428.423377" y="334.520556" style="fill: #008000; stroke: #008000"/>
     <use xlink:href="#m4affe2743b" x="437.119481" y="300.094731" style="fill: #008000; stroke: #008000"/>
     <use xlink:href="#m4affe2743b" x="440.018182" y="334.727676" style="fill: #008000; stroke: #008000"/>
     <use xlink:href="#m4affe2743b" x="442.916883" y="267.847358" style="fill: #008000; stroke: #008000"/>
     <use xlink:href="#m4affe2743b" x="445.815584" y="302.091402" style="fill: #008000; stroke: #008000"/>
     <use xlink:href="#m4affe2743b" x="448.714286" y="369.196771" style="fill: #008000; stroke: #008000"/>
     <use xlink:href="#m4affe2743b" x="451.612987" y="252.083825" style="fill: #008000; stroke: #008000"/>
     <use xlink:href="#m4affe2743b" x="454.511688" y="301.740729" style="fill: #008000; stroke: #008000"/>
     <use xlink:href="#m4affe2743b" x="457.41039" y="335.567343" style="fill: #008000; stroke: #008000"/>
     <use xlink:href="#m4affe2743b" x="460.309091" y="335.767518" style="fill: #008000; stroke: #008000"/>
     <use xlink:href="#m4affe2743b" x="463.207792" y="369.246068" style="fill: #008000; stroke: #008000"/>
     <use xlink:href="#m4affe2743b" x="466.106494" y="335.616639" style="fill: #008000; stroke: #008000"/>
     <use xlink:href="#m4affe2743b" x="469.005195" y="318.87822" style="fill: #008000; stroke: #008000"/>
     <use xlink:href="#m4affe2743b" x="471.903896" y="352.431353" style="fill: #008000; stroke: #008000"/>
     <use xlink:href="#m4affe2743b" x="474.802597" y="369.322364" style="fill: #008000; stroke: #008000"/>
     <use xlink:href="#m4affe2743b" x="477.701299" y="369.322364" style="fill: #008000; stroke: #008000"/>
     <use xlink:href="#m4affe2743b" x="483.498701" y="335.845527" style="fill: #008000; stroke: #008000"/>
     <use xlink:href="#m4affe2743b" x="486.397403" y="352.583945" style="fill: #008000; stroke: #008000"/>
     <use xlink:href="#m4affe2743b" x="489.296104" y="335.845527" style="fill: #008000; stroke: #008000"/>
     <use xlink:href="#m4affe2743b" x="492.194805" y="335.883163" style="fill: #008000; stroke: #008000"/>
     <use xlink:href="#m4affe2743b" x="497.992208" y="269.080036" style="fill: #008000; stroke: #008000"/>
     <use xlink:href="#m4affe2743b" x="500.890909" y="369.36" style="fill: #008000; stroke: #008000"/>
     <use xlink:href="#m4affe2743b" x="503.78961" y="285.936079" style="fill: #008000; stroke: #008000"/>
     <use xlink:href="#m4affe2743b" x="506.688312" y="285.78713" style="fill: #008000; stroke: #008000"/>
     <use xlink:href="#m4affe2743b" x="509.587013" y="319.188693" style="fill: #008000; stroke: #008000"/>
     <use xlink:href="#m4affe2743b" x="512.485714" y="218.915041" style="fill: #008000; stroke: #008000"/>
     <use xlink:href="#m4affe2743b" x="515.384416" y="118.572428" style="fill: #008000; stroke: #008000"/>
     <use xlink:href="#m4affe2743b" x="518.283117" y="235.501257" style="fill: #008000; stroke: #008000"/>
     <use xlink:href="#m4affe2743b" x="521.181818" y="151.473182" style="fill: #008000; stroke: #008000"/>
     <use xlink:href="#m4affe2743b" x="524.080519" y="201.810826" style="fill: #008000; stroke: #008000"/>
     <use xlink:href="#m4affe2743b" x="526.979221" y="369.3303" style="fill: #008000; stroke: #008000"/>
     <use xlink:href="#m4affe2743b" x="529.877922" y="167.829902" style="fill: #008000; stroke: #008000"/>
     <use xlink:href="#m4affe2743b" x="532.776623" y="66.96" style="fill: #008000; stroke: #008000"/>
     <use xlink:href="#m4affe2743b" x="535.675325" y="184.515183" style="fill: #008000; stroke: #008000"/>
     <use xlink:href="#m4affe2743b" x="538.574026" y="335.666533" style="fill: #008000; stroke: #008000"/>
     <use xlink:href="#m4affe2743b" x="541.472727" y="268.474185" style="fill: #008000; stroke: #008000"/>
     <use xlink:href="#m4affe2743b" x="544.371429" y="251.560786" style="fill: #008000; stroke: #008000"/>
     <use xlink:href="#m4affe2743b" x="547.27013" y="335.597334" style="fill: #008000; stroke: #008000"/>
     <use xlink:href="#m4affe2743b" x="550.168831" y="268.312737" style="fill: #008000; stroke: #008000"/>
     <use xlink:href="#m4affe2743b" x="553.067532" y="234.670438" style="fill: #008000; stroke: #008000"/>
     <use xlink:href="#m4affe2743b" x="555.966234" y="335.575194" style="fill: #008000; stroke: #008000"/>
     <use xlink:href="#m4affe2743b" x="558.864935" y="285.001044" style="fill: #008000; stroke: #008000"/>
     <use xlink:href="#m4affe2743b" x="564.662338" y="352.374203" style="fill: #008000; stroke: #008000"/>
     <use xlink:href="#m4affe2743b" x="570.45974" y="369.217492" style="fill: #008000; stroke: #008000"/>
     <use xlink:href="#m4affe2743b" x="573.358442" y="285.001044" style="fill: #008000; stroke: #008000"/>
     <use xlink:href="#m4affe2743b" x="576.257143" y="369.217492" style="fill: #008000; stroke: #008000"/>
     <use xlink:href="#m4affe2743b" x="584.953247" y="318.687624" style="fill: #008000; stroke: #008000"/>
     <use xlink:href="#m4affe2743b" x="587.851948" y="318.687624" style="fill: #008000; stroke: #008000"/>
     <use xlink:href="#m4affe2743b" x="590.750649" y="301.844334" style="fill: #008000; stroke: #008000"/>
     <use xlink:href="#m4affe2743b" x="593.649351" y="318.687624" style="fill: #008000; stroke: #008000"/>
     <use xlink:href="#m4affe2743b" x="599.446753" y="352.374203" style="fill: #008000; stroke: #008000"/>
     <use xlink:href="#m4affe2743b" x="602.345455" y="352.374203" style="fill: #008000; stroke: #008000"/>
     <use xlink:href="#m4affe2743b" x="605.244156" y="267.642157" style="fill: #008000; stroke: #008000"/>
     <use xlink:href="#m4affe2743b" x="608.142857" y="352.374203" style="fill: #008000; stroke: #008000"/>
     <use xlink:href="#m4affe2743b" x="611.041558" y="335.144215" style="fill: #008000; stroke: #008000"/>
     <use xlink:href="#m4affe2743b" x="619.737662" y="369.088593" style="fill: #008000; stroke: #008000"/>
     <use xlink:href="#m4affe2743b" x="622.636364" y="267.255458" style="fill: #008000; stroke: #008000"/>
    </g>
   </g>
   <g id="patch_7">
    <path d="M 90 384.48 
L 90 51.84 
" style="fill: none; stroke: #000000; stroke-width: 0.8; stroke-linejoin: miter; stroke-linecap: square"/>
   </g>
   <g id="patch_8">
    <path d="M 648 384.48 
L 648 51.84 
" style="fill: none; stroke: #000000; stroke-width: 0.8; stroke-linejoin: miter; stroke-linecap: square"/>
   </g>
   <g id="patch_9">
    <path d="M 90 384.48 
L 648 384.48 
" style="fill: none; stroke: #000000; stroke-width: 0.8; stroke-linejoin: miter; stroke-linecap: square"/>
   </g>
   <g id="patch_10">
    <path d="M 90 51.84 
L 648 51.84 
" style="fill: none; stroke: #000000; stroke-width: 0.8; stroke-linejoin: miter; stroke-linecap: square"/>
   </g>
  </g>
  <g id="axes_3">
   <g id="matplotlib.axis_4">
    <g id="ytick_14">
     <g id="line2d_24">
      <g>
       <use xlink:href="#mc8be1a1490" x="708" y="350.528545" style="stroke: #000000; stroke-width: 0.8"/>
      </g>
     </g>
     <g id="text_25">
      <!-- 310 -->
      <g style="fill: #ff0000" transform="translate(715 353.966045) scale(0.1 -0.1)">
       <use xlink:href="#SimHei-33"/>
       <use xlink:href="#SimHei-31" x="50"/>
       <use xlink:href="#SimHei-30" x="100"/>
      </g>
     </g>
    </g>
    <g id="ytick_15">
     <g id="line2d_25">
      <g>
       <use xlink:href="#mc8be1a1490" x="708" y="311.974018" style="stroke: #000000; stroke-width: 0.8"/>
      </g>
     </g>
     <g id="text_26">
      <!-- 312 -->
      <g style="fill: #ff0000" transform="translate(715 315.411518) scale(0.1 -0.1)">
       <use xlink:href="#SimHei-33"/>
       <use xlink:href="#SimHei-31" x="50"/>
       <use xlink:href="#SimHei-32" x="100"/>
      </g>
     </g>
    </g>
    <g id="ytick_16">
     <g id="line2d_26">
      <g>
       <use xlink:href="#mc8be1a1490" x="708" y="273.419491" style="stroke: #000000; stroke-width: 0.8"/>
      </g>
     </g>
     <g id="text_27">
      <!-- 314 -->
      <g style="fill: #ff0000" transform="translate(715 276.856991) scale(0.1 -0.1)">
       <use xlink:href="#SimHei-33"/>
       <use xlink:href="#SimHei-31" x="50"/>
       <use xlink:href="#SimHei-34" x="100"/>
      </g>
     </g>
    </g>
    <g id="ytick_17">
     <g id="line2d_27">
      <g>
       <use xlink:href="#mc8be1a1490" x="708" y="234.864964" style="stroke: #000000; stroke-width: 0.8"/>
      </g>
     </g>
     <g id="text_28">
      <!-- 316 -->
      <g style="fill: #ff0000" transform="translate(715 238.302464) scale(0.1 -0.1)">
       <use xlink:href="#SimHei-33"/>
       <use xlink:href="#SimHei-31" x="50"/>
       <use xlink:href="#SimHei-36" x="100"/>
      </g>
     </g>
    </g>
    <g id="ytick_18">
     <g id="line2d_28">
      <g>
       <use xlink:href="#mc8be1a1490" x="708" y="196.310438" style="stroke: #000000; stroke-width: 0.8"/>
      </g>
     </g>
     <g id="text_29">
      <!-- 318 -->
      <g style="fill: #ff0000" transform="translate(715 199.747938) scale(0.1 -0.1)">
       <defs>
        <path id="SimHei-38" d="M 175 1375 
Q 175 1675 325 1962 
Q 475 2250 825 2425 
Q 525 2600 425 2812 
Q 325 3025 312 3300 
Q 300 3575 387 3775 
Q 475 3975 650 4150 
Q 825 4325 1037 4387 
Q 1250 4450 1500 4450 
Q 1750 4450 1950 4400 
Q 2150 4350 2375 4187 
Q 2600 4025 2700 3725 
Q 2800 3425 2687 3025 
Q 2575 2625 2100 2400 
Q 2525 2275 2700 2012 
Q 2875 1750 2875 1375 
Q 2875 1000 2762 775 
Q 2650 550 2512 400 
Q 2375 250 2137 162 
Q 1900 75 1537 75 
Q 1175 75 912 162 
Q 650 250 475 425 
Q 300 600 237 837 
Q 175 1075 175 1375 
z
M 687 1400 
Q 675 1100 787 875 
Q 900 650 1200 587 
Q 1500 525 1825 600 
Q 2150 675 2275 950 
Q 2400 1225 2362 1500 
Q 2325 1775 2050 1962 
Q 1775 2150 1450 2125 
Q 1125 2100 912 1900 
Q 700 1700 687 1400 
z
M 775 3350 
Q 775 3100 950 2875 
Q 1125 2650 1500 2650 
Q 1875 2650 2062 2875 
Q 2250 3100 2237 3412 
Q 2225 3725 2012 3875 
Q 1800 4025 1437 4000 
Q 1075 3975 925 3787 
Q 775 3600 775 3350 
z
" transform="scale(0.015625)"/>
       </defs>
       <use xlink:href="#SimHei-33"/>
       <use xlink:href="#SimHei-31" x="50"/>
       <use xlink:href="#SimHei-38" x="100"/>
      </g>
     </g>
    </g>
    <g id="ytick_19">
     <g id="line2d_29">
      <g>
       <use xlink:href="#mc8be1a1490" x="708" y="157.755911" style="stroke: #000000; stroke-width: 0.8"/>
      </g>
     </g>
     <g id="text_30">
      <!-- 320 -->
      <g style="fill: #ff0000" transform="translate(715 161.193411) scale(0.1 -0.1)">
       <use xlink:href="#SimHei-33"/>
       <use xlink:href="#SimHei-32" x="50"/>
       <use xlink:href="#SimHei-30" x="100"/>
      </g>
     </g>
    </g>
    <g id="ytick_20">
     <g id="line2d_30">
      <g>
       <use xlink:href="#mc8be1a1490" x="708" y="119.201384" style="stroke: #000000; stroke-width: 0.8"/>
      </g>
     </g>
     <g id="text_31">
      <!-- 322 -->
      <g style="fill: #ff0000" transform="translate(715 122.638884) scale(0.1 -0.1)">
       <use xlink:href="#SimHei-33"/>
       <use xlink:href="#SimHei-32" x="50"/>
       <use xlink:href="#SimHei-32" x="100"/>
      </g>
     </g>
    </g>
    <g id="ytick_21">
     <g id="line2d_31">
      <g>
       <use xlink:href="#mc8be1a1490" x="708" y="80.646857" style="stroke: #000000; stroke-width: 0.8"/>
      </g>
     </g>
     <g id="text_32">
      <!-- 324 -->
      <g style="fill: #ff0000" transform="translate(715 84.084357) scale(0.1 -0.1)">
       <use xlink:href="#SimHei-33"/>
       <use xlink:href="#SimHei-32" x="50"/>
       <use xlink:href="#SimHei-34" x="100"/>
      </g>
     </g>
    </g>
    <g id="text_33">
     <!-- 平均单价 -->
     <g style="fill: #ff0000" transform="translate(742.007812 238.16) rotate(-90) scale(0.1 -0.1)">
      <defs>
       <path id="SimHei-5e73" d="M 4525 4825 
Q 4900 4825 5450 4850 
L 5450 4375 
Q 4925 4400 4525 4400 
L 3475 4400 
L 3475 2025 
L 5000 2025 
Q 5550 2025 6025 2050 
L 6025 1575 
Q 5550 1600 5000 1600 
L 3475 1600 
L 3475 450 
Q 3475 -100 3500 -600 
L 2925 -600 
Q 2950 -100 2950 450 
L 2950 1600 
L 1125 1600 
Q 775 1600 375 1575 
L 375 2050 
Q 775 2025 1175 2025 
L 2950 2025 
L 2950 4400 
L 1775 4400 
Q 1400 4400 875 4375 
L 875 4850 
Q 1400 4825 1750 4825 
L 4525 4825 
z
M 3925 2600 
Q 4500 3300 4900 4125 
Q 5150 3950 5400 3825 
Q 4775 2850 4350 2300 
Q 4150 2475 3925 2600 
z
M 1975 2350 
Q 1600 3100 1050 3725 
Q 1250 3875 1450 4050 
Q 2075 3300 2450 2725 
Q 2150 2500 1975 2350 
z
" transform="scale(0.015625)"/>
       <path id="SimHei-5747" d="M 5775 275 
Q 5775 -325 5362 -450 
Q 4950 -575 4425 -600 
Q 4375 -275 4250 25 
Q 4950 -25 5125 62 
Q 5300 150 5300 500 
L 5375 3700 
L 3550 3700 
Q 3425 3375 3262 3037 
Q 3100 2700 2925 2400 
Q 2675 2550 2475 2625 
Q 3150 3625 3500 5200 
Q 3800 5100 4075 5025 
Q 3975 4875 3875 4650 
Q 3775 4425 3675 4125 
L 5900 4125 
L 5775 275 
z
M 1250 3625 
L 1250 4375 
Q 1250 4775 1225 5100 
L 1775 5100 
Q 1750 4725 1750 4375 
L 1750 3625 
L 1900 3625 
Q 2200 3625 2525 3650 
L 2525 3150 
Q 2200 3175 1900 3175 
L 1750 3175 
L 1750 1100 
L 2500 1375 
Q 2475 1125 2525 900 
Q 1225 475 962 362 
Q 700 250 475 150 
Q 375 475 250 750 
Q 575 800 800 850 
Q 1025 900 1250 975 
L 1250 3175 
L 1125 3175 
Q 850 3175 400 3150 
L 400 3650 
Q 850 3625 1100 3625 
L 1250 3625 
z
M 4950 1625 
Q 4675 1425 4137 1050 
Q 3600 675 3175 300 
Q 3000 575 2850 775 
Q 3350 1050 3762 1325 
Q 4175 1600 4775 2075 
Q 4825 1850 4950 1625 
z
M 3775 3150 
Q 4125 2800 4475 2300 
Q 4250 2125 4100 1975 
Q 3900 2325 3450 2825 
Q 3600 3000 3775 3150 
z
" transform="scale(0.015625)"/>
       <path id="SimHei-5355" d="M 5275 4075 
L 5275 1525 
L 3400 1525 
L 3400 925 
L 5050 925 
Q 5600 925 6000 950 
L 6000 450 
Q 5575 475 5050 475 
L 3400 475 
Q 3400 -300 3425 -625 
L 2875 -625 
Q 2925 -300 2925 475 
L 1300 475 
Q 700 475 425 450 
L 425 950 
Q 675 925 1250 925 
L 2925 925 
L 2925 1525 
L 1125 1525 
Q 1150 1950 1150 2750 
Q 1150 3550 1125 4075 
L 3600 4075 
Q 3875 4650 4075 5250 
Q 4325 5125 4650 4975 
Q 4550 4850 4400 4587 
Q 4250 4325 4100 4075 
L 5275 4075 
z
M 4775 1925 
L 4775 2600 
L 3400 2600 
L 3400 1925 
L 4775 1925 
z
M 4775 3000 
L 4775 3650 
L 3400 3650 
L 3400 3000 
L 4775 3000 
z
M 2925 1925 
L 2925 2600 
L 1625 2600 
L 1625 1925 
L 2925 1925 
z
M 2925 3000 
L 2925 3650 
L 1625 3650 
L 1625 3000 
L 2925 3000 
z
M 2100 5225 
Q 2350 4950 2675 4350 
Q 2400 4225 2225 4125 
Q 1975 4675 1725 4975 
Q 1900 5075 2100 5225 
z
" transform="scale(0.015625)"/>
       <path id="SimHei-4ef7" d="M 2200 4975 
Q 2050 4725 1650 3775 
L 1650 450 
Q 1650 -225 1675 -650 
L 1175 -650 
Q 1175 -225 1200 450 
L 1200 2975 
Q 900 2425 650 2100 
Q 525 2275 225 2450 
Q 750 3025 1125 3800 
Q 1500 4575 1625 5175 
Q 1950 5025 2200 4975 
z
M 4175 4700 
Q 4850 3525 6150 2950 
Q 5925 2750 5775 2500 
Q 4725 3100 3950 4300 
Q 3300 3125 2250 2350 
Q 2125 2525 1900 2725 
Q 2825 3325 3250 4050 
Q 3675 4775 3750 5150 
Q 4150 4950 4325 4900 
L 4175 4700 
z
M 3475 2650 
Q 3400 2075 3325 1087 
Q 3250 100 2325 -675 
Q 2175 -450 1925 -300 
Q 2850 350 2912 1262 
Q 2975 2175 2950 2700 
Q 3275 2650 3475 2650 
z
M 5075 2700 
Q 5050 2150 5050 1725 
L 5050 150 
Q 5050 -225 5075 -650 
L 4550 -650 
Q 4575 -225 4575 175 
L 4575 1875 
Q 4575 2150 4550 2700 
L 5075 2700 
z
" transform="scale(0.015625)"/>
      </defs>
      <use xlink:href="#SimHei-5e73"/>
      <use xlink:href="#SimHei-5747" x="100"/>
      <use xlink:href="#SimHei-5355" x="200"/>
      <use xlink:href="#SimHei-4ef7" x="300"/>
     </g>
    </g>
   </g>
   <g id="line2d_32">
    <path d="M 115.363636 66.96 
L 141.451948 66.96 
L 144.350649 68.86363 
L 147.249351 74.574519 
L 182.033766 74.699464 
L 184.932468 75.313481 
L 190.72987 96.374836 
L 202.324675 96.374836 
L 205.223377 96.115443 
L 208.122078 95.683123 
L 213.919481 95.683123 
L 222.615584 96.40602 
L 231.311688 96.40602 
L 234.21039 132.36124 
L 237.109091 182.698548 
L 245.805195 182.600971 
L 248.703896 190.193119 
L 251.602597 199.009254 
L 254.501299 199.763469 
L 257.4 128.281316 
L 260.298701 205.797188 
L 266.096104 205.797188 
L 268.994805 207.125477 
L 297.981818 207.125477 
L 300.880519 84.919984 
L 303.779221 199.009254 
L 306.677922 84.919984 
L 309.576623 85.297497 
L 312.475325 84.919984 
L 315.374026 86.430036 
L 321.171429 86.430036 
L 324.07013 87.744395 
L 326.968831 89.321626 
L 329.867532 89.321626 
L 332.766234 90.992322 
L 335.664935 91.82767 
L 344.361039 91.82767 
L 350.158442 95.85837 
L 355.955844 95.85837 
L 358.854545 94.571845 
L 361.753247 103.016501 
L 364.651948 114.276043 
L 367.550649 117.786111 
L 370.449351 135.336453 
L 382.044156 135.336453 
L 387.841558 122.470808 
L 390.74026 122.470808 
L 393.638961 122.617859 
L 396.537662 122.470808 
L 399.436364 155.345792 
L 402.335065 186.485305 
L 405.233766 202.055062 
L 408.132468 178.700427 
L 411.031169 198.744511 
L 416.828571 202.367947 
L 419.727273 188.812858 
L 422.625974 192.20163 
L 425.524675 188.812858 
L 428.423377 193.50175 
L 437.119481 188.812858 
L 440.018182 218.147839 
L 442.916883 297.898812 
L 445.815584 331.368018 
L 448.714286 306.331216 
L 451.612987 348.059219 
L 454.511688 306.331216 
L 457.41039 318.063128 
L 460.309091 341.882821 
L 463.207792 323.929084 
L 466.106494 323.929084 
L 469.005195 330.738167 
L 471.903896 323.929084 
L 474.802597 351.165414 
L 489.296104 351.165414 
L 492.194805 355.643914 
L 497.992208 360.7622 
L 500.890909 364.600915 
L 503.78961 369.36 
L 506.688312 360.497963 
L 509.587013 358.446488 
L 512.485714 359.677373 
L 515.384416 358.446488 
L 518.283117 354.586103 
L 521.181818 344.797272 
L 524.080519 347.032389 
L 526.979221 353.998452 
L 529.877922 333.825916 
L 532.776623 331.046017 
L 535.675325 330.800214 
L 538.574026 329.866165 
L 541.472727 329.865352 
L 544.371429 324.719766 
L 547.27013 321.631927 
L 553.067532 321.631927 
L 555.966234 318.997368 
L 558.864935 313.728249 
L 602.345455 313.728249 
L 605.244156 287.434062 
L 608.142857 313.728249 
L 611.041558 267.713421 
L 622.636364 267.713421 
L 622.636364 267.713421 
" clip-path="url(#pe53e34a62e)" style="fill: none; stroke: #ff0000; stroke-width: 1.5; stroke-linecap: square"/>
    <defs>
     <path id="mfdd3cab136" d="M 0 3 
C 0.795609 3 1.55874 2.683901 2.12132 2.12132 
C 2.683901 1.55874 3 0.795609 3 0 
C 3 -0.795609 2.683901 -1.55874 2.12132 -2.12132 
C 1.55874 -2.683901 0.795609 -3 0 -3 
C -0.795609 -3 -1.55874 -2.683901 -2.12132 -2.12132 
C -2.683901 -1.55874 -3 -0.795609 -3 0 
C -3 0.795609 -2.683901 1.55874 -2.12132 2.12132 
C -1.55874 2.683901 -0.795609 3 0 3 
z
" style="stroke: #ff0000"/>
    </defs>
    <g clip-path="url(#pe53e34a62e)">
     <use xlink:href="#mfdd3cab136" x="115.363636" y="66.96" style="fill: #ff0000; stroke: #ff0000"/>
     <use xlink:href="#mfdd3cab136" x="121.161039" y="66.96" style="fill: #ff0000; stroke: #ff0000"/>
     <use xlink:href="#mfdd3cab136" x="129.857143" y="66.96" style="fill: #ff0000; stroke: #ff0000"/>
     <use xlink:href="#mfdd3cab136" x="132.755844" y="66.96" style="fill: #ff0000; stroke: #ff0000"/>
     <use xlink:href="#mfdd3cab136" x="135.654545" y="66.96" style="fill: #ff0000; stroke: #ff0000"/>
     <use xlink:href="#mfdd3cab136" x="138.553247" y="66.96" style="fill: #ff0000; stroke: #ff0000"/>
     <use xlink:href="#mfdd3cab136" x="141.451948" y="66.96" style="fill: #ff0000; stroke: #ff0000"/>
     <use xlink:href="#mfdd3cab136" x="144.350649" y="68.86363" style="fill: #ff0000; stroke: #ff0000"/>
     <use xlink:href="#mfdd3cab136" x="147.249351" y="74.574519" style="fill: #ff0000; stroke: #ff0000"/>
     <use xlink:href="#mfdd3cab136" x="153.046753" y="74.589738" style="fill: #ff0000; stroke: #ff0000"/>
     <use xlink:href="#mfdd3cab136" x="155.945455" y="74.589738" style="fill: #ff0000; stroke: #ff0000"/>
     <use xlink:href="#mfdd3cab136" x="158.844156" y="74.589738" style="fill: #ff0000; stroke: #ff0000"/>
     <use xlink:href="#mfdd3cab136" x="164.641558" y="74.630885" style="fill: #ff0000; stroke: #ff0000"/>
     <use xlink:href="#mfdd3cab136" x="167.54026" y="74.699464" style="fill: #ff0000; stroke: #ff0000"/>
     <use xlink:href="#mfdd3cab136" x="170.438961" y="74.699464" style="fill: #ff0000; stroke: #ff0000"/>
     <use xlink:href="#mfdd3cab136" x="173.337662" y="74.699464" style="fill: #ff0000; stroke: #ff0000"/>
     <use xlink:href="#mfdd3cab136" x="176.236364" y="74.699464" style="fill: #ff0000; stroke: #ff0000"/>
     <use xlink:href="#mfdd3cab136" x="179.135065" y="74.699464" style="fill: #ff0000; stroke: #ff0000"/>
     <use xlink:href="#mfdd3cab136" x="182.033766" y="74.699464" style="fill: #ff0000; stroke: #ff0000"/>
     <use xlink:href="#mfdd3cab136" x="184.932468" y="75.313481" style="fill: #ff0000; stroke: #ff0000"/>
     <use xlink:href="#mfdd3cab136" x="187.831169" y="85.844158" style="fill: #ff0000; stroke: #ff0000"/>
     <use xlink:href="#mfdd3cab136" x="190.72987" y="96.374836" style="fill: #ff0000; stroke: #ff0000"/>
     <use xlink:href="#mfdd3cab136" x="193.628571" y="96.374836" style="fill: #ff0000; stroke: #ff0000"/>
     <use xlink:href="#mfdd3cab136" x="196.527273" y="96.374836" style="fill: #ff0000; stroke: #ff0000"/>
     <use xlink:href="#mfdd3cab136" x="199.425974" y="96.374836" style="fill: #ff0000; stroke: #ff0000"/>
     <use xlink:href="#mfdd3cab136" x="202.324675" y="96.374836" style="fill: #ff0000; stroke: #ff0000"/>
     <use xlink:href="#mfdd3cab136" x="205.223377" y="96.115443" style="fill: #ff0000; stroke: #ff0000"/>
     <use xlink:href="#mfdd3cab136" x="208.122078" y="95.683123" style="fill: #ff0000; stroke: #ff0000"/>
     <use xlink:href="#mfdd3cab136" x="213.919481" y="95.683123" style="fill: #ff0000; stroke: #ff0000"/>
     <use xlink:href="#mfdd3cab136" x="219.716883" y="96.225296" style="fill: #ff0000; stroke: #ff0000"/>
     <use xlink:href="#mfdd3cab136" x="222.615584" y="96.40602" style="fill: #ff0000; stroke: #ff0000"/>
     <use xlink:href="#mfdd3cab136" x="225.514286" y="96.40602" style="fill: #ff0000; stroke: #ff0000"/>
     <use xlink:href="#mfdd3cab136" x="228.412987" y="96.40602" style="fill: #ff0000; stroke: #ff0000"/>
     <use xlink:href="#mfdd3cab136" x="231.311688" y="96.40602" style="fill: #ff0000; stroke: #ff0000"/>
     <use xlink:href="#mfdd3cab136" x="234.21039" y="132.36124" style="fill: #ff0000; stroke: #ff0000"/>
     <use xlink:href="#mfdd3cab136" x="237.109091" y="182.698548" style="fill: #ff0000; stroke: #ff0000"/>
     <use xlink:href="#mfdd3cab136" x="240.007792" y="182.698548" style="fill: #ff0000; stroke: #ff0000"/>
     <use xlink:href="#mfdd3cab136" x="245.805195" y="182.600971" style="fill: #ff0000; stroke: #ff0000"/>
     <use xlink:href="#mfdd3cab136" x="248.703896" y="190.193119" style="fill: #ff0000; stroke: #ff0000"/>
     <use xlink:href="#mfdd3cab136" x="251.602597" y="199.009254" style="fill: #ff0000; stroke: #ff0000"/>
     <use xlink:href="#mfdd3cab136" x="254.501299" y="199.763469" style="fill: #ff0000; stroke: #ff0000"/>
     <use xlink:href="#mfdd3cab136" x="257.4" y="128.281316" style="fill: #ff0000; stroke: #ff0000"/>
     <use xlink:href="#mfdd3cab136" x="260.298701" y="205.797188" style="fill: #ff0000; stroke: #ff0000"/>
     <use xlink:href="#mfdd3cab136" x="263.197403" y="205.797188" style="fill: #ff0000; stroke: #ff0000"/>
     <use xlink:href="#mfdd3cab136" x="266.096104" y="205.797188" style="fill: #ff0000; stroke: #ff0000"/>
     <use xlink:href="#mfdd3cab136" x="268.994805" y="207.125477" style="fill: #ff0000; stroke: #ff0000"/>
     <use xlink:href="#mfdd3cab136" x="286.387013" y="207.125477" style="fill: #ff0000; stroke: #ff0000"/>
     <use xlink:href="#mfdd3cab136" x="289.285714" y="207.125477" style="fill: #ff0000; stroke: #ff0000"/>
     <use xlink:href="#mfdd3cab136" x="292.184416" y="207.125477" style="fill: #ff0000; stroke: #ff0000"/>
     <use xlink:href="#mfdd3cab136" x="295.083117" y="207.125477" style="fill: #ff0000; stroke: #ff0000"/>
     <use xlink:href="#mfdd3cab136" x="297.981818" y="207.125477" style="fill: #ff0000; stroke: #ff0000"/>
     <use xlink:href="#mfdd3cab136" x="300.880519" y="84.919984" style="fill: #ff0000; stroke: #ff0000"/>
     <use xlink:href="#mfdd3cab136" x="303.779221" y="199.009254" style="fill: #ff0000; stroke: #ff0000"/>
     <use xlink:href="#mfdd3cab136" x="306.677922" y="84.919984" style="fill: #ff0000; stroke: #ff0000"/>
     <use xlink:href="#mfdd3cab136" x="309.576623" y="85.297497" style="fill: #ff0000; stroke: #ff0000"/>
     <use xlink:href="#mfdd3cab136" x="312.475325" y="84.919984" style="fill: #ff0000; stroke: #ff0000"/>
     <use xlink:href="#mfdd3cab136" x="315.374026" y="86.430036" style="fill: #ff0000; stroke: #ff0000"/>
     <use xlink:href="#mfdd3cab136" x="318.272727" y="86.430036" style="fill: #ff0000; stroke: #ff0000"/>
     <use xlink:href="#mfdd3cab136" x="321.171429" y="86.430036" style="fill: #ff0000; stroke: #ff0000"/>
     <use xlink:href="#mfdd3cab136" x="324.07013" y="87.744395" style="fill: #ff0000; stroke: #ff0000"/>
     <use xlink:href="#mfdd3cab136" x="326.968831" y="89.321626" style="fill: #ff0000; stroke: #ff0000"/>
     <use xlink:href="#mfdd3cab136" x="329.867532" y="89.321626" style="fill: #ff0000; stroke: #ff0000"/>
     <use xlink:href="#mfdd3cab136" x="332.766234" y="90.992322" style="fill: #ff0000; stroke: #ff0000"/>
     <use xlink:href="#mfdd3cab136" x="335.664935" y="91.82767" style="fill: #ff0000; stroke: #ff0000"/>
     <use xlink:href="#mfdd3cab136" x="338.563636" y="91.82767" style="fill: #ff0000; stroke: #ff0000"/>
     <use xlink:href="#mfdd3cab136" x="344.361039" y="91.82767" style="fill: #ff0000; stroke: #ff0000"/>
     <use xlink:href="#mfdd3cab136" x="347.25974" y="93.84302" style="fill: #ff0000; stroke: #ff0000"/>
     <use xlink:href="#mfdd3cab136" x="350.158442" y="95.85837" style="fill: #ff0000; stroke: #ff0000"/>
     <use xlink:href="#mfdd3cab136" x="353.057143" y="95.85837" style="fill: #ff0000; stroke: #ff0000"/>
     <use xlink:href="#mfdd3cab136" x="355.955844" y="95.85837" style="fill: #ff0000; stroke: #ff0000"/>
     <use xlink:href="#mfdd3cab136" x="358.854545" y="94.571845" style="fill: #ff0000; stroke: #ff0000"/>
     <use xlink:href="#mfdd3cab136" x="361.753247" y="103.016501" style="fill: #ff0000; stroke: #ff0000"/>
     <use xlink:href="#mfdd3cab136" x="364.651948" y="114.276043" style="fill: #ff0000; stroke: #ff0000"/>
     <use xlink:href="#mfdd3cab136" x="367.550649" y="117.786111" style="fill: #ff0000; stroke: #ff0000"/>
     <use xlink:href="#mfdd3cab136" x="370.449351" y="135.336453" style="fill: #ff0000; stroke: #ff0000"/>
     <use xlink:href="#mfdd3cab136" x="373.348052" y="135.336453" style="fill: #ff0000; stroke: #ff0000"/>
     <use xlink:href="#mfdd3cab136" x="376.246753" y="135.336453" style="fill: #ff0000; stroke: #ff0000"/>
     <use xlink:href="#mfdd3cab136" x="379.145455" y="135.336453" style="fill: #ff0000; stroke: #ff0000"/>
     <use xlink:href="#mfdd3cab136" x="382.044156" y="135.336453" style="fill: #ff0000; stroke: #ff0000"/>
     <use xlink:href="#mfdd3cab136" x="387.841558" y="122.470808" style="fill: #ff0000; stroke: #ff0000"/>
     <use xlink:href="#mfdd3cab136" x="390.74026" y="122.470808" style="fill: #ff0000; stroke: #ff0000"/>
     <use xlink:href="#mfdd3cab136" x="393.638961" y="122.617859" style="fill: #ff0000; stroke: #ff0000"/>
     <use xlink:href="#mfdd3cab136" x="396.537662" y="122.470808" style="fill: #ff0000; stroke: #ff0000"/>
     <use xlink:href="#mfdd3cab136" x="399.436364" y="155.345792" style="fill: #ff0000; stroke: #ff0000"/>
     <use xlink:href="#mfdd3cab136" x="402.335065" y="186.485305" style="fill: #ff0000; stroke: #ff0000"/>
     <use xlink:href="#mfdd3cab136" x="405.233766" y="202.055062" style="fill: #ff0000; stroke: #ff0000"/>
     <use xlink:href="#mfdd3cab136" x="408.132468" y="178.700427" style="fill: #ff0000; stroke: #ff0000"/>
     <use xlink:href="#mfdd3cab136" x="411.031169" y="198.744511" style="fill: #ff0000; stroke: #ff0000"/>
     <use xlink:href="#mfdd3cab136" x="416.828571" y="202.367947" style="fill: #ff0000; stroke: #ff0000"/>
     <use xlink:href="#mfdd3cab136" x="419.727273" y="188.812858" style="fill: #ff0000; stroke: #ff0000"/>
     <use xlink:href="#mfdd3cab136" x="422.625974" y="192.20163" style="fill: #ff0000; stroke: #ff0000"/>
     <use xlink:href="#mfdd3cab136" x="425.524675" y="188.812858" style="fill: #ff0000; stroke: #ff0000"/>
     <use xlink:href="#mfdd3cab136" x="428.423377" y="193.50175" style="fill: #ff0000; stroke: #ff0000"/>
     <use xlink:href="#mfdd3cab136" x="437.119481" y="188.812858" style="fill: #ff0000; stroke: #ff0000"/>
     <use xlink:href="#mfdd3cab136" x="440.018182" y="218.147839" style="fill: #ff0000; stroke: #ff0000"/>
     <use xlink:href="#mfdd3cab136" x="442.916883" y="297.898812" style="fill: #ff0000; stroke: #ff0000"/>
     <use xlink:href="#mfdd3cab136" x="445.815584" y="331.368018" style="fill: #ff0000; stroke: #ff0000"/>
     <use xlink:href="#mfdd3cab136" x="448.714286" y="306.331216" style="fill: #ff0000; stroke: #ff0000"/>
     <use xlink:href="#mfdd3cab136" x="451.612987" y="348.059219" style="fill: #ff0000; stroke: #ff0000"/>
     <use xlink:href="#mfdd3cab136" x="454.511688" y="306.331216" style="fill: #ff0000; stroke: #ff0000"/>
     <use xlink:href="#mfdd3cab136" x="457.41039" y="318.063128" style="fill: #ff0000; stroke: #ff0000"/>
     <use xlink:href="#mfdd3cab136" x="460.309091" y="341.882821" style="fill: #ff0000; stroke: #ff0000"/>
     <use xlink:href="#mfdd3cab136" x="463.207792" y="323.929084" style="fill: #ff0000; stroke: #ff0000"/>
     <use xlink:href="#mfdd3cab136" x="466.106494" y="323.929084" style="fill: #ff0000; stroke: #ff0000"/>
     <use xlink:href="#mfdd3cab136" x="469.005195" y="330.738167" style="fill: #ff0000; stroke: #ff0000"/>
     <use xlink:href="#mfdd3cab136" x="471.903896" y="323.929084" style="fill: #ff0000; stroke: #ff0000"/>
     <use xlink:href="#mfdd3cab136" x="474.802597" y="351.165414" style="fill: #ff0000; stroke: #ff0000"/>
     <use xlink:href="#mfdd3cab136" x="477.701299" y="351.165414" style="fill: #ff0000; stroke: #ff0000"/>
     <use xlink:href="#mfdd3cab136" x="483.498701" y="351.165414" style="fill: #ff0000; stroke: #ff0000"/>
     <use xlink:href="#mfdd3cab136" x="486.397403" y="351.165414" style="fill: #ff0000; stroke: #ff0000"/>
     <use xlink:href="#mfdd3cab136" x="489.296104" y="351.165414" style="fill: #ff0000; stroke: #ff0000"/>
     <use xlink:href="#mfdd3cab136" x="492.194805" y="355.643914" style="fill: #ff0000; stroke: #ff0000"/>
     <use xlink:href="#mfdd3cab136" x="497.992208" y="360.7622" style="fill: #ff0000; stroke: #ff0000"/>
     <use xlink:href="#mfdd3cab136" x="500.890909" y="364.600915" style="fill: #ff0000; stroke: #ff0000"/>
     <use xlink:href="#mfdd3cab136" x="503.78961" y="369.36" style="fill: #ff0000; stroke: #ff0000"/>
     <use xlink:href="#mfdd3cab136" x="506.688312" y="360.497963" style="fill: #ff0000; stroke: #ff0000"/>
     <use xlink:href="#mfdd3cab136" x="509.587013" y="358.446488" style="fill: #ff0000; stroke: #ff0000"/>
     <use xlink:href="#mfdd3cab136" x="512.485714" y="359.677373" style="fill: #ff0000; stroke: #ff0000"/>
     <use xlink:href="#mfdd3cab136" x="515.384416" y="358.446488" style="fill: #ff0000; stroke: #ff0000"/>
     <use xlink:href="#mfdd3cab136" x="518.283117" y="354.586103" style="fill: #ff0000; stroke: #ff0000"/>
     <use xlink:href="#mfdd3cab136" x="521.181818" y="344.797272" style="fill: #ff0000; stroke: #ff0000"/>
     <use xlink:href="#mfdd3cab136" x="524.080519" y="347.032389" style="fill: #ff0000; stroke: #ff0000"/>
     <use xlink:href="#mfdd3cab136" x="526.979221" y="353.998452" style="fill: #ff0000; stroke: #ff0000"/>
     <use xlink:href="#mfdd3cab136" x="529.877922" y="333.825916" style="fill: #ff0000; stroke: #ff0000"/>
     <use xlink:href="#mfdd3cab136" x="532.776623" y="331.046017" style="fill: #ff0000; stroke: #ff0000"/>
     <use xlink:href="#mfdd3cab136" x="535.675325" y="330.800214" style="fill: #ff0000; stroke: #ff0000"/>
     <use xlink:href="#mfdd3cab136" x="538.574026" y="329.866165" style="fill: #ff0000; stroke: #ff0000"/>
     <use xlink:href="#mfdd3cab136" x="541.472727" y="329.865352" style="fill: #ff0000; stroke: #ff0000"/>
     <use xlink:href="#mfdd3cab136" x="544.371429" y="324.719766" style="fill: #ff0000; stroke: #ff0000"/>
     <use xlink:href="#mfdd3cab136" x="547.27013" y="321.631927" style="fill: #ff0000; stroke: #ff0000"/>
     <use xlink:href="#mfdd3cab136" x="550.168831" y="321.631927" style="fill: #ff0000; stroke: #ff0000"/>
     <use xlink:href="#mfdd3cab136" x="553.067532" y="321.631927" style="fill: #ff0000; stroke: #ff0000"/>
     <use xlink:href="#mfdd3cab136" x="555.966234" y="318.997368" style="fill: #ff0000; stroke: #ff0000"/>
     <use xlink:href="#mfdd3cab136" x="558.864935" y="313.728249" style="fill: #ff0000; stroke: #ff0000"/>
     <use xlink:href="#mfdd3cab136" x="564.662338" y="313.728249" style="fill: #ff0000; stroke: #ff0000"/>
     <use xlink:href="#mfdd3cab136" x="570.45974" y="313.728249" style="fill: #ff0000; stroke: #ff0000"/>
     <use xlink:href="#mfdd3cab136" x="573.358442" y="313.728249" style="fill: #ff0000; stroke: #ff0000"/>
     <use xlink:href="#mfdd3cab136" x="576.257143" y="313.728249" style="fill: #ff0000; stroke: #ff0000"/>
     <use xlink:href="#mfdd3cab136" x="584.953247" y="313.728249" style="fill: #ff0000; stroke: #ff0000"/>
     <use xlink:href="#mfdd3cab136" x="587.851948" y="313.728249" style="fill: #ff0000; stroke: #ff0000"/>
     <use xlink:href="#mfdd3cab136" x="590.750649" y="313.728249" style="fill: #ff0000; stroke: #ff0000"/>
     <use xlink:href="#mfdd3cab136" x="593.649351" y="313.728249" style="fill: #ff0000; stroke: #ff0000"/>
     <use xlink:href="#mfdd3cab136" x="599.446753" y="313.728249" style="fill: #ff0000; stroke: #ff0000"/>
     <use xlink:href="#mfdd3cab136" x="602.345455" y="313.728249" style="fill: #ff0000; stroke: #ff0000"/>
     <use xlink:href="#mfdd3cab136" x="605.244156" y="287.434062" style="fill: #ff0000; stroke: #ff0000"/>
     <use xlink:href="#mfdd3cab136" x="608.142857" y="313.728249" style="fill: #ff0000; stroke: #ff0000"/>
     <use xlink:href="#mfdd3cab136" x="611.041558" y="267.713421" style="fill: #ff0000; stroke: #ff0000"/>
     <use xlink:href="#mfdd3cab136" x="619.737662" y="267.713421" style="fill: #ff0000; stroke: #ff0000"/>
     <use xlink:href="#mfdd3cab136" x="622.636364" y="267.713421" style="fill: #ff0000; stroke: #ff0000"/>
    </g>
   </g>
   <g id="patch_11">
    <path d="M 90 384.48 
L 90 51.84 
" style="fill: none; stroke: #000000; stroke-width: 0.8; stroke-linejoin: miter; stroke-linecap: square"/>
   </g>
   <g id="patch_12">
    <path d="M 708 384.48 
L 708 51.84 
" style="fill: none; stroke: #000000; stroke-width: 0.8; stroke-linejoin: miter; stroke-linecap: square"/>
   </g>
   <g id="patch_13">
    <path d="M 90 384.48 
L 648 384.48 
" style="fill: none; stroke: #000000; stroke-width: 0.8; stroke-linejoin: miter; stroke-linecap: square"/>
   </g>
   <g id="patch_14">
    <path d="M 90 51.84 
L 648 51.84 
" style="fill: none; stroke: #000000; stroke-width: 0.8; stroke-linejoin: miter; stroke-linecap: square"/>
   </g>
   <g id="text_34">
    <!-- 6004020375 每周需求量、收益与平均单价 -->
    <g transform="translate(258 45.84) scale(0.12 -0.12)">
     <defs>
      <path id="SimHei-20" transform="scale(0.015625)"/>
      <path id="SimHei-6bcf" d="M 5225 3650 
Q 5175 3150 5150 2675 
L 5125 2200 
Q 5525 2200 6000 2225 
L 6000 1775 
Q 5625 1800 5100 1800 
L 5050 650 
Q 5325 650 5700 675 
L 5700 225 
Q 5400 250 5025 250 
Q 5000 -275 4775 -425 
Q 4550 -575 4000 -650 
Q 3950 -400 3775 -125 
Q 4375 -125 4475 -50 
Q 4575 25 4575 250 
L 1400 250 
L 1500 1100 
L 1550 1800 
L 1275 1800 
Q 825 1800 550 1775 
L 550 2225 
Q 975 2200 1275 2200 
L 1575 2200 
L 1625 2825 
L 1675 3650 
L 5225 3650 
z
M 2350 5000 
Q 2175 4825 2050 4600 
L 4875 4600 
Q 5275 4600 5775 4625 
L 5775 4175 
Q 5275 4200 4875 4200 
L 1825 4200 
L 1375 3625 
Q 1125 3325 775 2975 
Q 600 3175 350 3300 
Q 725 3575 1150 4112 
Q 1575 4650 1825 5250 
Q 2125 5075 2350 5000 
z
M 1975 1800 
L 1875 650 
L 4625 650 
L 4675 1800 
L 2950 1800 
Q 3575 1275 3825 1125 
Q 3625 925 3475 725 
Q 3100 1100 2650 1475 
Q 2775 1675 2875 1800 
L 1975 1800 
z
M 2975 3250 
Q 3125 3150 3287 3012 
Q 3450 2875 3800 2550 
Q 3650 2350 3525 2200 
L 4700 2200 
L 4750 3250 
L 2975 3250 
z
M 2075 3250 
L 2000 2200 
L 3425 2200 
Q 3150 2500 3012 2625 
Q 2875 2750 2700 2900 
Q 2800 3050 2925 3250 
L 2075 3250 
z
" transform="scale(0.015625)"/>
      <path id="SimHei-3001" d="M 1725 -275 
Q 1325 700 925 1450 
L 1325 1650 
Q 1825 950 2325 25 
L 1725 -275 
z
" transform="scale(0.015625)"/>
      <path id="SimHei-4e0e" d="M 5350 100 
Q 5275 -300 4925 -425 
Q 4575 -550 3900 -600 
Q 3875 -375 3650 -25 
Q 4375 -50 4575 0 
Q 4775 50 4837 225 
Q 4900 400 5100 2350 
L 1125 2350 
Q 1450 4350 1475 5200 
Q 1800 5150 2075 5125 
Q 1975 4825 1900 4275 
L 4900 4275 
Q 5400 4275 5800 4300 
L 5800 3825 
Q 5400 3850 4950 3850 
L 1850 3850 
L 1700 2750 
L 5675 2750 
Q 5625 2450 5575 2050 
L 5350 100 
z
M 3675 1350 
Q 4125 1350 4500 1375 
L 4500 875 
Q 4125 900 3850 900 
L 1450 900 
Q 1000 900 500 875 
L 500 1375 
Q 1000 1350 1450 1350 
L 3675 1350 
z
" transform="scale(0.015625)"/>
     </defs>
     <use xlink:href="#SimHei-36"/>
     <use xlink:href="#SimHei-30" x="50"/>
     <use xlink:href="#SimHei-30" x="100"/>
     <use xlink:href="#SimHei-34" x="150"/>
     <use xlink:href="#SimHei-30" x="200"/>
     <use xlink:href="#SimHei-32" x="250"/>
     <use xlink:href="#SimHei-30" x="300"/>
     <use xlink:href="#SimHei-33" x="350"/>
     <use xlink:href="#SimHei-37" x="400"/>
     <use xlink:href="#SimHei-35" x="450"/>
     <use xlink:href="#SimHei-20" x="500"/>
     <use xlink:href="#SimHei-6bcf" x="550"/>
     <use xlink:href="#SimHei-5468" x="650"/>
     <use xlink:href="#SimHei-9700" x="750"/>
     <use xlink:href="#SimHei-6c42" x="850"/>
     <use xlink:href="#SimHei-91cf" x="950"/>
     <use xlink:href="#SimHei-3001" x="1050"/>
     <use xlink:href="#SimHei-6536" x="1150"/>
     <use xlink:href="#SimHei-76ca" x="1250"/>
     <use xlink:href="#SimHei-4e0e" x="1350"/>
     <use xlink:href="#SimHei-5e73" x="1450"/>
     <use xlink:href="#SimHei-5747" x="1550"/>
     <use xlink:href="#SimHei-5355" x="1650"/>
     <use xlink:href="#SimHei-4ef7" x="1750"/>
    </g>
   </g>
  </g>
 </g>
 <defs>
  <clipPath id="pe53e34a62e">
   <rect x="90" y="51.84" width="558" height="332.64"/>
  </clipPath>
 </defs>
</svg>
