<?xml version="1.0" encoding="utf-8" standalone="no"?>
<!DOCTYPE svg PUBLIC "-//W3C//DTD SVG 1.1//EN"
  "http://www.w3.org/Graphics/SVG/1.1/DTD/svg11.dtd">
<svg xmlns:xlink="http://www.w3.org/1999/xlink" width="720pt" height="432pt" viewBox="0 0 720 432" xmlns="http://www.w3.org/2000/svg" version="1.1">
 <metadata>
  <rdf:RDF xmlns:dc="http://purl.org/dc/elements/1.1/" xmlns:cc="http://creativecommons.org/ns#" xmlns:rdf="http://www.w3.org/1999/02/22-rdf-syntax-ns#">
   <cc:Work>
    <dc:type rdf:resource="http://purl.org/dc/dcmitype/StillImage"/>
    <dc:date>2024-08-17T14:11:03.702326</dc:date>
    <dc:format>image/svg+xml</dc:format>
    <dc:creator>
     <cc:Agent>
      <dc:title>Matplotlib v3.8.0, https://matplotlib.org/</dc:title>
     </cc:Agent>
    </dc:creator>
   </cc:Work>
  </rdf:RDF>
 </metadata>
 <defs>
  <style type="text/css">*{stroke-linejoin: round; stroke-linecap: butt}</style>
 </defs>
 <g id="figure_1">
  <g id="patch_1">
   <path d="M 0 432 
L 720 432 
L 720 0 
L 0 0 
z
" style="fill: #ffffff"/>
  </g>
  <g id="axes_1">
   <g id="patch_2">
    <path d="M 90 384.48 
L 648 384.48 
L 648 51.84 
L 90 51.84 
z
" style="fill: #ffffff"/>
   </g>
   <g id="matplotlib.axis_1">
    <g id="xtick_1">
     <g id="line2d_1">
      <defs>
       <path id="mef7a2988ef" d="M 0 0 
L 0 3.5 
" style="stroke: #000000; stroke-width: 0.8"/>
      </defs>
      <g>
       <use xlink:href="#mef7a2988ef" x="103.634787" y="384.48" style="stroke: #000000; stroke-width: 0.8"/>
      </g>
     </g>
     <g id="text_1">
      <!-- 0 -->
      <g transform="translate(101.134787 398.355) scale(0.1 -0.1)">
       <defs>
        <path id="SimHei-30" d="M 225 2537 
Q 250 3200 412 3587 
Q 575 3975 875 4225 
Q 1175 4475 1612 4475 
Q 2050 4475 2375 4112 
Q 2700 3750 2800 3200 
Q 2900 2650 2862 1937 
Q 2825 1225 2612 775 
Q 2400 325 1975 150 
Q 1550 -25 1125 187 
Q 700 400 525 750 
Q 350 1100 275 1487 
Q 200 1875 225 2537 
z
M 750 2687 
Q 675 2000 800 1462 
Q 925 925 1212 700 
Q 1500 475 1800 612 
Q 2100 750 2237 1162 
Q 2375 1575 2375 2062 
Q 2375 2550 2337 2950 
Q 2300 3350 2112 3675 
Q 1925 4000 1612 4012 
Q 1300 4025 1062 3700 
Q 825 3375 750 2687 
z
" transform="scale(0.015625)"/>
       </defs>
       <use xlink:href="#SimHei-30"/>
      </g>
     </g>
    </g>
    <g id="xtick_2">
     <g id="line2d_2">
      <g>
       <use xlink:href="#mef7a2988ef" x="176.940095" y="384.48" style="stroke: #000000; stroke-width: 0.8"/>
      </g>
     </g>
     <g id="text_2">
      <!-- 25 -->
      <g transform="translate(171.940095 398.355) scale(0.1 -0.1)">
       <defs>
        <path id="SimHei-32" d="M 300 250 
Q 325 625 650 925 
Q 975 1225 1475 1862 
Q 1975 2500 2125 2850 
Q 2275 3200 2237 3450 
Q 2200 3700 2000 3862 
Q 1800 4025 1537 4000 
Q 1275 3975 1037 3800 
Q 800 3625 675 3275 
L 200 3350 
Q 400 3925 712 4187 
Q 1025 4450 1450 4475 
Q 1700 4500 1900 4462 
Q 2100 4425 2312 4287 
Q 2525 4150 2662 3875 
Q 2800 3600 2762 3212 
Q 2725 2825 2375 2287 
Q 2025 1750 1025 600 
L 2825 600 
L 2825 150 
L 300 150 
L 300 250 
z
" transform="scale(0.015625)"/>
        <path id="SimHei-35" d="M 550 1325 
Q 725 650 1150 575 
Q 1575 500 1837 662 
Q 2100 825 2212 1087 
Q 2325 1350 2312 1675 
Q 2300 2000 2137 2225 
Q 1975 2450 1725 2525 
Q 1475 2600 1162 2525 
Q 850 2450 650 2175 
L 225 2225 
Q 275 2375 700 4375 
L 2675 4375 
L 2675 3925 
L 1075 3925 
Q 950 3250 825 2850 
Q 1200 3025 1525 3012 
Q 1850 3000 2150 2862 
Q 2450 2725 2587 2487 
Q 2725 2250 2787 2012 
Q 2850 1775 2837 1500 
Q 2825 1225 2725 937 
Q 2625 650 2425 462 
Q 2225 275 1937 162 
Q 1650 50 1275 75 
Q 900 100 562 350 
Q 225 600 100 1200 
L 550 1325 
z
" transform="scale(0.015625)"/>
       </defs>
       <use xlink:href="#SimHei-32"/>
       <use xlink:href="#SimHei-35" x="50"/>
      </g>
     </g>
    </g>
    <g id="xtick_3">
     <g id="line2d_3">
      <g>
       <use xlink:href="#mef7a2988ef" x="250.245402" y="384.48" style="stroke: #000000; stroke-width: 0.8"/>
      </g>
     </g>
     <g id="text_3">
      <!-- 50 -->
      <g transform="translate(245.245402 398.355) scale(0.1 -0.1)">
       <use xlink:href="#SimHei-35"/>
       <use xlink:href="#SimHei-30" x="50"/>
      </g>
     </g>
    </g>
    <g id="xtick_4">
     <g id="line2d_4">
      <g>
       <use xlink:href="#mef7a2988ef" x="323.550709" y="384.48" style="stroke: #000000; stroke-width: 0.8"/>
      </g>
     </g>
     <g id="text_4">
      <!-- 75 -->
      <g transform="translate(318.550709 398.355) scale(0.1 -0.1)">
       <defs>
        <path id="SimHei-37" d="M 850 150 
Q 1300 2050 2425 3925 
L 275 3925 
L 275 4375 
L 2950 4375 
L 2950 3950 
Q 1775 2050 1400 150 
L 850 150 
z
" transform="scale(0.015625)"/>
       </defs>
       <use xlink:href="#SimHei-37"/>
       <use xlink:href="#SimHei-35" x="50"/>
      </g>
     </g>
    </g>
    <g id="xtick_5">
     <g id="line2d_5">
      <g>
       <use xlink:href="#mef7a2988ef" x="396.856017" y="384.48" style="stroke: #000000; stroke-width: 0.8"/>
      </g>
     </g>
     <g id="text_5">
      <!-- 100 -->
      <g transform="translate(389.356017 398.355) scale(0.1 -0.1)">
       <defs>
        <path id="SimHei-31" d="M 1400 3600 
Q 1075 3275 575 2975 
L 575 3450 
Q 1200 3875 1600 4450 
L 1900 4450 
L 1900 150 
L 1400 150 
L 1400 3600 
z
" transform="scale(0.015625)"/>
       </defs>
       <use xlink:href="#SimHei-31"/>
       <use xlink:href="#SimHei-30" x="50"/>
       <use xlink:href="#SimHei-30" x="100"/>
      </g>
     </g>
    </g>
    <g id="xtick_6">
     <g id="line2d_6">
      <g>
       <use xlink:href="#mef7a2988ef" x="470.161324" y="384.48" style="stroke: #000000; stroke-width: 0.8"/>
      </g>
     </g>
     <g id="text_6">
      <!-- 125 -->
      <g transform="translate(462.661324 398.355) scale(0.1 -0.1)">
       <use xlink:href="#SimHei-31"/>
       <use xlink:href="#SimHei-32" x="50"/>
       <use xlink:href="#SimHei-35" x="100"/>
      </g>
     </g>
    </g>
    <g id="xtick_7">
     <g id="line2d_7">
      <g>
       <use xlink:href="#mef7a2988ef" x="543.466632" y="384.48" style="stroke: #000000; stroke-width: 0.8"/>
      </g>
     </g>
     <g id="text_7">
      <!-- 150 -->
      <g transform="translate(535.966632 398.355) scale(0.1 -0.1)">
       <use xlink:href="#SimHei-31"/>
       <use xlink:href="#SimHei-35" x="50"/>
       <use xlink:href="#SimHei-30" x="100"/>
      </g>
     </g>
    </g>
    <g id="xtick_8">
     <g id="line2d_8">
      <g>
       <use xlink:href="#mef7a2988ef" x="616.771939" y="384.48" style="stroke: #000000; stroke-width: 0.8"/>
      </g>
     </g>
     <g id="text_8">
      <!-- 175 -->
      <g transform="translate(609.271939 398.355) scale(0.1 -0.1)">
       <use xlink:href="#SimHei-31"/>
       <use xlink:href="#SimHei-37" x="50"/>
       <use xlink:href="#SimHei-35" x="100"/>
      </g>
     </g>
    </g>
    <g id="text_9">
     <!-- 周数 -->
     <g transform="translate(359 411.339375) scale(0.1 -0.1)">
      <defs>
       <path id="SimHei-5468" d="M 5600 4925 
Q 5575 4400 5575 3800 
L 5575 50 
Q 5550 -375 5325 -462 
Q 5100 -550 4325 -600 
Q 4300 -400 4125 -75 
Q 4800 -100 4962 -37 
Q 5125 25 5100 225 
L 5100 4525 
L 1500 4525 
Q 1500 2575 1450 1887 
Q 1400 1200 1237 550 
Q 1075 -100 775 -625 
Q 625 -450 275 -225 
Q 650 225 825 1000 
Q 1000 1775 1025 2587 
Q 1050 3400 1000 4925 
L 5600 4925 
z
M 2050 325 
Q 2075 625 2075 950 
L 2075 1400 
Q 2075 1625 2050 1925 
L 4400 1925 
Q 4375 1725 4375 1450 
L 4375 875 
Q 4375 600 4400 325 
L 2050 325 
z
M 3000 3800 
Q 3000 4150 2975 4375 
L 3475 4375 
Q 3450 4075 3450 3800 
Q 4100 3800 4475 3825 
L 4475 3350 
Q 4125 3375 3450 3375 
L 3450 2800 
Q 4200 2800 4825 2825 
L 4825 2350 
Q 4175 2375 3725 2375 
L 2750 2375 
Q 2325 2375 1725 2350 
L 1725 2825 
Q 2325 2800 3000 2800 
L 3000 3375 
Q 2500 3375 1975 3350 
L 1975 3825 
Q 2475 3800 3000 3800 
z
M 3900 725 
L 3900 1525 
L 2550 1525 
L 2550 725 
L 3900 725 
z
" transform="scale(0.015625)"/>
       <path id="SimHei-6570" d="M 4525 4925 
Q 4475 4800 4400 4587 
Q 4325 4375 4175 3825 
L 5325 3825 
Q 5575 3825 5925 3850 
L 5925 3400 
Q 5650 3425 5500 3425 
Q 5500 3025 5362 2162 
Q 5225 1300 4875 675 
Q 5125 375 5437 137 
Q 5750 -100 6025 -200 
Q 5725 -425 5625 -625 
Q 5325 -450 5075 -225 
Q 4825 0 4575 325 
Q 4300 25 3987 -187 
Q 3675 -400 3200 -650 
Q 3075 -425 2850 -300 
Q 3225 -150 3650 125 
Q 4075 400 4300 675 
Q 4125 1025 3962 1425 
Q 3800 1825 3675 2475 
Q 3600 2275 3425 1950 
Q 3250 2050 3000 2150 
Q 3400 2850 3650 3675 
Q 3900 4500 3975 5100 
Q 4275 4975 4525 4925 
z
M 2100 2250 
Q 2000 2150 1875 1925 
L 3250 1925 
Q 3100 1300 2725 675 
Q 3125 525 3350 400 
Q 3225 225 3125 25 
Q 2900 175 2450 325 
Q 1950 -225 725 -650 
Q 600 -375 400 -275 
Q 1575 0 2000 475 
Q 1300 650 850 775 
Q 1000 1000 1250 1525 
Q 1000 1525 425 1500 
L 425 1950 
Q 900 1925 1400 1925 
Q 1500 2150 1550 2425 
Q 1825 2325 2100 2250 
z
M 1775 3950 
Q 1775 4550 1750 5100 
L 2250 5100 
Q 2225 4575 2225 3950 
Q 3075 3950 3425 3975 
L 3425 3525 
Q 3075 3550 2225 3550 
Q 2225 2825 2250 2425 
L 1750 2425 
Q 1775 2775 1775 3300 
Q 1650 3100 1300 2787 
Q 950 2475 650 2300 
Q 525 2525 275 2625 
Q 500 2700 875 2975 
Q 1250 3250 1450 3550 
Q 950 3550 500 3525 
L 500 3975 
Q 925 3950 1775 3950 
z
M 3975 3175 
Q 4200 1700 4600 1125 
Q 4850 1700 4937 2287 
Q 5025 2875 5050 3425 
L 4075 3425 
L 3975 3175 
z
M 1450 1000 
Q 1750 925 2275 800 
Q 2475 1050 2650 1525 
L 1725 1525 
Q 1600 1275 1450 1000 
z
M 3325 4825 
Q 3200 4625 3125 4450 
Q 3050 4275 2925 4025 
Q 2725 4125 2525 4175 
Q 2725 4500 2900 5000 
Q 3150 4875 3325 4825 
z
M 2575 3375 
Q 2900 3050 3200 2725 
Q 3050 2600 2875 2425 
Q 2525 2850 2300 3100 
Q 2450 3225 2575 3375 
z
M 925 5000 
Q 1275 4650 1500 4300 
L 1125 4075 
Q 950 4425 600 4725 
Q 825 4875 925 5000 
z
" transform="scale(0.015625)"/>
      </defs>
      <use xlink:href="#SimHei-5468"/>
      <use xlink:href="#SimHei-6570" x="100"/>
     </g>
    </g>
   </g>
   <g id="matplotlib.axis_2">
    <g id="ytick_1">
     <g id="line2d_9">
      <defs>
       <path id="m630f1b284e" d="M 0 0 
L -3.5 0 
" style="stroke: #000000; stroke-width: 0.8"/>
      </defs>
      <g>
       <use xlink:href="#m630f1b284e" x="90" y="349.2" style="stroke: #000000; stroke-width: 0.8"/>
      </g>
     </g>
     <g id="text_10">
      <!-- 2 -->
      <g style="fill: #0000ff" transform="translate(78 352.6375) scale(0.1 -0.1)">
       <use xlink:href="#SimHei-32"/>
      </g>
     </g>
    </g>
    <g id="ytick_2">
     <g id="line2d_10">
      <g>
       <use xlink:href="#m630f1b284e" x="90" y="308.88" style="stroke: #000000; stroke-width: 0.8"/>
      </g>
     </g>
     <g id="text_11">
      <!-- 4 -->
      <g style="fill: #0000ff" transform="translate(78 312.3175) scale(0.1 -0.1)">
       <defs>
        <path id="SimHei-34" d="M 2000 1100 
L 75 1100 
L 75 1525 
L 2100 4450 
L 2475 4450 
L 2475 1525 
L 3075 1525 
L 3075 1100 
L 2475 1100 
L 2475 150 
L 2000 150 
L 2000 1100 
z
M 2000 1525 
L 2000 3500 
L 600 1525 
L 2000 1525 
z
" transform="scale(0.015625)"/>
       </defs>
       <use xlink:href="#SimHei-34"/>
      </g>
     </g>
    </g>
    <g id="ytick_3">
     <g id="line2d_11">
      <g>
       <use xlink:href="#m630f1b284e" x="90" y="268.56" style="stroke: #000000; stroke-width: 0.8"/>
      </g>
     </g>
     <g id="text_12">
      <!-- 6 -->
      <g style="fill: #0000ff" transform="translate(78 271.9975) scale(0.1 -0.1)">
       <defs>
        <path id="SimHei-36" d="M 250 1612 
Q 275 1975 387 2225 
Q 500 2475 725 2850 
L 1750 4450 
L 2325 4450 
L 1275 2800 
Q 1950 2975 2350 2750 
Q 2750 2525 2887 2237 
Q 3025 1950 3037 1612 
Q 3050 1275 2937 950 
Q 2825 625 2537 362 
Q 2250 100 1737 75 
Q 1225 50 862 262 
Q 500 475 362 862 
Q 225 1250 250 1612 
z
M 1025 787 
Q 1250 550 1625 525 
Q 2000 500 2250 775 
Q 2500 1050 2500 1575 
Q 2500 2100 2187 2300 
Q 1875 2500 1487 2450 
Q 1100 2400 925 2075 
Q 750 1750 775 1387 
Q 800 1025 1025 787 
z
" transform="scale(0.015625)"/>
       </defs>
       <use xlink:href="#SimHei-36"/>
      </g>
     </g>
    </g>
    <g id="ytick_4">
     <g id="line2d_12">
      <g>
       <use xlink:href="#m630f1b284e" x="90" y="228.24" style="stroke: #000000; stroke-width: 0.8"/>
      </g>
     </g>
     <g id="text_13">
      <!-- 8 -->
      <g style="fill: #0000ff" transform="translate(78 231.6775) scale(0.1 -0.1)">
       <defs>
        <path id="SimHei-38" d="M 175 1375 
Q 175 1675 325 1962 
Q 475 2250 825 2425 
Q 525 2600 425 2812 
Q 325 3025 312 3300 
Q 300 3575 387 3775 
Q 475 3975 650 4150 
Q 825 4325 1037 4387 
Q 1250 4450 1500 4450 
Q 1750 4450 1950 4400 
Q 2150 4350 2375 4187 
Q 2600 4025 2700 3725 
Q 2800 3425 2687 3025 
Q 2575 2625 2100 2400 
Q 2525 2275 2700 2012 
Q 2875 1750 2875 1375 
Q 2875 1000 2762 775 
Q 2650 550 2512 400 
Q 2375 250 2137 162 
Q 1900 75 1537 75 
Q 1175 75 912 162 
Q 650 250 475 425 
Q 300 600 237 837 
Q 175 1075 175 1375 
z
M 687 1400 
Q 675 1100 787 875 
Q 900 650 1200 587 
Q 1500 525 1825 600 
Q 2150 675 2275 950 
Q 2400 1225 2362 1500 
Q 2325 1775 2050 1962 
Q 1775 2150 1450 2125 
Q 1125 2100 912 1900 
Q 700 1700 687 1400 
z
M 775 3350 
Q 775 3100 950 2875 
Q 1125 2650 1500 2650 
Q 1875 2650 2062 2875 
Q 2250 3100 2237 3412 
Q 2225 3725 2012 3875 
Q 1800 4025 1437 4000 
Q 1075 3975 925 3787 
Q 775 3600 775 3350 
z
" transform="scale(0.015625)"/>
       </defs>
       <use xlink:href="#SimHei-38"/>
      </g>
     </g>
    </g>
    <g id="ytick_5">
     <g id="line2d_13">
      <g>
       <use xlink:href="#m630f1b284e" x="90" y="187.92" style="stroke: #000000; stroke-width: 0.8"/>
      </g>
     </g>
     <g id="text_14">
      <!-- 10 -->
      <g style="fill: #0000ff" transform="translate(73 191.3575) scale(0.1 -0.1)">
       <use xlink:href="#SimHei-31"/>
       <use xlink:href="#SimHei-30" x="50"/>
      </g>
     </g>
    </g>
    <g id="ytick_6">
     <g id="line2d_14">
      <g>
       <use xlink:href="#m630f1b284e" x="90" y="147.6" style="stroke: #000000; stroke-width: 0.8"/>
      </g>
     </g>
     <g id="text_15">
      <!-- 12 -->
      <g style="fill: #0000ff" transform="translate(73 151.0375) scale(0.1 -0.1)">
       <use xlink:href="#SimHei-31"/>
       <use xlink:href="#SimHei-32" x="50"/>
      </g>
     </g>
    </g>
    <g id="ytick_7">
     <g id="line2d_15">
      <g>
       <use xlink:href="#m630f1b284e" x="90" y="107.28" style="stroke: #000000; stroke-width: 0.8"/>
      </g>
     </g>
     <g id="text_16">
      <!-- 14 -->
      <g style="fill: #0000ff" transform="translate(73 110.7175) scale(0.1 -0.1)">
       <use xlink:href="#SimHei-31"/>
       <use xlink:href="#SimHei-34" x="50"/>
      </g>
     </g>
    </g>
    <g id="ytick_8">
     <g id="line2d_16">
      <g>
       <use xlink:href="#m630f1b284e" x="90" y="66.96" style="stroke: #000000; stroke-width: 0.8"/>
      </g>
     </g>
     <g id="text_17">
      <!-- 16 -->
      <g style="fill: #0000ff" transform="translate(73 70.3975) scale(0.1 -0.1)">
       <use xlink:href="#SimHei-31"/>
       <use xlink:href="#SimHei-36" x="50"/>
      </g>
     </g>
    </g>
    <g id="text_18">
     <!-- 需求量 -->
     <g style="fill: #0000ff" transform="translate(67.75 233.16) rotate(-90) scale(0.1 -0.1)">
      <defs>
       <path id="SimHei-9700" d="M 5150 2100 
Q 5500 2100 5975 2125 
L 5975 1700 
Q 5500 1725 5150 1725 
L 3425 1725 
Q 3300 1500 3250 1275 
L 5600 1275 
Q 5575 950 5575 700 
L 5575 -50 
Q 5575 -350 5425 -437 
Q 5275 -525 4775 -625 
Q 4750 -400 4550 -100 
Q 4950 -100 5025 -50 
Q 5100 0 5100 200 
L 5100 900 
L 4125 900 
L 4125 -375 
L 3650 -375 
L 3650 900 
L 2775 900 
L 2775 -375 
L 2300 -375 
L 2300 900 
L 1350 900 
L 1350 -575 
L 875 -575 
Q 900 -225 900 175 
L 900 575 
Q 900 900 875 1275 
L 2800 1275 
Q 2875 1500 2925 1725 
L 1350 1725 
Q 925 1725 525 1700 
L 525 2125 
Q 900 2100 1325 2100 
L 5150 2100 
z
M 4700 5075 
Q 5075 5075 5550 5100 
L 5550 4675 
Q 5075 4700 4700 4700 
L 3475 4700 
L 3475 4275 
L 5975 4275 
L 5975 3100 
L 5500 3100 
L 5500 3900 
L 3475 3900 
L 3475 3200 
Q 3475 2775 3500 2425 
L 2975 2425 
Q 3000 2750 3000 3175 
L 3000 3900 
L 950 3900 
L 950 3100 
L 450 3100 
Q 450 3375 462 3650 
Q 475 3925 450 4275 
L 3000 4275 
L 3000 4700 
L 1775 4700 
Q 1400 4700 1025 4675 
L 1025 5100 
Q 1400 5075 1750 5075 
L 4700 5075 
z
M 2475 2450 
L 1250 2450 
L 1250 2800 
L 2475 2800 
L 2475 2450 
z
M 2500 3150 
L 1325 3150 
L 1325 3500 
L 2500 3500 
L 2500 3150 
z
M 5000 3175 
L 3825 3175 
L 3825 3525 
L 5000 3525 
L 5000 3175 
z
M 5025 2500 
L 3850 2500 
L 3850 2850 
L 5025 2850 
L 5025 2500 
z
" transform="scale(0.015625)"/>
       <path id="SimHei-6c42" d="M 475 4025 
Q 875 4000 1325 4000 
L 2875 4000 
Q 2875 4725 2850 5125 
L 3400 5125 
Q 3375 4725 3375 4000 
L 5150 4000 
Q 5500 4000 5925 4025 
L 5925 3575 
Q 5475 3600 5150 3600 
L 3375 3600 
Q 3400 3200 3612 2750 
Q 3825 2300 4050 2000 
Q 4600 2450 5075 3150 
Q 5250 2950 5575 2750 
Q 5275 2600 4250 1650 
Q 4575 1225 5037 850 
Q 5500 475 6050 325 
Q 5700 125 5550 -150 
Q 5000 150 4437 687 
Q 3875 1225 3375 2375 
L 3375 150 
Q 3400 -225 3137 -350 
Q 2875 -475 2375 -525 
Q 2325 -275 2150 25 
Q 2575 0 2737 37 
Q 2900 75 2875 300 
L 2875 1675 
Q 1875 900 1437 550 
Q 1000 200 725 -50 
Q 500 200 300 400 
Q 650 575 1200 937 
Q 1750 1300 2875 2250 
L 2875 3600 
L 1325 3600 
Q 875 3600 475 3575 
L 475 4025 
z
M 1225 3175 
Q 1775 2725 2250 2325 
L 1825 1950 
Q 1450 2375 825 2825 
L 1225 3175 
z
M 4500 5100 
Q 4900 4825 5300 4425 
Q 5125 4300 4925 4100 
Q 4650 4400 4125 4825 
Q 4275 4950 4500 5100 
z
" transform="scale(0.015625)"/>
       <path id="SimHei-91cf" d="M 5250 2500 
Q 5225 2200 5225 1700 
Q 5225 1225 5250 950 
L 3425 950 
L 3425 625 
L 4575 625 
Q 5000 625 5375 650 
L 5375 275 
Q 5025 300 4575 300 
L 3425 300 
L 3425 -75 
L 5125 -75 
Q 5525 -75 5925 -50 
L 5925 -425 
Q 5525 -400 5125 -400 
L 1275 -400 
Q 900 -400 475 -425 
L 475 -50 
Q 925 -50 1275 -75 
L 2975 -75 
L 2975 300 
L 1725 300 
Q 1350 300 975 250 
L 975 650 
Q 1375 625 1725 625 
L 2975 625 
L 2975 950 
L 1150 950 
Q 1175 1375 1175 1775 
Q 1175 2175 1150 2500 
L 5250 2500 
z
M 5200 4950 
Q 5175 4575 5175 4250 
Q 5175 3925 5200 3400 
L 1200 3400 
Q 1225 3925 1225 4250 
Q 1225 4575 1200 4950 
L 5200 4950 
z
M 4900 3100 
Q 5500 3125 6000 3150 
L 6000 2750 
Q 5500 2775 4925 2775 
L 1650 2775 
Q 975 2775 325 2750 
L 325 3150 
Q 975 3125 1650 3100 
L 4900 3100 
z
M 4725 3700 
L 4725 4025 
L 1675 4025 
L 1675 3700 
L 4725 3700 
z
M 4725 4350 
L 4725 4650 
L 1675 4650 
L 1675 4350 
L 4725 4350 
z
M 4750 1875 
L 4750 2175 
L 3425 2175 
L 3425 1875 
L 4750 1875 
z
M 2975 1875 
L 2975 2175 
L 1650 2175 
L 1650 1875 
L 2975 1875 
z
M 2975 1275 
L 2975 1550 
L 1650 1550 
L 1650 1275 
L 2975 1275 
z
M 4750 1275 
L 4750 1550 
L 3425 1550 
L 3425 1275 
L 4750 1275 
z
" transform="scale(0.015625)"/>
      </defs>
      <use xlink:href="#SimHei-9700"/>
      <use xlink:href="#SimHei-6c42" x="100"/>
      <use xlink:href="#SimHei-91cf" x="200"/>
     </g>
    </g>
   </g>
   <g id="line2d_17">
    <path d="M 115.363636 308.88 
L 124.160273 349.2 
L 132.95691 268.56 
L 135.889122 308.88 
L 138.821335 349.2 
L 150.550184 308.88 
L 153.482396 66.96 
L 159.346821 308.88 
L 179.872307 187.92 
L 200.397793 308.88 
L 203.330005 308.88 
L 212.126642 308.88 
L 217.991067 308.88 
L 223.855491 308.88 
L 264.906463 308.88 
L 276.635313 369.36 
L 291.296374 308.88 
L 297.160799 349.2 
L 300.093011 349.2 
L 311.82186 308.88 
L 314.754073 228.24 
L 317.686285 228.24 
L 320.618497 308.88 
L 323.550709 308.88 
L 335.279559 147.6 
L 341.143983 308.88 
L 344.076195 147.6 
L 347.008408 127.44 
L 352.872832 66.96 
L 355.805045 228.24 
L 358.737257 268.56 
L 361.669469 268.56 
L 364.601682 308.88 
L 367.533894 308.88 
L 370.466106 349.2 
L 379.262743 308.88 
L 382.194955 308.88 
L 396.856017 308.88 
L 405.652654 308.88 
L 426.17814 228.24 
L 437.906989 308.88 
L 440.839201 308.88 
L 452.56805 308.88 
L 458.432475 308.88 
L 464.2969 308.88 
L 467.229112 349.2 
L 476.025749 308.88 
L 481.890173 308.88 
L 490.68681 349.2 
L 496.551235 349.2 
L 499.483447 308.88 
L 502.415659 308.88 
L 505.347872 308.88 
L 511.212296 308.88 
L 520.008933 349.2 
L 522.941146 308.88 
L 525.873358 228.24 
L 534.669995 228.24 
L 537.602207 187.92 
L 540.534419 228.24 
L 543.466632 329.04 
L 546.398844 349.2 
L 549.331056 268.56 
L 552.263269 308.88 
L 555.195481 308.88 
L 561.059905 349.2 
L 563.992118 349.2 
L 575.720967 369.36 
L 590.382028 308.88 
L 593.314241 268.56 
L 599.178665 308.88 
L 605.04309 349.2 
L 607.975302 268.56 
L 610.907514 268.56 
L 622.636364 268.56 
" clip-path="url(#pb2a6bde7d8)" style="fill: none; stroke: #0000ff; stroke-width: 1.5; stroke-linecap: square"/>
    <defs>
     <path id="m25770eb8f8" d="M 0 3 
C 0.795609 3 1.55874 2.683901 2.12132 2.12132 
C 2.683901 1.55874 3 0.795609 3 0 
C 3 -0.795609 2.683901 -1.55874 2.12132 -2.12132 
C 1.55874 -2.683901 0.795609 -3 0 -3 
C -0.795609 -3 -1.55874 -2.683901 -2.12132 -2.12132 
C -2.683901 -1.55874 -3 -0.795609 -3 0 
C -3 0.795609 -2.683901 1.55874 -2.12132 2.12132 
C -1.55874 2.683901 -0.795609 3 0 3 
z
" style="stroke: #0000ff"/>
    </defs>
    <g clip-path="url(#pb2a6bde7d8)">
     <use xlink:href="#m25770eb8f8" x="115.363636" y="308.88" style="fill: #0000ff; stroke: #0000ff"/>
     <use xlink:href="#m25770eb8f8" x="124.160273" y="349.2" style="fill: #0000ff; stroke: #0000ff"/>
     <use xlink:href="#m25770eb8f8" x="132.95691" y="268.56" style="fill: #0000ff; stroke: #0000ff"/>
     <use xlink:href="#m25770eb8f8" x="135.889122" y="308.88" style="fill: #0000ff; stroke: #0000ff"/>
     <use xlink:href="#m25770eb8f8" x="138.821335" y="349.2" style="fill: #0000ff; stroke: #0000ff"/>
     <use xlink:href="#m25770eb8f8" x="150.550184" y="308.88" style="fill: #0000ff; stroke: #0000ff"/>
     <use xlink:href="#m25770eb8f8" x="153.482396" y="66.96" style="fill: #0000ff; stroke: #0000ff"/>
     <use xlink:href="#m25770eb8f8" x="159.346821" y="308.88" style="fill: #0000ff; stroke: #0000ff"/>
     <use xlink:href="#m25770eb8f8" x="179.872307" y="187.92" style="fill: #0000ff; stroke: #0000ff"/>
     <use xlink:href="#m25770eb8f8" x="200.397793" y="308.88" style="fill: #0000ff; stroke: #0000ff"/>
     <use xlink:href="#m25770eb8f8" x="203.330005" y="308.88" style="fill: #0000ff; stroke: #0000ff"/>
     <use xlink:href="#m25770eb8f8" x="212.126642" y="308.88" style="fill: #0000ff; stroke: #0000ff"/>
     <use xlink:href="#m25770eb8f8" x="217.991067" y="308.88" style="fill: #0000ff; stroke: #0000ff"/>
     <use xlink:href="#m25770eb8f8" x="223.855491" y="308.88" style="fill: #0000ff; stroke: #0000ff"/>
     <use xlink:href="#m25770eb8f8" x="264.906463" y="308.88" style="fill: #0000ff; stroke: #0000ff"/>
     <use xlink:href="#m25770eb8f8" x="276.635313" y="369.36" style="fill: #0000ff; stroke: #0000ff"/>
     <use xlink:href="#m25770eb8f8" x="291.296374" y="308.88" style="fill: #0000ff; stroke: #0000ff"/>
     <use xlink:href="#m25770eb8f8" x="297.160799" y="349.2" style="fill: #0000ff; stroke: #0000ff"/>
     <use xlink:href="#m25770eb8f8" x="300.093011" y="349.2" style="fill: #0000ff; stroke: #0000ff"/>
     <use xlink:href="#m25770eb8f8" x="311.82186" y="308.88" style="fill: #0000ff; stroke: #0000ff"/>
     <use xlink:href="#m25770eb8f8" x="314.754073" y="228.24" style="fill: #0000ff; stroke: #0000ff"/>
     <use xlink:href="#m25770eb8f8" x="317.686285" y="228.24" style="fill: #0000ff; stroke: #0000ff"/>
     <use xlink:href="#m25770eb8f8" x="320.618497" y="308.88" style="fill: #0000ff; stroke: #0000ff"/>
     <use xlink:href="#m25770eb8f8" x="323.550709" y="308.88" style="fill: #0000ff; stroke: #0000ff"/>
     <use xlink:href="#m25770eb8f8" x="335.279559" y="147.6" style="fill: #0000ff; stroke: #0000ff"/>
     <use xlink:href="#m25770eb8f8" x="341.143983" y="308.88" style="fill: #0000ff; stroke: #0000ff"/>
     <use xlink:href="#m25770eb8f8" x="344.076195" y="147.6" style="fill: #0000ff; stroke: #0000ff"/>
     <use xlink:href="#m25770eb8f8" x="347.008408" y="127.44" style="fill: #0000ff; stroke: #0000ff"/>
     <use xlink:href="#m25770eb8f8" x="352.872832" y="66.96" style="fill: #0000ff; stroke: #0000ff"/>
     <use xlink:href="#m25770eb8f8" x="355.805045" y="228.24" style="fill: #0000ff; stroke: #0000ff"/>
     <use xlink:href="#m25770eb8f8" x="358.737257" y="268.56" style="fill: #0000ff; stroke: #0000ff"/>
     <use xlink:href="#m25770eb8f8" x="361.669469" y="268.56" style="fill: #0000ff; stroke: #0000ff"/>
     <use xlink:href="#m25770eb8f8" x="364.601682" y="308.88" style="fill: #0000ff; stroke: #0000ff"/>
     <use xlink:href="#m25770eb8f8" x="367.533894" y="308.88" style="fill: #0000ff; stroke: #0000ff"/>
     <use xlink:href="#m25770eb8f8" x="370.466106" y="349.2" style="fill: #0000ff; stroke: #0000ff"/>
     <use xlink:href="#m25770eb8f8" x="379.262743" y="308.88" style="fill: #0000ff; stroke: #0000ff"/>
     <use xlink:href="#m25770eb8f8" x="382.194955" y="308.88" style="fill: #0000ff; stroke: #0000ff"/>
     <use xlink:href="#m25770eb8f8" x="396.856017" y="308.88" style="fill: #0000ff; stroke: #0000ff"/>
     <use xlink:href="#m25770eb8f8" x="405.652654" y="308.88" style="fill: #0000ff; stroke: #0000ff"/>
     <use xlink:href="#m25770eb8f8" x="426.17814" y="228.24" style="fill: #0000ff; stroke: #0000ff"/>
     <use xlink:href="#m25770eb8f8" x="437.906989" y="308.88" style="fill: #0000ff; stroke: #0000ff"/>
     <use xlink:href="#m25770eb8f8" x="440.839201" y="308.88" style="fill: #0000ff; stroke: #0000ff"/>
     <use xlink:href="#m25770eb8f8" x="452.56805" y="308.88" style="fill: #0000ff; stroke: #0000ff"/>
     <use xlink:href="#m25770eb8f8" x="458.432475" y="308.88" style="fill: #0000ff; stroke: #0000ff"/>
     <use xlink:href="#m25770eb8f8" x="464.2969" y="308.88" style="fill: #0000ff; stroke: #0000ff"/>
     <use xlink:href="#m25770eb8f8" x="467.229112" y="349.2" style="fill: #0000ff; stroke: #0000ff"/>
     <use xlink:href="#m25770eb8f8" x="476.025749" y="308.88" style="fill: #0000ff; stroke: #0000ff"/>
     <use xlink:href="#m25770eb8f8" x="481.890173" y="308.88" style="fill: #0000ff; stroke: #0000ff"/>
     <use xlink:href="#m25770eb8f8" x="490.68681" y="349.2" style="fill: #0000ff; stroke: #0000ff"/>
     <use xlink:href="#m25770eb8f8" x="496.551235" y="349.2" style="fill: #0000ff; stroke: #0000ff"/>
     <use xlink:href="#m25770eb8f8" x="499.483447" y="308.88" style="fill: #0000ff; stroke: #0000ff"/>
     <use xlink:href="#m25770eb8f8" x="502.415659" y="308.88" style="fill: #0000ff; stroke: #0000ff"/>
     <use xlink:href="#m25770eb8f8" x="505.347872" y="308.88" style="fill: #0000ff; stroke: #0000ff"/>
     <use xlink:href="#m25770eb8f8" x="511.212296" y="308.88" style="fill: #0000ff; stroke: #0000ff"/>
     <use xlink:href="#m25770eb8f8" x="520.008933" y="349.2" style="fill: #0000ff; stroke: #0000ff"/>
     <use xlink:href="#m25770eb8f8" x="522.941146" y="308.88" style="fill: #0000ff; stroke: #0000ff"/>
     <use xlink:href="#m25770eb8f8" x="525.873358" y="228.24" style="fill: #0000ff; stroke: #0000ff"/>
     <use xlink:href="#m25770eb8f8" x="534.669995" y="228.24" style="fill: #0000ff; stroke: #0000ff"/>
     <use xlink:href="#m25770eb8f8" x="537.602207" y="187.92" style="fill: #0000ff; stroke: #0000ff"/>
     <use xlink:href="#m25770eb8f8" x="540.534419" y="228.24" style="fill: #0000ff; stroke: #0000ff"/>
     <use xlink:href="#m25770eb8f8" x="543.466632" y="329.04" style="fill: #0000ff; stroke: #0000ff"/>
     <use xlink:href="#m25770eb8f8" x="546.398844" y="349.2" style="fill: #0000ff; stroke: #0000ff"/>
     <use xlink:href="#m25770eb8f8" x="549.331056" y="268.56" style="fill: #0000ff; stroke: #0000ff"/>
     <use xlink:href="#m25770eb8f8" x="552.263269" y="308.88" style="fill: #0000ff; stroke: #0000ff"/>
     <use xlink:href="#m25770eb8f8" x="555.195481" y="308.88" style="fill: #0000ff; stroke: #0000ff"/>
     <use xlink:href="#m25770eb8f8" x="561.059905" y="349.2" style="fill: #0000ff; stroke: #0000ff"/>
     <use xlink:href="#m25770eb8f8" x="563.992118" y="349.2" style="fill: #0000ff; stroke: #0000ff"/>
     <use xlink:href="#m25770eb8f8" x="575.720967" y="369.36" style="fill: #0000ff; stroke: #0000ff"/>
     <use xlink:href="#m25770eb8f8" x="590.382028" y="308.88" style="fill: #0000ff; stroke: #0000ff"/>
     <use xlink:href="#m25770eb8f8" x="593.314241" y="268.56" style="fill: #0000ff; stroke: #0000ff"/>
     <use xlink:href="#m25770eb8f8" x="599.178665" y="308.88" style="fill: #0000ff; stroke: #0000ff"/>
     <use xlink:href="#m25770eb8f8" x="605.04309" y="349.2" style="fill: #0000ff; stroke: #0000ff"/>
     <use xlink:href="#m25770eb8f8" x="607.975302" y="268.56" style="fill: #0000ff; stroke: #0000ff"/>
     <use xlink:href="#m25770eb8f8" x="610.907514" y="268.56" style="fill: #0000ff; stroke: #0000ff"/>
     <use xlink:href="#m25770eb8f8" x="622.636364" y="268.56" style="fill: #0000ff; stroke: #0000ff"/>
    </g>
   </g>
   <g id="patch_3">
    <path d="M 90 384.48 
L 90 51.84 
" style="fill: none; stroke: #000000; stroke-width: 0.8; stroke-linejoin: miter; stroke-linecap: square"/>
   </g>
   <g id="patch_4">
    <path d="M 648 384.48 
L 648 51.84 
" style="fill: none; stroke: #000000; stroke-width: 0.8; stroke-linejoin: miter; stroke-linecap: square"/>
   </g>
   <g id="patch_5">
    <path d="M 90 384.48 
L 648 384.48 
" style="fill: none; stroke: #000000; stroke-width: 0.8; stroke-linejoin: miter; stroke-linecap: square"/>
   </g>
   <g id="patch_6">
    <path d="M 90 51.84 
L 648 51.84 
" style="fill: none; stroke: #000000; stroke-width: 0.8; stroke-linejoin: miter; stroke-linecap: square"/>
   </g>
  </g>
  <g id="axes_2">
   <g id="matplotlib.axis_3">
    <g id="ytick_9">
     <g id="line2d_18">
      <defs>
       <path id="m73d74c2714" d="M 0 0 
L 3.5 0 
" style="stroke: #000000; stroke-width: 0.8"/>
      </defs>
      <g>
       <use xlink:href="#m73d74c2714" x="648" y="328.150041" style="stroke: #000000; stroke-width: 0.8"/>
      </g>
     </g>
     <g id="text_19">
      <!-- 20000 -->
      <g style="fill: #008000" transform="translate(655 331.587541) scale(0.1 -0.1)">
       <use xlink:href="#SimHei-32"/>
       <use xlink:href="#SimHei-30" x="50"/>
       <use xlink:href="#SimHei-30" x="100"/>
       <use xlink:href="#SimHei-30" x="150"/>
       <use xlink:href="#SimHei-30" x="200"/>
      </g>
     </g>
    </g>
    <g id="ytick_10">
     <g id="line2d_19">
      <g>
       <use xlink:href="#m73d74c2714" x="648" y="267.931672" style="stroke: #000000; stroke-width: 0.8"/>
      </g>
     </g>
     <g id="text_20">
      <!-- 40000 -->
      <g style="fill: #008000" transform="translate(655 271.369172) scale(0.1 -0.1)">
       <use xlink:href="#SimHei-34"/>
       <use xlink:href="#SimHei-30" x="50"/>
       <use xlink:href="#SimHei-30" x="100"/>
       <use xlink:href="#SimHei-30" x="150"/>
       <use xlink:href="#SimHei-30" x="200"/>
      </g>
     </g>
    </g>
    <g id="ytick_11">
     <g id="line2d_20">
      <g>
       <use xlink:href="#m73d74c2714" x="648" y="207.713303" style="stroke: #000000; stroke-width: 0.8"/>
      </g>
     </g>
     <g id="text_21">
      <!-- 60000 -->
      <g style="fill: #008000" transform="translate(655 211.150803) scale(0.1 -0.1)">
       <use xlink:href="#SimHei-36"/>
       <use xlink:href="#SimHei-30" x="50"/>
       <use xlink:href="#SimHei-30" x="100"/>
       <use xlink:href="#SimHei-30" x="150"/>
       <use xlink:href="#SimHei-30" x="200"/>
      </g>
     </g>
    </g>
    <g id="ytick_12">
     <g id="line2d_21">
      <g>
       <use xlink:href="#m73d74c2714" x="648" y="147.494933" style="stroke: #000000; stroke-width: 0.8"/>
      </g>
     </g>
     <g id="text_22">
      <!-- 80000 -->
      <g style="fill: #008000" transform="translate(655 150.932433) scale(0.1 -0.1)">
       <use xlink:href="#SimHei-38"/>
       <use xlink:href="#SimHei-30" x="50"/>
       <use xlink:href="#SimHei-30" x="100"/>
       <use xlink:href="#SimHei-30" x="150"/>
       <use xlink:href="#SimHei-30" x="200"/>
      </g>
     </g>
    </g>
    <g id="ytick_13">
     <g id="line2d_22">
      <g>
       <use xlink:href="#m73d74c2714" x="648" y="87.276564" style="stroke: #000000; stroke-width: 0.8"/>
      </g>
     </g>
     <g id="text_23">
      <!-- 100000 -->
      <g style="fill: #008000" transform="translate(655 90.714064) scale(0.1 -0.1)">
       <use xlink:href="#SimHei-31"/>
       <use xlink:href="#SimHei-30" x="50"/>
       <use xlink:href="#SimHei-30" x="100"/>
       <use xlink:href="#SimHei-30" x="150"/>
       <use xlink:href="#SimHei-30" x="200"/>
       <use xlink:href="#SimHei-30" x="250"/>
      </g>
     </g>
    </g>
    <g id="text_24">
     <!-- 收益 -->
     <g style="fill: #008000" transform="translate(696.929688 228.16) rotate(-90) scale(0.1 -0.1)">
      <defs>
       <path id="SimHei-6536" d="M 4250 5050 
Q 4125 4850 3750 4050 
L 5150 4050 
Q 5675 4050 6125 4075 
L 6125 3600 
Q 5675 3625 5300 3625 
Q 5225 2625 5025 1975 
Q 4825 1325 4575 900 
Q 4900 500 5287 275 
Q 5675 50 6200 -75 
Q 5900 -275 5800 -550 
Q 5300 -350 4950 -100 
Q 4600 150 4275 525 
Q 3800 0 2775 -625 
Q 2650 -425 2300 -225 
Q 3275 150 3950 925 
Q 3775 1325 3612 1787 
Q 3450 2250 3250 3000 
Q 2975 2450 2825 2275 
Q 2650 2400 2425 2525 
Q 2775 3025 3137 3837 
Q 3500 4650 3625 5250 
Q 3925 5125 4250 5050 
z
M 975 4275 
Q 925 3950 925 3450 
L 925 1575 
L 1775 1725 
L 1775 4425 
Q 1775 4775 1750 5150 
L 2250 5150 
Q 2225 4850 2225 4450 
L 2225 300 
Q 2225 -50 2250 -550 
L 1750 -550 
Q 1775 -25 1775 350 
L 1775 1350 
Q 625 1050 500 925 
Q 375 1125 225 1350 
Q 450 1475 450 1800 
L 450 3575 
Q 450 3925 425 4275 
L 975 4275 
z
M 3725 3150 
Q 3800 2700 3962 2212 
Q 4125 1725 4300 1375 
Q 4725 2150 4825 3625 
L 3575 3625 
Q 3400 3275 3300 3100 
L 3725 3150 
z
" transform="scale(0.015625)"/>
       <path id="SimHei-76ca" d="M 2825 2925 
Q 2425 2775 2012 2487 
Q 1600 2200 1225 1975 
L 5275 1975 
Q 5250 1575 5250 1000 
L 5250 -50 
Q 5800 -50 6175 -25 
L 6175 -525 
Q 5725 -500 5250 -500 
L 1325 -500 
Q 700 -500 250 -525 
L 250 -25 
Q 600 -50 1175 -50 
L 1175 1050 
Q 1175 1575 1150 1925 
Q 1000 1800 800 1700 
Q 650 1950 425 2125 
Q 800 2275 1312 2600 
Q 1825 2925 2325 3400 
Q 2550 3150 2825 2925 
z
M 4725 5050 
Q 4575 4900 4462 4637 
Q 4350 4375 4175 4075 
L 4625 4075 
Q 5350 4075 5900 4100 
L 5900 3625 
Q 5350 3650 4625 3650 
L 1975 3650 
Q 1350 3650 550 3625 
L 550 4100 
Q 1175 4075 1975 4075 
L 3675 4075 
Q 3775 4300 3887 4625 
Q 4000 4950 4125 5250 
L 4725 5050 
z
M 3600 -50 
L 3600 1575 
L 2800 1575 
L 2800 -50 
L 3600 -50 
z
M 4800 -50 
L 4800 1575 
L 4025 1575 
L 4025 -50 
L 4800 -50 
z
M 2375 -50 
L 2375 1575 
L 1625 1575 
L 1625 -50 
L 2375 -50 
z
M 3900 3350 
Q 4375 3150 4900 2925 
Q 5425 2700 5900 2500 
Q 5700 2300 5550 2000 
Q 5025 2300 4512 2537 
Q 4000 2775 3625 2900 
Q 3750 3075 3900 3350 
z
M 2150 5250 
Q 2375 4925 2650 4350 
Q 2425 4275 2150 4125 
Q 1950 4650 1675 5025 
Q 1875 5100 2150 5250 
z
" transform="scale(0.015625)"/>
      </defs>
      <use xlink:href="#SimHei-6536"/>
      <use xlink:href="#SimHei-76ca" x="100"/>
     </g>
    </g>
   </g>
   <g id="line2d_23">
    <path d="M 115.363636 307.12912 
L 124.160273 347.282862 
L 132.95691 272.70181 
L 135.889122 311.257343 
L 138.821335 349.0314 
L 150.550184 310.534562 
L 153.482396 66.96 
L 159.346821 310.534562 
L 179.872307 193.78379 
L 200.397793 310.534562 
L 203.330005 312.33477 
L 212.126642 312.334787 
L 217.991067 312.33477 
L 223.855491 312.33477 
L 264.906463 312.33477 
L 276.635313 369.36 
L 291.296374 312.33477 
L 297.160799 350.35159 
L 300.093011 350.351599 
L 311.82186 312.334787 
L 314.754073 236.896996 
L 317.686285 237.52039 
L 320.618497 312.958181 
L 323.550709 313.140085 
L 335.279559 162.055276 
L 341.143983 312.930699 
L 344.076195 162.055277 
L 347.008408 143.457583 
L 352.872832 87.31567 
L 355.805045 237.84204 
L 358.737257 274.709223 
L 361.669469 272.694836 
L 364.601682 311.27214 
L 367.533894 311.27214 
L 370.466106 349.820275 
L 379.262743 311.27214 
L 382.194955 310.932156 
L 396.856017 311.145337 
L 405.652654 310.932164 
L 426.17814 233.49591 
L 437.906989 310.932156 
L 440.839201 310.932164 
L 452.56805 310.932164 
L 458.432475 310.866155 
L 464.2969 310.866155 
L 467.229112 349.617283 
L 476.025749 310.799573 
L 481.890173 310.799573 
L 490.68681 349.583991 
L 496.551235 349.583991 
L 499.483447 310.799573 
L 502.415659 310.840064 
L 505.347872 310.799573 
L 511.212296 310.972745 
L 520.008933 349.611969 
L 522.941146 310.855527 
L 525.873358 233.342647 
L 534.669995 232.789592 
L 537.602207 194.125325 
L 540.534419 232.973942 
L 543.466632 330.049397 
L 546.398844 349.393576 
L 549.331056 271.443908 
L 552.263269 310.418742 
L 555.195481 310.418742 
L 561.059905 349.393576 
L 563.992118 349.393576 
L 575.720967 368.876396 
L 590.382028 310.418742 
L 593.314241 270.79399 
L 599.178665 309.778019 
L 605.04309 349.073214 
L 607.975302 269.724252 
L 610.907514 269.724252 
L 622.636364 269.724252 
" clip-path="url(#pb2a6bde7d8)" style="fill: none; stroke: #008000; stroke-width: 1.5; stroke-linecap: square"/>
    <defs>
     <path id="m60e09784dc" d="M 0 3 
C 0.795609 3 1.55874 2.683901 2.12132 2.12132 
C 2.683901 1.55874 3 0.795609 3 0 
C 3 -0.795609 2.683901 -1.55874 2.12132 -2.12132 
C 1.55874 -2.683901 0.795609 -3 0 -3 
C -0.795609 -3 -1.55874 -2.683901 -2.12132 -2.12132 
C -2.683901 -1.55874 -3 -0.795609 -3 0 
C -3 0.795609 -2.683901 1.55874 -2.12132 2.12132 
C -1.55874 2.683901 -0.795609 3 0 3 
z
" style="stroke: #008000"/>
    </defs>
    <g clip-path="url(#pb2a6bde7d8)">
     <use xlink:href="#m60e09784dc" x="115.363636" y="307.12912" style="fill: #008000; stroke: #008000"/>
     <use xlink:href="#m60e09784dc" x="124.160273" y="347.282862" style="fill: #008000; stroke: #008000"/>
     <use xlink:href="#m60e09784dc" x="132.95691" y="272.70181" style="fill: #008000; stroke: #008000"/>
     <use xlink:href="#m60e09784dc" x="135.889122" y="311.257343" style="fill: #008000; stroke: #008000"/>
     <use xlink:href="#m60e09784dc" x="138.821335" y="349.0314" style="fill: #008000; stroke: #008000"/>
     <use xlink:href="#m60e09784dc" x="150.550184" y="310.534562" style="fill: #008000; stroke: #008000"/>
     <use xlink:href="#m60e09784dc" x="153.482396" y="66.96" style="fill: #008000; stroke: #008000"/>
     <use xlink:href="#m60e09784dc" x="159.346821" y="310.534562" style="fill: #008000; stroke: #008000"/>
     <use xlink:href="#m60e09784dc" x="179.872307" y="193.78379" style="fill: #008000; stroke: #008000"/>
     <use xlink:href="#m60e09784dc" x="200.397793" y="310.534562" style="fill: #008000; stroke: #008000"/>
     <use xlink:href="#m60e09784dc" x="203.330005" y="312.33477" style="fill: #008000; stroke: #008000"/>
     <use xlink:href="#m60e09784dc" x="212.126642" y="312.334787" style="fill: #008000; stroke: #008000"/>
     <use xlink:href="#m60e09784dc" x="217.991067" y="312.33477" style="fill: #008000; stroke: #008000"/>
     <use xlink:href="#m60e09784dc" x="223.855491" y="312.33477" style="fill: #008000; stroke: #008000"/>
     <use xlink:href="#m60e09784dc" x="264.906463" y="312.33477" style="fill: #008000; stroke: #008000"/>
     <use xlink:href="#m60e09784dc" x="276.635313" y="369.36" style="fill: #008000; stroke: #008000"/>
     <use xlink:href="#m60e09784dc" x="291.296374" y="312.33477" style="fill: #008000; stroke: #008000"/>
     <use xlink:href="#m60e09784dc" x="297.160799" y="350.35159" style="fill: #008000; stroke: #008000"/>
     <use xlink:href="#m60e09784dc" x="300.093011" y="350.351599" style="fill: #008000; stroke: #008000"/>
     <use xlink:href="#m60e09784dc" x="311.82186" y="312.334787" style="fill: #008000; stroke: #008000"/>
     <use xlink:href="#m60e09784dc" x="314.754073" y="236.896996" style="fill: #008000; stroke: #008000"/>
     <use xlink:href="#m60e09784dc" x="317.686285" y="237.52039" style="fill: #008000; stroke: #008000"/>
     <use xlink:href="#m60e09784dc" x="320.618497" y="312.958181" style="fill: #008000; stroke: #008000"/>
     <use xlink:href="#m60e09784dc" x="323.550709" y="313.140085" style="fill: #008000; stroke: #008000"/>
     <use xlink:href="#m60e09784dc" x="335.279559" y="162.055276" style="fill: #008000; stroke: #008000"/>
     <use xlink:href="#m60e09784dc" x="341.143983" y="312.930699" style="fill: #008000; stroke: #008000"/>
     <use xlink:href="#m60e09784dc" x="344.076195" y="162.055277" style="fill: #008000; stroke: #008000"/>
     <use xlink:href="#m60e09784dc" x="347.008408" y="143.457583" style="fill: #008000; stroke: #008000"/>
     <use xlink:href="#m60e09784dc" x="352.872832" y="87.31567" style="fill: #008000; stroke: #008000"/>
     <use xlink:href="#m60e09784dc" x="355.805045" y="237.84204" style="fill: #008000; stroke: #008000"/>
     <use xlink:href="#m60e09784dc" x="358.737257" y="274.709223" style="fill: #008000; stroke: #008000"/>
     <use xlink:href="#m60e09784dc" x="361.669469" y="272.694836" style="fill: #008000; stroke: #008000"/>
     <use xlink:href="#m60e09784dc" x="364.601682" y="311.27214" style="fill: #008000; stroke: #008000"/>
     <use xlink:href="#m60e09784dc" x="367.533894" y="311.27214" style="fill: #008000; stroke: #008000"/>
     <use xlink:href="#m60e09784dc" x="370.466106" y="349.820275" style="fill: #008000; stroke: #008000"/>
     <use xlink:href="#m60e09784dc" x="379.262743" y="311.27214" style="fill: #008000; stroke: #008000"/>
     <use xlink:href="#m60e09784dc" x="382.194955" y="310.932156" style="fill: #008000; stroke: #008000"/>
     <use xlink:href="#m60e09784dc" x="396.856017" y="311.145337" style="fill: #008000; stroke: #008000"/>
     <use xlink:href="#m60e09784dc" x="405.652654" y="310.932164" style="fill: #008000; stroke: #008000"/>
     <use xlink:href="#m60e09784dc" x="426.17814" y="233.49591" style="fill: #008000; stroke: #008000"/>
     <use xlink:href="#m60e09784dc" x="437.906989" y="310.932156" style="fill: #008000; stroke: #008000"/>
     <use xlink:href="#m60e09784dc" x="440.839201" y="310.932164" style="fill: #008000; stroke: #008000"/>
     <use xlink:href="#m60e09784dc" x="452.56805" y="310.932164" style="fill: #008000; stroke: #008000"/>
     <use xlink:href="#m60e09784dc" x="458.432475" y="310.866155" style="fill: #008000; stroke: #008000"/>
     <use xlink:href="#m60e09784dc" x="464.2969" y="310.866155" style="fill: #008000; stroke: #008000"/>
     <use xlink:href="#m60e09784dc" x="467.229112" y="349.617283" style="fill: #008000; stroke: #008000"/>
     <use xlink:href="#m60e09784dc" x="476.025749" y="310.799573" style="fill: #008000; stroke: #008000"/>
     <use xlink:href="#m60e09784dc" x="481.890173" y="310.799573" style="fill: #008000; stroke: #008000"/>
     <use xlink:href="#m60e09784dc" x="490.68681" y="349.583991" style="fill: #008000; stroke: #008000"/>
     <use xlink:href="#m60e09784dc" x="496.551235" y="349.583991" style="fill: #008000; stroke: #008000"/>
     <use xlink:href="#m60e09784dc" x="499.483447" y="310.799573" style="fill: #008000; stroke: #008000"/>
     <use xlink:href="#m60e09784dc" x="502.415659" y="310.840064" style="fill: #008000; stroke: #008000"/>
     <use xlink:href="#m60e09784dc" x="505.347872" y="310.799573" style="fill: #008000; stroke: #008000"/>
     <use xlink:href="#m60e09784dc" x="511.212296" y="310.972745" style="fill: #008000; stroke: #008000"/>
     <use xlink:href="#m60e09784dc" x="520.008933" y="349.611969" style="fill: #008000; stroke: #008000"/>
     <use xlink:href="#m60e09784dc" x="522.941146" y="310.855527" style="fill: #008000; stroke: #008000"/>
     <use xlink:href="#m60e09784dc" x="525.873358" y="233.342647" style="fill: #008000; stroke: #008000"/>
     <use xlink:href="#m60e09784dc" x="534.669995" y="232.789592" style="fill: #008000; stroke: #008000"/>
     <use xlink:href="#m60e09784dc" x="537.602207" y="194.125325" style="fill: #008000; stroke: #008000"/>
     <use xlink:href="#m60e09784dc" x="540.534419" y="232.973942" style="fill: #008000; stroke: #008000"/>
     <use xlink:href="#m60e09784dc" x="543.466632" y="330.049397" style="fill: #008000; stroke: #008000"/>
     <use xlink:href="#m60e09784dc" x="546.398844" y="349.393576" style="fill: #008000; stroke: #008000"/>
     <use xlink:href="#m60e09784dc" x="549.331056" y="271.443908" style="fill: #008000; stroke: #008000"/>
     <use xlink:href="#m60e09784dc" x="552.263269" y="310.418742" style="fill: #008000; stroke: #008000"/>
     <use xlink:href="#m60e09784dc" x="555.195481" y="310.418742" style="fill: #008000; stroke: #008000"/>
     <use xlink:href="#m60e09784dc" x="561.059905" y="349.393576" style="fill: #008000; stroke: #008000"/>
     <use xlink:href="#m60e09784dc" x="563.992118" y="349.393576" style="fill: #008000; stroke: #008000"/>
     <use xlink:href="#m60e09784dc" x="575.720967" y="368.876396" style="fill: #008000; stroke: #008000"/>
     <use xlink:href="#m60e09784dc" x="590.382028" y="310.418742" style="fill: #008000; stroke: #008000"/>
     <use xlink:href="#m60e09784dc" x="593.314241" y="270.79399" style="fill: #008000; stroke: #008000"/>
     <use xlink:href="#m60e09784dc" x="599.178665" y="309.778019" style="fill: #008000; stroke: #008000"/>
     <use xlink:href="#m60e09784dc" x="605.04309" y="349.073214" style="fill: #008000; stroke: #008000"/>
     <use xlink:href="#m60e09784dc" x="607.975302" y="269.724252" style="fill: #008000; stroke: #008000"/>
     <use xlink:href="#m60e09784dc" x="610.907514" y="269.724252" style="fill: #008000; stroke: #008000"/>
     <use xlink:href="#m60e09784dc" x="622.636364" y="269.724252" style="fill: #008000; stroke: #008000"/>
    </g>
   </g>
   <g id="patch_7">
    <path d="M 90 384.48 
L 90 51.84 
" style="fill: none; stroke: #000000; stroke-width: 0.8; stroke-linejoin: miter; stroke-linecap: square"/>
   </g>
   <g id="patch_8">
    <path d="M 648 384.48 
L 648 51.84 
" style="fill: none; stroke: #000000; stroke-width: 0.8; stroke-linejoin: miter; stroke-linecap: square"/>
   </g>
   <g id="patch_9">
    <path d="M 90 384.48 
L 648 384.48 
" style="fill: none; stroke: #000000; stroke-width: 0.8; stroke-linejoin: miter; stroke-linecap: square"/>
   </g>
   <g id="patch_10">
    <path d="M 90 51.84 
L 648 51.84 
" style="fill: none; stroke: #000000; stroke-width: 0.8; stroke-linejoin: miter; stroke-linecap: square"/>
   </g>
  </g>
  <g id="axes_3">
   <g id="matplotlib.axis_4">
    <g id="ytick_14">
     <g id="line2d_24">
      <g>
       <use xlink:href="#m73d74c2714" x="708" y="341.187024" style="stroke: #000000; stroke-width: 0.8"/>
      </g>
     </g>
     <g id="text_25">
      <!-- 6300 -->
      <g style="fill: #ff0000" transform="translate(715 344.624524) scale(0.1 -0.1)">
       <defs>
        <path id="SimHei-33" d="M 250 1225 
L 700 1300 
Q 800 975 1025 762 
Q 1250 550 1587 562 
Q 1925 575 2125 837 
Q 2325 1100 2300 1437 
Q 2275 1775 2037 1962 
Q 1800 2150 1275 2225 
L 1275 2550 
Q 1800 2600 2037 2825 
Q 2275 3050 2250 3412 
Q 2225 3775 1925 3937 
Q 1625 4100 1287 3975 
Q 950 3850 750 3275 
L 300 3350 
Q 450 3800 712 4100 
Q 975 4400 1425 4450 
Q 1875 4500 2212 4337 
Q 2550 4175 2687 3837 
Q 2825 3500 2725 3100 
Q 2625 2700 2150 2400 
Q 2500 2250 2687 1950 
Q 2875 1650 2812 1162 
Q 2750 675 2375 375 
Q 2000 75 1525 87 
Q 1050 100 700 387 
Q 350 675 250 1225 
z
" transform="scale(0.015625)"/>
       </defs>
       <use xlink:href="#SimHei-36"/>
       <use xlink:href="#SimHei-33" x="50"/>
       <use xlink:href="#SimHei-30" x="100"/>
       <use xlink:href="#SimHei-30" x="150"/>
      </g>
     </g>
    </g>
    <g id="ytick_15">
     <g id="line2d_25">
      <g>
       <use xlink:href="#m73d74c2714" x="708" y="288.729486" style="stroke: #000000; stroke-width: 0.8"/>
      </g>
     </g>
     <g id="text_26">
      <!-- 6400 -->
      <g style="fill: #ff0000" transform="translate(715 292.166986) scale(0.1 -0.1)">
       <use xlink:href="#SimHei-36"/>
       <use xlink:href="#SimHei-34" x="50"/>
       <use xlink:href="#SimHei-30" x="100"/>
       <use xlink:href="#SimHei-30" x="150"/>
      </g>
     </g>
    </g>
    <g id="ytick_16">
     <g id="line2d_26">
      <g>
       <use xlink:href="#m73d74c2714" x="708" y="236.271948" style="stroke: #000000; stroke-width: 0.8"/>
      </g>
     </g>
     <g id="text_27">
      <!-- 6500 -->
      <g style="fill: #ff0000" transform="translate(715 239.709448) scale(0.1 -0.1)">
       <use xlink:href="#SimHei-36"/>
       <use xlink:href="#SimHei-35" x="50"/>
       <use xlink:href="#SimHei-30" x="100"/>
       <use xlink:href="#SimHei-30" x="150"/>
      </g>
     </g>
    </g>
    <g id="ytick_17">
     <g id="line2d_27">
      <g>
       <use xlink:href="#m73d74c2714" x="708" y="183.814411" style="stroke: #000000; stroke-width: 0.8"/>
      </g>
     </g>
     <g id="text_28">
      <!-- 6600 -->
      <g style="fill: #ff0000" transform="translate(715 187.251911) scale(0.1 -0.1)">
       <use xlink:href="#SimHei-36"/>
       <use xlink:href="#SimHei-36" x="50"/>
       <use xlink:href="#SimHei-30" x="100"/>
       <use xlink:href="#SimHei-30" x="150"/>
      </g>
     </g>
    </g>
    <g id="ytick_18">
     <g id="line2d_28">
      <g>
       <use xlink:href="#m73d74c2714" x="708" y="131.356873" style="stroke: #000000; stroke-width: 0.8"/>
      </g>
     </g>
     <g id="text_29">
      <!-- 6700 -->
      <g style="fill: #ff0000" transform="translate(715 134.794373) scale(0.1 -0.1)">
       <use xlink:href="#SimHei-36"/>
       <use xlink:href="#SimHei-37" x="50"/>
       <use xlink:href="#SimHei-30" x="100"/>
       <use xlink:href="#SimHei-30" x="150"/>
      </g>
     </g>
    </g>
    <g id="ytick_19">
     <g id="line2d_29">
      <g>
       <use xlink:href="#m73d74c2714" x="708" y="78.899336" style="stroke: #000000; stroke-width: 0.8"/>
      </g>
     </g>
     <g id="text_30">
      <!-- 6800 -->
      <g style="fill: #ff0000" transform="translate(715 82.336836) scale(0.1 -0.1)">
       <use xlink:href="#SimHei-36"/>
       <use xlink:href="#SimHei-38" x="50"/>
       <use xlink:href="#SimHei-30" x="100"/>
       <use xlink:href="#SimHei-30" x="150"/>
      </g>
     </g>
    </g>
    <g id="text_31">
     <!-- 平均单价 -->
     <g style="fill: #ff0000" transform="translate(747.007812 238.16) rotate(-90) scale(0.1 -0.1)">
      <defs>
       <path id="SimHei-5e73" d="M 4525 4825 
Q 4900 4825 5450 4850 
L 5450 4375 
Q 4925 4400 4525 4400 
L 3475 4400 
L 3475 2025 
L 5000 2025 
Q 5550 2025 6025 2050 
L 6025 1575 
Q 5550 1600 5000 1600 
L 3475 1600 
L 3475 450 
Q 3475 -100 3500 -600 
L 2925 -600 
Q 2950 -100 2950 450 
L 2950 1600 
L 1125 1600 
Q 775 1600 375 1575 
L 375 2050 
Q 775 2025 1175 2025 
L 2950 2025 
L 2950 4400 
L 1775 4400 
Q 1400 4400 875 4375 
L 875 4850 
Q 1400 4825 1750 4825 
L 4525 4825 
z
M 3925 2600 
Q 4500 3300 4900 4125 
Q 5150 3950 5400 3825 
Q 4775 2850 4350 2300 
Q 4150 2475 3925 2600 
z
M 1975 2350 
Q 1600 3100 1050 3725 
Q 1250 3875 1450 4050 
Q 2075 3300 2450 2725 
Q 2150 2500 1975 2350 
z
" transform="scale(0.015625)"/>
       <path id="SimHei-5747" d="M 5775 275 
Q 5775 -325 5362 -450 
Q 4950 -575 4425 -600 
Q 4375 -275 4250 25 
Q 4950 -25 5125 62 
Q 5300 150 5300 500 
L 5375 3700 
L 3550 3700 
Q 3425 3375 3262 3037 
Q 3100 2700 2925 2400 
Q 2675 2550 2475 2625 
Q 3150 3625 3500 5200 
Q 3800 5100 4075 5025 
Q 3975 4875 3875 4650 
Q 3775 4425 3675 4125 
L 5900 4125 
L 5775 275 
z
M 1250 3625 
L 1250 4375 
Q 1250 4775 1225 5100 
L 1775 5100 
Q 1750 4725 1750 4375 
L 1750 3625 
L 1900 3625 
Q 2200 3625 2525 3650 
L 2525 3150 
Q 2200 3175 1900 3175 
L 1750 3175 
L 1750 1100 
L 2500 1375 
Q 2475 1125 2525 900 
Q 1225 475 962 362 
Q 700 250 475 150 
Q 375 475 250 750 
Q 575 800 800 850 
Q 1025 900 1250 975 
L 1250 3175 
L 1125 3175 
Q 850 3175 400 3150 
L 400 3650 
Q 850 3625 1100 3625 
L 1250 3625 
z
M 4950 1625 
Q 4675 1425 4137 1050 
Q 3600 675 3175 300 
Q 3000 575 2850 775 
Q 3350 1050 3762 1325 
Q 4175 1600 4775 2075 
Q 4825 1850 4950 1625 
z
M 3775 3150 
Q 4125 2800 4475 2300 
Q 4250 2125 4100 1975 
Q 3900 2325 3450 2825 
Q 3600 3000 3775 3150 
z
" transform="scale(0.015625)"/>
       <path id="SimHei-5355" d="M 5275 4075 
L 5275 1525 
L 3400 1525 
L 3400 925 
L 5050 925 
Q 5600 925 6000 950 
L 6000 450 
Q 5575 475 5050 475 
L 3400 475 
Q 3400 -300 3425 -625 
L 2875 -625 
Q 2925 -300 2925 475 
L 1300 475 
Q 700 475 425 450 
L 425 950 
Q 675 925 1250 925 
L 2925 925 
L 2925 1525 
L 1125 1525 
Q 1150 1950 1150 2750 
Q 1150 3550 1125 4075 
L 3600 4075 
Q 3875 4650 4075 5250 
Q 4325 5125 4650 4975 
Q 4550 4850 4400 4587 
Q 4250 4325 4100 4075 
L 5275 4075 
z
M 4775 1925 
L 4775 2600 
L 3400 2600 
L 3400 1925 
L 4775 1925 
z
M 4775 3000 
L 4775 3650 
L 3400 3650 
L 3400 3000 
L 4775 3000 
z
M 2925 1925 
L 2925 2600 
L 1625 2600 
L 1625 1925 
L 2925 1925 
z
M 2925 3000 
L 2925 3650 
L 1625 3650 
L 1625 3000 
L 2925 3000 
z
M 2100 5225 
Q 2350 4950 2675 4350 
Q 2400 4225 2225 4125 
Q 1975 4675 1725 4975 
Q 1900 5075 2100 5225 
z
" transform="scale(0.015625)"/>
       <path id="SimHei-4ef7" d="M 2200 4975 
Q 2050 4725 1650 3775 
L 1650 450 
Q 1650 -225 1675 -650 
L 1175 -650 
Q 1175 -225 1200 450 
L 1200 2975 
Q 900 2425 650 2100 
Q 525 2275 225 2450 
Q 750 3025 1125 3800 
Q 1500 4575 1625 5175 
Q 1950 5025 2200 4975 
z
M 4175 4700 
Q 4850 3525 6150 2950 
Q 5925 2750 5775 2500 
Q 4725 3100 3950 4300 
Q 3300 3125 2250 2350 
Q 2125 2525 1900 2725 
Q 2825 3325 3250 4050 
Q 3675 4775 3750 5150 
Q 4150 4950 4325 4900 
L 4175 4700 
z
M 3475 2650 
Q 3400 2075 3325 1087 
Q 3250 100 2325 -675 
Q 2175 -450 1925 -300 
Q 2850 350 2912 1262 
Q 2975 2175 2950 2700 
Q 3275 2650 3475 2650 
z
M 5075 2700 
Q 5050 2150 5050 1725 
L 5050 150 
Q 5050 -225 5075 -650 
L 4550 -650 
Q 4575 -225 4575 175 
L 4575 1875 
Q 4575 2150 4550 2700 
L 5075 2700 
z
" transform="scale(0.015625)"/>
      </defs>
      <use xlink:href="#SimHei-5e73"/>
      <use xlink:href="#SimHei-5747" x="100"/>
      <use xlink:href="#SimHei-5355" x="200"/>
      <use xlink:href="#SimHei-4ef7" x="300"/>
     </g>
    </g>
   </g>
   <g id="line2d_30">
    <path d="M 115.363636 107.545812 
L 124.160273 66.96 
L 132.95691 287.355099 
L 135.889122 287.355099 
L 138.821335 219.278985 
L 150.550184 255.873582 
L 153.482396 146.188252 
L 159.346821 255.873582 
L 179.872307 255.873582 
L 200.397793 255.873582 
L 203.330005 334.283612 
L 212.126642 334.284361 
L 217.991067 334.283612 
L 223.855491 334.283612 
L 264.906463 334.283612 
L 276.635313 334.283612 
L 291.296374 334.283612 
L 297.160799 334.283612 
L 300.093011 334.284361 
L 311.82186 334.284361 
L 314.754073 347.260408 
L 317.686285 360.836699 
L 320.618497 361.436945 
L 323.550709 369.36 
L 335.279559 360.239929 
L 341.143983 360.239929 
L 344.076195 360.239944 
L 347.008408 363.747662 
L 352.872832 367.841611 
L 355.805045 367.841611 
L 358.737257 345.645165 
L 361.669469 287.152612 
L 364.601682 287.999577 
L 367.533894 287.999577 
L 370.466106 287.999577 
L 379.262743 287.999577 
L 382.194955 273.191214 
L 396.856017 282.476548 
L 405.652654 273.191563 
L 426.17814 273.191389 
L 437.906989 273.191214 
L 440.839201 273.191563 
L 452.56805 273.191563 
L 458.432475 270.316479 
L 464.2969 270.316479 
L 467.229112 270.316479 
L 476.025749 267.416404 
L 481.890173 267.416404 
L 490.68681 267.416404 
L 496.551235 267.416404 
L 499.483447 267.416404 
L 502.415659 269.180061 
L 505.347872 267.416404 
L 511.212296 274.95912 
L 520.008933 269.853573 
L 522.941146 269.853573 
L 525.873358 269.853632 
L 534.669995 257.80917 
L 537.602207 261.82396 
L 540.534419 261.82396 
L 543.466632 259.147433 
L 546.398844 250.828915 
L 549.331056 250.828915 
L 552.263269 250.828915 
L 555.195481 250.828915 
L 561.059905 250.828915 
L 563.992118 250.828915 
L 575.720967 250.027984 
L 590.382028 250.828915 
L 593.314241 231.956998 
L 599.178665 222.921505 
L 605.04309 222.921505 
L 607.975302 200.894585 
L 610.907514 200.894585 
L 622.636364 200.894585 
" clip-path="url(#pb2a6bde7d8)" style="fill: none; stroke: #ff0000; stroke-width: 1.5; stroke-linecap: square"/>
    <defs>
     <path id="me99bc24b8c" d="M 0 3 
C 0.795609 3 1.55874 2.683901 2.12132 2.12132 
C 2.683901 1.55874 3 0.795609 3 0 
C 3 -0.795609 2.683901 -1.55874 2.12132 -2.12132 
C 1.55874 -2.683901 0.795609 -3 0 -3 
C -0.795609 -3 -1.55874 -2.683901 -2.12132 -2.12132 
C -2.683901 -1.55874 -3 -0.795609 -3 0 
C -3 0.795609 -2.683901 1.55874 -2.12132 2.12132 
C -1.55874 2.683901 -0.795609 3 0 3 
z
" style="stroke: #ff0000"/>
    </defs>
    <g clip-path="url(#pb2a6bde7d8)">
     <use xlink:href="#me99bc24b8c" x="115.363636" y="107.545812" style="fill: #ff0000; stroke: #ff0000"/>
     <use xlink:href="#me99bc24b8c" x="124.160273" y="66.96" style="fill: #ff0000; stroke: #ff0000"/>
     <use xlink:href="#me99bc24b8c" x="132.95691" y="287.355099" style="fill: #ff0000; stroke: #ff0000"/>
     <use xlink:href="#me99bc24b8c" x="135.889122" y="287.355099" style="fill: #ff0000; stroke: #ff0000"/>
     <use xlink:href="#me99bc24b8c" x="138.821335" y="219.278985" style="fill: #ff0000; stroke: #ff0000"/>
     <use xlink:href="#me99bc24b8c" x="150.550184" y="255.873582" style="fill: #ff0000; stroke: #ff0000"/>
     <use xlink:href="#me99bc24b8c" x="153.482396" y="146.188252" style="fill: #ff0000; stroke: #ff0000"/>
     <use xlink:href="#me99bc24b8c" x="159.346821" y="255.873582" style="fill: #ff0000; stroke: #ff0000"/>
     <use xlink:href="#me99bc24b8c" x="179.872307" y="255.873582" style="fill: #ff0000; stroke: #ff0000"/>
     <use xlink:href="#me99bc24b8c" x="200.397793" y="255.873582" style="fill: #ff0000; stroke: #ff0000"/>
     <use xlink:href="#me99bc24b8c" x="203.330005" y="334.283612" style="fill: #ff0000; stroke: #ff0000"/>
     <use xlink:href="#me99bc24b8c" x="212.126642" y="334.284361" style="fill: #ff0000; stroke: #ff0000"/>
     <use xlink:href="#me99bc24b8c" x="217.991067" y="334.283612" style="fill: #ff0000; stroke: #ff0000"/>
     <use xlink:href="#me99bc24b8c" x="223.855491" y="334.283612" style="fill: #ff0000; stroke: #ff0000"/>
     <use xlink:href="#me99bc24b8c" x="264.906463" y="334.283612" style="fill: #ff0000; stroke: #ff0000"/>
     <use xlink:href="#me99bc24b8c" x="276.635313" y="334.283612" style="fill: #ff0000; stroke: #ff0000"/>
     <use xlink:href="#me99bc24b8c" x="291.296374" y="334.283612" style="fill: #ff0000; stroke: #ff0000"/>
     <use xlink:href="#me99bc24b8c" x="297.160799" y="334.283612" style="fill: #ff0000; stroke: #ff0000"/>
     <use xlink:href="#me99bc24b8c" x="300.093011" y="334.284361" style="fill: #ff0000; stroke: #ff0000"/>
     <use xlink:href="#me99bc24b8c" x="311.82186" y="334.284361" style="fill: #ff0000; stroke: #ff0000"/>
     <use xlink:href="#me99bc24b8c" x="314.754073" y="347.260408" style="fill: #ff0000; stroke: #ff0000"/>
     <use xlink:href="#me99bc24b8c" x="317.686285" y="360.836699" style="fill: #ff0000; stroke: #ff0000"/>
     <use xlink:href="#me99bc24b8c" x="320.618497" y="361.436945" style="fill: #ff0000; stroke: #ff0000"/>
     <use xlink:href="#me99bc24b8c" x="323.550709" y="369.36" style="fill: #ff0000; stroke: #ff0000"/>
     <use xlink:href="#me99bc24b8c" x="335.279559" y="360.239929" style="fill: #ff0000; stroke: #ff0000"/>
     <use xlink:href="#me99bc24b8c" x="341.143983" y="360.239929" style="fill: #ff0000; stroke: #ff0000"/>
     <use xlink:href="#me99bc24b8c" x="344.076195" y="360.239944" style="fill: #ff0000; stroke: #ff0000"/>
     <use xlink:href="#me99bc24b8c" x="347.008408" y="363.747662" style="fill: #ff0000; stroke: #ff0000"/>
     <use xlink:href="#me99bc24b8c" x="352.872832" y="367.841611" style="fill: #ff0000; stroke: #ff0000"/>
     <use xlink:href="#me99bc24b8c" x="355.805045" y="367.841611" style="fill: #ff0000; stroke: #ff0000"/>
     <use xlink:href="#me99bc24b8c" x="358.737257" y="345.645165" style="fill: #ff0000; stroke: #ff0000"/>
     <use xlink:href="#me99bc24b8c" x="361.669469" y="287.152612" style="fill: #ff0000; stroke: #ff0000"/>
     <use xlink:href="#me99bc24b8c" x="364.601682" y="287.999577" style="fill: #ff0000; stroke: #ff0000"/>
     <use xlink:href="#me99bc24b8c" x="367.533894" y="287.999577" style="fill: #ff0000; stroke: #ff0000"/>
     <use xlink:href="#me99bc24b8c" x="370.466106" y="287.999577" style="fill: #ff0000; stroke: #ff0000"/>
     <use xlink:href="#me99bc24b8c" x="379.262743" y="287.999577" style="fill: #ff0000; stroke: #ff0000"/>
     <use xlink:href="#me99bc24b8c" x="382.194955" y="273.191214" style="fill: #ff0000; stroke: #ff0000"/>
     <use xlink:href="#me99bc24b8c" x="396.856017" y="282.476548" style="fill: #ff0000; stroke: #ff0000"/>
     <use xlink:href="#me99bc24b8c" x="405.652654" y="273.191563" style="fill: #ff0000; stroke: #ff0000"/>
     <use xlink:href="#me99bc24b8c" x="426.17814" y="273.191389" style="fill: #ff0000; stroke: #ff0000"/>
     <use xlink:href="#me99bc24b8c" x="437.906989" y="273.191214" style="fill: #ff0000; stroke: #ff0000"/>
     <use xlink:href="#me99bc24b8c" x="440.839201" y="273.191563" style="fill: #ff0000; stroke: #ff0000"/>
     <use xlink:href="#me99bc24b8c" x="452.56805" y="273.191563" style="fill: #ff0000; stroke: #ff0000"/>
     <use xlink:href="#me99bc24b8c" x="458.432475" y="270.316479" style="fill: #ff0000; stroke: #ff0000"/>
     <use xlink:href="#me99bc24b8c" x="464.2969" y="270.316479" style="fill: #ff0000; stroke: #ff0000"/>
     <use xlink:href="#me99bc24b8c" x="467.229112" y="270.316479" style="fill: #ff0000; stroke: #ff0000"/>
     <use xlink:href="#me99bc24b8c" x="476.025749" y="267.416404" style="fill: #ff0000; stroke: #ff0000"/>
     <use xlink:href="#me99bc24b8c" x="481.890173" y="267.416404" style="fill: #ff0000; stroke: #ff0000"/>
     <use xlink:href="#me99bc24b8c" x="490.68681" y="267.416404" style="fill: #ff0000; stroke: #ff0000"/>
     <use xlink:href="#me99bc24b8c" x="496.551235" y="267.416404" style="fill: #ff0000; stroke: #ff0000"/>
     <use xlink:href="#me99bc24b8c" x="499.483447" y="267.416404" style="fill: #ff0000; stroke: #ff0000"/>
     <use xlink:href="#me99bc24b8c" x="502.415659" y="269.180061" style="fill: #ff0000; stroke: #ff0000"/>
     <use xlink:href="#me99bc24b8c" x="505.347872" y="267.416404" style="fill: #ff0000; stroke: #ff0000"/>
     <use xlink:href="#me99bc24b8c" x="511.212296" y="274.95912" style="fill: #ff0000; stroke: #ff0000"/>
     <use xlink:href="#me99bc24b8c" x="520.008933" y="269.853573" style="fill: #ff0000; stroke: #ff0000"/>
     <use xlink:href="#me99bc24b8c" x="522.941146" y="269.853573" style="fill: #ff0000; stroke: #ff0000"/>
     <use xlink:href="#me99bc24b8c" x="525.873358" y="269.853632" style="fill: #ff0000; stroke: #ff0000"/>
     <use xlink:href="#me99bc24b8c" x="534.669995" y="257.80917" style="fill: #ff0000; stroke: #ff0000"/>
     <use xlink:href="#me99bc24b8c" x="537.602207" y="261.82396" style="fill: #ff0000; stroke: #ff0000"/>
     <use xlink:href="#me99bc24b8c" x="540.534419" y="261.82396" style="fill: #ff0000; stroke: #ff0000"/>
     <use xlink:href="#me99bc24b8c" x="543.466632" y="259.147433" style="fill: #ff0000; stroke: #ff0000"/>
     <use xlink:href="#me99bc24b8c" x="546.398844" y="250.828915" style="fill: #ff0000; stroke: #ff0000"/>
     <use xlink:href="#me99bc24b8c" x="549.331056" y="250.828915" style="fill: #ff0000; stroke: #ff0000"/>
     <use xlink:href="#me99bc24b8c" x="552.263269" y="250.828915" style="fill: #ff0000; stroke: #ff0000"/>
     <use xlink:href="#me99bc24b8c" x="555.195481" y="250.828915" style="fill: #ff0000; stroke: #ff0000"/>
     <use xlink:href="#me99bc24b8c" x="561.059905" y="250.828915" style="fill: #ff0000; stroke: #ff0000"/>
     <use xlink:href="#me99bc24b8c" x="563.992118" y="250.828915" style="fill: #ff0000; stroke: #ff0000"/>
     <use xlink:href="#me99bc24b8c" x="575.720967" y="250.027984" style="fill: #ff0000; stroke: #ff0000"/>
     <use xlink:href="#me99bc24b8c" x="590.382028" y="250.828915" style="fill: #ff0000; stroke: #ff0000"/>
     <use xlink:href="#me99bc24b8c" x="593.314241" y="231.956998" style="fill: #ff0000; stroke: #ff0000"/>
     <use xlink:href="#me99bc24b8c" x="599.178665" y="222.921505" style="fill: #ff0000; stroke: #ff0000"/>
     <use xlink:href="#me99bc24b8c" x="605.04309" y="222.921505" style="fill: #ff0000; stroke: #ff0000"/>
     <use xlink:href="#me99bc24b8c" x="607.975302" y="200.894585" style="fill: #ff0000; stroke: #ff0000"/>
     <use xlink:href="#me99bc24b8c" x="610.907514" y="200.894585" style="fill: #ff0000; stroke: #ff0000"/>
     <use xlink:href="#me99bc24b8c" x="622.636364" y="200.894585" style="fill: #ff0000; stroke: #ff0000"/>
    </g>
   </g>
   <g id="patch_11">
    <path d="M 90 384.48 
L 90 51.84 
" style="fill: none; stroke: #000000; stroke-width: 0.8; stroke-linejoin: miter; stroke-linecap: square"/>
   </g>
   <g id="patch_12">
    <path d="M 708 384.48 
L 708 51.84 
" style="fill: none; stroke: #000000; stroke-width: 0.8; stroke-linejoin: miter; stroke-linecap: square"/>
   </g>
   <g id="patch_13">
    <path d="M 90 384.48 
L 648 384.48 
" style="fill: none; stroke: #000000; stroke-width: 0.8; stroke-linejoin: miter; stroke-linecap: square"/>
   </g>
   <g id="patch_14">
    <path d="M 90 51.84 
L 648 51.84 
" style="fill: none; stroke: #000000; stroke-width: 0.8; stroke-linejoin: miter; stroke-linecap: square"/>
   </g>
   <g id="text_32">
    <!-- 6004020768 每周需求量、收益与平均单价 -->
    <g transform="translate(258 45.84) scale(0.12 -0.12)">
     <defs>
      <path id="SimHei-20" transform="scale(0.015625)"/>
      <path id="SimHei-6bcf" d="M 5225 3650 
Q 5175 3150 5150 2675 
L 5125 2200 
Q 5525 2200 6000 2225 
L 6000 1775 
Q 5625 1800 5100 1800 
L 5050 650 
Q 5325 650 5700 675 
L 5700 225 
Q 5400 250 5025 250 
Q 5000 -275 4775 -425 
Q 4550 -575 4000 -650 
Q 3950 -400 3775 -125 
Q 4375 -125 4475 -50 
Q 4575 25 4575 250 
L 1400 250 
L 1500 1100 
L 1550 1800 
L 1275 1800 
Q 825 1800 550 1775 
L 550 2225 
Q 975 2200 1275 2200 
L 1575 2200 
L 1625 2825 
L 1675 3650 
L 5225 3650 
z
M 2350 5000 
Q 2175 4825 2050 4600 
L 4875 4600 
Q 5275 4600 5775 4625 
L 5775 4175 
Q 5275 4200 4875 4200 
L 1825 4200 
L 1375 3625 
Q 1125 3325 775 2975 
Q 600 3175 350 3300 
Q 725 3575 1150 4112 
Q 1575 4650 1825 5250 
Q 2125 5075 2350 5000 
z
M 1975 1800 
L 1875 650 
L 4625 650 
L 4675 1800 
L 2950 1800 
Q 3575 1275 3825 1125 
Q 3625 925 3475 725 
Q 3100 1100 2650 1475 
Q 2775 1675 2875 1800 
L 1975 1800 
z
M 2975 3250 
Q 3125 3150 3287 3012 
Q 3450 2875 3800 2550 
Q 3650 2350 3525 2200 
L 4700 2200 
L 4750 3250 
L 2975 3250 
z
M 2075 3250 
L 2000 2200 
L 3425 2200 
Q 3150 2500 3012 2625 
Q 2875 2750 2700 2900 
Q 2800 3050 2925 3250 
L 2075 3250 
z
" transform="scale(0.015625)"/>
      <path id="SimHei-3001" d="M 1725 -275 
Q 1325 700 925 1450 
L 1325 1650 
Q 1825 950 2325 25 
L 1725 -275 
z
" transform="scale(0.015625)"/>
      <path id="SimHei-4e0e" d="M 5350 100 
Q 5275 -300 4925 -425 
Q 4575 -550 3900 -600 
Q 3875 -375 3650 -25 
Q 4375 -50 4575 0 
Q 4775 50 4837 225 
Q 4900 400 5100 2350 
L 1125 2350 
Q 1450 4350 1475 5200 
Q 1800 5150 2075 5125 
Q 1975 4825 1900 4275 
L 4900 4275 
Q 5400 4275 5800 4300 
L 5800 3825 
Q 5400 3850 4950 3850 
L 1850 3850 
L 1700 2750 
L 5675 2750 
Q 5625 2450 5575 2050 
L 5350 100 
z
M 3675 1350 
Q 4125 1350 4500 1375 
L 4500 875 
Q 4125 900 3850 900 
L 1450 900 
Q 1000 900 500 875 
L 500 1375 
Q 1000 1350 1450 1350 
L 3675 1350 
z
" transform="scale(0.015625)"/>
     </defs>
     <use xlink:href="#SimHei-36"/>
     <use xlink:href="#SimHei-30" x="50"/>
     <use xlink:href="#SimHei-30" x="100"/>
     <use xlink:href="#SimHei-34" x="150"/>
     <use xlink:href="#SimHei-30" x="200"/>
     <use xlink:href="#SimHei-32" x="250"/>
     <use xlink:href="#SimHei-30" x="300"/>
     <use xlink:href="#SimHei-37" x="350"/>
     <use xlink:href="#SimHei-36" x="400"/>
     <use xlink:href="#SimHei-38" x="450"/>
     <use xlink:href="#SimHei-20" x="500"/>
     <use xlink:href="#SimHei-6bcf" x="550"/>
     <use xlink:href="#SimHei-5468" x="650"/>
     <use xlink:href="#SimHei-9700" x="750"/>
     <use xlink:href="#SimHei-6c42" x="850"/>
     <use xlink:href="#SimHei-91cf" x="950"/>
     <use xlink:href="#SimHei-3001" x="1050"/>
     <use xlink:href="#SimHei-6536" x="1150"/>
     <use xlink:href="#SimHei-76ca" x="1250"/>
     <use xlink:href="#SimHei-4e0e" x="1350"/>
     <use xlink:href="#SimHei-5e73" x="1450"/>
     <use xlink:href="#SimHei-5747" x="1550"/>
     <use xlink:href="#SimHei-5355" x="1650"/>
     <use xlink:href="#SimHei-4ef7" x="1750"/>
    </g>
   </g>
  </g>
 </g>
 <defs>
  <clipPath id="pb2a6bde7d8">
   <rect x="90" y="51.84" width="558" height="332.64"/>
  </clipPath>
 </defs>
</svg>
