<?xml version="1.0" encoding="utf-8" standalone="no"?>
<!DOCTYPE svg PUBLIC "-//W3C//DTD SVG 1.1//EN"
  "http://www.w3.org/Graphics/SVG/1.1/DTD/svg11.dtd">
<svg xmlns:xlink="http://www.w3.org/1999/xlink" width="720pt" height="432pt" viewBox="0 0 720 432" xmlns="http://www.w3.org/2000/svg" version="1.1">
 <metadata>
  <rdf:RDF xmlns:dc="http://purl.org/dc/elements/1.1/" xmlns:cc="http://creativecommons.org/ns#" xmlns:rdf="http://www.w3.org/1999/02/22-rdf-syntax-ns#">
   <cc:Work>
    <dc:type rdf:resource="http://purl.org/dc/dcmitype/StillImage"/>
    <dc:date>2024-08-17T14:11:17.192661</dc:date>
    <dc:format>image/svg+xml</dc:format>
    <dc:creator>
     <cc:Agent>
      <dc:title>Matplotlib v3.8.0, https://matplotlib.org/</dc:title>
     </cc:Agent>
    </dc:creator>
   </cc:Work>
  </rdf:RDF>
 </metadata>
 <defs>
  <style type="text/css">*{stroke-linejoin: round; stroke-linecap: butt}</style>
 </defs>
 <g id="figure_1">
  <g id="patch_1">
   <path d="M 0 432 
L 720 432 
L 720 0 
L 0 0 
z
" style="fill: #ffffff"/>
  </g>
  <g id="axes_1">
   <g id="patch_2">
    <path d="M 90 384.48 
L 648 384.48 
L 648 51.84 
L 90 51.84 
z
" style="fill: #ffffff"/>
   </g>
   <g id="matplotlib.axis_1">
    <g id="xtick_1">
     <g id="line2d_1">
      <defs>
       <path id="me701128ccc" d="M 0 0 
L 0 3.5 
" style="stroke: #000000; stroke-width: 0.8"/>
      </defs>
      <g>
       <use xlink:href="#me701128ccc" x="112.481405" y="384.48" style="stroke: #000000; stroke-width: 0.8"/>
      </g>
     </g>
     <g id="text_1">
      <!-- 0 -->
      <g transform="translate(109.981405 398.355) scale(0.1 -0.1)">
       <defs>
        <path id="SimHei-30" d="M 225 2537 
Q 250 3200 412 3587 
Q 575 3975 875 4225 
Q 1175 4475 1612 4475 
Q 2050 4475 2375 4112 
Q 2700 3750 2800 3200 
Q 2900 2650 2862 1937 
Q 2825 1225 2612 775 
Q 2400 325 1975 150 
Q 1550 -25 1125 187 
Q 700 400 525 750 
Q 350 1100 275 1487 
Q 200 1875 225 2537 
z
M 750 2687 
Q 675 2000 800 1462 
Q 925 925 1212 700 
Q 1500 475 1800 612 
Q 2100 750 2237 1162 
Q 2375 1575 2375 2062 
Q 2375 2550 2337 2950 
Q 2300 3350 2112 3675 
Q 1925 4000 1612 4012 
Q 1300 4025 1062 3700 
Q 825 3375 750 2687 
z
" transform="scale(0.015625)"/>
       </defs>
       <use xlink:href="#SimHei-30"/>
      </g>
     </g>
    </g>
    <g id="xtick_2">
     <g id="line2d_2">
      <g>
       <use xlink:href="#me701128ccc" x="184.53719" y="384.48" style="stroke: #000000; stroke-width: 0.8"/>
      </g>
     </g>
     <g id="text_2">
      <!-- 25 -->
      <g transform="translate(179.53719 398.355) scale(0.1 -0.1)">
       <defs>
        <path id="SimHei-32" d="M 300 250 
Q 325 625 650 925 
Q 975 1225 1475 1862 
Q 1975 2500 2125 2850 
Q 2275 3200 2237 3450 
Q 2200 3700 2000 3862 
Q 1800 4025 1537 4000 
Q 1275 3975 1037 3800 
Q 800 3625 675 3275 
L 200 3350 
Q 400 3925 712 4187 
Q 1025 4450 1450 4475 
Q 1700 4500 1900 4462 
Q 2100 4425 2312 4287 
Q 2525 4150 2662 3875 
Q 2800 3600 2762 3212 
Q 2725 2825 2375 2287 
Q 2025 1750 1025 600 
L 2825 600 
L 2825 150 
L 300 150 
L 300 250 
z
" transform="scale(0.015625)"/>
        <path id="SimHei-35" d="M 550 1325 
Q 725 650 1150 575 
Q 1575 500 1837 662 
Q 2100 825 2212 1087 
Q 2325 1350 2312 1675 
Q 2300 2000 2137 2225 
Q 1975 2450 1725 2525 
Q 1475 2600 1162 2525 
Q 850 2450 650 2175 
L 225 2225 
Q 275 2375 700 4375 
L 2675 4375 
L 2675 3925 
L 1075 3925 
Q 950 3250 825 2850 
Q 1200 3025 1525 3012 
Q 1850 3000 2150 2862 
Q 2450 2725 2587 2487 
Q 2725 2250 2787 2012 
Q 2850 1775 2837 1500 
Q 2825 1225 2725 937 
Q 2625 650 2425 462 
Q 2225 275 1937 162 
Q 1650 50 1275 75 
Q 900 100 562 350 
Q 225 600 100 1200 
L 550 1325 
z
" transform="scale(0.015625)"/>
       </defs>
       <use xlink:href="#SimHei-32"/>
       <use xlink:href="#SimHei-35" x="50"/>
      </g>
     </g>
    </g>
    <g id="xtick_3">
     <g id="line2d_3">
      <g>
       <use xlink:href="#me701128ccc" x="256.592975" y="384.48" style="stroke: #000000; stroke-width: 0.8"/>
      </g>
     </g>
     <g id="text_3">
      <!-- 50 -->
      <g transform="translate(251.592975 398.355) scale(0.1 -0.1)">
       <use xlink:href="#SimHei-35"/>
       <use xlink:href="#SimHei-30" x="50"/>
      </g>
     </g>
    </g>
    <g id="xtick_4">
     <g id="line2d_4">
      <g>
       <use xlink:href="#me701128ccc" x="328.64876" y="384.48" style="stroke: #000000; stroke-width: 0.8"/>
      </g>
     </g>
     <g id="text_4">
      <!-- 75 -->
      <g transform="translate(323.64876 398.355) scale(0.1 -0.1)">
       <defs>
        <path id="SimHei-37" d="M 850 150 
Q 1300 2050 2425 3925 
L 275 3925 
L 275 4375 
L 2950 4375 
L 2950 3950 
Q 1775 2050 1400 150 
L 850 150 
z
" transform="scale(0.015625)"/>
       </defs>
       <use xlink:href="#SimHei-37"/>
       <use xlink:href="#SimHei-35" x="50"/>
      </g>
     </g>
    </g>
    <g id="xtick_5">
     <g id="line2d_5">
      <g>
       <use xlink:href="#me701128ccc" x="400.704545" y="384.48" style="stroke: #000000; stroke-width: 0.8"/>
      </g>
     </g>
     <g id="text_5">
      <!-- 100 -->
      <g transform="translate(393.204545 398.355) scale(0.1 -0.1)">
       <defs>
        <path id="SimHei-31" d="M 1400 3600 
Q 1075 3275 575 2975 
L 575 3450 
Q 1200 3875 1600 4450 
L 1900 4450 
L 1900 150 
L 1400 150 
L 1400 3600 
z
" transform="scale(0.015625)"/>
       </defs>
       <use xlink:href="#SimHei-31"/>
       <use xlink:href="#SimHei-30" x="50"/>
       <use xlink:href="#SimHei-30" x="100"/>
      </g>
     </g>
    </g>
    <g id="xtick_6">
     <g id="line2d_6">
      <g>
       <use xlink:href="#me701128ccc" x="472.760331" y="384.48" style="stroke: #000000; stroke-width: 0.8"/>
      </g>
     </g>
     <g id="text_6">
      <!-- 125 -->
      <g transform="translate(465.260331 398.355) scale(0.1 -0.1)">
       <use xlink:href="#SimHei-31"/>
       <use xlink:href="#SimHei-32" x="50"/>
       <use xlink:href="#SimHei-35" x="100"/>
      </g>
     </g>
    </g>
    <g id="xtick_7">
     <g id="line2d_7">
      <g>
       <use xlink:href="#me701128ccc" x="544.816116" y="384.48" style="stroke: #000000; stroke-width: 0.8"/>
      </g>
     </g>
     <g id="text_7">
      <!-- 150 -->
      <g transform="translate(537.316116 398.355) scale(0.1 -0.1)">
       <use xlink:href="#SimHei-31"/>
       <use xlink:href="#SimHei-35" x="50"/>
       <use xlink:href="#SimHei-30" x="100"/>
      </g>
     </g>
    </g>
    <g id="xtick_8">
     <g id="line2d_8">
      <g>
       <use xlink:href="#me701128ccc" x="616.871901" y="384.48" style="stroke: #000000; stroke-width: 0.8"/>
      </g>
     </g>
     <g id="text_8">
      <!-- 175 -->
      <g transform="translate(609.371901 398.355) scale(0.1 -0.1)">
       <use xlink:href="#SimHei-31"/>
       <use xlink:href="#SimHei-37" x="50"/>
       <use xlink:href="#SimHei-35" x="100"/>
      </g>
     </g>
    </g>
    <g id="text_9">
     <!-- 周数 -->
     <g transform="translate(359 411.339375) scale(0.1 -0.1)">
      <defs>
       <path id="SimHei-5468" d="M 5600 4925 
Q 5575 4400 5575 3800 
L 5575 50 
Q 5550 -375 5325 -462 
Q 5100 -550 4325 -600 
Q 4300 -400 4125 -75 
Q 4800 -100 4962 -37 
Q 5125 25 5100 225 
L 5100 4525 
L 1500 4525 
Q 1500 2575 1450 1887 
Q 1400 1200 1237 550 
Q 1075 -100 775 -625 
Q 625 -450 275 -225 
Q 650 225 825 1000 
Q 1000 1775 1025 2587 
Q 1050 3400 1000 4925 
L 5600 4925 
z
M 2050 325 
Q 2075 625 2075 950 
L 2075 1400 
Q 2075 1625 2050 1925 
L 4400 1925 
Q 4375 1725 4375 1450 
L 4375 875 
Q 4375 600 4400 325 
L 2050 325 
z
M 3000 3800 
Q 3000 4150 2975 4375 
L 3475 4375 
Q 3450 4075 3450 3800 
Q 4100 3800 4475 3825 
L 4475 3350 
Q 4125 3375 3450 3375 
L 3450 2800 
Q 4200 2800 4825 2825 
L 4825 2350 
Q 4175 2375 3725 2375 
L 2750 2375 
Q 2325 2375 1725 2350 
L 1725 2825 
Q 2325 2800 3000 2800 
L 3000 3375 
Q 2500 3375 1975 3350 
L 1975 3825 
Q 2475 3800 3000 3800 
z
M 3900 725 
L 3900 1525 
L 2550 1525 
L 2550 725 
L 3900 725 
z
" transform="scale(0.015625)"/>
       <path id="SimHei-6570" d="M 4525 4925 
Q 4475 4800 4400 4587 
Q 4325 4375 4175 3825 
L 5325 3825 
Q 5575 3825 5925 3850 
L 5925 3400 
Q 5650 3425 5500 3425 
Q 5500 3025 5362 2162 
Q 5225 1300 4875 675 
Q 5125 375 5437 137 
Q 5750 -100 6025 -200 
Q 5725 -425 5625 -625 
Q 5325 -450 5075 -225 
Q 4825 0 4575 325 
Q 4300 25 3987 -187 
Q 3675 -400 3200 -650 
Q 3075 -425 2850 -300 
Q 3225 -150 3650 125 
Q 4075 400 4300 675 
Q 4125 1025 3962 1425 
Q 3800 1825 3675 2475 
Q 3600 2275 3425 1950 
Q 3250 2050 3000 2150 
Q 3400 2850 3650 3675 
Q 3900 4500 3975 5100 
Q 4275 4975 4525 4925 
z
M 2100 2250 
Q 2000 2150 1875 1925 
L 3250 1925 
Q 3100 1300 2725 675 
Q 3125 525 3350 400 
Q 3225 225 3125 25 
Q 2900 175 2450 325 
Q 1950 -225 725 -650 
Q 600 -375 400 -275 
Q 1575 0 2000 475 
Q 1300 650 850 775 
Q 1000 1000 1250 1525 
Q 1000 1525 425 1500 
L 425 1950 
Q 900 1925 1400 1925 
Q 1500 2150 1550 2425 
Q 1825 2325 2100 2250 
z
M 1775 3950 
Q 1775 4550 1750 5100 
L 2250 5100 
Q 2225 4575 2225 3950 
Q 3075 3950 3425 3975 
L 3425 3525 
Q 3075 3550 2225 3550 
Q 2225 2825 2250 2425 
L 1750 2425 
Q 1775 2775 1775 3300 
Q 1650 3100 1300 2787 
Q 950 2475 650 2300 
Q 525 2525 275 2625 
Q 500 2700 875 2975 
Q 1250 3250 1450 3550 
Q 950 3550 500 3525 
L 500 3975 
Q 925 3950 1775 3950 
z
M 3975 3175 
Q 4200 1700 4600 1125 
Q 4850 1700 4937 2287 
Q 5025 2875 5050 3425 
L 4075 3425 
L 3975 3175 
z
M 1450 1000 
Q 1750 925 2275 800 
Q 2475 1050 2650 1525 
L 1725 1525 
Q 1600 1275 1450 1000 
z
M 3325 4825 
Q 3200 4625 3125 4450 
Q 3050 4275 2925 4025 
Q 2725 4125 2525 4175 
Q 2725 4500 2900 5000 
Q 3150 4875 3325 4825 
z
M 2575 3375 
Q 2900 3050 3200 2725 
Q 3050 2600 2875 2425 
Q 2525 2850 2300 3100 
Q 2450 3225 2575 3375 
z
M 925 5000 
Q 1275 4650 1500 4300 
L 1125 4075 
Q 950 4425 600 4725 
Q 825 4875 925 5000 
z
" transform="scale(0.015625)"/>
      </defs>
      <use xlink:href="#SimHei-5468"/>
      <use xlink:href="#SimHei-6570" x="100"/>
     </g>
    </g>
   </g>
   <g id="matplotlib.axis_2">
    <g id="ytick_1">
     <g id="line2d_9">
      <defs>
       <path id="m28c2e3fb04" d="M 0 0 
L -3.5 0 
" style="stroke: #000000; stroke-width: 0.8"/>
      </defs>
      <g>
       <use xlink:href="#m28c2e3fb04" x="90" y="344.16" style="stroke: #000000; stroke-width: 0.8"/>
      </g>
     </g>
     <g id="text_10">
      <!-- 2 -->
      <g style="fill: #0000ff" transform="translate(78 347.5975) scale(0.1 -0.1)">
       <use xlink:href="#SimHei-32"/>
      </g>
     </g>
    </g>
    <g id="ytick_2">
     <g id="line2d_10">
      <g>
       <use xlink:href="#m28c2e3fb04" x="90" y="293.76" style="stroke: #000000; stroke-width: 0.8"/>
      </g>
     </g>
     <g id="text_11">
      <!-- 4 -->
      <g style="fill: #0000ff" transform="translate(78 297.1975) scale(0.1 -0.1)">
       <defs>
        <path id="SimHei-34" d="M 2000 1100 
L 75 1100 
L 75 1525 
L 2100 4450 
L 2475 4450 
L 2475 1525 
L 3075 1525 
L 3075 1100 
L 2475 1100 
L 2475 150 
L 2000 150 
L 2000 1100 
z
M 2000 1525 
L 2000 3500 
L 600 1525 
L 2000 1525 
z
" transform="scale(0.015625)"/>
       </defs>
       <use xlink:href="#SimHei-34"/>
      </g>
     </g>
    </g>
    <g id="ytick_3">
     <g id="line2d_11">
      <g>
       <use xlink:href="#m28c2e3fb04" x="90" y="243.36" style="stroke: #000000; stroke-width: 0.8"/>
      </g>
     </g>
     <g id="text_12">
      <!-- 6 -->
      <g style="fill: #0000ff" transform="translate(78 246.7975) scale(0.1 -0.1)">
       <defs>
        <path id="SimHei-36" d="M 250 1612 
Q 275 1975 387 2225 
Q 500 2475 725 2850 
L 1750 4450 
L 2325 4450 
L 1275 2800 
Q 1950 2975 2350 2750 
Q 2750 2525 2887 2237 
Q 3025 1950 3037 1612 
Q 3050 1275 2937 950 
Q 2825 625 2537 362 
Q 2250 100 1737 75 
Q 1225 50 862 262 
Q 500 475 362 862 
Q 225 1250 250 1612 
z
M 1025 787 
Q 1250 550 1625 525 
Q 2000 500 2250 775 
Q 2500 1050 2500 1575 
Q 2500 2100 2187 2300 
Q 1875 2500 1487 2450 
Q 1100 2400 925 2075 
Q 750 1750 775 1387 
Q 800 1025 1025 787 
z
" transform="scale(0.015625)"/>
       </defs>
       <use xlink:href="#SimHei-36"/>
      </g>
     </g>
    </g>
    <g id="ytick_4">
     <g id="line2d_12">
      <g>
       <use xlink:href="#m28c2e3fb04" x="90" y="192.96" style="stroke: #000000; stroke-width: 0.8"/>
      </g>
     </g>
     <g id="text_13">
      <!-- 8 -->
      <g style="fill: #0000ff" transform="translate(78 196.3975) scale(0.1 -0.1)">
       <defs>
        <path id="SimHei-38" d="M 175 1375 
Q 175 1675 325 1962 
Q 475 2250 825 2425 
Q 525 2600 425 2812 
Q 325 3025 312 3300 
Q 300 3575 387 3775 
Q 475 3975 650 4150 
Q 825 4325 1037 4387 
Q 1250 4450 1500 4450 
Q 1750 4450 1950 4400 
Q 2150 4350 2375 4187 
Q 2600 4025 2700 3725 
Q 2800 3425 2687 3025 
Q 2575 2625 2100 2400 
Q 2525 2275 2700 2012 
Q 2875 1750 2875 1375 
Q 2875 1000 2762 775 
Q 2650 550 2512 400 
Q 2375 250 2137 162 
Q 1900 75 1537 75 
Q 1175 75 912 162 
Q 650 250 475 425 
Q 300 600 237 837 
Q 175 1075 175 1375 
z
M 687 1400 
Q 675 1100 787 875 
Q 900 650 1200 587 
Q 1500 525 1825 600 
Q 2150 675 2275 950 
Q 2400 1225 2362 1500 
Q 2325 1775 2050 1962 
Q 1775 2150 1450 2125 
Q 1125 2100 912 1900 
Q 700 1700 687 1400 
z
M 775 3350 
Q 775 3100 950 2875 
Q 1125 2650 1500 2650 
Q 1875 2650 2062 2875 
Q 2250 3100 2237 3412 
Q 2225 3725 2012 3875 
Q 1800 4025 1437 4000 
Q 1075 3975 925 3787 
Q 775 3600 775 3350 
z
" transform="scale(0.015625)"/>
       </defs>
       <use xlink:href="#SimHei-38"/>
      </g>
     </g>
    </g>
    <g id="ytick_5">
     <g id="line2d_13">
      <g>
       <use xlink:href="#m28c2e3fb04" x="90" y="142.56" style="stroke: #000000; stroke-width: 0.8"/>
      </g>
     </g>
     <g id="text_14">
      <!-- 10 -->
      <g style="fill: #0000ff" transform="translate(73 145.9975) scale(0.1 -0.1)">
       <use xlink:href="#SimHei-31"/>
       <use xlink:href="#SimHei-30" x="50"/>
      </g>
     </g>
    </g>
    <g id="ytick_6">
     <g id="line2d_14">
      <g>
       <use xlink:href="#m28c2e3fb04" x="90" y="92.16" style="stroke: #000000; stroke-width: 0.8"/>
      </g>
     </g>
     <g id="text_15">
      <!-- 12 -->
      <g style="fill: #0000ff" transform="translate(73 95.5975) scale(0.1 -0.1)">
       <use xlink:href="#SimHei-31"/>
       <use xlink:href="#SimHei-32" x="50"/>
      </g>
     </g>
    </g>
    <g id="text_16">
     <!-- 需求量 -->
     <g style="fill: #0000ff" transform="translate(67.75 233.16) rotate(-90) scale(0.1 -0.1)">
      <defs>
       <path id="SimHei-9700" d="M 5150 2100 
Q 5500 2100 5975 2125 
L 5975 1700 
Q 5500 1725 5150 1725 
L 3425 1725 
Q 3300 1500 3250 1275 
L 5600 1275 
Q 5575 950 5575 700 
L 5575 -50 
Q 5575 -350 5425 -437 
Q 5275 -525 4775 -625 
Q 4750 -400 4550 -100 
Q 4950 -100 5025 -50 
Q 5100 0 5100 200 
L 5100 900 
L 4125 900 
L 4125 -375 
L 3650 -375 
L 3650 900 
L 2775 900 
L 2775 -375 
L 2300 -375 
L 2300 900 
L 1350 900 
L 1350 -575 
L 875 -575 
Q 900 -225 900 175 
L 900 575 
Q 900 900 875 1275 
L 2800 1275 
Q 2875 1500 2925 1725 
L 1350 1725 
Q 925 1725 525 1700 
L 525 2125 
Q 900 2100 1325 2100 
L 5150 2100 
z
M 4700 5075 
Q 5075 5075 5550 5100 
L 5550 4675 
Q 5075 4700 4700 4700 
L 3475 4700 
L 3475 4275 
L 5975 4275 
L 5975 3100 
L 5500 3100 
L 5500 3900 
L 3475 3900 
L 3475 3200 
Q 3475 2775 3500 2425 
L 2975 2425 
Q 3000 2750 3000 3175 
L 3000 3900 
L 950 3900 
L 950 3100 
L 450 3100 
Q 450 3375 462 3650 
Q 475 3925 450 4275 
L 3000 4275 
L 3000 4700 
L 1775 4700 
Q 1400 4700 1025 4675 
L 1025 5100 
Q 1400 5075 1750 5075 
L 4700 5075 
z
M 2475 2450 
L 1250 2450 
L 1250 2800 
L 2475 2800 
L 2475 2450 
z
M 2500 3150 
L 1325 3150 
L 1325 3500 
L 2500 3500 
L 2500 3150 
z
M 5000 3175 
L 3825 3175 
L 3825 3525 
L 5000 3525 
L 5000 3175 
z
M 5025 2500 
L 3850 2500 
L 3850 2850 
L 5025 2850 
L 5025 2500 
z
" transform="scale(0.015625)"/>
       <path id="SimHei-6c42" d="M 475 4025 
Q 875 4000 1325 4000 
L 2875 4000 
Q 2875 4725 2850 5125 
L 3400 5125 
Q 3375 4725 3375 4000 
L 5150 4000 
Q 5500 4000 5925 4025 
L 5925 3575 
Q 5475 3600 5150 3600 
L 3375 3600 
Q 3400 3200 3612 2750 
Q 3825 2300 4050 2000 
Q 4600 2450 5075 3150 
Q 5250 2950 5575 2750 
Q 5275 2600 4250 1650 
Q 4575 1225 5037 850 
Q 5500 475 6050 325 
Q 5700 125 5550 -150 
Q 5000 150 4437 687 
Q 3875 1225 3375 2375 
L 3375 150 
Q 3400 -225 3137 -350 
Q 2875 -475 2375 -525 
Q 2325 -275 2150 25 
Q 2575 0 2737 37 
Q 2900 75 2875 300 
L 2875 1675 
Q 1875 900 1437 550 
Q 1000 200 725 -50 
Q 500 200 300 400 
Q 650 575 1200 937 
Q 1750 1300 2875 2250 
L 2875 3600 
L 1325 3600 
Q 875 3600 475 3575 
L 475 4025 
z
M 1225 3175 
Q 1775 2725 2250 2325 
L 1825 1950 
Q 1450 2375 825 2825 
L 1225 3175 
z
M 4500 5100 
Q 4900 4825 5300 4425 
Q 5125 4300 4925 4100 
Q 4650 4400 4125 4825 
Q 4275 4950 4500 5100 
z
" transform="scale(0.015625)"/>
       <path id="SimHei-91cf" d="M 5250 2500 
Q 5225 2200 5225 1700 
Q 5225 1225 5250 950 
L 3425 950 
L 3425 625 
L 4575 625 
Q 5000 625 5375 650 
L 5375 275 
Q 5025 300 4575 300 
L 3425 300 
L 3425 -75 
L 5125 -75 
Q 5525 -75 5925 -50 
L 5925 -425 
Q 5525 -400 5125 -400 
L 1275 -400 
Q 900 -400 475 -425 
L 475 -50 
Q 925 -50 1275 -75 
L 2975 -75 
L 2975 300 
L 1725 300 
Q 1350 300 975 250 
L 975 650 
Q 1375 625 1725 625 
L 2975 625 
L 2975 950 
L 1150 950 
Q 1175 1375 1175 1775 
Q 1175 2175 1150 2500 
L 5250 2500 
z
M 5200 4950 
Q 5175 4575 5175 4250 
Q 5175 3925 5200 3400 
L 1200 3400 
Q 1225 3925 1225 4250 
Q 1225 4575 1200 4950 
L 5200 4950 
z
M 4900 3100 
Q 5500 3125 6000 3150 
L 6000 2750 
Q 5500 2775 4925 2775 
L 1650 2775 
Q 975 2775 325 2750 
L 325 3150 
Q 975 3125 1650 3100 
L 4900 3100 
z
M 4725 3700 
L 4725 4025 
L 1675 4025 
L 1675 3700 
L 4725 3700 
z
M 4725 4350 
L 4725 4650 
L 1675 4650 
L 1675 4350 
L 4725 4350 
z
M 4750 1875 
L 4750 2175 
L 3425 2175 
L 3425 1875 
L 4750 1875 
z
M 2975 1875 
L 2975 2175 
L 1650 2175 
L 1650 1875 
L 2975 1875 
z
M 2975 1275 
L 2975 1550 
L 1650 1550 
L 1650 1275 
L 2975 1275 
z
M 4750 1275 
L 4750 1550 
L 3425 1550 
L 3425 1275 
L 4750 1275 
z
" transform="scale(0.015625)"/>
      </defs>
      <use xlink:href="#SimHei-9700"/>
      <use xlink:href="#SimHei-6c42" x="100"/>
      <use xlink:href="#SimHei-91cf" x="200"/>
     </g>
    </g>
   </g>
   <g id="line2d_15">
    <path d="M 115.363636 318.96 
L 118.245868 344.16 
L 121.128099 369.36 
L 132.657025 344.16 
L 149.950413 293.76 
L 158.597107 318.96 
L 167.243802 344.16 
L 170.126033 318.96 
L 173.008264 369.36 
L 175.890496 369.36 
L 181.654959 268.56 
L 184.53719 344.16 
L 187.419421 369.36 
L 190.301653 369.36 
L 193.183884 369.36 
L 196.066116 344.16 
L 201.830579 268.56 
L 204.71281 293.76 
L 210.477273 369.36 
L 213.359504 369.36 
L 216.241736 369.36 
L 219.123967 344.16 
L 224.88843 243.36 
L 230.652893 243.36 
L 233.535124 344.16 
L 236.417355 318.96 
L 239.299587 318.96 
L 242.181818 344.16 
L 245.06405 293.76 
L 247.946281 293.76 
L 253.710744 344.16 
L 256.592975 318.96 
L 259.475207 344.16 
L 262.357438 293.76 
L 265.239669 293.76 
L 268.121901 192.96 
L 271.004132 318.96 
L 288.297521 268.56 
L 291.179752 268.56 
L 294.061983 192.96 
L 296.944215 369.36 
L 299.826446 243.36 
L 302.708678 192.96 
L 305.590909 66.96 
L 308.47314 243.36 
L 311.355372 318.96 
L 314.237603 344.16 
L 317.119835 318.96 
L 322.884298 293.76 
L 325.766529 344.16 
L 328.64876 192.96 
L 331.530992 344.16 
L 334.413223 293.76 
L 337.295455 268.56 
L 340.177686 344.16 
L 343.059917 293.76 
L 345.942149 369.36 
L 348.82438 318.96 
L 351.706612 243.36 
L 354.588843 293.76 
L 357.471074 318.96 
L 360.353306 344.16 
L 363.235537 369.36 
L 366.117769 268.56 
L 371.882231 344.16 
L 374.764463 117.36 
L 380.528926 293.76 
L 383.411157 318.96 
L 386.293388 243.36 
L 389.17562 243.36 
L 392.057851 318.96 
L 397.822314 344.16 
L 400.704545 293.76 
L 403.586777 318.96 
L 406.469008 293.76 
L 412.233471 369.36 
L 415.115702 344.16 
L 420.880165 344.16 
L 426.644628 344.16 
L 438.173554 293.76 
L 443.938017 318.96 
L 458.349174 318.96 
L 461.231405 318.96 
L 464.113636 318.96 
L 466.995868 318.96 
L 510.229339 369.36 
L 513.11157 344.16 
L 521.758264 369.36 
L 524.640496 344.16 
L 530.404959 369.36 
L 539.051653 318.96 
L 547.698347 369.36 
L 556.345041 369.36 
L 564.991736 344.16 
L 590.931818 344.16 
L 593.81405 344.16 
L 599.578512 369.36 
L 619.754132 344.16 
L 622.636364 369.36 
" clip-path="url(#p5b6bfddf58)" style="fill: none; stroke: #0000ff; stroke-width: 1.5; stroke-linecap: square"/>
    <defs>
     <path id="m8a551b7f10" d="M 0 3 
C 0.795609 3 1.55874 2.683901 2.12132 2.12132 
C 2.683901 1.55874 3 0.795609 3 0 
C 3 -0.795609 2.683901 -1.55874 2.12132 -2.12132 
C 1.55874 -2.683901 0.795609 -3 0 -3 
C -0.795609 -3 -1.55874 -2.683901 -2.12132 -2.12132 
C -2.683901 -1.55874 -3 -0.795609 -3 0 
C -3 0.795609 -2.683901 1.55874 -2.12132 2.12132 
C -1.55874 2.683901 -0.795609 3 0 3 
z
" style="stroke: #0000ff"/>
    </defs>
    <g clip-path="url(#p5b6bfddf58)">
     <use xlink:href="#m8a551b7f10" x="115.363636" y="318.96" style="fill: #0000ff; stroke: #0000ff"/>
     <use xlink:href="#m8a551b7f10" x="118.245868" y="344.16" style="fill: #0000ff; stroke: #0000ff"/>
     <use xlink:href="#m8a551b7f10" x="121.128099" y="369.36" style="fill: #0000ff; stroke: #0000ff"/>
     <use xlink:href="#m8a551b7f10" x="132.657025" y="344.16" style="fill: #0000ff; stroke: #0000ff"/>
     <use xlink:href="#m8a551b7f10" x="149.950413" y="293.76" style="fill: #0000ff; stroke: #0000ff"/>
     <use xlink:href="#m8a551b7f10" x="158.597107" y="318.96" style="fill: #0000ff; stroke: #0000ff"/>
     <use xlink:href="#m8a551b7f10" x="167.243802" y="344.16" style="fill: #0000ff; stroke: #0000ff"/>
     <use xlink:href="#m8a551b7f10" x="170.126033" y="318.96" style="fill: #0000ff; stroke: #0000ff"/>
     <use xlink:href="#m8a551b7f10" x="173.008264" y="369.36" style="fill: #0000ff; stroke: #0000ff"/>
     <use xlink:href="#m8a551b7f10" x="175.890496" y="369.36" style="fill: #0000ff; stroke: #0000ff"/>
     <use xlink:href="#m8a551b7f10" x="181.654959" y="268.56" style="fill: #0000ff; stroke: #0000ff"/>
     <use xlink:href="#m8a551b7f10" x="184.53719" y="344.16" style="fill: #0000ff; stroke: #0000ff"/>
     <use xlink:href="#m8a551b7f10" x="187.419421" y="369.36" style="fill: #0000ff; stroke: #0000ff"/>
     <use xlink:href="#m8a551b7f10" x="190.301653" y="369.36" style="fill: #0000ff; stroke: #0000ff"/>
     <use xlink:href="#m8a551b7f10" x="193.183884" y="369.36" style="fill: #0000ff; stroke: #0000ff"/>
     <use xlink:href="#m8a551b7f10" x="196.066116" y="344.16" style="fill: #0000ff; stroke: #0000ff"/>
     <use xlink:href="#m8a551b7f10" x="201.830579" y="268.56" style="fill: #0000ff; stroke: #0000ff"/>
     <use xlink:href="#m8a551b7f10" x="204.71281" y="293.76" style="fill: #0000ff; stroke: #0000ff"/>
     <use xlink:href="#m8a551b7f10" x="210.477273" y="369.36" style="fill: #0000ff; stroke: #0000ff"/>
     <use xlink:href="#m8a551b7f10" x="213.359504" y="369.36" style="fill: #0000ff; stroke: #0000ff"/>
     <use xlink:href="#m8a551b7f10" x="216.241736" y="369.36" style="fill: #0000ff; stroke: #0000ff"/>
     <use xlink:href="#m8a551b7f10" x="219.123967" y="344.16" style="fill: #0000ff; stroke: #0000ff"/>
     <use xlink:href="#m8a551b7f10" x="224.88843" y="243.36" style="fill: #0000ff; stroke: #0000ff"/>
     <use xlink:href="#m8a551b7f10" x="230.652893" y="243.36" style="fill: #0000ff; stroke: #0000ff"/>
     <use xlink:href="#m8a551b7f10" x="233.535124" y="344.16" style="fill: #0000ff; stroke: #0000ff"/>
     <use xlink:href="#m8a551b7f10" x="236.417355" y="318.96" style="fill: #0000ff; stroke: #0000ff"/>
     <use xlink:href="#m8a551b7f10" x="239.299587" y="318.96" style="fill: #0000ff; stroke: #0000ff"/>
     <use xlink:href="#m8a551b7f10" x="242.181818" y="344.16" style="fill: #0000ff; stroke: #0000ff"/>
     <use xlink:href="#m8a551b7f10" x="245.06405" y="293.76" style="fill: #0000ff; stroke: #0000ff"/>
     <use xlink:href="#m8a551b7f10" x="247.946281" y="293.76" style="fill: #0000ff; stroke: #0000ff"/>
     <use xlink:href="#m8a551b7f10" x="253.710744" y="344.16" style="fill: #0000ff; stroke: #0000ff"/>
     <use xlink:href="#m8a551b7f10" x="256.592975" y="318.96" style="fill: #0000ff; stroke: #0000ff"/>
     <use xlink:href="#m8a551b7f10" x="259.475207" y="344.16" style="fill: #0000ff; stroke: #0000ff"/>
     <use xlink:href="#m8a551b7f10" x="262.357438" y="293.76" style="fill: #0000ff; stroke: #0000ff"/>
     <use xlink:href="#m8a551b7f10" x="265.239669" y="293.76" style="fill: #0000ff; stroke: #0000ff"/>
     <use xlink:href="#m8a551b7f10" x="268.121901" y="192.96" style="fill: #0000ff; stroke: #0000ff"/>
     <use xlink:href="#m8a551b7f10" x="271.004132" y="318.96" style="fill: #0000ff; stroke: #0000ff"/>
     <use xlink:href="#m8a551b7f10" x="288.297521" y="268.56" style="fill: #0000ff; stroke: #0000ff"/>
     <use xlink:href="#m8a551b7f10" x="291.179752" y="268.56" style="fill: #0000ff; stroke: #0000ff"/>
     <use xlink:href="#m8a551b7f10" x="294.061983" y="192.96" style="fill: #0000ff; stroke: #0000ff"/>
     <use xlink:href="#m8a551b7f10" x="296.944215" y="369.36" style="fill: #0000ff; stroke: #0000ff"/>
     <use xlink:href="#m8a551b7f10" x="299.826446" y="243.36" style="fill: #0000ff; stroke: #0000ff"/>
     <use xlink:href="#m8a551b7f10" x="302.708678" y="192.96" style="fill: #0000ff; stroke: #0000ff"/>
     <use xlink:href="#m8a551b7f10" x="305.590909" y="66.96" style="fill: #0000ff; stroke: #0000ff"/>
     <use xlink:href="#m8a551b7f10" x="308.47314" y="243.36" style="fill: #0000ff; stroke: #0000ff"/>
     <use xlink:href="#m8a551b7f10" x="311.355372" y="318.96" style="fill: #0000ff; stroke: #0000ff"/>
     <use xlink:href="#m8a551b7f10" x="314.237603" y="344.16" style="fill: #0000ff; stroke: #0000ff"/>
     <use xlink:href="#m8a551b7f10" x="317.119835" y="318.96" style="fill: #0000ff; stroke: #0000ff"/>
     <use xlink:href="#m8a551b7f10" x="322.884298" y="293.76" style="fill: #0000ff; stroke: #0000ff"/>
     <use xlink:href="#m8a551b7f10" x="325.766529" y="344.16" style="fill: #0000ff; stroke: #0000ff"/>
     <use xlink:href="#m8a551b7f10" x="328.64876" y="192.96" style="fill: #0000ff; stroke: #0000ff"/>
     <use xlink:href="#m8a551b7f10" x="331.530992" y="344.16" style="fill: #0000ff; stroke: #0000ff"/>
     <use xlink:href="#m8a551b7f10" x="334.413223" y="293.76" style="fill: #0000ff; stroke: #0000ff"/>
     <use xlink:href="#m8a551b7f10" x="337.295455" y="268.56" style="fill: #0000ff; stroke: #0000ff"/>
     <use xlink:href="#m8a551b7f10" x="340.177686" y="344.16" style="fill: #0000ff; stroke: #0000ff"/>
     <use xlink:href="#m8a551b7f10" x="343.059917" y="293.76" style="fill: #0000ff; stroke: #0000ff"/>
     <use xlink:href="#m8a551b7f10" x="345.942149" y="369.36" style="fill: #0000ff; stroke: #0000ff"/>
     <use xlink:href="#m8a551b7f10" x="348.82438" y="318.96" style="fill: #0000ff; stroke: #0000ff"/>
     <use xlink:href="#m8a551b7f10" x="351.706612" y="243.36" style="fill: #0000ff; stroke: #0000ff"/>
     <use xlink:href="#m8a551b7f10" x="354.588843" y="293.76" style="fill: #0000ff; stroke: #0000ff"/>
     <use xlink:href="#m8a551b7f10" x="357.471074" y="318.96" style="fill: #0000ff; stroke: #0000ff"/>
     <use xlink:href="#m8a551b7f10" x="360.353306" y="344.16" style="fill: #0000ff; stroke: #0000ff"/>
     <use xlink:href="#m8a551b7f10" x="363.235537" y="369.36" style="fill: #0000ff; stroke: #0000ff"/>
     <use xlink:href="#m8a551b7f10" x="366.117769" y="268.56" style="fill: #0000ff; stroke: #0000ff"/>
     <use xlink:href="#m8a551b7f10" x="371.882231" y="344.16" style="fill: #0000ff; stroke: #0000ff"/>
     <use xlink:href="#m8a551b7f10" x="374.764463" y="117.36" style="fill: #0000ff; stroke: #0000ff"/>
     <use xlink:href="#m8a551b7f10" x="380.528926" y="293.76" style="fill: #0000ff; stroke: #0000ff"/>
     <use xlink:href="#m8a551b7f10" x="383.411157" y="318.96" style="fill: #0000ff; stroke: #0000ff"/>
     <use xlink:href="#m8a551b7f10" x="386.293388" y="243.36" style="fill: #0000ff; stroke: #0000ff"/>
     <use xlink:href="#m8a551b7f10" x="389.17562" y="243.36" style="fill: #0000ff; stroke: #0000ff"/>
     <use xlink:href="#m8a551b7f10" x="392.057851" y="318.96" style="fill: #0000ff; stroke: #0000ff"/>
     <use xlink:href="#m8a551b7f10" x="397.822314" y="344.16" style="fill: #0000ff; stroke: #0000ff"/>
     <use xlink:href="#m8a551b7f10" x="400.704545" y="293.76" style="fill: #0000ff; stroke: #0000ff"/>
     <use xlink:href="#m8a551b7f10" x="403.586777" y="318.96" style="fill: #0000ff; stroke: #0000ff"/>
     <use xlink:href="#m8a551b7f10" x="406.469008" y="293.76" style="fill: #0000ff; stroke: #0000ff"/>
     <use xlink:href="#m8a551b7f10" x="412.233471" y="369.36" style="fill: #0000ff; stroke: #0000ff"/>
     <use xlink:href="#m8a551b7f10" x="415.115702" y="344.16" style="fill: #0000ff; stroke: #0000ff"/>
     <use xlink:href="#m8a551b7f10" x="420.880165" y="344.16" style="fill: #0000ff; stroke: #0000ff"/>
     <use xlink:href="#m8a551b7f10" x="426.644628" y="344.16" style="fill: #0000ff; stroke: #0000ff"/>
     <use xlink:href="#m8a551b7f10" x="438.173554" y="293.76" style="fill: #0000ff; stroke: #0000ff"/>
     <use xlink:href="#m8a551b7f10" x="443.938017" y="318.96" style="fill: #0000ff; stroke: #0000ff"/>
     <use xlink:href="#m8a551b7f10" x="458.349174" y="318.96" style="fill: #0000ff; stroke: #0000ff"/>
     <use xlink:href="#m8a551b7f10" x="461.231405" y="318.96" style="fill: #0000ff; stroke: #0000ff"/>
     <use xlink:href="#m8a551b7f10" x="464.113636" y="318.96" style="fill: #0000ff; stroke: #0000ff"/>
     <use xlink:href="#m8a551b7f10" x="466.995868" y="318.96" style="fill: #0000ff; stroke: #0000ff"/>
     <use xlink:href="#m8a551b7f10" x="510.229339" y="369.36" style="fill: #0000ff; stroke: #0000ff"/>
     <use xlink:href="#m8a551b7f10" x="513.11157" y="344.16" style="fill: #0000ff; stroke: #0000ff"/>
     <use xlink:href="#m8a551b7f10" x="521.758264" y="369.36" style="fill: #0000ff; stroke: #0000ff"/>
     <use xlink:href="#m8a551b7f10" x="524.640496" y="344.16" style="fill: #0000ff; stroke: #0000ff"/>
     <use xlink:href="#m8a551b7f10" x="530.404959" y="369.36" style="fill: #0000ff; stroke: #0000ff"/>
     <use xlink:href="#m8a551b7f10" x="539.051653" y="318.96" style="fill: #0000ff; stroke: #0000ff"/>
     <use xlink:href="#m8a551b7f10" x="547.698347" y="369.36" style="fill: #0000ff; stroke: #0000ff"/>
     <use xlink:href="#m8a551b7f10" x="556.345041" y="369.36" style="fill: #0000ff; stroke: #0000ff"/>
     <use xlink:href="#m8a551b7f10" x="564.991736" y="344.16" style="fill: #0000ff; stroke: #0000ff"/>
     <use xlink:href="#m8a551b7f10" x="590.931818" y="344.16" style="fill: #0000ff; stroke: #0000ff"/>
     <use xlink:href="#m8a551b7f10" x="593.81405" y="344.16" style="fill: #0000ff; stroke: #0000ff"/>
     <use xlink:href="#m8a551b7f10" x="599.578512" y="369.36" style="fill: #0000ff; stroke: #0000ff"/>
     <use xlink:href="#m8a551b7f10" x="619.754132" y="344.16" style="fill: #0000ff; stroke: #0000ff"/>
     <use xlink:href="#m8a551b7f10" x="622.636364" y="369.36" style="fill: #0000ff; stroke: #0000ff"/>
    </g>
   </g>
   <g id="patch_3">
    <path d="M 90 384.48 
L 90 51.84 
" style="fill: none; stroke: #000000; stroke-width: 0.8; stroke-linejoin: miter; stroke-linecap: square"/>
   </g>
   <g id="patch_4">
    <path d="M 648 384.48 
L 648 51.84 
" style="fill: none; stroke: #000000; stroke-width: 0.8; stroke-linejoin: miter; stroke-linecap: square"/>
   </g>
   <g id="patch_5">
    <path d="M 90 384.48 
L 648 384.48 
" style="fill: none; stroke: #000000; stroke-width: 0.8; stroke-linejoin: miter; stroke-linecap: square"/>
   </g>
   <g id="patch_6">
    <path d="M 90 51.84 
L 648 51.84 
" style="fill: none; stroke: #000000; stroke-width: 0.8; stroke-linejoin: miter; stroke-linecap: square"/>
   </g>
  </g>
  <g id="axes_2">
   <g id="matplotlib.axis_3">
    <g id="ytick_7">
     <g id="line2d_16">
      <defs>
       <path id="m4f8359cd72" d="M 0 0 
L 3.5 0 
" style="stroke: #000000; stroke-width: 0.8"/>
      </defs>
      <g>
       <use xlink:href="#m4f8359cd72" x="648" y="351.493882" style="stroke: #000000; stroke-width: 0.8"/>
      </g>
     </g>
     <g id="text_17">
      <!-- 5000 -->
      <g style="fill: #008000" transform="translate(655 354.931382) scale(0.1 -0.1)">
       <use xlink:href="#SimHei-35"/>
       <use xlink:href="#SimHei-30" x="50"/>
       <use xlink:href="#SimHei-30" x="100"/>
       <use xlink:href="#SimHei-30" x="150"/>
      </g>
     </g>
    </g>
    <g id="ytick_8">
     <g id="line2d_17">
      <g>
       <use xlink:href="#m4f8359cd72" x="648" y="308.360651" style="stroke: #000000; stroke-width: 0.8"/>
      </g>
     </g>
     <g id="text_18">
      <!-- 10000 -->
      <g style="fill: #008000" transform="translate(655 311.798151) scale(0.1 -0.1)">
       <use xlink:href="#SimHei-31"/>
       <use xlink:href="#SimHei-30" x="50"/>
       <use xlink:href="#SimHei-30" x="100"/>
       <use xlink:href="#SimHei-30" x="150"/>
       <use xlink:href="#SimHei-30" x="200"/>
      </g>
     </g>
    </g>
    <g id="ytick_9">
     <g id="line2d_18">
      <g>
       <use xlink:href="#m4f8359cd72" x="648" y="265.227419" style="stroke: #000000; stroke-width: 0.8"/>
      </g>
     </g>
     <g id="text_19">
      <!-- 15000 -->
      <g style="fill: #008000" transform="translate(655 268.664919) scale(0.1 -0.1)">
       <use xlink:href="#SimHei-31"/>
       <use xlink:href="#SimHei-35" x="50"/>
       <use xlink:href="#SimHei-30" x="100"/>
       <use xlink:href="#SimHei-30" x="150"/>
       <use xlink:href="#SimHei-30" x="200"/>
      </g>
     </g>
    </g>
    <g id="ytick_10">
     <g id="line2d_19">
      <g>
       <use xlink:href="#m4f8359cd72" x="648" y="222.094188" style="stroke: #000000; stroke-width: 0.8"/>
      </g>
     </g>
     <g id="text_20">
      <!-- 20000 -->
      <g style="fill: #008000" transform="translate(655 225.531688) scale(0.1 -0.1)">
       <use xlink:href="#SimHei-32"/>
       <use xlink:href="#SimHei-30" x="50"/>
       <use xlink:href="#SimHei-30" x="100"/>
       <use xlink:href="#SimHei-30" x="150"/>
       <use xlink:href="#SimHei-30" x="200"/>
      </g>
     </g>
    </g>
    <g id="ytick_11">
     <g id="line2d_20">
      <g>
       <use xlink:href="#m4f8359cd72" x="648" y="178.960956" style="stroke: #000000; stroke-width: 0.8"/>
      </g>
     </g>
     <g id="text_21">
      <!-- 25000 -->
      <g style="fill: #008000" transform="translate(655 182.398456) scale(0.1 -0.1)">
       <use xlink:href="#SimHei-32"/>
       <use xlink:href="#SimHei-35" x="50"/>
       <use xlink:href="#SimHei-30" x="100"/>
       <use xlink:href="#SimHei-30" x="150"/>
       <use xlink:href="#SimHei-30" x="200"/>
      </g>
     </g>
    </g>
    <g id="ytick_12">
     <g id="line2d_21">
      <g>
       <use xlink:href="#m4f8359cd72" x="648" y="135.827725" style="stroke: #000000; stroke-width: 0.8"/>
      </g>
     </g>
     <g id="text_22">
      <!-- 30000 -->
      <g style="fill: #008000" transform="translate(655 139.265225) scale(0.1 -0.1)">
       <defs>
        <path id="SimHei-33" d="M 250 1225 
L 700 1300 
Q 800 975 1025 762 
Q 1250 550 1587 562 
Q 1925 575 2125 837 
Q 2325 1100 2300 1437 
Q 2275 1775 2037 1962 
Q 1800 2150 1275 2225 
L 1275 2550 
Q 1800 2600 2037 2825 
Q 2275 3050 2250 3412 
Q 2225 3775 1925 3937 
Q 1625 4100 1287 3975 
Q 950 3850 750 3275 
L 300 3350 
Q 450 3800 712 4100 
Q 975 4400 1425 4450 
Q 1875 4500 2212 4337 
Q 2550 4175 2687 3837 
Q 2825 3500 2725 3100 
Q 2625 2700 2150 2400 
Q 2500 2250 2687 1950 
Q 2875 1650 2812 1162 
Q 2750 675 2375 375 
Q 2000 75 1525 87 
Q 1050 100 700 387 
Q 350 675 250 1225 
z
" transform="scale(0.015625)"/>
       </defs>
       <use xlink:href="#SimHei-33"/>
       <use xlink:href="#SimHei-30" x="50"/>
       <use xlink:href="#SimHei-30" x="100"/>
       <use xlink:href="#SimHei-30" x="150"/>
       <use xlink:href="#SimHei-30" x="200"/>
      </g>
     </g>
    </g>
    <g id="ytick_13">
     <g id="line2d_22">
      <g>
       <use xlink:href="#m4f8359cd72" x="648" y="92.694494" style="stroke: #000000; stroke-width: 0.8"/>
      </g>
     </g>
     <g id="text_23">
      <!-- 35000 -->
      <g style="fill: #008000" transform="translate(655 96.131994) scale(0.1 -0.1)">
       <use xlink:href="#SimHei-33"/>
       <use xlink:href="#SimHei-35" x="50"/>
       <use xlink:href="#SimHei-30" x="100"/>
       <use xlink:href="#SimHei-30" x="150"/>
       <use xlink:href="#SimHei-30" x="200"/>
      </g>
     </g>
    </g>
    <g id="text_24">
     <!-- 收益 -->
     <g style="fill: #008000" transform="translate(691.929688 228.16) rotate(-90) scale(0.1 -0.1)">
      <defs>
       <path id="SimHei-6536" d="M 4250 5050 
Q 4125 4850 3750 4050 
L 5150 4050 
Q 5675 4050 6125 4075 
L 6125 3600 
Q 5675 3625 5300 3625 
Q 5225 2625 5025 1975 
Q 4825 1325 4575 900 
Q 4900 500 5287 275 
Q 5675 50 6200 -75 
Q 5900 -275 5800 -550 
Q 5300 -350 4950 -100 
Q 4600 150 4275 525 
Q 3800 0 2775 -625 
Q 2650 -425 2300 -225 
Q 3275 150 3950 925 
Q 3775 1325 3612 1787 
Q 3450 2250 3250 3000 
Q 2975 2450 2825 2275 
Q 2650 2400 2425 2525 
Q 2775 3025 3137 3837 
Q 3500 4650 3625 5250 
Q 3925 5125 4250 5050 
z
M 975 4275 
Q 925 3950 925 3450 
L 925 1575 
L 1775 1725 
L 1775 4425 
Q 1775 4775 1750 5150 
L 2250 5150 
Q 2225 4850 2225 4450 
L 2225 300 
Q 2225 -50 2250 -550 
L 1750 -550 
Q 1775 -25 1775 350 
L 1775 1350 
Q 625 1050 500 925 
Q 375 1125 225 1350 
Q 450 1475 450 1800 
L 450 3575 
Q 450 3925 425 4275 
L 975 4275 
z
M 3725 3150 
Q 3800 2700 3962 2212 
Q 4125 1725 4300 1375 
Q 4725 2150 4825 3625 
L 3575 3625 
Q 3400 3275 3300 3100 
L 3725 3150 
z
" transform="scale(0.015625)"/>
       <path id="SimHei-76ca" d="M 2825 2925 
Q 2425 2775 2012 2487 
Q 1600 2200 1225 1975 
L 5275 1975 
Q 5250 1575 5250 1000 
L 5250 -50 
Q 5800 -50 6175 -25 
L 6175 -525 
Q 5725 -500 5250 -500 
L 1325 -500 
Q 700 -500 250 -525 
L 250 -25 
Q 600 -50 1175 -50 
L 1175 1050 
Q 1175 1575 1150 1925 
Q 1000 1800 800 1700 
Q 650 1950 425 2125 
Q 800 2275 1312 2600 
Q 1825 2925 2325 3400 
Q 2550 3150 2825 2925 
z
M 4725 5050 
Q 4575 4900 4462 4637 
Q 4350 4375 4175 4075 
L 4625 4075 
Q 5350 4075 5900 4100 
L 5900 3625 
Q 5350 3650 4625 3650 
L 1975 3650 
Q 1350 3650 550 3625 
L 550 4100 
Q 1175 4075 1975 4075 
L 3675 4075 
Q 3775 4300 3887 4625 
Q 4000 4950 4125 5250 
L 4725 5050 
z
M 3600 -50 
L 3600 1575 
L 2800 1575 
L 2800 -50 
L 3600 -50 
z
M 4800 -50 
L 4800 1575 
L 4025 1575 
L 4025 -50 
L 4800 -50 
z
M 2375 -50 
L 2375 1575 
L 1625 1575 
L 1625 -50 
L 2375 -50 
z
M 3900 3350 
Q 4375 3150 4900 2925 
Q 5425 2700 5900 2500 
Q 5700 2300 5550 2000 
Q 5025 2300 4512 2537 
Q 4000 2775 3625 2900 
Q 3750 3075 3900 3350 
z
M 2150 5250 
Q 2375 4925 2650 4350 
Q 2425 4275 2150 4125 
Q 1950 4650 1675 5025 
Q 1875 5100 2150 5250 
z
" transform="scale(0.015625)"/>
      </defs>
      <use xlink:href="#SimHei-6536"/>
      <use xlink:href="#SimHei-76ca" x="100"/>
     </g>
    </g>
   </g>
   <g id="line2d_23">
    <path d="M 115.363636 317.552703 
L 118.245868 343.244173 
L 121.128099 368.935643 
L 132.657025 343.22875 
L 149.950413 291.191746 
L 158.597107 316.571627 
L 167.243802 342.412404 
L 170.126033 316.038435 
L 173.008264 368.430887 
L 175.890496 368.430887 
L 181.654959 263.696258 
L 184.53719 342.284937 
L 187.419421 368.456025 
L 190.301653 368.456025 
L 193.183884 368.456025 
L 196.066116 342.284937 
L 201.830579 260.697165 
L 204.71281 287.56034 
L 210.477273 367.86042 
L 213.359504 367.86042 
L 216.241736 367.86042 
L 219.123967 341.093727 
L 224.88843 234.602148 
L 230.652893 235.177342 
L 233.535124 342.707045 
L 236.417355 316.74701 
L 239.299587 316.74701 
L 242.181818 342.707045 
L 245.06405 293.723877 
L 247.946281 291.836444 
L 253.710744 343.967392 
L 256.592975 318.637531 
L 259.475207 343.967392 
L 262.357438 293.30767 
L 265.239669 291.818936 
L 268.121901 187.735912 
L 271.004132 317.681397 
L 288.297521 265.402109 
L 291.179752 266.33879 
L 294.061983 189.365796 
L 296.944215 368.969449 
L 299.826446 242.932813 
L 302.708678 192.985813 
L 305.590909 66.96 
L 308.47314 241.553147 
L 311.355372 319.159141 
L 314.237603 344.310589 
L 317.119835 319.152326 
L 322.884298 293.764653 
L 325.766529 344.081177 
L 328.64876 192.881603 
L 331.530992 341.346157 
L 334.413223 287.784852 
L 337.295455 260.957476 
L 340.177686 341.137464 
L 343.059917 287.647814 
L 345.942149 367.882289 
L 348.82438 315.439123 
L 351.706612 239.206555 
L 354.588843 293.55866 
L 357.471074 318.825773 
L 360.353306 344.092887 
L 363.235537 369.36 
L 366.117769 268.098387 
L 371.882231 343.964114 
L 374.764463 115.980616 
L 380.528926 293.190262 
L 383.411157 318.466335 
L 386.293388 242.305557 
L 389.17562 242.30504 
L 392.057851 318.424999 
L 397.822314 343.856587 
L 400.704545 293.086061 
L 403.586777 318.471324 
L 406.469008 292.89156 
L 412.233471 369.115785 
L 415.115702 343.604456 
L 420.880165 343.643016 
L 426.644628 343.643016 
L 438.173554 292.173252 
L 443.938017 318.150967 
L 458.349174 318.126252 
L 461.231405 318.126252 
L 464.113636 318.126252 
L 466.995868 318.126252 
L 510.229339 369.127811 
L 513.11157 343.62762 
L 521.758264 368.918154 
L 524.640496 343.209195 
L 530.404959 368.918154 
L 539.051653 317.351596 
L 547.698347 368.823607 
L 556.345041 368.823607 
L 564.991736 343.0201 
L 590.931818 343.0201 
L 593.81405 343.0201 
L 599.578512 368.294534 
L 619.754132 341.630347 
L 622.636364 368.12873 
" clip-path="url(#p5b6bfddf58)" style="fill: none; stroke: #008000; stroke-width: 1.5; stroke-linecap: square"/>
    <defs>
     <path id="mc42be0c04b" d="M 0 3 
C 0.795609 3 1.55874 2.683901 2.12132 2.12132 
C 2.683901 1.55874 3 0.795609 3 0 
C 3 -0.795609 2.683901 -1.55874 2.12132 -2.12132 
C 1.55874 -2.683901 0.795609 -3 0 -3 
C -0.795609 -3 -1.55874 -2.683901 -2.12132 -2.12132 
C -2.683901 -1.55874 -3 -0.795609 -3 0 
C -3 0.795609 -2.683901 1.55874 -2.12132 2.12132 
C -1.55874 2.683901 -0.795609 3 0 3 
z
" style="stroke: #008000"/>
    </defs>
    <g clip-path="url(#p5b6bfddf58)">
     <use xlink:href="#mc42be0c04b" x="115.363636" y="317.552703" style="fill: #008000; stroke: #008000"/>
     <use xlink:href="#mc42be0c04b" x="118.245868" y="343.244173" style="fill: #008000; stroke: #008000"/>
     <use xlink:href="#mc42be0c04b" x="121.128099" y="368.935643" style="fill: #008000; stroke: #008000"/>
     <use xlink:href="#mc42be0c04b" x="132.657025" y="343.22875" style="fill: #008000; stroke: #008000"/>
     <use xlink:href="#mc42be0c04b" x="149.950413" y="291.191746" style="fill: #008000; stroke: #008000"/>
     <use xlink:href="#mc42be0c04b" x="158.597107" y="316.571627" style="fill: #008000; stroke: #008000"/>
     <use xlink:href="#mc42be0c04b" x="167.243802" y="342.412404" style="fill: #008000; stroke: #008000"/>
     <use xlink:href="#mc42be0c04b" x="170.126033" y="316.038435" style="fill: #008000; stroke: #008000"/>
     <use xlink:href="#mc42be0c04b" x="173.008264" y="368.430887" style="fill: #008000; stroke: #008000"/>
     <use xlink:href="#mc42be0c04b" x="175.890496" y="368.430887" style="fill: #008000; stroke: #008000"/>
     <use xlink:href="#mc42be0c04b" x="181.654959" y="263.696258" style="fill: #008000; stroke: #008000"/>
     <use xlink:href="#mc42be0c04b" x="184.53719" y="342.284937" style="fill: #008000; stroke: #008000"/>
     <use xlink:href="#mc42be0c04b" x="187.419421" y="368.456025" style="fill: #008000; stroke: #008000"/>
     <use xlink:href="#mc42be0c04b" x="190.301653" y="368.456025" style="fill: #008000; stroke: #008000"/>
     <use xlink:href="#mc42be0c04b" x="193.183884" y="368.456025" style="fill: #008000; stroke: #008000"/>
     <use xlink:href="#mc42be0c04b" x="196.066116" y="342.284937" style="fill: #008000; stroke: #008000"/>
     <use xlink:href="#mc42be0c04b" x="201.830579" y="260.697165" style="fill: #008000; stroke: #008000"/>
     <use xlink:href="#mc42be0c04b" x="204.71281" y="287.56034" style="fill: #008000; stroke: #008000"/>
     <use xlink:href="#mc42be0c04b" x="210.477273" y="367.86042" style="fill: #008000; stroke: #008000"/>
     <use xlink:href="#mc42be0c04b" x="213.359504" y="367.86042" style="fill: #008000; stroke: #008000"/>
     <use xlink:href="#mc42be0c04b" x="216.241736" y="367.86042" style="fill: #008000; stroke: #008000"/>
     <use xlink:href="#mc42be0c04b" x="219.123967" y="341.093727" style="fill: #008000; stroke: #008000"/>
     <use xlink:href="#mc42be0c04b" x="224.88843" y="234.602148" style="fill: #008000; stroke: #008000"/>
     <use xlink:href="#mc42be0c04b" x="230.652893" y="235.177342" style="fill: #008000; stroke: #008000"/>
     <use xlink:href="#mc42be0c04b" x="233.535124" y="342.707045" style="fill: #008000; stroke: #008000"/>
     <use xlink:href="#mc42be0c04b" x="236.417355" y="316.74701" style="fill: #008000; stroke: #008000"/>
     <use xlink:href="#mc42be0c04b" x="239.299587" y="316.74701" style="fill: #008000; stroke: #008000"/>
     <use xlink:href="#mc42be0c04b" x="242.181818" y="342.707045" style="fill: #008000; stroke: #008000"/>
     <use xlink:href="#mc42be0c04b" x="245.06405" y="293.723877" style="fill: #008000; stroke: #008000"/>
     <use xlink:href="#mc42be0c04b" x="247.946281" y="291.836444" style="fill: #008000; stroke: #008000"/>
     <use xlink:href="#mc42be0c04b" x="253.710744" y="343.967392" style="fill: #008000; stroke: #008000"/>
     <use xlink:href="#mc42be0c04b" x="256.592975" y="318.637531" style="fill: #008000; stroke: #008000"/>
     <use xlink:href="#mc42be0c04b" x="259.475207" y="343.967392" style="fill: #008000; stroke: #008000"/>
     <use xlink:href="#mc42be0c04b" x="262.357438" y="293.30767" style="fill: #008000; stroke: #008000"/>
     <use xlink:href="#mc42be0c04b" x="265.239669" y="291.818936" style="fill: #008000; stroke: #008000"/>
     <use xlink:href="#mc42be0c04b" x="268.121901" y="187.735912" style="fill: #008000; stroke: #008000"/>
     <use xlink:href="#mc42be0c04b" x="271.004132" y="317.681397" style="fill: #008000; stroke: #008000"/>
     <use xlink:href="#mc42be0c04b" x="288.297521" y="265.402109" style="fill: #008000; stroke: #008000"/>
     <use xlink:href="#mc42be0c04b" x="291.179752" y="266.33879" style="fill: #008000; stroke: #008000"/>
     <use xlink:href="#mc42be0c04b" x="294.061983" y="189.365796" style="fill: #008000; stroke: #008000"/>
     <use xlink:href="#mc42be0c04b" x="296.944215" y="368.969449" style="fill: #008000; stroke: #008000"/>
     <use xlink:href="#mc42be0c04b" x="299.826446" y="242.932813" style="fill: #008000; stroke: #008000"/>
     <use xlink:href="#mc42be0c04b" x="302.708678" y="192.985813" style="fill: #008000; stroke: #008000"/>
     <use xlink:href="#mc42be0c04b" x="305.590909" y="66.96" style="fill: #008000; stroke: #008000"/>
     <use xlink:href="#mc42be0c04b" x="308.47314" y="241.553147" style="fill: #008000; stroke: #008000"/>
     <use xlink:href="#mc42be0c04b" x="311.355372" y="319.159141" style="fill: #008000; stroke: #008000"/>
     <use xlink:href="#mc42be0c04b" x="314.237603" y="344.310589" style="fill: #008000; stroke: #008000"/>
     <use xlink:href="#mc42be0c04b" x="317.119835" y="319.152326" style="fill: #008000; stroke: #008000"/>
     <use xlink:href="#mc42be0c04b" x="322.884298" y="293.764653" style="fill: #008000; stroke: #008000"/>
     <use xlink:href="#mc42be0c04b" x="325.766529" y="344.081177" style="fill: #008000; stroke: #008000"/>
     <use xlink:href="#mc42be0c04b" x="328.64876" y="192.881603" style="fill: #008000; stroke: #008000"/>
     <use xlink:href="#mc42be0c04b" x="331.530992" y="341.346157" style="fill: #008000; stroke: #008000"/>
     <use xlink:href="#mc42be0c04b" x="334.413223" y="287.784852" style="fill: #008000; stroke: #008000"/>
     <use xlink:href="#mc42be0c04b" x="337.295455" y="260.957476" style="fill: #008000; stroke: #008000"/>
     <use xlink:href="#mc42be0c04b" x="340.177686" y="341.137464" style="fill: #008000; stroke: #008000"/>
     <use xlink:href="#mc42be0c04b" x="343.059917" y="287.647814" style="fill: #008000; stroke: #008000"/>
     <use xlink:href="#mc42be0c04b" x="345.942149" y="367.882289" style="fill: #008000; stroke: #008000"/>
     <use xlink:href="#mc42be0c04b" x="348.82438" y="315.439123" style="fill: #008000; stroke: #008000"/>
     <use xlink:href="#mc42be0c04b" x="351.706612" y="239.206555" style="fill: #008000; stroke: #008000"/>
     <use xlink:href="#mc42be0c04b" x="354.588843" y="293.55866" style="fill: #008000; stroke: #008000"/>
     <use xlink:href="#mc42be0c04b" x="357.471074" y="318.825773" style="fill: #008000; stroke: #008000"/>
     <use xlink:href="#mc42be0c04b" x="360.353306" y="344.092887" style="fill: #008000; stroke: #008000"/>
     <use xlink:href="#mc42be0c04b" x="363.235537" y="369.36" style="fill: #008000; stroke: #008000"/>
     <use xlink:href="#mc42be0c04b" x="366.117769" y="268.098387" style="fill: #008000; stroke: #008000"/>
     <use xlink:href="#mc42be0c04b" x="371.882231" y="343.964114" style="fill: #008000; stroke: #008000"/>
     <use xlink:href="#mc42be0c04b" x="374.764463" y="115.980616" style="fill: #008000; stroke: #008000"/>
     <use xlink:href="#mc42be0c04b" x="380.528926" y="293.190262" style="fill: #008000; stroke: #008000"/>
     <use xlink:href="#mc42be0c04b" x="383.411157" y="318.466335" style="fill: #008000; stroke: #008000"/>
     <use xlink:href="#mc42be0c04b" x="386.293388" y="242.305557" style="fill: #008000; stroke: #008000"/>
     <use xlink:href="#mc42be0c04b" x="389.17562" y="242.30504" style="fill: #008000; stroke: #008000"/>
     <use xlink:href="#mc42be0c04b" x="392.057851" y="318.424999" style="fill: #008000; stroke: #008000"/>
     <use xlink:href="#mc42be0c04b" x="397.822314" y="343.856587" style="fill: #008000; stroke: #008000"/>
     <use xlink:href="#mc42be0c04b" x="400.704545" y="293.086061" style="fill: #008000; stroke: #008000"/>
     <use xlink:href="#mc42be0c04b" x="403.586777" y="318.471324" style="fill: #008000; stroke: #008000"/>
     <use xlink:href="#mc42be0c04b" x="406.469008" y="292.89156" style="fill: #008000; stroke: #008000"/>
     <use xlink:href="#mc42be0c04b" x="412.233471" y="369.115785" style="fill: #008000; stroke: #008000"/>
     <use xlink:href="#mc42be0c04b" x="415.115702" y="343.604456" style="fill: #008000; stroke: #008000"/>
     <use xlink:href="#mc42be0c04b" x="420.880165" y="343.643016" style="fill: #008000; stroke: #008000"/>
     <use xlink:href="#mc42be0c04b" x="426.644628" y="343.643016" style="fill: #008000; stroke: #008000"/>
     <use xlink:href="#mc42be0c04b" x="438.173554" y="292.173252" style="fill: #008000; stroke: #008000"/>
     <use xlink:href="#mc42be0c04b" x="443.938017" y="318.150967" style="fill: #008000; stroke: #008000"/>
     <use xlink:href="#mc42be0c04b" x="458.349174" y="318.126252" style="fill: #008000; stroke: #008000"/>
     <use xlink:href="#mc42be0c04b" x="461.231405" y="318.126252" style="fill: #008000; stroke: #008000"/>
     <use xlink:href="#mc42be0c04b" x="464.113636" y="318.126252" style="fill: #008000; stroke: #008000"/>
     <use xlink:href="#mc42be0c04b" x="466.995868" y="318.126252" style="fill: #008000; stroke: #008000"/>
     <use xlink:href="#mc42be0c04b" x="510.229339" y="369.127811" style="fill: #008000; stroke: #008000"/>
     <use xlink:href="#mc42be0c04b" x="513.11157" y="343.62762" style="fill: #008000; stroke: #008000"/>
     <use xlink:href="#mc42be0c04b" x="521.758264" y="368.918154" style="fill: #008000; stroke: #008000"/>
     <use xlink:href="#mc42be0c04b" x="524.640496" y="343.209195" style="fill: #008000; stroke: #008000"/>
     <use xlink:href="#mc42be0c04b" x="530.404959" y="368.918154" style="fill: #008000; stroke: #008000"/>
     <use xlink:href="#mc42be0c04b" x="539.051653" y="317.351596" style="fill: #008000; stroke: #008000"/>
     <use xlink:href="#mc42be0c04b" x="547.698347" y="368.823607" style="fill: #008000; stroke: #008000"/>
     <use xlink:href="#mc42be0c04b" x="556.345041" y="368.823607" style="fill: #008000; stroke: #008000"/>
     <use xlink:href="#mc42be0c04b" x="564.991736" y="343.0201" style="fill: #008000; stroke: #008000"/>
     <use xlink:href="#mc42be0c04b" x="590.931818" y="343.0201" style="fill: #008000; stroke: #008000"/>
     <use xlink:href="#mc42be0c04b" x="593.81405" y="343.0201" style="fill: #008000; stroke: #008000"/>
     <use xlink:href="#mc42be0c04b" x="599.578512" y="368.294534" style="fill: #008000; stroke: #008000"/>
     <use xlink:href="#mc42be0c04b" x="619.754132" y="341.630347" style="fill: #008000; stroke: #008000"/>
     <use xlink:href="#mc42be0c04b" x="622.636364" y="368.12873" style="fill: #008000; stroke: #008000"/>
    </g>
   </g>
   <g id="patch_7">
    <path d="M 90 384.48 
L 90 51.84 
" style="fill: none; stroke: #000000; stroke-width: 0.8; stroke-linejoin: miter; stroke-linecap: square"/>
   </g>
   <g id="patch_8">
    <path d="M 648 384.48 
L 648 51.84 
" style="fill: none; stroke: #000000; stroke-width: 0.8; stroke-linejoin: miter; stroke-linecap: square"/>
   </g>
   <g id="patch_9">
    <path d="M 90 384.48 
L 648 384.48 
" style="fill: none; stroke: #000000; stroke-width: 0.8; stroke-linejoin: miter; stroke-linecap: square"/>
   </g>
   <g id="patch_10">
    <path d="M 90 51.84 
L 648 51.84 
" style="fill: none; stroke: #000000; stroke-width: 0.8; stroke-linejoin: miter; stroke-linecap: square"/>
   </g>
  </g>
  <g id="axes_3">
   <g id="matplotlib.axis_4">
    <g id="ytick_14">
     <g id="line2d_24">
      <g>
       <use xlink:href="#m4f8359cd72" x="708" y="355.084173" style="stroke: #000000; stroke-width: 0.8"/>
      </g>
     </g>
     <g id="text_25">
      <!-- 2925 -->
      <g style="fill: #ff0000" transform="translate(715 358.521673) scale(0.1 -0.1)">
       <defs>
        <path id="SimHei-39" d="M 800 75 
Q 1350 1000 1700 1750 
Q 1075 1650 662 1912 
Q 250 2175 162 2625 
Q 75 3075 175 3437 
Q 275 3800 487 4037 
Q 700 4275 1000 4375 
Q 1300 4475 1537 4475 
Q 1775 4475 2025 4375 
Q 2275 4275 2475 4075 
Q 2675 3875 2750 3662 
Q 2825 3450 2825 3112 
Q 2825 2775 2575 2250 
Q 2325 1725 1350 75 
L 800 75 
z
M 662 2875 
Q 700 2550 937 2337 
Q 1175 2125 1450 2150 
Q 1725 2175 1887 2300 
Q 2050 2425 2200 2725 
Q 2300 3100 2250 3362 
Q 2200 3625 1987 3800 
Q 1775 3975 1525 3975 
Q 1375 4000 1137 3900 
Q 900 3800 762 3500 
Q 625 3200 662 2875 
z
" transform="scale(0.015625)"/>
       </defs>
       <use xlink:href="#SimHei-32"/>
       <use xlink:href="#SimHei-39" x="50"/>
       <use xlink:href="#SimHei-32" x="100"/>
       <use xlink:href="#SimHei-35" x="150"/>
      </g>
     </g>
    </g>
    <g id="ytick_15">
     <g id="line2d_25">
      <g>
       <use xlink:href="#m4f8359cd72" x="708" y="315.073447" style="stroke: #000000; stroke-width: 0.8"/>
      </g>
     </g>
     <g id="text_26">
      <!-- 2950 -->
      <g style="fill: #ff0000" transform="translate(715 318.510947) scale(0.1 -0.1)">
       <use xlink:href="#SimHei-32"/>
       <use xlink:href="#SimHei-39" x="50"/>
       <use xlink:href="#SimHei-35" x="100"/>
       <use xlink:href="#SimHei-30" x="150"/>
      </g>
     </g>
    </g>
    <g id="ytick_16">
     <g id="line2d_26">
      <g>
       <use xlink:href="#m4f8359cd72" x="708" y="275.062721" style="stroke: #000000; stroke-width: 0.8"/>
      </g>
     </g>
     <g id="text_27">
      <!-- 2975 -->
      <g style="fill: #ff0000" transform="translate(715 278.500221) scale(0.1 -0.1)">
       <use xlink:href="#SimHei-32"/>
       <use xlink:href="#SimHei-39" x="50"/>
       <use xlink:href="#SimHei-37" x="100"/>
       <use xlink:href="#SimHei-35" x="150"/>
      </g>
     </g>
    </g>
    <g id="ytick_17">
     <g id="line2d_27">
      <g>
       <use xlink:href="#m4f8359cd72" x="708" y="235.051995" style="stroke: #000000; stroke-width: 0.8"/>
      </g>
     </g>
     <g id="text_28">
      <!-- 3000 -->
      <g style="fill: #ff0000" transform="translate(715 238.489495) scale(0.1 -0.1)">
       <use xlink:href="#SimHei-33"/>
       <use xlink:href="#SimHei-30" x="50"/>
       <use xlink:href="#SimHei-30" x="100"/>
       <use xlink:href="#SimHei-30" x="150"/>
      </g>
     </g>
    </g>
    <g id="ytick_18">
     <g id="line2d_28">
      <g>
       <use xlink:href="#m4f8359cd72" x="708" y="195.041269" style="stroke: #000000; stroke-width: 0.8"/>
      </g>
     </g>
     <g id="text_29">
      <!-- 3025 -->
      <g style="fill: #ff0000" transform="translate(715 198.478769) scale(0.1 -0.1)">
       <use xlink:href="#SimHei-33"/>
       <use xlink:href="#SimHei-30" x="50"/>
       <use xlink:href="#SimHei-32" x="100"/>
       <use xlink:href="#SimHei-35" x="150"/>
      </g>
     </g>
    </g>
    <g id="ytick_19">
     <g id="line2d_29">
      <g>
       <use xlink:href="#m4f8359cd72" x="708" y="155.030543" style="stroke: #000000; stroke-width: 0.8"/>
      </g>
     </g>
     <g id="text_30">
      <!-- 3050 -->
      <g style="fill: #ff0000" transform="translate(715 158.468043) scale(0.1 -0.1)">
       <use xlink:href="#SimHei-33"/>
       <use xlink:href="#SimHei-30" x="50"/>
       <use xlink:href="#SimHei-35" x="100"/>
       <use xlink:href="#SimHei-30" x="150"/>
      </g>
     </g>
    </g>
    <g id="ytick_20">
     <g id="line2d_30">
      <g>
       <use xlink:href="#m4f8359cd72" x="708" y="115.019817" style="stroke: #000000; stroke-width: 0.8"/>
      </g>
     </g>
     <g id="text_31">
      <!-- 3075 -->
      <g style="fill: #ff0000" transform="translate(715 118.457317) scale(0.1 -0.1)">
       <use xlink:href="#SimHei-33"/>
       <use xlink:href="#SimHei-30" x="50"/>
       <use xlink:href="#SimHei-37" x="100"/>
       <use xlink:href="#SimHei-35" x="150"/>
      </g>
     </g>
    </g>
    <g id="ytick_21">
     <g id="line2d_31">
      <g>
       <use xlink:href="#m4f8359cd72" x="708" y="75.009091" style="stroke: #000000; stroke-width: 0.8"/>
      </g>
     </g>
     <g id="text_32">
      <!-- 3100 -->
      <g style="fill: #ff0000" transform="translate(715 78.446591) scale(0.1 -0.1)">
       <use xlink:href="#SimHei-33"/>
       <use xlink:href="#SimHei-31" x="50"/>
       <use xlink:href="#SimHei-30" x="100"/>
       <use xlink:href="#SimHei-30" x="150"/>
      </g>
     </g>
    </g>
    <g id="text_33">
     <!-- 平均单价 -->
     <g style="fill: #ff0000" transform="translate(747.007812 238.16) rotate(-90) scale(0.1 -0.1)">
      <defs>
       <path id="SimHei-5e73" d="M 4525 4825 
Q 4900 4825 5450 4850 
L 5450 4375 
Q 4925 4400 4525 4400 
L 3475 4400 
L 3475 2025 
L 5000 2025 
Q 5550 2025 6025 2050 
L 6025 1575 
Q 5550 1600 5000 1600 
L 3475 1600 
L 3475 450 
Q 3475 -100 3500 -600 
L 2925 -600 
Q 2950 -100 2950 450 
L 2950 1600 
L 1125 1600 
Q 775 1600 375 1575 
L 375 2050 
Q 775 2025 1175 2025 
L 2950 2025 
L 2950 4400 
L 1775 4400 
Q 1400 4400 875 4375 
L 875 4850 
Q 1400 4825 1750 4825 
L 4525 4825 
z
M 3925 2600 
Q 4500 3300 4900 4125 
Q 5150 3950 5400 3825 
Q 4775 2850 4350 2300 
Q 4150 2475 3925 2600 
z
M 1975 2350 
Q 1600 3100 1050 3725 
Q 1250 3875 1450 4050 
Q 2075 3300 2450 2725 
Q 2150 2500 1975 2350 
z
" transform="scale(0.015625)"/>
       <path id="SimHei-5747" d="M 5775 275 
Q 5775 -325 5362 -450 
Q 4950 -575 4425 -600 
Q 4375 -275 4250 25 
Q 4950 -25 5125 62 
Q 5300 150 5300 500 
L 5375 3700 
L 3550 3700 
Q 3425 3375 3262 3037 
Q 3100 2700 2925 2400 
Q 2675 2550 2475 2625 
Q 3150 3625 3500 5200 
Q 3800 5100 4075 5025 
Q 3975 4875 3875 4650 
Q 3775 4425 3675 4125 
L 5900 4125 
L 5775 275 
z
M 1250 3625 
L 1250 4375 
Q 1250 4775 1225 5100 
L 1775 5100 
Q 1750 4725 1750 4375 
L 1750 3625 
L 1900 3625 
Q 2200 3625 2525 3650 
L 2525 3150 
Q 2200 3175 1900 3175 
L 1750 3175 
L 1750 1100 
L 2500 1375 
Q 2475 1125 2525 900 
Q 1225 475 962 362 
Q 700 250 475 150 
Q 375 475 250 750 
Q 575 800 800 850 
Q 1025 900 1250 975 
L 1250 3175 
L 1125 3175 
Q 850 3175 400 3150 
L 400 3650 
Q 850 3625 1100 3625 
L 1250 3625 
z
M 4950 1625 
Q 4675 1425 4137 1050 
Q 3600 675 3175 300 
Q 3000 575 2850 775 
Q 3350 1050 3762 1325 
Q 4175 1600 4775 2075 
Q 4825 1850 4950 1625 
z
M 3775 3150 
Q 4125 2800 4475 2300 
Q 4250 2125 4100 1975 
Q 3900 2325 3450 2825 
Q 3600 3000 3775 3150 
z
" transform="scale(0.015625)"/>
       <path id="SimHei-5355" d="M 5275 4075 
L 5275 1525 
L 3400 1525 
L 3400 925 
L 5050 925 
Q 5600 925 6000 950 
L 6000 450 
Q 5575 475 5050 475 
L 3400 475 
Q 3400 -300 3425 -625 
L 2875 -625 
Q 2925 -300 2925 475 
L 1300 475 
Q 700 475 425 450 
L 425 950 
Q 675 925 1250 925 
L 2925 925 
L 2925 1525 
L 1125 1525 
Q 1150 1950 1150 2750 
Q 1150 3550 1125 4075 
L 3600 4075 
Q 3875 4650 4075 5250 
Q 4325 5125 4650 4975 
Q 4550 4850 4400 4587 
Q 4250 4325 4100 4075 
L 5275 4075 
z
M 4775 1925 
L 4775 2600 
L 3400 2600 
L 3400 1925 
L 4775 1925 
z
M 4775 3000 
L 4775 3650 
L 3400 3650 
L 3400 3000 
L 4775 3000 
z
M 2925 1925 
L 2925 2600 
L 1625 2600 
L 1625 1925 
L 2925 1925 
z
M 2925 3000 
L 2925 3650 
L 1625 3650 
L 1625 3000 
L 2925 3000 
z
M 2100 5225 
Q 2350 4950 2675 4350 
Q 2400 4225 2225 4125 
Q 1975 4675 1725 4975 
Q 1900 5075 2100 5225 
z
" transform="scale(0.015625)"/>
       <path id="SimHei-4ef7" d="M 2200 4975 
Q 2050 4725 1650 3775 
L 1650 450 
Q 1650 -225 1675 -650 
L 1175 -650 
Q 1175 -225 1200 450 
L 1200 2975 
Q 900 2425 650 2100 
Q 525 2275 225 2450 
Q 750 3025 1125 3800 
Q 1500 4575 1625 5175 
Q 1950 5025 2200 4975 
z
M 4175 4700 
Q 4850 3525 6150 2950 
Q 5925 2750 5775 2500 
Q 4725 3100 3950 4300 
Q 3300 3125 2250 2350 
Q 2125 2525 1900 2725 
Q 2825 3325 3250 4050 
Q 3675 4775 3750 5150 
Q 4150 4950 4325 4900 
L 4175 4700 
z
M 3475 2650 
Q 3400 2075 3325 1087 
Q 3250 100 2325 -675 
Q 2175 -450 1925 -300 
Q 2850 350 2912 1262 
Q 2975 2175 2950 2700 
Q 3275 2650 3475 2650 
z
M 5075 2700 
Q 5050 2150 5050 1725 
L 5050 150 
Q 5050 -225 5075 -650 
L 4550 -650 
Q 4575 -225 4575 175 
L 4575 1875 
Q 4575 2150 4550 2700 
L 5075 2700 
z
" transform="scale(0.015625)"/>
      </defs>
      <use xlink:href="#SimHei-5e73"/>
      <use xlink:href="#SimHei-5747" x="100"/>
      <use xlink:href="#SimHei-5355" x="200"/>
      <use xlink:href="#SimHei-4ef7" x="300"/>
     </g>
    </g>
   </g>
   <g id="line2d_32">
    <path d="M 115.363636 270.017005 
L 118.245868 270.017005 
L 121.128099 270.017005 
L 132.657025 268.586318 
L 149.950413 238.965933 
L 158.597107 209.346734 
L 167.243802 192.861485 
L 170.126033 176.373865 
L 173.008264 176.373865 
L 175.890496 176.373865 
L 181.654959 178.239325 
L 184.53719 181.037515 
L 187.419421 181.037515 
L 190.301653 181.037515 
L 193.183884 181.037515 
L 196.066116 181.037515 
L 201.830579 66.96 
L 204.71281 70.539893 
L 210.477273 70.539893 
L 213.359504 70.539893 
L 216.241736 70.539893 
L 219.123967 70.539893 
L 224.88843 88.325061 
L 230.652893 106.110229 
L 233.535124 220.192545 
L 236.417355 220.192545 
L 239.299587 220.192545 
L 242.181818 220.192545 
L 245.06405 356.407194 
L 247.946281 268.867309 
L 253.710744 337.103353 
L 256.592975 337.103353 
L 259.475207 337.103353 
L 262.357438 337.103353 
L 265.239669 268.055242 
L 268.121901 238.491317 
L 271.004132 277.975502 
L 288.297521 241.533733 
L 291.179752 276.28865 
L 294.061983 276.28865 
L 296.944215 276.28865 
L 299.826446 345.911428 
L 302.708678 360.237554 
L 305.590909 360.237554 
L 308.47314 303.251779 
L 311.355372 369.36 
L 314.237603 368.938554 
L 317.119835 368.938554 
L 322.884298 358.298368 
L 325.766529 347.658182 
L 328.64876 357.820907 
L 331.530992 93.955504 
L 334.413223 80.952875 
L 337.295455 76.618665 
L 340.177686 74.596981 
L 343.059917 74.596981 
L 345.942149 74.596981 
L 348.82438 139.312107 
L 351.706612 230.69456 
L 354.588843 348.74434 
L 357.471074 348.74434 
L 360.353306 348.74434 
L 363.235537 348.74434 
L 366.117769 341.577299 
L 371.882231 336.799271 
L 374.764463 336.799271 
L 380.528926 331.657893 
L 383.411157 326.516515 
L 386.293388 326.516515 
L 389.17562 326.50051 
L 392.057851 323.960228 
L 397.822314 326.825036 
L 400.704545 326.825036 
L 403.586777 326.825036 
L 406.469008 317.803968 
L 412.233471 303.437105 
L 415.115702 303.437105 
L 420.880165 307.013942 
L 426.644628 307.013942 
L 438.173554 284.488576 
L 443.938017 307.013942 
L 458.349174 305.485562 
L 461.231405 305.485562 
L 464.113636 305.485562 
L 466.995868 305.485562 
L 510.229339 305.668259 
L 513.11157 305.585806 
L 521.758264 266.772385 
L 524.640496 266.772385 
L 530.404959 266.772385 
L 539.051653 257.58047 
L 547.698347 249.231796 
L 556.345041 249.231796 
L 564.991736 249.231796 
L 590.931818 249.231796 
L 593.81405 249.231796 
L 599.578512 151.077483 
L 619.754132 120.317237 
L 622.636364 120.317237 
" clip-path="url(#p5b6bfddf58)" style="fill: none; stroke: #ff0000; stroke-width: 1.5; stroke-linecap: square"/>
    <defs>
     <path id="mb0e470a8a9" d="M 0 3 
C 0.795609 3 1.55874 2.683901 2.12132 2.12132 
C 2.683901 1.55874 3 0.795609 3 0 
C 3 -0.795609 2.683901 -1.55874 2.12132 -2.12132 
C 1.55874 -2.683901 0.795609 -3 0 -3 
C -0.795609 -3 -1.55874 -2.683901 -2.12132 -2.12132 
C -2.683901 -1.55874 -3 -0.795609 -3 0 
C -3 0.795609 -2.683901 1.55874 -2.12132 2.12132 
C -1.55874 2.683901 -0.795609 3 0 3 
z
" style="stroke: #ff0000"/>
    </defs>
    <g clip-path="url(#p5b6bfddf58)">
     <use xlink:href="#mb0e470a8a9" x="115.363636" y="270.017005" style="fill: #ff0000; stroke: #ff0000"/>
     <use xlink:href="#mb0e470a8a9" x="118.245868" y="270.017005" style="fill: #ff0000; stroke: #ff0000"/>
     <use xlink:href="#mb0e470a8a9" x="121.128099" y="270.017005" style="fill: #ff0000; stroke: #ff0000"/>
     <use xlink:href="#mb0e470a8a9" x="132.657025" y="268.586318" style="fill: #ff0000; stroke: #ff0000"/>
     <use xlink:href="#mb0e470a8a9" x="149.950413" y="238.965933" style="fill: #ff0000; stroke: #ff0000"/>
     <use xlink:href="#mb0e470a8a9" x="158.597107" y="209.346734" style="fill: #ff0000; stroke: #ff0000"/>
     <use xlink:href="#mb0e470a8a9" x="167.243802" y="192.861485" style="fill: #ff0000; stroke: #ff0000"/>
     <use xlink:href="#mb0e470a8a9" x="170.126033" y="176.373865" style="fill: #ff0000; stroke: #ff0000"/>
     <use xlink:href="#mb0e470a8a9" x="173.008264" y="176.373865" style="fill: #ff0000; stroke: #ff0000"/>
     <use xlink:href="#mb0e470a8a9" x="175.890496" y="176.373865" style="fill: #ff0000; stroke: #ff0000"/>
     <use xlink:href="#mb0e470a8a9" x="181.654959" y="178.239325" style="fill: #ff0000; stroke: #ff0000"/>
     <use xlink:href="#mb0e470a8a9" x="184.53719" y="181.037515" style="fill: #ff0000; stroke: #ff0000"/>
     <use xlink:href="#mb0e470a8a9" x="187.419421" y="181.037515" style="fill: #ff0000; stroke: #ff0000"/>
     <use xlink:href="#mb0e470a8a9" x="190.301653" y="181.037515" style="fill: #ff0000; stroke: #ff0000"/>
     <use xlink:href="#mb0e470a8a9" x="193.183884" y="181.037515" style="fill: #ff0000; stroke: #ff0000"/>
     <use xlink:href="#mb0e470a8a9" x="196.066116" y="181.037515" style="fill: #ff0000; stroke: #ff0000"/>
     <use xlink:href="#mb0e470a8a9" x="201.830579" y="66.96" style="fill: #ff0000; stroke: #ff0000"/>
     <use xlink:href="#mb0e470a8a9" x="204.71281" y="70.539893" style="fill: #ff0000; stroke: #ff0000"/>
     <use xlink:href="#mb0e470a8a9" x="210.477273" y="70.539893" style="fill: #ff0000; stroke: #ff0000"/>
     <use xlink:href="#mb0e470a8a9" x="213.359504" y="70.539893" style="fill: #ff0000; stroke: #ff0000"/>
     <use xlink:href="#mb0e470a8a9" x="216.241736" y="70.539893" style="fill: #ff0000; stroke: #ff0000"/>
     <use xlink:href="#mb0e470a8a9" x="219.123967" y="70.539893" style="fill: #ff0000; stroke: #ff0000"/>
     <use xlink:href="#mb0e470a8a9" x="224.88843" y="88.325061" style="fill: #ff0000; stroke: #ff0000"/>
     <use xlink:href="#mb0e470a8a9" x="230.652893" y="106.110229" style="fill: #ff0000; stroke: #ff0000"/>
     <use xlink:href="#mb0e470a8a9" x="233.535124" y="220.192545" style="fill: #ff0000; stroke: #ff0000"/>
     <use xlink:href="#mb0e470a8a9" x="236.417355" y="220.192545" style="fill: #ff0000; stroke: #ff0000"/>
     <use xlink:href="#mb0e470a8a9" x="239.299587" y="220.192545" style="fill: #ff0000; stroke: #ff0000"/>
     <use xlink:href="#mb0e470a8a9" x="242.181818" y="220.192545" style="fill: #ff0000; stroke: #ff0000"/>
     <use xlink:href="#mb0e470a8a9" x="245.06405" y="356.407194" style="fill: #ff0000; stroke: #ff0000"/>
     <use xlink:href="#mb0e470a8a9" x="247.946281" y="268.867309" style="fill: #ff0000; stroke: #ff0000"/>
     <use xlink:href="#mb0e470a8a9" x="253.710744" y="337.103353" style="fill: #ff0000; stroke: #ff0000"/>
     <use xlink:href="#mb0e470a8a9" x="256.592975" y="337.103353" style="fill: #ff0000; stroke: #ff0000"/>
     <use xlink:href="#mb0e470a8a9" x="259.475207" y="337.103353" style="fill: #ff0000; stroke: #ff0000"/>
     <use xlink:href="#mb0e470a8a9" x="262.357438" y="337.103353" style="fill: #ff0000; stroke: #ff0000"/>
     <use xlink:href="#mb0e470a8a9" x="265.239669" y="268.055242" style="fill: #ff0000; stroke: #ff0000"/>
     <use xlink:href="#mb0e470a8a9" x="268.121901" y="238.491317" style="fill: #ff0000; stroke: #ff0000"/>
     <use xlink:href="#mb0e470a8a9" x="271.004132" y="277.975502" style="fill: #ff0000; stroke: #ff0000"/>
     <use xlink:href="#mb0e470a8a9" x="288.297521" y="241.533733" style="fill: #ff0000; stroke: #ff0000"/>
     <use xlink:href="#mb0e470a8a9" x="291.179752" y="276.28865" style="fill: #ff0000; stroke: #ff0000"/>
     <use xlink:href="#mb0e470a8a9" x="294.061983" y="276.28865" style="fill: #ff0000; stroke: #ff0000"/>
     <use xlink:href="#mb0e470a8a9" x="296.944215" y="276.28865" style="fill: #ff0000; stroke: #ff0000"/>
     <use xlink:href="#mb0e470a8a9" x="299.826446" y="345.911428" style="fill: #ff0000; stroke: #ff0000"/>
     <use xlink:href="#mb0e470a8a9" x="302.708678" y="360.237554" style="fill: #ff0000; stroke: #ff0000"/>
     <use xlink:href="#mb0e470a8a9" x="305.590909" y="360.237554" style="fill: #ff0000; stroke: #ff0000"/>
     <use xlink:href="#mb0e470a8a9" x="308.47314" y="303.251779" style="fill: #ff0000; stroke: #ff0000"/>
     <use xlink:href="#mb0e470a8a9" x="311.355372" y="369.36" style="fill: #ff0000; stroke: #ff0000"/>
     <use xlink:href="#mb0e470a8a9" x="314.237603" y="368.938554" style="fill: #ff0000; stroke: #ff0000"/>
     <use xlink:href="#mb0e470a8a9" x="317.119835" y="368.938554" style="fill: #ff0000; stroke: #ff0000"/>
     <use xlink:href="#mb0e470a8a9" x="322.884298" y="358.298368" style="fill: #ff0000; stroke: #ff0000"/>
     <use xlink:href="#mb0e470a8a9" x="325.766529" y="347.658182" style="fill: #ff0000; stroke: #ff0000"/>
     <use xlink:href="#mb0e470a8a9" x="328.64876" y="357.820907" style="fill: #ff0000; stroke: #ff0000"/>
     <use xlink:href="#mb0e470a8a9" x="331.530992" y="93.955504" style="fill: #ff0000; stroke: #ff0000"/>
     <use xlink:href="#mb0e470a8a9" x="334.413223" y="80.952875" style="fill: #ff0000; stroke: #ff0000"/>
     <use xlink:href="#mb0e470a8a9" x="337.295455" y="76.618665" style="fill: #ff0000; stroke: #ff0000"/>
     <use xlink:href="#mb0e470a8a9" x="340.177686" y="74.596981" style="fill: #ff0000; stroke: #ff0000"/>
     <use xlink:href="#mb0e470a8a9" x="343.059917" y="74.596981" style="fill: #ff0000; stroke: #ff0000"/>
     <use xlink:href="#mb0e470a8a9" x="345.942149" y="74.596981" style="fill: #ff0000; stroke: #ff0000"/>
     <use xlink:href="#mb0e470a8a9" x="348.82438" y="139.312107" style="fill: #ff0000; stroke: #ff0000"/>
     <use xlink:href="#mb0e470a8a9" x="351.706612" y="230.69456" style="fill: #ff0000; stroke: #ff0000"/>
     <use xlink:href="#mb0e470a8a9" x="354.588843" y="348.74434" style="fill: #ff0000; stroke: #ff0000"/>
     <use xlink:href="#mb0e470a8a9" x="357.471074" y="348.74434" style="fill: #ff0000; stroke: #ff0000"/>
     <use xlink:href="#mb0e470a8a9" x="360.353306" y="348.74434" style="fill: #ff0000; stroke: #ff0000"/>
     <use xlink:href="#mb0e470a8a9" x="363.235537" y="348.74434" style="fill: #ff0000; stroke: #ff0000"/>
     <use xlink:href="#mb0e470a8a9" x="366.117769" y="341.577299" style="fill: #ff0000; stroke: #ff0000"/>
     <use xlink:href="#mb0e470a8a9" x="371.882231" y="336.799271" style="fill: #ff0000; stroke: #ff0000"/>
     <use xlink:href="#mb0e470a8a9" x="374.764463" y="336.799271" style="fill: #ff0000; stroke: #ff0000"/>
     <use xlink:href="#mb0e470a8a9" x="380.528926" y="331.657893" style="fill: #ff0000; stroke: #ff0000"/>
     <use xlink:href="#mb0e470a8a9" x="383.411157" y="326.516515" style="fill: #ff0000; stroke: #ff0000"/>
     <use xlink:href="#mb0e470a8a9" x="386.293388" y="326.516515" style="fill: #ff0000; stroke: #ff0000"/>
     <use xlink:href="#mb0e470a8a9" x="389.17562" y="326.50051" style="fill: #ff0000; stroke: #ff0000"/>
     <use xlink:href="#mb0e470a8a9" x="392.057851" y="323.960228" style="fill: #ff0000; stroke: #ff0000"/>
     <use xlink:href="#mb0e470a8a9" x="397.822314" y="326.825036" style="fill: #ff0000; stroke: #ff0000"/>
     <use xlink:href="#mb0e470a8a9" x="400.704545" y="326.825036" style="fill: #ff0000; stroke: #ff0000"/>
     <use xlink:href="#mb0e470a8a9" x="403.586777" y="326.825036" style="fill: #ff0000; stroke: #ff0000"/>
     <use xlink:href="#mb0e470a8a9" x="406.469008" y="317.803968" style="fill: #ff0000; stroke: #ff0000"/>
     <use xlink:href="#mb0e470a8a9" x="412.233471" y="303.437105" style="fill: #ff0000; stroke: #ff0000"/>
     <use xlink:href="#mb0e470a8a9" x="415.115702" y="303.437105" style="fill: #ff0000; stroke: #ff0000"/>
     <use xlink:href="#mb0e470a8a9" x="420.880165" y="307.013942" style="fill: #ff0000; stroke: #ff0000"/>
     <use xlink:href="#mb0e470a8a9" x="426.644628" y="307.013942" style="fill: #ff0000; stroke: #ff0000"/>
     <use xlink:href="#mb0e470a8a9" x="438.173554" y="284.488576" style="fill: #ff0000; stroke: #ff0000"/>
     <use xlink:href="#mb0e470a8a9" x="443.938017" y="307.013942" style="fill: #ff0000; stroke: #ff0000"/>
     <use xlink:href="#mb0e470a8a9" x="458.349174" y="305.485562" style="fill: #ff0000; stroke: #ff0000"/>
     <use xlink:href="#mb0e470a8a9" x="461.231405" y="305.485562" style="fill: #ff0000; stroke: #ff0000"/>
     <use xlink:href="#mb0e470a8a9" x="464.113636" y="305.485562" style="fill: #ff0000; stroke: #ff0000"/>
     <use xlink:href="#mb0e470a8a9" x="466.995868" y="305.485562" style="fill: #ff0000; stroke: #ff0000"/>
     <use xlink:href="#mb0e470a8a9" x="510.229339" y="305.668259" style="fill: #ff0000; stroke: #ff0000"/>
     <use xlink:href="#mb0e470a8a9" x="513.11157" y="305.585806" style="fill: #ff0000; stroke: #ff0000"/>
     <use xlink:href="#mb0e470a8a9" x="521.758264" y="266.772385" style="fill: #ff0000; stroke: #ff0000"/>
     <use xlink:href="#mb0e470a8a9" x="524.640496" y="266.772385" style="fill: #ff0000; stroke: #ff0000"/>
     <use xlink:href="#mb0e470a8a9" x="530.404959" y="266.772385" style="fill: #ff0000; stroke: #ff0000"/>
     <use xlink:href="#mb0e470a8a9" x="539.051653" y="257.58047" style="fill: #ff0000; stroke: #ff0000"/>
     <use xlink:href="#mb0e470a8a9" x="547.698347" y="249.231796" style="fill: #ff0000; stroke: #ff0000"/>
     <use xlink:href="#mb0e470a8a9" x="556.345041" y="249.231796" style="fill: #ff0000; stroke: #ff0000"/>
     <use xlink:href="#mb0e470a8a9" x="564.991736" y="249.231796" style="fill: #ff0000; stroke: #ff0000"/>
     <use xlink:href="#mb0e470a8a9" x="590.931818" y="249.231796" style="fill: #ff0000; stroke: #ff0000"/>
     <use xlink:href="#mb0e470a8a9" x="593.81405" y="249.231796" style="fill: #ff0000; stroke: #ff0000"/>
     <use xlink:href="#mb0e470a8a9" x="599.578512" y="151.077483" style="fill: #ff0000; stroke: #ff0000"/>
     <use xlink:href="#mb0e470a8a9" x="619.754132" y="120.317237" style="fill: #ff0000; stroke: #ff0000"/>
     <use xlink:href="#mb0e470a8a9" x="622.636364" y="120.317237" style="fill: #ff0000; stroke: #ff0000"/>
    </g>
   </g>
   <g id="patch_11">
    <path d="M 90 384.48 
L 90 51.84 
" style="fill: none; stroke: #000000; stroke-width: 0.8; stroke-linejoin: miter; stroke-linecap: square"/>
   </g>
   <g id="patch_12">
    <path d="M 708 384.48 
L 708 51.84 
" style="fill: none; stroke: #000000; stroke-width: 0.8; stroke-linejoin: miter; stroke-linecap: square"/>
   </g>
   <g id="patch_13">
    <path d="M 90 384.48 
L 648 384.48 
" style="fill: none; stroke: #000000; stroke-width: 0.8; stroke-linejoin: miter; stroke-linecap: square"/>
   </g>
   <g id="patch_14">
    <path d="M 90 51.84 
L 648 51.84 
" style="fill: none; stroke: #000000; stroke-width: 0.8; stroke-linejoin: miter; stroke-linecap: square"/>
   </g>
   <g id="text_34">
    <!-- 6004020849 每周需求量、收益与平均单价 -->
    <g transform="translate(258 45.84) scale(0.12 -0.12)">
     <defs>
      <path id="SimHei-20" transform="scale(0.015625)"/>
      <path id="SimHei-6bcf" d="M 5225 3650 
Q 5175 3150 5150 2675 
L 5125 2200 
Q 5525 2200 6000 2225 
L 6000 1775 
Q 5625 1800 5100 1800 
L 5050 650 
Q 5325 650 5700 675 
L 5700 225 
Q 5400 250 5025 250 
Q 5000 -275 4775 -425 
Q 4550 -575 4000 -650 
Q 3950 -400 3775 -125 
Q 4375 -125 4475 -50 
Q 4575 25 4575 250 
L 1400 250 
L 1500 1100 
L 1550 1800 
L 1275 1800 
Q 825 1800 550 1775 
L 550 2225 
Q 975 2200 1275 2200 
L 1575 2200 
L 1625 2825 
L 1675 3650 
L 5225 3650 
z
M 2350 5000 
Q 2175 4825 2050 4600 
L 4875 4600 
Q 5275 4600 5775 4625 
L 5775 4175 
Q 5275 4200 4875 4200 
L 1825 4200 
L 1375 3625 
Q 1125 3325 775 2975 
Q 600 3175 350 3300 
Q 725 3575 1150 4112 
Q 1575 4650 1825 5250 
Q 2125 5075 2350 5000 
z
M 1975 1800 
L 1875 650 
L 4625 650 
L 4675 1800 
L 2950 1800 
Q 3575 1275 3825 1125 
Q 3625 925 3475 725 
Q 3100 1100 2650 1475 
Q 2775 1675 2875 1800 
L 1975 1800 
z
M 2975 3250 
Q 3125 3150 3287 3012 
Q 3450 2875 3800 2550 
Q 3650 2350 3525 2200 
L 4700 2200 
L 4750 3250 
L 2975 3250 
z
M 2075 3250 
L 2000 2200 
L 3425 2200 
Q 3150 2500 3012 2625 
Q 2875 2750 2700 2900 
Q 2800 3050 2925 3250 
L 2075 3250 
z
" transform="scale(0.015625)"/>
      <path id="SimHei-3001" d="M 1725 -275 
Q 1325 700 925 1450 
L 1325 1650 
Q 1825 950 2325 25 
L 1725 -275 
z
" transform="scale(0.015625)"/>
      <path id="SimHei-4e0e" d="M 5350 100 
Q 5275 -300 4925 -425 
Q 4575 -550 3900 -600 
Q 3875 -375 3650 -25 
Q 4375 -50 4575 0 
Q 4775 50 4837 225 
Q 4900 400 5100 2350 
L 1125 2350 
Q 1450 4350 1475 5200 
Q 1800 5150 2075 5125 
Q 1975 4825 1900 4275 
L 4900 4275 
Q 5400 4275 5800 4300 
L 5800 3825 
Q 5400 3850 4950 3850 
L 1850 3850 
L 1700 2750 
L 5675 2750 
Q 5625 2450 5575 2050 
L 5350 100 
z
M 3675 1350 
Q 4125 1350 4500 1375 
L 4500 875 
Q 4125 900 3850 900 
L 1450 900 
Q 1000 900 500 875 
L 500 1375 
Q 1000 1350 1450 1350 
L 3675 1350 
z
" transform="scale(0.015625)"/>
     </defs>
     <use xlink:href="#SimHei-36"/>
     <use xlink:href="#SimHei-30" x="50"/>
     <use xlink:href="#SimHei-30" x="100"/>
     <use xlink:href="#SimHei-34" x="150"/>
     <use xlink:href="#SimHei-30" x="200"/>
     <use xlink:href="#SimHei-32" x="250"/>
     <use xlink:href="#SimHei-30" x="300"/>
     <use xlink:href="#SimHei-38" x="350"/>
     <use xlink:href="#SimHei-34" x="400"/>
     <use xlink:href="#SimHei-39" x="450"/>
     <use xlink:href="#SimHei-20" x="500"/>
     <use xlink:href="#SimHei-6bcf" x="550"/>
     <use xlink:href="#SimHei-5468" x="650"/>
     <use xlink:href="#SimHei-9700" x="750"/>
     <use xlink:href="#SimHei-6c42" x="850"/>
     <use xlink:href="#SimHei-91cf" x="950"/>
     <use xlink:href="#SimHei-3001" x="1050"/>
     <use xlink:href="#SimHei-6536" x="1150"/>
     <use xlink:href="#SimHei-76ca" x="1250"/>
     <use xlink:href="#SimHei-4e0e" x="1350"/>
     <use xlink:href="#SimHei-5e73" x="1450"/>
     <use xlink:href="#SimHei-5747" x="1550"/>
     <use xlink:href="#SimHei-5355" x="1650"/>
     <use xlink:href="#SimHei-4ef7" x="1750"/>
    </g>
   </g>
  </g>
 </g>
 <defs>
  <clipPath id="p5b6bfddf58">
   <rect x="90" y="51.84" width="558" height="332.64"/>
  </clipPath>
 </defs>
</svg>
