<?xml version="1.0" encoding="utf-8" standalone="no"?>
<!DOCTYPE svg PUBLIC "-//W3C//DTD SVG 1.1//EN"
  "http://www.w3.org/Graphics/SVG/1.1/DTD/svg11.dtd">
<svg xmlns:xlink="http://www.w3.org/1999/xlink" width="720pt" height="432pt" viewBox="0 0 720 432" xmlns="http://www.w3.org/2000/svg" version="1.1">
 <metadata>
  <rdf:RDF xmlns:dc="http://purl.org/dc/elements/1.1/" xmlns:cc="http://creativecommons.org/ns#" xmlns:rdf="http://www.w3.org/1999/02/22-rdf-syntax-ns#">
   <cc:Work>
    <dc:type rdf:resource="http://purl.org/dc/dcmitype/StillImage"/>
    <dc:date>2024-08-17T14:06:44.307587</dc:date>
    <dc:format>image/svg+xml</dc:format>
    <dc:creator>
     <cc:Agent>
      <dc:title>Matplotlib v3.8.0, https://matplotlib.org/</dc:title>
     </cc:Agent>
    </dc:creator>
   </cc:Work>
  </rdf:RDF>
 </metadata>
 <defs>
  <style type="text/css">*{stroke-linejoin: round; stroke-linecap: butt}</style>
 </defs>
 <g id="figure_1">
  <g id="patch_1">
   <path d="M 0 432 
L 720 432 
L 720 0 
L 0 0 
z
" style="fill: #ffffff"/>
  </g>
  <g id="axes_1">
   <g id="patch_2">
    <path d="M 90 384.48 
L 648 384.48 
L 648 51.84 
L 90 51.84 
z
" style="fill: #ffffff"/>
   </g>
   <g id="matplotlib.axis_1">
    <g id="xtick_1">
     <g id="line2d_1">
      <path d="M 111.936118 384.48 
L 111.936118 51.84 
" clip-path="url(#p67979e2505)" style="fill: none; stroke: #b0b0b0; stroke-width: 0.8; stroke-linecap: square"/>
     </g>
     <g id="line2d_2">
      <defs>
       <path id="m8e985aed32" d="M 0 0 
L 0 3.5 
" style="stroke: #000000; stroke-width: 0.8"/>
      </defs>
      <g>
       <use xlink:href="#m8e985aed32" x="111.936118" y="384.48" style="stroke: #000000; stroke-width: 0.8"/>
      </g>
     </g>
     <g id="text_1">
      <!-- 0 -->
      <g transform="translate(109.436118 398.355) scale(0.1 -0.1)">
       <defs>
        <path id="SimHei-30" d="M 225 2537 
Q 250 3200 412 3587 
Q 575 3975 875 4225 
Q 1175 4475 1612 4475 
Q 2050 4475 2375 4112 
Q 2700 3750 2800 3200 
Q 2900 2650 2862 1937 
Q 2825 1225 2612 775 
Q 2400 325 1975 150 
Q 1550 -25 1125 187 
Q 700 400 525 750 
Q 350 1100 275 1487 
Q 200 1875 225 2537 
z
M 750 2687 
Q 675 2000 800 1462 
Q 925 925 1212 700 
Q 1500 475 1800 612 
Q 2100 750 2237 1162 
Q 2375 1575 2375 2062 
Q 2375 2550 2337 2950 
Q 2300 3350 2112 3675 
Q 1925 4000 1612 4012 
Q 1300 4025 1062 3700 
Q 825 3375 750 2687 
z
" transform="scale(0.015625)"/>
       </defs>
       <use xlink:href="#SimHei-30"/>
      </g>
     </g>
    </g>
    <g id="xtick_2">
     <g id="line2d_3">
      <path d="M 180.486486 384.48 
L 180.486486 51.84 
" clip-path="url(#p67979e2505)" style="fill: none; stroke: #b0b0b0; stroke-width: 0.8; stroke-linecap: square"/>
     </g>
     <g id="line2d_4">
      <g>
       <use xlink:href="#m8e985aed32" x="180.486486" y="384.48" style="stroke: #000000; stroke-width: 0.8"/>
      </g>
     </g>
     <g id="text_2">
      <!-- 20 -->
      <g transform="translate(175.486486 398.355) scale(0.1 -0.1)">
       <defs>
        <path id="SimHei-32" d="M 300 250 
Q 325 625 650 925 
Q 975 1225 1475 1862 
Q 1975 2500 2125 2850 
Q 2275 3200 2237 3450 
Q 2200 3700 2000 3862 
Q 1800 4025 1537 4000 
Q 1275 3975 1037 3800 
Q 800 3625 675 3275 
L 200 3350 
Q 400 3925 712 4187 
Q 1025 4450 1450 4475 
Q 1700 4500 1900 4462 
Q 2100 4425 2312 4287 
Q 2525 4150 2662 3875 
Q 2800 3600 2762 3212 
Q 2725 2825 2375 2287 
Q 2025 1750 1025 600 
L 2825 600 
L 2825 150 
L 300 150 
L 300 250 
z
" transform="scale(0.015625)"/>
       </defs>
       <use xlink:href="#SimHei-32"/>
       <use xlink:href="#SimHei-30" x="50"/>
      </g>
     </g>
    </g>
    <g id="xtick_3">
     <g id="line2d_5">
      <path d="M 249.036855 384.48 
L 249.036855 51.84 
" clip-path="url(#p67979e2505)" style="fill: none; stroke: #b0b0b0; stroke-width: 0.8; stroke-linecap: square"/>
     </g>
     <g id="line2d_6">
      <g>
       <use xlink:href="#m8e985aed32" x="249.036855" y="384.48" style="stroke: #000000; stroke-width: 0.8"/>
      </g>
     </g>
     <g id="text_3">
      <!-- 40 -->
      <g transform="translate(244.036855 398.355) scale(0.1 -0.1)">
       <defs>
        <path id="SimHei-34" d="M 2000 1100 
L 75 1100 
L 75 1525 
L 2100 4450 
L 2475 4450 
L 2475 1525 
L 3075 1525 
L 3075 1100 
L 2475 1100 
L 2475 150 
L 2000 150 
L 2000 1100 
z
M 2000 1525 
L 2000 3500 
L 600 1525 
L 2000 1525 
z
" transform="scale(0.015625)"/>
       </defs>
       <use xlink:href="#SimHei-34"/>
       <use xlink:href="#SimHei-30" x="50"/>
      </g>
     </g>
    </g>
    <g id="xtick_4">
     <g id="line2d_7">
      <path d="M 317.587224 384.48 
L 317.587224 51.84 
" clip-path="url(#p67979e2505)" style="fill: none; stroke: #b0b0b0; stroke-width: 0.8; stroke-linecap: square"/>
     </g>
     <g id="line2d_8">
      <g>
       <use xlink:href="#m8e985aed32" x="317.587224" y="384.48" style="stroke: #000000; stroke-width: 0.8"/>
      </g>
     </g>
     <g id="text_4">
      <!-- 60 -->
      <g transform="translate(312.587224 398.355) scale(0.1 -0.1)">
       <defs>
        <path id="SimHei-36" d="M 250 1612 
Q 275 1975 387 2225 
Q 500 2475 725 2850 
L 1750 4450 
L 2325 4450 
L 1275 2800 
Q 1950 2975 2350 2750 
Q 2750 2525 2887 2237 
Q 3025 1950 3037 1612 
Q 3050 1275 2937 950 
Q 2825 625 2537 362 
Q 2250 100 1737 75 
Q 1225 50 862 262 
Q 500 475 362 862 
Q 225 1250 250 1612 
z
M 1025 787 
Q 1250 550 1625 525 
Q 2000 500 2250 775 
Q 2500 1050 2500 1575 
Q 2500 2100 2187 2300 
Q 1875 2500 1487 2450 
Q 1100 2400 925 2075 
Q 750 1750 775 1387 
Q 800 1025 1025 787 
z
" transform="scale(0.015625)"/>
       </defs>
       <use xlink:href="#SimHei-36"/>
       <use xlink:href="#SimHei-30" x="50"/>
      </g>
     </g>
    </g>
    <g id="xtick_5">
     <g id="line2d_9">
      <path d="M 386.137592 384.48 
L 386.137592 51.84 
" clip-path="url(#p67979e2505)" style="fill: none; stroke: #b0b0b0; stroke-width: 0.8; stroke-linecap: square"/>
     </g>
     <g id="line2d_10">
      <g>
       <use xlink:href="#m8e985aed32" x="386.137592" y="384.48" style="stroke: #000000; stroke-width: 0.8"/>
      </g>
     </g>
     <g id="text_5">
      <!-- 80 -->
      <g transform="translate(381.137592 398.355) scale(0.1 -0.1)">
       <defs>
        <path id="SimHei-38" d="M 175 1375 
Q 175 1675 325 1962 
Q 475 2250 825 2425 
Q 525 2600 425 2812 
Q 325 3025 312 3300 
Q 300 3575 387 3775 
Q 475 3975 650 4150 
Q 825 4325 1037 4387 
Q 1250 4450 1500 4450 
Q 1750 4450 1950 4400 
Q 2150 4350 2375 4187 
Q 2600 4025 2700 3725 
Q 2800 3425 2687 3025 
Q 2575 2625 2100 2400 
Q 2525 2275 2700 2012 
Q 2875 1750 2875 1375 
Q 2875 1000 2762 775 
Q 2650 550 2512 400 
Q 2375 250 2137 162 
Q 1900 75 1537 75 
Q 1175 75 912 162 
Q 650 250 475 425 
Q 300 600 237 837 
Q 175 1075 175 1375 
z
M 687 1400 
Q 675 1100 787 875 
Q 900 650 1200 587 
Q 1500 525 1825 600 
Q 2150 675 2275 950 
Q 2400 1225 2362 1500 
Q 2325 1775 2050 1962 
Q 1775 2150 1450 2125 
Q 1125 2100 912 1900 
Q 700 1700 687 1400 
z
M 775 3350 
Q 775 3100 950 2875 
Q 1125 2650 1500 2650 
Q 1875 2650 2062 2875 
Q 2250 3100 2237 3412 
Q 2225 3725 2012 3875 
Q 1800 4025 1437 4000 
Q 1075 3975 925 3787 
Q 775 3600 775 3350 
z
" transform="scale(0.015625)"/>
       </defs>
       <use xlink:href="#SimHei-38"/>
       <use xlink:href="#SimHei-30" x="50"/>
      </g>
     </g>
    </g>
    <g id="xtick_6">
     <g id="line2d_11">
      <path d="M 454.687961 384.48 
L 454.687961 51.84 
" clip-path="url(#p67979e2505)" style="fill: none; stroke: #b0b0b0; stroke-width: 0.8; stroke-linecap: square"/>
     </g>
     <g id="line2d_12">
      <g>
       <use xlink:href="#m8e985aed32" x="454.687961" y="384.48" style="stroke: #000000; stroke-width: 0.8"/>
      </g>
     </g>
     <g id="text_6">
      <!-- 100 -->
      <g transform="translate(447.187961 398.355) scale(0.1 -0.1)">
       <defs>
        <path id="SimHei-31" d="M 1400 3600 
Q 1075 3275 575 2975 
L 575 3450 
Q 1200 3875 1600 4450 
L 1900 4450 
L 1900 150 
L 1400 150 
L 1400 3600 
z
" transform="scale(0.015625)"/>
       </defs>
       <use xlink:href="#SimHei-31"/>
       <use xlink:href="#SimHei-30" x="50"/>
       <use xlink:href="#SimHei-30" x="100"/>
      </g>
     </g>
    </g>
    <g id="xtick_7">
     <g id="line2d_13">
      <path d="M 523.238329 384.48 
L 523.238329 51.84 
" clip-path="url(#p67979e2505)" style="fill: none; stroke: #b0b0b0; stroke-width: 0.8; stroke-linecap: square"/>
     </g>
     <g id="line2d_14">
      <g>
       <use xlink:href="#m8e985aed32" x="523.238329" y="384.48" style="stroke: #000000; stroke-width: 0.8"/>
      </g>
     </g>
     <g id="text_7">
      <!-- 120 -->
      <g transform="translate(515.738329 398.355) scale(0.1 -0.1)">
       <use xlink:href="#SimHei-31"/>
       <use xlink:href="#SimHei-32" x="50"/>
       <use xlink:href="#SimHei-30" x="100"/>
      </g>
     </g>
    </g>
    <g id="xtick_8">
     <g id="line2d_15">
      <path d="M 591.788698 384.48 
L 591.788698 51.84 
" clip-path="url(#p67979e2505)" style="fill: none; stroke: #b0b0b0; stroke-width: 0.8; stroke-linecap: square"/>
     </g>
     <g id="line2d_16">
      <g>
       <use xlink:href="#m8e985aed32" x="591.788698" y="384.48" style="stroke: #000000; stroke-width: 0.8"/>
      </g>
     </g>
     <g id="text_8">
      <!-- 140 -->
      <g transform="translate(584.288698 398.355) scale(0.1 -0.1)">
       <use xlink:href="#SimHei-31"/>
       <use xlink:href="#SimHei-34" x="50"/>
       <use xlink:href="#SimHei-30" x="100"/>
      </g>
     </g>
    </g>
    <g id="text_9">
     <!-- 周数 -->
     <g transform="translate(359 411.339375) scale(0.1 -0.1)">
      <defs>
       <path id="SimHei-5468" d="M 5600 4925 
Q 5575 4400 5575 3800 
L 5575 50 
Q 5550 -375 5325 -462 
Q 5100 -550 4325 -600 
Q 4300 -400 4125 -75 
Q 4800 -100 4962 -37 
Q 5125 25 5100 225 
L 5100 4525 
L 1500 4525 
Q 1500 2575 1450 1887 
Q 1400 1200 1237 550 
Q 1075 -100 775 -625 
Q 625 -450 275 -225 
Q 650 225 825 1000 
Q 1000 1775 1025 2587 
Q 1050 3400 1000 4925 
L 5600 4925 
z
M 2050 325 
Q 2075 625 2075 950 
L 2075 1400 
Q 2075 1625 2050 1925 
L 4400 1925 
Q 4375 1725 4375 1450 
L 4375 875 
Q 4375 600 4400 325 
L 2050 325 
z
M 3000 3800 
Q 3000 4150 2975 4375 
L 3475 4375 
Q 3450 4075 3450 3800 
Q 4100 3800 4475 3825 
L 4475 3350 
Q 4125 3375 3450 3375 
L 3450 2800 
Q 4200 2800 4825 2825 
L 4825 2350 
Q 4175 2375 3725 2375 
L 2750 2375 
Q 2325 2375 1725 2350 
L 1725 2825 
Q 2325 2800 3000 2800 
L 3000 3375 
Q 2500 3375 1975 3350 
L 1975 3825 
Q 2475 3800 3000 3800 
z
M 3900 725 
L 3900 1525 
L 2550 1525 
L 2550 725 
L 3900 725 
z
" transform="scale(0.015625)"/>
       <path id="SimHei-6570" d="M 4525 4925 
Q 4475 4800 4400 4587 
Q 4325 4375 4175 3825 
L 5325 3825 
Q 5575 3825 5925 3850 
L 5925 3400 
Q 5650 3425 5500 3425 
Q 5500 3025 5362 2162 
Q 5225 1300 4875 675 
Q 5125 375 5437 137 
Q 5750 -100 6025 -200 
Q 5725 -425 5625 -625 
Q 5325 -450 5075 -225 
Q 4825 0 4575 325 
Q 4300 25 3987 -187 
Q 3675 -400 3200 -650 
Q 3075 -425 2850 -300 
Q 3225 -150 3650 125 
Q 4075 400 4300 675 
Q 4125 1025 3962 1425 
Q 3800 1825 3675 2475 
Q 3600 2275 3425 1950 
Q 3250 2050 3000 2150 
Q 3400 2850 3650 3675 
Q 3900 4500 3975 5100 
Q 4275 4975 4525 4925 
z
M 2100 2250 
Q 2000 2150 1875 1925 
L 3250 1925 
Q 3100 1300 2725 675 
Q 3125 525 3350 400 
Q 3225 225 3125 25 
Q 2900 175 2450 325 
Q 1950 -225 725 -650 
Q 600 -375 400 -275 
Q 1575 0 2000 475 
Q 1300 650 850 775 
Q 1000 1000 1250 1525 
Q 1000 1525 425 1500 
L 425 1950 
Q 900 1925 1400 1925 
Q 1500 2150 1550 2425 
Q 1825 2325 2100 2250 
z
M 1775 3950 
Q 1775 4550 1750 5100 
L 2250 5100 
Q 2225 4575 2225 3950 
Q 3075 3950 3425 3975 
L 3425 3525 
Q 3075 3550 2225 3550 
Q 2225 2825 2250 2425 
L 1750 2425 
Q 1775 2775 1775 3300 
Q 1650 3100 1300 2787 
Q 950 2475 650 2300 
Q 525 2525 275 2625 
Q 500 2700 875 2975 
Q 1250 3250 1450 3550 
Q 950 3550 500 3525 
L 500 3975 
Q 925 3950 1775 3950 
z
M 3975 3175 
Q 4200 1700 4600 1125 
Q 4850 1700 4937 2287 
Q 5025 2875 5050 3425 
L 4075 3425 
L 3975 3175 
z
M 1450 1000 
Q 1750 925 2275 800 
Q 2475 1050 2650 1525 
L 1725 1525 
Q 1600 1275 1450 1000 
z
M 3325 4825 
Q 3200 4625 3125 4450 
Q 3050 4275 2925 4025 
Q 2725 4125 2525 4175 
Q 2725 4500 2900 5000 
Q 3150 4875 3325 4825 
z
M 2575 3375 
Q 2900 3050 3200 2725 
Q 3050 2600 2875 2425 
Q 2525 2850 2300 3100 
Q 2450 3225 2575 3375 
z
M 925 5000 
Q 1275 4650 1500 4300 
L 1125 4075 
Q 950 4425 600 4725 
Q 825 4875 925 5000 
z
" transform="scale(0.015625)"/>
      </defs>
      <use xlink:href="#SimHei-5468"/>
      <use xlink:href="#SimHei-6570" x="100"/>
     </g>
    </g>
   </g>
   <g id="matplotlib.axis_2">
    <g id="ytick_1">
     <g id="line2d_17">
      <path d="M 90 369.938578 
L 648 369.938578 
" clip-path="url(#p67979e2505)" style="fill: none; stroke: #b0b0b0; stroke-width: 0.8; stroke-linecap: square"/>
     </g>
     <g id="line2d_18">
      <defs>
       <path id="mcebc853971" d="M 0 0 
L -3.5 0 
" style="stroke: #000000; stroke-width: 0.8"/>
      </defs>
      <g>
       <use xlink:href="#mcebc853971" x="90" y="369.938578" style="stroke: #000000; stroke-width: 0.8"/>
      </g>
     </g>
     <g id="text_10">
      <!-- 0 -->
      <g transform="translate(78 373.376078) scale(0.1 -0.1)">
       <use xlink:href="#SimHei-30"/>
      </g>
     </g>
    </g>
    <g id="ytick_2">
     <g id="line2d_19">
      <path d="M 90 332.432854 
L 648 332.432854 
" clip-path="url(#p67979e2505)" style="fill: none; stroke: #b0b0b0; stroke-width: 0.8; stroke-linecap: square"/>
     </g>
     <g id="line2d_20">
      <g>
       <use xlink:href="#mcebc853971" x="90" y="332.432854" style="stroke: #000000; stroke-width: 0.8"/>
      </g>
     </g>
     <g id="text_11">
      <!-- 20000 -->
      <g transform="translate(58 335.870354) scale(0.1 -0.1)">
       <use xlink:href="#SimHei-32"/>
       <use xlink:href="#SimHei-30" x="50"/>
       <use xlink:href="#SimHei-30" x="100"/>
       <use xlink:href="#SimHei-30" x="150"/>
       <use xlink:href="#SimHei-30" x="200"/>
      </g>
     </g>
    </g>
    <g id="ytick_3">
     <g id="line2d_21">
      <path d="M 90 294.927131 
L 648 294.927131 
" clip-path="url(#p67979e2505)" style="fill: none; stroke: #b0b0b0; stroke-width: 0.8; stroke-linecap: square"/>
     </g>
     <g id="line2d_22">
      <g>
       <use xlink:href="#mcebc853971" x="90" y="294.927131" style="stroke: #000000; stroke-width: 0.8"/>
      </g>
     </g>
     <g id="text_12">
      <!-- 40000 -->
      <g transform="translate(58 298.364631) scale(0.1 -0.1)">
       <use xlink:href="#SimHei-34"/>
       <use xlink:href="#SimHei-30" x="50"/>
       <use xlink:href="#SimHei-30" x="100"/>
       <use xlink:href="#SimHei-30" x="150"/>
       <use xlink:href="#SimHei-30" x="200"/>
      </g>
     </g>
    </g>
    <g id="ytick_4">
     <g id="line2d_23">
      <path d="M 90 257.421407 
L 648 257.421407 
" clip-path="url(#p67979e2505)" style="fill: none; stroke: #b0b0b0; stroke-width: 0.8; stroke-linecap: square"/>
     </g>
     <g id="line2d_24">
      <g>
       <use xlink:href="#mcebc853971" x="90" y="257.421407" style="stroke: #000000; stroke-width: 0.8"/>
      </g>
     </g>
     <g id="text_13">
      <!-- 60000 -->
      <g transform="translate(58 260.858907) scale(0.1 -0.1)">
       <use xlink:href="#SimHei-36"/>
       <use xlink:href="#SimHei-30" x="50"/>
       <use xlink:href="#SimHei-30" x="100"/>
       <use xlink:href="#SimHei-30" x="150"/>
       <use xlink:href="#SimHei-30" x="200"/>
      </g>
     </g>
    </g>
    <g id="ytick_5">
     <g id="line2d_25">
      <path d="M 90 219.915684 
L 648 219.915684 
" clip-path="url(#p67979e2505)" style="fill: none; stroke: #b0b0b0; stroke-width: 0.8; stroke-linecap: square"/>
     </g>
     <g id="line2d_26">
      <g>
       <use xlink:href="#mcebc853971" x="90" y="219.915684" style="stroke: #000000; stroke-width: 0.8"/>
      </g>
     </g>
     <g id="text_14">
      <!-- 80000 -->
      <g transform="translate(58 223.353184) scale(0.1 -0.1)">
       <use xlink:href="#SimHei-38"/>
       <use xlink:href="#SimHei-30" x="50"/>
       <use xlink:href="#SimHei-30" x="100"/>
       <use xlink:href="#SimHei-30" x="150"/>
       <use xlink:href="#SimHei-30" x="200"/>
      </g>
     </g>
    </g>
    <g id="ytick_6">
     <g id="line2d_27">
      <path d="M 90 182.40996 
L 648 182.40996 
" clip-path="url(#p67979e2505)" style="fill: none; stroke: #b0b0b0; stroke-width: 0.8; stroke-linecap: square"/>
     </g>
     <g id="line2d_28">
      <g>
       <use xlink:href="#mcebc853971" x="90" y="182.40996" style="stroke: #000000; stroke-width: 0.8"/>
      </g>
     </g>
     <g id="text_15">
      <!-- 100000 -->
      <g transform="translate(53 185.84746) scale(0.1 -0.1)">
       <use xlink:href="#SimHei-31"/>
       <use xlink:href="#SimHei-30" x="50"/>
       <use xlink:href="#SimHei-30" x="100"/>
       <use xlink:href="#SimHei-30" x="150"/>
       <use xlink:href="#SimHei-30" x="200"/>
       <use xlink:href="#SimHei-30" x="250"/>
      </g>
     </g>
    </g>
    <g id="ytick_7">
     <g id="line2d_29">
      <path d="M 90 144.904237 
L 648 144.904237 
" clip-path="url(#p67979e2505)" style="fill: none; stroke: #b0b0b0; stroke-width: 0.8; stroke-linecap: square"/>
     </g>
     <g id="line2d_30">
      <g>
       <use xlink:href="#mcebc853971" x="90" y="144.904237" style="stroke: #000000; stroke-width: 0.8"/>
      </g>
     </g>
     <g id="text_16">
      <!-- 120000 -->
      <g transform="translate(53 148.341737) scale(0.1 -0.1)">
       <use xlink:href="#SimHei-31"/>
       <use xlink:href="#SimHei-32" x="50"/>
       <use xlink:href="#SimHei-30" x="100"/>
       <use xlink:href="#SimHei-30" x="150"/>
       <use xlink:href="#SimHei-30" x="200"/>
       <use xlink:href="#SimHei-30" x="250"/>
      </g>
     </g>
    </g>
    <g id="ytick_8">
     <g id="line2d_31">
      <path d="M 90 107.398513 
L 648 107.398513 
" clip-path="url(#p67979e2505)" style="fill: none; stroke: #b0b0b0; stroke-width: 0.8; stroke-linecap: square"/>
     </g>
     <g id="line2d_32">
      <g>
       <use xlink:href="#mcebc853971" x="90" y="107.398513" style="stroke: #000000; stroke-width: 0.8"/>
      </g>
     </g>
     <g id="text_17">
      <!-- 140000 -->
      <g transform="translate(53 110.836013) scale(0.1 -0.1)">
       <use xlink:href="#SimHei-31"/>
       <use xlink:href="#SimHei-34" x="50"/>
       <use xlink:href="#SimHei-30" x="100"/>
       <use xlink:href="#SimHei-30" x="150"/>
       <use xlink:href="#SimHei-30" x="200"/>
       <use xlink:href="#SimHei-30" x="250"/>
      </g>
     </g>
    </g>
    <g id="ytick_9">
     <g id="line2d_33">
      <path d="M 90 69.89279 
L 648 69.89279 
" clip-path="url(#p67979e2505)" style="fill: none; stroke: #b0b0b0; stroke-width: 0.8; stroke-linecap: square"/>
     </g>
     <g id="line2d_34">
      <g>
       <use xlink:href="#mcebc853971" x="90" y="69.89279" style="stroke: #000000; stroke-width: 0.8"/>
      </g>
     </g>
     <g id="text_18">
      <!-- 160000 -->
      <g transform="translate(53 73.33029) scale(0.1 -0.1)">
       <use xlink:href="#SimHei-31"/>
       <use xlink:href="#SimHei-36" x="50"/>
       <use xlink:href="#SimHei-30" x="100"/>
       <use xlink:href="#SimHei-30" x="150"/>
       <use xlink:href="#SimHei-30" x="200"/>
       <use xlink:href="#SimHei-30" x="250"/>
      </g>
     </g>
    </g>
    <g id="text_19">
     <!-- 收益 -->
     <g transform="translate(47.75 228.16) rotate(-90) scale(0.1 -0.1)">
      <defs>
       <path id="SimHei-6536" d="M 4250 5050 
Q 4125 4850 3750 4050 
L 5150 4050 
Q 5675 4050 6125 4075 
L 6125 3600 
Q 5675 3625 5300 3625 
Q 5225 2625 5025 1975 
Q 4825 1325 4575 900 
Q 4900 500 5287 275 
Q 5675 50 6200 -75 
Q 5900 -275 5800 -550 
Q 5300 -350 4950 -100 
Q 4600 150 4275 525 
Q 3800 0 2775 -625 
Q 2650 -425 2300 -225 
Q 3275 150 3950 925 
Q 3775 1325 3612 1787 
Q 3450 2250 3250 3000 
Q 2975 2450 2825 2275 
Q 2650 2400 2425 2525 
Q 2775 3025 3137 3837 
Q 3500 4650 3625 5250 
Q 3925 5125 4250 5050 
z
M 975 4275 
Q 925 3950 925 3450 
L 925 1575 
L 1775 1725 
L 1775 4425 
Q 1775 4775 1750 5150 
L 2250 5150 
Q 2225 4850 2225 4450 
L 2225 300 
Q 2225 -50 2250 -550 
L 1750 -550 
Q 1775 -25 1775 350 
L 1775 1350 
Q 625 1050 500 925 
Q 375 1125 225 1350 
Q 450 1475 450 1800 
L 450 3575 
Q 450 3925 425 4275 
L 975 4275 
z
M 3725 3150 
Q 3800 2700 3962 2212 
Q 4125 1725 4300 1375 
Q 4725 2150 4825 3625 
L 3575 3625 
Q 3400 3275 3300 3100 
L 3725 3150 
z
" transform="scale(0.015625)"/>
       <path id="SimHei-76ca" d="M 2825 2925 
Q 2425 2775 2012 2487 
Q 1600 2200 1225 1975 
L 5275 1975 
Q 5250 1575 5250 1000 
L 5250 -50 
Q 5800 -50 6175 -25 
L 6175 -525 
Q 5725 -500 5250 -500 
L 1325 -500 
Q 700 -500 250 -525 
L 250 -25 
Q 600 -50 1175 -50 
L 1175 1050 
Q 1175 1575 1150 1925 
Q 1000 1800 800 1700 
Q 650 1950 425 2125 
Q 800 2275 1312 2600 
Q 1825 2925 2325 3400 
Q 2550 3150 2825 2925 
z
M 4725 5050 
Q 4575 4900 4462 4637 
Q 4350 4375 4175 4075 
L 4625 4075 
Q 5350 4075 5900 4100 
L 5900 3625 
Q 5350 3650 4625 3650 
L 1975 3650 
Q 1350 3650 550 3625 
L 550 4100 
Q 1175 4075 1975 4075 
L 3675 4075 
Q 3775 4300 3887 4625 
Q 4000 4950 4125 5250 
L 4725 5050 
z
M 3600 -50 
L 3600 1575 
L 2800 1575 
L 2800 -50 
L 3600 -50 
z
M 4800 -50 
L 4800 1575 
L 4025 1575 
L 4025 -50 
L 4800 -50 
z
M 2375 -50 
L 2375 1575 
L 1625 1575 
L 1625 -50 
L 2375 -50 
z
M 3900 3350 
Q 4375 3150 4900 2925 
Q 5425 2700 5900 2500 
Q 5700 2300 5550 2000 
Q 5025 2300 4512 2537 
Q 4000 2775 3625 2900 
Q 3750 3075 3900 3350 
z
M 2150 5250 
Q 2375 4925 2650 4350 
Q 2425 4275 2150 4125 
Q 1950 4650 1675 5025 
Q 1875 5100 2150 5250 
z
" transform="scale(0.015625)"/>
      </defs>
      <use xlink:href="#SimHei-6536"/>
      <use xlink:href="#SimHei-76ca" x="100"/>
     </g>
    </g>
   </g>
   <g id="line2d_35">
    <path d="M 115.363636 289.267077 
L 118.791155 317.561865 
L 122.218673 367.278252 
L 125.646192 359.529352 
L 139.356265 263.525535 
L 146.211302 359.344348 
L 153.066339 364.617926 
L 156.493857 348.655969 
L 159.921376 367.303662 
L 166.776413 348.859252 
L 173.63145 348.859252 
L 183.914005 317.240263 
L 187.341523 351.494167 
L 194.19656 351.494167 
L 201.051597 359.398915 
L 207.906634 348.859252 
L 211.334152 317.240263 
L 214.761671 338.325428 
L 218.189189 348.87093 
L 231.899263 359.404754 
L 235.326781 327.803283 
L 238.7543 359.404754 
L 242.181818 338.321491 
L 252.464373 351.415979 
L 255.891892 346.214051 
L 259.31941 338.373065 
L 262.746929 362.063997 
L 266.174447 335.681015 
L 269.601966 346.225249 
L 273.029484 330.476087 
L 276.457002 333.056155 
L 279.884521 348.939695 
L 283.312039 346.214051 
L 286.739558 348.85011 
L 290.167076 319.853466 
L 293.594595 365.599244 
L 297.022113 369.36 
L 314.159705 314.581349 
L 327.869779 238.135652 
L 331.297297 348.85011 
L 338.152334 368.781422 
L 341.579853 359.394344 
L 345.007371 318.69631 
L 348.434889 217.047184 
L 351.862408 317.217407 
L 355.289926 358.237188 
L 358.717445 253.952003 
L 362.144963 348.85011 
L 365.572482 325.260591 
L 369 354.729132 
L 372.427518 317.824313 
L 375.855037 256.005589 
L 379.282555 282.719229 
L 382.710074 303.531584 
L 386.137592 318.887321 
L 389.565111 279.34791 
L 392.992629 236.658213 
L 396.420147 252.322402 
L 399.847666 256.298512 
L 403.275184 311.831767 
L 406.702703 349.858418 
L 410.130221 297.214919 
L 416.985258 294.624349 
L 420.412776 284.769906 
L 423.840295 66.96 
L 430.695332 185.501615 
L 434.12285 105.677045 
L 437.550369 265.293834 
L 440.977887 235.325478 
L 444.405405 225.310701 
L 447.832924 297.614427 
L 451.260442 250.321881 
L 454.687961 340.000767 
L 458.115479 359.959308 
L 461.542998 354.977414 
L 464.970516 225.202131 
L 468.398034 257.592999 
L 471.825553 340.870892 
L 475.253071 324.803651 
L 478.68059 306.118151 
L 482.108108 343.130649 
L 495.818182 342.740913 
L 499.2457 151.516178 
L 509.528256 212.88053 
L 512.955774 345.463633 
L 516.383292 362.975563 
L 519.810811 304.759666 
L 523.238329 317.515348 
L 526.665848 332.489366 
L 533.520885 345.570602 
L 540.375921 342.233584 
L 543.80344 362.064884 
L 547.230958 350.422728 
L 550.658477 350.422728 
L 557.513514 324.805113 
L 560.941032 360.729778 
L 564.36855 338.050032 
L 567.796069 343.167007 
L 571.223587 356.312535 
L 578.078624 360.249382 
L 588.361179 365.09398 
L 591.788698 355.404784 
L 598.643735 340.511256 
L 608.92629 365.034024 
L 619.208845 367.484708 
L 622.636364 365.063994 
" clip-path="url(#p67979e2505)" style="fill: none; stroke: #008000; stroke-width: 1.5; stroke-linecap: square"/>
    <defs>
     <path id="mc20c4e06ce" d="M 0 3 
C 0.795609 3 1.55874 2.683901 2.12132 2.12132 
C 2.683901 1.55874 3 0.795609 3 0 
C 3 -0.795609 2.683901 -1.55874 2.12132 -2.12132 
C 1.55874 -2.683901 0.795609 -3 0 -3 
C -0.795609 -3 -1.55874 -2.683901 -2.12132 -2.12132 
C -2.683901 -1.55874 -3 -0.795609 -3 0 
C -3 0.795609 -2.683901 1.55874 -2.12132 2.12132 
C -1.55874 2.683901 -0.795609 3 0 3 
z
" style="stroke: #008000"/>
    </defs>
    <g clip-path="url(#p67979e2505)">
     <use xlink:href="#mc20c4e06ce" x="115.363636" y="289.267077" style="fill: #008000; stroke: #008000"/>
     <use xlink:href="#mc20c4e06ce" x="118.791155" y="317.561865" style="fill: #008000; stroke: #008000"/>
     <use xlink:href="#mc20c4e06ce" x="122.218673" y="367.278252" style="fill: #008000; stroke: #008000"/>
     <use xlink:href="#mc20c4e06ce" x="125.646192" y="359.529352" style="fill: #008000; stroke: #008000"/>
     <use xlink:href="#mc20c4e06ce" x="139.356265" y="263.525535" style="fill: #008000; stroke: #008000"/>
     <use xlink:href="#mc20c4e06ce" x="146.211302" y="359.344348" style="fill: #008000; stroke: #008000"/>
     <use xlink:href="#mc20c4e06ce" x="153.066339" y="364.617926" style="fill: #008000; stroke: #008000"/>
     <use xlink:href="#mc20c4e06ce" x="156.493857" y="348.655969" style="fill: #008000; stroke: #008000"/>
     <use xlink:href="#mc20c4e06ce" x="159.921376" y="367.303662" style="fill: #008000; stroke: #008000"/>
     <use xlink:href="#mc20c4e06ce" x="166.776413" y="348.859252" style="fill: #008000; stroke: #008000"/>
     <use xlink:href="#mc20c4e06ce" x="173.63145" y="348.859252" style="fill: #008000; stroke: #008000"/>
     <use xlink:href="#mc20c4e06ce" x="183.914005" y="317.240263" style="fill: #008000; stroke: #008000"/>
     <use xlink:href="#mc20c4e06ce" x="187.341523" y="351.494167" style="fill: #008000; stroke: #008000"/>
     <use xlink:href="#mc20c4e06ce" x="194.19656" y="351.494167" style="fill: #008000; stroke: #008000"/>
     <use xlink:href="#mc20c4e06ce" x="201.051597" y="359.398915" style="fill: #008000; stroke: #008000"/>
     <use xlink:href="#mc20c4e06ce" x="207.906634" y="348.859252" style="fill: #008000; stroke: #008000"/>
     <use xlink:href="#mc20c4e06ce" x="211.334152" y="317.240263" style="fill: #008000; stroke: #008000"/>
     <use xlink:href="#mc20c4e06ce" x="214.761671" y="338.325428" style="fill: #008000; stroke: #008000"/>
     <use xlink:href="#mc20c4e06ce" x="218.189189" y="348.87093" style="fill: #008000; stroke: #008000"/>
     <use xlink:href="#mc20c4e06ce" x="231.899263" y="359.404754" style="fill: #008000; stroke: #008000"/>
     <use xlink:href="#mc20c4e06ce" x="235.326781" y="327.803283" style="fill: #008000; stroke: #008000"/>
     <use xlink:href="#mc20c4e06ce" x="238.7543" y="359.404754" style="fill: #008000; stroke: #008000"/>
     <use xlink:href="#mc20c4e06ce" x="242.181818" y="338.321491" style="fill: #008000; stroke: #008000"/>
     <use xlink:href="#mc20c4e06ce" x="252.464373" y="351.415979" style="fill: #008000; stroke: #008000"/>
     <use xlink:href="#mc20c4e06ce" x="255.891892" y="346.214051" style="fill: #008000; stroke: #008000"/>
     <use xlink:href="#mc20c4e06ce" x="259.31941" y="338.373065" style="fill: #008000; stroke: #008000"/>
     <use xlink:href="#mc20c4e06ce" x="262.746929" y="362.063997" style="fill: #008000; stroke: #008000"/>
     <use xlink:href="#mc20c4e06ce" x="266.174447" y="335.681015" style="fill: #008000; stroke: #008000"/>
     <use xlink:href="#mc20c4e06ce" x="269.601966" y="346.225249" style="fill: #008000; stroke: #008000"/>
     <use xlink:href="#mc20c4e06ce" x="273.029484" y="330.476087" style="fill: #008000; stroke: #008000"/>
     <use xlink:href="#mc20c4e06ce" x="276.457002" y="333.056155" style="fill: #008000; stroke: #008000"/>
     <use xlink:href="#mc20c4e06ce" x="279.884521" y="348.939695" style="fill: #008000; stroke: #008000"/>
     <use xlink:href="#mc20c4e06ce" x="283.312039" y="346.214051" style="fill: #008000; stroke: #008000"/>
     <use xlink:href="#mc20c4e06ce" x="286.739558" y="348.85011" style="fill: #008000; stroke: #008000"/>
     <use xlink:href="#mc20c4e06ce" x="290.167076" y="319.853466" style="fill: #008000; stroke: #008000"/>
     <use xlink:href="#mc20c4e06ce" x="293.594595" y="365.599244" style="fill: #008000; stroke: #008000"/>
     <use xlink:href="#mc20c4e06ce" x="297.022113" y="369.36" style="fill: #008000; stroke: #008000"/>
     <use xlink:href="#mc20c4e06ce" x="314.159705" y="314.581349" style="fill: #008000; stroke: #008000"/>
     <use xlink:href="#mc20c4e06ce" x="327.869779" y="238.135652" style="fill: #008000; stroke: #008000"/>
     <use xlink:href="#mc20c4e06ce" x="331.297297" y="348.85011" style="fill: #008000; stroke: #008000"/>
     <use xlink:href="#mc20c4e06ce" x="338.152334" y="368.781422" style="fill: #008000; stroke: #008000"/>
     <use xlink:href="#mc20c4e06ce" x="341.579853" y="359.394344" style="fill: #008000; stroke: #008000"/>
     <use xlink:href="#mc20c4e06ce" x="345.007371" y="318.69631" style="fill: #008000; stroke: #008000"/>
     <use xlink:href="#mc20c4e06ce" x="348.434889" y="217.047184" style="fill: #008000; stroke: #008000"/>
     <use xlink:href="#mc20c4e06ce" x="351.862408" y="317.217407" style="fill: #008000; stroke: #008000"/>
     <use xlink:href="#mc20c4e06ce" x="355.289926" y="358.237188" style="fill: #008000; stroke: #008000"/>
     <use xlink:href="#mc20c4e06ce" x="358.717445" y="253.952003" style="fill: #008000; stroke: #008000"/>
     <use xlink:href="#mc20c4e06ce" x="362.144963" y="348.85011" style="fill: #008000; stroke: #008000"/>
     <use xlink:href="#mc20c4e06ce" x="365.572482" y="325.260591" style="fill: #008000; stroke: #008000"/>
     <use xlink:href="#mc20c4e06ce" x="369" y="354.729132" style="fill: #008000; stroke: #008000"/>
     <use xlink:href="#mc20c4e06ce" x="372.427518" y="317.824313" style="fill: #008000; stroke: #008000"/>
     <use xlink:href="#mc20c4e06ce" x="375.855037" y="256.005589" style="fill: #008000; stroke: #008000"/>
     <use xlink:href="#mc20c4e06ce" x="379.282555" y="282.719229" style="fill: #008000; stroke: #008000"/>
     <use xlink:href="#mc20c4e06ce" x="382.710074" y="303.531584" style="fill: #008000; stroke: #008000"/>
     <use xlink:href="#mc20c4e06ce" x="386.137592" y="318.887321" style="fill: #008000; stroke: #008000"/>
     <use xlink:href="#mc20c4e06ce" x="389.565111" y="279.34791" style="fill: #008000; stroke: #008000"/>
     <use xlink:href="#mc20c4e06ce" x="392.992629" y="236.658213" style="fill: #008000; stroke: #008000"/>
     <use xlink:href="#mc20c4e06ce" x="396.420147" y="252.322402" style="fill: #008000; stroke: #008000"/>
     <use xlink:href="#mc20c4e06ce" x="399.847666" y="256.298512" style="fill: #008000; stroke: #008000"/>
     <use xlink:href="#mc20c4e06ce" x="403.275184" y="311.831767" style="fill: #008000; stroke: #008000"/>
     <use xlink:href="#mc20c4e06ce" x="406.702703" y="349.858418" style="fill: #008000; stroke: #008000"/>
     <use xlink:href="#mc20c4e06ce" x="410.130221" y="297.214919" style="fill: #008000; stroke: #008000"/>
     <use xlink:href="#mc20c4e06ce" x="416.985258" y="294.624349" style="fill: #008000; stroke: #008000"/>
     <use xlink:href="#mc20c4e06ce" x="420.412776" y="284.769906" style="fill: #008000; stroke: #008000"/>
     <use xlink:href="#mc20c4e06ce" x="423.840295" y="66.96" style="fill: #008000; stroke: #008000"/>
     <use xlink:href="#mc20c4e06ce" x="430.695332" y="185.501615" style="fill: #008000; stroke: #008000"/>
     <use xlink:href="#mc20c4e06ce" x="434.12285" y="105.677045" style="fill: #008000; stroke: #008000"/>
     <use xlink:href="#mc20c4e06ce" x="437.550369" y="265.293834" style="fill: #008000; stroke: #008000"/>
     <use xlink:href="#mc20c4e06ce" x="440.977887" y="235.325478" style="fill: #008000; stroke: #008000"/>
     <use xlink:href="#mc20c4e06ce" x="444.405405" y="225.310701" style="fill: #008000; stroke: #008000"/>
     <use xlink:href="#mc20c4e06ce" x="447.832924" y="297.614427" style="fill: #008000; stroke: #008000"/>
     <use xlink:href="#mc20c4e06ce" x="451.260442" y="250.321881" style="fill: #008000; stroke: #008000"/>
     <use xlink:href="#mc20c4e06ce" x="454.687961" y="340.000767" style="fill: #008000; stroke: #008000"/>
     <use xlink:href="#mc20c4e06ce" x="458.115479" y="359.959308" style="fill: #008000; stroke: #008000"/>
     <use xlink:href="#mc20c4e06ce" x="461.542998" y="354.977414" style="fill: #008000; stroke: #008000"/>
     <use xlink:href="#mc20c4e06ce" x="464.970516" y="225.202131" style="fill: #008000; stroke: #008000"/>
     <use xlink:href="#mc20c4e06ce" x="468.398034" y="257.592999" style="fill: #008000; stroke: #008000"/>
     <use xlink:href="#mc20c4e06ce" x="471.825553" y="340.870892" style="fill: #008000; stroke: #008000"/>
     <use xlink:href="#mc20c4e06ce" x="475.253071" y="324.803651" style="fill: #008000; stroke: #008000"/>
     <use xlink:href="#mc20c4e06ce" x="478.68059" y="306.118151" style="fill: #008000; stroke: #008000"/>
     <use xlink:href="#mc20c4e06ce" x="482.108108" y="343.130649" style="fill: #008000; stroke: #008000"/>
     <use xlink:href="#mc20c4e06ce" x="495.818182" y="342.740913" style="fill: #008000; stroke: #008000"/>
     <use xlink:href="#mc20c4e06ce" x="499.2457" y="151.516178" style="fill: #008000; stroke: #008000"/>
     <use xlink:href="#mc20c4e06ce" x="509.528256" y="212.88053" style="fill: #008000; stroke: #008000"/>
     <use xlink:href="#mc20c4e06ce" x="512.955774" y="345.463633" style="fill: #008000; stroke: #008000"/>
     <use xlink:href="#mc20c4e06ce" x="516.383292" y="362.975563" style="fill: #008000; stroke: #008000"/>
     <use xlink:href="#mc20c4e06ce" x="519.810811" y="304.759666" style="fill: #008000; stroke: #008000"/>
     <use xlink:href="#mc20c4e06ce" x="523.238329" y="317.515348" style="fill: #008000; stroke: #008000"/>
     <use xlink:href="#mc20c4e06ce" x="526.665848" y="332.489366" style="fill: #008000; stroke: #008000"/>
     <use xlink:href="#mc20c4e06ce" x="533.520885" y="345.570602" style="fill: #008000; stroke: #008000"/>
     <use xlink:href="#mc20c4e06ce" x="540.375921" y="342.233584" style="fill: #008000; stroke: #008000"/>
     <use xlink:href="#mc20c4e06ce" x="543.80344" y="362.064884" style="fill: #008000; stroke: #008000"/>
     <use xlink:href="#mc20c4e06ce" x="547.230958" y="350.422728" style="fill: #008000; stroke: #008000"/>
     <use xlink:href="#mc20c4e06ce" x="550.658477" y="350.422728" style="fill: #008000; stroke: #008000"/>
     <use xlink:href="#mc20c4e06ce" x="557.513514" y="324.805113" style="fill: #008000; stroke: #008000"/>
     <use xlink:href="#mc20c4e06ce" x="560.941032" y="360.729778" style="fill: #008000; stroke: #008000"/>
     <use xlink:href="#mc20c4e06ce" x="564.36855" y="338.050032" style="fill: #008000; stroke: #008000"/>
     <use xlink:href="#mc20c4e06ce" x="567.796069" y="343.167007" style="fill: #008000; stroke: #008000"/>
     <use xlink:href="#mc20c4e06ce" x="571.223587" y="356.312535" style="fill: #008000; stroke: #008000"/>
     <use xlink:href="#mc20c4e06ce" x="578.078624" y="360.249382" style="fill: #008000; stroke: #008000"/>
     <use xlink:href="#mc20c4e06ce" x="588.361179" y="365.09398" style="fill: #008000; stroke: #008000"/>
     <use xlink:href="#mc20c4e06ce" x="591.788698" y="355.404784" style="fill: #008000; stroke: #008000"/>
     <use xlink:href="#mc20c4e06ce" x="598.643735" y="340.511256" style="fill: #008000; stroke: #008000"/>
     <use xlink:href="#mc20c4e06ce" x="608.92629" y="365.034024" style="fill: #008000; stroke: #008000"/>
     <use xlink:href="#mc20c4e06ce" x="619.208845" y="367.484708" style="fill: #008000; stroke: #008000"/>
     <use xlink:href="#mc20c4e06ce" x="622.636364" y="365.063994" style="fill: #008000; stroke: #008000"/>
    </g>
   </g>
   <g id="patch_3">
    <path d="M 90 384.48 
L 90 51.84 
" style="fill: none; stroke: #000000; stroke-width: 0.8; stroke-linejoin: miter; stroke-linecap: square"/>
   </g>
   <g id="patch_4">
    <path d="M 648 384.48 
L 648 51.84 
" style="fill: none; stroke: #000000; stroke-width: 0.8; stroke-linejoin: miter; stroke-linecap: square"/>
   </g>
   <g id="patch_5">
    <path d="M 90 384.48 
L 648 384.48 
" style="fill: none; stroke: #000000; stroke-width: 0.8; stroke-linejoin: miter; stroke-linecap: square"/>
   </g>
   <g id="patch_6">
    <path d="M 90 51.84 
L 648 51.84 
" style="fill: none; stroke: #000000; stroke-width: 0.8; stroke-linejoin: miter; stroke-linecap: square"/>
   </g>
   <g id="text_20">
    <!-- 6004010174 每周收益 -->
    <g transform="translate(312 45.84) scale(0.12 -0.12)">
     <defs>
      <path id="SimHei-37" d="M 850 150 
Q 1300 2050 2425 3925 
L 275 3925 
L 275 4375 
L 2950 4375 
L 2950 3950 
Q 1775 2050 1400 150 
L 850 150 
z
" transform="scale(0.015625)"/>
      <path id="SimHei-20" transform="scale(0.015625)"/>
      <path id="SimHei-6bcf" d="M 5225 3650 
Q 5175 3150 5150 2675 
L 5125 2200 
Q 5525 2200 6000 2225 
L 6000 1775 
Q 5625 1800 5100 1800 
L 5050 650 
Q 5325 650 5700 675 
L 5700 225 
Q 5400 250 5025 250 
Q 5000 -275 4775 -425 
Q 4550 -575 4000 -650 
Q 3950 -400 3775 -125 
Q 4375 -125 4475 -50 
Q 4575 25 4575 250 
L 1400 250 
L 1500 1100 
L 1550 1800 
L 1275 1800 
Q 825 1800 550 1775 
L 550 2225 
Q 975 2200 1275 2200 
L 1575 2200 
L 1625 2825 
L 1675 3650 
L 5225 3650 
z
M 2350 5000 
Q 2175 4825 2050 4600 
L 4875 4600 
Q 5275 4600 5775 4625 
L 5775 4175 
Q 5275 4200 4875 4200 
L 1825 4200 
L 1375 3625 
Q 1125 3325 775 2975 
Q 600 3175 350 3300 
Q 725 3575 1150 4112 
Q 1575 4650 1825 5250 
Q 2125 5075 2350 5000 
z
M 1975 1800 
L 1875 650 
L 4625 650 
L 4675 1800 
L 2950 1800 
Q 3575 1275 3825 1125 
Q 3625 925 3475 725 
Q 3100 1100 2650 1475 
Q 2775 1675 2875 1800 
L 1975 1800 
z
M 2975 3250 
Q 3125 3150 3287 3012 
Q 3450 2875 3800 2550 
Q 3650 2350 3525 2200 
L 4700 2200 
L 4750 3250 
L 2975 3250 
z
M 2075 3250 
L 2000 2200 
L 3425 2200 
Q 3150 2500 3012 2625 
Q 2875 2750 2700 2900 
Q 2800 3050 2925 3250 
L 2075 3250 
z
" transform="scale(0.015625)"/>
     </defs>
     <use xlink:href="#SimHei-36"/>
     <use xlink:href="#SimHei-30" x="50"/>
     <use xlink:href="#SimHei-30" x="100"/>
     <use xlink:href="#SimHei-34" x="150"/>
     <use xlink:href="#SimHei-30" x="200"/>
     <use xlink:href="#SimHei-31" x="250"/>
     <use xlink:href="#SimHei-30" x="300"/>
     <use xlink:href="#SimHei-31" x="350"/>
     <use xlink:href="#SimHei-37" x="400"/>
     <use xlink:href="#SimHei-34" x="450"/>
     <use xlink:href="#SimHei-20" x="500"/>
     <use xlink:href="#SimHei-6bcf" x="550"/>
     <use xlink:href="#SimHei-5468" x="650"/>
     <use xlink:href="#SimHei-6536" x="750"/>
     <use xlink:href="#SimHei-76ca" x="850"/>
    </g>
   </g>
  </g>
 </g>
 <defs>
  <clipPath id="p67979e2505">
   <rect x="90" y="51.84" width="558" height="332.64"/>
  </clipPath>
 </defs>
</svg>
