<?xml version="1.0" encoding="utf-8" standalone="no"?>
<!DOCTYPE svg PUBLIC "-//W3C//DTD SVG 1.1//EN"
  "http://www.w3.org/Graphics/SVG/1.1/DTD/svg11.dtd">
<svg xmlns:xlink="http://www.w3.org/1999/xlink" width="720pt" height="432pt" viewBox="0 0 720 432" xmlns="http://www.w3.org/2000/svg" version="1.1">
 <metadata>
  <rdf:RDF xmlns:dc="http://purl.org/dc/elements/1.1/" xmlns:cc="http://creativecommons.org/ns#" xmlns:rdf="http://www.w3.org/1999/02/22-rdf-syntax-ns#">
   <cc:Work>
    <dc:type rdf:resource="http://purl.org/dc/dcmitype/StillImage"/>
    <dc:date>2024-08-17T14:06:44.487587</dc:date>
    <dc:format>image/svg+xml</dc:format>
    <dc:creator>
     <cc:Agent>
      <dc:title>Matplotlib v3.8.0, https://matplotlib.org/</dc:title>
     </cc:Agent>
    </dc:creator>
   </cc:Work>
  </rdf:RDF>
 </metadata>
 <defs>
  <style type="text/css">*{stroke-linejoin: round; stroke-linecap: butt}</style>
 </defs>
 <g id="figure_1">
  <g id="patch_1">
   <path d="M 0 432 
L 720 432 
L 720 0 
L 0 0 
z
" style="fill: #ffffff"/>
  </g>
  <g id="axes_1">
   <g id="patch_2">
    <path d="M 90 384.48 
L 648 384.48 
L 648 51.84 
L 90 51.84 
z
" style="fill: #ffffff"/>
   </g>
   <g id="matplotlib.axis_1">
    <g id="xtick_1">
     <g id="line2d_1">
      <path d="M 111.936118 384.48 
L 111.936118 51.84 
" clip-path="url(#p65658f0127)" style="fill: none; stroke: #b0b0b0; stroke-width: 0.8; stroke-linecap: square"/>
     </g>
     <g id="line2d_2">
      <defs>
       <path id="mf7fa0f8802" d="M 0 0 
L 0 3.5 
" style="stroke: #000000; stroke-width: 0.8"/>
      </defs>
      <g>
       <use xlink:href="#mf7fa0f8802" x="111.936118" y="384.48" style="stroke: #000000; stroke-width: 0.8"/>
      </g>
     </g>
     <g id="text_1">
      <!-- 0 -->
      <g transform="translate(109.436118 398.355) scale(0.1 -0.1)">
       <defs>
        <path id="SimHei-30" d="M 225 2537 
Q 250 3200 412 3587 
Q 575 3975 875 4225 
Q 1175 4475 1612 4475 
Q 2050 4475 2375 4112 
Q 2700 3750 2800 3200 
Q 2900 2650 2862 1937 
Q 2825 1225 2612 775 
Q 2400 325 1975 150 
Q 1550 -25 1125 187 
Q 700 400 525 750 
Q 350 1100 275 1487 
Q 200 1875 225 2537 
z
M 750 2687 
Q 675 2000 800 1462 
Q 925 925 1212 700 
Q 1500 475 1800 612 
Q 2100 750 2237 1162 
Q 2375 1575 2375 2062 
Q 2375 2550 2337 2950 
Q 2300 3350 2112 3675 
Q 1925 4000 1612 4012 
Q 1300 4025 1062 3700 
Q 825 3375 750 2687 
z
" transform="scale(0.015625)"/>
       </defs>
       <use xlink:href="#SimHei-30"/>
      </g>
     </g>
    </g>
    <g id="xtick_2">
     <g id="line2d_3">
      <path d="M 180.486486 384.48 
L 180.486486 51.84 
" clip-path="url(#p65658f0127)" style="fill: none; stroke: #b0b0b0; stroke-width: 0.8; stroke-linecap: square"/>
     </g>
     <g id="line2d_4">
      <g>
       <use xlink:href="#mf7fa0f8802" x="180.486486" y="384.48" style="stroke: #000000; stroke-width: 0.8"/>
      </g>
     </g>
     <g id="text_2">
      <!-- 20 -->
      <g transform="translate(175.486486 398.355) scale(0.1 -0.1)">
       <defs>
        <path id="SimHei-32" d="M 300 250 
Q 325 625 650 925 
Q 975 1225 1475 1862 
Q 1975 2500 2125 2850 
Q 2275 3200 2237 3450 
Q 2200 3700 2000 3862 
Q 1800 4025 1537 4000 
Q 1275 3975 1037 3800 
Q 800 3625 675 3275 
L 200 3350 
Q 400 3925 712 4187 
Q 1025 4450 1450 4475 
Q 1700 4500 1900 4462 
Q 2100 4425 2312 4287 
Q 2525 4150 2662 3875 
Q 2800 3600 2762 3212 
Q 2725 2825 2375 2287 
Q 2025 1750 1025 600 
L 2825 600 
L 2825 150 
L 300 150 
L 300 250 
z
" transform="scale(0.015625)"/>
       </defs>
       <use xlink:href="#SimHei-32"/>
       <use xlink:href="#SimHei-30" x="50"/>
      </g>
     </g>
    </g>
    <g id="xtick_3">
     <g id="line2d_5">
      <path d="M 249.036855 384.48 
L 249.036855 51.84 
" clip-path="url(#p65658f0127)" style="fill: none; stroke: #b0b0b0; stroke-width: 0.8; stroke-linecap: square"/>
     </g>
     <g id="line2d_6">
      <g>
       <use xlink:href="#mf7fa0f8802" x="249.036855" y="384.48" style="stroke: #000000; stroke-width: 0.8"/>
      </g>
     </g>
     <g id="text_3">
      <!-- 40 -->
      <g transform="translate(244.036855 398.355) scale(0.1 -0.1)">
       <defs>
        <path id="SimHei-34" d="M 2000 1100 
L 75 1100 
L 75 1525 
L 2100 4450 
L 2475 4450 
L 2475 1525 
L 3075 1525 
L 3075 1100 
L 2475 1100 
L 2475 150 
L 2000 150 
L 2000 1100 
z
M 2000 1525 
L 2000 3500 
L 600 1525 
L 2000 1525 
z
" transform="scale(0.015625)"/>
       </defs>
       <use xlink:href="#SimHei-34"/>
       <use xlink:href="#SimHei-30" x="50"/>
      </g>
     </g>
    </g>
    <g id="xtick_4">
     <g id="line2d_7">
      <path d="M 317.587224 384.48 
L 317.587224 51.84 
" clip-path="url(#p65658f0127)" style="fill: none; stroke: #b0b0b0; stroke-width: 0.8; stroke-linecap: square"/>
     </g>
     <g id="line2d_8">
      <g>
       <use xlink:href="#mf7fa0f8802" x="317.587224" y="384.48" style="stroke: #000000; stroke-width: 0.8"/>
      </g>
     </g>
     <g id="text_4">
      <!-- 60 -->
      <g transform="translate(312.587224 398.355) scale(0.1 -0.1)">
       <defs>
        <path id="SimHei-36" d="M 250 1612 
Q 275 1975 387 2225 
Q 500 2475 725 2850 
L 1750 4450 
L 2325 4450 
L 1275 2800 
Q 1950 2975 2350 2750 
Q 2750 2525 2887 2237 
Q 3025 1950 3037 1612 
Q 3050 1275 2937 950 
Q 2825 625 2537 362 
Q 2250 100 1737 75 
Q 1225 50 862 262 
Q 500 475 362 862 
Q 225 1250 250 1612 
z
M 1025 787 
Q 1250 550 1625 525 
Q 2000 500 2250 775 
Q 2500 1050 2500 1575 
Q 2500 2100 2187 2300 
Q 1875 2500 1487 2450 
Q 1100 2400 925 2075 
Q 750 1750 775 1387 
Q 800 1025 1025 787 
z
" transform="scale(0.015625)"/>
       </defs>
       <use xlink:href="#SimHei-36"/>
       <use xlink:href="#SimHei-30" x="50"/>
      </g>
     </g>
    </g>
    <g id="xtick_5">
     <g id="line2d_9">
      <path d="M 386.137592 384.48 
L 386.137592 51.84 
" clip-path="url(#p65658f0127)" style="fill: none; stroke: #b0b0b0; stroke-width: 0.8; stroke-linecap: square"/>
     </g>
     <g id="line2d_10">
      <g>
       <use xlink:href="#mf7fa0f8802" x="386.137592" y="384.48" style="stroke: #000000; stroke-width: 0.8"/>
      </g>
     </g>
     <g id="text_5">
      <!-- 80 -->
      <g transform="translate(381.137592 398.355) scale(0.1 -0.1)">
       <defs>
        <path id="SimHei-38" d="M 175 1375 
Q 175 1675 325 1962 
Q 475 2250 825 2425 
Q 525 2600 425 2812 
Q 325 3025 312 3300 
Q 300 3575 387 3775 
Q 475 3975 650 4150 
Q 825 4325 1037 4387 
Q 1250 4450 1500 4450 
Q 1750 4450 1950 4400 
Q 2150 4350 2375 4187 
Q 2600 4025 2700 3725 
Q 2800 3425 2687 3025 
Q 2575 2625 2100 2400 
Q 2525 2275 2700 2012 
Q 2875 1750 2875 1375 
Q 2875 1000 2762 775 
Q 2650 550 2512 400 
Q 2375 250 2137 162 
Q 1900 75 1537 75 
Q 1175 75 912 162 
Q 650 250 475 425 
Q 300 600 237 837 
Q 175 1075 175 1375 
z
M 687 1400 
Q 675 1100 787 875 
Q 900 650 1200 587 
Q 1500 525 1825 600 
Q 2150 675 2275 950 
Q 2400 1225 2362 1500 
Q 2325 1775 2050 1962 
Q 1775 2150 1450 2125 
Q 1125 2100 912 1900 
Q 700 1700 687 1400 
z
M 775 3350 
Q 775 3100 950 2875 
Q 1125 2650 1500 2650 
Q 1875 2650 2062 2875 
Q 2250 3100 2237 3412 
Q 2225 3725 2012 3875 
Q 1800 4025 1437 4000 
Q 1075 3975 925 3787 
Q 775 3600 775 3350 
z
" transform="scale(0.015625)"/>
       </defs>
       <use xlink:href="#SimHei-38"/>
       <use xlink:href="#SimHei-30" x="50"/>
      </g>
     </g>
    </g>
    <g id="xtick_6">
     <g id="line2d_11">
      <path d="M 454.687961 384.48 
L 454.687961 51.84 
" clip-path="url(#p65658f0127)" style="fill: none; stroke: #b0b0b0; stroke-width: 0.8; stroke-linecap: square"/>
     </g>
     <g id="line2d_12">
      <g>
       <use xlink:href="#mf7fa0f8802" x="454.687961" y="384.48" style="stroke: #000000; stroke-width: 0.8"/>
      </g>
     </g>
     <g id="text_6">
      <!-- 100 -->
      <g transform="translate(447.187961 398.355) scale(0.1 -0.1)">
       <defs>
        <path id="SimHei-31" d="M 1400 3600 
Q 1075 3275 575 2975 
L 575 3450 
Q 1200 3875 1600 4450 
L 1900 4450 
L 1900 150 
L 1400 150 
L 1400 3600 
z
" transform="scale(0.015625)"/>
       </defs>
       <use xlink:href="#SimHei-31"/>
       <use xlink:href="#SimHei-30" x="50"/>
       <use xlink:href="#SimHei-30" x="100"/>
      </g>
     </g>
    </g>
    <g id="xtick_7">
     <g id="line2d_13">
      <path d="M 523.238329 384.48 
L 523.238329 51.84 
" clip-path="url(#p65658f0127)" style="fill: none; stroke: #b0b0b0; stroke-width: 0.8; stroke-linecap: square"/>
     </g>
     <g id="line2d_14">
      <g>
       <use xlink:href="#mf7fa0f8802" x="523.238329" y="384.48" style="stroke: #000000; stroke-width: 0.8"/>
      </g>
     </g>
     <g id="text_7">
      <!-- 120 -->
      <g transform="translate(515.738329 398.355) scale(0.1 -0.1)">
       <use xlink:href="#SimHei-31"/>
       <use xlink:href="#SimHei-32" x="50"/>
       <use xlink:href="#SimHei-30" x="100"/>
      </g>
     </g>
    </g>
    <g id="xtick_8">
     <g id="line2d_15">
      <path d="M 591.788698 384.48 
L 591.788698 51.84 
" clip-path="url(#p65658f0127)" style="fill: none; stroke: #b0b0b0; stroke-width: 0.8; stroke-linecap: square"/>
     </g>
     <g id="line2d_16">
      <g>
       <use xlink:href="#mf7fa0f8802" x="591.788698" y="384.48" style="stroke: #000000; stroke-width: 0.8"/>
      </g>
     </g>
     <g id="text_8">
      <!-- 140 -->
      <g transform="translate(584.288698 398.355) scale(0.1 -0.1)">
       <use xlink:href="#SimHei-31"/>
       <use xlink:href="#SimHei-34" x="50"/>
       <use xlink:href="#SimHei-30" x="100"/>
      </g>
     </g>
    </g>
    <g id="text_9">
     <!-- 周数 -->
     <g transform="translate(359 411.339375) scale(0.1 -0.1)">
      <defs>
       <path id="SimHei-5468" d="M 5600 4925 
Q 5575 4400 5575 3800 
L 5575 50 
Q 5550 -375 5325 -462 
Q 5100 -550 4325 -600 
Q 4300 -400 4125 -75 
Q 4800 -100 4962 -37 
Q 5125 25 5100 225 
L 5100 4525 
L 1500 4525 
Q 1500 2575 1450 1887 
Q 1400 1200 1237 550 
Q 1075 -100 775 -625 
Q 625 -450 275 -225 
Q 650 225 825 1000 
Q 1000 1775 1025 2587 
Q 1050 3400 1000 4925 
L 5600 4925 
z
M 2050 325 
Q 2075 625 2075 950 
L 2075 1400 
Q 2075 1625 2050 1925 
L 4400 1925 
Q 4375 1725 4375 1450 
L 4375 875 
Q 4375 600 4400 325 
L 2050 325 
z
M 3000 3800 
Q 3000 4150 2975 4375 
L 3475 4375 
Q 3450 4075 3450 3800 
Q 4100 3800 4475 3825 
L 4475 3350 
Q 4125 3375 3450 3375 
L 3450 2800 
Q 4200 2800 4825 2825 
L 4825 2350 
Q 4175 2375 3725 2375 
L 2750 2375 
Q 2325 2375 1725 2350 
L 1725 2825 
Q 2325 2800 3000 2800 
L 3000 3375 
Q 2500 3375 1975 3350 
L 1975 3825 
Q 2475 3800 3000 3800 
z
M 3900 725 
L 3900 1525 
L 2550 1525 
L 2550 725 
L 3900 725 
z
" transform="scale(0.015625)"/>
       <path id="SimHei-6570" d="M 4525 4925 
Q 4475 4800 4400 4587 
Q 4325 4375 4175 3825 
L 5325 3825 
Q 5575 3825 5925 3850 
L 5925 3400 
Q 5650 3425 5500 3425 
Q 5500 3025 5362 2162 
Q 5225 1300 4875 675 
Q 5125 375 5437 137 
Q 5750 -100 6025 -200 
Q 5725 -425 5625 -625 
Q 5325 -450 5075 -225 
Q 4825 0 4575 325 
Q 4300 25 3987 -187 
Q 3675 -400 3200 -650 
Q 3075 -425 2850 -300 
Q 3225 -150 3650 125 
Q 4075 400 4300 675 
Q 4125 1025 3962 1425 
Q 3800 1825 3675 2475 
Q 3600 2275 3425 1950 
Q 3250 2050 3000 2150 
Q 3400 2850 3650 3675 
Q 3900 4500 3975 5100 
Q 4275 4975 4525 4925 
z
M 2100 2250 
Q 2000 2150 1875 1925 
L 3250 1925 
Q 3100 1300 2725 675 
Q 3125 525 3350 400 
Q 3225 225 3125 25 
Q 2900 175 2450 325 
Q 1950 -225 725 -650 
Q 600 -375 400 -275 
Q 1575 0 2000 475 
Q 1300 650 850 775 
Q 1000 1000 1250 1525 
Q 1000 1525 425 1500 
L 425 1950 
Q 900 1925 1400 1925 
Q 1500 2150 1550 2425 
Q 1825 2325 2100 2250 
z
M 1775 3950 
Q 1775 4550 1750 5100 
L 2250 5100 
Q 2225 4575 2225 3950 
Q 3075 3950 3425 3975 
L 3425 3525 
Q 3075 3550 2225 3550 
Q 2225 2825 2250 2425 
L 1750 2425 
Q 1775 2775 1775 3300 
Q 1650 3100 1300 2787 
Q 950 2475 650 2300 
Q 525 2525 275 2625 
Q 500 2700 875 2975 
Q 1250 3250 1450 3550 
Q 950 3550 500 3525 
L 500 3975 
Q 925 3950 1775 3950 
z
M 3975 3175 
Q 4200 1700 4600 1125 
Q 4850 1700 4937 2287 
Q 5025 2875 5050 3425 
L 4075 3425 
L 3975 3175 
z
M 1450 1000 
Q 1750 925 2275 800 
Q 2475 1050 2650 1525 
L 1725 1525 
Q 1600 1275 1450 1000 
z
M 3325 4825 
Q 3200 4625 3125 4450 
Q 3050 4275 2925 4025 
Q 2725 4125 2525 4175 
Q 2725 4500 2900 5000 
Q 3150 4875 3325 4825 
z
M 2575 3375 
Q 2900 3050 3200 2725 
Q 3050 2600 2875 2425 
Q 2525 2850 2300 3100 
Q 2450 3225 2575 3375 
z
M 925 5000 
Q 1275 4650 1500 4300 
L 1125 4075 
Q 950 4425 600 4725 
Q 825 4875 925 5000 
z
" transform="scale(0.015625)"/>
      </defs>
      <use xlink:href="#SimHei-5468"/>
      <use xlink:href="#SimHei-6570" x="100"/>
     </g>
    </g>
   </g>
   <g id="matplotlib.axis_2">
    <g id="ytick_1">
     <g id="line2d_17">
      <path d="M 90 358.421187 
L 648 358.421187 
" clip-path="url(#p65658f0127)" style="fill: none; stroke: #b0b0b0; stroke-width: 0.8; stroke-linecap: square"/>
     </g>
     <g id="line2d_18">
      <defs>
       <path id="m3d82029257" d="M 0 0 
L -3.5 0 
" style="stroke: #000000; stroke-width: 0.8"/>
      </defs>
      <g>
       <use xlink:href="#m3d82029257" x="90" y="358.421187" style="stroke: #000000; stroke-width: 0.8"/>
      </g>
     </g>
     <g id="text_10">
      <!-- 200 -->
      <g transform="translate(68 361.858687) scale(0.1 -0.1)">
       <use xlink:href="#SimHei-32"/>
       <use xlink:href="#SimHei-30" x="50"/>
       <use xlink:href="#SimHei-30" x="100"/>
      </g>
     </g>
    </g>
    <g id="ytick_2">
     <g id="line2d_19">
      <path d="M 90 310.586715 
L 648 310.586715 
" clip-path="url(#p65658f0127)" style="fill: none; stroke: #b0b0b0; stroke-width: 0.8; stroke-linecap: square"/>
     </g>
     <g id="line2d_20">
      <g>
       <use xlink:href="#m3d82029257" x="90" y="310.586715" style="stroke: #000000; stroke-width: 0.8"/>
      </g>
     </g>
     <g id="text_11">
      <!-- 400 -->
      <g transform="translate(68 314.024215) scale(0.1 -0.1)">
       <use xlink:href="#SimHei-34"/>
       <use xlink:href="#SimHei-30" x="50"/>
       <use xlink:href="#SimHei-30" x="100"/>
      </g>
     </g>
    </g>
    <g id="ytick_3">
     <g id="line2d_21">
      <path d="M 90 262.752244 
L 648 262.752244 
" clip-path="url(#p65658f0127)" style="fill: none; stroke: #b0b0b0; stroke-width: 0.8; stroke-linecap: square"/>
     </g>
     <g id="line2d_22">
      <g>
       <use xlink:href="#m3d82029257" x="90" y="262.752244" style="stroke: #000000; stroke-width: 0.8"/>
      </g>
     </g>
     <g id="text_12">
      <!-- 600 -->
      <g transform="translate(68 266.189744) scale(0.1 -0.1)">
       <use xlink:href="#SimHei-36"/>
       <use xlink:href="#SimHei-30" x="50"/>
       <use xlink:href="#SimHei-30" x="100"/>
      </g>
     </g>
    </g>
    <g id="ytick_4">
     <g id="line2d_23">
      <path d="M 90 214.917773 
L 648 214.917773 
" clip-path="url(#p65658f0127)" style="fill: none; stroke: #b0b0b0; stroke-width: 0.8; stroke-linecap: square"/>
     </g>
     <g id="line2d_24">
      <g>
       <use xlink:href="#m3d82029257" x="90" y="214.917773" style="stroke: #000000; stroke-width: 0.8"/>
      </g>
     </g>
     <g id="text_13">
      <!-- 800 -->
      <g transform="translate(68 218.355273) scale(0.1 -0.1)">
       <use xlink:href="#SimHei-38"/>
       <use xlink:href="#SimHei-30" x="50"/>
       <use xlink:href="#SimHei-30" x="100"/>
      </g>
     </g>
    </g>
    <g id="ytick_5">
     <g id="line2d_25">
      <path d="M 90 167.083301 
L 648 167.083301 
" clip-path="url(#p65658f0127)" style="fill: none; stroke: #b0b0b0; stroke-width: 0.8; stroke-linecap: square"/>
     </g>
     <g id="line2d_26">
      <g>
       <use xlink:href="#m3d82029257" x="90" y="167.083301" style="stroke: #000000; stroke-width: 0.8"/>
      </g>
     </g>
     <g id="text_14">
      <!-- 1000 -->
      <g transform="translate(63 170.520801) scale(0.1 -0.1)">
       <use xlink:href="#SimHei-31"/>
       <use xlink:href="#SimHei-30" x="50"/>
       <use xlink:href="#SimHei-30" x="100"/>
       <use xlink:href="#SimHei-30" x="150"/>
      </g>
     </g>
    </g>
    <g id="ytick_6">
     <g id="line2d_27">
      <path d="M 90 119.24883 
L 648 119.24883 
" clip-path="url(#p65658f0127)" style="fill: none; stroke: #b0b0b0; stroke-width: 0.8; stroke-linecap: square"/>
     </g>
     <g id="line2d_28">
      <g>
       <use xlink:href="#m3d82029257" x="90" y="119.24883" style="stroke: #000000; stroke-width: 0.8"/>
      </g>
     </g>
     <g id="text_15">
      <!-- 1200 -->
      <g transform="translate(63 122.68633) scale(0.1 -0.1)">
       <use xlink:href="#SimHei-31"/>
       <use xlink:href="#SimHei-32" x="50"/>
       <use xlink:href="#SimHei-30" x="100"/>
       <use xlink:href="#SimHei-30" x="150"/>
      </g>
     </g>
    </g>
    <g id="ytick_7">
     <g id="line2d_29">
      <path d="M 90 71.414359 
L 648 71.414359 
" clip-path="url(#p65658f0127)" style="fill: none; stroke: #b0b0b0; stroke-width: 0.8; stroke-linecap: square"/>
     </g>
     <g id="line2d_30">
      <g>
       <use xlink:href="#m3d82029257" x="90" y="71.414359" style="stroke: #000000; stroke-width: 0.8"/>
      </g>
     </g>
     <g id="text_16">
      <!-- 1400 -->
      <g transform="translate(63 74.851859) scale(0.1 -0.1)">
       <use xlink:href="#SimHei-31"/>
       <use xlink:href="#SimHei-34" x="50"/>
       <use xlink:href="#SimHei-30" x="100"/>
       <use xlink:href="#SimHei-30" x="150"/>
      </g>
     </g>
    </g>
    <g id="text_17">
     <!-- 平均价格 -->
     <g transform="translate(57.75 238.16) rotate(-90) scale(0.1 -0.1)">
      <defs>
       <path id="SimHei-5e73" d="M 4525 4825 
Q 4900 4825 5450 4850 
L 5450 4375 
Q 4925 4400 4525 4400 
L 3475 4400 
L 3475 2025 
L 5000 2025 
Q 5550 2025 6025 2050 
L 6025 1575 
Q 5550 1600 5000 1600 
L 3475 1600 
L 3475 450 
Q 3475 -100 3500 -600 
L 2925 -600 
Q 2950 -100 2950 450 
L 2950 1600 
L 1125 1600 
Q 775 1600 375 1575 
L 375 2050 
Q 775 2025 1175 2025 
L 2950 2025 
L 2950 4400 
L 1775 4400 
Q 1400 4400 875 4375 
L 875 4850 
Q 1400 4825 1750 4825 
L 4525 4825 
z
M 3925 2600 
Q 4500 3300 4900 4125 
Q 5150 3950 5400 3825 
Q 4775 2850 4350 2300 
Q 4150 2475 3925 2600 
z
M 1975 2350 
Q 1600 3100 1050 3725 
Q 1250 3875 1450 4050 
Q 2075 3300 2450 2725 
Q 2150 2500 1975 2350 
z
" transform="scale(0.015625)"/>
       <path id="SimHei-5747" d="M 5775 275 
Q 5775 -325 5362 -450 
Q 4950 -575 4425 -600 
Q 4375 -275 4250 25 
Q 4950 -25 5125 62 
Q 5300 150 5300 500 
L 5375 3700 
L 3550 3700 
Q 3425 3375 3262 3037 
Q 3100 2700 2925 2400 
Q 2675 2550 2475 2625 
Q 3150 3625 3500 5200 
Q 3800 5100 4075 5025 
Q 3975 4875 3875 4650 
Q 3775 4425 3675 4125 
L 5900 4125 
L 5775 275 
z
M 1250 3625 
L 1250 4375 
Q 1250 4775 1225 5100 
L 1775 5100 
Q 1750 4725 1750 4375 
L 1750 3625 
L 1900 3625 
Q 2200 3625 2525 3650 
L 2525 3150 
Q 2200 3175 1900 3175 
L 1750 3175 
L 1750 1100 
L 2500 1375 
Q 2475 1125 2525 900 
Q 1225 475 962 362 
Q 700 250 475 150 
Q 375 475 250 750 
Q 575 800 800 850 
Q 1025 900 1250 975 
L 1250 3175 
L 1125 3175 
Q 850 3175 400 3150 
L 400 3650 
Q 850 3625 1100 3625 
L 1250 3625 
z
M 4950 1625 
Q 4675 1425 4137 1050 
Q 3600 675 3175 300 
Q 3000 575 2850 775 
Q 3350 1050 3762 1325 
Q 4175 1600 4775 2075 
Q 4825 1850 4950 1625 
z
M 3775 3150 
Q 4125 2800 4475 2300 
Q 4250 2125 4100 1975 
Q 3900 2325 3450 2825 
Q 3600 3000 3775 3150 
z
" transform="scale(0.015625)"/>
       <path id="SimHei-4ef7" d="M 2200 4975 
Q 2050 4725 1650 3775 
L 1650 450 
Q 1650 -225 1675 -650 
L 1175 -650 
Q 1175 -225 1200 450 
L 1200 2975 
Q 900 2425 650 2100 
Q 525 2275 225 2450 
Q 750 3025 1125 3800 
Q 1500 4575 1625 5175 
Q 1950 5025 2200 4975 
z
M 4175 4700 
Q 4850 3525 6150 2950 
Q 5925 2750 5775 2500 
Q 4725 3100 3950 4300 
Q 3300 3125 2250 2350 
Q 2125 2525 1900 2725 
Q 2825 3325 3250 4050 
Q 3675 4775 3750 5150 
Q 4150 4950 4325 4900 
L 4175 4700 
z
M 3475 2650 
Q 3400 2075 3325 1087 
Q 3250 100 2325 -675 
Q 2175 -450 1925 -300 
Q 2850 350 2912 1262 
Q 2975 2175 2950 2700 
Q 3275 2650 3475 2650 
z
M 5075 2700 
Q 5050 2150 5050 1725 
L 5050 150 
Q 5050 -225 5075 -650 
L 4550 -650 
Q 4575 -225 4575 175 
L 4575 1875 
Q 4575 2150 4550 2700 
L 5075 2700 
z
" transform="scale(0.015625)"/>
       <path id="SimHei-683c" d="M 4075 4875 
Q 3975 4750 3750 4350 
L 5625 4350 
Q 5450 3850 5212 3437 
Q 4975 3025 4650 2650 
Q 4950 2450 5412 2287 
Q 5875 2125 6150 2100 
Q 5975 1900 5875 1600 
Q 5550 1725 5125 1912 
Q 4700 2100 4300 2400 
Q 3925 2125 3537 1937 
Q 3150 1750 2575 1550 
Q 2475 1775 2300 1925 
Q 2825 2050 3262 2250 
Q 3700 2450 3975 2675 
Q 3625 3050 3325 3575 
Q 3175 3350 2875 2950 
Q 2700 3100 2475 3200 
Q 2825 3550 3112 4075 
Q 3400 4600 3550 5100 
Q 3775 4950 4075 4875 
z
M 5575 1650 
Q 5550 1350 5550 575 
Q 5550 -200 5575 -575 
L 5050 -575 
L 5050 -175 
L 3500 -175 
L 3500 -600 
L 2975 -600 
Q 3000 -200 3000 550 
Q 3000 1325 2975 1650 
L 5575 1650 
z
M 1850 5100 
Q 1825 4775 1825 4475 
L 1825 3825 
Q 2300 3825 2525 3850 
L 2525 3400 
Q 2300 3425 1825 3425 
L 1825 2725 
Q 1950 2800 2125 2950 
Q 2350 2600 2550 2200 
Q 2350 2075 2175 1950 
Q 1975 2375 1825 2625 
L 1825 275 
Q 1825 -275 1850 -625 
L 1350 -625 
Q 1375 -275 1375 275 
L 1375 2425 
Q 1150 1850 625 850 
Q 475 1025 250 1150 
Q 650 1775 900 2375 
Q 1150 2975 1250 3425 
Q 900 3425 475 3400 
L 475 3850 
Q 925 3825 1375 3825 
L 1375 4475 
Q 1375 4750 1350 5100 
L 1850 5100 
z
M 5050 200 
L 5050 1275 
L 3500 1275 
L 3500 200 
L 5050 200 
z
M 4300 2925 
Q 4675 3300 4975 3975 
L 3550 3975 
Q 3850 3350 4300 2925 
z
" transform="scale(0.015625)"/>
      </defs>
      <use xlink:href="#SimHei-5e73"/>
      <use xlink:href="#SimHei-5747" x="100"/>
      <use xlink:href="#SimHei-4ef7" x="200"/>
      <use xlink:href="#SimHei-683c" x="300"/>
     </g>
    </g>
   </g>
   <g id="line2d_31">
    <path d="M 115.363636 74.359766 
L 118.791155 72.251651 
L 122.218673 66.96 
L 125.646192 74.359766 
L 139.356265 66.96 
L 146.211302 68.460943 
L 153.066339 66.96 
L 156.493857 66.96 
L 159.921376 70.200808 
L 166.776413 70.200808 
L 173.63145 70.200808 
L 183.914005 70.200808 
L 187.341523 70.200808 
L 194.19656 70.200808 
L 201.051597 70.200808 
L 207.906634 70.200808 
L 211.334152 70.200808 
L 214.761671 70.26287 
L 218.189189 70.386994 
L 231.899263 70.386994 
L 235.326781 70.386994 
L 238.7543 70.386994 
L 242.181818 70.221028 
L 252.464373 68.776218 
L 255.891892 70.055063 
L 259.31941 70.769165 
L 262.746929 71.483267 
L 266.174447 70.164925 
L 269.601966 70.213752 
L 273.029484 70.721558 
L 276.457002 70.259092 
L 279.884521 71.483267 
L 283.312039 70.055063 
L 286.739558 70.055063 
L 290.167076 70.055063 
L 293.594595 369.36 
L 297.022113 369.36 
L 314.159705 70.055063 
L 327.869779 70.055063 
L 331.297297 70.055063 
L 338.152334 369.36 
L 341.579853 70.055063 
L 345.007371 122.108095 
L 348.434889 70.055063 
L 351.862408 70.055063 
L 355.289926 219.707531 
L 358.717445 70.055063 
L 362.144963 70.055063 
L 365.572482 71.067934 
L 369 82.955754 
L 372.427518 73.92527 
L 375.855037 83.346467 
L 379.282555 79.082736 
L 382.710074 80.506051 
L 386.137592 80.704031 
L 389.565111 76.14553 
L 392.992629 85.529979 
L 396.420147 80.154266 
L 399.847666 91.178387 
L 403.275184 84.042971 
L 406.702703 86.129902 
L 410.130221 86.424218 
L 416.985258 86.071965 
L 420.412776 86.775135 
L 423.840295 86.903406 
L 430.695332 96.743437 
L 434.12285 94.184506 
L 437.550369 88.486636 
L 440.977887 88.321642 
L 444.405405 88.226128 
L 447.832924 88.181216 
L 451.260442 88.426309 
L 454.687961 88.068814 
L 458.115479 88.068814 
L 461.542998 88.233368 
L 464.970516 87.987389 
L 468.398034 87.845508 
L 471.825553 97.316725 
L 475.253071 86.45182 
L 478.68059 93.194067 
L 482.108108 95.432047 
L 495.818182 117.1918 
L 499.2457 116.074392 
L 509.528256 124.128251 
L 512.955774 122.481742 
L 516.383292 184.241459 
L 519.810811 154.35077 
L 523.238329 149.101316 
L 526.665848 125.30038 
L 533.520885 184.264925 
L 540.375921 170.690949 
L 543.80344 155.204653 
L 547.230958 198.836122 
L 550.658477 198.836122 
L 557.513514 118.441527 
L 560.941032 112.63508 
L 564.36855 93.406637 
L 567.796069 95.853592 
L 571.223587 116.613392 
L 578.078624 97.317762 
L 588.361179 97.317762 
L 591.788698 97.317762 
L 598.643735 93.494425 
L 608.92629 93.494425 
L 619.208845 93.291295 
L 622.636364 95.405575 
" clip-path="url(#p65658f0127)" style="fill: none; stroke: #ff0000; stroke-width: 1.5; stroke-linecap: square"/>
    <defs>
     <path id="mdccca663e6" d="M 0 3 
C 0.795609 3 1.55874 2.683901 2.12132 2.12132 
C 2.683901 1.55874 3 0.795609 3 0 
C 3 -0.795609 2.683901 -1.55874 2.12132 -2.12132 
C 1.55874 -2.683901 0.795609 -3 0 -3 
C -0.795609 -3 -1.55874 -2.683901 -2.12132 -2.12132 
C -2.683901 -1.55874 -3 -0.795609 -3 0 
C -3 0.795609 -2.683901 1.55874 -2.12132 2.12132 
C -1.55874 2.683901 -0.795609 3 0 3 
z
" style="stroke: #ff0000"/>
    </defs>
    <g clip-path="url(#p65658f0127)">
     <use xlink:href="#mdccca663e6" x="115.363636" y="74.359766" style="fill: #ff0000; stroke: #ff0000"/>
     <use xlink:href="#mdccca663e6" x="118.791155" y="72.251651" style="fill: #ff0000; stroke: #ff0000"/>
     <use xlink:href="#mdccca663e6" x="122.218673" y="66.96" style="fill: #ff0000; stroke: #ff0000"/>
     <use xlink:href="#mdccca663e6" x="125.646192" y="74.359766" style="fill: #ff0000; stroke: #ff0000"/>
     <use xlink:href="#mdccca663e6" x="139.356265" y="66.96" style="fill: #ff0000; stroke: #ff0000"/>
     <use xlink:href="#mdccca663e6" x="146.211302" y="68.460943" style="fill: #ff0000; stroke: #ff0000"/>
     <use xlink:href="#mdccca663e6" x="153.066339" y="66.96" style="fill: #ff0000; stroke: #ff0000"/>
     <use xlink:href="#mdccca663e6" x="156.493857" y="66.96" style="fill: #ff0000; stroke: #ff0000"/>
     <use xlink:href="#mdccca663e6" x="159.921376" y="70.200808" style="fill: #ff0000; stroke: #ff0000"/>
     <use xlink:href="#mdccca663e6" x="166.776413" y="70.200808" style="fill: #ff0000; stroke: #ff0000"/>
     <use xlink:href="#mdccca663e6" x="173.63145" y="70.200808" style="fill: #ff0000; stroke: #ff0000"/>
     <use xlink:href="#mdccca663e6" x="183.914005" y="70.200808" style="fill: #ff0000; stroke: #ff0000"/>
     <use xlink:href="#mdccca663e6" x="187.341523" y="70.200808" style="fill: #ff0000; stroke: #ff0000"/>
     <use xlink:href="#mdccca663e6" x="194.19656" y="70.200808" style="fill: #ff0000; stroke: #ff0000"/>
     <use xlink:href="#mdccca663e6" x="201.051597" y="70.200808" style="fill: #ff0000; stroke: #ff0000"/>
     <use xlink:href="#mdccca663e6" x="207.906634" y="70.200808" style="fill: #ff0000; stroke: #ff0000"/>
     <use xlink:href="#mdccca663e6" x="211.334152" y="70.200808" style="fill: #ff0000; stroke: #ff0000"/>
     <use xlink:href="#mdccca663e6" x="214.761671" y="70.26287" style="fill: #ff0000; stroke: #ff0000"/>
     <use xlink:href="#mdccca663e6" x="218.189189" y="70.386994" style="fill: #ff0000; stroke: #ff0000"/>
     <use xlink:href="#mdccca663e6" x="231.899263" y="70.386994" style="fill: #ff0000; stroke: #ff0000"/>
     <use xlink:href="#mdccca663e6" x="235.326781" y="70.386994" style="fill: #ff0000; stroke: #ff0000"/>
     <use xlink:href="#mdccca663e6" x="238.7543" y="70.386994" style="fill: #ff0000; stroke: #ff0000"/>
     <use xlink:href="#mdccca663e6" x="242.181818" y="70.221028" style="fill: #ff0000; stroke: #ff0000"/>
     <use xlink:href="#mdccca663e6" x="252.464373" y="68.776218" style="fill: #ff0000; stroke: #ff0000"/>
     <use xlink:href="#mdccca663e6" x="255.891892" y="70.055063" style="fill: #ff0000; stroke: #ff0000"/>
     <use xlink:href="#mdccca663e6" x="259.31941" y="70.769165" style="fill: #ff0000; stroke: #ff0000"/>
     <use xlink:href="#mdccca663e6" x="262.746929" y="71.483267" style="fill: #ff0000; stroke: #ff0000"/>
     <use xlink:href="#mdccca663e6" x="266.174447" y="70.164925" style="fill: #ff0000; stroke: #ff0000"/>
     <use xlink:href="#mdccca663e6" x="269.601966" y="70.213752" style="fill: #ff0000; stroke: #ff0000"/>
     <use xlink:href="#mdccca663e6" x="273.029484" y="70.721558" style="fill: #ff0000; stroke: #ff0000"/>
     <use xlink:href="#mdccca663e6" x="276.457002" y="70.259092" style="fill: #ff0000; stroke: #ff0000"/>
     <use xlink:href="#mdccca663e6" x="279.884521" y="71.483267" style="fill: #ff0000; stroke: #ff0000"/>
     <use xlink:href="#mdccca663e6" x="283.312039" y="70.055063" style="fill: #ff0000; stroke: #ff0000"/>
     <use xlink:href="#mdccca663e6" x="286.739558" y="70.055063" style="fill: #ff0000; stroke: #ff0000"/>
     <use xlink:href="#mdccca663e6" x="290.167076" y="70.055063" style="fill: #ff0000; stroke: #ff0000"/>
     <use xlink:href="#mdccca663e6" x="293.594595" y="369.36" style="fill: #ff0000; stroke: #ff0000"/>
     <use xlink:href="#mdccca663e6" x="297.022113" y="369.36" style="fill: #ff0000; stroke: #ff0000"/>
     <use xlink:href="#mdccca663e6" x="314.159705" y="70.055063" style="fill: #ff0000; stroke: #ff0000"/>
     <use xlink:href="#mdccca663e6" x="327.869779" y="70.055063" style="fill: #ff0000; stroke: #ff0000"/>
     <use xlink:href="#mdccca663e6" x="331.297297" y="70.055063" style="fill: #ff0000; stroke: #ff0000"/>
     <use xlink:href="#mdccca663e6" x="338.152334" y="369.36" style="fill: #ff0000; stroke: #ff0000"/>
     <use xlink:href="#mdccca663e6" x="341.579853" y="70.055063" style="fill: #ff0000; stroke: #ff0000"/>
     <use xlink:href="#mdccca663e6" x="345.007371" y="122.108095" style="fill: #ff0000; stroke: #ff0000"/>
     <use xlink:href="#mdccca663e6" x="348.434889" y="70.055063" style="fill: #ff0000; stroke: #ff0000"/>
     <use xlink:href="#mdccca663e6" x="351.862408" y="70.055063" style="fill: #ff0000; stroke: #ff0000"/>
     <use xlink:href="#mdccca663e6" x="355.289926" y="219.707531" style="fill: #ff0000; stroke: #ff0000"/>
     <use xlink:href="#mdccca663e6" x="358.717445" y="70.055063" style="fill: #ff0000; stroke: #ff0000"/>
     <use xlink:href="#mdccca663e6" x="362.144963" y="70.055063" style="fill: #ff0000; stroke: #ff0000"/>
     <use xlink:href="#mdccca663e6" x="365.572482" y="71.067934" style="fill: #ff0000; stroke: #ff0000"/>
     <use xlink:href="#mdccca663e6" x="369" y="82.955754" style="fill: #ff0000; stroke: #ff0000"/>
     <use xlink:href="#mdccca663e6" x="372.427518" y="73.92527" style="fill: #ff0000; stroke: #ff0000"/>
     <use xlink:href="#mdccca663e6" x="375.855037" y="83.346467" style="fill: #ff0000; stroke: #ff0000"/>
     <use xlink:href="#mdccca663e6" x="379.282555" y="79.082736" style="fill: #ff0000; stroke: #ff0000"/>
     <use xlink:href="#mdccca663e6" x="382.710074" y="80.506051" style="fill: #ff0000; stroke: #ff0000"/>
     <use xlink:href="#mdccca663e6" x="386.137592" y="80.704031" style="fill: #ff0000; stroke: #ff0000"/>
     <use xlink:href="#mdccca663e6" x="389.565111" y="76.14553" style="fill: #ff0000; stroke: #ff0000"/>
     <use xlink:href="#mdccca663e6" x="392.992629" y="85.529979" style="fill: #ff0000; stroke: #ff0000"/>
     <use xlink:href="#mdccca663e6" x="396.420147" y="80.154266" style="fill: #ff0000; stroke: #ff0000"/>
     <use xlink:href="#mdccca663e6" x="399.847666" y="91.178387" style="fill: #ff0000; stroke: #ff0000"/>
     <use xlink:href="#mdccca663e6" x="403.275184" y="84.042971" style="fill: #ff0000; stroke: #ff0000"/>
     <use xlink:href="#mdccca663e6" x="406.702703" y="86.129902" style="fill: #ff0000; stroke: #ff0000"/>
     <use xlink:href="#mdccca663e6" x="410.130221" y="86.424218" style="fill: #ff0000; stroke: #ff0000"/>
     <use xlink:href="#mdccca663e6" x="416.985258" y="86.071965" style="fill: #ff0000; stroke: #ff0000"/>
     <use xlink:href="#mdccca663e6" x="420.412776" y="86.775135" style="fill: #ff0000; stroke: #ff0000"/>
     <use xlink:href="#mdccca663e6" x="423.840295" y="86.903406" style="fill: #ff0000; stroke: #ff0000"/>
     <use xlink:href="#mdccca663e6" x="430.695332" y="96.743437" style="fill: #ff0000; stroke: #ff0000"/>
     <use xlink:href="#mdccca663e6" x="434.12285" y="94.184506" style="fill: #ff0000; stroke: #ff0000"/>
     <use xlink:href="#mdccca663e6" x="437.550369" y="88.486636" style="fill: #ff0000; stroke: #ff0000"/>
     <use xlink:href="#mdccca663e6" x="440.977887" y="88.321642" style="fill: #ff0000; stroke: #ff0000"/>
     <use xlink:href="#mdccca663e6" x="444.405405" y="88.226128" style="fill: #ff0000; stroke: #ff0000"/>
     <use xlink:href="#mdccca663e6" x="447.832924" y="88.181216" style="fill: #ff0000; stroke: #ff0000"/>
     <use xlink:href="#mdccca663e6" x="451.260442" y="88.426309" style="fill: #ff0000; stroke: #ff0000"/>
     <use xlink:href="#mdccca663e6" x="454.687961" y="88.068814" style="fill: #ff0000; stroke: #ff0000"/>
     <use xlink:href="#mdccca663e6" x="458.115479" y="88.068814" style="fill: #ff0000; stroke: #ff0000"/>
     <use xlink:href="#mdccca663e6" x="461.542998" y="88.233368" style="fill: #ff0000; stroke: #ff0000"/>
     <use xlink:href="#mdccca663e6" x="464.970516" y="87.987389" style="fill: #ff0000; stroke: #ff0000"/>
     <use xlink:href="#mdccca663e6" x="468.398034" y="87.845508" style="fill: #ff0000; stroke: #ff0000"/>
     <use xlink:href="#mdccca663e6" x="471.825553" y="97.316725" style="fill: #ff0000; stroke: #ff0000"/>
     <use xlink:href="#mdccca663e6" x="475.253071" y="86.45182" style="fill: #ff0000; stroke: #ff0000"/>
     <use xlink:href="#mdccca663e6" x="478.68059" y="93.194067" style="fill: #ff0000; stroke: #ff0000"/>
     <use xlink:href="#mdccca663e6" x="482.108108" y="95.432047" style="fill: #ff0000; stroke: #ff0000"/>
     <use xlink:href="#mdccca663e6" x="495.818182" y="117.1918" style="fill: #ff0000; stroke: #ff0000"/>
     <use xlink:href="#mdccca663e6" x="499.2457" y="116.074392" style="fill: #ff0000; stroke: #ff0000"/>
     <use xlink:href="#mdccca663e6" x="509.528256" y="124.128251" style="fill: #ff0000; stroke: #ff0000"/>
     <use xlink:href="#mdccca663e6" x="512.955774" y="122.481742" style="fill: #ff0000; stroke: #ff0000"/>
     <use xlink:href="#mdccca663e6" x="516.383292" y="184.241459" style="fill: #ff0000; stroke: #ff0000"/>
     <use xlink:href="#mdccca663e6" x="519.810811" y="154.35077" style="fill: #ff0000; stroke: #ff0000"/>
     <use xlink:href="#mdccca663e6" x="523.238329" y="149.101316" style="fill: #ff0000; stroke: #ff0000"/>
     <use xlink:href="#mdccca663e6" x="526.665848" y="125.30038" style="fill: #ff0000; stroke: #ff0000"/>
     <use xlink:href="#mdccca663e6" x="533.520885" y="184.264925" style="fill: #ff0000; stroke: #ff0000"/>
     <use xlink:href="#mdccca663e6" x="540.375921" y="170.690949" style="fill: #ff0000; stroke: #ff0000"/>
     <use xlink:href="#mdccca663e6" x="543.80344" y="155.204653" style="fill: #ff0000; stroke: #ff0000"/>
     <use xlink:href="#mdccca663e6" x="547.230958" y="198.836122" style="fill: #ff0000; stroke: #ff0000"/>
     <use xlink:href="#mdccca663e6" x="550.658477" y="198.836122" style="fill: #ff0000; stroke: #ff0000"/>
     <use xlink:href="#mdccca663e6" x="557.513514" y="118.441527" style="fill: #ff0000; stroke: #ff0000"/>
     <use xlink:href="#mdccca663e6" x="560.941032" y="112.63508" style="fill: #ff0000; stroke: #ff0000"/>
     <use xlink:href="#mdccca663e6" x="564.36855" y="93.406637" style="fill: #ff0000; stroke: #ff0000"/>
     <use xlink:href="#mdccca663e6" x="567.796069" y="95.853592" style="fill: #ff0000; stroke: #ff0000"/>
     <use xlink:href="#mdccca663e6" x="571.223587" y="116.613392" style="fill: #ff0000; stroke: #ff0000"/>
     <use xlink:href="#mdccca663e6" x="578.078624" y="97.317762" style="fill: #ff0000; stroke: #ff0000"/>
     <use xlink:href="#mdccca663e6" x="588.361179" y="97.317762" style="fill: #ff0000; stroke: #ff0000"/>
     <use xlink:href="#mdccca663e6" x="591.788698" y="97.317762" style="fill: #ff0000; stroke: #ff0000"/>
     <use xlink:href="#mdccca663e6" x="598.643735" y="93.494425" style="fill: #ff0000; stroke: #ff0000"/>
     <use xlink:href="#mdccca663e6" x="608.92629" y="93.494425" style="fill: #ff0000; stroke: #ff0000"/>
     <use xlink:href="#mdccca663e6" x="619.208845" y="93.291295" style="fill: #ff0000; stroke: #ff0000"/>
     <use xlink:href="#mdccca663e6" x="622.636364" y="95.405575" style="fill: #ff0000; stroke: #ff0000"/>
    </g>
   </g>
   <g id="patch_3">
    <path d="M 90 384.48 
L 90 51.84 
" style="fill: none; stroke: #000000; stroke-width: 0.8; stroke-linejoin: miter; stroke-linecap: square"/>
   </g>
   <g id="patch_4">
    <path d="M 648 384.48 
L 648 51.84 
" style="fill: none; stroke: #000000; stroke-width: 0.8; stroke-linejoin: miter; stroke-linecap: square"/>
   </g>
   <g id="patch_5">
    <path d="M 90 384.48 
L 648 384.48 
" style="fill: none; stroke: #000000; stroke-width: 0.8; stroke-linejoin: miter; stroke-linecap: square"/>
   </g>
   <g id="patch_6">
    <path d="M 90 51.84 
L 648 51.84 
" style="fill: none; stroke: #000000; stroke-width: 0.8; stroke-linejoin: miter; stroke-linecap: square"/>
   </g>
   <g id="text_18">
    <!-- 6004010174 每周平均价格 -->
    <g transform="translate(300 45.84) scale(0.12 -0.12)">
     <defs>
      <path id="SimHei-37" d="M 850 150 
Q 1300 2050 2425 3925 
L 275 3925 
L 275 4375 
L 2950 4375 
L 2950 3950 
Q 1775 2050 1400 150 
L 850 150 
z
" transform="scale(0.015625)"/>
      <path id="SimHei-20" transform="scale(0.015625)"/>
      <path id="SimHei-6bcf" d="M 5225 3650 
Q 5175 3150 5150 2675 
L 5125 2200 
Q 5525 2200 6000 2225 
L 6000 1775 
Q 5625 1800 5100 1800 
L 5050 650 
Q 5325 650 5700 675 
L 5700 225 
Q 5400 250 5025 250 
Q 5000 -275 4775 -425 
Q 4550 -575 4000 -650 
Q 3950 -400 3775 -125 
Q 4375 -125 4475 -50 
Q 4575 25 4575 250 
L 1400 250 
L 1500 1100 
L 1550 1800 
L 1275 1800 
Q 825 1800 550 1775 
L 550 2225 
Q 975 2200 1275 2200 
L 1575 2200 
L 1625 2825 
L 1675 3650 
L 5225 3650 
z
M 2350 5000 
Q 2175 4825 2050 4600 
L 4875 4600 
Q 5275 4600 5775 4625 
L 5775 4175 
Q 5275 4200 4875 4200 
L 1825 4200 
L 1375 3625 
Q 1125 3325 775 2975 
Q 600 3175 350 3300 
Q 725 3575 1150 4112 
Q 1575 4650 1825 5250 
Q 2125 5075 2350 5000 
z
M 1975 1800 
L 1875 650 
L 4625 650 
L 4675 1800 
L 2950 1800 
Q 3575 1275 3825 1125 
Q 3625 925 3475 725 
Q 3100 1100 2650 1475 
Q 2775 1675 2875 1800 
L 1975 1800 
z
M 2975 3250 
Q 3125 3150 3287 3012 
Q 3450 2875 3800 2550 
Q 3650 2350 3525 2200 
L 4700 2200 
L 4750 3250 
L 2975 3250 
z
M 2075 3250 
L 2000 2200 
L 3425 2200 
Q 3150 2500 3012 2625 
Q 2875 2750 2700 2900 
Q 2800 3050 2925 3250 
L 2075 3250 
z
" transform="scale(0.015625)"/>
     </defs>
     <use xlink:href="#SimHei-36"/>
     <use xlink:href="#SimHei-30" x="50"/>
     <use xlink:href="#SimHei-30" x="100"/>
     <use xlink:href="#SimHei-34" x="150"/>
     <use xlink:href="#SimHei-30" x="200"/>
     <use xlink:href="#SimHei-31" x="250"/>
     <use xlink:href="#SimHei-30" x="300"/>
     <use xlink:href="#SimHei-31" x="350"/>
     <use xlink:href="#SimHei-37" x="400"/>
     <use xlink:href="#SimHei-34" x="450"/>
     <use xlink:href="#SimHei-20" x="500"/>
     <use xlink:href="#SimHei-6bcf" x="550"/>
     <use xlink:href="#SimHei-5468" x="650"/>
     <use xlink:href="#SimHei-5e73" x="750"/>
     <use xlink:href="#SimHei-5747" x="850"/>
     <use xlink:href="#SimHei-4ef7" x="950"/>
     <use xlink:href="#SimHei-683c" x="1050"/>
    </g>
   </g>
  </g>
 </g>
 <defs>
  <clipPath id="p65658f0127">
   <rect x="90" y="51.84" width="558" height="332.64"/>
  </clipPath>
 </defs>
</svg>
