<?xml version="1.0" encoding="utf-8" standalone="no"?>
<!DOCTYPE svg PUBLIC "-//W3C//DTD SVG 1.1//EN"
  "http://www.w3.org/Graphics/SVG/1.1/DTD/svg11.dtd">
<svg xmlns:xlink="http://www.w3.org/1999/xlink" width="720pt" height="432pt" viewBox="0 0 720 432" xmlns="http://www.w3.org/2000/svg" version="1.1">
 <metadata>
  <rdf:RDF xmlns:dc="http://purl.org/dc/elements/1.1/" xmlns:cc="http://creativecommons.org/ns#" xmlns:rdf="http://www.w3.org/1999/02/22-rdf-syntax-ns#">
   <cc:Work>
    <dc:type rdf:resource="http://purl.org/dc/dcmitype/StillImage"/>
    <dc:date>2024-08-17T14:09:46.349359</dc:date>
    <dc:format>image/svg+xml</dc:format>
    <dc:creator>
     <cc:Agent>
      <dc:title>Matplotlib v3.8.0, https://matplotlib.org/</dc:title>
     </cc:Agent>
    </dc:creator>
   </cc:Work>
  </rdf:RDF>
 </metadata>
 <defs>
  <style type="text/css">*{stroke-linejoin: round; stroke-linecap: butt}</style>
 </defs>
 <g id="figure_1">
  <g id="patch_1">
   <path d="M 0 432 
L 720 432 
L 720 0 
L 0 0 
z
" style="fill: #ffffff"/>
  </g>
  <g id="axes_1">
   <g id="patch_2">
    <path d="M 90 384.48 
L 648 384.48 
L 648 51.84 
L 90 51.84 
z
" style="fill: #ffffff"/>
   </g>
   <g id="matplotlib.axis_1">
    <g id="xtick_1">
     <g id="line2d_1">
      <defs>
       <path id="mf5ec2eb868" d="M 0 0 
L 0 3.5 
" style="stroke: #000000; stroke-width: 0.8"/>
      </defs>
      <g>
       <use xlink:href="#mf5ec2eb868" x="111.936118" y="384.48" style="stroke: #000000; stroke-width: 0.8"/>
      </g>
     </g>
     <g id="text_1">
      <!-- 0 -->
      <g transform="translate(109.436118 398.355) scale(0.1 -0.1)">
       <defs>
        <path id="SimHei-30" d="M 225 2537 
Q 250 3200 412 3587 
Q 575 3975 875 4225 
Q 1175 4475 1612 4475 
Q 2050 4475 2375 4112 
Q 2700 3750 2800 3200 
Q 2900 2650 2862 1937 
Q 2825 1225 2612 775 
Q 2400 325 1975 150 
Q 1550 -25 1125 187 
Q 700 400 525 750 
Q 350 1100 275 1487 
Q 200 1875 225 2537 
z
M 750 2687 
Q 675 2000 800 1462 
Q 925 925 1212 700 
Q 1500 475 1800 612 
Q 2100 750 2237 1162 
Q 2375 1575 2375 2062 
Q 2375 2550 2337 2950 
Q 2300 3350 2112 3675 
Q 1925 4000 1612 4012 
Q 1300 4025 1062 3700 
Q 825 3375 750 2687 
z
" transform="scale(0.015625)"/>
       </defs>
       <use xlink:href="#SimHei-30"/>
      </g>
     </g>
    </g>
    <g id="xtick_2">
     <g id="line2d_2">
      <g>
       <use xlink:href="#mf5ec2eb868" x="180.486486" y="384.48" style="stroke: #000000; stroke-width: 0.8"/>
      </g>
     </g>
     <g id="text_2">
      <!-- 20 -->
      <g transform="translate(175.486486 398.355) scale(0.1 -0.1)">
       <defs>
        <path id="SimHei-32" d="M 300 250 
Q 325 625 650 925 
Q 975 1225 1475 1862 
Q 1975 2500 2125 2850 
Q 2275 3200 2237 3450 
Q 2200 3700 2000 3862 
Q 1800 4025 1537 4000 
Q 1275 3975 1037 3800 
Q 800 3625 675 3275 
L 200 3350 
Q 400 3925 712 4187 
Q 1025 4450 1450 4475 
Q 1700 4500 1900 4462 
Q 2100 4425 2312 4287 
Q 2525 4150 2662 3875 
Q 2800 3600 2762 3212 
Q 2725 2825 2375 2287 
Q 2025 1750 1025 600 
L 2825 600 
L 2825 150 
L 300 150 
L 300 250 
z
" transform="scale(0.015625)"/>
       </defs>
       <use xlink:href="#SimHei-32"/>
       <use xlink:href="#SimHei-30" x="50"/>
      </g>
     </g>
    </g>
    <g id="xtick_3">
     <g id="line2d_3">
      <g>
       <use xlink:href="#mf5ec2eb868" x="249.036855" y="384.48" style="stroke: #000000; stroke-width: 0.8"/>
      </g>
     </g>
     <g id="text_3">
      <!-- 40 -->
      <g transform="translate(244.036855 398.355) scale(0.1 -0.1)">
       <defs>
        <path id="SimHei-34" d="M 2000 1100 
L 75 1100 
L 75 1525 
L 2100 4450 
L 2475 4450 
L 2475 1525 
L 3075 1525 
L 3075 1100 
L 2475 1100 
L 2475 150 
L 2000 150 
L 2000 1100 
z
M 2000 1525 
L 2000 3500 
L 600 1525 
L 2000 1525 
z
" transform="scale(0.015625)"/>
       </defs>
       <use xlink:href="#SimHei-34"/>
       <use xlink:href="#SimHei-30" x="50"/>
      </g>
     </g>
    </g>
    <g id="xtick_4">
     <g id="line2d_4">
      <g>
       <use xlink:href="#mf5ec2eb868" x="317.587224" y="384.48" style="stroke: #000000; stroke-width: 0.8"/>
      </g>
     </g>
     <g id="text_4">
      <!-- 60 -->
      <g transform="translate(312.587224 398.355) scale(0.1 -0.1)">
       <defs>
        <path id="SimHei-36" d="M 250 1612 
Q 275 1975 387 2225 
Q 500 2475 725 2850 
L 1750 4450 
L 2325 4450 
L 1275 2800 
Q 1950 2975 2350 2750 
Q 2750 2525 2887 2237 
Q 3025 1950 3037 1612 
Q 3050 1275 2937 950 
Q 2825 625 2537 362 
Q 2250 100 1737 75 
Q 1225 50 862 262 
Q 500 475 362 862 
Q 225 1250 250 1612 
z
M 1025 787 
Q 1250 550 1625 525 
Q 2000 500 2250 775 
Q 2500 1050 2500 1575 
Q 2500 2100 2187 2300 
Q 1875 2500 1487 2450 
Q 1100 2400 925 2075 
Q 750 1750 775 1387 
Q 800 1025 1025 787 
z
" transform="scale(0.015625)"/>
       </defs>
       <use xlink:href="#SimHei-36"/>
       <use xlink:href="#SimHei-30" x="50"/>
      </g>
     </g>
    </g>
    <g id="xtick_5">
     <g id="line2d_5">
      <g>
       <use xlink:href="#mf5ec2eb868" x="386.137592" y="384.48" style="stroke: #000000; stroke-width: 0.8"/>
      </g>
     </g>
     <g id="text_5">
      <!-- 80 -->
      <g transform="translate(381.137592 398.355) scale(0.1 -0.1)">
       <defs>
        <path id="SimHei-38" d="M 175 1375 
Q 175 1675 325 1962 
Q 475 2250 825 2425 
Q 525 2600 425 2812 
Q 325 3025 312 3300 
Q 300 3575 387 3775 
Q 475 3975 650 4150 
Q 825 4325 1037 4387 
Q 1250 4450 1500 4450 
Q 1750 4450 1950 4400 
Q 2150 4350 2375 4187 
Q 2600 4025 2700 3725 
Q 2800 3425 2687 3025 
Q 2575 2625 2100 2400 
Q 2525 2275 2700 2012 
Q 2875 1750 2875 1375 
Q 2875 1000 2762 775 
Q 2650 550 2512 400 
Q 2375 250 2137 162 
Q 1900 75 1537 75 
Q 1175 75 912 162 
Q 650 250 475 425 
Q 300 600 237 837 
Q 175 1075 175 1375 
z
M 687 1400 
Q 675 1100 787 875 
Q 900 650 1200 587 
Q 1500 525 1825 600 
Q 2150 675 2275 950 
Q 2400 1225 2362 1500 
Q 2325 1775 2050 1962 
Q 1775 2150 1450 2125 
Q 1125 2100 912 1900 
Q 700 1700 687 1400 
z
M 775 3350 
Q 775 3100 950 2875 
Q 1125 2650 1500 2650 
Q 1875 2650 2062 2875 
Q 2250 3100 2237 3412 
Q 2225 3725 2012 3875 
Q 1800 4025 1437 4000 
Q 1075 3975 925 3787 
Q 775 3600 775 3350 
z
" transform="scale(0.015625)"/>
       </defs>
       <use xlink:href="#SimHei-38"/>
       <use xlink:href="#SimHei-30" x="50"/>
      </g>
     </g>
    </g>
    <g id="xtick_6">
     <g id="line2d_6">
      <g>
       <use xlink:href="#mf5ec2eb868" x="454.687961" y="384.48" style="stroke: #000000; stroke-width: 0.8"/>
      </g>
     </g>
     <g id="text_6">
      <!-- 100 -->
      <g transform="translate(447.187961 398.355) scale(0.1 -0.1)">
       <defs>
        <path id="SimHei-31" d="M 1400 3600 
Q 1075 3275 575 2975 
L 575 3450 
Q 1200 3875 1600 4450 
L 1900 4450 
L 1900 150 
L 1400 150 
L 1400 3600 
z
" transform="scale(0.015625)"/>
       </defs>
       <use xlink:href="#SimHei-31"/>
       <use xlink:href="#SimHei-30" x="50"/>
       <use xlink:href="#SimHei-30" x="100"/>
      </g>
     </g>
    </g>
    <g id="xtick_7">
     <g id="line2d_7">
      <g>
       <use xlink:href="#mf5ec2eb868" x="523.238329" y="384.48" style="stroke: #000000; stroke-width: 0.8"/>
      </g>
     </g>
     <g id="text_7">
      <!-- 120 -->
      <g transform="translate(515.738329 398.355) scale(0.1 -0.1)">
       <use xlink:href="#SimHei-31"/>
       <use xlink:href="#SimHei-32" x="50"/>
       <use xlink:href="#SimHei-30" x="100"/>
      </g>
     </g>
    </g>
    <g id="xtick_8">
     <g id="line2d_8">
      <g>
       <use xlink:href="#mf5ec2eb868" x="591.788698" y="384.48" style="stroke: #000000; stroke-width: 0.8"/>
      </g>
     </g>
     <g id="text_8">
      <!-- 140 -->
      <g transform="translate(584.288698 398.355) scale(0.1 -0.1)">
       <use xlink:href="#SimHei-31"/>
       <use xlink:href="#SimHei-34" x="50"/>
       <use xlink:href="#SimHei-30" x="100"/>
      </g>
     </g>
    </g>
    <g id="text_9">
     <!-- 周数 -->
     <g transform="translate(359 411.339375) scale(0.1 -0.1)">
      <defs>
       <path id="SimHei-5468" d="M 5600 4925 
Q 5575 4400 5575 3800 
L 5575 50 
Q 5550 -375 5325 -462 
Q 5100 -550 4325 -600 
Q 4300 -400 4125 -75 
Q 4800 -100 4962 -37 
Q 5125 25 5100 225 
L 5100 4525 
L 1500 4525 
Q 1500 2575 1450 1887 
Q 1400 1200 1237 550 
Q 1075 -100 775 -625 
Q 625 -450 275 -225 
Q 650 225 825 1000 
Q 1000 1775 1025 2587 
Q 1050 3400 1000 4925 
L 5600 4925 
z
M 2050 325 
Q 2075 625 2075 950 
L 2075 1400 
Q 2075 1625 2050 1925 
L 4400 1925 
Q 4375 1725 4375 1450 
L 4375 875 
Q 4375 600 4400 325 
L 2050 325 
z
M 3000 3800 
Q 3000 4150 2975 4375 
L 3475 4375 
Q 3450 4075 3450 3800 
Q 4100 3800 4475 3825 
L 4475 3350 
Q 4125 3375 3450 3375 
L 3450 2800 
Q 4200 2800 4825 2825 
L 4825 2350 
Q 4175 2375 3725 2375 
L 2750 2375 
Q 2325 2375 1725 2350 
L 1725 2825 
Q 2325 2800 3000 2800 
L 3000 3375 
Q 2500 3375 1975 3350 
L 1975 3825 
Q 2475 3800 3000 3800 
z
M 3900 725 
L 3900 1525 
L 2550 1525 
L 2550 725 
L 3900 725 
z
" transform="scale(0.015625)"/>
       <path id="SimHei-6570" d="M 4525 4925 
Q 4475 4800 4400 4587 
Q 4325 4375 4175 3825 
L 5325 3825 
Q 5575 3825 5925 3850 
L 5925 3400 
Q 5650 3425 5500 3425 
Q 5500 3025 5362 2162 
Q 5225 1300 4875 675 
Q 5125 375 5437 137 
Q 5750 -100 6025 -200 
Q 5725 -425 5625 -625 
Q 5325 -450 5075 -225 
Q 4825 0 4575 325 
Q 4300 25 3987 -187 
Q 3675 -400 3200 -650 
Q 3075 -425 2850 -300 
Q 3225 -150 3650 125 
Q 4075 400 4300 675 
Q 4125 1025 3962 1425 
Q 3800 1825 3675 2475 
Q 3600 2275 3425 1950 
Q 3250 2050 3000 2150 
Q 3400 2850 3650 3675 
Q 3900 4500 3975 5100 
Q 4275 4975 4525 4925 
z
M 2100 2250 
Q 2000 2150 1875 1925 
L 3250 1925 
Q 3100 1300 2725 675 
Q 3125 525 3350 400 
Q 3225 225 3125 25 
Q 2900 175 2450 325 
Q 1950 -225 725 -650 
Q 600 -375 400 -275 
Q 1575 0 2000 475 
Q 1300 650 850 775 
Q 1000 1000 1250 1525 
Q 1000 1525 425 1500 
L 425 1950 
Q 900 1925 1400 1925 
Q 1500 2150 1550 2425 
Q 1825 2325 2100 2250 
z
M 1775 3950 
Q 1775 4550 1750 5100 
L 2250 5100 
Q 2225 4575 2225 3950 
Q 3075 3950 3425 3975 
L 3425 3525 
Q 3075 3550 2225 3550 
Q 2225 2825 2250 2425 
L 1750 2425 
Q 1775 2775 1775 3300 
Q 1650 3100 1300 2787 
Q 950 2475 650 2300 
Q 525 2525 275 2625 
Q 500 2700 875 2975 
Q 1250 3250 1450 3550 
Q 950 3550 500 3525 
L 500 3975 
Q 925 3950 1775 3950 
z
M 3975 3175 
Q 4200 1700 4600 1125 
Q 4850 1700 4937 2287 
Q 5025 2875 5050 3425 
L 4075 3425 
L 3975 3175 
z
M 1450 1000 
Q 1750 925 2275 800 
Q 2475 1050 2650 1525 
L 1725 1525 
Q 1600 1275 1450 1000 
z
M 3325 4825 
Q 3200 4625 3125 4450 
Q 3050 4275 2925 4025 
Q 2725 4125 2525 4175 
Q 2725 4500 2900 5000 
Q 3150 4875 3325 4825 
z
M 2575 3375 
Q 2900 3050 3200 2725 
Q 3050 2600 2875 2425 
Q 2525 2850 2300 3100 
Q 2450 3225 2575 3375 
z
M 925 5000 
Q 1275 4650 1500 4300 
L 1125 4075 
Q 950 4425 600 4725 
Q 825 4875 925 5000 
z
" transform="scale(0.015625)"/>
      </defs>
      <use xlink:href="#SimHei-5468"/>
      <use xlink:href="#SimHei-6570" x="100"/>
     </g>
    </g>
   </g>
   <g id="matplotlib.axis_2">
    <g id="ytick_1">
     <g id="line2d_9">
      <defs>
       <path id="m9bece0b764" d="M 0 0 
L -3.5 0 
" style="stroke: #000000; stroke-width: 0.8"/>
      </defs>
      <g>
       <use xlink:href="#m9bece0b764" x="90" y="371.88" style="stroke: #000000; stroke-width: 0.8"/>
      </g>
     </g>
     <g id="text_10">
      <!-- 0 -->
      <g style="fill: #0000ff" transform="translate(78 375.3175) scale(0.1 -0.1)">
       <use xlink:href="#SimHei-30"/>
      </g>
     </g>
    </g>
    <g id="ytick_2">
     <g id="line2d_10">
      <g>
       <use xlink:href="#m9bece0b764" x="90" y="321.48" style="stroke: #000000; stroke-width: 0.8"/>
      </g>
     </g>
     <g id="text_11">
      <!-- 20 -->
      <g style="fill: #0000ff" transform="translate(73 324.9175) scale(0.1 -0.1)">
       <use xlink:href="#SimHei-32"/>
       <use xlink:href="#SimHei-30" x="50"/>
      </g>
     </g>
    </g>
    <g id="ytick_3">
     <g id="line2d_11">
      <g>
       <use xlink:href="#m9bece0b764" x="90" y="271.08" style="stroke: #000000; stroke-width: 0.8"/>
      </g>
     </g>
     <g id="text_12">
      <!-- 40 -->
      <g style="fill: #0000ff" transform="translate(73 274.5175) scale(0.1 -0.1)">
       <use xlink:href="#SimHei-34"/>
       <use xlink:href="#SimHei-30" x="50"/>
      </g>
     </g>
    </g>
    <g id="ytick_4">
     <g id="line2d_12">
      <g>
       <use xlink:href="#m9bece0b764" x="90" y="220.68" style="stroke: #000000; stroke-width: 0.8"/>
      </g>
     </g>
     <g id="text_13">
      <!-- 60 -->
      <g style="fill: #0000ff" transform="translate(73 224.1175) scale(0.1 -0.1)">
       <use xlink:href="#SimHei-36"/>
       <use xlink:href="#SimHei-30" x="50"/>
      </g>
     </g>
    </g>
    <g id="ytick_5">
     <g id="line2d_13">
      <g>
       <use xlink:href="#m9bece0b764" x="90" y="170.28" style="stroke: #000000; stroke-width: 0.8"/>
      </g>
     </g>
     <g id="text_14">
      <!-- 80 -->
      <g style="fill: #0000ff" transform="translate(73 173.7175) scale(0.1 -0.1)">
       <use xlink:href="#SimHei-38"/>
       <use xlink:href="#SimHei-30" x="50"/>
      </g>
     </g>
    </g>
    <g id="ytick_6">
     <g id="line2d_14">
      <g>
       <use xlink:href="#m9bece0b764" x="90" y="119.88" style="stroke: #000000; stroke-width: 0.8"/>
      </g>
     </g>
     <g id="text_15">
      <!-- 100 -->
      <g style="fill: #0000ff" transform="translate(68 123.3175) scale(0.1 -0.1)">
       <use xlink:href="#SimHei-31"/>
       <use xlink:href="#SimHei-30" x="50"/>
       <use xlink:href="#SimHei-30" x="100"/>
      </g>
     </g>
    </g>
    <g id="ytick_7">
     <g id="line2d_15">
      <g>
       <use xlink:href="#m9bece0b764" x="90" y="69.48" style="stroke: #000000; stroke-width: 0.8"/>
      </g>
     </g>
     <g id="text_16">
      <!-- 120 -->
      <g style="fill: #0000ff" transform="translate(68 72.9175) scale(0.1 -0.1)">
       <use xlink:href="#SimHei-31"/>
       <use xlink:href="#SimHei-32" x="50"/>
       <use xlink:href="#SimHei-30" x="100"/>
      </g>
     </g>
    </g>
    <g id="text_17">
     <!-- 需求量 -->
     <g style="fill: #0000ff" transform="translate(62.75 233.16) rotate(-90) scale(0.1 -0.1)">
      <defs>
       <path id="SimHei-9700" d="M 5150 2100 
Q 5500 2100 5975 2125 
L 5975 1700 
Q 5500 1725 5150 1725 
L 3425 1725 
Q 3300 1500 3250 1275 
L 5600 1275 
Q 5575 950 5575 700 
L 5575 -50 
Q 5575 -350 5425 -437 
Q 5275 -525 4775 -625 
Q 4750 -400 4550 -100 
Q 4950 -100 5025 -50 
Q 5100 0 5100 200 
L 5100 900 
L 4125 900 
L 4125 -375 
L 3650 -375 
L 3650 900 
L 2775 900 
L 2775 -375 
L 2300 -375 
L 2300 900 
L 1350 900 
L 1350 -575 
L 875 -575 
Q 900 -225 900 175 
L 900 575 
Q 900 900 875 1275 
L 2800 1275 
Q 2875 1500 2925 1725 
L 1350 1725 
Q 925 1725 525 1700 
L 525 2125 
Q 900 2100 1325 2100 
L 5150 2100 
z
M 4700 5075 
Q 5075 5075 5550 5100 
L 5550 4675 
Q 5075 4700 4700 4700 
L 3475 4700 
L 3475 4275 
L 5975 4275 
L 5975 3100 
L 5500 3100 
L 5500 3900 
L 3475 3900 
L 3475 3200 
Q 3475 2775 3500 2425 
L 2975 2425 
Q 3000 2750 3000 3175 
L 3000 3900 
L 950 3900 
L 950 3100 
L 450 3100 
Q 450 3375 462 3650 
Q 475 3925 450 4275 
L 3000 4275 
L 3000 4700 
L 1775 4700 
Q 1400 4700 1025 4675 
L 1025 5100 
Q 1400 5075 1750 5075 
L 4700 5075 
z
M 2475 2450 
L 1250 2450 
L 1250 2800 
L 2475 2800 
L 2475 2450 
z
M 2500 3150 
L 1325 3150 
L 1325 3500 
L 2500 3500 
L 2500 3150 
z
M 5000 3175 
L 3825 3175 
L 3825 3525 
L 5000 3525 
L 5000 3175 
z
M 5025 2500 
L 3850 2500 
L 3850 2850 
L 5025 2850 
L 5025 2500 
z
" transform="scale(0.015625)"/>
       <path id="SimHei-6c42" d="M 475 4025 
Q 875 4000 1325 4000 
L 2875 4000 
Q 2875 4725 2850 5125 
L 3400 5125 
Q 3375 4725 3375 4000 
L 5150 4000 
Q 5500 4000 5925 4025 
L 5925 3575 
Q 5475 3600 5150 3600 
L 3375 3600 
Q 3400 3200 3612 2750 
Q 3825 2300 4050 2000 
Q 4600 2450 5075 3150 
Q 5250 2950 5575 2750 
Q 5275 2600 4250 1650 
Q 4575 1225 5037 850 
Q 5500 475 6050 325 
Q 5700 125 5550 -150 
Q 5000 150 4437 687 
Q 3875 1225 3375 2375 
L 3375 150 
Q 3400 -225 3137 -350 
Q 2875 -475 2375 -525 
Q 2325 -275 2150 25 
Q 2575 0 2737 37 
Q 2900 75 2875 300 
L 2875 1675 
Q 1875 900 1437 550 
Q 1000 200 725 -50 
Q 500 200 300 400 
Q 650 575 1200 937 
Q 1750 1300 2875 2250 
L 2875 3600 
L 1325 3600 
Q 875 3600 475 3575 
L 475 4025 
z
M 1225 3175 
Q 1775 2725 2250 2325 
L 1825 1950 
Q 1450 2375 825 2825 
L 1225 3175 
z
M 4500 5100 
Q 4900 4825 5300 4425 
Q 5125 4300 4925 4100 
Q 4650 4400 4125 4825 
Q 4275 4950 4500 5100 
z
" transform="scale(0.015625)"/>
       <path id="SimHei-91cf" d="M 5250 2500 
Q 5225 2200 5225 1700 
Q 5225 1225 5250 950 
L 3425 950 
L 3425 625 
L 4575 625 
Q 5000 625 5375 650 
L 5375 275 
Q 5025 300 4575 300 
L 3425 300 
L 3425 -75 
L 5125 -75 
Q 5525 -75 5925 -50 
L 5925 -425 
Q 5525 -400 5125 -400 
L 1275 -400 
Q 900 -400 475 -425 
L 475 -50 
Q 925 -50 1275 -75 
L 2975 -75 
L 2975 300 
L 1725 300 
Q 1350 300 975 250 
L 975 650 
Q 1375 625 1725 625 
L 2975 625 
L 2975 950 
L 1150 950 
Q 1175 1375 1175 1775 
Q 1175 2175 1150 2500 
L 5250 2500 
z
M 5200 4950 
Q 5175 4575 5175 4250 
Q 5175 3925 5200 3400 
L 1200 3400 
Q 1225 3925 1225 4250 
Q 1225 4575 1200 4950 
L 5200 4950 
z
M 4900 3100 
Q 5500 3125 6000 3150 
L 6000 2750 
Q 5500 2775 4925 2775 
L 1650 2775 
Q 975 2775 325 2750 
L 325 3150 
Q 975 3125 1650 3100 
L 4900 3100 
z
M 4725 3700 
L 4725 4025 
L 1675 4025 
L 1675 3700 
L 4725 3700 
z
M 4725 4350 
L 4725 4650 
L 1675 4650 
L 1675 4350 
L 4725 4350 
z
M 4750 1875 
L 4750 2175 
L 3425 2175 
L 3425 1875 
L 4750 1875 
z
M 2975 1875 
L 2975 2175 
L 1650 2175 
L 1650 1875 
L 2975 1875 
z
M 2975 1275 
L 2975 1550 
L 1650 1550 
L 1650 1275 
L 2975 1275 
z
M 4750 1275 
L 4750 1550 
L 3425 1550 
L 3425 1275 
L 4750 1275 
z
" transform="scale(0.015625)"/>
      </defs>
      <use xlink:href="#SimHei-9700"/>
      <use xlink:href="#SimHei-6c42" x="100"/>
      <use xlink:href="#SimHei-91cf" x="200"/>
     </g>
    </g>
   </g>
   <g id="line2d_16">
    <path d="M 115.363636 293.76 
L 118.791155 321.48 
L 122.218673 369.36 
L 125.646192 361.8 
L 139.356265 271.08 
L 146.211302 361.8 
L 153.066339 366.84 
L 156.493857 351.72 
L 159.921376 369.36 
L 166.776413 351.72 
L 173.63145 351.72 
L 183.914005 321.48 
L 187.341523 354.24 
L 194.19656 354.24 
L 201.051597 361.8 
L 207.906634 351.72 
L 211.334152 321.48 
L 214.761671 341.64 
L 218.189189 351.72 
L 231.899263 361.8 
L 235.326781 331.56 
L 238.7543 361.8 
L 242.181818 341.64 
L 252.464373 354.24 
L 255.891892 349.2 
L 259.31941 341.64 
L 262.746929 364.32 
L 266.174447 339.12 
L 269.601966 349.2 
L 273.029484 334.08 
L 276.457002 336.6 
L 279.884521 351.72 
L 283.312039 349.2 
L 286.739558 351.72 
L 290.167076 324 
L 293.594595 334.08 
L 297.022113 366.84 
L 314.159705 318.96 
L 327.869779 245.88 
L 331.297297 351.72 
L 338.152334 361.8 
L 341.579853 361.8 
L 345.007371 313.92 
L 348.434889 225.72 
L 351.862408 321.48 
L 355.289926 351.72 
L 358.717445 261 
L 362.144963 351.72 
L 365.572482 329.04 
L 369 356.76 
L 372.427518 321.48 
L 375.855037 258.48 
L 379.282555 286.2 
L 382.710074 306.36 
L 386.137592 321.48 
L 389.565111 283.68 
L 392.992629 238.32 
L 396.420147 255.96 
L 399.847666 255.96 
L 403.275184 313.92 
L 406.702703 351.72 
L 410.130221 298.8 
L 416.985258 296.28 
L 420.412776 286.2 
L 423.840295 66.96 
L 430.695332 180.36 
L 434.12285 99.72 
L 437.550369 266.04 
L 440.977887 235.8 
L 444.405405 225.72 
L 447.832924 298.8 
L 451.260442 250.92 
L 454.687961 341.64 
L 458.115479 361.8 
L 461.542998 356.76 
L 464.970516 225.72 
L 468.398034 258.48 
L 471.825553 341.64 
L 475.253071 326.52 
L 478.68059 306.36 
L 482.108108 344.16 
L 495.818182 341.64 
L 499.2457 129.96 
L 509.528256 192.96 
L 512.955774 344.16 
L 516.383292 361.8 
L 519.810811 288.72 
L 523.238329 306.36 
L 526.665848 329.04 
L 533.520885 336.6 
L 540.375921 334.08 
L 543.80344 361.8 
L 547.230958 341.64 
L 550.658477 341.64 
L 557.513514 321.48 
L 560.941032 361.8 
L 564.36855 339.12 
L 567.796069 344.16 
L 571.223587 356.76 
L 578.078624 361.8 
L 588.361179 366.84 
L 591.788698 356.76 
L 598.643735 341.64 
L 608.92629 366.84 
L 619.208845 369.36 
L 622.636364 366.84 
" clip-path="url(#paa74cb511c)" style="fill: none; stroke: #0000ff; stroke-width: 1.5; stroke-linecap: square"/>
    <defs>
     <path id="m6950684c49" d="M 0 3 
C 0.795609 3 1.55874 2.683901 2.12132 2.12132 
C 2.683901 1.55874 3 0.795609 3 0 
C 3 -0.795609 2.683901 -1.55874 2.12132 -2.12132 
C 1.55874 -2.683901 0.795609 -3 0 -3 
C -0.795609 -3 -1.55874 -2.683901 -2.12132 -2.12132 
C -2.683901 -1.55874 -3 -0.795609 -3 0 
C -3 0.795609 -2.683901 1.55874 -2.12132 2.12132 
C -1.55874 2.683901 -0.795609 3 0 3 
z
" style="stroke: #0000ff"/>
    </defs>
    <g clip-path="url(#paa74cb511c)">
     <use xlink:href="#m6950684c49" x="115.363636" y="293.76" style="fill: #0000ff; stroke: #0000ff"/>
     <use xlink:href="#m6950684c49" x="118.791155" y="321.48" style="fill: #0000ff; stroke: #0000ff"/>
     <use xlink:href="#m6950684c49" x="122.218673" y="369.36" style="fill: #0000ff; stroke: #0000ff"/>
     <use xlink:href="#m6950684c49" x="125.646192" y="361.8" style="fill: #0000ff; stroke: #0000ff"/>
     <use xlink:href="#m6950684c49" x="139.356265" y="271.08" style="fill: #0000ff; stroke: #0000ff"/>
     <use xlink:href="#m6950684c49" x="146.211302" y="361.8" style="fill: #0000ff; stroke: #0000ff"/>
     <use xlink:href="#m6950684c49" x="153.066339" y="366.84" style="fill: #0000ff; stroke: #0000ff"/>
     <use xlink:href="#m6950684c49" x="156.493857" y="351.72" style="fill: #0000ff; stroke: #0000ff"/>
     <use xlink:href="#m6950684c49" x="159.921376" y="369.36" style="fill: #0000ff; stroke: #0000ff"/>
     <use xlink:href="#m6950684c49" x="166.776413" y="351.72" style="fill: #0000ff; stroke: #0000ff"/>
     <use xlink:href="#m6950684c49" x="173.63145" y="351.72" style="fill: #0000ff; stroke: #0000ff"/>
     <use xlink:href="#m6950684c49" x="183.914005" y="321.48" style="fill: #0000ff; stroke: #0000ff"/>
     <use xlink:href="#m6950684c49" x="187.341523" y="354.24" style="fill: #0000ff; stroke: #0000ff"/>
     <use xlink:href="#m6950684c49" x="194.19656" y="354.24" style="fill: #0000ff; stroke: #0000ff"/>
     <use xlink:href="#m6950684c49" x="201.051597" y="361.8" style="fill: #0000ff; stroke: #0000ff"/>
     <use xlink:href="#m6950684c49" x="207.906634" y="351.72" style="fill: #0000ff; stroke: #0000ff"/>
     <use xlink:href="#m6950684c49" x="211.334152" y="321.48" style="fill: #0000ff; stroke: #0000ff"/>
     <use xlink:href="#m6950684c49" x="214.761671" y="341.64" style="fill: #0000ff; stroke: #0000ff"/>
     <use xlink:href="#m6950684c49" x="218.189189" y="351.72" style="fill: #0000ff; stroke: #0000ff"/>
     <use xlink:href="#m6950684c49" x="231.899263" y="361.8" style="fill: #0000ff; stroke: #0000ff"/>
     <use xlink:href="#m6950684c49" x="235.326781" y="331.56" style="fill: #0000ff; stroke: #0000ff"/>
     <use xlink:href="#m6950684c49" x="238.7543" y="361.8" style="fill: #0000ff; stroke: #0000ff"/>
     <use xlink:href="#m6950684c49" x="242.181818" y="341.64" style="fill: #0000ff; stroke: #0000ff"/>
     <use xlink:href="#m6950684c49" x="252.464373" y="354.24" style="fill: #0000ff; stroke: #0000ff"/>
     <use xlink:href="#m6950684c49" x="255.891892" y="349.2" style="fill: #0000ff; stroke: #0000ff"/>
     <use xlink:href="#m6950684c49" x="259.31941" y="341.64" style="fill: #0000ff; stroke: #0000ff"/>
     <use xlink:href="#m6950684c49" x="262.746929" y="364.32" style="fill: #0000ff; stroke: #0000ff"/>
     <use xlink:href="#m6950684c49" x="266.174447" y="339.12" style="fill: #0000ff; stroke: #0000ff"/>
     <use xlink:href="#m6950684c49" x="269.601966" y="349.2" style="fill: #0000ff; stroke: #0000ff"/>
     <use xlink:href="#m6950684c49" x="273.029484" y="334.08" style="fill: #0000ff; stroke: #0000ff"/>
     <use xlink:href="#m6950684c49" x="276.457002" y="336.6" style="fill: #0000ff; stroke: #0000ff"/>
     <use xlink:href="#m6950684c49" x="279.884521" y="351.72" style="fill: #0000ff; stroke: #0000ff"/>
     <use xlink:href="#m6950684c49" x="283.312039" y="349.2" style="fill: #0000ff; stroke: #0000ff"/>
     <use xlink:href="#m6950684c49" x="286.739558" y="351.72" style="fill: #0000ff; stroke: #0000ff"/>
     <use xlink:href="#m6950684c49" x="290.167076" y="324" style="fill: #0000ff; stroke: #0000ff"/>
     <use xlink:href="#m6950684c49" x="293.594595" y="334.08" style="fill: #0000ff; stroke: #0000ff"/>
     <use xlink:href="#m6950684c49" x="297.022113" y="366.84" style="fill: #0000ff; stroke: #0000ff"/>
     <use xlink:href="#m6950684c49" x="314.159705" y="318.96" style="fill: #0000ff; stroke: #0000ff"/>
     <use xlink:href="#m6950684c49" x="327.869779" y="245.88" style="fill: #0000ff; stroke: #0000ff"/>
     <use xlink:href="#m6950684c49" x="331.297297" y="351.72" style="fill: #0000ff; stroke: #0000ff"/>
     <use xlink:href="#m6950684c49" x="338.152334" y="361.8" style="fill: #0000ff; stroke: #0000ff"/>
     <use xlink:href="#m6950684c49" x="341.579853" y="361.8" style="fill: #0000ff; stroke: #0000ff"/>
     <use xlink:href="#m6950684c49" x="345.007371" y="313.92" style="fill: #0000ff; stroke: #0000ff"/>
     <use xlink:href="#m6950684c49" x="348.434889" y="225.72" style="fill: #0000ff; stroke: #0000ff"/>
     <use xlink:href="#m6950684c49" x="351.862408" y="321.48" style="fill: #0000ff; stroke: #0000ff"/>
     <use xlink:href="#m6950684c49" x="355.289926" y="351.72" style="fill: #0000ff; stroke: #0000ff"/>
     <use xlink:href="#m6950684c49" x="358.717445" y="261" style="fill: #0000ff; stroke: #0000ff"/>
     <use xlink:href="#m6950684c49" x="362.144963" y="351.72" style="fill: #0000ff; stroke: #0000ff"/>
     <use xlink:href="#m6950684c49" x="365.572482" y="329.04" style="fill: #0000ff; stroke: #0000ff"/>
     <use xlink:href="#m6950684c49" x="369" y="356.76" style="fill: #0000ff; stroke: #0000ff"/>
     <use xlink:href="#m6950684c49" x="372.427518" y="321.48" style="fill: #0000ff; stroke: #0000ff"/>
     <use xlink:href="#m6950684c49" x="375.855037" y="258.48" style="fill: #0000ff; stroke: #0000ff"/>
     <use xlink:href="#m6950684c49" x="379.282555" y="286.2" style="fill: #0000ff; stroke: #0000ff"/>
     <use xlink:href="#m6950684c49" x="382.710074" y="306.36" style="fill: #0000ff; stroke: #0000ff"/>
     <use xlink:href="#m6950684c49" x="386.137592" y="321.48" style="fill: #0000ff; stroke: #0000ff"/>
     <use xlink:href="#m6950684c49" x="389.565111" y="283.68" style="fill: #0000ff; stroke: #0000ff"/>
     <use xlink:href="#m6950684c49" x="392.992629" y="238.32" style="fill: #0000ff; stroke: #0000ff"/>
     <use xlink:href="#m6950684c49" x="396.420147" y="255.96" style="fill: #0000ff; stroke: #0000ff"/>
     <use xlink:href="#m6950684c49" x="399.847666" y="255.96" style="fill: #0000ff; stroke: #0000ff"/>
     <use xlink:href="#m6950684c49" x="403.275184" y="313.92" style="fill: #0000ff; stroke: #0000ff"/>
     <use xlink:href="#m6950684c49" x="406.702703" y="351.72" style="fill: #0000ff; stroke: #0000ff"/>
     <use xlink:href="#m6950684c49" x="410.130221" y="298.8" style="fill: #0000ff; stroke: #0000ff"/>
     <use xlink:href="#m6950684c49" x="416.985258" y="296.28" style="fill: #0000ff; stroke: #0000ff"/>
     <use xlink:href="#m6950684c49" x="420.412776" y="286.2" style="fill: #0000ff; stroke: #0000ff"/>
     <use xlink:href="#m6950684c49" x="423.840295" y="66.96" style="fill: #0000ff; stroke: #0000ff"/>
     <use xlink:href="#m6950684c49" x="430.695332" y="180.36" style="fill: #0000ff; stroke: #0000ff"/>
     <use xlink:href="#m6950684c49" x="434.12285" y="99.72" style="fill: #0000ff; stroke: #0000ff"/>
     <use xlink:href="#m6950684c49" x="437.550369" y="266.04" style="fill: #0000ff; stroke: #0000ff"/>
     <use xlink:href="#m6950684c49" x="440.977887" y="235.8" style="fill: #0000ff; stroke: #0000ff"/>
     <use xlink:href="#m6950684c49" x="444.405405" y="225.72" style="fill: #0000ff; stroke: #0000ff"/>
     <use xlink:href="#m6950684c49" x="447.832924" y="298.8" style="fill: #0000ff; stroke: #0000ff"/>
     <use xlink:href="#m6950684c49" x="451.260442" y="250.92" style="fill: #0000ff; stroke: #0000ff"/>
     <use xlink:href="#m6950684c49" x="454.687961" y="341.64" style="fill: #0000ff; stroke: #0000ff"/>
     <use xlink:href="#m6950684c49" x="458.115479" y="361.8" style="fill: #0000ff; stroke: #0000ff"/>
     <use xlink:href="#m6950684c49" x="461.542998" y="356.76" style="fill: #0000ff; stroke: #0000ff"/>
     <use xlink:href="#m6950684c49" x="464.970516" y="225.72" style="fill: #0000ff; stroke: #0000ff"/>
     <use xlink:href="#m6950684c49" x="468.398034" y="258.48" style="fill: #0000ff; stroke: #0000ff"/>
     <use xlink:href="#m6950684c49" x="471.825553" y="341.64" style="fill: #0000ff; stroke: #0000ff"/>
     <use xlink:href="#m6950684c49" x="475.253071" y="326.52" style="fill: #0000ff; stroke: #0000ff"/>
     <use xlink:href="#m6950684c49" x="478.68059" y="306.36" style="fill: #0000ff; stroke: #0000ff"/>
     <use xlink:href="#m6950684c49" x="482.108108" y="344.16" style="fill: #0000ff; stroke: #0000ff"/>
     <use xlink:href="#m6950684c49" x="495.818182" y="341.64" style="fill: #0000ff; stroke: #0000ff"/>
     <use xlink:href="#m6950684c49" x="499.2457" y="129.96" style="fill: #0000ff; stroke: #0000ff"/>
     <use xlink:href="#m6950684c49" x="509.528256" y="192.96" style="fill: #0000ff; stroke: #0000ff"/>
     <use xlink:href="#m6950684c49" x="512.955774" y="344.16" style="fill: #0000ff; stroke: #0000ff"/>
     <use xlink:href="#m6950684c49" x="516.383292" y="361.8" style="fill: #0000ff; stroke: #0000ff"/>
     <use xlink:href="#m6950684c49" x="519.810811" y="288.72" style="fill: #0000ff; stroke: #0000ff"/>
     <use xlink:href="#m6950684c49" x="523.238329" y="306.36" style="fill: #0000ff; stroke: #0000ff"/>
     <use xlink:href="#m6950684c49" x="526.665848" y="329.04" style="fill: #0000ff; stroke: #0000ff"/>
     <use xlink:href="#m6950684c49" x="533.520885" y="336.6" style="fill: #0000ff; stroke: #0000ff"/>
     <use xlink:href="#m6950684c49" x="540.375921" y="334.08" style="fill: #0000ff; stroke: #0000ff"/>
     <use xlink:href="#m6950684c49" x="543.80344" y="361.8" style="fill: #0000ff; stroke: #0000ff"/>
     <use xlink:href="#m6950684c49" x="547.230958" y="341.64" style="fill: #0000ff; stroke: #0000ff"/>
     <use xlink:href="#m6950684c49" x="550.658477" y="341.64" style="fill: #0000ff; stroke: #0000ff"/>
     <use xlink:href="#m6950684c49" x="557.513514" y="321.48" style="fill: #0000ff; stroke: #0000ff"/>
     <use xlink:href="#m6950684c49" x="560.941032" y="361.8" style="fill: #0000ff; stroke: #0000ff"/>
     <use xlink:href="#m6950684c49" x="564.36855" y="339.12" style="fill: #0000ff; stroke: #0000ff"/>
     <use xlink:href="#m6950684c49" x="567.796069" y="344.16" style="fill: #0000ff; stroke: #0000ff"/>
     <use xlink:href="#m6950684c49" x="571.223587" y="356.76" style="fill: #0000ff; stroke: #0000ff"/>
     <use xlink:href="#m6950684c49" x="578.078624" y="361.8" style="fill: #0000ff; stroke: #0000ff"/>
     <use xlink:href="#m6950684c49" x="588.361179" y="366.84" style="fill: #0000ff; stroke: #0000ff"/>
     <use xlink:href="#m6950684c49" x="591.788698" y="356.76" style="fill: #0000ff; stroke: #0000ff"/>
     <use xlink:href="#m6950684c49" x="598.643735" y="341.64" style="fill: #0000ff; stroke: #0000ff"/>
     <use xlink:href="#m6950684c49" x="608.92629" y="366.84" style="fill: #0000ff; stroke: #0000ff"/>
     <use xlink:href="#m6950684c49" x="619.208845" y="369.36" style="fill: #0000ff; stroke: #0000ff"/>
     <use xlink:href="#m6950684c49" x="622.636364" y="366.84" style="fill: #0000ff; stroke: #0000ff"/>
    </g>
   </g>
   <g id="patch_3">
    <path d="M 90 384.48 
L 90 51.84 
" style="fill: none; stroke: #000000; stroke-width: 0.8; stroke-linejoin: miter; stroke-linecap: square"/>
   </g>
   <g id="patch_4">
    <path d="M 648 384.48 
L 648 51.84 
" style="fill: none; stroke: #000000; stroke-width: 0.8; stroke-linejoin: miter; stroke-linecap: square"/>
   </g>
   <g id="patch_5">
    <path d="M 90 384.48 
L 648 384.48 
" style="fill: none; stroke: #000000; stroke-width: 0.8; stroke-linejoin: miter; stroke-linecap: square"/>
   </g>
   <g id="patch_6">
    <path d="M 90 51.84 
L 648 51.84 
" style="fill: none; stroke: #000000; stroke-width: 0.8; stroke-linejoin: miter; stroke-linecap: square"/>
   </g>
  </g>
  <g id="axes_2">
   <g id="matplotlib.axis_3">
    <g id="ytick_8">
     <g id="line2d_17">
      <defs>
       <path id="m5a25c38fa1" d="M 0 0 
L 3.5 0 
" style="stroke: #000000; stroke-width: 0.8"/>
      </defs>
      <g>
       <use xlink:href="#m5a25c38fa1" x="648" y="369.938578" style="stroke: #000000; stroke-width: 0.8"/>
      </g>
     </g>
     <g id="text_18">
      <!-- 0 -->
      <g style="fill: #008000" transform="translate(655 373.376078) scale(0.1 -0.1)">
       <use xlink:href="#SimHei-30"/>
      </g>
     </g>
    </g>
    <g id="ytick_9">
     <g id="line2d_18">
      <g>
       <use xlink:href="#m5a25c38fa1" x="648" y="332.432854" style="stroke: #000000; stroke-width: 0.8"/>
      </g>
     </g>
     <g id="text_19">
      <!-- 20000 -->
      <g style="fill: #008000" transform="translate(655 335.870354) scale(0.1 -0.1)">
       <use xlink:href="#SimHei-32"/>
       <use xlink:href="#SimHei-30" x="50"/>
       <use xlink:href="#SimHei-30" x="100"/>
       <use xlink:href="#SimHei-30" x="150"/>
       <use xlink:href="#SimHei-30" x="200"/>
      </g>
     </g>
    </g>
    <g id="ytick_10">
     <g id="line2d_19">
      <g>
       <use xlink:href="#m5a25c38fa1" x="648" y="294.927131" style="stroke: #000000; stroke-width: 0.8"/>
      </g>
     </g>
     <g id="text_20">
      <!-- 40000 -->
      <g style="fill: #008000" transform="translate(655 298.364631) scale(0.1 -0.1)">
       <use xlink:href="#SimHei-34"/>
       <use xlink:href="#SimHei-30" x="50"/>
       <use xlink:href="#SimHei-30" x="100"/>
       <use xlink:href="#SimHei-30" x="150"/>
       <use xlink:href="#SimHei-30" x="200"/>
      </g>
     </g>
    </g>
    <g id="ytick_11">
     <g id="line2d_20">
      <g>
       <use xlink:href="#m5a25c38fa1" x="648" y="257.421407" style="stroke: #000000; stroke-width: 0.8"/>
      </g>
     </g>
     <g id="text_21">
      <!-- 60000 -->
      <g style="fill: #008000" transform="translate(655 260.858907) scale(0.1 -0.1)">
       <use xlink:href="#SimHei-36"/>
       <use xlink:href="#SimHei-30" x="50"/>
       <use xlink:href="#SimHei-30" x="100"/>
       <use xlink:href="#SimHei-30" x="150"/>
       <use xlink:href="#SimHei-30" x="200"/>
      </g>
     </g>
    </g>
    <g id="ytick_12">
     <g id="line2d_21">
      <g>
       <use xlink:href="#m5a25c38fa1" x="648" y="219.915684" style="stroke: #000000; stroke-width: 0.8"/>
      </g>
     </g>
     <g id="text_22">
      <!-- 80000 -->
      <g style="fill: #008000" transform="translate(655 223.353184) scale(0.1 -0.1)">
       <use xlink:href="#SimHei-38"/>
       <use xlink:href="#SimHei-30" x="50"/>
       <use xlink:href="#SimHei-30" x="100"/>
       <use xlink:href="#SimHei-30" x="150"/>
       <use xlink:href="#SimHei-30" x="200"/>
      </g>
     </g>
    </g>
    <g id="ytick_13">
     <g id="line2d_22">
      <g>
       <use xlink:href="#m5a25c38fa1" x="648" y="182.40996" style="stroke: #000000; stroke-width: 0.8"/>
      </g>
     </g>
     <g id="text_23">
      <!-- 100000 -->
      <g style="fill: #008000" transform="translate(655 185.84746) scale(0.1 -0.1)">
       <use xlink:href="#SimHei-31"/>
       <use xlink:href="#SimHei-30" x="50"/>
       <use xlink:href="#SimHei-30" x="100"/>
       <use xlink:href="#SimHei-30" x="150"/>
       <use xlink:href="#SimHei-30" x="200"/>
       <use xlink:href="#SimHei-30" x="250"/>
      </g>
     </g>
    </g>
    <g id="ytick_14">
     <g id="line2d_23">
      <g>
       <use xlink:href="#m5a25c38fa1" x="648" y="144.904237" style="stroke: #000000; stroke-width: 0.8"/>
      </g>
     </g>
     <g id="text_24">
      <!-- 120000 -->
      <g style="fill: #008000" transform="translate(655 148.341737) scale(0.1 -0.1)">
       <use xlink:href="#SimHei-31"/>
       <use xlink:href="#SimHei-32" x="50"/>
       <use xlink:href="#SimHei-30" x="100"/>
       <use xlink:href="#SimHei-30" x="150"/>
       <use xlink:href="#SimHei-30" x="200"/>
       <use xlink:href="#SimHei-30" x="250"/>
      </g>
     </g>
    </g>
    <g id="ytick_15">
     <g id="line2d_24">
      <g>
       <use xlink:href="#m5a25c38fa1" x="648" y="107.398513" style="stroke: #000000; stroke-width: 0.8"/>
      </g>
     </g>
     <g id="text_25">
      <!-- 140000 -->
      <g style="fill: #008000" transform="translate(655 110.836013) scale(0.1 -0.1)">
       <use xlink:href="#SimHei-31"/>
       <use xlink:href="#SimHei-34" x="50"/>
       <use xlink:href="#SimHei-30" x="100"/>
       <use xlink:href="#SimHei-30" x="150"/>
       <use xlink:href="#SimHei-30" x="200"/>
       <use xlink:href="#SimHei-30" x="250"/>
      </g>
     </g>
    </g>
    <g id="ytick_16">
     <g id="line2d_25">
      <g>
       <use xlink:href="#m5a25c38fa1" x="648" y="69.89279" style="stroke: #000000; stroke-width: 0.8"/>
      </g>
     </g>
     <g id="text_26">
      <!-- 160000 -->
      <g style="fill: #008000" transform="translate(655 73.33029) scale(0.1 -0.1)">
       <use xlink:href="#SimHei-31"/>
       <use xlink:href="#SimHei-36" x="50"/>
       <use xlink:href="#SimHei-30" x="100"/>
       <use xlink:href="#SimHei-30" x="150"/>
       <use xlink:href="#SimHei-30" x="200"/>
       <use xlink:href="#SimHei-30" x="250"/>
      </g>
     </g>
    </g>
    <g id="text_27">
     <!-- 收益 -->
     <g style="fill: #008000" transform="translate(696.929688 228.16) rotate(-90) scale(0.1 -0.1)">
      <defs>
       <path id="SimHei-6536" d="M 4250 5050 
Q 4125 4850 3750 4050 
L 5150 4050 
Q 5675 4050 6125 4075 
L 6125 3600 
Q 5675 3625 5300 3625 
Q 5225 2625 5025 1975 
Q 4825 1325 4575 900 
Q 4900 500 5287 275 
Q 5675 50 6200 -75 
Q 5900 -275 5800 -550 
Q 5300 -350 4950 -100 
Q 4600 150 4275 525 
Q 3800 0 2775 -625 
Q 2650 -425 2300 -225 
Q 3275 150 3950 925 
Q 3775 1325 3612 1787 
Q 3450 2250 3250 3000 
Q 2975 2450 2825 2275 
Q 2650 2400 2425 2525 
Q 2775 3025 3137 3837 
Q 3500 4650 3625 5250 
Q 3925 5125 4250 5050 
z
M 975 4275 
Q 925 3950 925 3450 
L 925 1575 
L 1775 1725 
L 1775 4425 
Q 1775 4775 1750 5150 
L 2250 5150 
Q 2225 4850 2225 4450 
L 2225 300 
Q 2225 -50 2250 -550 
L 1750 -550 
Q 1775 -25 1775 350 
L 1775 1350 
Q 625 1050 500 925 
Q 375 1125 225 1350 
Q 450 1475 450 1800 
L 450 3575 
Q 450 3925 425 4275 
L 975 4275 
z
M 3725 3150 
Q 3800 2700 3962 2212 
Q 4125 1725 4300 1375 
Q 4725 2150 4825 3625 
L 3575 3625 
Q 3400 3275 3300 3100 
L 3725 3150 
z
" transform="scale(0.015625)"/>
       <path id="SimHei-76ca" d="M 2825 2925 
Q 2425 2775 2012 2487 
Q 1600 2200 1225 1975 
L 5275 1975 
Q 5250 1575 5250 1000 
L 5250 -50 
Q 5800 -50 6175 -25 
L 6175 -525 
Q 5725 -500 5250 -500 
L 1325 -500 
Q 700 -500 250 -525 
L 250 -25 
Q 600 -50 1175 -50 
L 1175 1050 
Q 1175 1575 1150 1925 
Q 1000 1800 800 1700 
Q 650 1950 425 2125 
Q 800 2275 1312 2600 
Q 1825 2925 2325 3400 
Q 2550 3150 2825 2925 
z
M 4725 5050 
Q 4575 4900 4462 4637 
Q 4350 4375 4175 4075 
L 4625 4075 
Q 5350 4075 5900 4100 
L 5900 3625 
Q 5350 3650 4625 3650 
L 1975 3650 
Q 1350 3650 550 3625 
L 550 4100 
Q 1175 4075 1975 4075 
L 3675 4075 
Q 3775 4300 3887 4625 
Q 4000 4950 4125 5250 
L 4725 5050 
z
M 3600 -50 
L 3600 1575 
L 2800 1575 
L 2800 -50 
L 3600 -50 
z
M 4800 -50 
L 4800 1575 
L 4025 1575 
L 4025 -50 
L 4800 -50 
z
M 2375 -50 
L 2375 1575 
L 1625 1575 
L 1625 -50 
L 2375 -50 
z
M 3900 3350 
Q 4375 3150 4900 2925 
Q 5425 2700 5900 2500 
Q 5700 2300 5550 2000 
Q 5025 2300 4512 2537 
Q 4000 2775 3625 2900 
Q 3750 3075 3900 3350 
z
M 2150 5250 
Q 2375 4925 2650 4350 
Q 2425 4275 2150 4125 
Q 1950 4650 1675 5025 
Q 1875 5100 2150 5250 
z
" transform="scale(0.015625)"/>
      </defs>
      <use xlink:href="#SimHei-6536"/>
      <use xlink:href="#SimHei-76ca" x="100"/>
     </g>
    </g>
   </g>
   <g id="line2d_26">
    <path d="M 115.363636 289.267077 
L 118.791155 317.561865 
L 122.218673 367.278252 
L 125.646192 359.529352 
L 139.356265 263.525535 
L 146.211302 359.344348 
L 153.066339 364.617926 
L 156.493857 348.655969 
L 159.921376 367.303662 
L 166.776413 348.859252 
L 173.63145 348.859252 
L 183.914005 317.240263 
L 187.341523 351.494167 
L 194.19656 351.494167 
L 201.051597 359.398915 
L 207.906634 348.859252 
L 211.334152 317.240263 
L 214.761671 338.325428 
L 218.189189 348.87093 
L 231.899263 359.404754 
L 235.326781 327.803283 
L 238.7543 359.404754 
L 242.181818 338.321491 
L 252.464373 351.415979 
L 255.891892 346.214051 
L 259.31941 338.373065 
L 262.746929 362.063997 
L 266.174447 335.681015 
L 269.601966 346.225249 
L 273.029484 330.476087 
L 276.457002 333.056155 
L 279.884521 348.939695 
L 283.312039 346.214051 
L 286.739558 348.85011 
L 290.167076 319.853466 
L 293.594595 365.599244 
L 297.022113 369.36 
L 314.159705 314.581349 
L 327.869779 238.135652 
L 331.297297 348.85011 
L 338.152334 368.781422 
L 341.579853 359.394344 
L 345.007371 318.69631 
L 348.434889 217.047184 
L 351.862408 317.217407 
L 355.289926 358.237188 
L 358.717445 253.952003 
L 362.144963 348.85011 
L 365.572482 325.260591 
L 369 354.729132 
L 372.427518 317.824313 
L 375.855037 256.005589 
L 379.282555 282.719229 
L 382.710074 303.531584 
L 386.137592 318.887321 
L 389.565111 279.34791 
L 392.992629 236.658213 
L 396.420147 252.322402 
L 399.847666 256.298512 
L 403.275184 311.831767 
L 406.702703 349.858418 
L 410.130221 297.214919 
L 416.985258 294.624349 
L 420.412776 284.769906 
L 423.840295 66.96 
L 430.695332 185.501615 
L 434.12285 105.677045 
L 437.550369 265.293834 
L 440.977887 235.325478 
L 444.405405 225.310701 
L 447.832924 297.614427 
L 451.260442 250.321881 
L 454.687961 340.000767 
L 458.115479 359.959308 
L 461.542998 354.977414 
L 464.970516 225.202131 
L 468.398034 257.592999 
L 471.825553 340.870892 
L 475.253071 324.803651 
L 478.68059 306.118151 
L 482.108108 343.130649 
L 495.818182 342.740913 
L 499.2457 151.516178 
L 509.528256 212.88053 
L 512.955774 345.463633 
L 516.383292 362.975563 
L 519.810811 304.759666 
L 523.238329 317.515348 
L 526.665848 332.489366 
L 533.520885 345.570602 
L 540.375921 342.233584 
L 543.80344 362.064884 
L 547.230958 350.422728 
L 550.658477 350.422728 
L 557.513514 324.805113 
L 560.941032 360.729778 
L 564.36855 338.050032 
L 567.796069 343.167007 
L 571.223587 356.312535 
L 578.078624 360.249382 
L 588.361179 365.09398 
L 591.788698 355.404784 
L 598.643735 340.511256 
L 608.92629 365.034024 
L 619.208845 367.484708 
L 622.636364 365.063994 
" clip-path="url(#paa74cb511c)" style="fill: none; stroke: #008000; stroke-width: 1.5; stroke-linecap: square"/>
    <defs>
     <path id="me6807fb084" d="M 0 3 
C 0.795609 3 1.55874 2.683901 2.12132 2.12132 
C 2.683901 1.55874 3 0.795609 3 0 
C 3 -0.795609 2.683901 -1.55874 2.12132 -2.12132 
C 1.55874 -2.683901 0.795609 -3 0 -3 
C -0.795609 -3 -1.55874 -2.683901 -2.12132 -2.12132 
C -2.683901 -1.55874 -3 -0.795609 -3 0 
C -3 0.795609 -2.683901 1.55874 -2.12132 2.12132 
C -1.55874 2.683901 -0.795609 3 0 3 
z
" style="stroke: #008000"/>
    </defs>
    <g clip-path="url(#paa74cb511c)">
     <use xlink:href="#me6807fb084" x="115.363636" y="289.267077" style="fill: #008000; stroke: #008000"/>
     <use xlink:href="#me6807fb084" x="118.791155" y="317.561865" style="fill: #008000; stroke: #008000"/>
     <use xlink:href="#me6807fb084" x="122.218673" y="367.278252" style="fill: #008000; stroke: #008000"/>
     <use xlink:href="#me6807fb084" x="125.646192" y="359.529352" style="fill: #008000; stroke: #008000"/>
     <use xlink:href="#me6807fb084" x="139.356265" y="263.525535" style="fill: #008000; stroke: #008000"/>
     <use xlink:href="#me6807fb084" x="146.211302" y="359.344348" style="fill: #008000; stroke: #008000"/>
     <use xlink:href="#me6807fb084" x="153.066339" y="364.617926" style="fill: #008000; stroke: #008000"/>
     <use xlink:href="#me6807fb084" x="156.493857" y="348.655969" style="fill: #008000; stroke: #008000"/>
     <use xlink:href="#me6807fb084" x="159.921376" y="367.303662" style="fill: #008000; stroke: #008000"/>
     <use xlink:href="#me6807fb084" x="166.776413" y="348.859252" style="fill: #008000; stroke: #008000"/>
     <use xlink:href="#me6807fb084" x="173.63145" y="348.859252" style="fill: #008000; stroke: #008000"/>
     <use xlink:href="#me6807fb084" x="183.914005" y="317.240263" style="fill: #008000; stroke: #008000"/>
     <use xlink:href="#me6807fb084" x="187.341523" y="351.494167" style="fill: #008000; stroke: #008000"/>
     <use xlink:href="#me6807fb084" x="194.19656" y="351.494167" style="fill: #008000; stroke: #008000"/>
     <use xlink:href="#me6807fb084" x="201.051597" y="359.398915" style="fill: #008000; stroke: #008000"/>
     <use xlink:href="#me6807fb084" x="207.906634" y="348.859252" style="fill: #008000; stroke: #008000"/>
     <use xlink:href="#me6807fb084" x="211.334152" y="317.240263" style="fill: #008000; stroke: #008000"/>
     <use xlink:href="#me6807fb084" x="214.761671" y="338.325428" style="fill: #008000; stroke: #008000"/>
     <use xlink:href="#me6807fb084" x="218.189189" y="348.87093" style="fill: #008000; stroke: #008000"/>
     <use xlink:href="#me6807fb084" x="231.899263" y="359.404754" style="fill: #008000; stroke: #008000"/>
     <use xlink:href="#me6807fb084" x="235.326781" y="327.803283" style="fill: #008000; stroke: #008000"/>
     <use xlink:href="#me6807fb084" x="238.7543" y="359.404754" style="fill: #008000; stroke: #008000"/>
     <use xlink:href="#me6807fb084" x="242.181818" y="338.321491" style="fill: #008000; stroke: #008000"/>
     <use xlink:href="#me6807fb084" x="252.464373" y="351.415979" style="fill: #008000; stroke: #008000"/>
     <use xlink:href="#me6807fb084" x="255.891892" y="346.214051" style="fill: #008000; stroke: #008000"/>
     <use xlink:href="#me6807fb084" x="259.31941" y="338.373065" style="fill: #008000; stroke: #008000"/>
     <use xlink:href="#me6807fb084" x="262.746929" y="362.063997" style="fill: #008000; stroke: #008000"/>
     <use xlink:href="#me6807fb084" x="266.174447" y="335.681015" style="fill: #008000; stroke: #008000"/>
     <use xlink:href="#me6807fb084" x="269.601966" y="346.225249" style="fill: #008000; stroke: #008000"/>
     <use xlink:href="#me6807fb084" x="273.029484" y="330.476087" style="fill: #008000; stroke: #008000"/>
     <use xlink:href="#me6807fb084" x="276.457002" y="333.056155" style="fill: #008000; stroke: #008000"/>
     <use xlink:href="#me6807fb084" x="279.884521" y="348.939695" style="fill: #008000; stroke: #008000"/>
     <use xlink:href="#me6807fb084" x="283.312039" y="346.214051" style="fill: #008000; stroke: #008000"/>
     <use xlink:href="#me6807fb084" x="286.739558" y="348.85011" style="fill: #008000; stroke: #008000"/>
     <use xlink:href="#me6807fb084" x="290.167076" y="319.853466" style="fill: #008000; stroke: #008000"/>
     <use xlink:href="#me6807fb084" x="293.594595" y="365.599244" style="fill: #008000; stroke: #008000"/>
     <use xlink:href="#me6807fb084" x="297.022113" y="369.36" style="fill: #008000; stroke: #008000"/>
     <use xlink:href="#me6807fb084" x="314.159705" y="314.581349" style="fill: #008000; stroke: #008000"/>
     <use xlink:href="#me6807fb084" x="327.869779" y="238.135652" style="fill: #008000; stroke: #008000"/>
     <use xlink:href="#me6807fb084" x="331.297297" y="348.85011" style="fill: #008000; stroke: #008000"/>
     <use xlink:href="#me6807fb084" x="338.152334" y="368.781422" style="fill: #008000; stroke: #008000"/>
     <use xlink:href="#me6807fb084" x="341.579853" y="359.394344" style="fill: #008000; stroke: #008000"/>
     <use xlink:href="#me6807fb084" x="345.007371" y="318.69631" style="fill: #008000; stroke: #008000"/>
     <use xlink:href="#me6807fb084" x="348.434889" y="217.047184" style="fill: #008000; stroke: #008000"/>
     <use xlink:href="#me6807fb084" x="351.862408" y="317.217407" style="fill: #008000; stroke: #008000"/>
     <use xlink:href="#me6807fb084" x="355.289926" y="358.237188" style="fill: #008000; stroke: #008000"/>
     <use xlink:href="#me6807fb084" x="358.717445" y="253.952003" style="fill: #008000; stroke: #008000"/>
     <use xlink:href="#me6807fb084" x="362.144963" y="348.85011" style="fill: #008000; stroke: #008000"/>
     <use xlink:href="#me6807fb084" x="365.572482" y="325.260591" style="fill: #008000; stroke: #008000"/>
     <use xlink:href="#me6807fb084" x="369" y="354.729132" style="fill: #008000; stroke: #008000"/>
     <use xlink:href="#me6807fb084" x="372.427518" y="317.824313" style="fill: #008000; stroke: #008000"/>
     <use xlink:href="#me6807fb084" x="375.855037" y="256.005589" style="fill: #008000; stroke: #008000"/>
     <use xlink:href="#me6807fb084" x="379.282555" y="282.719229" style="fill: #008000; stroke: #008000"/>
     <use xlink:href="#me6807fb084" x="382.710074" y="303.531584" style="fill: #008000; stroke: #008000"/>
     <use xlink:href="#me6807fb084" x="386.137592" y="318.887321" style="fill: #008000; stroke: #008000"/>
     <use xlink:href="#me6807fb084" x="389.565111" y="279.34791" style="fill: #008000; stroke: #008000"/>
     <use xlink:href="#me6807fb084" x="392.992629" y="236.658213" style="fill: #008000; stroke: #008000"/>
     <use xlink:href="#me6807fb084" x="396.420147" y="252.322402" style="fill: #008000; stroke: #008000"/>
     <use xlink:href="#me6807fb084" x="399.847666" y="256.298512" style="fill: #008000; stroke: #008000"/>
     <use xlink:href="#me6807fb084" x="403.275184" y="311.831767" style="fill: #008000; stroke: #008000"/>
     <use xlink:href="#me6807fb084" x="406.702703" y="349.858418" style="fill: #008000; stroke: #008000"/>
     <use xlink:href="#me6807fb084" x="410.130221" y="297.214919" style="fill: #008000; stroke: #008000"/>
     <use xlink:href="#me6807fb084" x="416.985258" y="294.624349" style="fill: #008000; stroke: #008000"/>
     <use xlink:href="#me6807fb084" x="420.412776" y="284.769906" style="fill: #008000; stroke: #008000"/>
     <use xlink:href="#me6807fb084" x="423.840295" y="66.96" style="fill: #008000; stroke: #008000"/>
     <use xlink:href="#me6807fb084" x="430.695332" y="185.501615" style="fill: #008000; stroke: #008000"/>
     <use xlink:href="#me6807fb084" x="434.12285" y="105.677045" style="fill: #008000; stroke: #008000"/>
     <use xlink:href="#me6807fb084" x="437.550369" y="265.293834" style="fill: #008000; stroke: #008000"/>
     <use xlink:href="#me6807fb084" x="440.977887" y="235.325478" style="fill: #008000; stroke: #008000"/>
     <use xlink:href="#me6807fb084" x="444.405405" y="225.310701" style="fill: #008000; stroke: #008000"/>
     <use xlink:href="#me6807fb084" x="447.832924" y="297.614427" style="fill: #008000; stroke: #008000"/>
     <use xlink:href="#me6807fb084" x="451.260442" y="250.321881" style="fill: #008000; stroke: #008000"/>
     <use xlink:href="#me6807fb084" x="454.687961" y="340.000767" style="fill: #008000; stroke: #008000"/>
     <use xlink:href="#me6807fb084" x="458.115479" y="359.959308" style="fill: #008000; stroke: #008000"/>
     <use xlink:href="#me6807fb084" x="461.542998" y="354.977414" style="fill: #008000; stroke: #008000"/>
     <use xlink:href="#me6807fb084" x="464.970516" y="225.202131" style="fill: #008000; stroke: #008000"/>
     <use xlink:href="#me6807fb084" x="468.398034" y="257.592999" style="fill: #008000; stroke: #008000"/>
     <use xlink:href="#me6807fb084" x="471.825553" y="340.870892" style="fill: #008000; stroke: #008000"/>
     <use xlink:href="#me6807fb084" x="475.253071" y="324.803651" style="fill: #008000; stroke: #008000"/>
     <use xlink:href="#me6807fb084" x="478.68059" y="306.118151" style="fill: #008000; stroke: #008000"/>
     <use xlink:href="#me6807fb084" x="482.108108" y="343.130649" style="fill: #008000; stroke: #008000"/>
     <use xlink:href="#me6807fb084" x="495.818182" y="342.740913" style="fill: #008000; stroke: #008000"/>
     <use xlink:href="#me6807fb084" x="499.2457" y="151.516178" style="fill: #008000; stroke: #008000"/>
     <use xlink:href="#me6807fb084" x="509.528256" y="212.88053" style="fill: #008000; stroke: #008000"/>
     <use xlink:href="#me6807fb084" x="512.955774" y="345.463633" style="fill: #008000; stroke: #008000"/>
     <use xlink:href="#me6807fb084" x="516.383292" y="362.975563" style="fill: #008000; stroke: #008000"/>
     <use xlink:href="#me6807fb084" x="519.810811" y="304.759666" style="fill: #008000; stroke: #008000"/>
     <use xlink:href="#me6807fb084" x="523.238329" y="317.515348" style="fill: #008000; stroke: #008000"/>
     <use xlink:href="#me6807fb084" x="526.665848" y="332.489366" style="fill: #008000; stroke: #008000"/>
     <use xlink:href="#me6807fb084" x="533.520885" y="345.570602" style="fill: #008000; stroke: #008000"/>
     <use xlink:href="#me6807fb084" x="540.375921" y="342.233584" style="fill: #008000; stroke: #008000"/>
     <use xlink:href="#me6807fb084" x="543.80344" y="362.064884" style="fill: #008000; stroke: #008000"/>
     <use xlink:href="#me6807fb084" x="547.230958" y="350.422728" style="fill: #008000; stroke: #008000"/>
     <use xlink:href="#me6807fb084" x="550.658477" y="350.422728" style="fill: #008000; stroke: #008000"/>
     <use xlink:href="#me6807fb084" x="557.513514" y="324.805113" style="fill: #008000; stroke: #008000"/>
     <use xlink:href="#me6807fb084" x="560.941032" y="360.729778" style="fill: #008000; stroke: #008000"/>
     <use xlink:href="#me6807fb084" x="564.36855" y="338.050032" style="fill: #008000; stroke: #008000"/>
     <use xlink:href="#me6807fb084" x="567.796069" y="343.167007" style="fill: #008000; stroke: #008000"/>
     <use xlink:href="#me6807fb084" x="571.223587" y="356.312535" style="fill: #008000; stroke: #008000"/>
     <use xlink:href="#me6807fb084" x="578.078624" y="360.249382" style="fill: #008000; stroke: #008000"/>
     <use xlink:href="#me6807fb084" x="588.361179" y="365.09398" style="fill: #008000; stroke: #008000"/>
     <use xlink:href="#me6807fb084" x="591.788698" y="355.404784" style="fill: #008000; stroke: #008000"/>
     <use xlink:href="#me6807fb084" x="598.643735" y="340.511256" style="fill: #008000; stroke: #008000"/>
     <use xlink:href="#me6807fb084" x="608.92629" y="365.034024" style="fill: #008000; stroke: #008000"/>
     <use xlink:href="#me6807fb084" x="619.208845" y="367.484708" style="fill: #008000; stroke: #008000"/>
     <use xlink:href="#me6807fb084" x="622.636364" y="365.063994" style="fill: #008000; stroke: #008000"/>
    </g>
   </g>
   <g id="patch_7">
    <path d="M 90 384.48 
L 90 51.84 
" style="fill: none; stroke: #000000; stroke-width: 0.8; stroke-linejoin: miter; stroke-linecap: square"/>
   </g>
   <g id="patch_8">
    <path d="M 648 384.48 
L 648 51.84 
" style="fill: none; stroke: #000000; stroke-width: 0.8; stroke-linejoin: miter; stroke-linecap: square"/>
   </g>
   <g id="patch_9">
    <path d="M 90 384.48 
L 648 384.48 
" style="fill: none; stroke: #000000; stroke-width: 0.8; stroke-linejoin: miter; stroke-linecap: square"/>
   </g>
   <g id="patch_10">
    <path d="M 90 51.84 
L 648 51.84 
" style="fill: none; stroke: #000000; stroke-width: 0.8; stroke-linejoin: miter; stroke-linecap: square"/>
   </g>
  </g>
  <g id="axes_3">
   <g id="matplotlib.axis_4">
    <g id="ytick_17">
     <g id="line2d_27">
      <g>
       <use xlink:href="#m5a25c38fa1" x="708" y="358.421187" style="stroke: #000000; stroke-width: 0.8"/>
      </g>
     </g>
     <g id="text_28">
      <!-- 200 -->
      <g style="fill: #ff0000" transform="translate(715 361.858687) scale(0.1 -0.1)">
       <use xlink:href="#SimHei-32"/>
       <use xlink:href="#SimHei-30" x="50"/>
       <use xlink:href="#SimHei-30" x="100"/>
      </g>
     </g>
    </g>
    <g id="ytick_18">
     <g id="line2d_28">
      <g>
       <use xlink:href="#m5a25c38fa1" x="708" y="310.586715" style="stroke: #000000; stroke-width: 0.8"/>
      </g>
     </g>
     <g id="text_29">
      <!-- 400 -->
      <g style="fill: #ff0000" transform="translate(715 314.024215) scale(0.1 -0.1)">
       <use xlink:href="#SimHei-34"/>
       <use xlink:href="#SimHei-30" x="50"/>
       <use xlink:href="#SimHei-30" x="100"/>
      </g>
     </g>
    </g>
    <g id="ytick_19">
     <g id="line2d_29">
      <g>
       <use xlink:href="#m5a25c38fa1" x="708" y="262.752244" style="stroke: #000000; stroke-width: 0.8"/>
      </g>
     </g>
     <g id="text_30">
      <!-- 600 -->
      <g style="fill: #ff0000" transform="translate(715 266.189744) scale(0.1 -0.1)">
       <use xlink:href="#SimHei-36"/>
       <use xlink:href="#SimHei-30" x="50"/>
       <use xlink:href="#SimHei-30" x="100"/>
      </g>
     </g>
    </g>
    <g id="ytick_20">
     <g id="line2d_30">
      <g>
       <use xlink:href="#m5a25c38fa1" x="708" y="214.917773" style="stroke: #000000; stroke-width: 0.8"/>
      </g>
     </g>
     <g id="text_31">
      <!-- 800 -->
      <g style="fill: #ff0000" transform="translate(715 218.355273) scale(0.1 -0.1)">
       <use xlink:href="#SimHei-38"/>
       <use xlink:href="#SimHei-30" x="50"/>
       <use xlink:href="#SimHei-30" x="100"/>
      </g>
     </g>
    </g>
    <g id="ytick_21">
     <g id="line2d_31">
      <g>
       <use xlink:href="#m5a25c38fa1" x="708" y="167.083301" style="stroke: #000000; stroke-width: 0.8"/>
      </g>
     </g>
     <g id="text_32">
      <!-- 1000 -->
      <g style="fill: #ff0000" transform="translate(715 170.520801) scale(0.1 -0.1)">
       <use xlink:href="#SimHei-31"/>
       <use xlink:href="#SimHei-30" x="50"/>
       <use xlink:href="#SimHei-30" x="100"/>
       <use xlink:href="#SimHei-30" x="150"/>
      </g>
     </g>
    </g>
    <g id="ytick_22">
     <g id="line2d_32">
      <g>
       <use xlink:href="#m5a25c38fa1" x="708" y="119.24883" style="stroke: #000000; stroke-width: 0.8"/>
      </g>
     </g>
     <g id="text_33">
      <!-- 1200 -->
      <g style="fill: #ff0000" transform="translate(715 122.68633) scale(0.1 -0.1)">
       <use xlink:href="#SimHei-31"/>
       <use xlink:href="#SimHei-32" x="50"/>
       <use xlink:href="#SimHei-30" x="100"/>
       <use xlink:href="#SimHei-30" x="150"/>
      </g>
     </g>
    </g>
    <g id="ytick_23">
     <g id="line2d_33">
      <g>
       <use xlink:href="#m5a25c38fa1" x="708" y="71.414359" style="stroke: #000000; stroke-width: 0.8"/>
      </g>
     </g>
     <g id="text_34">
      <!-- 1400 -->
      <g style="fill: #ff0000" transform="translate(715 74.851859) scale(0.1 -0.1)">
       <use xlink:href="#SimHei-31"/>
       <use xlink:href="#SimHei-34" x="50"/>
       <use xlink:href="#SimHei-30" x="100"/>
       <use xlink:href="#SimHei-30" x="150"/>
      </g>
     </g>
    </g>
    <g id="text_35">
     <!-- 平均单价 -->
     <g style="fill: #ff0000" transform="translate(747.007812 238.16) rotate(-90) scale(0.1 -0.1)">
      <defs>
       <path id="SimHei-5e73" d="M 4525 4825 
Q 4900 4825 5450 4850 
L 5450 4375 
Q 4925 4400 4525 4400 
L 3475 4400 
L 3475 2025 
L 5000 2025 
Q 5550 2025 6025 2050 
L 6025 1575 
Q 5550 1600 5000 1600 
L 3475 1600 
L 3475 450 
Q 3475 -100 3500 -600 
L 2925 -600 
Q 2950 -100 2950 450 
L 2950 1600 
L 1125 1600 
Q 775 1600 375 1575 
L 375 2050 
Q 775 2025 1175 2025 
L 2950 2025 
L 2950 4400 
L 1775 4400 
Q 1400 4400 875 4375 
L 875 4850 
Q 1400 4825 1750 4825 
L 4525 4825 
z
M 3925 2600 
Q 4500 3300 4900 4125 
Q 5150 3950 5400 3825 
Q 4775 2850 4350 2300 
Q 4150 2475 3925 2600 
z
M 1975 2350 
Q 1600 3100 1050 3725 
Q 1250 3875 1450 4050 
Q 2075 3300 2450 2725 
Q 2150 2500 1975 2350 
z
" transform="scale(0.015625)"/>
       <path id="SimHei-5747" d="M 5775 275 
Q 5775 -325 5362 -450 
Q 4950 -575 4425 -600 
Q 4375 -275 4250 25 
Q 4950 -25 5125 62 
Q 5300 150 5300 500 
L 5375 3700 
L 3550 3700 
Q 3425 3375 3262 3037 
Q 3100 2700 2925 2400 
Q 2675 2550 2475 2625 
Q 3150 3625 3500 5200 
Q 3800 5100 4075 5025 
Q 3975 4875 3875 4650 
Q 3775 4425 3675 4125 
L 5900 4125 
L 5775 275 
z
M 1250 3625 
L 1250 4375 
Q 1250 4775 1225 5100 
L 1775 5100 
Q 1750 4725 1750 4375 
L 1750 3625 
L 1900 3625 
Q 2200 3625 2525 3650 
L 2525 3150 
Q 2200 3175 1900 3175 
L 1750 3175 
L 1750 1100 
L 2500 1375 
Q 2475 1125 2525 900 
Q 1225 475 962 362 
Q 700 250 475 150 
Q 375 475 250 750 
Q 575 800 800 850 
Q 1025 900 1250 975 
L 1250 3175 
L 1125 3175 
Q 850 3175 400 3150 
L 400 3650 
Q 850 3625 1100 3625 
L 1250 3625 
z
M 4950 1625 
Q 4675 1425 4137 1050 
Q 3600 675 3175 300 
Q 3000 575 2850 775 
Q 3350 1050 3762 1325 
Q 4175 1600 4775 2075 
Q 4825 1850 4950 1625 
z
M 3775 3150 
Q 4125 2800 4475 2300 
Q 4250 2125 4100 1975 
Q 3900 2325 3450 2825 
Q 3600 3000 3775 3150 
z
" transform="scale(0.015625)"/>
       <path id="SimHei-5355" d="M 5275 4075 
L 5275 1525 
L 3400 1525 
L 3400 925 
L 5050 925 
Q 5600 925 6000 950 
L 6000 450 
Q 5575 475 5050 475 
L 3400 475 
Q 3400 -300 3425 -625 
L 2875 -625 
Q 2925 -300 2925 475 
L 1300 475 
Q 700 475 425 450 
L 425 950 
Q 675 925 1250 925 
L 2925 925 
L 2925 1525 
L 1125 1525 
Q 1150 1950 1150 2750 
Q 1150 3550 1125 4075 
L 3600 4075 
Q 3875 4650 4075 5250 
Q 4325 5125 4650 4975 
Q 4550 4850 4400 4587 
Q 4250 4325 4100 4075 
L 5275 4075 
z
M 4775 1925 
L 4775 2600 
L 3400 2600 
L 3400 1925 
L 4775 1925 
z
M 4775 3000 
L 4775 3650 
L 3400 3650 
L 3400 3000 
L 4775 3000 
z
M 2925 1925 
L 2925 2600 
L 1625 2600 
L 1625 1925 
L 2925 1925 
z
M 2925 3000 
L 2925 3650 
L 1625 3650 
L 1625 3000 
L 2925 3000 
z
M 2100 5225 
Q 2350 4950 2675 4350 
Q 2400 4225 2225 4125 
Q 1975 4675 1725 4975 
Q 1900 5075 2100 5225 
z
" transform="scale(0.015625)"/>
       <path id="SimHei-4ef7" d="M 2200 4975 
Q 2050 4725 1650 3775 
L 1650 450 
Q 1650 -225 1675 -650 
L 1175 -650 
Q 1175 -225 1200 450 
L 1200 2975 
Q 900 2425 650 2100 
Q 525 2275 225 2450 
Q 750 3025 1125 3800 
Q 1500 4575 1625 5175 
Q 1950 5025 2200 4975 
z
M 4175 4700 
Q 4850 3525 6150 2950 
Q 5925 2750 5775 2500 
Q 4725 3100 3950 4300 
Q 3300 3125 2250 2350 
Q 2125 2525 1900 2725 
Q 2825 3325 3250 4050 
Q 3675 4775 3750 5150 
Q 4150 4950 4325 4900 
L 4175 4700 
z
M 3475 2650 
Q 3400 2075 3325 1087 
Q 3250 100 2325 -675 
Q 2175 -450 1925 -300 
Q 2850 350 2912 1262 
Q 2975 2175 2950 2700 
Q 3275 2650 3475 2650 
z
M 5075 2700 
Q 5050 2150 5050 1725 
L 5050 150 
Q 5050 -225 5075 -650 
L 4550 -650 
Q 4575 -225 4575 175 
L 4575 1875 
Q 4575 2150 4550 2700 
L 5075 2700 
z
" transform="scale(0.015625)"/>
      </defs>
      <use xlink:href="#SimHei-5e73"/>
      <use xlink:href="#SimHei-5747" x="100"/>
      <use xlink:href="#SimHei-5355" x="200"/>
      <use xlink:href="#SimHei-4ef7" x="300"/>
     </g>
    </g>
   </g>
   <g id="line2d_34">
    <path d="M 115.363636 74.359766 
L 118.791155 72.251651 
L 122.218673 66.96 
L 125.646192 74.359766 
L 139.356265 66.96 
L 146.211302 68.460943 
L 153.066339 66.96 
L 156.493857 66.96 
L 159.921376 70.200808 
L 166.776413 70.200808 
L 173.63145 70.200808 
L 183.914005 70.200808 
L 187.341523 70.200808 
L 194.19656 70.200808 
L 201.051597 70.200808 
L 207.906634 70.200808 
L 211.334152 70.200808 
L 214.761671 70.26287 
L 218.189189 70.386994 
L 231.899263 70.386994 
L 235.326781 70.386994 
L 238.7543 70.386994 
L 242.181818 70.221028 
L 252.464373 68.776218 
L 255.891892 70.055063 
L 259.31941 70.769165 
L 262.746929 71.483267 
L 266.174447 70.164925 
L 269.601966 70.213752 
L 273.029484 70.721558 
L 276.457002 70.259092 
L 279.884521 71.483267 
L 283.312039 70.055063 
L 286.739558 70.055063 
L 290.167076 70.055063 
L 293.594595 369.36 
L 297.022113 369.36 
L 314.159705 70.055063 
L 327.869779 70.055063 
L 331.297297 70.055063 
L 338.152334 369.36 
L 341.579853 70.055063 
L 345.007371 122.108095 
L 348.434889 70.055063 
L 351.862408 70.055063 
L 355.289926 219.707531 
L 358.717445 70.055063 
L 362.144963 70.055063 
L 365.572482 71.067934 
L 369 82.955754 
L 372.427518 73.92527 
L 375.855037 83.346467 
L 379.282555 79.082736 
L 382.710074 80.506051 
L 386.137592 80.704031 
L 389.565111 76.14553 
L 392.992629 85.529979 
L 396.420147 80.154266 
L 399.847666 91.178387 
L 403.275184 84.042971 
L 406.702703 86.129902 
L 410.130221 86.424218 
L 416.985258 86.071965 
L 420.412776 86.775135 
L 423.840295 86.903406 
L 430.695332 96.743437 
L 434.12285 94.184506 
L 437.550369 88.486636 
L 440.977887 88.321642 
L 444.405405 88.226128 
L 447.832924 88.181216 
L 451.260442 88.426309 
L 454.687961 88.068814 
L 458.115479 88.068814 
L 461.542998 88.233368 
L 464.970516 87.987389 
L 468.398034 87.845508 
L 471.825553 97.316725 
L 475.253071 86.45182 
L 478.68059 93.194067 
L 482.108108 95.432047 
L 495.818182 117.1918 
L 499.2457 116.074392 
L 509.528256 124.128251 
L 512.955774 122.481742 
L 516.383292 184.241459 
L 519.810811 154.35077 
L 523.238329 149.101316 
L 526.665848 125.30038 
L 533.520885 184.264925 
L 540.375921 170.690949 
L 543.80344 155.204653 
L 547.230958 198.836122 
L 550.658477 198.836122 
L 557.513514 118.441527 
L 560.941032 112.63508 
L 564.36855 93.406637 
L 567.796069 95.853592 
L 571.223587 116.613392 
L 578.078624 97.317762 
L 588.361179 97.317762 
L 591.788698 97.317762 
L 598.643735 93.494425 
L 608.92629 93.494425 
L 619.208845 93.291295 
L 622.636364 95.405575 
" clip-path="url(#paa74cb511c)" style="fill: none; stroke: #ff0000; stroke-width: 1.5; stroke-linecap: square"/>
    <defs>
     <path id="m142ba89b57" d="M 0 3 
C 0.795609 3 1.55874 2.683901 2.12132 2.12132 
C 2.683901 1.55874 3 0.795609 3 0 
C 3 -0.795609 2.683901 -1.55874 2.12132 -2.12132 
C 1.55874 -2.683901 0.795609 -3 0 -3 
C -0.795609 -3 -1.55874 -2.683901 -2.12132 -2.12132 
C -2.683901 -1.55874 -3 -0.795609 -3 0 
C -3 0.795609 -2.683901 1.55874 -2.12132 2.12132 
C -1.55874 2.683901 -0.795609 3 0 3 
z
" style="stroke: #ff0000"/>
    </defs>
    <g clip-path="url(#paa74cb511c)">
     <use xlink:href="#m142ba89b57" x="115.363636" y="74.359766" style="fill: #ff0000; stroke: #ff0000"/>
     <use xlink:href="#m142ba89b57" x="118.791155" y="72.251651" style="fill: #ff0000; stroke: #ff0000"/>
     <use xlink:href="#m142ba89b57" x="122.218673" y="66.96" style="fill: #ff0000; stroke: #ff0000"/>
     <use xlink:href="#m142ba89b57" x="125.646192" y="74.359766" style="fill: #ff0000; stroke: #ff0000"/>
     <use xlink:href="#m142ba89b57" x="139.356265" y="66.96" style="fill: #ff0000; stroke: #ff0000"/>
     <use xlink:href="#m142ba89b57" x="146.211302" y="68.460943" style="fill: #ff0000; stroke: #ff0000"/>
     <use xlink:href="#m142ba89b57" x="153.066339" y="66.96" style="fill: #ff0000; stroke: #ff0000"/>
     <use xlink:href="#m142ba89b57" x="156.493857" y="66.96" style="fill: #ff0000; stroke: #ff0000"/>
     <use xlink:href="#m142ba89b57" x="159.921376" y="70.200808" style="fill: #ff0000; stroke: #ff0000"/>
     <use xlink:href="#m142ba89b57" x="166.776413" y="70.200808" style="fill: #ff0000; stroke: #ff0000"/>
     <use xlink:href="#m142ba89b57" x="173.63145" y="70.200808" style="fill: #ff0000; stroke: #ff0000"/>
     <use xlink:href="#m142ba89b57" x="183.914005" y="70.200808" style="fill: #ff0000; stroke: #ff0000"/>
     <use xlink:href="#m142ba89b57" x="187.341523" y="70.200808" style="fill: #ff0000; stroke: #ff0000"/>
     <use xlink:href="#m142ba89b57" x="194.19656" y="70.200808" style="fill: #ff0000; stroke: #ff0000"/>
     <use xlink:href="#m142ba89b57" x="201.051597" y="70.200808" style="fill: #ff0000; stroke: #ff0000"/>
     <use xlink:href="#m142ba89b57" x="207.906634" y="70.200808" style="fill: #ff0000; stroke: #ff0000"/>
     <use xlink:href="#m142ba89b57" x="211.334152" y="70.200808" style="fill: #ff0000; stroke: #ff0000"/>
     <use xlink:href="#m142ba89b57" x="214.761671" y="70.26287" style="fill: #ff0000; stroke: #ff0000"/>
     <use xlink:href="#m142ba89b57" x="218.189189" y="70.386994" style="fill: #ff0000; stroke: #ff0000"/>
     <use xlink:href="#m142ba89b57" x="231.899263" y="70.386994" style="fill: #ff0000; stroke: #ff0000"/>
     <use xlink:href="#m142ba89b57" x="235.326781" y="70.386994" style="fill: #ff0000; stroke: #ff0000"/>
     <use xlink:href="#m142ba89b57" x="238.7543" y="70.386994" style="fill: #ff0000; stroke: #ff0000"/>
     <use xlink:href="#m142ba89b57" x="242.181818" y="70.221028" style="fill: #ff0000; stroke: #ff0000"/>
     <use xlink:href="#m142ba89b57" x="252.464373" y="68.776218" style="fill: #ff0000; stroke: #ff0000"/>
     <use xlink:href="#m142ba89b57" x="255.891892" y="70.055063" style="fill: #ff0000; stroke: #ff0000"/>
     <use xlink:href="#m142ba89b57" x="259.31941" y="70.769165" style="fill: #ff0000; stroke: #ff0000"/>
     <use xlink:href="#m142ba89b57" x="262.746929" y="71.483267" style="fill: #ff0000; stroke: #ff0000"/>
     <use xlink:href="#m142ba89b57" x="266.174447" y="70.164925" style="fill: #ff0000; stroke: #ff0000"/>
     <use xlink:href="#m142ba89b57" x="269.601966" y="70.213752" style="fill: #ff0000; stroke: #ff0000"/>
     <use xlink:href="#m142ba89b57" x="273.029484" y="70.721558" style="fill: #ff0000; stroke: #ff0000"/>
     <use xlink:href="#m142ba89b57" x="276.457002" y="70.259092" style="fill: #ff0000; stroke: #ff0000"/>
     <use xlink:href="#m142ba89b57" x="279.884521" y="71.483267" style="fill: #ff0000; stroke: #ff0000"/>
     <use xlink:href="#m142ba89b57" x="283.312039" y="70.055063" style="fill: #ff0000; stroke: #ff0000"/>
     <use xlink:href="#m142ba89b57" x="286.739558" y="70.055063" style="fill: #ff0000; stroke: #ff0000"/>
     <use xlink:href="#m142ba89b57" x="290.167076" y="70.055063" style="fill: #ff0000; stroke: #ff0000"/>
     <use xlink:href="#m142ba89b57" x="293.594595" y="369.36" style="fill: #ff0000; stroke: #ff0000"/>
     <use xlink:href="#m142ba89b57" x="297.022113" y="369.36" style="fill: #ff0000; stroke: #ff0000"/>
     <use xlink:href="#m142ba89b57" x="314.159705" y="70.055063" style="fill: #ff0000; stroke: #ff0000"/>
     <use xlink:href="#m142ba89b57" x="327.869779" y="70.055063" style="fill: #ff0000; stroke: #ff0000"/>
     <use xlink:href="#m142ba89b57" x="331.297297" y="70.055063" style="fill: #ff0000; stroke: #ff0000"/>
     <use xlink:href="#m142ba89b57" x="338.152334" y="369.36" style="fill: #ff0000; stroke: #ff0000"/>
     <use xlink:href="#m142ba89b57" x="341.579853" y="70.055063" style="fill: #ff0000; stroke: #ff0000"/>
     <use xlink:href="#m142ba89b57" x="345.007371" y="122.108095" style="fill: #ff0000; stroke: #ff0000"/>
     <use xlink:href="#m142ba89b57" x="348.434889" y="70.055063" style="fill: #ff0000; stroke: #ff0000"/>
     <use xlink:href="#m142ba89b57" x="351.862408" y="70.055063" style="fill: #ff0000; stroke: #ff0000"/>
     <use xlink:href="#m142ba89b57" x="355.289926" y="219.707531" style="fill: #ff0000; stroke: #ff0000"/>
     <use xlink:href="#m142ba89b57" x="358.717445" y="70.055063" style="fill: #ff0000; stroke: #ff0000"/>
     <use xlink:href="#m142ba89b57" x="362.144963" y="70.055063" style="fill: #ff0000; stroke: #ff0000"/>
     <use xlink:href="#m142ba89b57" x="365.572482" y="71.067934" style="fill: #ff0000; stroke: #ff0000"/>
     <use xlink:href="#m142ba89b57" x="369" y="82.955754" style="fill: #ff0000; stroke: #ff0000"/>
     <use xlink:href="#m142ba89b57" x="372.427518" y="73.92527" style="fill: #ff0000; stroke: #ff0000"/>
     <use xlink:href="#m142ba89b57" x="375.855037" y="83.346467" style="fill: #ff0000; stroke: #ff0000"/>
     <use xlink:href="#m142ba89b57" x="379.282555" y="79.082736" style="fill: #ff0000; stroke: #ff0000"/>
     <use xlink:href="#m142ba89b57" x="382.710074" y="80.506051" style="fill: #ff0000; stroke: #ff0000"/>
     <use xlink:href="#m142ba89b57" x="386.137592" y="80.704031" style="fill: #ff0000; stroke: #ff0000"/>
     <use xlink:href="#m142ba89b57" x="389.565111" y="76.14553" style="fill: #ff0000; stroke: #ff0000"/>
     <use xlink:href="#m142ba89b57" x="392.992629" y="85.529979" style="fill: #ff0000; stroke: #ff0000"/>
     <use xlink:href="#m142ba89b57" x="396.420147" y="80.154266" style="fill: #ff0000; stroke: #ff0000"/>
     <use xlink:href="#m142ba89b57" x="399.847666" y="91.178387" style="fill: #ff0000; stroke: #ff0000"/>
     <use xlink:href="#m142ba89b57" x="403.275184" y="84.042971" style="fill: #ff0000; stroke: #ff0000"/>
     <use xlink:href="#m142ba89b57" x="406.702703" y="86.129902" style="fill: #ff0000; stroke: #ff0000"/>
     <use xlink:href="#m142ba89b57" x="410.130221" y="86.424218" style="fill: #ff0000; stroke: #ff0000"/>
     <use xlink:href="#m142ba89b57" x="416.985258" y="86.071965" style="fill: #ff0000; stroke: #ff0000"/>
     <use xlink:href="#m142ba89b57" x="420.412776" y="86.775135" style="fill: #ff0000; stroke: #ff0000"/>
     <use xlink:href="#m142ba89b57" x="423.840295" y="86.903406" style="fill: #ff0000; stroke: #ff0000"/>
     <use xlink:href="#m142ba89b57" x="430.695332" y="96.743437" style="fill: #ff0000; stroke: #ff0000"/>
     <use xlink:href="#m142ba89b57" x="434.12285" y="94.184506" style="fill: #ff0000; stroke: #ff0000"/>
     <use xlink:href="#m142ba89b57" x="437.550369" y="88.486636" style="fill: #ff0000; stroke: #ff0000"/>
     <use xlink:href="#m142ba89b57" x="440.977887" y="88.321642" style="fill: #ff0000; stroke: #ff0000"/>
     <use xlink:href="#m142ba89b57" x="444.405405" y="88.226128" style="fill: #ff0000; stroke: #ff0000"/>
     <use xlink:href="#m142ba89b57" x="447.832924" y="88.181216" style="fill: #ff0000; stroke: #ff0000"/>
     <use xlink:href="#m142ba89b57" x="451.260442" y="88.426309" style="fill: #ff0000; stroke: #ff0000"/>
     <use xlink:href="#m142ba89b57" x="454.687961" y="88.068814" style="fill: #ff0000; stroke: #ff0000"/>
     <use xlink:href="#m142ba89b57" x="458.115479" y="88.068814" style="fill: #ff0000; stroke: #ff0000"/>
     <use xlink:href="#m142ba89b57" x="461.542998" y="88.233368" style="fill: #ff0000; stroke: #ff0000"/>
     <use xlink:href="#m142ba89b57" x="464.970516" y="87.987389" style="fill: #ff0000; stroke: #ff0000"/>
     <use xlink:href="#m142ba89b57" x="468.398034" y="87.845508" style="fill: #ff0000; stroke: #ff0000"/>
     <use xlink:href="#m142ba89b57" x="471.825553" y="97.316725" style="fill: #ff0000; stroke: #ff0000"/>
     <use xlink:href="#m142ba89b57" x="475.253071" y="86.45182" style="fill: #ff0000; stroke: #ff0000"/>
     <use xlink:href="#m142ba89b57" x="478.68059" y="93.194067" style="fill: #ff0000; stroke: #ff0000"/>
     <use xlink:href="#m142ba89b57" x="482.108108" y="95.432047" style="fill: #ff0000; stroke: #ff0000"/>
     <use xlink:href="#m142ba89b57" x="495.818182" y="117.1918" style="fill: #ff0000; stroke: #ff0000"/>
     <use xlink:href="#m142ba89b57" x="499.2457" y="116.074392" style="fill: #ff0000; stroke: #ff0000"/>
     <use xlink:href="#m142ba89b57" x="509.528256" y="124.128251" style="fill: #ff0000; stroke: #ff0000"/>
     <use xlink:href="#m142ba89b57" x="512.955774" y="122.481742" style="fill: #ff0000; stroke: #ff0000"/>
     <use xlink:href="#m142ba89b57" x="516.383292" y="184.241459" style="fill: #ff0000; stroke: #ff0000"/>
     <use xlink:href="#m142ba89b57" x="519.810811" y="154.35077" style="fill: #ff0000; stroke: #ff0000"/>
     <use xlink:href="#m142ba89b57" x="523.238329" y="149.101316" style="fill: #ff0000; stroke: #ff0000"/>
     <use xlink:href="#m142ba89b57" x="526.665848" y="125.30038" style="fill: #ff0000; stroke: #ff0000"/>
     <use xlink:href="#m142ba89b57" x="533.520885" y="184.264925" style="fill: #ff0000; stroke: #ff0000"/>
     <use xlink:href="#m142ba89b57" x="540.375921" y="170.690949" style="fill: #ff0000; stroke: #ff0000"/>
     <use xlink:href="#m142ba89b57" x="543.80344" y="155.204653" style="fill: #ff0000; stroke: #ff0000"/>
     <use xlink:href="#m142ba89b57" x="547.230958" y="198.836122" style="fill: #ff0000; stroke: #ff0000"/>
     <use xlink:href="#m142ba89b57" x="550.658477" y="198.836122" style="fill: #ff0000; stroke: #ff0000"/>
     <use xlink:href="#m142ba89b57" x="557.513514" y="118.441527" style="fill: #ff0000; stroke: #ff0000"/>
     <use xlink:href="#m142ba89b57" x="560.941032" y="112.63508" style="fill: #ff0000; stroke: #ff0000"/>
     <use xlink:href="#m142ba89b57" x="564.36855" y="93.406637" style="fill: #ff0000; stroke: #ff0000"/>
     <use xlink:href="#m142ba89b57" x="567.796069" y="95.853592" style="fill: #ff0000; stroke: #ff0000"/>
     <use xlink:href="#m142ba89b57" x="571.223587" y="116.613392" style="fill: #ff0000; stroke: #ff0000"/>
     <use xlink:href="#m142ba89b57" x="578.078624" y="97.317762" style="fill: #ff0000; stroke: #ff0000"/>
     <use xlink:href="#m142ba89b57" x="588.361179" y="97.317762" style="fill: #ff0000; stroke: #ff0000"/>
     <use xlink:href="#m142ba89b57" x="591.788698" y="97.317762" style="fill: #ff0000; stroke: #ff0000"/>
     <use xlink:href="#m142ba89b57" x="598.643735" y="93.494425" style="fill: #ff0000; stroke: #ff0000"/>
     <use xlink:href="#m142ba89b57" x="608.92629" y="93.494425" style="fill: #ff0000; stroke: #ff0000"/>
     <use xlink:href="#m142ba89b57" x="619.208845" y="93.291295" style="fill: #ff0000; stroke: #ff0000"/>
     <use xlink:href="#m142ba89b57" x="622.636364" y="95.405575" style="fill: #ff0000; stroke: #ff0000"/>
    </g>
   </g>
   <g id="patch_11">
    <path d="M 90 384.48 
L 90 51.84 
" style="fill: none; stroke: #000000; stroke-width: 0.8; stroke-linejoin: miter; stroke-linecap: square"/>
   </g>
   <g id="patch_12">
    <path d="M 708 384.48 
L 708 51.84 
" style="fill: none; stroke: #000000; stroke-width: 0.8; stroke-linejoin: miter; stroke-linecap: square"/>
   </g>
   <g id="patch_13">
    <path d="M 90 384.48 
L 648 384.48 
" style="fill: none; stroke: #000000; stroke-width: 0.8; stroke-linejoin: miter; stroke-linecap: square"/>
   </g>
   <g id="patch_14">
    <path d="M 90 51.84 
L 648 51.84 
" style="fill: none; stroke: #000000; stroke-width: 0.8; stroke-linejoin: miter; stroke-linecap: square"/>
   </g>
   <g id="text_36">
    <!-- 6004010174 每周需求量、收益与平均单价 -->
    <g transform="translate(258 45.84) scale(0.12 -0.12)">
     <defs>
      <path id="SimHei-37" d="M 850 150 
Q 1300 2050 2425 3925 
L 275 3925 
L 275 4375 
L 2950 4375 
L 2950 3950 
Q 1775 2050 1400 150 
L 850 150 
z
" transform="scale(0.015625)"/>
      <path id="SimHei-20" transform="scale(0.015625)"/>
      <path id="SimHei-6bcf" d="M 5225 3650 
Q 5175 3150 5150 2675 
L 5125 2200 
Q 5525 2200 6000 2225 
L 6000 1775 
Q 5625 1800 5100 1800 
L 5050 650 
Q 5325 650 5700 675 
L 5700 225 
Q 5400 250 5025 250 
Q 5000 -275 4775 -425 
Q 4550 -575 4000 -650 
Q 3950 -400 3775 -125 
Q 4375 -125 4475 -50 
Q 4575 25 4575 250 
L 1400 250 
L 1500 1100 
L 1550 1800 
L 1275 1800 
Q 825 1800 550 1775 
L 550 2225 
Q 975 2200 1275 2200 
L 1575 2200 
L 1625 2825 
L 1675 3650 
L 5225 3650 
z
M 2350 5000 
Q 2175 4825 2050 4600 
L 4875 4600 
Q 5275 4600 5775 4625 
L 5775 4175 
Q 5275 4200 4875 4200 
L 1825 4200 
L 1375 3625 
Q 1125 3325 775 2975 
Q 600 3175 350 3300 
Q 725 3575 1150 4112 
Q 1575 4650 1825 5250 
Q 2125 5075 2350 5000 
z
M 1975 1800 
L 1875 650 
L 4625 650 
L 4675 1800 
L 2950 1800 
Q 3575 1275 3825 1125 
Q 3625 925 3475 725 
Q 3100 1100 2650 1475 
Q 2775 1675 2875 1800 
L 1975 1800 
z
M 2975 3250 
Q 3125 3150 3287 3012 
Q 3450 2875 3800 2550 
Q 3650 2350 3525 2200 
L 4700 2200 
L 4750 3250 
L 2975 3250 
z
M 2075 3250 
L 2000 2200 
L 3425 2200 
Q 3150 2500 3012 2625 
Q 2875 2750 2700 2900 
Q 2800 3050 2925 3250 
L 2075 3250 
z
" transform="scale(0.015625)"/>
      <path id="SimHei-3001" d="M 1725 -275 
Q 1325 700 925 1450 
L 1325 1650 
Q 1825 950 2325 25 
L 1725 -275 
z
" transform="scale(0.015625)"/>
      <path id="SimHei-4e0e" d="M 5350 100 
Q 5275 -300 4925 -425 
Q 4575 -550 3900 -600 
Q 3875 -375 3650 -25 
Q 4375 -50 4575 0 
Q 4775 50 4837 225 
Q 4900 400 5100 2350 
L 1125 2350 
Q 1450 4350 1475 5200 
Q 1800 5150 2075 5125 
Q 1975 4825 1900 4275 
L 4900 4275 
Q 5400 4275 5800 4300 
L 5800 3825 
Q 5400 3850 4950 3850 
L 1850 3850 
L 1700 2750 
L 5675 2750 
Q 5625 2450 5575 2050 
L 5350 100 
z
M 3675 1350 
Q 4125 1350 4500 1375 
L 4500 875 
Q 4125 900 3850 900 
L 1450 900 
Q 1000 900 500 875 
L 500 1375 
Q 1000 1350 1450 1350 
L 3675 1350 
z
" transform="scale(0.015625)"/>
     </defs>
     <use xlink:href="#SimHei-36"/>
     <use xlink:href="#SimHei-30" x="50"/>
     <use xlink:href="#SimHei-30" x="100"/>
     <use xlink:href="#SimHei-34" x="150"/>
     <use xlink:href="#SimHei-30" x="200"/>
     <use xlink:href="#SimHei-31" x="250"/>
     <use xlink:href="#SimHei-30" x="300"/>
     <use xlink:href="#SimHei-31" x="350"/>
     <use xlink:href="#SimHei-37" x="400"/>
     <use xlink:href="#SimHei-34" x="450"/>
     <use xlink:href="#SimHei-20" x="500"/>
     <use xlink:href="#SimHei-6bcf" x="550"/>
     <use xlink:href="#SimHei-5468" x="650"/>
     <use xlink:href="#SimHei-9700" x="750"/>
     <use xlink:href="#SimHei-6c42" x="850"/>
     <use xlink:href="#SimHei-91cf" x="950"/>
     <use xlink:href="#SimHei-3001" x="1050"/>
     <use xlink:href="#SimHei-6536" x="1150"/>
     <use xlink:href="#SimHei-76ca" x="1250"/>
     <use xlink:href="#SimHei-4e0e" x="1350"/>
     <use xlink:href="#SimHei-5e73" x="1450"/>
     <use xlink:href="#SimHei-5747" x="1550"/>
     <use xlink:href="#SimHei-5355" x="1650"/>
     <use xlink:href="#SimHei-4ef7" x="1750"/>
    </g>
   </g>
  </g>
 </g>
 <defs>
  <clipPath id="paa74cb511c">
   <rect x="90" y="51.84" width="558" height="332.64"/>
  </clipPath>
 </defs>
</svg>
