<?xml version="1.0" encoding="utf-8" standalone="no"?>
<!DOCTYPE svg PUBLIC "-//W3C//DTD SVG 1.1//EN"
  "http://www.w3.org/Graphics/SVG/1.1/DTD/svg11.dtd">
<svg xmlns:xlink="http://www.w3.org/1999/xlink" width="720pt" height="432pt" viewBox="0 0 720 432" xmlns="http://www.w3.org/2000/svg" version="1.1">
 <metadata>
  <rdf:RDF xmlns:dc="http://purl.org/dc/elements/1.1/" xmlns:cc="http://creativecommons.org/ns#" xmlns:rdf="http://www.w3.org/1999/02/22-rdf-syntax-ns#">
   <cc:Work>
    <dc:type rdf:resource="http://purl.org/dc/dcmitype/StillImage"/>
    <dc:date>2024-08-17T14:11:29.509114</dc:date>
    <dc:format>image/svg+xml</dc:format>
    <dc:creator>
     <cc:Agent>
      <dc:title>Matplotlib v3.8.0, https://matplotlib.org/</dc:title>
     </cc:Agent>
    </dc:creator>
   </cc:Work>
  </rdf:RDF>
 </metadata>
 <defs>
  <style type="text/css">*{stroke-linejoin: round; stroke-linecap: butt}</style>
 </defs>
 <g id="figure_1">
  <g id="patch_1">
   <path d="M 0 432 
L 720 432 
L 720 0 
L 0 0 
z
" style="fill: #ffffff"/>
  </g>
  <g id="axes_1">
   <g id="patch_2">
    <path d="M 90 384.48 
L 648 384.48 
L 648 51.84 
L 90 51.84 
z
" style="fill: #ffffff"/>
   </g>
   <g id="matplotlib.axis_1">
    <g id="xtick_1">
     <g id="line2d_1">
      <defs>
       <path id="mf77c793311" d="M 0 0 
L 0 3.5 
" style="stroke: #000000; stroke-width: 0.8"/>
      </defs>
      <g>
       <use xlink:href="#mf77c793311" x="94.35234" y="384.48" style="stroke: #000000; stroke-width: 0.8"/>
      </g>
     </g>
     <g id="text_1">
      <!-- 0 -->
      <g transform="translate(91.85234 398.355) scale(0.1 -0.1)">
       <defs>
        <path id="SimHei-30" d="M 225 2537 
Q 250 3200 412 3587 
Q 575 3975 875 4225 
Q 1175 4475 1612 4475 
Q 2050 4475 2375 4112 
Q 2700 3750 2800 3200 
Q 2900 2650 2862 1937 
Q 2825 1225 2612 775 
Q 2400 325 1975 150 
Q 1550 -25 1125 187 
Q 700 400 525 750 
Q 350 1100 275 1487 
Q 200 1875 225 2537 
z
M 750 2687 
Q 675 2000 800 1462 
Q 925 925 1212 700 
Q 1500 475 1800 612 
Q 2100 750 2237 1162 
Q 2375 1575 2375 2062 
Q 2375 2550 2337 2950 
Q 2300 3350 2112 3675 
Q 1925 4000 1612 4012 
Q 1300 4025 1062 3700 
Q 825 3375 750 2687 
z
" transform="scale(0.015625)"/>
       </defs>
       <use xlink:href="#SimHei-30"/>
      </g>
     </g>
    </g>
    <g id="xtick_2">
     <g id="line2d_2">
      <g>
       <use xlink:href="#mf77c793311" x="169.392684" y="384.48" style="stroke: #000000; stroke-width: 0.8"/>
      </g>
     </g>
     <g id="text_2">
      <!-- 25 -->
      <g transform="translate(164.392684 398.355) scale(0.1 -0.1)">
       <defs>
        <path id="SimHei-32" d="M 300 250 
Q 325 625 650 925 
Q 975 1225 1475 1862 
Q 1975 2500 2125 2850 
Q 2275 3200 2237 3450 
Q 2200 3700 2000 3862 
Q 1800 4025 1537 4000 
Q 1275 3975 1037 3800 
Q 800 3625 675 3275 
L 200 3350 
Q 400 3925 712 4187 
Q 1025 4450 1450 4475 
Q 1700 4500 1900 4462 
Q 2100 4425 2312 4287 
Q 2525 4150 2662 3875 
Q 2800 3600 2762 3212 
Q 2725 2825 2375 2287 
Q 2025 1750 1025 600 
L 2825 600 
L 2825 150 
L 300 150 
L 300 250 
z
" transform="scale(0.015625)"/>
        <path id="SimHei-35" d="M 550 1325 
Q 725 650 1150 575 
Q 1575 500 1837 662 
Q 2100 825 2212 1087 
Q 2325 1350 2312 1675 
Q 2300 2000 2137 2225 
Q 1975 2450 1725 2525 
Q 1475 2600 1162 2525 
Q 850 2450 650 2175 
L 225 2225 
Q 275 2375 700 4375 
L 2675 4375 
L 2675 3925 
L 1075 3925 
Q 950 3250 825 2850 
Q 1200 3025 1525 3012 
Q 1850 3000 2150 2862 
Q 2450 2725 2587 2487 
Q 2725 2250 2787 2012 
Q 2850 1775 2837 1500 
Q 2825 1225 2725 937 
Q 2625 650 2425 462 
Q 2225 275 1937 162 
Q 1650 50 1275 75 
Q 900 100 562 350 
Q 225 600 100 1200 
L 550 1325 
z
" transform="scale(0.015625)"/>
       </defs>
       <use xlink:href="#SimHei-32"/>
       <use xlink:href="#SimHei-35" x="50"/>
      </g>
     </g>
    </g>
    <g id="xtick_3">
     <g id="line2d_3">
      <g>
       <use xlink:href="#mf77c793311" x="244.433029" y="384.48" style="stroke: #000000; stroke-width: 0.8"/>
      </g>
     </g>
     <g id="text_3">
      <!-- 50 -->
      <g transform="translate(239.433029 398.355) scale(0.1 -0.1)">
       <use xlink:href="#SimHei-35"/>
       <use xlink:href="#SimHei-30" x="50"/>
      </g>
     </g>
    </g>
    <g id="xtick_4">
     <g id="line2d_4">
      <g>
       <use xlink:href="#mf77c793311" x="319.473373" y="384.48" style="stroke: #000000; stroke-width: 0.8"/>
      </g>
     </g>
     <g id="text_4">
      <!-- 75 -->
      <g transform="translate(314.473373 398.355) scale(0.1 -0.1)">
       <defs>
        <path id="SimHei-37" d="M 850 150 
Q 1300 2050 2425 3925 
L 275 3925 
L 275 4375 
L 2950 4375 
L 2950 3950 
Q 1775 2050 1400 150 
L 850 150 
z
" transform="scale(0.015625)"/>
       </defs>
       <use xlink:href="#SimHei-37"/>
       <use xlink:href="#SimHei-35" x="50"/>
      </g>
     </g>
    </g>
    <g id="xtick_5">
     <g id="line2d_5">
      <g>
       <use xlink:href="#mf77c793311" x="394.513717" y="384.48" style="stroke: #000000; stroke-width: 0.8"/>
      </g>
     </g>
     <g id="text_5">
      <!-- 100 -->
      <g transform="translate(387.013717 398.355) scale(0.1 -0.1)">
       <defs>
        <path id="SimHei-31" d="M 1400 3600 
Q 1075 3275 575 2975 
L 575 3450 
Q 1200 3875 1600 4450 
L 1900 4450 
L 1900 150 
L 1400 150 
L 1400 3600 
z
" transform="scale(0.015625)"/>
       </defs>
       <use xlink:href="#SimHei-31"/>
       <use xlink:href="#SimHei-30" x="50"/>
       <use xlink:href="#SimHei-30" x="100"/>
      </g>
     </g>
    </g>
    <g id="xtick_6">
     <g id="line2d_6">
      <g>
       <use xlink:href="#mf77c793311" x="469.554061" y="384.48" style="stroke: #000000; stroke-width: 0.8"/>
      </g>
     </g>
     <g id="text_6">
      <!-- 125 -->
      <g transform="translate(462.054061 398.355) scale(0.1 -0.1)">
       <use xlink:href="#SimHei-31"/>
       <use xlink:href="#SimHei-32" x="50"/>
       <use xlink:href="#SimHei-35" x="100"/>
      </g>
     </g>
    </g>
    <g id="xtick_7">
     <g id="line2d_7">
      <g>
       <use xlink:href="#mf77c793311" x="544.594406" y="384.48" style="stroke: #000000; stroke-width: 0.8"/>
      </g>
     </g>
     <g id="text_7">
      <!-- 150 -->
      <g transform="translate(537.094406 398.355) scale(0.1 -0.1)">
       <use xlink:href="#SimHei-31"/>
       <use xlink:href="#SimHei-35" x="50"/>
       <use xlink:href="#SimHei-30" x="100"/>
      </g>
     </g>
    </g>
    <g id="xtick_8">
     <g id="line2d_8">
      <g>
       <use xlink:href="#mf77c793311" x="619.63475" y="384.48" style="stroke: #000000; stroke-width: 0.8"/>
      </g>
     </g>
     <g id="text_8">
      <!-- 175 -->
      <g transform="translate(612.13475 398.355) scale(0.1 -0.1)">
       <use xlink:href="#SimHei-31"/>
       <use xlink:href="#SimHei-37" x="50"/>
       <use xlink:href="#SimHei-35" x="100"/>
      </g>
     </g>
    </g>
    <g id="text_9">
     <!-- 周数 -->
     <g transform="translate(359 411.339375) scale(0.1 -0.1)">
      <defs>
       <path id="SimHei-5468" d="M 5600 4925 
Q 5575 4400 5575 3800 
L 5575 50 
Q 5550 -375 5325 -462 
Q 5100 -550 4325 -600 
Q 4300 -400 4125 -75 
Q 4800 -100 4962 -37 
Q 5125 25 5100 225 
L 5100 4525 
L 1500 4525 
Q 1500 2575 1450 1887 
Q 1400 1200 1237 550 
Q 1075 -100 775 -625 
Q 625 -450 275 -225 
Q 650 225 825 1000 
Q 1000 1775 1025 2587 
Q 1050 3400 1000 4925 
L 5600 4925 
z
M 2050 325 
Q 2075 625 2075 950 
L 2075 1400 
Q 2075 1625 2050 1925 
L 4400 1925 
Q 4375 1725 4375 1450 
L 4375 875 
Q 4375 600 4400 325 
L 2050 325 
z
M 3000 3800 
Q 3000 4150 2975 4375 
L 3475 4375 
Q 3450 4075 3450 3800 
Q 4100 3800 4475 3825 
L 4475 3350 
Q 4125 3375 3450 3375 
L 3450 2800 
Q 4200 2800 4825 2825 
L 4825 2350 
Q 4175 2375 3725 2375 
L 2750 2375 
Q 2325 2375 1725 2350 
L 1725 2825 
Q 2325 2800 3000 2800 
L 3000 3375 
Q 2500 3375 1975 3350 
L 1975 3825 
Q 2475 3800 3000 3800 
z
M 3900 725 
L 3900 1525 
L 2550 1525 
L 2550 725 
L 3900 725 
z
" transform="scale(0.015625)"/>
       <path id="SimHei-6570" d="M 4525 4925 
Q 4475 4800 4400 4587 
Q 4325 4375 4175 3825 
L 5325 3825 
Q 5575 3825 5925 3850 
L 5925 3400 
Q 5650 3425 5500 3425 
Q 5500 3025 5362 2162 
Q 5225 1300 4875 675 
Q 5125 375 5437 137 
Q 5750 -100 6025 -200 
Q 5725 -425 5625 -625 
Q 5325 -450 5075 -225 
Q 4825 0 4575 325 
Q 4300 25 3987 -187 
Q 3675 -400 3200 -650 
Q 3075 -425 2850 -300 
Q 3225 -150 3650 125 
Q 4075 400 4300 675 
Q 4125 1025 3962 1425 
Q 3800 1825 3675 2475 
Q 3600 2275 3425 1950 
Q 3250 2050 3000 2150 
Q 3400 2850 3650 3675 
Q 3900 4500 3975 5100 
Q 4275 4975 4525 4925 
z
M 2100 2250 
Q 2000 2150 1875 1925 
L 3250 1925 
Q 3100 1300 2725 675 
Q 3125 525 3350 400 
Q 3225 225 3125 25 
Q 2900 175 2450 325 
Q 1950 -225 725 -650 
Q 600 -375 400 -275 
Q 1575 0 2000 475 
Q 1300 650 850 775 
Q 1000 1000 1250 1525 
Q 1000 1525 425 1500 
L 425 1950 
Q 900 1925 1400 1925 
Q 1500 2150 1550 2425 
Q 1825 2325 2100 2250 
z
M 1775 3950 
Q 1775 4550 1750 5100 
L 2250 5100 
Q 2225 4575 2225 3950 
Q 3075 3950 3425 3975 
L 3425 3525 
Q 3075 3550 2225 3550 
Q 2225 2825 2250 2425 
L 1750 2425 
Q 1775 2775 1775 3300 
Q 1650 3100 1300 2787 
Q 950 2475 650 2300 
Q 525 2525 275 2625 
Q 500 2700 875 2975 
Q 1250 3250 1450 3550 
Q 950 3550 500 3525 
L 500 3975 
Q 925 3950 1775 3950 
z
M 3975 3175 
Q 4200 1700 4600 1125 
Q 4850 1700 4937 2287 
Q 5025 2875 5050 3425 
L 4075 3425 
L 3975 3175 
z
M 1450 1000 
Q 1750 925 2275 800 
Q 2475 1050 2650 1525 
L 1725 1525 
Q 1600 1275 1450 1000 
z
M 3325 4825 
Q 3200 4625 3125 4450 
Q 3050 4275 2925 4025 
Q 2725 4125 2525 4175 
Q 2725 4500 2900 5000 
Q 3150 4875 3325 4825 
z
M 2575 3375 
Q 2900 3050 3200 2725 
Q 3050 2600 2875 2425 
Q 2525 2850 2300 3100 
Q 2450 3225 2575 3375 
z
M 925 5000 
Q 1275 4650 1500 4300 
L 1125 4075 
Q 950 4425 600 4725 
Q 825 4875 925 5000 
z
" transform="scale(0.015625)"/>
      </defs>
      <use xlink:href="#SimHei-5468"/>
      <use xlink:href="#SimHei-6570" x="100"/>
     </g>
    </g>
   </g>
   <g id="matplotlib.axis_2">
    <g id="ytick_1">
     <g id="line2d_9">
      <defs>
       <path id="ma5598c768e" d="M 0 0 
L -3.5 0 
" style="stroke: #000000; stroke-width: 0.8"/>
      </defs>
      <g>
       <use xlink:href="#ma5598c768e" x="90" y="341.869091" style="stroke: #000000; stroke-width: 0.8"/>
      </g>
     </g>
     <g id="text_10">
      <!-- 2 -->
      <g style="fill: #0000ff" transform="translate(78 345.306591) scale(0.1 -0.1)">
       <use xlink:href="#SimHei-32"/>
      </g>
     </g>
    </g>
    <g id="ytick_2">
     <g id="line2d_10">
      <g>
       <use xlink:href="#ma5598c768e" x="90" y="286.887273" style="stroke: #000000; stroke-width: 0.8"/>
      </g>
     </g>
     <g id="text_11">
      <!-- 4 -->
      <g style="fill: #0000ff" transform="translate(78 290.324773) scale(0.1 -0.1)">
       <defs>
        <path id="SimHei-34" d="M 2000 1100 
L 75 1100 
L 75 1525 
L 2100 4450 
L 2475 4450 
L 2475 1525 
L 3075 1525 
L 3075 1100 
L 2475 1100 
L 2475 150 
L 2000 150 
L 2000 1100 
z
M 2000 1525 
L 2000 3500 
L 600 1525 
L 2000 1525 
z
" transform="scale(0.015625)"/>
       </defs>
       <use xlink:href="#SimHei-34"/>
      </g>
     </g>
    </g>
    <g id="ytick_3">
     <g id="line2d_11">
      <g>
       <use xlink:href="#ma5598c768e" x="90" y="231.905455" style="stroke: #000000; stroke-width: 0.8"/>
      </g>
     </g>
     <g id="text_12">
      <!-- 6 -->
      <g style="fill: #0000ff" transform="translate(78 235.342955) scale(0.1 -0.1)">
       <defs>
        <path id="SimHei-36" d="M 250 1612 
Q 275 1975 387 2225 
Q 500 2475 725 2850 
L 1750 4450 
L 2325 4450 
L 1275 2800 
Q 1950 2975 2350 2750 
Q 2750 2525 2887 2237 
Q 3025 1950 3037 1612 
Q 3050 1275 2937 950 
Q 2825 625 2537 362 
Q 2250 100 1737 75 
Q 1225 50 862 262 
Q 500 475 362 862 
Q 225 1250 250 1612 
z
M 1025 787 
Q 1250 550 1625 525 
Q 2000 500 2250 775 
Q 2500 1050 2500 1575 
Q 2500 2100 2187 2300 
Q 1875 2500 1487 2450 
Q 1100 2400 925 2075 
Q 750 1750 775 1387 
Q 800 1025 1025 787 
z
" transform="scale(0.015625)"/>
       </defs>
       <use xlink:href="#SimHei-36"/>
      </g>
     </g>
    </g>
    <g id="ytick_4">
     <g id="line2d_12">
      <g>
       <use xlink:href="#ma5598c768e" x="90" y="176.923636" style="stroke: #000000; stroke-width: 0.8"/>
      </g>
     </g>
     <g id="text_13">
      <!-- 8 -->
      <g style="fill: #0000ff" transform="translate(78 180.361136) scale(0.1 -0.1)">
       <defs>
        <path id="SimHei-38" d="M 175 1375 
Q 175 1675 325 1962 
Q 475 2250 825 2425 
Q 525 2600 425 2812 
Q 325 3025 312 3300 
Q 300 3575 387 3775 
Q 475 3975 650 4150 
Q 825 4325 1037 4387 
Q 1250 4450 1500 4450 
Q 1750 4450 1950 4400 
Q 2150 4350 2375 4187 
Q 2600 4025 2700 3725 
Q 2800 3425 2687 3025 
Q 2575 2625 2100 2400 
Q 2525 2275 2700 2012 
Q 2875 1750 2875 1375 
Q 2875 1000 2762 775 
Q 2650 550 2512 400 
Q 2375 250 2137 162 
Q 1900 75 1537 75 
Q 1175 75 912 162 
Q 650 250 475 425 
Q 300 600 237 837 
Q 175 1075 175 1375 
z
M 687 1400 
Q 675 1100 787 875 
Q 900 650 1200 587 
Q 1500 525 1825 600 
Q 2150 675 2275 950 
Q 2400 1225 2362 1500 
Q 2325 1775 2050 1962 
Q 1775 2150 1450 2125 
Q 1125 2100 912 1900 
Q 700 1700 687 1400 
z
M 775 3350 
Q 775 3100 950 2875 
Q 1125 2650 1500 2650 
Q 1875 2650 2062 2875 
Q 2250 3100 2237 3412 
Q 2225 3725 2012 3875 
Q 1800 4025 1437 4000 
Q 1075 3975 925 3787 
Q 775 3600 775 3350 
z
" transform="scale(0.015625)"/>
       </defs>
       <use xlink:href="#SimHei-38"/>
      </g>
     </g>
    </g>
    <g id="ytick_5">
     <g id="line2d_13">
      <g>
       <use xlink:href="#ma5598c768e" x="90" y="121.941818" style="stroke: #000000; stroke-width: 0.8"/>
      </g>
     </g>
     <g id="text_14">
      <!-- 10 -->
      <g style="fill: #0000ff" transform="translate(73 125.379318) scale(0.1 -0.1)">
       <use xlink:href="#SimHei-31"/>
       <use xlink:href="#SimHei-30" x="50"/>
      </g>
     </g>
    </g>
    <g id="ytick_6">
     <g id="line2d_14">
      <g>
       <use xlink:href="#ma5598c768e" x="90" y="66.96" style="stroke: #000000; stroke-width: 0.8"/>
      </g>
     </g>
     <g id="text_15">
      <!-- 12 -->
      <g style="fill: #0000ff" transform="translate(73 70.3975) scale(0.1 -0.1)">
       <use xlink:href="#SimHei-31"/>
       <use xlink:href="#SimHei-32" x="50"/>
      </g>
     </g>
    </g>
    <g id="text_16">
     <!-- 需求量 -->
     <g style="fill: #0000ff" transform="translate(67.75 233.16) rotate(-90) scale(0.1 -0.1)">
      <defs>
       <path id="SimHei-9700" d="M 5150 2100 
Q 5500 2100 5975 2125 
L 5975 1700 
Q 5500 1725 5150 1725 
L 3425 1725 
Q 3300 1500 3250 1275 
L 5600 1275 
Q 5575 950 5575 700 
L 5575 -50 
Q 5575 -350 5425 -437 
Q 5275 -525 4775 -625 
Q 4750 -400 4550 -100 
Q 4950 -100 5025 -50 
Q 5100 0 5100 200 
L 5100 900 
L 4125 900 
L 4125 -375 
L 3650 -375 
L 3650 900 
L 2775 900 
L 2775 -375 
L 2300 -375 
L 2300 900 
L 1350 900 
L 1350 -575 
L 875 -575 
Q 900 -225 900 175 
L 900 575 
Q 900 900 875 1275 
L 2800 1275 
Q 2875 1500 2925 1725 
L 1350 1725 
Q 925 1725 525 1700 
L 525 2125 
Q 900 2100 1325 2100 
L 5150 2100 
z
M 4700 5075 
Q 5075 5075 5550 5100 
L 5550 4675 
Q 5075 4700 4700 4700 
L 3475 4700 
L 3475 4275 
L 5975 4275 
L 5975 3100 
L 5500 3100 
L 5500 3900 
L 3475 3900 
L 3475 3200 
Q 3475 2775 3500 2425 
L 2975 2425 
Q 3000 2750 3000 3175 
L 3000 3900 
L 950 3900 
L 950 3100 
L 450 3100 
Q 450 3375 462 3650 
Q 475 3925 450 4275 
L 3000 4275 
L 3000 4700 
L 1775 4700 
Q 1400 4700 1025 4675 
L 1025 5100 
Q 1400 5075 1750 5075 
L 4700 5075 
z
M 2475 2450 
L 1250 2450 
L 1250 2800 
L 2475 2800 
L 2475 2450 
z
M 2500 3150 
L 1325 3150 
L 1325 3500 
L 2500 3500 
L 2500 3150 
z
M 5000 3175 
L 3825 3175 
L 3825 3525 
L 5000 3525 
L 5000 3175 
z
M 5025 2500 
L 3850 2500 
L 3850 2850 
L 5025 2850 
L 5025 2500 
z
" transform="scale(0.015625)"/>
       <path id="SimHei-6c42" d="M 475 4025 
Q 875 4000 1325 4000 
L 2875 4000 
Q 2875 4725 2850 5125 
L 3400 5125 
Q 3375 4725 3375 4000 
L 5150 4000 
Q 5500 4000 5925 4025 
L 5925 3575 
Q 5475 3600 5150 3600 
L 3375 3600 
Q 3400 3200 3612 2750 
Q 3825 2300 4050 2000 
Q 4600 2450 5075 3150 
Q 5250 2950 5575 2750 
Q 5275 2600 4250 1650 
Q 4575 1225 5037 850 
Q 5500 475 6050 325 
Q 5700 125 5550 -150 
Q 5000 150 4437 687 
Q 3875 1225 3375 2375 
L 3375 150 
Q 3400 -225 3137 -350 
Q 2875 -475 2375 -525 
Q 2325 -275 2150 25 
Q 2575 0 2737 37 
Q 2900 75 2875 300 
L 2875 1675 
Q 1875 900 1437 550 
Q 1000 200 725 -50 
Q 500 200 300 400 
Q 650 575 1200 937 
Q 1750 1300 2875 2250 
L 2875 3600 
L 1325 3600 
Q 875 3600 475 3575 
L 475 4025 
z
M 1225 3175 
Q 1775 2725 2250 2325 
L 1825 1950 
Q 1450 2375 825 2825 
L 1225 3175 
z
M 4500 5100 
Q 4900 4825 5300 4425 
Q 5125 4300 4925 4100 
Q 4650 4400 4125 4825 
Q 4275 4950 4500 5100 
z
" transform="scale(0.015625)"/>
       <path id="SimHei-91cf" d="M 5250 2500 
Q 5225 2200 5225 1700 
Q 5225 1225 5250 950 
L 3425 950 
L 3425 625 
L 4575 625 
Q 5000 625 5375 650 
L 5375 275 
Q 5025 300 4575 300 
L 3425 300 
L 3425 -75 
L 5125 -75 
Q 5525 -75 5925 -50 
L 5925 -425 
Q 5525 -400 5125 -400 
L 1275 -400 
Q 900 -400 475 -425 
L 475 -50 
Q 925 -50 1275 -75 
L 2975 -75 
L 2975 300 
L 1725 300 
Q 1350 300 975 250 
L 975 650 
Q 1375 625 1725 625 
L 2975 625 
L 2975 950 
L 1150 950 
Q 1175 1375 1175 1775 
Q 1175 2175 1150 2500 
L 5250 2500 
z
M 5200 4950 
Q 5175 4575 5175 4250 
Q 5175 3925 5200 3400 
L 1200 3400 
Q 1225 3925 1225 4250 
Q 1225 4575 1200 4950 
L 5200 4950 
z
M 4900 3100 
Q 5500 3125 6000 3150 
L 6000 2750 
Q 5500 2775 4925 2775 
L 1650 2775 
Q 975 2775 325 2750 
L 325 3150 
Q 975 3125 1650 3100 
L 4900 3100 
z
M 4725 3700 
L 4725 4025 
L 1675 4025 
L 1675 3700 
L 4725 3700 
z
M 4725 4350 
L 4725 4650 
L 1675 4650 
L 1675 4350 
L 4725 4350 
z
M 4750 1875 
L 4750 2175 
L 3425 2175 
L 3425 1875 
L 4750 1875 
z
M 2975 1875 
L 2975 2175 
L 1650 2175 
L 1650 1875 
L 2975 1875 
z
M 2975 1275 
L 2975 1550 
L 1650 1550 
L 1650 1275 
L 2975 1275 
z
M 4750 1275 
L 4750 1550 
L 3425 1550 
L 3425 1275 
L 4750 1275 
z
" transform="scale(0.015625)"/>
      </defs>
      <use xlink:href="#SimHei-9700"/>
      <use xlink:href="#SimHei-6c42" x="100"/>
      <use xlink:href="#SimHei-91cf" x="200"/>
     </g>
    </g>
   </g>
   <g id="line2d_15">
    <path d="M 115.363636 341.869091 
L 133.373319 341.869091 
L 151.383002 369.36 
L 166.39107 341.869091 
L 169.392684 341.869091 
L 172.394298 314.378182 
L 193.405594 341.869091 
L 196.407208 369.36 
L 211.415277 369.36 
L 220.420118 369.36 
L 223.421732 341.869091 
L 229.42496 341.869091 
L 235.428187 341.869091 
L 238.429801 314.378182 
L 247.434642 369.36 
L 253.43787 369.36 
L 259.441097 341.869091 
L 274.449166 369.36 
L 277.45078 369.36 
L 280.452394 369.36 
L 283.454008 204.414545 
L 286.455621 369.36 
L 292.458849 176.923636 
L 295.460463 176.923636 
L 298.462076 369.36 
L 301.46369 369.36 
L 307.466918 314.378182 
L 310.468531 286.887273 
L 313.470145 259.396364 
L 316.471759 286.887273 
L 319.473373 204.414545 
L 322.474987 286.887273 
L 325.4766 286.887273 
L 331.479828 94.450909 
L 334.481442 369.36 
L 337.483055 314.378182 
L 340.484669 259.396364 
L 343.486283 149.432727 
L 346.487897 314.378182 
L 349.48951 66.96 
L 352.491124 204.414545 
L 355.492738 231.905455 
L 358.494352 231.905455 
L 361.495966 341.869091 
L 364.497579 286.887273 
L 367.499193 204.414545 
L 370.500807 369.36 
L 373.502421 176.923636 
L 376.504034 176.923636 
L 379.505648 204.414545 
L 382.507262 121.941818 
L 385.508876 369.36 
L 388.51049 369.36 
L 391.512103 341.869091 
L 394.513717 341.869091 
L 397.515331 341.869091 
L 400.516945 369.36 
L 403.518558 341.869091 
L 406.520172 369.36 
L 412.5234 314.378182 
L 415.525013 259.396364 
L 418.526627 341.869091 
L 424.529855 286.887273 
L 430.533082 369.36 
L 433.534696 341.869091 
L 436.53631 231.905455 
L 439.537924 286.887273 
L 445.541151 314.378182 
L 448.542765 341.869091 
L 451.544379 314.378182 
L 454.545992 341.869091 
L 457.547606 314.378182 
L 460.54922 286.887273 
L 463.550834 204.414545 
L 466.552448 369.36 
L 472.555675 341.869091 
L 475.557289 314.378182 
L 481.560516 369.36 
L 484.56213 231.905455 
L 487.563744 369.36 
L 493.566971 286.887273 
L 496.568585 341.869091 
L 499.570199 149.432727 
L 502.571813 341.869091 
L 508.57504 259.396364 
L 511.576654 66.96 
L 514.578268 314.378182 
L 523.583109 286.887273 
L 526.584723 259.396364 
L 529.586337 286.887273 
L 532.587951 341.869091 
L 535.589564 286.887273 
L 538.591178 286.887273 
L 541.592792 369.36 
L 544.594406 259.396364 
L 547.596019 149.432727 
L 550.597633 259.396364 
L 553.599247 259.396364 
L 556.600861 286.887273 
L 559.602474 341.869091 
L 562.604088 149.432727 
L 565.605702 259.396364 
L 583.615385 369.36 
L 592.620226 369.36 
L 595.62184 314.378182 
L 598.623453 369.36 
L 604.626681 341.869091 
L 607.628295 341.869091 
L 613.631522 341.869091 
L 622.636364 369.36 
" clip-path="url(#p1330963832)" style="fill: none; stroke: #0000ff; stroke-width: 1.5; stroke-linecap: square"/>
    <defs>
     <path id="m240edc0698" d="M 0 3 
C 0.795609 3 1.55874 2.683901 2.12132 2.12132 
C 2.683901 1.55874 3 0.795609 3 0 
C 3 -0.795609 2.683901 -1.55874 2.12132 -2.12132 
C 1.55874 -2.683901 0.795609 -3 0 -3 
C -0.795609 -3 -1.55874 -2.683901 -2.12132 -2.12132 
C -2.683901 -1.55874 -3 -0.795609 -3 0 
C -3 0.795609 -2.683901 1.55874 -2.12132 2.12132 
C -1.55874 2.683901 -0.795609 3 0 3 
z
" style="stroke: #0000ff"/>
    </defs>
    <g clip-path="url(#p1330963832)">
     <use xlink:href="#m240edc0698" x="115.363636" y="341.869091" style="fill: #0000ff; stroke: #0000ff"/>
     <use xlink:href="#m240edc0698" x="133.373319" y="341.869091" style="fill: #0000ff; stroke: #0000ff"/>
     <use xlink:href="#m240edc0698" x="151.383002" y="369.36" style="fill: #0000ff; stroke: #0000ff"/>
     <use xlink:href="#m240edc0698" x="166.39107" y="341.869091" style="fill: #0000ff; stroke: #0000ff"/>
     <use xlink:href="#m240edc0698" x="169.392684" y="341.869091" style="fill: #0000ff; stroke: #0000ff"/>
     <use xlink:href="#m240edc0698" x="172.394298" y="314.378182" style="fill: #0000ff; stroke: #0000ff"/>
     <use xlink:href="#m240edc0698" x="193.405594" y="341.869091" style="fill: #0000ff; stroke: #0000ff"/>
     <use xlink:href="#m240edc0698" x="196.407208" y="369.36" style="fill: #0000ff; stroke: #0000ff"/>
     <use xlink:href="#m240edc0698" x="211.415277" y="369.36" style="fill: #0000ff; stroke: #0000ff"/>
     <use xlink:href="#m240edc0698" x="220.420118" y="369.36" style="fill: #0000ff; stroke: #0000ff"/>
     <use xlink:href="#m240edc0698" x="223.421732" y="341.869091" style="fill: #0000ff; stroke: #0000ff"/>
     <use xlink:href="#m240edc0698" x="229.42496" y="341.869091" style="fill: #0000ff; stroke: #0000ff"/>
     <use xlink:href="#m240edc0698" x="235.428187" y="341.869091" style="fill: #0000ff; stroke: #0000ff"/>
     <use xlink:href="#m240edc0698" x="238.429801" y="314.378182" style="fill: #0000ff; stroke: #0000ff"/>
     <use xlink:href="#m240edc0698" x="247.434642" y="369.36" style="fill: #0000ff; stroke: #0000ff"/>
     <use xlink:href="#m240edc0698" x="253.43787" y="369.36" style="fill: #0000ff; stroke: #0000ff"/>
     <use xlink:href="#m240edc0698" x="259.441097" y="341.869091" style="fill: #0000ff; stroke: #0000ff"/>
     <use xlink:href="#m240edc0698" x="274.449166" y="369.36" style="fill: #0000ff; stroke: #0000ff"/>
     <use xlink:href="#m240edc0698" x="277.45078" y="369.36" style="fill: #0000ff; stroke: #0000ff"/>
     <use xlink:href="#m240edc0698" x="280.452394" y="369.36" style="fill: #0000ff; stroke: #0000ff"/>
     <use xlink:href="#m240edc0698" x="283.454008" y="204.414545" style="fill: #0000ff; stroke: #0000ff"/>
     <use xlink:href="#m240edc0698" x="286.455621" y="369.36" style="fill: #0000ff; stroke: #0000ff"/>
     <use xlink:href="#m240edc0698" x="292.458849" y="176.923636" style="fill: #0000ff; stroke: #0000ff"/>
     <use xlink:href="#m240edc0698" x="295.460463" y="176.923636" style="fill: #0000ff; stroke: #0000ff"/>
     <use xlink:href="#m240edc0698" x="298.462076" y="369.36" style="fill: #0000ff; stroke: #0000ff"/>
     <use xlink:href="#m240edc0698" x="301.46369" y="369.36" style="fill: #0000ff; stroke: #0000ff"/>
     <use xlink:href="#m240edc0698" x="307.466918" y="314.378182" style="fill: #0000ff; stroke: #0000ff"/>
     <use xlink:href="#m240edc0698" x="310.468531" y="286.887273" style="fill: #0000ff; stroke: #0000ff"/>
     <use xlink:href="#m240edc0698" x="313.470145" y="259.396364" style="fill: #0000ff; stroke: #0000ff"/>
     <use xlink:href="#m240edc0698" x="316.471759" y="286.887273" style="fill: #0000ff; stroke: #0000ff"/>
     <use xlink:href="#m240edc0698" x="319.473373" y="204.414545" style="fill: #0000ff; stroke: #0000ff"/>
     <use xlink:href="#m240edc0698" x="322.474987" y="286.887273" style="fill: #0000ff; stroke: #0000ff"/>
     <use xlink:href="#m240edc0698" x="325.4766" y="286.887273" style="fill: #0000ff; stroke: #0000ff"/>
     <use xlink:href="#m240edc0698" x="331.479828" y="94.450909" style="fill: #0000ff; stroke: #0000ff"/>
     <use xlink:href="#m240edc0698" x="334.481442" y="369.36" style="fill: #0000ff; stroke: #0000ff"/>
     <use xlink:href="#m240edc0698" x="337.483055" y="314.378182" style="fill: #0000ff; stroke: #0000ff"/>
     <use xlink:href="#m240edc0698" x="340.484669" y="259.396364" style="fill: #0000ff; stroke: #0000ff"/>
     <use xlink:href="#m240edc0698" x="343.486283" y="149.432727" style="fill: #0000ff; stroke: #0000ff"/>
     <use xlink:href="#m240edc0698" x="346.487897" y="314.378182" style="fill: #0000ff; stroke: #0000ff"/>
     <use xlink:href="#m240edc0698" x="349.48951" y="66.96" style="fill: #0000ff; stroke: #0000ff"/>
     <use xlink:href="#m240edc0698" x="352.491124" y="204.414545" style="fill: #0000ff; stroke: #0000ff"/>
     <use xlink:href="#m240edc0698" x="355.492738" y="231.905455" style="fill: #0000ff; stroke: #0000ff"/>
     <use xlink:href="#m240edc0698" x="358.494352" y="231.905455" style="fill: #0000ff; stroke: #0000ff"/>
     <use xlink:href="#m240edc0698" x="361.495966" y="341.869091" style="fill: #0000ff; stroke: #0000ff"/>
     <use xlink:href="#m240edc0698" x="364.497579" y="286.887273" style="fill: #0000ff; stroke: #0000ff"/>
     <use xlink:href="#m240edc0698" x="367.499193" y="204.414545" style="fill: #0000ff; stroke: #0000ff"/>
     <use xlink:href="#m240edc0698" x="370.500807" y="369.36" style="fill: #0000ff; stroke: #0000ff"/>
     <use xlink:href="#m240edc0698" x="373.502421" y="176.923636" style="fill: #0000ff; stroke: #0000ff"/>
     <use xlink:href="#m240edc0698" x="376.504034" y="176.923636" style="fill: #0000ff; stroke: #0000ff"/>
     <use xlink:href="#m240edc0698" x="379.505648" y="204.414545" style="fill: #0000ff; stroke: #0000ff"/>
     <use xlink:href="#m240edc0698" x="382.507262" y="121.941818" style="fill: #0000ff; stroke: #0000ff"/>
     <use xlink:href="#m240edc0698" x="385.508876" y="369.36" style="fill: #0000ff; stroke: #0000ff"/>
     <use xlink:href="#m240edc0698" x="388.51049" y="369.36" style="fill: #0000ff; stroke: #0000ff"/>
     <use xlink:href="#m240edc0698" x="391.512103" y="341.869091" style="fill: #0000ff; stroke: #0000ff"/>
     <use xlink:href="#m240edc0698" x="394.513717" y="341.869091" style="fill: #0000ff; stroke: #0000ff"/>
     <use xlink:href="#m240edc0698" x="397.515331" y="341.869091" style="fill: #0000ff; stroke: #0000ff"/>
     <use xlink:href="#m240edc0698" x="400.516945" y="369.36" style="fill: #0000ff; stroke: #0000ff"/>
     <use xlink:href="#m240edc0698" x="403.518558" y="341.869091" style="fill: #0000ff; stroke: #0000ff"/>
     <use xlink:href="#m240edc0698" x="406.520172" y="369.36" style="fill: #0000ff; stroke: #0000ff"/>
     <use xlink:href="#m240edc0698" x="412.5234" y="314.378182" style="fill: #0000ff; stroke: #0000ff"/>
     <use xlink:href="#m240edc0698" x="415.525013" y="259.396364" style="fill: #0000ff; stroke: #0000ff"/>
     <use xlink:href="#m240edc0698" x="418.526627" y="341.869091" style="fill: #0000ff; stroke: #0000ff"/>
     <use xlink:href="#m240edc0698" x="424.529855" y="286.887273" style="fill: #0000ff; stroke: #0000ff"/>
     <use xlink:href="#m240edc0698" x="430.533082" y="369.36" style="fill: #0000ff; stroke: #0000ff"/>
     <use xlink:href="#m240edc0698" x="433.534696" y="341.869091" style="fill: #0000ff; stroke: #0000ff"/>
     <use xlink:href="#m240edc0698" x="436.53631" y="231.905455" style="fill: #0000ff; stroke: #0000ff"/>
     <use xlink:href="#m240edc0698" x="439.537924" y="286.887273" style="fill: #0000ff; stroke: #0000ff"/>
     <use xlink:href="#m240edc0698" x="445.541151" y="314.378182" style="fill: #0000ff; stroke: #0000ff"/>
     <use xlink:href="#m240edc0698" x="448.542765" y="341.869091" style="fill: #0000ff; stroke: #0000ff"/>
     <use xlink:href="#m240edc0698" x="451.544379" y="314.378182" style="fill: #0000ff; stroke: #0000ff"/>
     <use xlink:href="#m240edc0698" x="454.545992" y="341.869091" style="fill: #0000ff; stroke: #0000ff"/>
     <use xlink:href="#m240edc0698" x="457.547606" y="314.378182" style="fill: #0000ff; stroke: #0000ff"/>
     <use xlink:href="#m240edc0698" x="460.54922" y="286.887273" style="fill: #0000ff; stroke: #0000ff"/>
     <use xlink:href="#m240edc0698" x="463.550834" y="204.414545" style="fill: #0000ff; stroke: #0000ff"/>
     <use xlink:href="#m240edc0698" x="466.552448" y="369.36" style="fill: #0000ff; stroke: #0000ff"/>
     <use xlink:href="#m240edc0698" x="472.555675" y="341.869091" style="fill: #0000ff; stroke: #0000ff"/>
     <use xlink:href="#m240edc0698" x="475.557289" y="314.378182" style="fill: #0000ff; stroke: #0000ff"/>
     <use xlink:href="#m240edc0698" x="481.560516" y="369.36" style="fill: #0000ff; stroke: #0000ff"/>
     <use xlink:href="#m240edc0698" x="484.56213" y="231.905455" style="fill: #0000ff; stroke: #0000ff"/>
     <use xlink:href="#m240edc0698" x="487.563744" y="369.36" style="fill: #0000ff; stroke: #0000ff"/>
     <use xlink:href="#m240edc0698" x="493.566971" y="286.887273" style="fill: #0000ff; stroke: #0000ff"/>
     <use xlink:href="#m240edc0698" x="496.568585" y="341.869091" style="fill: #0000ff; stroke: #0000ff"/>
     <use xlink:href="#m240edc0698" x="499.570199" y="149.432727" style="fill: #0000ff; stroke: #0000ff"/>
     <use xlink:href="#m240edc0698" x="502.571813" y="341.869091" style="fill: #0000ff; stroke: #0000ff"/>
     <use xlink:href="#m240edc0698" x="508.57504" y="259.396364" style="fill: #0000ff; stroke: #0000ff"/>
     <use xlink:href="#m240edc0698" x="511.576654" y="66.96" style="fill: #0000ff; stroke: #0000ff"/>
     <use xlink:href="#m240edc0698" x="514.578268" y="314.378182" style="fill: #0000ff; stroke: #0000ff"/>
     <use xlink:href="#m240edc0698" x="523.583109" y="286.887273" style="fill: #0000ff; stroke: #0000ff"/>
     <use xlink:href="#m240edc0698" x="526.584723" y="259.396364" style="fill: #0000ff; stroke: #0000ff"/>
     <use xlink:href="#m240edc0698" x="529.586337" y="286.887273" style="fill: #0000ff; stroke: #0000ff"/>
     <use xlink:href="#m240edc0698" x="532.587951" y="341.869091" style="fill: #0000ff; stroke: #0000ff"/>
     <use xlink:href="#m240edc0698" x="535.589564" y="286.887273" style="fill: #0000ff; stroke: #0000ff"/>
     <use xlink:href="#m240edc0698" x="538.591178" y="286.887273" style="fill: #0000ff; stroke: #0000ff"/>
     <use xlink:href="#m240edc0698" x="541.592792" y="369.36" style="fill: #0000ff; stroke: #0000ff"/>
     <use xlink:href="#m240edc0698" x="544.594406" y="259.396364" style="fill: #0000ff; stroke: #0000ff"/>
     <use xlink:href="#m240edc0698" x="547.596019" y="149.432727" style="fill: #0000ff; stroke: #0000ff"/>
     <use xlink:href="#m240edc0698" x="550.597633" y="259.396364" style="fill: #0000ff; stroke: #0000ff"/>
     <use xlink:href="#m240edc0698" x="553.599247" y="259.396364" style="fill: #0000ff; stroke: #0000ff"/>
     <use xlink:href="#m240edc0698" x="556.600861" y="286.887273" style="fill: #0000ff; stroke: #0000ff"/>
     <use xlink:href="#m240edc0698" x="559.602474" y="341.869091" style="fill: #0000ff; stroke: #0000ff"/>
     <use xlink:href="#m240edc0698" x="562.604088" y="149.432727" style="fill: #0000ff; stroke: #0000ff"/>
     <use xlink:href="#m240edc0698" x="565.605702" y="259.396364" style="fill: #0000ff; stroke: #0000ff"/>
     <use xlink:href="#m240edc0698" x="583.615385" y="369.36" style="fill: #0000ff; stroke: #0000ff"/>
     <use xlink:href="#m240edc0698" x="592.620226" y="369.36" style="fill: #0000ff; stroke: #0000ff"/>
     <use xlink:href="#m240edc0698" x="595.62184" y="314.378182" style="fill: #0000ff; stroke: #0000ff"/>
     <use xlink:href="#m240edc0698" x="598.623453" y="369.36" style="fill: #0000ff; stroke: #0000ff"/>
     <use xlink:href="#m240edc0698" x="604.626681" y="341.869091" style="fill: #0000ff; stroke: #0000ff"/>
     <use xlink:href="#m240edc0698" x="607.628295" y="341.869091" style="fill: #0000ff; stroke: #0000ff"/>
     <use xlink:href="#m240edc0698" x="613.631522" y="341.869091" style="fill: #0000ff; stroke: #0000ff"/>
     <use xlink:href="#m240edc0698" x="622.636364" y="369.36" style="fill: #0000ff; stroke: #0000ff"/>
    </g>
   </g>
   <g id="patch_3">
    <path d="M 90 384.48 
L 90 51.84 
" style="fill: none; stroke: #000000; stroke-width: 0.8; stroke-linejoin: miter; stroke-linecap: square"/>
   </g>
   <g id="patch_4">
    <path d="M 648 384.48 
L 648 51.84 
" style="fill: none; stroke: #000000; stroke-width: 0.8; stroke-linejoin: miter; stroke-linecap: square"/>
   </g>
   <g id="patch_5">
    <path d="M 90 384.48 
L 648 384.48 
" style="fill: none; stroke: #000000; stroke-width: 0.8; stroke-linejoin: miter; stroke-linecap: square"/>
   </g>
   <g id="patch_6">
    <path d="M 90 51.84 
L 648 51.84 
" style="fill: none; stroke: #000000; stroke-width: 0.8; stroke-linejoin: miter; stroke-linecap: square"/>
   </g>
  </g>
  <g id="axes_2">
   <g id="matplotlib.axis_3">
    <g id="ytick_7">
     <g id="line2d_16">
      <defs>
       <path id="m3f55617439" d="M 0 0 
L 3.5 0 
" style="stroke: #000000; stroke-width: 0.8"/>
      </defs>
      <g>
       <use xlink:href="#m3f55617439" x="648" y="334.097783" style="stroke: #000000; stroke-width: 0.8"/>
      </g>
     </g>
     <g id="text_17">
      <!-- 10000 -->
      <g style="fill: #008000" transform="translate(655 337.535283) scale(0.1 -0.1)">
       <use xlink:href="#SimHei-31"/>
       <use xlink:href="#SimHei-30" x="50"/>
       <use xlink:href="#SimHei-30" x="100"/>
       <use xlink:href="#SimHei-30" x="150"/>
       <use xlink:href="#SimHei-30" x="200"/>
      </g>
     </g>
    </g>
    <g id="ytick_8">
     <g id="line2d_17">
      <g>
       <use xlink:href="#m3f55617439" x="648" y="272.118395" style="stroke: #000000; stroke-width: 0.8"/>
      </g>
     </g>
     <g id="text_18">
      <!-- 20000 -->
      <g style="fill: #008000" transform="translate(655 275.555895) scale(0.1 -0.1)">
       <use xlink:href="#SimHei-32"/>
       <use xlink:href="#SimHei-30" x="50"/>
       <use xlink:href="#SimHei-30" x="100"/>
       <use xlink:href="#SimHei-30" x="150"/>
       <use xlink:href="#SimHei-30" x="200"/>
      </g>
     </g>
    </g>
    <g id="ytick_9">
     <g id="line2d_18">
      <g>
       <use xlink:href="#m3f55617439" x="648" y="210.139007" style="stroke: #000000; stroke-width: 0.8"/>
      </g>
     </g>
     <g id="text_19">
      <!-- 30000 -->
      <g style="fill: #008000" transform="translate(655 213.576507) scale(0.1 -0.1)">
       <defs>
        <path id="SimHei-33" d="M 250 1225 
L 700 1300 
Q 800 975 1025 762 
Q 1250 550 1587 562 
Q 1925 575 2125 837 
Q 2325 1100 2300 1437 
Q 2275 1775 2037 1962 
Q 1800 2150 1275 2225 
L 1275 2550 
Q 1800 2600 2037 2825 
Q 2275 3050 2250 3412 
Q 2225 3775 1925 3937 
Q 1625 4100 1287 3975 
Q 950 3850 750 3275 
L 300 3350 
Q 450 3800 712 4100 
Q 975 4400 1425 4450 
Q 1875 4500 2212 4337 
Q 2550 4175 2687 3837 
Q 2825 3500 2725 3100 
Q 2625 2700 2150 2400 
Q 2500 2250 2687 1950 
Q 2875 1650 2812 1162 
Q 2750 675 2375 375 
Q 2000 75 1525 87 
Q 1050 100 700 387 
Q 350 675 250 1225 
z
" transform="scale(0.015625)"/>
       </defs>
       <use xlink:href="#SimHei-33"/>
       <use xlink:href="#SimHei-30" x="50"/>
       <use xlink:href="#SimHei-30" x="100"/>
       <use xlink:href="#SimHei-30" x="150"/>
       <use xlink:href="#SimHei-30" x="200"/>
      </g>
     </g>
    </g>
    <g id="ytick_10">
     <g id="line2d_19">
      <g>
       <use xlink:href="#m3f55617439" x="648" y="148.159618" style="stroke: #000000; stroke-width: 0.8"/>
      </g>
     </g>
     <g id="text_20">
      <!-- 40000 -->
      <g style="fill: #008000" transform="translate(655 151.597118) scale(0.1 -0.1)">
       <use xlink:href="#SimHei-34"/>
       <use xlink:href="#SimHei-30" x="50"/>
       <use xlink:href="#SimHei-30" x="100"/>
       <use xlink:href="#SimHei-30" x="150"/>
       <use xlink:href="#SimHei-30" x="200"/>
      </g>
     </g>
    </g>
    <g id="ytick_11">
     <g id="line2d_20">
      <g>
       <use xlink:href="#m3f55617439" x="648" y="86.18023" style="stroke: #000000; stroke-width: 0.8"/>
      </g>
     </g>
     <g id="text_21">
      <!-- 50000 -->
      <g style="fill: #008000" transform="translate(655 89.61773) scale(0.1 -0.1)">
       <use xlink:href="#SimHei-35"/>
       <use xlink:href="#SimHei-30" x="50"/>
       <use xlink:href="#SimHei-30" x="100"/>
       <use xlink:href="#SimHei-30" x="150"/>
       <use xlink:href="#SimHei-30" x="200"/>
      </g>
     </g>
    </g>
    <g id="text_22">
     <!-- 收益 -->
     <g style="fill: #008000" transform="translate(691.929688 228.16) rotate(-90) scale(0.1 -0.1)">
      <defs>
       <path id="SimHei-6536" d="M 4250 5050 
Q 4125 4850 3750 4050 
L 5150 4050 
Q 5675 4050 6125 4075 
L 6125 3600 
Q 5675 3625 5300 3625 
Q 5225 2625 5025 1975 
Q 4825 1325 4575 900 
Q 4900 500 5287 275 
Q 5675 50 6200 -75 
Q 5900 -275 5800 -550 
Q 5300 -350 4950 -100 
Q 4600 150 4275 525 
Q 3800 0 2775 -625 
Q 2650 -425 2300 -225 
Q 3275 150 3950 925 
Q 3775 1325 3612 1787 
Q 3450 2250 3250 3000 
Q 2975 2450 2825 2275 
Q 2650 2400 2425 2525 
Q 2775 3025 3137 3837 
Q 3500 4650 3625 5250 
Q 3925 5125 4250 5050 
z
M 975 4275 
Q 925 3950 925 3450 
L 925 1575 
L 1775 1725 
L 1775 4425 
Q 1775 4775 1750 5150 
L 2250 5150 
Q 2225 4850 2225 4450 
L 2225 300 
Q 2225 -50 2250 -550 
L 1750 -550 
Q 1775 -25 1775 350 
L 1775 1350 
Q 625 1050 500 925 
Q 375 1125 225 1350 
Q 450 1475 450 1800 
L 450 3575 
Q 450 3925 425 4275 
L 975 4275 
z
M 3725 3150 
Q 3800 2700 3962 2212 
Q 4125 1725 4300 1375 
Q 4725 2150 4825 3625 
L 3575 3625 
Q 3400 3275 3300 3100 
L 3725 3150 
z
" transform="scale(0.015625)"/>
       <path id="SimHei-76ca" d="M 2825 2925 
Q 2425 2775 2012 2487 
Q 1600 2200 1225 1975 
L 5275 1975 
Q 5250 1575 5250 1000 
L 5250 -50 
Q 5800 -50 6175 -25 
L 6175 -525 
Q 5725 -500 5250 -500 
L 1325 -500 
Q 700 -500 250 -525 
L 250 -25 
Q 600 -50 1175 -50 
L 1175 1050 
Q 1175 1575 1150 1925 
Q 1000 1800 800 1700 
Q 650 1950 425 2125 
Q 800 2275 1312 2600 
Q 1825 2925 2325 3400 
Q 2550 3150 2825 2925 
z
M 4725 5050 
Q 4575 4900 4462 4637 
Q 4350 4375 4175 4075 
L 4625 4075 
Q 5350 4075 5900 4100 
L 5900 3625 
Q 5350 3650 4625 3650 
L 1975 3650 
Q 1350 3650 550 3625 
L 550 4100 
Q 1175 4075 1975 4075 
L 3675 4075 
Q 3775 4300 3887 4625 
Q 4000 4950 4125 5250 
L 4725 5050 
z
M 3600 -50 
L 3600 1575 
L 2800 1575 
L 2800 -50 
L 3600 -50 
z
M 4800 -50 
L 4800 1575 
L 4025 1575 
L 4025 -50 
L 4800 -50 
z
M 2375 -50 
L 2375 1575 
L 1625 1575 
L 1625 -50 
L 2375 -50 
z
M 3900 3350 
Q 4375 3150 4900 2925 
Q 5425 2700 5900 2500 
Q 5700 2300 5550 2000 
Q 5025 2300 4512 2537 
Q 4000 2775 3625 2900 
Q 3750 3075 3900 3350 
z
M 2150 5250 
Q 2375 4925 2650 4350 
Q 2425 4275 2150 4125 
Q 1950 4650 1675 5025 
Q 1875 5100 2150 5250 
z
" transform="scale(0.015625)"/>
      </defs>
      <use xlink:href="#SimHei-6536"/>
      <use xlink:href="#SimHei-76ca" x="100"/>
     </g>
    </g>
   </g>
   <g id="line2d_21">
    <path d="M 115.363636 342.638977 
L 133.373319 342.642758 
L 151.383002 369.359965 
L 166.39107 342.642758 
L 169.392684 342.64282 
L 172.394298 315.925588 
L 193.405594 342.642832 
L 196.407208 369.36 
L 211.415277 369.36 
L 220.420118 369.36 
L 223.421732 342.64284 
L 229.42496 342.64284 
L 235.428187 342.64282 
L 238.429801 314.378173 
L 247.434642 368.742368 
L 253.43787 368.742368 
L 259.441097 341.407563 
L 274.449166 368.742368 
L 277.45078 368.742368 
L 280.452394 368.742368 
L 283.454008 204.474831 
L 286.455621 368.677692 
L 292.458849 176.881332 
L 295.460463 176.834158 
L 298.462076 368.654105 
L 301.46369 368.654105 
L 307.466918 313.80797 
L 310.468531 286.371444 
L 313.470145 258.945012 
L 316.471759 286.371448 
L 319.473373 204.092156 
L 322.474987 286.37145 
L 325.4766 286.37145 
L 331.479828 94.38639 
L 334.481442 368.650734 
L 337.483055 313.797879 
L 340.484669 258.945017 
L 343.486283 149.239311 
L 346.487897 313.797885 
L 349.48951 66.96 
L 352.491124 204.092132 
L 355.492738 231.518549 
L 358.494352 231.518586 
L 361.495966 341.22431 
L 364.497579 286.371448 
L 367.499193 204.092118 
L 370.500807 368.650734 
L 373.502421 176.665674 
L 376.504034 176.665696 
L 379.505648 204.092162 
L 382.507262 121.812871 
L 385.508876 368.653143 
L 388.51049 368.650743 
L 391.512103 341.229114 
L 394.513717 341.229114 
L 397.515331 341.226714 
L 400.516945 368.650743 
L 403.518558 341.224933 
L 406.520172 368.651364 
L 412.5234 313.799749 
L 415.525013 258.948099 
L 418.526627 341.224926 
L 424.529855 286.373297 
L 430.533082 368.651357 
L 433.534696 341.22585 
L 436.53631 231.522416 
L 439.537924 286.374572 
L 445.541151 313.800238 
L 448.542765 341.226157 
L 451.544379 313.800238 
L 454.545992 341.225708 
L 457.547606 313.80068 
L 460.54922 286.374308 
L 463.550834 204.096965 
L 466.552448 368.651354 
L 472.555675 341.225623 
L 475.557289 313.799977 
L 481.560516 368.651379 
L 484.56213 231.522533 
L 487.563744 368.651408 
L 493.566971 286.374118 
L 496.568585 341.225622 
L 499.570199 149.245301 
L 502.571813 341.225645 
L 508.57504 258.948233 
L 511.576654 66.967719 
L 514.578268 313.79981 
L 523.583109 274.228217 
L 526.584723 240.959047 
L 529.586337 270.630381 
L 532.587951 332.677631 
L 535.589564 271.982672 
L 538.591178 269.27809 
L 541.592792 365.053547 
L 544.594406 236.12063 
L 547.596019 105.736028 
L 550.597633 235.71728 
L 553.599247 235.71728 
L 556.600861 266.095796 
L 559.602474 330.99243 
L 562.604088 104.042318 
L 565.605702 233.083156 
L 583.615385 363.553612 
L 592.620226 363.553612 
L 595.62184 298.393627 
L 598.623453 363.440747 
L 604.626681 330.917187 
L 607.628295 331.030051 
L 613.631522 331.030051 
L 622.636364 363.440747 
" clip-path="url(#p1330963832)" style="fill: none; stroke: #008000; stroke-width: 1.5; stroke-linecap: square"/>
    <defs>
     <path id="m5a31450c4a" d="M 0 3 
C 0.795609 3 1.55874 2.683901 2.12132 2.12132 
C 2.683901 1.55874 3 0.795609 3 0 
C 3 -0.795609 2.683901 -1.55874 2.12132 -2.12132 
C 1.55874 -2.683901 0.795609 -3 0 -3 
C -0.795609 -3 -1.55874 -2.683901 -2.12132 -2.12132 
C -2.683901 -1.55874 -3 -0.795609 -3 0 
C -3 0.795609 -2.683901 1.55874 -2.12132 2.12132 
C -1.55874 2.683901 -0.795609 3 0 3 
z
" style="stroke: #008000"/>
    </defs>
    <g clip-path="url(#p1330963832)">
     <use xlink:href="#m5a31450c4a" x="115.363636" y="342.638977" style="fill: #008000; stroke: #008000"/>
     <use xlink:href="#m5a31450c4a" x="133.373319" y="342.642758" style="fill: #008000; stroke: #008000"/>
     <use xlink:href="#m5a31450c4a" x="151.383002" y="369.359965" style="fill: #008000; stroke: #008000"/>
     <use xlink:href="#m5a31450c4a" x="166.39107" y="342.642758" style="fill: #008000; stroke: #008000"/>
     <use xlink:href="#m5a31450c4a" x="169.392684" y="342.64282" style="fill: #008000; stroke: #008000"/>
     <use xlink:href="#m5a31450c4a" x="172.394298" y="315.925588" style="fill: #008000; stroke: #008000"/>
     <use xlink:href="#m5a31450c4a" x="193.405594" y="342.642832" style="fill: #008000; stroke: #008000"/>
     <use xlink:href="#m5a31450c4a" x="196.407208" y="369.36" style="fill: #008000; stroke: #008000"/>
     <use xlink:href="#m5a31450c4a" x="211.415277" y="369.36" style="fill: #008000; stroke: #008000"/>
     <use xlink:href="#m5a31450c4a" x="220.420118" y="369.36" style="fill: #008000; stroke: #008000"/>
     <use xlink:href="#m5a31450c4a" x="223.421732" y="342.64284" style="fill: #008000; stroke: #008000"/>
     <use xlink:href="#m5a31450c4a" x="229.42496" y="342.64284" style="fill: #008000; stroke: #008000"/>
     <use xlink:href="#m5a31450c4a" x="235.428187" y="342.64282" style="fill: #008000; stroke: #008000"/>
     <use xlink:href="#m5a31450c4a" x="238.429801" y="314.378173" style="fill: #008000; stroke: #008000"/>
     <use xlink:href="#m5a31450c4a" x="247.434642" y="368.742368" style="fill: #008000; stroke: #008000"/>
     <use xlink:href="#m5a31450c4a" x="253.43787" y="368.742368" style="fill: #008000; stroke: #008000"/>
     <use xlink:href="#m5a31450c4a" x="259.441097" y="341.407563" style="fill: #008000; stroke: #008000"/>
     <use xlink:href="#m5a31450c4a" x="274.449166" y="368.742368" style="fill: #008000; stroke: #008000"/>
     <use xlink:href="#m5a31450c4a" x="277.45078" y="368.742368" style="fill: #008000; stroke: #008000"/>
     <use xlink:href="#m5a31450c4a" x="280.452394" y="368.742368" style="fill: #008000; stroke: #008000"/>
     <use xlink:href="#m5a31450c4a" x="283.454008" y="204.474831" style="fill: #008000; stroke: #008000"/>
     <use xlink:href="#m5a31450c4a" x="286.455621" y="368.677692" style="fill: #008000; stroke: #008000"/>
     <use xlink:href="#m5a31450c4a" x="292.458849" y="176.881332" style="fill: #008000; stroke: #008000"/>
     <use xlink:href="#m5a31450c4a" x="295.460463" y="176.834158" style="fill: #008000; stroke: #008000"/>
     <use xlink:href="#m5a31450c4a" x="298.462076" y="368.654105" style="fill: #008000; stroke: #008000"/>
     <use xlink:href="#m5a31450c4a" x="301.46369" y="368.654105" style="fill: #008000; stroke: #008000"/>
     <use xlink:href="#m5a31450c4a" x="307.466918" y="313.80797" style="fill: #008000; stroke: #008000"/>
     <use xlink:href="#m5a31450c4a" x="310.468531" y="286.371444" style="fill: #008000; stroke: #008000"/>
     <use xlink:href="#m5a31450c4a" x="313.470145" y="258.945012" style="fill: #008000; stroke: #008000"/>
     <use xlink:href="#m5a31450c4a" x="316.471759" y="286.371448" style="fill: #008000; stroke: #008000"/>
     <use xlink:href="#m5a31450c4a" x="319.473373" y="204.092156" style="fill: #008000; stroke: #008000"/>
     <use xlink:href="#m5a31450c4a" x="322.474987" y="286.37145" style="fill: #008000; stroke: #008000"/>
     <use xlink:href="#m5a31450c4a" x="325.4766" y="286.37145" style="fill: #008000; stroke: #008000"/>
     <use xlink:href="#m5a31450c4a" x="331.479828" y="94.38639" style="fill: #008000; stroke: #008000"/>
     <use xlink:href="#m5a31450c4a" x="334.481442" y="368.650734" style="fill: #008000; stroke: #008000"/>
     <use xlink:href="#m5a31450c4a" x="337.483055" y="313.797879" style="fill: #008000; stroke: #008000"/>
     <use xlink:href="#m5a31450c4a" x="340.484669" y="258.945017" style="fill: #008000; stroke: #008000"/>
     <use xlink:href="#m5a31450c4a" x="343.486283" y="149.239311" style="fill: #008000; stroke: #008000"/>
     <use xlink:href="#m5a31450c4a" x="346.487897" y="313.797885" style="fill: #008000; stroke: #008000"/>
     <use xlink:href="#m5a31450c4a" x="349.48951" y="66.96" style="fill: #008000; stroke: #008000"/>
     <use xlink:href="#m5a31450c4a" x="352.491124" y="204.092132" style="fill: #008000; stroke: #008000"/>
     <use xlink:href="#m5a31450c4a" x="355.492738" y="231.518549" style="fill: #008000; stroke: #008000"/>
     <use xlink:href="#m5a31450c4a" x="358.494352" y="231.518586" style="fill: #008000; stroke: #008000"/>
     <use xlink:href="#m5a31450c4a" x="361.495966" y="341.22431" style="fill: #008000; stroke: #008000"/>
     <use xlink:href="#m5a31450c4a" x="364.497579" y="286.371448" style="fill: #008000; stroke: #008000"/>
     <use xlink:href="#m5a31450c4a" x="367.499193" y="204.092118" style="fill: #008000; stroke: #008000"/>
     <use xlink:href="#m5a31450c4a" x="370.500807" y="368.650734" style="fill: #008000; stroke: #008000"/>
     <use xlink:href="#m5a31450c4a" x="373.502421" y="176.665674" style="fill: #008000; stroke: #008000"/>
     <use xlink:href="#m5a31450c4a" x="376.504034" y="176.665696" style="fill: #008000; stroke: #008000"/>
     <use xlink:href="#m5a31450c4a" x="379.505648" y="204.092162" style="fill: #008000; stroke: #008000"/>
     <use xlink:href="#m5a31450c4a" x="382.507262" y="121.812871" style="fill: #008000; stroke: #008000"/>
     <use xlink:href="#m5a31450c4a" x="385.508876" y="368.653143" style="fill: #008000; stroke: #008000"/>
     <use xlink:href="#m5a31450c4a" x="388.51049" y="368.650743" style="fill: #008000; stroke: #008000"/>
     <use xlink:href="#m5a31450c4a" x="391.512103" y="341.229114" style="fill: #008000; stroke: #008000"/>
     <use xlink:href="#m5a31450c4a" x="394.513717" y="341.229114" style="fill: #008000; stroke: #008000"/>
     <use xlink:href="#m5a31450c4a" x="397.515331" y="341.226714" style="fill: #008000; stroke: #008000"/>
     <use xlink:href="#m5a31450c4a" x="400.516945" y="368.650743" style="fill: #008000; stroke: #008000"/>
     <use xlink:href="#m5a31450c4a" x="403.518558" y="341.224933" style="fill: #008000; stroke: #008000"/>
     <use xlink:href="#m5a31450c4a" x="406.520172" y="368.651364" style="fill: #008000; stroke: #008000"/>
     <use xlink:href="#m5a31450c4a" x="412.5234" y="313.799749" style="fill: #008000; stroke: #008000"/>
     <use xlink:href="#m5a31450c4a" x="415.525013" y="258.948099" style="fill: #008000; stroke: #008000"/>
     <use xlink:href="#m5a31450c4a" x="418.526627" y="341.224926" style="fill: #008000; stroke: #008000"/>
     <use xlink:href="#m5a31450c4a" x="424.529855" y="286.373297" style="fill: #008000; stroke: #008000"/>
     <use xlink:href="#m5a31450c4a" x="430.533082" y="368.651357" style="fill: #008000; stroke: #008000"/>
     <use xlink:href="#m5a31450c4a" x="433.534696" y="341.22585" style="fill: #008000; stroke: #008000"/>
     <use xlink:href="#m5a31450c4a" x="436.53631" y="231.522416" style="fill: #008000; stroke: #008000"/>
     <use xlink:href="#m5a31450c4a" x="439.537924" y="286.374572" style="fill: #008000; stroke: #008000"/>
     <use xlink:href="#m5a31450c4a" x="445.541151" y="313.800238" style="fill: #008000; stroke: #008000"/>
     <use xlink:href="#m5a31450c4a" x="448.542765" y="341.226157" style="fill: #008000; stroke: #008000"/>
     <use xlink:href="#m5a31450c4a" x="451.544379" y="313.800238" style="fill: #008000; stroke: #008000"/>
     <use xlink:href="#m5a31450c4a" x="454.545992" y="341.225708" style="fill: #008000; stroke: #008000"/>
     <use xlink:href="#m5a31450c4a" x="457.547606" y="313.80068" style="fill: #008000; stroke: #008000"/>
     <use xlink:href="#m5a31450c4a" x="460.54922" y="286.374308" style="fill: #008000; stroke: #008000"/>
     <use xlink:href="#m5a31450c4a" x="463.550834" y="204.096965" style="fill: #008000; stroke: #008000"/>
     <use xlink:href="#m5a31450c4a" x="466.552448" y="368.651354" style="fill: #008000; stroke: #008000"/>
     <use xlink:href="#m5a31450c4a" x="472.555675" y="341.225623" style="fill: #008000; stroke: #008000"/>
     <use xlink:href="#m5a31450c4a" x="475.557289" y="313.799977" style="fill: #008000; stroke: #008000"/>
     <use xlink:href="#m5a31450c4a" x="481.560516" y="368.651379" style="fill: #008000; stroke: #008000"/>
     <use xlink:href="#m5a31450c4a" x="484.56213" y="231.522533" style="fill: #008000; stroke: #008000"/>
     <use xlink:href="#m5a31450c4a" x="487.563744" y="368.651408" style="fill: #008000; stroke: #008000"/>
     <use xlink:href="#m5a31450c4a" x="493.566971" y="286.374118" style="fill: #008000; stroke: #008000"/>
     <use xlink:href="#m5a31450c4a" x="496.568585" y="341.225622" style="fill: #008000; stroke: #008000"/>
     <use xlink:href="#m5a31450c4a" x="499.570199" y="149.245301" style="fill: #008000; stroke: #008000"/>
     <use xlink:href="#m5a31450c4a" x="502.571813" y="341.225645" style="fill: #008000; stroke: #008000"/>
     <use xlink:href="#m5a31450c4a" x="508.57504" y="258.948233" style="fill: #008000; stroke: #008000"/>
     <use xlink:href="#m5a31450c4a" x="511.576654" y="66.967719" style="fill: #008000; stroke: #008000"/>
     <use xlink:href="#m5a31450c4a" x="514.578268" y="313.79981" style="fill: #008000; stroke: #008000"/>
     <use xlink:href="#m5a31450c4a" x="523.583109" y="274.228217" style="fill: #008000; stroke: #008000"/>
     <use xlink:href="#m5a31450c4a" x="526.584723" y="240.959047" style="fill: #008000; stroke: #008000"/>
     <use xlink:href="#m5a31450c4a" x="529.586337" y="270.630381" style="fill: #008000; stroke: #008000"/>
     <use xlink:href="#m5a31450c4a" x="532.587951" y="332.677631" style="fill: #008000; stroke: #008000"/>
     <use xlink:href="#m5a31450c4a" x="535.589564" y="271.982672" style="fill: #008000; stroke: #008000"/>
     <use xlink:href="#m5a31450c4a" x="538.591178" y="269.27809" style="fill: #008000; stroke: #008000"/>
     <use xlink:href="#m5a31450c4a" x="541.592792" y="365.053547" style="fill: #008000; stroke: #008000"/>
     <use xlink:href="#m5a31450c4a" x="544.594406" y="236.12063" style="fill: #008000; stroke: #008000"/>
     <use xlink:href="#m5a31450c4a" x="547.596019" y="105.736028" style="fill: #008000; stroke: #008000"/>
     <use xlink:href="#m5a31450c4a" x="550.597633" y="235.71728" style="fill: #008000; stroke: #008000"/>
     <use xlink:href="#m5a31450c4a" x="553.599247" y="235.71728" style="fill: #008000; stroke: #008000"/>
     <use xlink:href="#m5a31450c4a" x="556.600861" y="266.095796" style="fill: #008000; stroke: #008000"/>
     <use xlink:href="#m5a31450c4a" x="559.602474" y="330.99243" style="fill: #008000; stroke: #008000"/>
     <use xlink:href="#m5a31450c4a" x="562.604088" y="104.042318" style="fill: #008000; stroke: #008000"/>
     <use xlink:href="#m5a31450c4a" x="565.605702" y="233.083156" style="fill: #008000; stroke: #008000"/>
     <use xlink:href="#m5a31450c4a" x="583.615385" y="363.553612" style="fill: #008000; stroke: #008000"/>
     <use xlink:href="#m5a31450c4a" x="592.620226" y="363.553612" style="fill: #008000; stroke: #008000"/>
     <use xlink:href="#m5a31450c4a" x="595.62184" y="298.393627" style="fill: #008000; stroke: #008000"/>
     <use xlink:href="#m5a31450c4a" x="598.623453" y="363.440747" style="fill: #008000; stroke: #008000"/>
     <use xlink:href="#m5a31450c4a" x="604.626681" y="330.917187" style="fill: #008000; stroke: #008000"/>
     <use xlink:href="#m5a31450c4a" x="607.628295" y="331.030051" style="fill: #008000; stroke: #008000"/>
     <use xlink:href="#m5a31450c4a" x="613.631522" y="331.030051" style="fill: #008000; stroke: #008000"/>
     <use xlink:href="#m5a31450c4a" x="622.636364" y="363.440747" style="fill: #008000; stroke: #008000"/>
    </g>
   </g>
   <g id="patch_7">
    <path d="M 90 384.48 
L 90 51.84 
" style="fill: none; stroke: #000000; stroke-width: 0.8; stroke-linejoin: miter; stroke-linecap: square"/>
   </g>
   <g id="patch_8">
    <path d="M 648 384.48 
L 648 51.84 
" style="fill: none; stroke: #000000; stroke-width: 0.8; stroke-linejoin: miter; stroke-linecap: square"/>
   </g>
   <g id="patch_9">
    <path d="M 90 384.48 
L 648 384.48 
" style="fill: none; stroke: #000000; stroke-width: 0.8; stroke-linejoin: miter; stroke-linecap: square"/>
   </g>
   <g id="patch_10">
    <path d="M 90 51.84 
L 648 51.84 
" style="fill: none; stroke: #000000; stroke-width: 0.8; stroke-linejoin: miter; stroke-linecap: square"/>
   </g>
  </g>
  <g id="axes_3">
   <g id="matplotlib.axis_4">
    <g id="ytick_12">
     <g id="line2d_22">
      <g>
       <use xlink:href="#m3f55617439" x="708" y="341.069534" style="stroke: #000000; stroke-width: 0.8"/>
      </g>
     </g>
     <g id="text_23">
      <!-- 4400 -->
      <g style="fill: #ff0000" transform="translate(715 344.507034) scale(0.1 -0.1)">
       <use xlink:href="#SimHei-34"/>
       <use xlink:href="#SimHei-34" x="50"/>
       <use xlink:href="#SimHei-30" x="100"/>
       <use xlink:href="#SimHei-30" x="150"/>
      </g>
     </g>
    </g>
    <g id="ytick_13">
     <g id="line2d_23">
      <g>
       <use xlink:href="#m3f55617439" x="708" y="277.742123" style="stroke: #000000; stroke-width: 0.8"/>
      </g>
     </g>
     <g id="text_24">
      <!-- 4600 -->
      <g style="fill: #ff0000" transform="translate(715 281.179623) scale(0.1 -0.1)">
       <use xlink:href="#SimHei-34"/>
       <use xlink:href="#SimHei-36" x="50"/>
       <use xlink:href="#SimHei-30" x="100"/>
       <use xlink:href="#SimHei-30" x="150"/>
      </g>
     </g>
    </g>
    <g id="ytick_14">
     <g id="line2d_24">
      <g>
       <use xlink:href="#m3f55617439" x="708" y="214.414711" style="stroke: #000000; stroke-width: 0.8"/>
      </g>
     </g>
     <g id="text_25">
      <!-- 4800 -->
      <g style="fill: #ff0000" transform="translate(715 217.852211) scale(0.1 -0.1)">
       <use xlink:href="#SimHei-34"/>
       <use xlink:href="#SimHei-38" x="50"/>
       <use xlink:href="#SimHei-30" x="100"/>
       <use xlink:href="#SimHei-30" x="150"/>
      </g>
     </g>
    </g>
    <g id="ytick_15">
     <g id="line2d_25">
      <g>
       <use xlink:href="#m3f55617439" x="708" y="151.0873" style="stroke: #000000; stroke-width: 0.8"/>
      </g>
     </g>
     <g id="text_26">
      <!-- 5000 -->
      <g style="fill: #ff0000" transform="translate(715 154.5248) scale(0.1 -0.1)">
       <use xlink:href="#SimHei-35"/>
       <use xlink:href="#SimHei-30" x="50"/>
       <use xlink:href="#SimHei-30" x="100"/>
       <use xlink:href="#SimHei-30" x="150"/>
      </g>
     </g>
    </g>
    <g id="ytick_16">
     <g id="line2d_26">
      <g>
       <use xlink:href="#m3f55617439" x="708" y="87.759888" style="stroke: #000000; stroke-width: 0.8"/>
      </g>
     </g>
     <g id="text_27">
      <!-- 5200 -->
      <g style="fill: #ff0000" transform="translate(715 91.197388) scale(0.1 -0.1)">
       <use xlink:href="#SimHei-35"/>
       <use xlink:href="#SimHei-32" x="50"/>
       <use xlink:href="#SimHei-30" x="100"/>
       <use xlink:href="#SimHei-30" x="150"/>
      </g>
     </g>
    </g>
    <g id="text_28">
     <!-- 平均单价 -->
     <g style="fill: #ff0000" transform="translate(747.007812 238.16) rotate(-90) scale(0.1 -0.1)">
      <defs>
       <path id="SimHei-5e73" d="M 4525 4825 
Q 4900 4825 5450 4850 
L 5450 4375 
Q 4925 4400 4525 4400 
L 3475 4400 
L 3475 2025 
L 5000 2025 
Q 5550 2025 6025 2050 
L 6025 1575 
Q 5550 1600 5000 1600 
L 3475 1600 
L 3475 450 
Q 3475 -100 3500 -600 
L 2925 -600 
Q 2950 -100 2950 450 
L 2950 1600 
L 1125 1600 
Q 775 1600 375 1575 
L 375 2050 
Q 775 2025 1175 2025 
L 2950 2025 
L 2950 4400 
L 1775 4400 
Q 1400 4400 875 4375 
L 875 4850 
Q 1400 4825 1750 4825 
L 4525 4825 
z
M 3925 2600 
Q 4500 3300 4900 4125 
Q 5150 3950 5400 3825 
Q 4775 2850 4350 2300 
Q 4150 2475 3925 2600 
z
M 1975 2350 
Q 1600 3100 1050 3725 
Q 1250 3875 1450 4050 
Q 2075 3300 2450 2725 
Q 2150 2500 1975 2350 
z
" transform="scale(0.015625)"/>
       <path id="SimHei-5747" d="M 5775 275 
Q 5775 -325 5362 -450 
Q 4950 -575 4425 -600 
Q 4375 -275 4250 25 
Q 4950 -25 5125 62 
Q 5300 150 5300 500 
L 5375 3700 
L 3550 3700 
Q 3425 3375 3262 3037 
Q 3100 2700 2925 2400 
Q 2675 2550 2475 2625 
Q 3150 3625 3500 5200 
Q 3800 5100 4075 5025 
Q 3975 4875 3875 4650 
Q 3775 4425 3675 4125 
L 5900 4125 
L 5775 275 
z
M 1250 3625 
L 1250 4375 
Q 1250 4775 1225 5100 
L 1775 5100 
Q 1750 4725 1750 4375 
L 1750 3625 
L 1900 3625 
Q 2200 3625 2525 3650 
L 2525 3150 
Q 2200 3175 1900 3175 
L 1750 3175 
L 1750 1100 
L 2500 1375 
Q 2475 1125 2525 900 
Q 1225 475 962 362 
Q 700 250 475 150 
Q 375 475 250 750 
Q 575 800 800 850 
Q 1025 900 1250 975 
L 1250 3175 
L 1125 3175 
Q 850 3175 400 3150 
L 400 3650 
Q 850 3625 1100 3625 
L 1250 3625 
z
M 4950 1625 
Q 4675 1425 4137 1050 
Q 3600 675 3175 300 
Q 3000 575 2850 775 
Q 3350 1050 3762 1325 
Q 4175 1600 4775 2075 
Q 4825 1850 4950 1625 
z
M 3775 3150 
Q 4125 2800 4475 2300 
Q 4250 2125 4100 1975 
Q 3900 2325 3450 2825 
Q 3600 3000 3775 3150 
z
" transform="scale(0.015625)"/>
       <path id="SimHei-5355" d="M 5275 4075 
L 5275 1525 
L 3400 1525 
L 3400 925 
L 5050 925 
Q 5600 925 6000 950 
L 6000 450 
Q 5575 475 5050 475 
L 3400 475 
Q 3400 -300 3425 -625 
L 2875 -625 
Q 2925 -300 2925 475 
L 1300 475 
Q 700 475 425 450 
L 425 950 
Q 675 925 1250 925 
L 2925 925 
L 2925 1525 
L 1125 1525 
Q 1150 1950 1150 2750 
Q 1150 3550 1125 4075 
L 3600 4075 
Q 3875 4650 4075 5250 
Q 4325 5125 4650 4975 
Q 4550 4850 4400 4587 
Q 4250 4325 4100 4075 
L 5275 4075 
z
M 4775 1925 
L 4775 2600 
L 3400 2600 
L 3400 1925 
L 4775 1925 
z
M 4775 3000 
L 4775 3650 
L 3400 3650 
L 3400 3000 
L 4775 3000 
z
M 2925 1925 
L 2925 2600 
L 1625 2600 
L 1625 1925 
L 2925 1925 
z
M 2925 3000 
L 2925 3650 
L 1625 3650 
L 1625 3000 
L 2925 3000 
z
M 2100 5225 
Q 2350 4950 2675 4350 
Q 2400 4225 2225 4125 
Q 1975 4675 1725 4975 
Q 1900 5075 2100 5225 
z
" transform="scale(0.015625)"/>
       <path id="SimHei-4ef7" d="M 2200 4975 
Q 2050 4725 1650 3775 
L 1650 450 
Q 1650 -225 1675 -650 
L 1175 -650 
Q 1175 -225 1200 450 
L 1200 2975 
Q 900 2425 650 2100 
Q 525 2275 225 2450 
Q 750 3025 1125 3800 
Q 1500 4575 1625 5175 
Q 1950 5025 2200 4975 
z
M 4175 4700 
Q 4850 3525 6150 2950 
Q 5925 2750 5775 2500 
Q 4725 3100 3950 4300 
Q 3300 3125 2250 2350 
Q 2125 2525 1900 2725 
Q 2825 3325 3250 4050 
Q 3675 4775 3750 5150 
Q 4150 4950 4325 4900 
L 4175 4700 
z
M 3475 2650 
Q 3400 2075 3325 1087 
Q 3250 100 2325 -675 
Q 2175 -450 1925 -300 
Q 2850 350 2912 1262 
Q 2975 2175 2950 2700 
Q 3275 2650 3475 2650 
z
M 5075 2700 
Q 5050 2150 5050 1725 
L 5050 150 
Q 5050 -225 5075 -650 
L 4550 -650 
Q 4575 -225 4575 175 
L 4575 1875 
Q 4575 2150 4550 2700 
L 5075 2700 
z
" transform="scale(0.015625)"/>
      </defs>
      <use xlink:href="#SimHei-5e73"/>
      <use xlink:href="#SimHei-5747" x="100"/>
      <use xlink:href="#SimHei-5355" x="200"/>
      <use xlink:href="#SimHei-4ef7" x="300"/>
     </g>
    </g>
   </g>
   <g id="line2d_27">
    <path d="M 115.363636 369.261315 
L 133.373319 369.357889 
L 151.383002 369.357889 
L 166.39107 369.357889 
L 169.392684 369.359472 
L 172.394298 369.358522 
L 193.405594 369.359789 
L 196.407208 369.359698 
L 211.415277 369.359698 
L 220.420118 369.359698 
L 223.421732 369.36 
L 229.42496 369.36 
L 235.428187 369.359472 
L 238.429801 343.007353 
L 247.434642 337.806414 
L 253.43787 337.806414 
L 259.441097 337.806414 
L 274.449166 337.806414 
L 277.45078 337.806414 
L 280.452394 337.806414 
L 283.454008 335.918279 
L 286.455621 334.502284 
L 292.458849 334.502284 
L 295.460463 334.201033 
L 298.462076 333.297282 
L 301.46369 333.297282 
L 307.466918 333.297282 
L 310.468531 333.125374 
L 313.470145 333.125374 
L 316.471759 333.125427 
L 319.473373 333.125432 
L 322.474987 333.125462 
L 325.4766 333.125462 
L 331.479828 333.125235 
L 334.481442 333.125111 
L 337.483055 333.125427 
L 340.484669 333.125427 
L 343.486283 333.125533 
L 346.487897 333.125533 
L 349.48951 333.125427 
L 352.491124 333.125261 
L 355.492738 333.125111 
L 358.494352 333.125427 
L 361.495966 333.125427 
L 364.497579 333.125427 
L 367.499193 333.125156 
L 370.500807 333.125111 
L 373.502421 333.125111 
L 376.504034 333.125248 
L 379.505648 333.125476 
L 382.507262 333.125476 
L 385.508876 333.248135 
L 388.51049 333.125563 
L 391.512103 333.248135 
L 394.513717 333.248135 
L 397.515331 333.186849 
L 400.516945 333.125563 
L 403.518558 333.141354 
L 406.520172 333.157281 
L 412.5234 333.157281 
L 415.525013 333.156919 
L 418.526627 333.141173 
L 424.529855 333.149046 
L 430.533082 333.156919 
L 433.534696 333.164763 
L 436.53631 333.158043 
L 439.537924 333.165324 
L 445.541151 333.165611 
L 448.542765 333.172606 
L 451.544379 333.165611 
L 454.545992 333.161157 
L 457.547606 333.173134 
L 460.54922 333.16196 
L 463.550834 333.160531 
L 466.552448 333.156774 
L 472.555675 333.158965 
L 475.557289 333.161157 
L 481.560516 333.158041 
L 484.56213 333.159034 
L 487.563744 333.159531 
L 493.566971 333.159531 
L 496.568585 333.158944 
L 499.570199 333.159531 
L 502.571813 333.159531 
L 508.57504 333.15829 
L 511.576654 333.158288 
L 514.578268 333.158317 
L 523.583109 178.033675 
L 526.584723 149.353866 
L 529.586337 132.082582 
L 532.587951 114.811298 
L 535.589564 149.353866 
L 538.591178 114.811298 
L 541.592792 149.353866 
L 544.594406 99.917358 
L 547.596019 86.184091 
L 550.597633 95.796137 
L 553.599247 95.796137 
L 556.600861 74.167451 
L 559.602474 71.764967 
L 562.604088 76.569935 
L 565.605702 68.881987 
L 583.615385 72.725961 
L 592.620226 72.725961 
L 595.62184 70.803974 
L 598.623453 66.96 
L 604.626681 69.84298 
L 607.628295 72.725961 
L 613.631522 72.725961 
L 622.636364 66.96 
" clip-path="url(#p1330963832)" style="fill: none; stroke: #ff0000; stroke-width: 1.5; stroke-linecap: square"/>
    <defs>
     <path id="m01b0d6c367" d="M 0 3 
C 0.795609 3 1.55874 2.683901 2.12132 2.12132 
C 2.683901 1.55874 3 0.795609 3 0 
C 3 -0.795609 2.683901 -1.55874 2.12132 -2.12132 
C 1.55874 -2.683901 0.795609 -3 0 -3 
C -0.795609 -3 -1.55874 -2.683901 -2.12132 -2.12132 
C -2.683901 -1.55874 -3 -0.795609 -3 0 
C -3 0.795609 -2.683901 1.55874 -2.12132 2.12132 
C -1.55874 2.683901 -0.795609 3 0 3 
z
" style="stroke: #ff0000"/>
    </defs>
    <g clip-path="url(#p1330963832)">
     <use xlink:href="#m01b0d6c367" x="115.363636" y="369.261315" style="fill: #ff0000; stroke: #ff0000"/>
     <use xlink:href="#m01b0d6c367" x="133.373319" y="369.357889" style="fill: #ff0000; stroke: #ff0000"/>
     <use xlink:href="#m01b0d6c367" x="151.383002" y="369.357889" style="fill: #ff0000; stroke: #ff0000"/>
     <use xlink:href="#m01b0d6c367" x="166.39107" y="369.357889" style="fill: #ff0000; stroke: #ff0000"/>
     <use xlink:href="#m01b0d6c367" x="169.392684" y="369.359472" style="fill: #ff0000; stroke: #ff0000"/>
     <use xlink:href="#m01b0d6c367" x="172.394298" y="369.358522" style="fill: #ff0000; stroke: #ff0000"/>
     <use xlink:href="#m01b0d6c367" x="193.405594" y="369.359789" style="fill: #ff0000; stroke: #ff0000"/>
     <use xlink:href="#m01b0d6c367" x="196.407208" y="369.359698" style="fill: #ff0000; stroke: #ff0000"/>
     <use xlink:href="#m01b0d6c367" x="211.415277" y="369.359698" style="fill: #ff0000; stroke: #ff0000"/>
     <use xlink:href="#m01b0d6c367" x="220.420118" y="369.359698" style="fill: #ff0000; stroke: #ff0000"/>
     <use xlink:href="#m01b0d6c367" x="223.421732" y="369.36" style="fill: #ff0000; stroke: #ff0000"/>
     <use xlink:href="#m01b0d6c367" x="229.42496" y="369.36" style="fill: #ff0000; stroke: #ff0000"/>
     <use xlink:href="#m01b0d6c367" x="235.428187" y="369.359472" style="fill: #ff0000; stroke: #ff0000"/>
     <use xlink:href="#m01b0d6c367" x="238.429801" y="343.007353" style="fill: #ff0000; stroke: #ff0000"/>
     <use xlink:href="#m01b0d6c367" x="247.434642" y="337.806414" style="fill: #ff0000; stroke: #ff0000"/>
     <use xlink:href="#m01b0d6c367" x="253.43787" y="337.806414" style="fill: #ff0000; stroke: #ff0000"/>
     <use xlink:href="#m01b0d6c367" x="259.441097" y="337.806414" style="fill: #ff0000; stroke: #ff0000"/>
     <use xlink:href="#m01b0d6c367" x="274.449166" y="337.806414" style="fill: #ff0000; stroke: #ff0000"/>
     <use xlink:href="#m01b0d6c367" x="277.45078" y="337.806414" style="fill: #ff0000; stroke: #ff0000"/>
     <use xlink:href="#m01b0d6c367" x="280.452394" y="337.806414" style="fill: #ff0000; stroke: #ff0000"/>
     <use xlink:href="#m01b0d6c367" x="283.454008" y="335.918279" style="fill: #ff0000; stroke: #ff0000"/>
     <use xlink:href="#m01b0d6c367" x="286.455621" y="334.502284" style="fill: #ff0000; stroke: #ff0000"/>
     <use xlink:href="#m01b0d6c367" x="292.458849" y="334.502284" style="fill: #ff0000; stroke: #ff0000"/>
     <use xlink:href="#m01b0d6c367" x="295.460463" y="334.201033" style="fill: #ff0000; stroke: #ff0000"/>
     <use xlink:href="#m01b0d6c367" x="298.462076" y="333.297282" style="fill: #ff0000; stroke: #ff0000"/>
     <use xlink:href="#m01b0d6c367" x="301.46369" y="333.297282" style="fill: #ff0000; stroke: #ff0000"/>
     <use xlink:href="#m01b0d6c367" x="307.466918" y="333.297282" style="fill: #ff0000; stroke: #ff0000"/>
     <use xlink:href="#m01b0d6c367" x="310.468531" y="333.125374" style="fill: #ff0000; stroke: #ff0000"/>
     <use xlink:href="#m01b0d6c367" x="313.470145" y="333.125374" style="fill: #ff0000; stroke: #ff0000"/>
     <use xlink:href="#m01b0d6c367" x="316.471759" y="333.125427" style="fill: #ff0000; stroke: #ff0000"/>
     <use xlink:href="#m01b0d6c367" x="319.473373" y="333.125432" style="fill: #ff0000; stroke: #ff0000"/>
     <use xlink:href="#m01b0d6c367" x="322.474987" y="333.125462" style="fill: #ff0000; stroke: #ff0000"/>
     <use xlink:href="#m01b0d6c367" x="325.4766" y="333.125462" style="fill: #ff0000; stroke: #ff0000"/>
     <use xlink:href="#m01b0d6c367" x="331.479828" y="333.125235" style="fill: #ff0000; stroke: #ff0000"/>
     <use xlink:href="#m01b0d6c367" x="334.481442" y="333.125111" style="fill: #ff0000; stroke: #ff0000"/>
     <use xlink:href="#m01b0d6c367" x="337.483055" y="333.125427" style="fill: #ff0000; stroke: #ff0000"/>
     <use xlink:href="#m01b0d6c367" x="340.484669" y="333.125427" style="fill: #ff0000; stroke: #ff0000"/>
     <use xlink:href="#m01b0d6c367" x="343.486283" y="333.125533" style="fill: #ff0000; stroke: #ff0000"/>
     <use xlink:href="#m01b0d6c367" x="346.487897" y="333.125533" style="fill: #ff0000; stroke: #ff0000"/>
     <use xlink:href="#m01b0d6c367" x="349.48951" y="333.125427" style="fill: #ff0000; stroke: #ff0000"/>
     <use xlink:href="#m01b0d6c367" x="352.491124" y="333.125261" style="fill: #ff0000; stroke: #ff0000"/>
     <use xlink:href="#m01b0d6c367" x="355.492738" y="333.125111" style="fill: #ff0000; stroke: #ff0000"/>
     <use xlink:href="#m01b0d6c367" x="358.494352" y="333.125427" style="fill: #ff0000; stroke: #ff0000"/>
     <use xlink:href="#m01b0d6c367" x="361.495966" y="333.125427" style="fill: #ff0000; stroke: #ff0000"/>
     <use xlink:href="#m01b0d6c367" x="364.497579" y="333.125427" style="fill: #ff0000; stroke: #ff0000"/>
     <use xlink:href="#m01b0d6c367" x="367.499193" y="333.125156" style="fill: #ff0000; stroke: #ff0000"/>
     <use xlink:href="#m01b0d6c367" x="370.500807" y="333.125111" style="fill: #ff0000; stroke: #ff0000"/>
     <use xlink:href="#m01b0d6c367" x="373.502421" y="333.125111" style="fill: #ff0000; stroke: #ff0000"/>
     <use xlink:href="#m01b0d6c367" x="376.504034" y="333.125248" style="fill: #ff0000; stroke: #ff0000"/>
     <use xlink:href="#m01b0d6c367" x="379.505648" y="333.125476" style="fill: #ff0000; stroke: #ff0000"/>
     <use xlink:href="#m01b0d6c367" x="382.507262" y="333.125476" style="fill: #ff0000; stroke: #ff0000"/>
     <use xlink:href="#m01b0d6c367" x="385.508876" y="333.248135" style="fill: #ff0000; stroke: #ff0000"/>
     <use xlink:href="#m01b0d6c367" x="388.51049" y="333.125563" style="fill: #ff0000; stroke: #ff0000"/>
     <use xlink:href="#m01b0d6c367" x="391.512103" y="333.248135" style="fill: #ff0000; stroke: #ff0000"/>
     <use xlink:href="#m01b0d6c367" x="394.513717" y="333.248135" style="fill: #ff0000; stroke: #ff0000"/>
     <use xlink:href="#m01b0d6c367" x="397.515331" y="333.186849" style="fill: #ff0000; stroke: #ff0000"/>
     <use xlink:href="#m01b0d6c367" x="400.516945" y="333.125563" style="fill: #ff0000; stroke: #ff0000"/>
     <use xlink:href="#m01b0d6c367" x="403.518558" y="333.141354" style="fill: #ff0000; stroke: #ff0000"/>
     <use xlink:href="#m01b0d6c367" x="406.520172" y="333.157281" style="fill: #ff0000; stroke: #ff0000"/>
     <use xlink:href="#m01b0d6c367" x="412.5234" y="333.157281" style="fill: #ff0000; stroke: #ff0000"/>
     <use xlink:href="#m01b0d6c367" x="415.525013" y="333.156919" style="fill: #ff0000; stroke: #ff0000"/>
     <use xlink:href="#m01b0d6c367" x="418.526627" y="333.141173" style="fill: #ff0000; stroke: #ff0000"/>
     <use xlink:href="#m01b0d6c367" x="424.529855" y="333.149046" style="fill: #ff0000; stroke: #ff0000"/>
     <use xlink:href="#m01b0d6c367" x="430.533082" y="333.156919" style="fill: #ff0000; stroke: #ff0000"/>
     <use xlink:href="#m01b0d6c367" x="433.534696" y="333.164763" style="fill: #ff0000; stroke: #ff0000"/>
     <use xlink:href="#m01b0d6c367" x="436.53631" y="333.158043" style="fill: #ff0000; stroke: #ff0000"/>
     <use xlink:href="#m01b0d6c367" x="439.537924" y="333.165324" style="fill: #ff0000; stroke: #ff0000"/>
     <use xlink:href="#m01b0d6c367" x="445.541151" y="333.165611" style="fill: #ff0000; stroke: #ff0000"/>
     <use xlink:href="#m01b0d6c367" x="448.542765" y="333.172606" style="fill: #ff0000; stroke: #ff0000"/>
     <use xlink:href="#m01b0d6c367" x="451.544379" y="333.165611" style="fill: #ff0000; stroke: #ff0000"/>
     <use xlink:href="#m01b0d6c367" x="454.545992" y="333.161157" style="fill: #ff0000; stroke: #ff0000"/>
     <use xlink:href="#m01b0d6c367" x="457.547606" y="333.173134" style="fill: #ff0000; stroke: #ff0000"/>
     <use xlink:href="#m01b0d6c367" x="460.54922" y="333.16196" style="fill: #ff0000; stroke: #ff0000"/>
     <use xlink:href="#m01b0d6c367" x="463.550834" y="333.160531" style="fill: #ff0000; stroke: #ff0000"/>
     <use xlink:href="#m01b0d6c367" x="466.552448" y="333.156774" style="fill: #ff0000; stroke: #ff0000"/>
     <use xlink:href="#m01b0d6c367" x="472.555675" y="333.158965" style="fill: #ff0000; stroke: #ff0000"/>
     <use xlink:href="#m01b0d6c367" x="475.557289" y="333.161157" style="fill: #ff0000; stroke: #ff0000"/>
     <use xlink:href="#m01b0d6c367" x="481.560516" y="333.158041" style="fill: #ff0000; stroke: #ff0000"/>
     <use xlink:href="#m01b0d6c367" x="484.56213" y="333.159034" style="fill: #ff0000; stroke: #ff0000"/>
     <use xlink:href="#m01b0d6c367" x="487.563744" y="333.159531" style="fill: #ff0000; stroke: #ff0000"/>
     <use xlink:href="#m01b0d6c367" x="493.566971" y="333.159531" style="fill: #ff0000; stroke: #ff0000"/>
     <use xlink:href="#m01b0d6c367" x="496.568585" y="333.158944" style="fill: #ff0000; stroke: #ff0000"/>
     <use xlink:href="#m01b0d6c367" x="499.570199" y="333.159531" style="fill: #ff0000; stroke: #ff0000"/>
     <use xlink:href="#m01b0d6c367" x="502.571813" y="333.159531" style="fill: #ff0000; stroke: #ff0000"/>
     <use xlink:href="#m01b0d6c367" x="508.57504" y="333.15829" style="fill: #ff0000; stroke: #ff0000"/>
     <use xlink:href="#m01b0d6c367" x="511.576654" y="333.158288" style="fill: #ff0000; stroke: #ff0000"/>
     <use xlink:href="#m01b0d6c367" x="514.578268" y="333.158317" style="fill: #ff0000; stroke: #ff0000"/>
     <use xlink:href="#m01b0d6c367" x="523.583109" y="178.033675" style="fill: #ff0000; stroke: #ff0000"/>
     <use xlink:href="#m01b0d6c367" x="526.584723" y="149.353866" style="fill: #ff0000; stroke: #ff0000"/>
     <use xlink:href="#m01b0d6c367" x="529.586337" y="132.082582" style="fill: #ff0000; stroke: #ff0000"/>
     <use xlink:href="#m01b0d6c367" x="532.587951" y="114.811298" style="fill: #ff0000; stroke: #ff0000"/>
     <use xlink:href="#m01b0d6c367" x="535.589564" y="149.353866" style="fill: #ff0000; stroke: #ff0000"/>
     <use xlink:href="#m01b0d6c367" x="538.591178" y="114.811298" style="fill: #ff0000; stroke: #ff0000"/>
     <use xlink:href="#m01b0d6c367" x="541.592792" y="149.353866" style="fill: #ff0000; stroke: #ff0000"/>
     <use xlink:href="#m01b0d6c367" x="544.594406" y="99.917358" style="fill: #ff0000; stroke: #ff0000"/>
     <use xlink:href="#m01b0d6c367" x="547.596019" y="86.184091" style="fill: #ff0000; stroke: #ff0000"/>
     <use xlink:href="#m01b0d6c367" x="550.597633" y="95.796137" style="fill: #ff0000; stroke: #ff0000"/>
     <use xlink:href="#m01b0d6c367" x="553.599247" y="95.796137" style="fill: #ff0000; stroke: #ff0000"/>
     <use xlink:href="#m01b0d6c367" x="556.600861" y="74.167451" style="fill: #ff0000; stroke: #ff0000"/>
     <use xlink:href="#m01b0d6c367" x="559.602474" y="71.764967" style="fill: #ff0000; stroke: #ff0000"/>
     <use xlink:href="#m01b0d6c367" x="562.604088" y="76.569935" style="fill: #ff0000; stroke: #ff0000"/>
     <use xlink:href="#m01b0d6c367" x="565.605702" y="68.881987" style="fill: #ff0000; stroke: #ff0000"/>
     <use xlink:href="#m01b0d6c367" x="583.615385" y="72.725961" style="fill: #ff0000; stroke: #ff0000"/>
     <use xlink:href="#m01b0d6c367" x="592.620226" y="72.725961" style="fill: #ff0000; stroke: #ff0000"/>
     <use xlink:href="#m01b0d6c367" x="595.62184" y="70.803974" style="fill: #ff0000; stroke: #ff0000"/>
     <use xlink:href="#m01b0d6c367" x="598.623453" y="66.96" style="fill: #ff0000; stroke: #ff0000"/>
     <use xlink:href="#m01b0d6c367" x="604.626681" y="69.84298" style="fill: #ff0000; stroke: #ff0000"/>
     <use xlink:href="#m01b0d6c367" x="607.628295" y="72.725961" style="fill: #ff0000; stroke: #ff0000"/>
     <use xlink:href="#m01b0d6c367" x="613.631522" y="72.725961" style="fill: #ff0000; stroke: #ff0000"/>
     <use xlink:href="#m01b0d6c367" x="622.636364" y="66.96" style="fill: #ff0000; stroke: #ff0000"/>
    </g>
   </g>
   <g id="patch_11">
    <path d="M 90 384.48 
L 90 51.84 
" style="fill: none; stroke: #000000; stroke-width: 0.8; stroke-linejoin: miter; stroke-linecap: square"/>
   </g>
   <g id="patch_12">
    <path d="M 708 384.48 
L 708 51.84 
" style="fill: none; stroke: #000000; stroke-width: 0.8; stroke-linejoin: miter; stroke-linecap: square"/>
   </g>
   <g id="patch_13">
    <path d="M 90 384.48 
L 648 384.48 
" style="fill: none; stroke: #000000; stroke-width: 0.8; stroke-linejoin: miter; stroke-linecap: square"/>
   </g>
   <g id="patch_14">
    <path d="M 90 51.84 
L 648 51.84 
" style="fill: none; stroke: #000000; stroke-width: 0.8; stroke-linejoin: miter; stroke-linecap: square"/>
   </g>
   <g id="text_29">
    <!-- 6004020905 每周需求量、收益与平均单价 -->
    <g transform="translate(258 45.84) scale(0.12 -0.12)">
     <defs>
      <path id="SimHei-39" d="M 800 75 
Q 1350 1000 1700 1750 
Q 1075 1650 662 1912 
Q 250 2175 162 2625 
Q 75 3075 175 3437 
Q 275 3800 487 4037 
Q 700 4275 1000 4375 
Q 1300 4475 1537 4475 
Q 1775 4475 2025 4375 
Q 2275 4275 2475 4075 
Q 2675 3875 2750 3662 
Q 2825 3450 2825 3112 
Q 2825 2775 2575 2250 
Q 2325 1725 1350 75 
L 800 75 
z
M 662 2875 
Q 700 2550 937 2337 
Q 1175 2125 1450 2150 
Q 1725 2175 1887 2300 
Q 2050 2425 2200 2725 
Q 2300 3100 2250 3362 
Q 2200 3625 1987 3800 
Q 1775 3975 1525 3975 
Q 1375 4000 1137 3900 
Q 900 3800 762 3500 
Q 625 3200 662 2875 
z
" transform="scale(0.015625)"/>
      <path id="SimHei-20" transform="scale(0.015625)"/>
      <path id="SimHei-6bcf" d="M 5225 3650 
Q 5175 3150 5150 2675 
L 5125 2200 
Q 5525 2200 6000 2225 
L 6000 1775 
Q 5625 1800 5100 1800 
L 5050 650 
Q 5325 650 5700 675 
L 5700 225 
Q 5400 250 5025 250 
Q 5000 -275 4775 -425 
Q 4550 -575 4000 -650 
Q 3950 -400 3775 -125 
Q 4375 -125 4475 -50 
Q 4575 25 4575 250 
L 1400 250 
L 1500 1100 
L 1550 1800 
L 1275 1800 
Q 825 1800 550 1775 
L 550 2225 
Q 975 2200 1275 2200 
L 1575 2200 
L 1625 2825 
L 1675 3650 
L 5225 3650 
z
M 2350 5000 
Q 2175 4825 2050 4600 
L 4875 4600 
Q 5275 4600 5775 4625 
L 5775 4175 
Q 5275 4200 4875 4200 
L 1825 4200 
L 1375 3625 
Q 1125 3325 775 2975 
Q 600 3175 350 3300 
Q 725 3575 1150 4112 
Q 1575 4650 1825 5250 
Q 2125 5075 2350 5000 
z
M 1975 1800 
L 1875 650 
L 4625 650 
L 4675 1800 
L 2950 1800 
Q 3575 1275 3825 1125 
Q 3625 925 3475 725 
Q 3100 1100 2650 1475 
Q 2775 1675 2875 1800 
L 1975 1800 
z
M 2975 3250 
Q 3125 3150 3287 3012 
Q 3450 2875 3800 2550 
Q 3650 2350 3525 2200 
L 4700 2200 
L 4750 3250 
L 2975 3250 
z
M 2075 3250 
L 2000 2200 
L 3425 2200 
Q 3150 2500 3012 2625 
Q 2875 2750 2700 2900 
Q 2800 3050 2925 3250 
L 2075 3250 
z
" transform="scale(0.015625)"/>
      <path id="SimHei-3001" d="M 1725 -275 
Q 1325 700 925 1450 
L 1325 1650 
Q 1825 950 2325 25 
L 1725 -275 
z
" transform="scale(0.015625)"/>
      <path id="SimHei-4e0e" d="M 5350 100 
Q 5275 -300 4925 -425 
Q 4575 -550 3900 -600 
Q 3875 -375 3650 -25 
Q 4375 -50 4575 0 
Q 4775 50 4837 225 
Q 4900 400 5100 2350 
L 1125 2350 
Q 1450 4350 1475 5200 
Q 1800 5150 2075 5125 
Q 1975 4825 1900 4275 
L 4900 4275 
Q 5400 4275 5800 4300 
L 5800 3825 
Q 5400 3850 4950 3850 
L 1850 3850 
L 1700 2750 
L 5675 2750 
Q 5625 2450 5575 2050 
L 5350 100 
z
M 3675 1350 
Q 4125 1350 4500 1375 
L 4500 875 
Q 4125 900 3850 900 
L 1450 900 
Q 1000 900 500 875 
L 500 1375 
Q 1000 1350 1450 1350 
L 3675 1350 
z
" transform="scale(0.015625)"/>
     </defs>
     <use xlink:href="#SimHei-36"/>
     <use xlink:href="#SimHei-30" x="50"/>
     <use xlink:href="#SimHei-30" x="100"/>
     <use xlink:href="#SimHei-34" x="150"/>
     <use xlink:href="#SimHei-30" x="200"/>
     <use xlink:href="#SimHei-32" x="250"/>
     <use xlink:href="#SimHei-30" x="300"/>
     <use xlink:href="#SimHei-39" x="350"/>
     <use xlink:href="#SimHei-30" x="400"/>
     <use xlink:href="#SimHei-35" x="450"/>
     <use xlink:href="#SimHei-20" x="500"/>
     <use xlink:href="#SimHei-6bcf" x="550"/>
     <use xlink:href="#SimHei-5468" x="650"/>
     <use xlink:href="#SimHei-9700" x="750"/>
     <use xlink:href="#SimHei-6c42" x="850"/>
     <use xlink:href="#SimHei-91cf" x="950"/>
     <use xlink:href="#SimHei-3001" x="1050"/>
     <use xlink:href="#SimHei-6536" x="1150"/>
     <use xlink:href="#SimHei-76ca" x="1250"/>
     <use xlink:href="#SimHei-4e0e" x="1350"/>
     <use xlink:href="#SimHei-5e73" x="1450"/>
     <use xlink:href="#SimHei-5747" x="1550"/>
     <use xlink:href="#SimHei-5355" x="1650"/>
     <use xlink:href="#SimHei-4ef7" x="1750"/>
    </g>
   </g>
  </g>
 </g>
 <defs>
  <clipPath id="p1330963832">
   <rect x="90" y="51.84" width="558" height="332.64"/>
  </clipPath>
 </defs>
</svg>
