<?xml version="1.0" encoding="utf-8" standalone="no"?>
<!DOCTYPE svg PUBLIC "-//W3C//DTD SVG 1.1//EN"
  "http://www.w3.org/Graphics/SVG/1.1/DTD/svg11.dtd">
<svg xmlns:xlink="http://www.w3.org/1999/xlink" width="460.8pt" height="345.6pt" viewBox="0 0 460.8 345.6" xmlns="http://www.w3.org/2000/svg" version="1.1">
 <metadata>
  <rdf:RDF xmlns:dc="http://purl.org/dc/elements/1.1/" xmlns:cc="http://creativecommons.org/ns#" xmlns:rdf="http://www.w3.org/1999/02/22-rdf-syntax-ns#">
   <cc:Work>
    <dc:type rdf:resource="http://purl.org/dc/dcmitype/StillImage"/>
    <dc:date>2024-08-17T14:02:39.072226</dc:date>
    <dc:format>image/svg+xml</dc:format>
    <dc:creator>
     <cc:Agent>
      <dc:title>Matplotlib v3.8.0, https://matplotlib.org/</dc:title>
     </cc:Agent>
    </dc:creator>
   </cc:Work>
  </rdf:RDF>
 </metadata>
 <defs>
  <style type="text/css">*{stroke-linejoin: round; stroke-linecap: butt}</style>
 </defs>
 <g id="figure_1">
  <g id="patch_1">
   <path d="M 0 345.6 
L 460.8 345.6 
L 460.8 0 
L 0 0 
z
" style="fill: #ffffff"/>
  </g>
  <g id="axes_1">
   <g id="patch_2">
    <path d="M 57.6 307.584 
L 414.72 307.584 
L 414.72 41.472 
L 57.6 41.472 
z
" style="fill: #ffffff"/>
   </g>
   <g id="matplotlib.axis_1">
    <g id="xtick_1">
     <g id="line2d_1">
      <defs>
       <path id="m09fef41435" d="M 0 0 
L 0 3.5 
" style="stroke: #000000; stroke-width: 0.8"/>
      </defs>
      <g>
       <use xlink:href="#m09fef41435" x="73.832727" y="307.584" style="stroke: #000000; stroke-width: 0.8"/>
      </g>
     </g>
     <g id="text_1">
      <!-- 0 -->
      <g transform="translate(71.332727 321.459) scale(0.1 -0.1)">
       <defs>
        <path id="SimHei-30" d="M 225 2537 
Q 250 3200 412 3587 
Q 575 3975 875 4225 
Q 1175 4475 1612 4475 
Q 2050 4475 2375 4112 
Q 2700 3750 2800 3200 
Q 2900 2650 2862 1937 
Q 2825 1225 2612 775 
Q 2400 325 1975 150 
Q 1550 -25 1125 187 
Q 700 400 525 750 
Q 350 1100 275 1487 
Q 200 1875 225 2537 
z
M 750 2687 
Q 675 2000 800 1462 
Q 925 925 1212 700 
Q 1500 475 1800 612 
Q 2100 750 2237 1162 
Q 2375 1575 2375 2062 
Q 2375 2550 2337 2950 
Q 2300 3350 2112 3675 
Q 1925 4000 1612 4012 
Q 1300 4025 1062 3700 
Q 825 3375 750 2687 
z
" transform="scale(0.015625)"/>
       </defs>
       <use xlink:href="#SimHei-30"/>
      </g>
     </g>
    </g>
    <g id="xtick_2">
     <g id="line2d_2">
      <g>
       <use xlink:href="#m09fef41435" x="121.929697" y="307.584" style="stroke: #000000; stroke-width: 0.8"/>
      </g>
     </g>
     <g id="text_2">
      <!-- 20 -->
      <g transform="translate(116.929697 321.459) scale(0.1 -0.1)">
       <defs>
        <path id="SimHei-32" d="M 300 250 
Q 325 625 650 925 
Q 975 1225 1475 1862 
Q 1975 2500 2125 2850 
Q 2275 3200 2237 3450 
Q 2200 3700 2000 3862 
Q 1800 4025 1537 4000 
Q 1275 3975 1037 3800 
Q 800 3625 675 3275 
L 200 3350 
Q 400 3925 712 4187 
Q 1025 4450 1450 4475 
Q 1700 4500 1900 4462 
Q 2100 4425 2312 4287 
Q 2525 4150 2662 3875 
Q 2800 3600 2762 3212 
Q 2725 2825 2375 2287 
Q 2025 1750 1025 600 
L 2825 600 
L 2825 150 
L 300 150 
L 300 250 
z
" transform="scale(0.015625)"/>
       </defs>
       <use xlink:href="#SimHei-32"/>
       <use xlink:href="#SimHei-30" x="50"/>
      </g>
     </g>
    </g>
    <g id="xtick_3">
     <g id="line2d_3">
      <g>
       <use xlink:href="#m09fef41435" x="170.026667" y="307.584" style="stroke: #000000; stroke-width: 0.8"/>
      </g>
     </g>
     <g id="text_3">
      <!-- 40 -->
      <g transform="translate(165.026667 321.459) scale(0.1 -0.1)">
       <defs>
        <path id="SimHei-34" d="M 2000 1100 
L 75 1100 
L 75 1525 
L 2100 4450 
L 2475 4450 
L 2475 1525 
L 3075 1525 
L 3075 1100 
L 2475 1100 
L 2475 150 
L 2000 150 
L 2000 1100 
z
M 2000 1525 
L 2000 3500 
L 600 1525 
L 2000 1525 
z
" transform="scale(0.015625)"/>
       </defs>
       <use xlink:href="#SimHei-34"/>
       <use xlink:href="#SimHei-30" x="50"/>
      </g>
     </g>
    </g>
    <g id="xtick_4">
     <g id="line2d_4">
      <g>
       <use xlink:href="#m09fef41435" x="218.123636" y="307.584" style="stroke: #000000; stroke-width: 0.8"/>
      </g>
     </g>
     <g id="text_4">
      <!-- 60 -->
      <g transform="translate(213.123636 321.459) scale(0.1 -0.1)">
       <defs>
        <path id="SimHei-36" d="M 250 1612 
Q 275 1975 387 2225 
Q 500 2475 725 2850 
L 1750 4450 
L 2325 4450 
L 1275 2800 
Q 1950 2975 2350 2750 
Q 2750 2525 2887 2237 
Q 3025 1950 3037 1612 
Q 3050 1275 2937 950 
Q 2825 625 2537 362 
Q 2250 100 1737 75 
Q 1225 50 862 262 
Q 500 475 362 862 
Q 225 1250 250 1612 
z
M 1025 787 
Q 1250 550 1625 525 
Q 2000 500 2250 775 
Q 2500 1050 2500 1575 
Q 2500 2100 2187 2300 
Q 1875 2500 1487 2450 
Q 1100 2400 925 2075 
Q 750 1750 775 1387 
Q 800 1025 1025 787 
z
" transform="scale(0.015625)"/>
       </defs>
       <use xlink:href="#SimHei-36"/>
       <use xlink:href="#SimHei-30" x="50"/>
      </g>
     </g>
    </g>
    <g id="xtick_5">
     <g id="line2d_5">
      <g>
       <use xlink:href="#m09fef41435" x="266.220606" y="307.584" style="stroke: #000000; stroke-width: 0.8"/>
      </g>
     </g>
     <g id="text_5">
      <!-- 80 -->
      <g transform="translate(261.220606 321.459) scale(0.1 -0.1)">
       <defs>
        <path id="SimHei-38" d="M 175 1375 
Q 175 1675 325 1962 
Q 475 2250 825 2425 
Q 525 2600 425 2812 
Q 325 3025 312 3300 
Q 300 3575 387 3775 
Q 475 3975 650 4150 
Q 825 4325 1037 4387 
Q 1250 4450 1500 4450 
Q 1750 4450 1950 4400 
Q 2150 4350 2375 4187 
Q 2600 4025 2700 3725 
Q 2800 3425 2687 3025 
Q 2575 2625 2100 2400 
Q 2525 2275 2700 2012 
Q 2875 1750 2875 1375 
Q 2875 1000 2762 775 
Q 2650 550 2512 400 
Q 2375 250 2137 162 
Q 1900 75 1537 75 
Q 1175 75 912 162 
Q 650 250 475 425 
Q 300 600 237 837 
Q 175 1075 175 1375 
z
M 687 1400 
Q 675 1100 787 875 
Q 900 650 1200 587 
Q 1500 525 1825 600 
Q 2150 675 2275 950 
Q 2400 1225 2362 1500 
Q 2325 1775 2050 1962 
Q 1775 2150 1450 2125 
Q 1125 2100 912 1900 
Q 700 1700 687 1400 
z
M 775 3350 
Q 775 3100 950 2875 
Q 1125 2650 1500 2650 
Q 1875 2650 2062 2875 
Q 2250 3100 2237 3412 
Q 2225 3725 2012 3875 
Q 1800 4025 1437 4000 
Q 1075 3975 925 3787 
Q 775 3600 775 3350 
z
" transform="scale(0.015625)"/>
       </defs>
       <use xlink:href="#SimHei-38"/>
       <use xlink:href="#SimHei-30" x="50"/>
      </g>
     </g>
    </g>
    <g id="xtick_6">
     <g id="line2d_6">
      <g>
       <use xlink:href="#m09fef41435" x="314.317576" y="307.584" style="stroke: #000000; stroke-width: 0.8"/>
      </g>
     </g>
     <g id="text_6">
      <!-- 100 -->
      <g transform="translate(306.817576 321.459) scale(0.1 -0.1)">
       <defs>
        <path id="SimHei-31" d="M 1400 3600 
Q 1075 3275 575 2975 
L 575 3450 
Q 1200 3875 1600 4450 
L 1900 4450 
L 1900 150 
L 1400 150 
L 1400 3600 
z
" transform="scale(0.015625)"/>
       </defs>
       <use xlink:href="#SimHei-31"/>
       <use xlink:href="#SimHei-30" x="50"/>
       <use xlink:href="#SimHei-30" x="100"/>
      </g>
     </g>
    </g>
    <g id="xtick_7">
     <g id="line2d_7">
      <g>
       <use xlink:href="#m09fef41435" x="362.414545" y="307.584" style="stroke: #000000; stroke-width: 0.8"/>
      </g>
     </g>
     <g id="text_7">
      <!-- 120 -->
      <g transform="translate(354.914545 321.459) scale(0.1 -0.1)">
       <use xlink:href="#SimHei-31"/>
       <use xlink:href="#SimHei-32" x="50"/>
       <use xlink:href="#SimHei-30" x="100"/>
      </g>
     </g>
    </g>
    <g id="xtick_8">
     <g id="line2d_8">
      <g>
       <use xlink:href="#m09fef41435" x="410.511515" y="307.584" style="stroke: #000000; stroke-width: 0.8"/>
      </g>
     </g>
     <g id="text_8">
      <!-- 140 -->
      <g transform="translate(403.011515 321.459) scale(0.1 -0.1)">
       <use xlink:href="#SimHei-31"/>
       <use xlink:href="#SimHei-34" x="50"/>
       <use xlink:href="#SimHei-30" x="100"/>
      </g>
     </g>
    </g>
   </g>
   <g id="matplotlib.axis_2">
    <g id="ytick_1">
     <g id="line2d_9">
      <defs>
       <path id="mc6f6853447" d="M 0 0 
L -3.5 0 
" style="stroke: #000000; stroke-width: 0.8"/>
      </defs>
      <g>
       <use xlink:href="#mc6f6853447" x="57.6" y="296.02057" style="stroke: #000000; stroke-width: 0.8"/>
      </g>
     </g>
     <g id="text_9">
      <!-- 0 -->
      <g transform="translate(45.6 299.45807) scale(0.1 -0.1)">
       <use xlink:href="#SimHei-30"/>
      </g>
     </g>
    </g>
    <g id="ytick_2">
     <g id="line2d_10">
      <g>
       <use xlink:href="#mc6f6853447" x="57.6" y="240.539433" style="stroke: #000000; stroke-width: 0.8"/>
      </g>
     </g>
     <g id="text_10">
      <!-- 100 -->
      <g transform="translate(35.6 243.976933) scale(0.1 -0.1)">
       <use xlink:href="#SimHei-31"/>
       <use xlink:href="#SimHei-30" x="50"/>
       <use xlink:href="#SimHei-30" x="100"/>
      </g>
     </g>
    </g>
    <g id="ytick_3">
     <g id="line2d_11">
      <g>
       <use xlink:href="#mc6f6853447" x="57.6" y="185.058296" style="stroke: #000000; stroke-width: 0.8"/>
      </g>
     </g>
     <g id="text_11">
      <!-- 200 -->
      <g transform="translate(35.6 188.495796) scale(0.1 -0.1)">
       <use xlink:href="#SimHei-32"/>
       <use xlink:href="#SimHei-30" x="50"/>
       <use xlink:href="#SimHei-30" x="100"/>
      </g>
     </g>
    </g>
    <g id="ytick_4">
     <g id="line2d_12">
      <g>
       <use xlink:href="#mc6f6853447" x="57.6" y="129.577158" style="stroke: #000000; stroke-width: 0.8"/>
      </g>
     </g>
     <g id="text_12">
      <!-- 300 -->
      <g transform="translate(35.6 133.014658) scale(0.1 -0.1)">
       <defs>
        <path id="SimHei-33" d="M 250 1225 
L 700 1300 
Q 800 975 1025 762 
Q 1250 550 1587 562 
Q 1925 575 2125 837 
Q 2325 1100 2300 1437 
Q 2275 1775 2037 1962 
Q 1800 2150 1275 2225 
L 1275 2550 
Q 1800 2600 2037 2825 
Q 2275 3050 2250 3412 
Q 2225 3775 1925 3937 
Q 1625 4100 1287 3975 
Q 950 3850 750 3275 
L 300 3350 
Q 450 3800 712 4100 
Q 975 4400 1425 4450 
Q 1875 4500 2212 4337 
Q 2550 4175 2687 3837 
Q 2825 3500 2725 3100 
Q 2625 2700 2150 2400 
Q 2500 2250 2687 1950 
Q 2875 1650 2812 1162 
Q 2750 675 2375 375 
Q 2000 75 1525 87 
Q 1050 100 700 387 
Q 350 675 250 1225 
z
" transform="scale(0.015625)"/>
       </defs>
       <use xlink:href="#SimHei-33"/>
       <use xlink:href="#SimHei-30" x="50"/>
       <use xlink:href="#SimHei-30" x="100"/>
      </g>
     </g>
    </g>
    <g id="ytick_5">
     <g id="line2d_13">
      <g>
       <use xlink:href="#mc6f6853447" x="57.6" y="74.096021" style="stroke: #000000; stroke-width: 0.8"/>
      </g>
     </g>
     <g id="text_13">
      <!-- 400 -->
      <g transform="translate(35.6 77.533521) scale(0.1 -0.1)">
       <use xlink:href="#SimHei-34"/>
       <use xlink:href="#SimHei-30" x="50"/>
       <use xlink:href="#SimHei-30" x="100"/>
      </g>
     </g>
    </g>
   </g>
   <g id="line2d_14">
    <path d="M 73.832727 53.568 
L 76.237576 290.409782 
L 78.642424 258.961114 
L 81.047273 264.192165 
L 83.452121 260.877263 
L 85.85697 286.345597 
L 88.261818 267.10881 
L 90.666667 272.016032 
L 93.071515 279.081539 
L 95.476364 272.374368 
L 97.881212 285.88991 
L 100.286061 277.009313 
L 102.690909 275.140438 
L 105.095758 274.480694 
L 107.500606 283.60936 
L 109.905455 266.629327 
L 112.310303 292.554449 
L 114.715152 292.183768 
L 117.12 290.233262 
L 119.524848 283.917196 
L 121.929697 281.130912 
L 124.334545 285.348043 
L 126.739394 277.654377 
L 129.144242 275.061546 
L 131.549091 291.895383 
L 133.953939 289.354339 
L 136.358788 285.748591 
L 138.763636 287.455816 
L 141.168485 295.488 
L 143.573333 280.140913 
L 145.978182 288.528976 
L 148.38303 284.349069 
L 150.787879 281.572967 
L 153.192727 291.595889 
L 155.597576 274.439905 
L 158.002424 281.937004 
L 160.407273 281.385916 
L 162.812121 293.013857 
L 165.21697 284.054599 
L 167.621818 281.016173 
L 170.026667 285.26514 
L 172.431515 286.008779 
L 174.836364 284.867274 
L 177.241212 276.287268 
L 179.646061 288.292024 
L 182.050909 291.587494 
L 184.455758 284.198605 
L 186.860606 264.231989 
L 189.265455 273.572254 
L 191.670303 274.761687 
L 194.075152 288.744122 
L 196.48 278.491904 
L 198.884848 277.793652 
L 201.289697 266.916253 
L 203.694545 291.082623 
L 206.099394 268.754418 
L 208.504242 291.569973 
L 210.909091 285.850472 
L 213.313939 281.687023 
L 215.718788 279.670476 
L 218.123636 278.829969 
L 220.528485 291.768102 
L 222.933333 276.232705 
L 225.338182 292.064949 
L 227.74303 284.74327 
L 230.147879 282.49318 
L 232.552727 285.219183 
L 234.957576 282.810926 
L 237.362424 292.136891 
L 239.767273 282.810926 
L 242.172121 285.219183 
L 244.57697 282.49318 
L 246.981818 284.74327 
L 249.386667 292.064949 
L 251.791515 276.232705 
L 254.196364 291.768102 
L 256.601212 278.829969 
L 259.006061 279.670476 
L 261.410909 281.687023 
L 263.815758 285.850472 
L 266.220606 291.569973 
L 268.625455 268.754418 
L 271.030303 291.082623 
L 273.435152 266.916253 
L 275.84 277.793652 
L 278.244848 278.491904 
L 280.649697 288.744122 
L 283.054545 274.761687 
L 285.459394 273.572254 
L 287.864242 264.231989 
L 290.269091 284.198605 
L 292.673939 291.587494 
L 295.078788 288.292024 
L 297.483636 276.287268 
L 299.888485 284.867274 
L 302.293333 286.008779 
L 304.698182 285.26514 
L 307.10303 281.016173 
L 309.507879 284.054599 
L 311.912727 293.013857 
L 314.317576 281.385916 
L 316.722424 281.937004 
L 319.127273 274.439905 
L 321.532121 291.595889 
L 323.93697 281.572967 
L 326.341818 284.349069 
L 328.746667 288.528976 
L 331.151515 280.140913 
L 333.556364 295.488 
L 335.961212 287.455816 
L 338.366061 285.748591 
L 340.770909 289.354339 
L 343.175758 291.895383 
L 345.580606 275.061546 
L 347.985455 277.654377 
L 350.390303 285.348043 
L 352.795152 281.130912 
L 355.2 283.917196 
L 357.604848 290.233262 
L 360.009697 292.183768 
L 362.414545 292.554449 
L 364.819394 266.629327 
L 367.224242 283.60936 
L 369.629091 274.480694 
L 372.033939 275.140438 
L 374.438788 277.009313 
L 376.843636 285.88991 
L 379.248485 272.374368 
L 381.653333 279.081539 
L 384.058182 272.016032 
L 386.46303 267.10881 
L 388.867879 286.345597 
L 391.272727 260.877263 
L 393.677576 264.192165 
L 396.082424 258.961114 
L 398.487273 290.409782 
L 398.487273 290.409782 
" clip-path="url(#pd3e191d250)" style="fill: none; stroke: #1f77b4; stroke-width: 1.5; stroke-linecap: square"/>
   </g>
   <g id="patch_3">
    <path d="M 57.6 307.584 
L 57.6 41.472 
" style="fill: none; stroke: #000000; stroke-width: 0.8; stroke-linejoin: miter; stroke-linecap: square"/>
   </g>
   <g id="patch_4">
    <path d="M 414.72 307.584 
L 414.72 41.472 
" style="fill: none; stroke: #000000; stroke-width: 0.8; stroke-linejoin: miter; stroke-linecap: square"/>
   </g>
   <g id="patch_5">
    <path d="M 57.6 307.584 
L 414.72 307.584 
" style="fill: none; stroke: #000000; stroke-width: 0.8; stroke-linejoin: miter; stroke-linecap: square"/>
   </g>
   <g id="patch_6">
    <path d="M 57.6 41.472 
L 414.72 41.472 
" style="fill: none; stroke: #000000; stroke-width: 0.8; stroke-linejoin: miter; stroke-linecap: square"/>
   </g>
   <g id="text_14">
    <!-- 6004020504 傅里叶变换 -->
    <g transform="translate(173.16 35.472) scale(0.12 -0.12)">
     <defs>
      <path id="SimHei-35" d="M 550 1325 
Q 725 650 1150 575 
Q 1575 500 1837 662 
Q 2100 825 2212 1087 
Q 2325 1350 2312 1675 
Q 2300 2000 2137 2225 
Q 1975 2450 1725 2525 
Q 1475 2600 1162 2525 
Q 850 2450 650 2175 
L 225 2225 
Q 275 2375 700 4375 
L 2675 4375 
L 2675 3925 
L 1075 3925 
Q 950 3250 825 2850 
Q 1200 3025 1525 3012 
Q 1850 3000 2150 2862 
Q 2450 2725 2587 2487 
Q 2725 2250 2787 2012 
Q 2850 1775 2837 1500 
Q 2825 1225 2725 937 
Q 2625 650 2425 462 
Q 2225 275 1937 162 
Q 1650 50 1275 75 
Q 900 100 562 350 
Q 225 600 100 1200 
L 550 1325 
z
" transform="scale(0.015625)"/>
      <path id="SimHei-20" transform="scale(0.015625)"/>
      <path id="SimHei-5085" d="M 2100 4550 
Q 2575 4525 2850 4525 
L 3575 4525 
Q 3575 4950 3550 5200 
L 4075 5200 
Q 4025 5000 4025 4525 
L 5050 4525 
Q 5600 4525 5925 4550 
L 5925 4125 
Q 5600 4150 5075 4150 
L 4025 4150 
L 4025 3775 
L 5550 3775 
Q 5525 3525 5525 2750 
Q 5525 2000 5550 1700 
L 5075 1700 
L 5075 1950 
L 4025 1950 
Q 4025 1725 4050 1500 
L 3550 1500 
Q 3575 1750 3575 1950 
L 2750 1950 
L 2750 1525 
L 2275 1525 
Q 2300 1900 2300 2675 
Q 2300 3475 2275 3775 
L 3575 3775 
L 3575 4150 
L 2875 4150 
Q 2550 4150 2100 4125 
L 2100 4550 
z
M 275 2550 
Q 550 2850 912 3512 
Q 1275 4175 1500 5175 
Q 1750 5050 2100 4950 
Q 1925 4750 1600 3775 
L 1600 750 
Q 1600 -25 1625 -525 
L 1125 -525 
Q 1150 -50 1150 775 
L 1150 2975 
Q 1050 2775 675 2225 
Q 525 2400 275 2550 
z
M 6100 800 
Q 5725 825 5350 825 
L 5150 825 
L 5150 50 
Q 5200 -350 4925 -462 
Q 4650 -575 4250 -625 
Q 4175 -375 4050 -125 
Q 4450 -125 4575 -87 
Q 4700 -50 4700 250 
L 4700 825 
L 2675 825 
Q 2325 825 1875 800 
L 1875 1250 
Q 2325 1225 2675 1225 
L 4700 1225 
Q 4700 1425 4675 1625 
L 5200 1625 
Q 5150 1425 5150 1225 
L 5350 1225 
Q 5650 1225 6100 1250 
L 6100 800 
z
M 3600 75 
Q 3350 -50 3175 -225 
Q 3075 25 2675 450 
Q 2900 600 3075 775 
Q 3250 550 3362 400 
Q 3475 250 3600 75 
z
M 5075 2325 
L 5075 2675 
L 4025 2675 
L 4025 2325 
L 5075 2325 
z
M 5075 3050 
L 5075 3375 
L 4025 3375 
L 4025 3050 
L 5075 3050 
z
M 4975 5300 
Q 5125 5100 5350 4825 
Q 5100 4700 4875 4575 
Q 4725 4850 4525 5025 
Q 4800 5175 4975 5300 
z
M 3575 2325 
L 3575 2675 
L 2750 2675 
L 2750 2325 
L 3575 2325 
z
M 3575 3050 
L 3575 3375 
L 2750 3375 
L 2750 3050 
L 3575 3050 
z
" transform="scale(0.015625)"/>
      <path id="SimHei-91cc" d="M 5325 4925 
Q 5300 4400 5300 3500 
Q 5300 2600 5325 2075 
L 3400 2075 
L 3400 1400 
L 4575 1400 
Q 4900 1400 5425 1450 
L 5425 950 
Q 4900 975 4575 975 
L 3400 975 
L 3400 125 
L 5125 125 
Q 5500 125 6000 150 
L 6000 -350 
Q 5500 -325 5125 -325 
L 1450 -325 
Q 1000 -325 425 -375 
L 425 150 
Q 850 125 1450 125 
L 2925 125 
L 2925 975 
L 1825 975 
Q 1500 975 975 950 
L 975 1450 
Q 1350 1400 1825 1400 
L 2925 1400 
L 2925 2075 
L 1075 2075 
Q 1100 2600 1112 3337 
Q 1125 4075 1075 4925 
L 5325 4925 
z
M 4825 3675 
L 4825 4500 
L 3400 4500 
L 3400 3675 
L 4825 3675 
z
M 4825 2500 
L 4825 3275 
L 3400 3275 
L 3400 2500 
L 4825 2500 
z
M 2925 3675 
L 2925 4500 
L 1600 4500 
L 1600 3675 
L 2925 3675 
z
M 2925 2500 
L 2925 3275 
L 1600 3275 
L 1600 2500 
L 2925 2500 
z
" transform="scale(0.015625)"/>
      <path id="SimHei-53f6" d="M 2350 4625 
Q 2325 4100 2325 3600 
L 2325 1475 
Q 2325 950 2350 500 
L 1825 500 
L 1825 1150 
L 875 1150 
L 875 150 
L 350 150 
Q 375 650 375 1125 
L 375 3600 
Q 375 3950 350 4625 
L 2350 4625 
z
M 4150 3200 
L 4150 4450 
Q 4150 4950 4125 5150 
L 4725 5150 
Q 4675 4950 4675 4450 
L 4675 3200 
L 5575 3200 
Q 6050 3200 6175 3225 
L 6175 2725 
Q 6025 2750 5600 2750 
L 4675 2750 
L 4675 275 
Q 4675 -275 4700 -550 
L 4125 -550 
Q 4150 -275 4150 250 
L 4150 2750 
L 3275 2750 
Q 2775 2750 2600 2725 
L 2600 3225 
Q 2775 3200 3250 3200 
L 4150 3200 
z
M 1825 1600 
L 1825 4175 
L 875 4175 
L 875 1600 
L 1825 1600 
z
" transform="scale(0.015625)"/>
      <path id="SimHei-53d8" d="M 5200 1975 
Q 4950 1600 4537 1137 
Q 4125 675 3675 375 
Q 3925 225 4600 87 
Q 5275 -50 6000 -75 
Q 5700 -400 5650 -625 
Q 4850 -525 4212 -312 
Q 3575 -100 3225 125 
Q 2800 -125 2150 -325 
Q 1500 -525 700 -675 
Q 600 -425 400 -175 
Q 950 -150 1687 12 
Q 2425 175 2825 375 
Q 2275 775 1675 1575 
Q 1350 1575 1000 1550 
L 1000 2000 
Q 1450 1975 2075 1975 
L 5200 1975 
z
M 3225 5275 
Q 3400 4900 3550 4475 
L 4675 4475 
Q 5400 4475 5975 4500 
L 5975 4025 
Q 5375 4050 4725 4050 
L 4125 4050 
L 4125 2950 
Q 4125 2550 4150 2150 
L 3600 2150 
Q 3625 2550 3625 2950 
L 3625 4050 
L 2750 4050 
L 2750 2950 
Q 2750 2675 2775 2150 
L 2225 2150 
Q 2250 2675 2250 2950 
L 2250 4050 
L 1700 4050 
Q 975 4050 425 4025 
L 425 4500 
Q 950 4475 1700 4475 
L 2975 4475 
Q 2925 4675 2700 5125 
Q 2950 5150 3225 5275 
z
M 2200 1575 
Q 2650 975 3250 600 
Q 3850 1000 4275 1575 
L 2200 1575 
z
M 4850 3750 
Q 5375 3275 5950 2675 
Q 5750 2525 5500 2300 
Q 5075 2800 4450 3400 
Q 4675 3575 4850 3750 
z
M 1825 3500 
Q 1700 3375 1425 3025 
Q 1150 2675 825 2300 
Q 575 2475 375 2600 
Q 975 3150 1300 3825 
Q 1525 3650 1825 3500 
z
" transform="scale(0.015625)"/>
      <path id="SimHei-6362" d="M 1225 4550 
Q 1225 4900 1200 5200 
L 1700 5200 
Q 1650 4925 1650 4550 
L 1650 3800 
Q 1925 3800 2300 3825 
L 2300 3425 
Q 2725 3850 3000 4300 
Q 3275 4750 3425 5200 
Q 3625 5075 3950 4950 
Q 3800 4800 3600 4450 
L 5325 4450 
Q 4825 3750 4575 3325 
L 5600 3325 
L 5600 1650 
Q 5875 1650 6150 1675 
L 6150 1250 
Q 5725 1275 5450 1275 
L 4500 1275 
Q 4725 700 5237 325 
Q 5750 -50 6150 -150 
Q 5875 -375 5775 -625 
Q 5375 -450 4925 -37 
Q 4475 375 4150 1000 
Q 3775 50 2250 -625 
Q 2175 -425 1925 -200 
Q 2650 0 3137 425 
Q 3625 850 3775 1275 
L 2650 1275 
Q 2500 1275 2100 1250 
L 2100 1675 
Q 2475 1650 2675 1650 
L 2675 2675 
Q 2675 3050 2650 3150 
L 2550 3025 
Q 2400 3200 2175 3325 
L 2275 3400 
Q 1925 3425 1650 3425 
L 1650 2350 
Q 1925 2475 2200 2650 
Q 2225 2450 2275 2225 
Q 2025 2100 1650 1900 
L 1650 50 
Q 1650 -275 1462 -400 
Q 1275 -525 725 -600 
Q 700 -375 525 -75 
Q 1050 -100 1137 -50 
Q 1225 0 1225 150 
L 1225 1700 
Q 800 1475 525 1300 
Q 425 1525 250 1750 
Q 875 1975 1225 2150 
L 1225 3425 
Q 675 3425 300 3400 
L 300 3825 
Q 650 3800 1225 3800 
L 1225 4550 
z
M 5175 1650 
L 5175 2950 
L 4375 2950 
Q 4375 2300 4325 1650 
L 5175 1650 
z
M 3850 1650 
Q 3900 2300 3925 2950 
L 3100 2950 
L 3100 1650 
L 3850 1650 
z
M 3400 4100 
Q 3075 3625 2800 3325 
L 4100 3325 
L 4550 4100 
L 3400 4100 
z
" transform="scale(0.015625)"/>
     </defs>
     <use xlink:href="#SimHei-36"/>
     <use xlink:href="#SimHei-30" x="50"/>
     <use xlink:href="#SimHei-30" x="100"/>
     <use xlink:href="#SimHei-34" x="150"/>
     <use xlink:href="#SimHei-30" x="200"/>
     <use xlink:href="#SimHei-32" x="250"/>
     <use xlink:href="#SimHei-30" x="300"/>
     <use xlink:href="#SimHei-35" x="350"/>
     <use xlink:href="#SimHei-30" x="400"/>
     <use xlink:href="#SimHei-34" x="450"/>
     <use xlink:href="#SimHei-20" x="500"/>
     <use xlink:href="#SimHei-5085" x="550"/>
     <use xlink:href="#SimHei-91cc" x="650"/>
     <use xlink:href="#SimHei-53f6" x="750"/>
     <use xlink:href="#SimHei-53d8" x="850"/>
     <use xlink:href="#SimHei-6362" x="950"/>
    </g>
   </g>
  </g>
 </g>
 <defs>
  <clipPath id="pd3e191d250">
   <rect x="57.6" y="41.472" width="357.12" height="266.112"/>
  </clipPath>
 </defs>
</svg>
