<?xml version="1.0" encoding="utf-8" standalone="no"?>
<!DOCTYPE svg PUBLIC "-//W3C//DTD SVG 1.1//EN"
  "http://www.w3.org/Graphics/SVG/1.1/DTD/svg11.dtd">
<svg xmlns:xlink="http://www.w3.org/1999/xlink" width="720pt" height="432pt" viewBox="0 0 720 432" xmlns="http://www.w3.org/2000/svg" version="1.1">
 <metadata>
  <rdf:RDF xmlns:dc="http://purl.org/dc/elements/1.1/" xmlns:cc="http://creativecommons.org/ns#" xmlns:rdf="http://www.w3.org/1999/02/22-rdf-syntax-ns#">
   <cc:Work>
    <dc:type rdf:resource="http://purl.org/dc/dcmitype/StillImage"/>
    <dc:date>2024-08-17T14:08:08.413865</dc:date>
    <dc:format>image/svg+xml</dc:format>
    <dc:creator>
     <cc:Agent>
      <dc:title>Matplotlib v3.8.0, https://matplotlib.org/</dc:title>
     </cc:Agent>
    </dc:creator>
   </cc:Work>
  </rdf:RDF>
 </metadata>
 <defs>
  <style type="text/css">*{stroke-linejoin: round; stroke-linecap: butt}</style>
 </defs>
 <g id="figure_1">
  <g id="patch_1">
   <path d="M 0 432 
L 720 432 
L 720 0 
L 0 0 
z
" style="fill: #ffffff"/>
  </g>
  <g id="axes_1">
   <g id="patch_2">
    <path d="M 90 384.48 
L 648 384.48 
L 648 51.84 
L 90 51.84 
z
" style="fill: #ffffff"/>
   </g>
   <g id="matplotlib.axis_1">
    <g id="xtick_1">
     <g id="line2d_1">
      <path d="M 112.481405 384.48 
L 112.481405 51.84 
" clip-path="url(#p62091f151b)" style="fill: none; stroke: #b0b0b0; stroke-width: 0.8; stroke-linecap: square"/>
     </g>
     <g id="line2d_2">
      <defs>
       <path id="m8fb5719a96" d="M 0 0 
L 0 3.5 
" style="stroke: #000000; stroke-width: 0.8"/>
      </defs>
      <g>
       <use xlink:href="#m8fb5719a96" x="112.481405" y="384.48" style="stroke: #000000; stroke-width: 0.8"/>
      </g>
     </g>
     <g id="text_1">
      <!-- 0 -->
      <g transform="translate(109.981405 398.355) scale(0.1 -0.1)">
       <defs>
        <path id="SimHei-30" d="M 225 2537 
Q 250 3200 412 3587 
Q 575 3975 875 4225 
Q 1175 4475 1612 4475 
Q 2050 4475 2375 4112 
Q 2700 3750 2800 3200 
Q 2900 2650 2862 1937 
Q 2825 1225 2612 775 
Q 2400 325 1975 150 
Q 1550 -25 1125 187 
Q 700 400 525 750 
Q 350 1100 275 1487 
Q 200 1875 225 2537 
z
M 750 2687 
Q 675 2000 800 1462 
Q 925 925 1212 700 
Q 1500 475 1800 612 
Q 2100 750 2237 1162 
Q 2375 1575 2375 2062 
Q 2375 2550 2337 2950 
Q 2300 3350 2112 3675 
Q 1925 4000 1612 4012 
Q 1300 4025 1062 3700 
Q 825 3375 750 2687 
z
" transform="scale(0.015625)"/>
       </defs>
       <use xlink:href="#SimHei-30"/>
      </g>
     </g>
    </g>
    <g id="xtick_2">
     <g id="line2d_3">
      <path d="M 184.53719 384.48 
L 184.53719 51.84 
" clip-path="url(#p62091f151b)" style="fill: none; stroke: #b0b0b0; stroke-width: 0.8; stroke-linecap: square"/>
     </g>
     <g id="line2d_4">
      <g>
       <use xlink:href="#m8fb5719a96" x="184.53719" y="384.48" style="stroke: #000000; stroke-width: 0.8"/>
      </g>
     </g>
     <g id="text_2">
      <!-- 25 -->
      <g transform="translate(179.53719 398.355) scale(0.1 -0.1)">
       <defs>
        <path id="SimHei-32" d="M 300 250 
Q 325 625 650 925 
Q 975 1225 1475 1862 
Q 1975 2500 2125 2850 
Q 2275 3200 2237 3450 
Q 2200 3700 2000 3862 
Q 1800 4025 1537 4000 
Q 1275 3975 1037 3800 
Q 800 3625 675 3275 
L 200 3350 
Q 400 3925 712 4187 
Q 1025 4450 1450 4475 
Q 1700 4500 1900 4462 
Q 2100 4425 2312 4287 
Q 2525 4150 2662 3875 
Q 2800 3600 2762 3212 
Q 2725 2825 2375 2287 
Q 2025 1750 1025 600 
L 2825 600 
L 2825 150 
L 300 150 
L 300 250 
z
" transform="scale(0.015625)"/>
        <path id="SimHei-35" d="M 550 1325 
Q 725 650 1150 575 
Q 1575 500 1837 662 
Q 2100 825 2212 1087 
Q 2325 1350 2312 1675 
Q 2300 2000 2137 2225 
Q 1975 2450 1725 2525 
Q 1475 2600 1162 2525 
Q 850 2450 650 2175 
L 225 2225 
Q 275 2375 700 4375 
L 2675 4375 
L 2675 3925 
L 1075 3925 
Q 950 3250 825 2850 
Q 1200 3025 1525 3012 
Q 1850 3000 2150 2862 
Q 2450 2725 2587 2487 
Q 2725 2250 2787 2012 
Q 2850 1775 2837 1500 
Q 2825 1225 2725 937 
Q 2625 650 2425 462 
Q 2225 275 1937 162 
Q 1650 50 1275 75 
Q 900 100 562 350 
Q 225 600 100 1200 
L 550 1325 
z
" transform="scale(0.015625)"/>
       </defs>
       <use xlink:href="#SimHei-32"/>
       <use xlink:href="#SimHei-35" x="50"/>
      </g>
     </g>
    </g>
    <g id="xtick_3">
     <g id="line2d_5">
      <path d="M 256.592975 384.48 
L 256.592975 51.84 
" clip-path="url(#p62091f151b)" style="fill: none; stroke: #b0b0b0; stroke-width: 0.8; stroke-linecap: square"/>
     </g>
     <g id="line2d_6">
      <g>
       <use xlink:href="#m8fb5719a96" x="256.592975" y="384.48" style="stroke: #000000; stroke-width: 0.8"/>
      </g>
     </g>
     <g id="text_3">
      <!-- 50 -->
      <g transform="translate(251.592975 398.355) scale(0.1 -0.1)">
       <use xlink:href="#SimHei-35"/>
       <use xlink:href="#SimHei-30" x="50"/>
      </g>
     </g>
    </g>
    <g id="xtick_4">
     <g id="line2d_7">
      <path d="M 328.64876 384.48 
L 328.64876 51.84 
" clip-path="url(#p62091f151b)" style="fill: none; stroke: #b0b0b0; stroke-width: 0.8; stroke-linecap: square"/>
     </g>
     <g id="line2d_8">
      <g>
       <use xlink:href="#m8fb5719a96" x="328.64876" y="384.48" style="stroke: #000000; stroke-width: 0.8"/>
      </g>
     </g>
     <g id="text_4">
      <!-- 75 -->
      <g transform="translate(323.64876 398.355) scale(0.1 -0.1)">
       <defs>
        <path id="SimHei-37" d="M 850 150 
Q 1300 2050 2425 3925 
L 275 3925 
L 275 4375 
L 2950 4375 
L 2950 3950 
Q 1775 2050 1400 150 
L 850 150 
z
" transform="scale(0.015625)"/>
       </defs>
       <use xlink:href="#SimHei-37"/>
       <use xlink:href="#SimHei-35" x="50"/>
      </g>
     </g>
    </g>
    <g id="xtick_5">
     <g id="line2d_9">
      <path d="M 400.704545 384.48 
L 400.704545 51.84 
" clip-path="url(#p62091f151b)" style="fill: none; stroke: #b0b0b0; stroke-width: 0.8; stroke-linecap: square"/>
     </g>
     <g id="line2d_10">
      <g>
       <use xlink:href="#m8fb5719a96" x="400.704545" y="384.48" style="stroke: #000000; stroke-width: 0.8"/>
      </g>
     </g>
     <g id="text_5">
      <!-- 100 -->
      <g transform="translate(393.204545 398.355) scale(0.1 -0.1)">
       <defs>
        <path id="SimHei-31" d="M 1400 3600 
Q 1075 3275 575 2975 
L 575 3450 
Q 1200 3875 1600 4450 
L 1900 4450 
L 1900 150 
L 1400 150 
L 1400 3600 
z
" transform="scale(0.015625)"/>
       </defs>
       <use xlink:href="#SimHei-31"/>
       <use xlink:href="#SimHei-30" x="50"/>
       <use xlink:href="#SimHei-30" x="100"/>
      </g>
     </g>
    </g>
    <g id="xtick_6">
     <g id="line2d_11">
      <path d="M 472.760331 384.48 
L 472.760331 51.84 
" clip-path="url(#p62091f151b)" style="fill: none; stroke: #b0b0b0; stroke-width: 0.8; stroke-linecap: square"/>
     </g>
     <g id="line2d_12">
      <g>
       <use xlink:href="#m8fb5719a96" x="472.760331" y="384.48" style="stroke: #000000; stroke-width: 0.8"/>
      </g>
     </g>
     <g id="text_6">
      <!-- 125 -->
      <g transform="translate(465.260331 398.355) scale(0.1 -0.1)">
       <use xlink:href="#SimHei-31"/>
       <use xlink:href="#SimHei-32" x="50"/>
       <use xlink:href="#SimHei-35" x="100"/>
      </g>
     </g>
    </g>
    <g id="xtick_7">
     <g id="line2d_13">
      <path d="M 544.816116 384.48 
L 544.816116 51.84 
" clip-path="url(#p62091f151b)" style="fill: none; stroke: #b0b0b0; stroke-width: 0.8; stroke-linecap: square"/>
     </g>
     <g id="line2d_14">
      <g>
       <use xlink:href="#m8fb5719a96" x="544.816116" y="384.48" style="stroke: #000000; stroke-width: 0.8"/>
      </g>
     </g>
     <g id="text_7">
      <!-- 150 -->
      <g transform="translate(537.316116 398.355) scale(0.1 -0.1)">
       <use xlink:href="#SimHei-31"/>
       <use xlink:href="#SimHei-35" x="50"/>
       <use xlink:href="#SimHei-30" x="100"/>
      </g>
     </g>
    </g>
    <g id="xtick_8">
     <g id="line2d_15">
      <path d="M 616.871901 384.48 
L 616.871901 51.84 
" clip-path="url(#p62091f151b)" style="fill: none; stroke: #b0b0b0; stroke-width: 0.8; stroke-linecap: square"/>
     </g>
     <g id="line2d_16">
      <g>
       <use xlink:href="#m8fb5719a96" x="616.871901" y="384.48" style="stroke: #000000; stroke-width: 0.8"/>
      </g>
     </g>
     <g id="text_8">
      <!-- 175 -->
      <g transform="translate(609.371901 398.355) scale(0.1 -0.1)">
       <use xlink:href="#SimHei-31"/>
       <use xlink:href="#SimHei-37" x="50"/>
       <use xlink:href="#SimHei-35" x="100"/>
      </g>
     </g>
    </g>
    <g id="text_9">
     <!-- 周数 -->
     <g transform="translate(359 411.339375) scale(0.1 -0.1)">
      <defs>
       <path id="SimHei-5468" d="M 5600 4925 
Q 5575 4400 5575 3800 
L 5575 50 
Q 5550 -375 5325 -462 
Q 5100 -550 4325 -600 
Q 4300 -400 4125 -75 
Q 4800 -100 4962 -37 
Q 5125 25 5100 225 
L 5100 4525 
L 1500 4525 
Q 1500 2575 1450 1887 
Q 1400 1200 1237 550 
Q 1075 -100 775 -625 
Q 625 -450 275 -225 
Q 650 225 825 1000 
Q 1000 1775 1025 2587 
Q 1050 3400 1000 4925 
L 5600 4925 
z
M 2050 325 
Q 2075 625 2075 950 
L 2075 1400 
Q 2075 1625 2050 1925 
L 4400 1925 
Q 4375 1725 4375 1450 
L 4375 875 
Q 4375 600 4400 325 
L 2050 325 
z
M 3000 3800 
Q 3000 4150 2975 4375 
L 3475 4375 
Q 3450 4075 3450 3800 
Q 4100 3800 4475 3825 
L 4475 3350 
Q 4125 3375 3450 3375 
L 3450 2800 
Q 4200 2800 4825 2825 
L 4825 2350 
Q 4175 2375 3725 2375 
L 2750 2375 
Q 2325 2375 1725 2350 
L 1725 2825 
Q 2325 2800 3000 2800 
L 3000 3375 
Q 2500 3375 1975 3350 
L 1975 3825 
Q 2475 3800 3000 3800 
z
M 3900 725 
L 3900 1525 
L 2550 1525 
L 2550 725 
L 3900 725 
z
" transform="scale(0.015625)"/>
       <path id="SimHei-6570" d="M 4525 4925 
Q 4475 4800 4400 4587 
Q 4325 4375 4175 3825 
L 5325 3825 
Q 5575 3825 5925 3850 
L 5925 3400 
Q 5650 3425 5500 3425 
Q 5500 3025 5362 2162 
Q 5225 1300 4875 675 
Q 5125 375 5437 137 
Q 5750 -100 6025 -200 
Q 5725 -425 5625 -625 
Q 5325 -450 5075 -225 
Q 4825 0 4575 325 
Q 4300 25 3987 -187 
Q 3675 -400 3200 -650 
Q 3075 -425 2850 -300 
Q 3225 -150 3650 125 
Q 4075 400 4300 675 
Q 4125 1025 3962 1425 
Q 3800 1825 3675 2475 
Q 3600 2275 3425 1950 
Q 3250 2050 3000 2150 
Q 3400 2850 3650 3675 
Q 3900 4500 3975 5100 
Q 4275 4975 4525 4925 
z
M 2100 2250 
Q 2000 2150 1875 1925 
L 3250 1925 
Q 3100 1300 2725 675 
Q 3125 525 3350 400 
Q 3225 225 3125 25 
Q 2900 175 2450 325 
Q 1950 -225 725 -650 
Q 600 -375 400 -275 
Q 1575 0 2000 475 
Q 1300 650 850 775 
Q 1000 1000 1250 1525 
Q 1000 1525 425 1500 
L 425 1950 
Q 900 1925 1400 1925 
Q 1500 2150 1550 2425 
Q 1825 2325 2100 2250 
z
M 1775 3950 
Q 1775 4550 1750 5100 
L 2250 5100 
Q 2225 4575 2225 3950 
Q 3075 3950 3425 3975 
L 3425 3525 
Q 3075 3550 2225 3550 
Q 2225 2825 2250 2425 
L 1750 2425 
Q 1775 2775 1775 3300 
Q 1650 3100 1300 2787 
Q 950 2475 650 2300 
Q 525 2525 275 2625 
Q 500 2700 875 2975 
Q 1250 3250 1450 3550 
Q 950 3550 500 3525 
L 500 3975 
Q 925 3950 1775 3950 
z
M 3975 3175 
Q 4200 1700 4600 1125 
Q 4850 1700 4937 2287 
Q 5025 2875 5050 3425 
L 4075 3425 
L 3975 3175 
z
M 1450 1000 
Q 1750 925 2275 800 
Q 2475 1050 2650 1525 
L 1725 1525 
Q 1600 1275 1450 1000 
z
M 3325 4825 
Q 3200 4625 3125 4450 
Q 3050 4275 2925 4025 
Q 2725 4125 2525 4175 
Q 2725 4500 2900 5000 
Q 3150 4875 3325 4825 
z
M 2575 3375 
Q 2900 3050 3200 2725 
Q 3050 2600 2875 2425 
Q 2525 2850 2300 3100 
Q 2450 3225 2575 3375 
z
M 925 5000 
Q 1275 4650 1500 4300 
L 1125 4075 
Q 950 4425 600 4725 
Q 825 4875 925 5000 
z
" transform="scale(0.015625)"/>
      </defs>
      <use xlink:href="#SimHei-5468"/>
      <use xlink:href="#SimHei-6570" x="100"/>
     </g>
    </g>
   </g>
   <g id="matplotlib.axis_2">
    <g id="ytick_1">
     <g id="line2d_17">
      <path d="M 90 377.743537 
L 648 377.743537 
" clip-path="url(#p62091f151b)" style="fill: none; stroke: #b0b0b0; stroke-width: 0.8; stroke-linecap: square"/>
     </g>
     <g id="line2d_18">
      <defs>
       <path id="m7e29541006" d="M 0 0 
L -3.5 0 
" style="stroke: #000000; stroke-width: 0.8"/>
      </defs>
      <g>
       <use xlink:href="#m7e29541006" x="90" y="377.743537" style="stroke: #000000; stroke-width: 0.8"/>
      </g>
     </g>
     <g id="text_10">
      <!-- 0 -->
      <g transform="translate(78 381.181037) scale(0.1 -0.1)">
       <use xlink:href="#SimHei-30"/>
      </g>
     </g>
    </g>
    <g id="ytick_2">
     <g id="line2d_19">
      <path d="M 90 317.43389 
L 648 317.43389 
" clip-path="url(#p62091f151b)" style="fill: none; stroke: #b0b0b0; stroke-width: 0.8; stroke-linecap: square"/>
     </g>
     <g id="line2d_20">
      <g>
       <use xlink:href="#m7e29541006" x="90" y="317.43389" style="stroke: #000000; stroke-width: 0.8"/>
      </g>
     </g>
     <g id="text_11">
      <!-- 500 -->
      <g transform="translate(68 320.87139) scale(0.1 -0.1)">
       <use xlink:href="#SimHei-35"/>
       <use xlink:href="#SimHei-30" x="50"/>
       <use xlink:href="#SimHei-30" x="100"/>
      </g>
     </g>
    </g>
    <g id="ytick_3">
     <g id="line2d_21">
      <path d="M 90 257.124244 
L 648 257.124244 
" clip-path="url(#p62091f151b)" style="fill: none; stroke: #b0b0b0; stroke-width: 0.8; stroke-linecap: square"/>
     </g>
     <g id="line2d_22">
      <g>
       <use xlink:href="#m7e29541006" x="90" y="257.124244" style="stroke: #000000; stroke-width: 0.8"/>
      </g>
     </g>
     <g id="text_12">
      <!-- 1000 -->
      <g transform="translate(63 260.561744) scale(0.1 -0.1)">
       <use xlink:href="#SimHei-31"/>
       <use xlink:href="#SimHei-30" x="50"/>
       <use xlink:href="#SimHei-30" x="100"/>
       <use xlink:href="#SimHei-30" x="150"/>
      </g>
     </g>
    </g>
    <g id="ytick_4">
     <g id="line2d_23">
      <path d="M 90 196.814597 
L 648 196.814597 
" clip-path="url(#p62091f151b)" style="fill: none; stroke: #b0b0b0; stroke-width: 0.8; stroke-linecap: square"/>
     </g>
     <g id="line2d_24">
      <g>
       <use xlink:href="#m7e29541006" x="90" y="196.814597" style="stroke: #000000; stroke-width: 0.8"/>
      </g>
     </g>
     <g id="text_13">
      <!-- 1500 -->
      <g transform="translate(63 200.252097) scale(0.1 -0.1)">
       <use xlink:href="#SimHei-31"/>
       <use xlink:href="#SimHei-35" x="50"/>
       <use xlink:href="#SimHei-30" x="100"/>
       <use xlink:href="#SimHei-30" x="150"/>
      </g>
     </g>
    </g>
    <g id="ytick_5">
     <g id="line2d_25">
      <path d="M 90 136.50495 
L 648 136.50495 
" clip-path="url(#p62091f151b)" style="fill: none; stroke: #b0b0b0; stroke-width: 0.8; stroke-linecap: square"/>
     </g>
     <g id="line2d_26">
      <g>
       <use xlink:href="#m7e29541006" x="90" y="136.50495" style="stroke: #000000; stroke-width: 0.8"/>
      </g>
     </g>
     <g id="text_14">
      <!-- 2000 -->
      <g transform="translate(63 139.94245) scale(0.1 -0.1)">
       <use xlink:href="#SimHei-32"/>
       <use xlink:href="#SimHei-30" x="50"/>
       <use xlink:href="#SimHei-30" x="100"/>
       <use xlink:href="#SimHei-30" x="150"/>
      </g>
     </g>
    </g>
    <g id="ytick_6">
     <g id="line2d_27">
      <path d="M 90 76.195304 
L 648 76.195304 
" clip-path="url(#p62091f151b)" style="fill: none; stroke: #b0b0b0; stroke-width: 0.8; stroke-linecap: square"/>
     </g>
     <g id="line2d_28">
      <g>
       <use xlink:href="#m7e29541006" x="90" y="76.195304" style="stroke: #000000; stroke-width: 0.8"/>
      </g>
     </g>
     <g id="text_15">
      <!-- 2500 -->
      <g transform="translate(63 79.632804) scale(0.1 -0.1)">
       <use xlink:href="#SimHei-32"/>
       <use xlink:href="#SimHei-35" x="50"/>
       <use xlink:href="#SimHei-30" x="100"/>
       <use xlink:href="#SimHei-30" x="150"/>
      </g>
     </g>
    </g>
    <g id="text_16">
     <!-- 收益 -->
     <g transform="translate(57.75 228.16) rotate(-90) scale(0.1 -0.1)">
      <defs>
       <path id="SimHei-6536" d="M 4250 5050 
Q 4125 4850 3750 4050 
L 5150 4050 
Q 5675 4050 6125 4075 
L 6125 3600 
Q 5675 3625 5300 3625 
Q 5225 2625 5025 1975 
Q 4825 1325 4575 900 
Q 4900 500 5287 275 
Q 5675 50 6200 -75 
Q 5900 -275 5800 -550 
Q 5300 -350 4950 -100 
Q 4600 150 4275 525 
Q 3800 0 2775 -625 
Q 2650 -425 2300 -225 
Q 3275 150 3950 925 
Q 3775 1325 3612 1787 
Q 3450 2250 3250 3000 
Q 2975 2450 2825 2275 
Q 2650 2400 2425 2525 
Q 2775 3025 3137 3837 
Q 3500 4650 3625 5250 
Q 3925 5125 4250 5050 
z
M 975 4275 
Q 925 3950 925 3450 
L 925 1575 
L 1775 1725 
L 1775 4425 
Q 1775 4775 1750 5150 
L 2250 5150 
Q 2225 4850 2225 4450 
L 2225 300 
Q 2225 -50 2250 -550 
L 1750 -550 
Q 1775 -25 1775 350 
L 1775 1350 
Q 625 1050 500 925 
Q 375 1125 225 1350 
Q 450 1475 450 1800 
L 450 3575 
Q 450 3925 425 4275 
L 975 4275 
z
M 3725 3150 
Q 3800 2700 3962 2212 
Q 4125 1725 4300 1375 
Q 4725 2150 4825 3625 
L 3575 3625 
Q 3400 3275 3300 3100 
L 3725 3150 
z
" transform="scale(0.015625)"/>
       <path id="SimHei-76ca" d="M 2825 2925 
Q 2425 2775 2012 2487 
Q 1600 2200 1225 1975 
L 5275 1975 
Q 5250 1575 5250 1000 
L 5250 -50 
Q 5800 -50 6175 -25 
L 6175 -525 
Q 5725 -500 5250 -500 
L 1325 -500 
Q 700 -500 250 -525 
L 250 -25 
Q 600 -50 1175 -50 
L 1175 1050 
Q 1175 1575 1150 1925 
Q 1000 1800 800 1700 
Q 650 1950 425 2125 
Q 800 2275 1312 2600 
Q 1825 2925 2325 3400 
Q 2550 3150 2825 2925 
z
M 4725 5050 
Q 4575 4900 4462 4637 
Q 4350 4375 4175 4075 
L 4625 4075 
Q 5350 4075 5900 4100 
L 5900 3625 
Q 5350 3650 4625 3650 
L 1975 3650 
Q 1350 3650 550 3625 
L 550 4100 
Q 1175 4075 1975 4075 
L 3675 4075 
Q 3775 4300 3887 4625 
Q 4000 4950 4125 5250 
L 4725 5050 
z
M 3600 -50 
L 3600 1575 
L 2800 1575 
L 2800 -50 
L 3600 -50 
z
M 4800 -50 
L 4800 1575 
L 4025 1575 
L 4025 -50 
L 4800 -50 
z
M 2375 -50 
L 2375 1575 
L 1625 1575 
L 1625 -50 
L 2375 -50 
z
M 3900 3350 
Q 4375 3150 4900 2925 
Q 5425 2700 5900 2500 
Q 5700 2300 5550 2000 
Q 5025 2300 4512 2537 
Q 4000 2775 3625 2900 
Q 3750 3075 3900 3350 
z
M 2150 5250 
Q 2375 4925 2650 4350 
Q 2425 4275 2150 4125 
Q 1950 4650 1675 5025 
Q 1875 5100 2150 5250 
z
" transform="scale(0.015625)"/>
      </defs>
      <use xlink:href="#SimHei-6536"/>
      <use xlink:href="#SimHei-76ca" x="100"/>
     </g>
    </g>
   </g>
   <g id="line2d_29">
    <path d="M 115.363636 358.666812 
L 118.245868 320.513361 
L 121.128099 311.706798 
L 124.010331 303.388102 
L 132.657025 359.154678 
L 135.539256 359.154678 
L 138.421488 340.56582 
L 144.18595 321.942497 
L 147.068182 331.242671 
L 149.950413 285.304973 
L 158.597107 322.78725 
L 161.479339 322.78725 
L 167.243802 359.424775 
L 170.126033 341.108194 
L 173.008264 304.47285 
L 175.890496 322.703687 
L 181.654959 258.490528 
L 184.53719 249.31722 
L 187.419421 203.450678 
L 190.301653 286.010453 
L 196.066116 185.060682 
L 198.948347 359.389033 
L 201.830579 295.14827 
L 204.71281 267.616514 
L 207.595041 341.034529 
L 210.477273 322.736073 
L 213.359504 359.407716 
L 216.241736 322.736073 
L 219.123967 240.224877 
L 222.006198 218.777121 
L 224.88843 201.114186 
L 227.770661 289.428861 
L 230.652893 236.440056 
L 233.535124 342.417667 
L 236.417355 295.249942 
L 239.299587 322.75116 
L 245.06405 341.081952 
L 247.946281 286.089575 
L 250.828512 350.247348 
L 253.710744 250.90352 
L 256.592975 324.964454 
L 259.475207 342.557482 
L 262.357438 272.330276 
L 265.239669 342.84729 
L 268.121901 307.951043 
L 271.004132 325.399166 
L 288.297521 342.84729 
L 291.179752 342.84729 
L 294.061983 203.195562 
L 296.944215 342.820594 
L 302.708678 239.165321 
L 305.590909 256.487598 
L 308.47314 325.776706 
L 311.355372 343.098983 
L 314.237603 343.098983 
L 317.119835 325.776706 
L 320.002066 325.776706 
L 322.884298 212.959817 
L 325.766529 299.626724 
L 328.64876 186.791328 
L 331.530992 221.509911 
L 334.413223 308.30637 
L 337.295455 343.024953 
L 340.177686 204.150619 
L 343.059917 325.946295 
L 345.942149 300.047674 
L 348.82438 239.617559 
L 351.706612 66.96 
L 354.588843 308.680509 
L 357.471074 170.554454 
L 360.353306 282.781874 
L 363.235537 292.166622 
L 366.117769 198.032017 
L 369 292.166622 
L 371.882231 326.397388 
L 374.764463 190.18774 
L 377.646694 360.865959 
L 380.528926 310.233225 
L 383.411157 276.47807 
L 386.293388 268.039281 
L 389.17562 242.972319 
L 392.057851 335.707694 
L 394.940083 360.949094 
L 397.822314 310.40956 
L 400.704545 293.51098 
L 403.586777 327.204003 
L 406.469008 327.256071 
L 409.35124 318.806781 
L 412.233471 360.897025 
L 415.115702 293.51098 
L 417.997934 344.050514 
L 420.880165 251.394702 
L 423.762397 327.256095 
L 426.644628 360.897025 
L 429.52686 310.461676 
L 435.291322 293.563073 
L 438.173554 344.102607 
L 441.055785 327.265857 
L 443.938017 260.002988 
L 449.702479 360.937995 
L 455.466942 318.924142 
L 458.349174 226.445549 
L 461.231405 344.132454 
L 464.113636 302.1186 
L 466.995868 293.71583 
L 472.760331 369.340766 
L 481.407025 369.354287 
L 484.289256 344.186538 
L 487.171488 335.794958 
L 490.053719 360.965038 
L 495.818182 293.841716 
L 498.700413 360.965038 
L 501.582645 302.246003 
L 504.464876 360.965038 
L 510.229339 327.416202 
L 513.11157 344.19198 
L 515.993802 344.19198 
L 518.876033 360.967759 
L 521.758264 369.36 
L 524.640496 310.86486 
L 527.522727 277.425522 
L 530.404959 277.378117 
L 533.28719 327.584529 
L 536.169421 327.584529 
L 539.051653 277.425522 
L 541.933884 310.921724 
L 544.816116 319.224698 
L 547.698347 361.029756 
L 550.580579 285.825037 
L 553.46281 344.315974 
L 556.345041 327.645978 
L 559.227273 335.995571 
L 562.109504 252.554211 
L 564.991736 344.345164 
L 582.285124 361.04435 
L 588.049587 344.295084 
L 590.931818 260.799153 
L 593.81405 310.946792 
L 596.696281 302.597198 
L 599.578512 327.645978 
L 602.460744 361.04435 
L 605.342975 344.345164 
L 608.225207 344.345164 
L 611.107438 310.946792 
L 613.989669 361.04435 
L 619.754132 361.04435 
L 622.636364 310.946792 
L 622.636364 310.946792 
" clip-path="url(#p62091f151b)" style="fill: none; stroke: #008000; stroke-width: 1.5; stroke-linecap: square"/>
    <defs>
     <path id="md5c954602c" d="M 0 3 
C 0.795609 3 1.55874 2.683901 2.12132 2.12132 
C 2.683901 1.55874 3 0.795609 3 0 
C 3 -0.795609 2.683901 -1.55874 2.12132 -2.12132 
C 1.55874 -2.683901 0.795609 -3 0 -3 
C -0.795609 -3 -1.55874 -2.683901 -2.12132 -2.12132 
C -2.683901 -1.55874 -3 -0.795609 -3 0 
C -3 0.795609 -2.683901 1.55874 -2.12132 2.12132 
C -1.55874 2.683901 -0.795609 3 0 3 
z
" style="stroke: #008000"/>
    </defs>
    <g clip-path="url(#p62091f151b)">
     <use xlink:href="#md5c954602c" x="115.363636" y="358.666812" style="fill: #008000; stroke: #008000"/>
     <use xlink:href="#md5c954602c" x="118.245868" y="320.513361" style="fill: #008000; stroke: #008000"/>
     <use xlink:href="#md5c954602c" x="121.128099" y="311.706798" style="fill: #008000; stroke: #008000"/>
     <use xlink:href="#md5c954602c" x="124.010331" y="303.388102" style="fill: #008000; stroke: #008000"/>
     <use xlink:href="#md5c954602c" x="132.657025" y="359.154678" style="fill: #008000; stroke: #008000"/>
     <use xlink:href="#md5c954602c" x="135.539256" y="359.154678" style="fill: #008000; stroke: #008000"/>
     <use xlink:href="#md5c954602c" x="138.421488" y="340.56582" style="fill: #008000; stroke: #008000"/>
     <use xlink:href="#md5c954602c" x="144.18595" y="321.942497" style="fill: #008000; stroke: #008000"/>
     <use xlink:href="#md5c954602c" x="147.068182" y="331.242671" style="fill: #008000; stroke: #008000"/>
     <use xlink:href="#md5c954602c" x="149.950413" y="285.304973" style="fill: #008000; stroke: #008000"/>
     <use xlink:href="#md5c954602c" x="158.597107" y="322.78725" style="fill: #008000; stroke: #008000"/>
     <use xlink:href="#md5c954602c" x="161.479339" y="322.78725" style="fill: #008000; stroke: #008000"/>
     <use xlink:href="#md5c954602c" x="167.243802" y="359.424775" style="fill: #008000; stroke: #008000"/>
     <use xlink:href="#md5c954602c" x="170.126033" y="341.108194" style="fill: #008000; stroke: #008000"/>
     <use xlink:href="#md5c954602c" x="173.008264" y="304.47285" style="fill: #008000; stroke: #008000"/>
     <use xlink:href="#md5c954602c" x="175.890496" y="322.703687" style="fill: #008000; stroke: #008000"/>
     <use xlink:href="#md5c954602c" x="181.654959" y="258.490528" style="fill: #008000; stroke: #008000"/>
     <use xlink:href="#md5c954602c" x="184.53719" y="249.31722" style="fill: #008000; stroke: #008000"/>
     <use xlink:href="#md5c954602c" x="187.419421" y="203.450678" style="fill: #008000; stroke: #008000"/>
     <use xlink:href="#md5c954602c" x="190.301653" y="286.010453" style="fill: #008000; stroke: #008000"/>
     <use xlink:href="#md5c954602c" x="196.066116" y="185.060682" style="fill: #008000; stroke: #008000"/>
     <use xlink:href="#md5c954602c" x="198.948347" y="359.389033" style="fill: #008000; stroke: #008000"/>
     <use xlink:href="#md5c954602c" x="201.830579" y="295.14827" style="fill: #008000; stroke: #008000"/>
     <use xlink:href="#md5c954602c" x="204.71281" y="267.616514" style="fill: #008000; stroke: #008000"/>
     <use xlink:href="#md5c954602c" x="207.595041" y="341.034529" style="fill: #008000; stroke: #008000"/>
     <use xlink:href="#md5c954602c" x="210.477273" y="322.736073" style="fill: #008000; stroke: #008000"/>
     <use xlink:href="#md5c954602c" x="213.359504" y="359.407716" style="fill: #008000; stroke: #008000"/>
     <use xlink:href="#md5c954602c" x="216.241736" y="322.736073" style="fill: #008000; stroke: #008000"/>
     <use xlink:href="#md5c954602c" x="219.123967" y="240.224877" style="fill: #008000; stroke: #008000"/>
     <use xlink:href="#md5c954602c" x="222.006198" y="218.777121" style="fill: #008000; stroke: #008000"/>
     <use xlink:href="#md5c954602c" x="224.88843" y="201.114186" style="fill: #008000; stroke: #008000"/>
     <use xlink:href="#md5c954602c" x="227.770661" y="289.428861" style="fill: #008000; stroke: #008000"/>
     <use xlink:href="#md5c954602c" x="230.652893" y="236.440056" style="fill: #008000; stroke: #008000"/>
     <use xlink:href="#md5c954602c" x="233.535124" y="342.417667" style="fill: #008000; stroke: #008000"/>
     <use xlink:href="#md5c954602c" x="236.417355" y="295.249942" style="fill: #008000; stroke: #008000"/>
     <use xlink:href="#md5c954602c" x="239.299587" y="322.75116" style="fill: #008000; stroke: #008000"/>
     <use xlink:href="#md5c954602c" x="242.181818" y="331.916556" style="fill: #008000; stroke: #008000"/>
     <use xlink:href="#md5c954602c" x="245.06405" y="341.081952" style="fill: #008000; stroke: #008000"/>
     <use xlink:href="#md5c954602c" x="247.946281" y="286.089575" style="fill: #008000; stroke: #008000"/>
     <use xlink:href="#md5c954602c" x="250.828512" y="350.247348" style="fill: #008000; stroke: #008000"/>
     <use xlink:href="#md5c954602c" x="253.710744" y="250.90352" style="fill: #008000; stroke: #008000"/>
     <use xlink:href="#md5c954602c" x="256.592975" y="324.964454" style="fill: #008000; stroke: #008000"/>
     <use xlink:href="#md5c954602c" x="259.475207" y="342.557482" style="fill: #008000; stroke: #008000"/>
     <use xlink:href="#md5c954602c" x="262.357438" y="272.330276" style="fill: #008000; stroke: #008000"/>
     <use xlink:href="#md5c954602c" x="265.239669" y="342.84729" style="fill: #008000; stroke: #008000"/>
     <use xlink:href="#md5c954602c" x="268.121901" y="307.951043" style="fill: #008000; stroke: #008000"/>
     <use xlink:href="#md5c954602c" x="271.004132" y="325.399166" style="fill: #008000; stroke: #008000"/>
     <use xlink:href="#md5c954602c" x="288.297521" y="342.84729" style="fill: #008000; stroke: #008000"/>
     <use xlink:href="#md5c954602c" x="291.179752" y="342.84729" style="fill: #008000; stroke: #008000"/>
     <use xlink:href="#md5c954602c" x="294.061983" y="203.195562" style="fill: #008000; stroke: #008000"/>
     <use xlink:href="#md5c954602c" x="296.944215" y="342.820594" style="fill: #008000; stroke: #008000"/>
     <use xlink:href="#md5c954602c" x="299.826446" y="290.575374" style="fill: #008000; stroke: #008000"/>
     <use xlink:href="#md5c954602c" x="302.708678" y="239.165321" style="fill: #008000; stroke: #008000"/>
     <use xlink:href="#md5c954602c" x="305.590909" y="256.487598" style="fill: #008000; stroke: #008000"/>
     <use xlink:href="#md5c954602c" x="308.47314" y="325.776706" style="fill: #008000; stroke: #008000"/>
     <use xlink:href="#md5c954602c" x="311.355372" y="343.098983" style="fill: #008000; stroke: #008000"/>
     <use xlink:href="#md5c954602c" x="314.237603" y="343.098983" style="fill: #008000; stroke: #008000"/>
     <use xlink:href="#md5c954602c" x="317.119835" y="325.776706" style="fill: #008000; stroke: #008000"/>
     <use xlink:href="#md5c954602c" x="320.002066" y="325.776706" style="fill: #008000; stroke: #008000"/>
     <use xlink:href="#md5c954602c" x="322.884298" y="212.959817" style="fill: #008000; stroke: #008000"/>
     <use xlink:href="#md5c954602c" x="325.766529" y="299.626724" style="fill: #008000; stroke: #008000"/>
     <use xlink:href="#md5c954602c" x="328.64876" y="186.791328" style="fill: #008000; stroke: #008000"/>
     <use xlink:href="#md5c954602c" x="331.530992" y="221.509911" style="fill: #008000; stroke: #008000"/>
     <use xlink:href="#md5c954602c" x="334.413223" y="308.30637" style="fill: #008000; stroke: #008000"/>
     <use xlink:href="#md5c954602c" x="337.295455" y="343.024953" style="fill: #008000; stroke: #008000"/>
     <use xlink:href="#md5c954602c" x="340.177686" y="204.150619" style="fill: #008000; stroke: #008000"/>
     <use xlink:href="#md5c954602c" x="343.059917" y="325.946295" style="fill: #008000; stroke: #008000"/>
     <use xlink:href="#md5c954602c" x="345.942149" y="300.047674" style="fill: #008000; stroke: #008000"/>
     <use xlink:href="#md5c954602c" x="348.82438" y="239.617559" style="fill: #008000; stroke: #008000"/>
     <use xlink:href="#md5c954602c" x="351.706612" y="66.96" style="fill: #008000; stroke: #008000"/>
     <use xlink:href="#md5c954602c" x="354.588843" y="308.680509" style="fill: #008000; stroke: #008000"/>
     <use xlink:href="#md5c954602c" x="357.471074" y="170.554454" style="fill: #008000; stroke: #008000"/>
     <use xlink:href="#md5c954602c" x="360.353306" y="282.781874" style="fill: #008000; stroke: #008000"/>
     <use xlink:href="#md5c954602c" x="363.235537" y="292.166622" style="fill: #008000; stroke: #008000"/>
     <use xlink:href="#md5c954602c" x="366.117769" y="198.032017" style="fill: #008000; stroke: #008000"/>
     <use xlink:href="#md5c954602c" x="369" y="292.166622" style="fill: #008000; stroke: #008000"/>
     <use xlink:href="#md5c954602c" x="371.882231" y="326.397388" style="fill: #008000; stroke: #008000"/>
     <use xlink:href="#md5c954602c" x="374.764463" y="190.18774" style="fill: #008000; stroke: #008000"/>
     <use xlink:href="#md5c954602c" x="377.646694" y="360.865959" style="fill: #008000; stroke: #008000"/>
     <use xlink:href="#md5c954602c" x="380.528926" y="310.233225" style="fill: #008000; stroke: #008000"/>
     <use xlink:href="#md5c954602c" x="383.411157" y="276.47807" style="fill: #008000; stroke: #008000"/>
     <use xlink:href="#md5c954602c" x="386.293388" y="268.039281" style="fill: #008000; stroke: #008000"/>
     <use xlink:href="#md5c954602c" x="389.17562" y="242.972319" style="fill: #008000; stroke: #008000"/>
     <use xlink:href="#md5c954602c" x="392.057851" y="335.707694" style="fill: #008000; stroke: #008000"/>
     <use xlink:href="#md5c954602c" x="394.940083" y="360.949094" style="fill: #008000; stroke: #008000"/>
     <use xlink:href="#md5c954602c" x="397.822314" y="310.40956" style="fill: #008000; stroke: #008000"/>
     <use xlink:href="#md5c954602c" x="400.704545" y="293.51098" style="fill: #008000; stroke: #008000"/>
     <use xlink:href="#md5c954602c" x="403.586777" y="327.204003" style="fill: #008000; stroke: #008000"/>
     <use xlink:href="#md5c954602c" x="406.469008" y="327.256071" style="fill: #008000; stroke: #008000"/>
     <use xlink:href="#md5c954602c" x="409.35124" y="318.806781" style="fill: #008000; stroke: #008000"/>
     <use xlink:href="#md5c954602c" x="412.233471" y="360.897025" style="fill: #008000; stroke: #008000"/>
     <use xlink:href="#md5c954602c" x="415.115702" y="293.51098" style="fill: #008000; stroke: #008000"/>
     <use xlink:href="#md5c954602c" x="417.997934" y="344.050514" style="fill: #008000; stroke: #008000"/>
     <use xlink:href="#md5c954602c" x="420.880165" y="251.394702" style="fill: #008000; stroke: #008000"/>
     <use xlink:href="#md5c954602c" x="423.762397" y="327.256095" style="fill: #008000; stroke: #008000"/>
     <use xlink:href="#md5c954602c" x="426.644628" y="360.897025" style="fill: #008000; stroke: #008000"/>
     <use xlink:href="#md5c954602c" x="429.52686" y="310.461676" style="fill: #008000; stroke: #008000"/>
     <use xlink:href="#md5c954602c" x="435.291322" y="293.563073" style="fill: #008000; stroke: #008000"/>
     <use xlink:href="#md5c954602c" x="438.173554" y="344.102607" style="fill: #008000; stroke: #008000"/>
     <use xlink:href="#md5c954602c" x="441.055785" y="327.265857" style="fill: #008000; stroke: #008000"/>
     <use xlink:href="#md5c954602c" x="443.938017" y="260.002988" style="fill: #008000; stroke: #008000"/>
     <use xlink:href="#md5c954602c" x="449.702479" y="360.937995" style="fill: #008000; stroke: #008000"/>
     <use xlink:href="#md5c954602c" x="455.466942" y="318.924142" style="fill: #008000; stroke: #008000"/>
     <use xlink:href="#md5c954602c" x="458.349174" y="226.445549" style="fill: #008000; stroke: #008000"/>
     <use xlink:href="#md5c954602c" x="461.231405" y="344.132454" style="fill: #008000; stroke: #008000"/>
     <use xlink:href="#md5c954602c" x="464.113636" y="302.1186" style="fill: #008000; stroke: #008000"/>
     <use xlink:href="#md5c954602c" x="466.995868" y="293.71583" style="fill: #008000; stroke: #008000"/>
     <use xlink:href="#md5c954602c" x="472.760331" y="369.340766" style="fill: #008000; stroke: #008000"/>
     <use xlink:href="#md5c954602c" x="475.642562" y="369.340766" style="fill: #008000; stroke: #008000"/>
     <use xlink:href="#md5c954602c" x="481.407025" y="369.354287" style="fill: #008000; stroke: #008000"/>
     <use xlink:href="#md5c954602c" x="484.289256" y="344.186538" style="fill: #008000; stroke: #008000"/>
     <use xlink:href="#md5c954602c" x="487.171488" y="335.794958" style="fill: #008000; stroke: #008000"/>
     <use xlink:href="#md5c954602c" x="490.053719" y="360.965038" style="fill: #008000; stroke: #008000"/>
     <use xlink:href="#md5c954602c" x="495.818182" y="293.841716" style="fill: #008000; stroke: #008000"/>
     <use xlink:href="#md5c954602c" x="498.700413" y="360.965038" style="fill: #008000; stroke: #008000"/>
     <use xlink:href="#md5c954602c" x="501.582645" y="302.246003" style="fill: #008000; stroke: #008000"/>
     <use xlink:href="#md5c954602c" x="504.464876" y="360.965038" style="fill: #008000; stroke: #008000"/>
     <use xlink:href="#md5c954602c" x="507.347107" y="344.189259" style="fill: #008000; stroke: #008000"/>
     <use xlink:href="#md5c954602c" x="510.229339" y="327.416202" style="fill: #008000; stroke: #008000"/>
     <use xlink:href="#md5c954602c" x="513.11157" y="344.19198" style="fill: #008000; stroke: #008000"/>
     <use xlink:href="#md5c954602c" x="515.993802" y="344.19198" style="fill: #008000; stroke: #008000"/>
     <use xlink:href="#md5c954602c" x="518.876033" y="360.967759" style="fill: #008000; stroke: #008000"/>
     <use xlink:href="#md5c954602c" x="521.758264" y="369.36" style="fill: #008000; stroke: #008000"/>
     <use xlink:href="#md5c954602c" x="524.640496" y="310.86486" style="fill: #008000; stroke: #008000"/>
     <use xlink:href="#md5c954602c" x="527.522727" y="277.425522" style="fill: #008000; stroke: #008000"/>
     <use xlink:href="#md5c954602c" x="530.404959" y="277.378117" style="fill: #008000; stroke: #008000"/>
     <use xlink:href="#md5c954602c" x="533.28719" y="327.584529" style="fill: #008000; stroke: #008000"/>
     <use xlink:href="#md5c954602c" x="536.169421" y="327.584529" style="fill: #008000; stroke: #008000"/>
     <use xlink:href="#md5c954602c" x="539.051653" y="277.425522" style="fill: #008000; stroke: #008000"/>
     <use xlink:href="#md5c954602c" x="541.933884" y="310.921724" style="fill: #008000; stroke: #008000"/>
     <use xlink:href="#md5c954602c" x="544.816116" y="319.224698" style="fill: #008000; stroke: #008000"/>
     <use xlink:href="#md5c954602c" x="547.698347" y="361.029756" style="fill: #008000; stroke: #008000"/>
     <use xlink:href="#md5c954602c" x="550.580579" y="285.825037" style="fill: #008000; stroke: #008000"/>
     <use xlink:href="#md5c954602c" x="553.46281" y="344.315974" style="fill: #008000; stroke: #008000"/>
     <use xlink:href="#md5c954602c" x="556.345041" y="327.645978" style="fill: #008000; stroke: #008000"/>
     <use xlink:href="#md5c954602c" x="559.227273" y="335.995571" style="fill: #008000; stroke: #008000"/>
     <use xlink:href="#md5c954602c" x="562.109504" y="252.554211" style="fill: #008000; stroke: #008000"/>
     <use xlink:href="#md5c954602c" x="564.991736" y="344.345164" style="fill: #008000; stroke: #008000"/>
     <use xlink:href="#md5c954602c" x="582.285124" y="361.04435" style="fill: #008000; stroke: #008000"/>
     <use xlink:href="#md5c954602c" x="588.049587" y="344.295084" style="fill: #008000; stroke: #008000"/>
     <use xlink:href="#md5c954602c" x="590.931818" y="260.799153" style="fill: #008000; stroke: #008000"/>
     <use xlink:href="#md5c954602c" x="593.81405" y="310.946792" style="fill: #008000; stroke: #008000"/>
     <use xlink:href="#md5c954602c" x="596.696281" y="302.597198" style="fill: #008000; stroke: #008000"/>
     <use xlink:href="#md5c954602c" x="599.578512" y="327.645978" style="fill: #008000; stroke: #008000"/>
     <use xlink:href="#md5c954602c" x="602.460744" y="361.04435" style="fill: #008000; stroke: #008000"/>
     <use xlink:href="#md5c954602c" x="605.342975" y="344.345164" style="fill: #008000; stroke: #008000"/>
     <use xlink:href="#md5c954602c" x="608.225207" y="344.345164" style="fill: #008000; stroke: #008000"/>
     <use xlink:href="#md5c954602c" x="611.107438" y="310.946792" style="fill: #008000; stroke: #008000"/>
     <use xlink:href="#md5c954602c" x="613.989669" y="361.04435" style="fill: #008000; stroke: #008000"/>
     <use xlink:href="#md5c954602c" x="619.754132" y="361.04435" style="fill: #008000; stroke: #008000"/>
     <use xlink:href="#md5c954602c" x="622.636364" y="310.946792" style="fill: #008000; stroke: #008000"/>
    </g>
   </g>
   <g id="patch_3">
    <path d="M 90 384.48 
L 90 51.84 
" style="fill: none; stroke: #000000; stroke-width: 0.8; stroke-linejoin: miter; stroke-linecap: square"/>
   </g>
   <g id="patch_4">
    <path d="M 648 384.48 
L 648 51.84 
" style="fill: none; stroke: #000000; stroke-width: 0.8; stroke-linejoin: miter; stroke-linecap: square"/>
   </g>
   <g id="patch_5">
    <path d="M 90 384.48 
L 648 384.48 
" style="fill: none; stroke: #000000; stroke-width: 0.8; stroke-linejoin: miter; stroke-linecap: square"/>
   </g>
   <g id="patch_6">
    <path d="M 90 51.84 
L 648 51.84 
" style="fill: none; stroke: #000000; stroke-width: 0.8; stroke-linejoin: miter; stroke-linecap: square"/>
   </g>
   <g id="text_17">
    <!-- 6004020656 每周收益 -->
    <g transform="translate(312 45.84) scale(0.12 -0.12)">
     <defs>
      <path id="SimHei-36" d="M 250 1612 
Q 275 1975 387 2225 
Q 500 2475 725 2850 
L 1750 4450 
L 2325 4450 
L 1275 2800 
Q 1950 2975 2350 2750 
Q 2750 2525 2887 2237 
Q 3025 1950 3037 1612 
Q 3050 1275 2937 950 
Q 2825 625 2537 362 
Q 2250 100 1737 75 
Q 1225 50 862 262 
Q 500 475 362 862 
Q 225 1250 250 1612 
z
M 1025 787 
Q 1250 550 1625 525 
Q 2000 500 2250 775 
Q 2500 1050 2500 1575 
Q 2500 2100 2187 2300 
Q 1875 2500 1487 2450 
Q 1100 2400 925 2075 
Q 750 1750 775 1387 
Q 800 1025 1025 787 
z
" transform="scale(0.015625)"/>
      <path id="SimHei-34" d="M 2000 1100 
L 75 1100 
L 75 1525 
L 2100 4450 
L 2475 4450 
L 2475 1525 
L 3075 1525 
L 3075 1100 
L 2475 1100 
L 2475 150 
L 2000 150 
L 2000 1100 
z
M 2000 1525 
L 2000 3500 
L 600 1525 
L 2000 1525 
z
" transform="scale(0.015625)"/>
      <path id="SimHei-20" transform="scale(0.015625)"/>
      <path id="SimHei-6bcf" d="M 5225 3650 
Q 5175 3150 5150 2675 
L 5125 2200 
Q 5525 2200 6000 2225 
L 6000 1775 
Q 5625 1800 5100 1800 
L 5050 650 
Q 5325 650 5700 675 
L 5700 225 
Q 5400 250 5025 250 
Q 5000 -275 4775 -425 
Q 4550 -575 4000 -650 
Q 3950 -400 3775 -125 
Q 4375 -125 4475 -50 
Q 4575 25 4575 250 
L 1400 250 
L 1500 1100 
L 1550 1800 
L 1275 1800 
Q 825 1800 550 1775 
L 550 2225 
Q 975 2200 1275 2200 
L 1575 2200 
L 1625 2825 
L 1675 3650 
L 5225 3650 
z
M 2350 5000 
Q 2175 4825 2050 4600 
L 4875 4600 
Q 5275 4600 5775 4625 
L 5775 4175 
Q 5275 4200 4875 4200 
L 1825 4200 
L 1375 3625 
Q 1125 3325 775 2975 
Q 600 3175 350 3300 
Q 725 3575 1150 4112 
Q 1575 4650 1825 5250 
Q 2125 5075 2350 5000 
z
M 1975 1800 
L 1875 650 
L 4625 650 
L 4675 1800 
L 2950 1800 
Q 3575 1275 3825 1125 
Q 3625 925 3475 725 
Q 3100 1100 2650 1475 
Q 2775 1675 2875 1800 
L 1975 1800 
z
M 2975 3250 
Q 3125 3150 3287 3012 
Q 3450 2875 3800 2550 
Q 3650 2350 3525 2200 
L 4700 2200 
L 4750 3250 
L 2975 3250 
z
M 2075 3250 
L 2000 2200 
L 3425 2200 
Q 3150 2500 3012 2625 
Q 2875 2750 2700 2900 
Q 2800 3050 2925 3250 
L 2075 3250 
z
" transform="scale(0.015625)"/>
     </defs>
     <use xlink:href="#SimHei-36"/>
     <use xlink:href="#SimHei-30" x="50"/>
     <use xlink:href="#SimHei-30" x="100"/>
     <use xlink:href="#SimHei-34" x="150"/>
     <use xlink:href="#SimHei-30" x="200"/>
     <use xlink:href="#SimHei-32" x="250"/>
     <use xlink:href="#SimHei-30" x="300"/>
     <use xlink:href="#SimHei-36" x="350"/>
     <use xlink:href="#SimHei-35" x="400"/>
     <use xlink:href="#SimHei-36" x="450"/>
     <use xlink:href="#SimHei-20" x="500"/>
     <use xlink:href="#SimHei-6bcf" x="550"/>
     <use xlink:href="#SimHei-5468" x="650"/>
     <use xlink:href="#SimHei-6536" x="750"/>
     <use xlink:href="#SimHei-76ca" x="850"/>
    </g>
   </g>
  </g>
 </g>
 <defs>
  <clipPath id="p62091f151b">
   <rect x="90" y="51.84" width="558" height="332.64"/>
  </clipPath>
 </defs>
</svg>
