<?xml version="1.0" encoding="utf-8" standalone="no"?>
<!DOCTYPE svg PUBLIC "-//W3C//DTD SVG 1.1//EN"
  "http://www.w3.org/Graphics/SVG/1.1/DTD/svg11.dtd">
<svg xmlns:xlink="http://www.w3.org/1999/xlink" width="864pt" height="576pt" viewBox="0 0 864 576" xmlns="http://www.w3.org/2000/svg" version="1.1">
 <metadata>
  <rdf:RDF xmlns:dc="http://purl.org/dc/elements/1.1/" xmlns:cc="http://creativecommons.org/ns#" xmlns:rdf="http://www.w3.org/1999/02/22-rdf-syntax-ns#">
   <cc:Work>
    <dc:type rdf:resource="http://purl.org/dc/dcmitype/StillImage"/>
    <dc:date>2024-08-17T19:08:17.004198</dc:date>
    <dc:format>image/svg+xml</dc:format>
    <dc:creator>
     <cc:Agent>
      <dc:title>Matplotlib v3.8.0, https://matplotlib.org/</dc:title>
     </cc:Agent>
    </dc:creator>
   </cc:Work>
  </rdf:RDF>
 </metadata>
 <defs>
  <style type="text/css">*{stroke-linejoin: round; stroke-linecap: butt}</style>
 </defs>
 <g id="figure_1">
  <g id="patch_1">
   <path d="M 0 576 
L 864 576 
L 864 0 
L 0 0 
z
" style="fill: #ffffff"/>
  </g>
  <g id="axes_1">
   <g id="patch_2">
    <path d="M 42.91 549.56 
L 426.6 549.56 
L 426.6 25.44 
L 42.91 25.44 
z
" style="fill: #ffffff"/>
   </g>
   <g id="PolyCollection_1">
    <path d="M 68.857993 240.216695 
L 68.857993 334.783305 
L 94.38061 334.795613 
L 111.395687 334.795643 
L 128.410765 334.810116 
L 145.425843 334.816846 
L 162.44092 335.377311 
L 179.455998 336.35261 
L 196.471075 336.481972 
L 213.486153 336.6298 
L 230.501231 336.638544 
L 247.516308 336.918279 
L 264.531386 337.297773 
L 281.546463 340.019368 
L 298.561541 340.456162 
L 315.576619 340.499814 
L 332.591696 341.728286 
L 349.606774 341.979491 
L 366.621851 342.127564 
L 383.636929 342.160456 
L 409.159545 342.51435 
L 409.159545 232.48565 
L 409.159545 232.48565 
L 383.636929 232.839544 
L 366.621851 232.872436 
L 349.606774 233.020509 
L 332.591696 233.271714 
L 315.576619 234.500186 
L 298.561541 234.543838 
L 281.546463 234.980632 
L 264.531386 237.702227 
L 247.516308 238.081721 
L 230.501231 238.361456 
L 213.486153 238.3702 
L 196.471075 238.518028 
L 179.455998 238.64739 
L 162.44092 239.622689 
L 145.425843 240.183154 
L 128.410765 240.189884 
L 111.395687 240.204357 
L 94.38061 240.204387 
L 68.857993 240.216695 
z
" clip-path="url(#p270d1821e6)" style="fill: #1f77b4; fill-opacity: 0.25"/>
   </g>
   <g id="matplotlib.axis_1">
    <g id="xtick_1">
     <g id="line2d_1">
      <defs>
       <path id="m8fdd7efac9" d="M 0 0 
L 0 3.5 
" style="stroke: #000000; stroke-width: 0.8"/>
      </defs>
      <g>
       <use xlink:href="#m8fdd7efac9" x="60.350455" y="549.56" style="stroke: #000000; stroke-width: 0.8"/>
      </g>
     </g>
     <g id="text_1">
      <!-- 0 -->
      <g transform="translate(57.850455 563.435) scale(0.1 -0.1)">
       <defs>
        <path id="SimHei-30" d="M 225 2537 
Q 250 3200 412 3587 
Q 575 3975 875 4225 
Q 1175 4475 1612 4475 
Q 2050 4475 2375 4112 
Q 2700 3750 2800 3200 
Q 2900 2650 2862 1937 
Q 2825 1225 2612 775 
Q 2400 325 1975 150 
Q 1550 -25 1125 187 
Q 700 400 525 750 
Q 350 1100 275 1487 
Q 200 1875 225 2537 
z
M 750 2687 
Q 675 2000 800 1462 
Q 925 925 1212 700 
Q 1500 475 1800 612 
Q 2100 750 2237 1162 
Q 2375 1575 2375 2062 
Q 2375 2550 2337 2950 
Q 2300 3350 2112 3675 
Q 1925 4000 1612 4012 
Q 1300 4025 1062 3700 
Q 825 3375 750 2687 
z
" transform="scale(0.015625)"/>
       </defs>
       <use xlink:href="#SimHei-30"/>
      </g>
     </g>
    </g>
    <g id="xtick_2">
     <g id="line2d_2">
      <g>
       <use xlink:href="#m8fdd7efac9" x="145.425843" y="549.56" style="stroke: #000000; stroke-width: 0.8"/>
      </g>
     </g>
     <g id="text_2">
      <!-- 5 -->
      <g transform="translate(142.925843 563.435) scale(0.1 -0.1)">
       <defs>
        <path id="SimHei-35" d="M 550 1325 
Q 725 650 1150 575 
Q 1575 500 1837 662 
Q 2100 825 2212 1087 
Q 2325 1350 2312 1675 
Q 2300 2000 2137 2225 
Q 1975 2450 1725 2525 
Q 1475 2600 1162 2525 
Q 850 2450 650 2175 
L 225 2225 
Q 275 2375 700 4375 
L 2675 4375 
L 2675 3925 
L 1075 3925 
Q 950 3250 825 2850 
Q 1200 3025 1525 3012 
Q 1850 3000 2150 2862 
Q 2450 2725 2587 2487 
Q 2725 2250 2787 2012 
Q 2850 1775 2837 1500 
Q 2825 1225 2725 937 
Q 2625 650 2425 462 
Q 2225 275 1937 162 
Q 1650 50 1275 75 
Q 900 100 562 350 
Q 225 600 100 1200 
L 550 1325 
z
" transform="scale(0.015625)"/>
       </defs>
       <use xlink:href="#SimHei-35"/>
      </g>
     </g>
    </g>
    <g id="xtick_3">
     <g id="line2d_3">
      <g>
       <use xlink:href="#m8fdd7efac9" x="230.501231" y="549.56" style="stroke: #000000; stroke-width: 0.8"/>
      </g>
     </g>
     <g id="text_3">
      <!-- 10 -->
      <g transform="translate(225.501231 563.435) scale(0.1 -0.1)">
       <defs>
        <path id="SimHei-31" d="M 1400 3600 
Q 1075 3275 575 2975 
L 575 3450 
Q 1200 3875 1600 4450 
L 1900 4450 
L 1900 150 
L 1400 150 
L 1400 3600 
z
" transform="scale(0.015625)"/>
       </defs>
       <use xlink:href="#SimHei-31"/>
       <use xlink:href="#SimHei-30" x="50"/>
      </g>
     </g>
    </g>
    <g id="xtick_4">
     <g id="line2d_4">
      <g>
       <use xlink:href="#m8fdd7efac9" x="315.576619" y="549.56" style="stroke: #000000; stroke-width: 0.8"/>
      </g>
     </g>
     <g id="text_4">
      <!-- 15 -->
      <g transform="translate(310.576619 563.435) scale(0.1 -0.1)">
       <use xlink:href="#SimHei-31"/>
       <use xlink:href="#SimHei-35" x="50"/>
      </g>
     </g>
    </g>
    <g id="xtick_5">
     <g id="line2d_5">
      <g>
       <use xlink:href="#m8fdd7efac9" x="400.652007" y="549.56" style="stroke: #000000; stroke-width: 0.8"/>
      </g>
     </g>
     <g id="text_5">
      <!-- 20 -->
      <g transform="translate(395.652007 563.435) scale(0.1 -0.1)">
       <defs>
        <path id="SimHei-32" d="M 300 250 
Q 325 625 650 925 
Q 975 1225 1475 1862 
Q 1975 2500 2125 2850 
Q 2275 3200 2237 3450 
Q 2200 3700 2000 3862 
Q 1800 4025 1537 4000 
Q 1275 3975 1037 3800 
Q 800 3625 675 3275 
L 200 3350 
Q 400 3925 712 4187 
Q 1025 4450 1450 4475 
Q 1700 4500 1900 4462 
Q 2100 4425 2312 4287 
Q 2525 4150 2662 3875 
Q 2800 3600 2762 3212 
Q 2725 2825 2375 2287 
Q 2025 1750 1025 600 
L 2825 600 
L 2825 150 
L 300 150 
L 300 250 
z
" transform="scale(0.015625)"/>
       </defs>
       <use xlink:href="#SimHei-32"/>
       <use xlink:href="#SimHei-30" x="50"/>
      </g>
     </g>
    </g>
   </g>
   <g id="matplotlib.axis_2">
    <g id="ytick_1">
     <g id="line2d_6">
      <defs>
       <path id="m0eaf17ff5c" d="M 0 0 
L -3.5 0 
" style="stroke: #000000; stroke-width: 0.8"/>
      </defs>
      <g>
       <use xlink:href="#m0eaf17ff5c" x="42.91" y="549.56" style="stroke: #000000; stroke-width: 0.8"/>
      </g>
     </g>
     <g id="text_6">
      <!-- -1.00 -->
      <g transform="translate(10.91 552.9975) scale(0.1 -0.1)">
       <defs>
        <path id="SimHei-2d" d="M 2975 2125 
L 125 2125 
L 125 2525 
L 2975 2525 
L 2975 2125 
z
" transform="scale(0.015625)"/>
        <path id="SimHei-2e" d="M 1075 125 
L 500 125 
L 500 675 
L 1075 675 
L 1075 125 
z
" transform="scale(0.015625)"/>
       </defs>
       <use xlink:href="#SimHei-2d"/>
       <use xlink:href="#SimHei-31" x="50"/>
       <use xlink:href="#SimHei-2e" x="100"/>
       <use xlink:href="#SimHei-30" x="150"/>
       <use xlink:href="#SimHei-30" x="200"/>
      </g>
     </g>
    </g>
    <g id="ytick_2">
     <g id="line2d_7">
      <g>
       <use xlink:href="#m0eaf17ff5c" x="42.91" y="484.045" style="stroke: #000000; stroke-width: 0.8"/>
      </g>
     </g>
     <g id="text_7">
      <!-- -0.75 -->
      <g transform="translate(10.91 487.4825) scale(0.1 -0.1)">
       <defs>
        <path id="SimHei-37" d="M 850 150 
Q 1300 2050 2425 3925 
L 275 3925 
L 275 4375 
L 2950 4375 
L 2950 3950 
Q 1775 2050 1400 150 
L 850 150 
z
" transform="scale(0.015625)"/>
       </defs>
       <use xlink:href="#SimHei-2d"/>
       <use xlink:href="#SimHei-30" x="50"/>
       <use xlink:href="#SimHei-2e" x="100"/>
       <use xlink:href="#SimHei-37" x="150"/>
       <use xlink:href="#SimHei-35" x="200"/>
      </g>
     </g>
    </g>
    <g id="ytick_3">
     <g id="line2d_8">
      <g>
       <use xlink:href="#m0eaf17ff5c" x="42.91" y="418.53" style="stroke: #000000; stroke-width: 0.8"/>
      </g>
     </g>
     <g id="text_8">
      <!-- -0.50 -->
      <g transform="translate(10.91 421.9675) scale(0.1 -0.1)">
       <use xlink:href="#SimHei-2d"/>
       <use xlink:href="#SimHei-30" x="50"/>
       <use xlink:href="#SimHei-2e" x="100"/>
       <use xlink:href="#SimHei-35" x="150"/>
       <use xlink:href="#SimHei-30" x="200"/>
      </g>
     </g>
    </g>
    <g id="ytick_4">
     <g id="line2d_9">
      <g>
       <use xlink:href="#m0eaf17ff5c" x="42.91" y="353.015" style="stroke: #000000; stroke-width: 0.8"/>
      </g>
     </g>
     <g id="text_9">
      <!-- -0.25 -->
      <g transform="translate(10.91 356.4525) scale(0.1 -0.1)">
       <use xlink:href="#SimHei-2d"/>
       <use xlink:href="#SimHei-30" x="50"/>
       <use xlink:href="#SimHei-2e" x="100"/>
       <use xlink:href="#SimHei-32" x="150"/>
       <use xlink:href="#SimHei-35" x="200"/>
      </g>
     </g>
    </g>
    <g id="ytick_5">
     <g id="line2d_10">
      <g>
       <use xlink:href="#m0eaf17ff5c" x="42.91" y="287.5" style="stroke: #000000; stroke-width: 0.8"/>
      </g>
     </g>
     <g id="text_10">
      <!-- 0.00 -->
      <g transform="translate(15.91 290.9375) scale(0.1 -0.1)">
       <use xlink:href="#SimHei-30"/>
       <use xlink:href="#SimHei-2e" x="50"/>
       <use xlink:href="#SimHei-30" x="100"/>
       <use xlink:href="#SimHei-30" x="150"/>
      </g>
     </g>
    </g>
    <g id="ytick_6">
     <g id="line2d_11">
      <g>
       <use xlink:href="#m0eaf17ff5c" x="42.91" y="221.985" style="stroke: #000000; stroke-width: 0.8"/>
      </g>
     </g>
     <g id="text_11">
      <!-- 0.25 -->
      <g transform="translate(15.91 225.4225) scale(0.1 -0.1)">
       <use xlink:href="#SimHei-30"/>
       <use xlink:href="#SimHei-2e" x="50"/>
       <use xlink:href="#SimHei-32" x="100"/>
       <use xlink:href="#SimHei-35" x="150"/>
      </g>
     </g>
    </g>
    <g id="ytick_7">
     <g id="line2d_12">
      <g>
       <use xlink:href="#m0eaf17ff5c" x="42.91" y="156.47" style="stroke: #000000; stroke-width: 0.8"/>
      </g>
     </g>
     <g id="text_12">
      <!-- 0.50 -->
      <g transform="translate(15.91 159.9075) scale(0.1 -0.1)">
       <use xlink:href="#SimHei-30"/>
       <use xlink:href="#SimHei-2e" x="50"/>
       <use xlink:href="#SimHei-35" x="100"/>
       <use xlink:href="#SimHei-30" x="150"/>
      </g>
     </g>
    </g>
    <g id="ytick_8">
     <g id="line2d_13">
      <g>
       <use xlink:href="#m0eaf17ff5c" x="42.91" y="90.955" style="stroke: #000000; stroke-width: 0.8"/>
      </g>
     </g>
     <g id="text_13">
      <!-- 0.75 -->
      <g transform="translate(15.91 94.3925) scale(0.1 -0.1)">
       <use xlink:href="#SimHei-30"/>
       <use xlink:href="#SimHei-2e" x="50"/>
       <use xlink:href="#SimHei-37" x="100"/>
       <use xlink:href="#SimHei-35" x="150"/>
      </g>
     </g>
    </g>
    <g id="ytick_9">
     <g id="line2d_14">
      <g>
       <use xlink:href="#m0eaf17ff5c" x="42.91" y="25.44" style="stroke: #000000; stroke-width: 0.8"/>
      </g>
     </g>
     <g id="text_14">
      <!-- 1.00 -->
      <g transform="translate(15.91 28.8775) scale(0.1 -0.1)">
       <use xlink:href="#SimHei-31"/>
       <use xlink:href="#SimHei-2e" x="50"/>
       <use xlink:href="#SimHei-30" x="100"/>
       <use xlink:href="#SimHei-30" x="150"/>
      </g>
     </g>
    </g>
   </g>
   <g id="LineCollection_1">
    <path d="M 60.350455 287.5 
L 60.350455 25.44 
" clip-path="url(#p270d1821e6)" style="fill: none; stroke: #1f77b4; stroke-width: 1.5"/>
    <path d="M 77.365532 287.5 
L 77.365532 291.728306 
" clip-path="url(#p270d1821e6)" style="fill: none; stroke: #1f77b4; stroke-width: 1.5"/>
    <path d="M 94.38061 287.5 
L 94.38061 287.71098 
" clip-path="url(#p270d1821e6)" style="fill: none; stroke: #1f77b4; stroke-width: 1.5"/>
    <path d="M 111.395687 287.5 
L 111.395687 292.085697 
" clip-path="url(#p270d1821e6)" style="fill: none; stroke: #1f77b4; stroke-width: 1.5"/>
    <path d="M 128.410765 287.5 
L 128.410765 284.372478 
" clip-path="url(#p270d1821e6)" style="fill: none; stroke: #1f77b4; stroke-width: 1.5"/>
    <path d="M 145.425843 287.5 
L 145.425843 258.874213 
" clip-path="url(#p270d1821e6)" style="fill: none; stroke: #1f77b4; stroke-width: 1.5"/>
    <path d="M 162.44092 287.5 
L 162.44092 325.565127 
" clip-path="url(#p270d1821e6)" style="fill: none; stroke: #1f77b4; stroke-width: 1.5"/>
    <path d="M 179.455998 287.5 
L 179.455998 301.442067 
" clip-path="url(#p270d1821e6)" style="fill: none; stroke: #1f77b4; stroke-width: 1.5"/>
    <path d="M 196.471075 287.5 
L 196.471075 272.574915 
" clip-path="url(#p270d1821e6)" style="fill: none; stroke: #1f77b4; stroke-width: 1.5"/>
    <path d="M 213.486153 287.5 
L 213.486153 283.867275 
" clip-path="url(#p270d1821e6)" style="fill: none; stroke: #1f77b4; stroke-width: 1.5"/>
    <path d="M 230.501231 287.5 
L 230.501231 266.922413 
" clip-path="url(#p270d1821e6)" style="fill: none; stroke: #1f77b4; stroke-width: 1.5"/>
    <path d="M 247.516308 287.5 
L 247.516308 263.452429 
" clip-path="url(#p270d1821e6)" style="fill: none; stroke: #1f77b4; stroke-width: 1.5"/>
    <path d="M 264.531386 287.5 
L 264.531386 352.897916 
" clip-path="url(#p270d1821e6)" style="fill: none; stroke: #1f77b4; stroke-width: 1.5"/>
    <path d="M 281.546463 287.5 
L 281.546463 260.899356 
" clip-path="url(#p270d1821e6)" style="fill: none; stroke: #1f77b4; stroke-width: 1.5"/>
    <path d="M 298.561541 287.5 
L 298.561541 279.071699 
" clip-path="url(#p270d1821e6)" style="fill: none; stroke: #1f77b4; stroke-width: 1.5"/>
    <path d="M 315.576619 287.5 
L 315.576619 242.520471 
" clip-path="url(#p270d1821e6)" style="fill: none; stroke: #1f77b4; stroke-width: 1.5"/>
    <path d="M 332.591696 287.5 
L 332.591696 307.97964 
" clip-path="url(#p270d1821e6)" style="fill: none; stroke: #1f77b4; stroke-width: 1.5"/>
    <path d="M 349.606774 287.5 
L 349.606774 303.252223 
" clip-path="url(#p270d1821e6)" style="fill: none; stroke: #1f77b4; stroke-width: 1.5"/>
    <path d="M 366.621851 287.5 
L 366.621851 280.06958 
" clip-path="url(#p270d1821e6)" style="fill: none; stroke: #1f77b4; stroke-width: 1.5"/>
    <path d="M 383.636929 287.5 
L 383.636929 263.084365 
" clip-path="url(#p270d1821e6)" style="fill: none; stroke: #1f77b4; stroke-width: 1.5"/>
    <path d="M 400.652007 287.5 
L 400.652007 275.805681 
" clip-path="url(#p270d1821e6)" style="fill: none; stroke: #1f77b4; stroke-width: 1.5"/>
   </g>
   <g id="line2d_15">
    <path d="M 42.91 287.5 
L 426.6 287.5 
" clip-path="url(#p270d1821e6)" style="fill: none; stroke: #1f77b4; stroke-width: 1.5; stroke-linecap: square"/>
   </g>
   <g id="line2d_16">
    <defs>
     <path id="maf61fd738f" d="M 0 2.5 
C 0.663008 2.5 1.29895 2.236584 1.767767 1.767767 
C 2.236584 1.29895 2.5 0.663008 2.5 0 
C 2.5 -0.663008 2.236584 -1.29895 1.767767 -1.767767 
C 1.29895 -2.236584 0.663008 -2.5 0 -2.5 
C -0.663008 -2.5 -1.29895 -2.236584 -1.767767 -1.767767 
C -2.236584 -1.29895 -2.5 -0.663008 -2.5 0 
C -2.5 0.663008 -2.236584 1.29895 -1.767767 1.767767 
C -1.29895 2.236584 -0.663008 2.5 0 2.5 
z
" style="stroke: #1f77b4"/>
    </defs>
    <g clip-path="url(#p270d1821e6)">
     <use xlink:href="#maf61fd738f" x="60.350455" y="25.44" style="fill: #1f77b4; stroke: #1f77b4"/>
     <use xlink:href="#maf61fd738f" x="77.365532" y="291.728306" style="fill: #1f77b4; stroke: #1f77b4"/>
     <use xlink:href="#maf61fd738f" x="94.38061" y="287.71098" style="fill: #1f77b4; stroke: #1f77b4"/>
     <use xlink:href="#maf61fd738f" x="111.395687" y="292.085697" style="fill: #1f77b4; stroke: #1f77b4"/>
     <use xlink:href="#maf61fd738f" x="128.410765" y="284.372478" style="fill: #1f77b4; stroke: #1f77b4"/>
     <use xlink:href="#maf61fd738f" x="145.425843" y="258.874213" style="fill: #1f77b4; stroke: #1f77b4"/>
     <use xlink:href="#maf61fd738f" x="162.44092" y="325.565127" style="fill: #1f77b4; stroke: #1f77b4"/>
     <use xlink:href="#maf61fd738f" x="179.455998" y="301.442067" style="fill: #1f77b4; stroke: #1f77b4"/>
     <use xlink:href="#maf61fd738f" x="196.471075" y="272.574915" style="fill: #1f77b4; stroke: #1f77b4"/>
     <use xlink:href="#maf61fd738f" x="213.486153" y="283.867275" style="fill: #1f77b4; stroke: #1f77b4"/>
     <use xlink:href="#maf61fd738f" x="230.501231" y="266.922413" style="fill: #1f77b4; stroke: #1f77b4"/>
     <use xlink:href="#maf61fd738f" x="247.516308" y="263.452429" style="fill: #1f77b4; stroke: #1f77b4"/>
     <use xlink:href="#maf61fd738f" x="264.531386" y="352.897916" style="fill: #1f77b4; stroke: #1f77b4"/>
     <use xlink:href="#maf61fd738f" x="281.546463" y="260.899356" style="fill: #1f77b4; stroke: #1f77b4"/>
     <use xlink:href="#maf61fd738f" x="298.561541" y="279.071699" style="fill: #1f77b4; stroke: #1f77b4"/>
     <use xlink:href="#maf61fd738f" x="315.576619" y="242.520471" style="fill: #1f77b4; stroke: #1f77b4"/>
     <use xlink:href="#maf61fd738f" x="332.591696" y="307.97964" style="fill: #1f77b4; stroke: #1f77b4"/>
     <use xlink:href="#maf61fd738f" x="349.606774" y="303.252223" style="fill: #1f77b4; stroke: #1f77b4"/>
     <use xlink:href="#maf61fd738f" x="366.621851" y="280.06958" style="fill: #1f77b4; stroke: #1f77b4"/>
     <use xlink:href="#maf61fd738f" x="383.636929" y="263.084365" style="fill: #1f77b4; stroke: #1f77b4"/>
     <use xlink:href="#maf61fd738f" x="400.652007" y="275.805681" style="fill: #1f77b4; stroke: #1f77b4"/>
    </g>
   </g>
   <g id="patch_3">
    <path d="M 42.91 549.56 
L 42.91 25.44 
" style="fill: none; stroke: #000000; stroke-width: 0.8; stroke-linejoin: miter; stroke-linecap: square"/>
   </g>
   <g id="patch_4">
    <path d="M 426.6 549.56 
L 426.6 25.44 
" style="fill: none; stroke: #000000; stroke-width: 0.8; stroke-linejoin: miter; stroke-linecap: square"/>
   </g>
   <g id="patch_5">
    <path d="M 42.91 549.56 
L 426.6 549.56 
" style="fill: none; stroke: #000000; stroke-width: 0.8; stroke-linejoin: miter; stroke-linecap: square"/>
   </g>
   <g id="patch_6">
    <path d="M 42.91 25.44 
L 426.6 25.44 
" style="fill: none; stroke: #000000; stroke-width: 0.8; stroke-linejoin: miter; stroke-linecap: square"/>
   </g>
   <g id="text_15">
    <!-- MLE ACF -->
    <g transform="translate(213.755 19.44) scale(0.12 -0.12)">
     <defs>
      <path id="SimHei-4d" d="M 2925 125 
L 2425 125 
L 2425 3175 
L 2375 3175 
L 1775 125 
L 1375 125 
L 775 3175 
L 725 3175 
L 725 125 
L 225 125 
L 225 4400 
L 1000 4400 
L 1550 1575 
L 1600 1575 
L 2150 4400 
L 2925 4400 
L 2925 125 
z
" transform="scale(0.015625)"/>
      <path id="SimHei-4c" d="M 2900 125 
L 300 125 
L 300 4400 
L 875 4400 
L 875 600 
L 2900 600 
L 2900 125 
z
" transform="scale(0.015625)"/>
      <path id="SimHei-45" d="M 2900 125 
L 350 125 
L 350 4400 
L 2775 4400 
L 2775 3925 
L 925 3925 
L 925 2600 
L 2625 2600 
L 2625 2125 
L 925 2125 
L 925 600 
L 2900 600 
L 2900 125 
z
" transform="scale(0.015625)"/>
      <path id="SimHei-20" transform="scale(0.015625)"/>
      <path id="SimHei-41" d="M 3075 125 
L 2475 125 
L 2125 1450 
L 1025 1450 
L 675 125 
L 75 125 
L 1325 4450 
L 1825 4450 
L 3075 125 
z
M 2000 1925 
L 1600 3450 
L 1550 3450 
L 1150 1925 
L 2000 1925 
z
" transform="scale(0.015625)"/>
      <path id="SimHei-43" d="M 2975 1825 
Q 2950 875 2575 475 
Q 2200 75 1675 75 
Q 1075 75 650 562 
Q 225 1050 225 2125 
Q 225 3300 637 3875 
Q 1050 4450 1700 4450 
Q 2250 4450 2612 4037 
Q 2975 3625 2950 2875 
L 2400 2875 
Q 2400 3425 2225 3700 
Q 2050 3975 1700 3975 
Q 1300 3975 1062 3562 
Q 825 3150 825 2175 
Q 825 1275 1062 912 
Q 1300 550 1675 550 
Q 1950 550 2175 812 
Q 2400 1075 2400 1825 
L 2975 1825 
z
" transform="scale(0.015625)"/>
      <path id="SimHei-46" d="M 2925 3925 
L 875 3925 
L 875 2525 
L 2425 2525 
L 2425 2050 
L 875 2050 
L 875 125 
L 300 125 
L 300 4400 
L 2925 4400 
L 2925 3925 
z
" transform="scale(0.015625)"/>
     </defs>
     <use xlink:href="#SimHei-4d"/>
     <use xlink:href="#SimHei-4c" x="50"/>
     <use xlink:href="#SimHei-45" x="100"/>
     <use xlink:href="#SimHei-20" x="150"/>
     <use xlink:href="#SimHei-41" x="200"/>
     <use xlink:href="#SimHei-43" x="250"/>
     <use xlink:href="#SimHei-46" x="300"/>
    </g>
   </g>
  </g>
  <g id="axes_2">
   <g id="patch_7">
    <path d="M 469.51 549.56 
L 853.2 549.56 
L 853.2 25.44 
L 469.51 25.44 
z
" style="fill: #ffffff"/>
   </g>
   <g id="PolyCollection_2">
    <path d="M 495.457993 240.216695 
L 495.457993 334.783305 
L 520.98061 334.783305 
L 537.995687 334.783305 
L 555.010765 334.783305 
L 572.025843 334.783305 
L 589.04092 334.783305 
L 606.055998 334.783305 
L 623.071075 334.783305 
L 640.086153 334.783305 
L 657.101231 334.783305 
L 674.116308 334.783305 
L 691.131386 334.783305 
L 708.146463 334.783305 
L 725.161541 334.783305 
L 742.176619 334.783305 
L 759.191696 334.783305 
L 776.206774 334.783305 
L 793.221851 334.783305 
L 810.236929 334.783305 
L 835.759545 334.783305 
L 835.759545 240.216695 
L 835.759545 240.216695 
L 810.236929 240.216695 
L 793.221851 240.216695 
L 776.206774 240.216695 
L 759.191696 240.216695 
L 742.176619 240.216695 
L 725.161541 240.216695 
L 708.146463 240.216695 
L 691.131386 240.216695 
L 674.116308 240.216695 
L 657.101231 240.216695 
L 640.086153 240.216695 
L 623.071075 240.216695 
L 606.055998 240.216695 
L 589.04092 240.216695 
L 572.025843 240.216695 
L 555.010765 240.216695 
L 537.995687 240.216695 
L 520.98061 240.216695 
L 495.457993 240.216695 
z
" clip-path="url(#p0016bc0234)" style="fill: #1f77b4; fill-opacity: 0.25"/>
   </g>
   <g id="matplotlib.axis_3">
    <g id="xtick_6">
     <g id="line2d_17">
      <g>
       <use xlink:href="#m8fdd7efac9" x="486.950455" y="549.56" style="stroke: #000000; stroke-width: 0.8"/>
      </g>
     </g>
     <g id="text_16">
      <!-- 0 -->
      <g transform="translate(484.450455 563.435) scale(0.1 -0.1)">
       <use xlink:href="#SimHei-30"/>
      </g>
     </g>
    </g>
    <g id="xtick_7">
     <g id="line2d_18">
      <g>
       <use xlink:href="#m8fdd7efac9" x="572.025843" y="549.56" style="stroke: #000000; stroke-width: 0.8"/>
      </g>
     </g>
     <g id="text_17">
      <!-- 5 -->
      <g transform="translate(569.525843 563.435) scale(0.1 -0.1)">
       <use xlink:href="#SimHei-35"/>
      </g>
     </g>
    </g>
    <g id="xtick_8">
     <g id="line2d_19">
      <g>
       <use xlink:href="#m8fdd7efac9" x="657.101231" y="549.56" style="stroke: #000000; stroke-width: 0.8"/>
      </g>
     </g>
     <g id="text_18">
      <!-- 10 -->
      <g transform="translate(652.101231 563.435) scale(0.1 -0.1)">
       <use xlink:href="#SimHei-31"/>
       <use xlink:href="#SimHei-30" x="50"/>
      </g>
     </g>
    </g>
    <g id="xtick_9">
     <g id="line2d_20">
      <g>
       <use xlink:href="#m8fdd7efac9" x="742.176619" y="549.56" style="stroke: #000000; stroke-width: 0.8"/>
      </g>
     </g>
     <g id="text_19">
      <!-- 15 -->
      <g transform="translate(737.176619 563.435) scale(0.1 -0.1)">
       <use xlink:href="#SimHei-31"/>
       <use xlink:href="#SimHei-35" x="50"/>
      </g>
     </g>
    </g>
    <g id="xtick_10">
     <g id="line2d_21">
      <g>
       <use xlink:href="#m8fdd7efac9" x="827.252007" y="549.56" style="stroke: #000000; stroke-width: 0.8"/>
      </g>
     </g>
     <g id="text_20">
      <!-- 20 -->
      <g transform="translate(822.252007 563.435) scale(0.1 -0.1)">
       <use xlink:href="#SimHei-32"/>
       <use xlink:href="#SimHei-30" x="50"/>
      </g>
     </g>
    </g>
   </g>
   <g id="matplotlib.axis_4">
    <g id="ytick_10">
     <g id="line2d_22">
      <g>
       <use xlink:href="#m0eaf17ff5c" x="469.51" y="549.56" style="stroke: #000000; stroke-width: 0.8"/>
      </g>
     </g>
     <g id="text_21">
      <!-- -1.00 -->
      <g transform="translate(437.51 552.9975) scale(0.1 -0.1)">
       <use xlink:href="#SimHei-2d"/>
       <use xlink:href="#SimHei-31" x="50"/>
       <use xlink:href="#SimHei-2e" x="100"/>
       <use xlink:href="#SimHei-30" x="150"/>
       <use xlink:href="#SimHei-30" x="200"/>
      </g>
     </g>
    </g>
    <g id="ytick_11">
     <g id="line2d_23">
      <g>
       <use xlink:href="#m0eaf17ff5c" x="469.51" y="484.045" style="stroke: #000000; stroke-width: 0.8"/>
      </g>
     </g>
     <g id="text_22">
      <!-- -0.75 -->
      <g transform="translate(437.51 487.4825) scale(0.1 -0.1)">
       <use xlink:href="#SimHei-2d"/>
       <use xlink:href="#SimHei-30" x="50"/>
       <use xlink:href="#SimHei-2e" x="100"/>
       <use xlink:href="#SimHei-37" x="150"/>
       <use xlink:href="#SimHei-35" x="200"/>
      </g>
     </g>
    </g>
    <g id="ytick_12">
     <g id="line2d_24">
      <g>
       <use xlink:href="#m0eaf17ff5c" x="469.51" y="418.53" style="stroke: #000000; stroke-width: 0.8"/>
      </g>
     </g>
     <g id="text_23">
      <!-- -0.50 -->
      <g transform="translate(437.51 421.9675) scale(0.1 -0.1)">
       <use xlink:href="#SimHei-2d"/>
       <use xlink:href="#SimHei-30" x="50"/>
       <use xlink:href="#SimHei-2e" x="100"/>
       <use xlink:href="#SimHei-35" x="150"/>
       <use xlink:href="#SimHei-30" x="200"/>
      </g>
     </g>
    </g>
    <g id="ytick_13">
     <g id="line2d_25">
      <g>
       <use xlink:href="#m0eaf17ff5c" x="469.51" y="353.015" style="stroke: #000000; stroke-width: 0.8"/>
      </g>
     </g>
     <g id="text_24">
      <!-- -0.25 -->
      <g transform="translate(437.51 356.4525) scale(0.1 -0.1)">
       <use xlink:href="#SimHei-2d"/>
       <use xlink:href="#SimHei-30" x="50"/>
       <use xlink:href="#SimHei-2e" x="100"/>
       <use xlink:href="#SimHei-32" x="150"/>
       <use xlink:href="#SimHei-35" x="200"/>
      </g>
     </g>
    </g>
    <g id="ytick_14">
     <g id="line2d_26">
      <g>
       <use xlink:href="#m0eaf17ff5c" x="469.51" y="287.5" style="stroke: #000000; stroke-width: 0.8"/>
      </g>
     </g>
     <g id="text_25">
      <!-- 0.00 -->
      <g transform="translate(442.51 290.9375) scale(0.1 -0.1)">
       <use xlink:href="#SimHei-30"/>
       <use xlink:href="#SimHei-2e" x="50"/>
       <use xlink:href="#SimHei-30" x="100"/>
       <use xlink:href="#SimHei-30" x="150"/>
      </g>
     </g>
    </g>
    <g id="ytick_15">
     <g id="line2d_27">
      <g>
       <use xlink:href="#m0eaf17ff5c" x="469.51" y="221.985" style="stroke: #000000; stroke-width: 0.8"/>
      </g>
     </g>
     <g id="text_26">
      <!-- 0.25 -->
      <g transform="translate(442.51 225.4225) scale(0.1 -0.1)">
       <use xlink:href="#SimHei-30"/>
       <use xlink:href="#SimHei-2e" x="50"/>
       <use xlink:href="#SimHei-32" x="100"/>
       <use xlink:href="#SimHei-35" x="150"/>
      </g>
     </g>
    </g>
    <g id="ytick_16">
     <g id="line2d_28">
      <g>
       <use xlink:href="#m0eaf17ff5c" x="469.51" y="156.47" style="stroke: #000000; stroke-width: 0.8"/>
      </g>
     </g>
     <g id="text_27">
      <!-- 0.50 -->
      <g transform="translate(442.51 159.9075) scale(0.1 -0.1)">
       <use xlink:href="#SimHei-30"/>
       <use xlink:href="#SimHei-2e" x="50"/>
       <use xlink:href="#SimHei-35" x="100"/>
       <use xlink:href="#SimHei-30" x="150"/>
      </g>
     </g>
    </g>
    <g id="ytick_17">
     <g id="line2d_29">
      <g>
       <use xlink:href="#m0eaf17ff5c" x="469.51" y="90.955" style="stroke: #000000; stroke-width: 0.8"/>
      </g>
     </g>
     <g id="text_28">
      <!-- 0.75 -->
      <g transform="translate(442.51 94.3925) scale(0.1 -0.1)">
       <use xlink:href="#SimHei-30"/>
       <use xlink:href="#SimHei-2e" x="50"/>
       <use xlink:href="#SimHei-37" x="100"/>
       <use xlink:href="#SimHei-35" x="150"/>
      </g>
     </g>
    </g>
    <g id="ytick_18">
     <g id="line2d_30">
      <g>
       <use xlink:href="#m0eaf17ff5c" x="469.51" y="25.44" style="stroke: #000000; stroke-width: 0.8"/>
      </g>
     </g>
     <g id="text_29">
      <!-- 1.00 -->
      <g transform="translate(442.51 28.8775) scale(0.1 -0.1)">
       <use xlink:href="#SimHei-31"/>
       <use xlink:href="#SimHei-2e" x="50"/>
       <use xlink:href="#SimHei-30" x="100"/>
       <use xlink:href="#SimHei-30" x="150"/>
      </g>
     </g>
    </g>
   </g>
   <g id="LineCollection_2">
    <path d="M 486.950455 287.5 
L 486.950455 25.44 
" clip-path="url(#p0016bc0234)" style="fill: none; stroke: #1f77b4; stroke-width: 1.5"/>
    <path d="M 503.965532 287.5 
L 503.965532 291.728306 
" clip-path="url(#p0016bc0234)" style="fill: none; stroke: #1f77b4; stroke-width: 1.5"/>
    <path d="M 520.98061 287.5 
L 520.98061 287.779276 
" clip-path="url(#p0016bc0234)" style="fill: none; stroke: #1f77b4; stroke-width: 1.5"/>
    <path d="M 537.995687 287.5 
L 537.995687 292.094812 
" clip-path="url(#p0016bc0234)" style="fill: none; stroke: #1f77b4; stroke-width: 1.5"/>
    <path d="M 555.010765 287.5 
L 555.010765 284.519358 
" clip-path="url(#p0016bc0234)" style="fill: none; stroke: #1f77b4; stroke-width: 1.5"/>
    <path d="M 572.025843 287.5 
L 572.025843 258.765886 
" clip-path="url(#p0016bc0234)" style="fill: none; stroke: #1f77b4; stroke-width: 1.5"/>
    <path d="M 589.04092 287.5 
L 589.04092 325.165321 
" clip-path="url(#p0016bc0234)" style="fill: none; stroke: #1f77b4; stroke-width: 1.5"/>
    <path d="M 606.055998 287.5 
L 606.055998 302.528457 
" clip-path="url(#p0016bc0234)" style="fill: none; stroke: #1f77b4; stroke-width: 1.5"/>
    <path d="M 623.071075 287.5 
L 623.071075 271.063262 
" clip-path="url(#p0016bc0234)" style="fill: none; stroke: #1f77b4; stroke-width: 1.5"/>
    <path d="M 640.086153 287.5 
L 640.086153 285.498744 
" clip-path="url(#p0016bc0234)" style="fill: none; stroke: #1f77b4; stroke-width: 1.5"/>
    <path d="M 657.101231 287.5 
L 657.101231 269.246033 
" clip-path="url(#p0016bc0234)" style="fill: none; stroke: #1f77b4; stroke-width: 1.5"/>
    <path d="M 674.116308 287.5 
L 674.116308 252.454856 
" clip-path="url(#p0016bc0234)" style="fill: none; stroke: #1f77b4; stroke-width: 1.5"/>
    <path d="M 691.131386 287.5 
L 691.131386 359.836085 
" clip-path="url(#p0016bc0234)" style="fill: none; stroke: #1f77b4; stroke-width: 1.5"/>
    <path d="M 708.146463 287.5 
L 708.146463 265.125963 
" clip-path="url(#p0016bc0234)" style="fill: none; stroke: #1f77b4; stroke-width: 1.5"/>
    <path d="M 725.161541 287.5 
L 725.161541 270.968127 
" clip-path="url(#p0016bc0234)" style="fill: none; stroke: #1f77b4; stroke-width: 1.5"/>
    <path d="M 742.176619 287.5 
L 742.176619 245.652081 
" clip-path="url(#p0016bc0234)" style="fill: none; stroke: #1f77b4; stroke-width: 1.5"/>
    <path d="M 759.191696 287.5 
L 759.191696 310.067125 
" clip-path="url(#p0016bc0234)" style="fill: none; stroke: #1f77b4; stroke-width: 1.5"/>
    <path d="M 776.206774 287.5 
L 776.206774 278.380369 
" clip-path="url(#p0016bc0234)" style="fill: none; stroke: #1f77b4; stroke-width: 1.5"/>
    <path d="M 793.221851 287.5 
L 793.221851 311.228476 
" clip-path="url(#p0016bc0234)" style="fill: none; stroke: #1f77b4; stroke-width: 1.5"/>
    <path d="M 810.236929 287.5 
L 810.236929 261.815427 
" clip-path="url(#p0016bc0234)" style="fill: none; stroke: #1f77b4; stroke-width: 1.5"/>
    <path d="M 827.252007 287.5 
L 827.252007 270.517633 
" clip-path="url(#p0016bc0234)" style="fill: none; stroke: #1f77b4; stroke-width: 1.5"/>
   </g>
   <g id="line2d_31">
    <path d="M 469.51 287.5 
L 853.2 287.5 
" clip-path="url(#p0016bc0234)" style="fill: none; stroke: #1f77b4; stroke-width: 1.5; stroke-linecap: square"/>
   </g>
   <g id="line2d_32">
    <g clip-path="url(#p0016bc0234)">
     <use xlink:href="#maf61fd738f" x="486.950455" y="25.44" style="fill: #1f77b4; stroke: #1f77b4"/>
     <use xlink:href="#maf61fd738f" x="503.965532" y="291.728306" style="fill: #1f77b4; stroke: #1f77b4"/>
     <use xlink:href="#maf61fd738f" x="520.98061" y="287.779276" style="fill: #1f77b4; stroke: #1f77b4"/>
     <use xlink:href="#maf61fd738f" x="537.995687" y="292.094812" style="fill: #1f77b4; stroke: #1f77b4"/>
     <use xlink:href="#maf61fd738f" x="555.010765" y="284.519358" style="fill: #1f77b4; stroke: #1f77b4"/>
     <use xlink:href="#maf61fd738f" x="572.025843" y="258.765886" style="fill: #1f77b4; stroke: #1f77b4"/>
     <use xlink:href="#maf61fd738f" x="589.04092" y="325.165321" style="fill: #1f77b4; stroke: #1f77b4"/>
     <use xlink:href="#maf61fd738f" x="606.055998" y="302.528457" style="fill: #1f77b4; stroke: #1f77b4"/>
     <use xlink:href="#maf61fd738f" x="623.071075" y="271.063262" style="fill: #1f77b4; stroke: #1f77b4"/>
     <use xlink:href="#maf61fd738f" x="640.086153" y="285.498744" style="fill: #1f77b4; stroke: #1f77b4"/>
     <use xlink:href="#maf61fd738f" x="657.101231" y="269.246033" style="fill: #1f77b4; stroke: #1f77b4"/>
     <use xlink:href="#maf61fd738f" x="674.116308" y="252.454856" style="fill: #1f77b4; stroke: #1f77b4"/>
     <use xlink:href="#maf61fd738f" x="691.131386" y="359.836085" style="fill: #1f77b4; stroke: #1f77b4"/>
     <use xlink:href="#maf61fd738f" x="708.146463" y="265.125963" style="fill: #1f77b4; stroke: #1f77b4"/>
     <use xlink:href="#maf61fd738f" x="725.161541" y="270.968127" style="fill: #1f77b4; stroke: #1f77b4"/>
     <use xlink:href="#maf61fd738f" x="742.176619" y="245.652081" style="fill: #1f77b4; stroke: #1f77b4"/>
     <use xlink:href="#maf61fd738f" x="759.191696" y="310.067125" style="fill: #1f77b4; stroke: #1f77b4"/>
     <use xlink:href="#maf61fd738f" x="776.206774" y="278.380369" style="fill: #1f77b4; stroke: #1f77b4"/>
     <use xlink:href="#maf61fd738f" x="793.221851" y="311.228476" style="fill: #1f77b4; stroke: #1f77b4"/>
     <use xlink:href="#maf61fd738f" x="810.236929" y="261.815427" style="fill: #1f77b4; stroke: #1f77b4"/>
     <use xlink:href="#maf61fd738f" x="827.252007" y="270.517633" style="fill: #1f77b4; stroke: #1f77b4"/>
    </g>
   </g>
   <g id="patch_8">
    <path d="M 469.51 549.56 
L 469.51 25.44 
" style="fill: none; stroke: #000000; stroke-width: 0.8; stroke-linejoin: miter; stroke-linecap: square"/>
   </g>
   <g id="patch_9">
    <path d="M 853.2 549.56 
L 853.2 25.44 
" style="fill: none; stroke: #000000; stroke-width: 0.8; stroke-linejoin: miter; stroke-linecap: square"/>
   </g>
   <g id="patch_10">
    <path d="M 469.51 549.56 
L 853.2 549.56 
" style="fill: none; stroke: #000000; stroke-width: 0.8; stroke-linejoin: miter; stroke-linecap: square"/>
   </g>
   <g id="patch_11">
    <path d="M 469.51 25.44 
L 853.2 25.44 
" style="fill: none; stroke: #000000; stroke-width: 0.8; stroke-linejoin: miter; stroke-linecap: square"/>
   </g>
   <g id="text_30">
    <!-- MLE PACF -->
    <g transform="translate(637.355 19.44) scale(0.12 -0.12)">
     <defs>
      <path id="SimHei-50" d="M 2950 3100 
Q 2950 2500 2600 2150 
Q 2250 1800 1625 1800 
L 900 1800 
L 900 125 
L 325 125 
L 325 4400 
L 1625 4400 
Q 2250 4400 2600 4050 
Q 2950 3700 2950 3100 
z
M 2375 3100 
Q 2375 3575 2150 3750 
Q 1925 3925 1475 3925 
L 900 3925 
L 900 2275 
L 1475 2275 
Q 1925 2275 2150 2450 
Q 2375 2625 2375 3100 
z
" transform="scale(0.015625)"/>
     </defs>
     <use xlink:href="#SimHei-4d"/>
     <use xlink:href="#SimHei-4c" x="50"/>
     <use xlink:href="#SimHei-45" x="100"/>
     <use xlink:href="#SimHei-20" x="150"/>
     <use xlink:href="#SimHei-50" x="200"/>
     <use xlink:href="#SimHei-41" x="250"/>
     <use xlink:href="#SimHei-43" x="300"/>
     <use xlink:href="#SimHei-46" x="350"/>
    </g>
   </g>
  </g>
 </g>
 <defs>
  <clipPath id="p270d1821e6">
   <rect x="42.91" y="25.44" width="383.69" height="524.12"/>
  </clipPath>
  <clipPath id="p0016bc0234">
   <rect x="469.51" y="25.44" width="383.69" height="524.12"/>
  </clipPath>
 </defs>
</svg>
