<?xml version="1.0" encoding="utf-8" standalone="no"?>
<!DOCTYPE svg PUBLIC "-//W3C//DTD SVG 1.1//EN"
  "http://www.w3.org/Graphics/SVG/1.1/DTD/svg11.dtd">
<svg xmlns:xlink="http://www.w3.org/1999/xlink" width="720pt" height="432pt" viewBox="0 0 720 432" xmlns="http://www.w3.org/2000/svg" version="1.1">
 <metadata>
  <rdf:RDF xmlns:dc="http://purl.org/dc/elements/1.1/" xmlns:cc="http://creativecommons.org/ns#" xmlns:rdf="http://www.w3.org/1999/02/22-rdf-syntax-ns#">
   <cc:Work>
    <dc:type rdf:resource="http://purl.org/dc/dcmitype/StillImage"/>
    <dc:date>2024-08-17T14:11:58.012313</dc:date>
    <dc:format>image/svg+xml</dc:format>
    <dc:creator>
     <cc:Agent>
      <dc:title>Matplotlib v3.8.0, https://matplotlib.org/</dc:title>
     </cc:Agent>
    </dc:creator>
   </cc:Work>
  </rdf:RDF>
 </metadata>
 <defs>
  <style type="text/css">*{stroke-linejoin: round; stroke-linecap: butt}</style>
 </defs>
 <g id="figure_1">
  <g id="patch_1">
   <path d="M 0 432 
L 720 432 
L 720 0 
L 0 0 
z
" style="fill: #ffffff"/>
  </g>
  <g id="axes_1">
   <g id="patch_2">
    <path d="M 90 384.48 
L 648 384.48 
L 648 51.84 
L 90 51.84 
z
" style="fill: #ffffff"/>
   </g>
   <g id="matplotlib.axis_1">
    <g id="xtick_1">
     <g id="line2d_1">
      <defs>
       <path id="m22de17ca55" d="M 0 0 
L 0 3.5 
" style="stroke: #000000; stroke-width: 0.8"/>
      </defs>
      <g>
       <use xlink:href="#m22de17ca55" x="112.481405" y="384.48" style="stroke: #000000; stroke-width: 0.8"/>
      </g>
     </g>
     <g id="text_1">
      <!-- 0 -->
      <g transform="translate(109.981405 398.355) scale(0.1 -0.1)">
       <defs>
        <path id="SimHei-30" d="M 225 2537 
Q 250 3200 412 3587 
Q 575 3975 875 4225 
Q 1175 4475 1612 4475 
Q 2050 4475 2375 4112 
Q 2700 3750 2800 3200 
Q 2900 2650 2862 1937 
Q 2825 1225 2612 775 
Q 2400 325 1975 150 
Q 1550 -25 1125 187 
Q 700 400 525 750 
Q 350 1100 275 1487 
Q 200 1875 225 2537 
z
M 750 2687 
Q 675 2000 800 1462 
Q 925 925 1212 700 
Q 1500 475 1800 612 
Q 2100 750 2237 1162 
Q 2375 1575 2375 2062 
Q 2375 2550 2337 2950 
Q 2300 3350 2112 3675 
Q 1925 4000 1612 4012 
Q 1300 4025 1062 3700 
Q 825 3375 750 2687 
z
" transform="scale(0.015625)"/>
       </defs>
       <use xlink:href="#SimHei-30"/>
      </g>
     </g>
    </g>
    <g id="xtick_2">
     <g id="line2d_2">
      <g>
       <use xlink:href="#m22de17ca55" x="184.53719" y="384.48" style="stroke: #000000; stroke-width: 0.8"/>
      </g>
     </g>
     <g id="text_2">
      <!-- 25 -->
      <g transform="translate(179.53719 398.355) scale(0.1 -0.1)">
       <defs>
        <path id="SimHei-32" d="M 300 250 
Q 325 625 650 925 
Q 975 1225 1475 1862 
Q 1975 2500 2125 2850 
Q 2275 3200 2237 3450 
Q 2200 3700 2000 3862 
Q 1800 4025 1537 4000 
Q 1275 3975 1037 3800 
Q 800 3625 675 3275 
L 200 3350 
Q 400 3925 712 4187 
Q 1025 4450 1450 4475 
Q 1700 4500 1900 4462 
Q 2100 4425 2312 4287 
Q 2525 4150 2662 3875 
Q 2800 3600 2762 3212 
Q 2725 2825 2375 2287 
Q 2025 1750 1025 600 
L 2825 600 
L 2825 150 
L 300 150 
L 300 250 
z
" transform="scale(0.015625)"/>
        <path id="SimHei-35" d="M 550 1325 
Q 725 650 1150 575 
Q 1575 500 1837 662 
Q 2100 825 2212 1087 
Q 2325 1350 2312 1675 
Q 2300 2000 2137 2225 
Q 1975 2450 1725 2525 
Q 1475 2600 1162 2525 
Q 850 2450 650 2175 
L 225 2225 
Q 275 2375 700 4375 
L 2675 4375 
L 2675 3925 
L 1075 3925 
Q 950 3250 825 2850 
Q 1200 3025 1525 3012 
Q 1850 3000 2150 2862 
Q 2450 2725 2587 2487 
Q 2725 2250 2787 2012 
Q 2850 1775 2837 1500 
Q 2825 1225 2725 937 
Q 2625 650 2425 462 
Q 2225 275 1937 162 
Q 1650 50 1275 75 
Q 900 100 562 350 
Q 225 600 100 1200 
L 550 1325 
z
" transform="scale(0.015625)"/>
       </defs>
       <use xlink:href="#SimHei-32"/>
       <use xlink:href="#SimHei-35" x="50"/>
      </g>
     </g>
    </g>
    <g id="xtick_3">
     <g id="line2d_3">
      <g>
       <use xlink:href="#m22de17ca55" x="256.592975" y="384.48" style="stroke: #000000; stroke-width: 0.8"/>
      </g>
     </g>
     <g id="text_3">
      <!-- 50 -->
      <g transform="translate(251.592975 398.355) scale(0.1 -0.1)">
       <use xlink:href="#SimHei-35"/>
       <use xlink:href="#SimHei-30" x="50"/>
      </g>
     </g>
    </g>
    <g id="xtick_4">
     <g id="line2d_4">
      <g>
       <use xlink:href="#m22de17ca55" x="328.64876" y="384.48" style="stroke: #000000; stroke-width: 0.8"/>
      </g>
     </g>
     <g id="text_4">
      <!-- 75 -->
      <g transform="translate(323.64876 398.355) scale(0.1 -0.1)">
       <defs>
        <path id="SimHei-37" d="M 850 150 
Q 1300 2050 2425 3925 
L 275 3925 
L 275 4375 
L 2950 4375 
L 2950 3950 
Q 1775 2050 1400 150 
L 850 150 
z
" transform="scale(0.015625)"/>
       </defs>
       <use xlink:href="#SimHei-37"/>
       <use xlink:href="#SimHei-35" x="50"/>
      </g>
     </g>
    </g>
    <g id="xtick_5">
     <g id="line2d_5">
      <g>
       <use xlink:href="#m22de17ca55" x="400.704545" y="384.48" style="stroke: #000000; stroke-width: 0.8"/>
      </g>
     </g>
     <g id="text_5">
      <!-- 100 -->
      <g transform="translate(393.204545 398.355) scale(0.1 -0.1)">
       <defs>
        <path id="SimHei-31" d="M 1400 3600 
Q 1075 3275 575 2975 
L 575 3450 
Q 1200 3875 1600 4450 
L 1900 4450 
L 1900 150 
L 1400 150 
L 1400 3600 
z
" transform="scale(0.015625)"/>
       </defs>
       <use xlink:href="#SimHei-31"/>
       <use xlink:href="#SimHei-30" x="50"/>
       <use xlink:href="#SimHei-30" x="100"/>
      </g>
     </g>
    </g>
    <g id="xtick_6">
     <g id="line2d_6">
      <g>
       <use xlink:href="#m22de17ca55" x="472.760331" y="384.48" style="stroke: #000000; stroke-width: 0.8"/>
      </g>
     </g>
     <g id="text_6">
      <!-- 125 -->
      <g transform="translate(465.260331 398.355) scale(0.1 -0.1)">
       <use xlink:href="#SimHei-31"/>
       <use xlink:href="#SimHei-32" x="50"/>
       <use xlink:href="#SimHei-35" x="100"/>
      </g>
     </g>
    </g>
    <g id="xtick_7">
     <g id="line2d_7">
      <g>
       <use xlink:href="#m22de17ca55" x="544.816116" y="384.48" style="stroke: #000000; stroke-width: 0.8"/>
      </g>
     </g>
     <g id="text_7">
      <!-- 150 -->
      <g transform="translate(537.316116 398.355) scale(0.1 -0.1)">
       <use xlink:href="#SimHei-31"/>
       <use xlink:href="#SimHei-35" x="50"/>
       <use xlink:href="#SimHei-30" x="100"/>
      </g>
     </g>
    </g>
    <g id="xtick_8">
     <g id="line2d_8">
      <g>
       <use xlink:href="#m22de17ca55" x="616.871901" y="384.48" style="stroke: #000000; stroke-width: 0.8"/>
      </g>
     </g>
     <g id="text_8">
      <!-- 175 -->
      <g transform="translate(609.371901 398.355) scale(0.1 -0.1)">
       <use xlink:href="#SimHei-31"/>
       <use xlink:href="#SimHei-37" x="50"/>
       <use xlink:href="#SimHei-35" x="100"/>
      </g>
     </g>
    </g>
    <g id="text_9">
     <!-- 周数 -->
     <g transform="translate(359 411.339375) scale(0.1 -0.1)">
      <defs>
       <path id="SimHei-5468" d="M 5600 4925 
Q 5575 4400 5575 3800 
L 5575 50 
Q 5550 -375 5325 -462 
Q 5100 -550 4325 -600 
Q 4300 -400 4125 -75 
Q 4800 -100 4962 -37 
Q 5125 25 5100 225 
L 5100 4525 
L 1500 4525 
Q 1500 2575 1450 1887 
Q 1400 1200 1237 550 
Q 1075 -100 775 -625 
Q 625 -450 275 -225 
Q 650 225 825 1000 
Q 1000 1775 1025 2587 
Q 1050 3400 1000 4925 
L 5600 4925 
z
M 2050 325 
Q 2075 625 2075 950 
L 2075 1400 
Q 2075 1625 2050 1925 
L 4400 1925 
Q 4375 1725 4375 1450 
L 4375 875 
Q 4375 600 4400 325 
L 2050 325 
z
M 3000 3800 
Q 3000 4150 2975 4375 
L 3475 4375 
Q 3450 4075 3450 3800 
Q 4100 3800 4475 3825 
L 4475 3350 
Q 4125 3375 3450 3375 
L 3450 2800 
Q 4200 2800 4825 2825 
L 4825 2350 
Q 4175 2375 3725 2375 
L 2750 2375 
Q 2325 2375 1725 2350 
L 1725 2825 
Q 2325 2800 3000 2800 
L 3000 3375 
Q 2500 3375 1975 3350 
L 1975 3825 
Q 2475 3800 3000 3800 
z
M 3900 725 
L 3900 1525 
L 2550 1525 
L 2550 725 
L 3900 725 
z
" transform="scale(0.015625)"/>
       <path id="SimHei-6570" d="M 4525 4925 
Q 4475 4800 4400 4587 
Q 4325 4375 4175 3825 
L 5325 3825 
Q 5575 3825 5925 3850 
L 5925 3400 
Q 5650 3425 5500 3425 
Q 5500 3025 5362 2162 
Q 5225 1300 4875 675 
Q 5125 375 5437 137 
Q 5750 -100 6025 -200 
Q 5725 -425 5625 -625 
Q 5325 -450 5075 -225 
Q 4825 0 4575 325 
Q 4300 25 3987 -187 
Q 3675 -400 3200 -650 
Q 3075 -425 2850 -300 
Q 3225 -150 3650 125 
Q 4075 400 4300 675 
Q 4125 1025 3962 1425 
Q 3800 1825 3675 2475 
Q 3600 2275 3425 1950 
Q 3250 2050 3000 2150 
Q 3400 2850 3650 3675 
Q 3900 4500 3975 5100 
Q 4275 4975 4525 4925 
z
M 2100 2250 
Q 2000 2150 1875 1925 
L 3250 1925 
Q 3100 1300 2725 675 
Q 3125 525 3350 400 
Q 3225 225 3125 25 
Q 2900 175 2450 325 
Q 1950 -225 725 -650 
Q 600 -375 400 -275 
Q 1575 0 2000 475 
Q 1300 650 850 775 
Q 1000 1000 1250 1525 
Q 1000 1525 425 1500 
L 425 1950 
Q 900 1925 1400 1925 
Q 1500 2150 1550 2425 
Q 1825 2325 2100 2250 
z
M 1775 3950 
Q 1775 4550 1750 5100 
L 2250 5100 
Q 2225 4575 2225 3950 
Q 3075 3950 3425 3975 
L 3425 3525 
Q 3075 3550 2225 3550 
Q 2225 2825 2250 2425 
L 1750 2425 
Q 1775 2775 1775 3300 
Q 1650 3100 1300 2787 
Q 950 2475 650 2300 
Q 525 2525 275 2625 
Q 500 2700 875 2975 
Q 1250 3250 1450 3550 
Q 950 3550 500 3525 
L 500 3975 
Q 925 3950 1775 3950 
z
M 3975 3175 
Q 4200 1700 4600 1125 
Q 4850 1700 4937 2287 
Q 5025 2875 5050 3425 
L 4075 3425 
L 3975 3175 
z
M 1450 1000 
Q 1750 925 2275 800 
Q 2475 1050 2650 1525 
L 1725 1525 
Q 1600 1275 1450 1000 
z
M 3325 4825 
Q 3200 4625 3125 4450 
Q 3050 4275 2925 4025 
Q 2725 4125 2525 4175 
Q 2725 4500 2900 5000 
Q 3150 4875 3325 4825 
z
M 2575 3375 
Q 2900 3050 3200 2725 
Q 3050 2600 2875 2425 
Q 2525 2850 2300 3100 
Q 2450 3225 2575 3375 
z
M 925 5000 
Q 1275 4650 1500 4300 
L 1125 4075 
Q 950 4425 600 4725 
Q 825 4875 925 5000 
z
" transform="scale(0.015625)"/>
      </defs>
      <use xlink:href="#SimHei-5468"/>
      <use xlink:href="#SimHei-6570" x="100"/>
     </g>
    </g>
   </g>
   <g id="matplotlib.axis_2">
    <g id="ytick_1">
     <g id="line2d_9">
      <defs>
       <path id="m3c761caf61" d="M 0 0 
L -3.5 0 
" style="stroke: #000000; stroke-width: 0.8"/>
      </defs>
      <g>
       <use xlink:href="#m3c761caf61" x="90" y="376.232727" style="stroke: #000000; stroke-width: 0.8"/>
      </g>
     </g>
     <g id="text_10">
      <!-- 0 -->
      <g style="fill: #0000ff" transform="translate(78 379.670227) scale(0.1 -0.1)">
       <use xlink:href="#SimHei-30"/>
      </g>
     </g>
    </g>
    <g id="ytick_2">
     <g id="line2d_10">
      <g>
       <use xlink:href="#m3c761caf61" x="90" y="307.505455" style="stroke: #000000; stroke-width: 0.8"/>
      </g>
     </g>
     <g id="text_11">
      <!-- 10 -->
      <g style="fill: #0000ff" transform="translate(73 310.942955) scale(0.1 -0.1)">
       <use xlink:href="#SimHei-31"/>
       <use xlink:href="#SimHei-30" x="50"/>
      </g>
     </g>
    </g>
    <g id="ytick_3">
     <g id="line2d_11">
      <g>
       <use xlink:href="#m3c761caf61" x="90" y="238.778182" style="stroke: #000000; stroke-width: 0.8"/>
      </g>
     </g>
     <g id="text_12">
      <!-- 20 -->
      <g style="fill: #0000ff" transform="translate(73 242.215682) scale(0.1 -0.1)">
       <use xlink:href="#SimHei-32"/>
       <use xlink:href="#SimHei-30" x="50"/>
      </g>
     </g>
    </g>
    <g id="ytick_4">
     <g id="line2d_12">
      <g>
       <use xlink:href="#m3c761caf61" x="90" y="170.050909" style="stroke: #000000; stroke-width: 0.8"/>
      </g>
     </g>
     <g id="text_13">
      <!-- 30 -->
      <g style="fill: #0000ff" transform="translate(73 173.488409) scale(0.1 -0.1)">
       <defs>
        <path id="SimHei-33" d="M 250 1225 
L 700 1300 
Q 800 975 1025 762 
Q 1250 550 1587 562 
Q 1925 575 2125 837 
Q 2325 1100 2300 1437 
Q 2275 1775 2037 1962 
Q 1800 2150 1275 2225 
L 1275 2550 
Q 1800 2600 2037 2825 
Q 2275 3050 2250 3412 
Q 2225 3775 1925 3937 
Q 1625 4100 1287 3975 
Q 950 3850 750 3275 
L 300 3350 
Q 450 3800 712 4100 
Q 975 4400 1425 4450 
Q 1875 4500 2212 4337 
Q 2550 4175 2687 3837 
Q 2825 3500 2725 3100 
Q 2625 2700 2150 2400 
Q 2500 2250 2687 1950 
Q 2875 1650 2812 1162 
Q 2750 675 2375 375 
Q 2000 75 1525 87 
Q 1050 100 700 387 
Q 350 675 250 1225 
z
" transform="scale(0.015625)"/>
       </defs>
       <use xlink:href="#SimHei-33"/>
       <use xlink:href="#SimHei-30" x="50"/>
      </g>
     </g>
    </g>
    <g id="ytick_5">
     <g id="line2d_13">
      <g>
       <use xlink:href="#m3c761caf61" x="90" y="101.323636" style="stroke: #000000; stroke-width: 0.8"/>
      </g>
     </g>
     <g id="text_14">
      <!-- 40 -->
      <g style="fill: #0000ff" transform="translate(73 104.761136) scale(0.1 -0.1)">
       <defs>
        <path id="SimHei-34" d="M 2000 1100 
L 75 1100 
L 75 1525 
L 2100 4450 
L 2475 4450 
L 2475 1525 
L 3075 1525 
L 3075 1100 
L 2475 1100 
L 2475 150 
L 2000 150 
L 2000 1100 
z
M 2000 1525 
L 2000 3500 
L 600 1525 
L 2000 1525 
z
" transform="scale(0.015625)"/>
       </defs>
       <use xlink:href="#SimHei-34"/>
       <use xlink:href="#SimHei-30" x="50"/>
      </g>
     </g>
    </g>
    <g id="text_15">
     <!-- 需求量 -->
     <g style="fill: #0000ff" transform="translate(67.75 233.16) rotate(-90) scale(0.1 -0.1)">
      <defs>
       <path id="SimHei-9700" d="M 5150 2100 
Q 5500 2100 5975 2125 
L 5975 1700 
Q 5500 1725 5150 1725 
L 3425 1725 
Q 3300 1500 3250 1275 
L 5600 1275 
Q 5575 950 5575 700 
L 5575 -50 
Q 5575 -350 5425 -437 
Q 5275 -525 4775 -625 
Q 4750 -400 4550 -100 
Q 4950 -100 5025 -50 
Q 5100 0 5100 200 
L 5100 900 
L 4125 900 
L 4125 -375 
L 3650 -375 
L 3650 900 
L 2775 900 
L 2775 -375 
L 2300 -375 
L 2300 900 
L 1350 900 
L 1350 -575 
L 875 -575 
Q 900 -225 900 175 
L 900 575 
Q 900 900 875 1275 
L 2800 1275 
Q 2875 1500 2925 1725 
L 1350 1725 
Q 925 1725 525 1700 
L 525 2125 
Q 900 2100 1325 2100 
L 5150 2100 
z
M 4700 5075 
Q 5075 5075 5550 5100 
L 5550 4675 
Q 5075 4700 4700 4700 
L 3475 4700 
L 3475 4275 
L 5975 4275 
L 5975 3100 
L 5500 3100 
L 5500 3900 
L 3475 3900 
L 3475 3200 
Q 3475 2775 3500 2425 
L 2975 2425 
Q 3000 2750 3000 3175 
L 3000 3900 
L 950 3900 
L 950 3100 
L 450 3100 
Q 450 3375 462 3650 
Q 475 3925 450 4275 
L 3000 4275 
L 3000 4700 
L 1775 4700 
Q 1400 4700 1025 4675 
L 1025 5100 
Q 1400 5075 1750 5075 
L 4700 5075 
z
M 2475 2450 
L 1250 2450 
L 1250 2800 
L 2475 2800 
L 2475 2450 
z
M 2500 3150 
L 1325 3150 
L 1325 3500 
L 2500 3500 
L 2500 3150 
z
M 5000 3175 
L 3825 3175 
L 3825 3525 
L 5000 3525 
L 5000 3175 
z
M 5025 2500 
L 3850 2500 
L 3850 2850 
L 5025 2850 
L 5025 2500 
z
" transform="scale(0.015625)"/>
       <path id="SimHei-6c42" d="M 475 4025 
Q 875 4000 1325 4000 
L 2875 4000 
Q 2875 4725 2850 5125 
L 3400 5125 
Q 3375 4725 3375 4000 
L 5150 4000 
Q 5500 4000 5925 4025 
L 5925 3575 
Q 5475 3600 5150 3600 
L 3375 3600 
Q 3400 3200 3612 2750 
Q 3825 2300 4050 2000 
Q 4600 2450 5075 3150 
Q 5250 2950 5575 2750 
Q 5275 2600 4250 1650 
Q 4575 1225 5037 850 
Q 5500 475 6050 325 
Q 5700 125 5550 -150 
Q 5000 150 4437 687 
Q 3875 1225 3375 2375 
L 3375 150 
Q 3400 -225 3137 -350 
Q 2875 -475 2375 -525 
Q 2325 -275 2150 25 
Q 2575 0 2737 37 
Q 2900 75 2875 300 
L 2875 1675 
Q 1875 900 1437 550 
Q 1000 200 725 -50 
Q 500 200 300 400 
Q 650 575 1200 937 
Q 1750 1300 2875 2250 
L 2875 3600 
L 1325 3600 
Q 875 3600 475 3575 
L 475 4025 
z
M 1225 3175 
Q 1775 2725 2250 2325 
L 1825 1950 
Q 1450 2375 825 2825 
L 1225 3175 
z
M 4500 5100 
Q 4900 4825 5300 4425 
Q 5125 4300 4925 4100 
Q 4650 4400 4125 4825 
Q 4275 4950 4500 5100 
z
" transform="scale(0.015625)"/>
       <path id="SimHei-91cf" d="M 5250 2500 
Q 5225 2200 5225 1700 
Q 5225 1225 5250 950 
L 3425 950 
L 3425 625 
L 4575 625 
Q 5000 625 5375 650 
L 5375 275 
Q 5025 300 4575 300 
L 3425 300 
L 3425 -75 
L 5125 -75 
Q 5525 -75 5925 -50 
L 5925 -425 
Q 5525 -400 5125 -400 
L 1275 -400 
Q 900 -400 475 -425 
L 475 -50 
Q 925 -50 1275 -75 
L 2975 -75 
L 2975 300 
L 1725 300 
Q 1350 300 975 250 
L 975 650 
Q 1375 625 1725 625 
L 2975 625 
L 2975 950 
L 1150 950 
Q 1175 1375 1175 1775 
Q 1175 2175 1150 2500 
L 5250 2500 
z
M 5200 4950 
Q 5175 4575 5175 4250 
Q 5175 3925 5200 3400 
L 1200 3400 
Q 1225 3925 1225 4250 
Q 1225 4575 1200 4950 
L 5200 4950 
z
M 4900 3100 
Q 5500 3125 6000 3150 
L 6000 2750 
Q 5500 2775 4925 2775 
L 1650 2775 
Q 975 2775 325 2750 
L 325 3150 
Q 975 3125 1650 3100 
L 4900 3100 
z
M 4725 3700 
L 4725 4025 
L 1675 4025 
L 1675 3700 
L 4725 3700 
z
M 4725 4350 
L 4725 4650 
L 1675 4650 
L 1675 4350 
L 4725 4350 
z
M 4750 1875 
L 4750 2175 
L 3425 2175 
L 3425 1875 
L 4750 1875 
z
M 2975 1875 
L 2975 2175 
L 1650 2175 
L 1650 1875 
L 2975 1875 
z
M 2975 1275 
L 2975 1550 
L 1650 1550 
L 1650 1275 
L 2975 1275 
z
M 4750 1275 
L 4750 1550 
L 3425 1550 
L 3425 1275 
L 4750 1275 
z
" transform="scale(0.015625)"/>
      </defs>
      <use xlink:href="#SimHei-9700"/>
      <use xlink:href="#SimHei-6c42" x="100"/>
      <use xlink:href="#SimHei-91cf" x="200"/>
     </g>
    </g>
   </g>
   <g id="line2d_14">
    <path d="M 115.363636 328.123636 
L 118.245868 252.523636 
L 121.128099 321.250909 
L 126.892562 362.487273 
L 132.657025 334.996364 
L 135.539256 334.996364 
L 138.421488 190.669091 
L 141.303719 341.869091 
L 144.18595 348.741818 
L 149.950413 307.505455 
L 152.832645 348.741818 
L 155.714876 314.378182 
L 158.597107 231.905455 
L 161.479339 348.741818 
L 164.36157 369.36 
L 167.243802 286.887273 
L 170.126033 334.996364 
L 173.008264 355.614545 
L 175.890496 321.250909 
L 178.772727 369.36 
L 181.654959 300.632727 
L 184.53719 334.996364 
L 187.419421 231.905455 
L 190.301653 348.741818 
L 193.183884 369.36 
L 196.066116 176.923636 
L 198.948347 362.487273 
L 201.830579 197.541818 
L 204.71281 286.887273 
L 207.595041 307.505455 
L 210.477273 273.141818 
L 213.359504 334.996364 
L 216.241736 293.76 
L 219.123967 266.269091 
L 222.006198 225.032727 
L 224.88843 266.269091 
L 227.770661 204.414545 
L 230.652893 286.887273 
L 233.535124 286.887273 
L 236.417355 334.996364 
L 239.299587 66.96 
L 242.181818 293.76 
L 245.06405 307.505455 
L 247.946281 307.505455 
L 250.828512 142.56 
L 253.710744 362.487273 
L 256.592975 341.869091 
L 259.475207 369.36 
L 262.357438 355.614545 
L 271.004132 328.123636 
L 282.533058 369.36 
L 285.415289 362.487273 
L 291.179752 328.123636 
L 294.061983 307.505455 
L 296.944215 355.614545 
L 299.826446 314.378182 
L 302.708678 307.505455 
L 305.590909 273.141818 
L 308.47314 369.36 
L 311.355372 273.141818 
L 317.119835 328.123636 
L 320.002066 362.487273 
L 325.766529 293.76 
L 328.64876 300.632727 
L 331.530992 321.250909 
L 334.413223 362.487273 
L 340.177686 362.487273 
L 343.059917 355.614545 
L 345.942149 341.869091 
L 351.706612 307.505455 
L 354.588843 362.487273 
L 357.471074 334.996364 
L 360.353306 355.614545 
L 363.235537 341.869091 
L 366.117769 280.014545 
L 369 348.741818 
L 371.882231 369.36 
L 374.764463 259.396364 
L 383.411157 348.741818 
L 386.293388 328.123636 
L 392.057851 334.996364 
L 394.940083 369.36 
L 400.704545 348.741818 
L 403.586777 348.741818 
L 406.469008 369.36 
L 409.35124 341.869091 
L 412.233471 341.869091 
L 420.880165 334.996364 
L 423.762397 348.741818 
L 426.644628 355.614545 
L 435.291322 369.36 
L 438.173554 334.996364 
L 443.938017 341.869091 
L 449.702479 369.36 
L 455.466942 362.487273 
L 458.349174 355.614545 
L 461.231405 321.250909 
L 464.113636 341.869091 
L 466.995868 334.996364 
L 469.878099 362.487273 
L 472.760331 348.741818 
L 475.642562 362.487273 
L 481.407025 369.36 
L 484.289256 369.36 
L 487.171488 355.614545 
L 490.053719 369.36 
L 501.582645 369.36 
L 510.229339 328.123636 
L 513.11157 348.741818 
L 515.993802 362.487273 
L 518.876033 314.378182 
L 524.640496 355.614545 
L 527.522727 369.36 
L 530.404959 362.487273 
L 533.28719 369.36 
L 536.169421 362.487273 
L 539.051653 321.250909 
L 541.933884 348.741818 
L 544.816116 348.741818 
L 547.698347 341.869091 
L 550.580579 341.869091 
L 553.46281 348.741818 
L 556.345041 341.869091 
L 562.109504 286.887273 
L 564.991736 355.614545 
L 567.873967 348.741818 
L 576.520661 369.36 
L 588.049587 307.505455 
L 590.931818 341.869091 
L 593.81405 362.487273 
L 596.696281 293.76 
L 599.578512 307.505455 
L 602.460744 334.996364 
L 605.342975 355.614545 
L 608.225207 369.36 
L 611.107438 348.741818 
L 613.989669 369.36 
L 616.871901 369.36 
L 619.754132 307.505455 
L 622.636364 348.741818 
L 622.636364 348.741818 
" clip-path="url(#p95c0bba8dc)" style="fill: none; stroke: #0000ff; stroke-width: 1.5; stroke-linecap: square"/>
    <defs>
     <path id="m9a98c3d47b" d="M 0 3 
C 0.795609 3 1.55874 2.683901 2.12132 2.12132 
C 2.683901 1.55874 3 0.795609 3 0 
C 3 -0.795609 2.683901 -1.55874 2.12132 -2.12132 
C 1.55874 -2.683901 0.795609 -3 0 -3 
C -0.795609 -3 -1.55874 -2.683901 -2.12132 -2.12132 
C -2.683901 -1.55874 -3 -0.795609 -3 0 
C -3 0.795609 -2.683901 1.55874 -2.12132 2.12132 
C -1.55874 2.683901 -0.795609 3 0 3 
z
" style="stroke: #0000ff"/>
    </defs>
    <g clip-path="url(#p95c0bba8dc)">
     <use xlink:href="#m9a98c3d47b" x="115.363636" y="328.123636" style="fill: #0000ff; stroke: #0000ff"/>
     <use xlink:href="#m9a98c3d47b" x="118.245868" y="252.523636" style="fill: #0000ff; stroke: #0000ff"/>
     <use xlink:href="#m9a98c3d47b" x="121.128099" y="321.250909" style="fill: #0000ff; stroke: #0000ff"/>
     <use xlink:href="#m9a98c3d47b" x="126.892562" y="362.487273" style="fill: #0000ff; stroke: #0000ff"/>
     <use xlink:href="#m9a98c3d47b" x="132.657025" y="334.996364" style="fill: #0000ff; stroke: #0000ff"/>
     <use xlink:href="#m9a98c3d47b" x="135.539256" y="334.996364" style="fill: #0000ff; stroke: #0000ff"/>
     <use xlink:href="#m9a98c3d47b" x="138.421488" y="190.669091" style="fill: #0000ff; stroke: #0000ff"/>
     <use xlink:href="#m9a98c3d47b" x="141.303719" y="341.869091" style="fill: #0000ff; stroke: #0000ff"/>
     <use xlink:href="#m9a98c3d47b" x="144.18595" y="348.741818" style="fill: #0000ff; stroke: #0000ff"/>
     <use xlink:href="#m9a98c3d47b" x="147.068182" y="328.123636" style="fill: #0000ff; stroke: #0000ff"/>
     <use xlink:href="#m9a98c3d47b" x="149.950413" y="307.505455" style="fill: #0000ff; stroke: #0000ff"/>
     <use xlink:href="#m9a98c3d47b" x="152.832645" y="348.741818" style="fill: #0000ff; stroke: #0000ff"/>
     <use xlink:href="#m9a98c3d47b" x="155.714876" y="314.378182" style="fill: #0000ff; stroke: #0000ff"/>
     <use xlink:href="#m9a98c3d47b" x="158.597107" y="231.905455" style="fill: #0000ff; stroke: #0000ff"/>
     <use xlink:href="#m9a98c3d47b" x="161.479339" y="348.741818" style="fill: #0000ff; stroke: #0000ff"/>
     <use xlink:href="#m9a98c3d47b" x="164.36157" y="369.36" style="fill: #0000ff; stroke: #0000ff"/>
     <use xlink:href="#m9a98c3d47b" x="167.243802" y="286.887273" style="fill: #0000ff; stroke: #0000ff"/>
     <use xlink:href="#m9a98c3d47b" x="170.126033" y="334.996364" style="fill: #0000ff; stroke: #0000ff"/>
     <use xlink:href="#m9a98c3d47b" x="173.008264" y="355.614545" style="fill: #0000ff; stroke: #0000ff"/>
     <use xlink:href="#m9a98c3d47b" x="175.890496" y="321.250909" style="fill: #0000ff; stroke: #0000ff"/>
     <use xlink:href="#m9a98c3d47b" x="178.772727" y="369.36" style="fill: #0000ff; stroke: #0000ff"/>
     <use xlink:href="#m9a98c3d47b" x="181.654959" y="300.632727" style="fill: #0000ff; stroke: #0000ff"/>
     <use xlink:href="#m9a98c3d47b" x="184.53719" y="334.996364" style="fill: #0000ff; stroke: #0000ff"/>
     <use xlink:href="#m9a98c3d47b" x="187.419421" y="231.905455" style="fill: #0000ff; stroke: #0000ff"/>
     <use xlink:href="#m9a98c3d47b" x="190.301653" y="348.741818" style="fill: #0000ff; stroke: #0000ff"/>
     <use xlink:href="#m9a98c3d47b" x="193.183884" y="369.36" style="fill: #0000ff; stroke: #0000ff"/>
     <use xlink:href="#m9a98c3d47b" x="196.066116" y="176.923636" style="fill: #0000ff; stroke: #0000ff"/>
     <use xlink:href="#m9a98c3d47b" x="198.948347" y="362.487273" style="fill: #0000ff; stroke: #0000ff"/>
     <use xlink:href="#m9a98c3d47b" x="201.830579" y="197.541818" style="fill: #0000ff; stroke: #0000ff"/>
     <use xlink:href="#m9a98c3d47b" x="204.71281" y="286.887273" style="fill: #0000ff; stroke: #0000ff"/>
     <use xlink:href="#m9a98c3d47b" x="207.595041" y="307.505455" style="fill: #0000ff; stroke: #0000ff"/>
     <use xlink:href="#m9a98c3d47b" x="210.477273" y="273.141818" style="fill: #0000ff; stroke: #0000ff"/>
     <use xlink:href="#m9a98c3d47b" x="213.359504" y="334.996364" style="fill: #0000ff; stroke: #0000ff"/>
     <use xlink:href="#m9a98c3d47b" x="216.241736" y="293.76" style="fill: #0000ff; stroke: #0000ff"/>
     <use xlink:href="#m9a98c3d47b" x="219.123967" y="266.269091" style="fill: #0000ff; stroke: #0000ff"/>
     <use xlink:href="#m9a98c3d47b" x="222.006198" y="225.032727" style="fill: #0000ff; stroke: #0000ff"/>
     <use xlink:href="#m9a98c3d47b" x="224.88843" y="266.269091" style="fill: #0000ff; stroke: #0000ff"/>
     <use xlink:href="#m9a98c3d47b" x="227.770661" y="204.414545" style="fill: #0000ff; stroke: #0000ff"/>
     <use xlink:href="#m9a98c3d47b" x="230.652893" y="286.887273" style="fill: #0000ff; stroke: #0000ff"/>
     <use xlink:href="#m9a98c3d47b" x="233.535124" y="286.887273" style="fill: #0000ff; stroke: #0000ff"/>
     <use xlink:href="#m9a98c3d47b" x="236.417355" y="334.996364" style="fill: #0000ff; stroke: #0000ff"/>
     <use xlink:href="#m9a98c3d47b" x="239.299587" y="66.96" style="fill: #0000ff; stroke: #0000ff"/>
     <use xlink:href="#m9a98c3d47b" x="242.181818" y="293.76" style="fill: #0000ff; stroke: #0000ff"/>
     <use xlink:href="#m9a98c3d47b" x="245.06405" y="307.505455" style="fill: #0000ff; stroke: #0000ff"/>
     <use xlink:href="#m9a98c3d47b" x="247.946281" y="307.505455" style="fill: #0000ff; stroke: #0000ff"/>
     <use xlink:href="#m9a98c3d47b" x="250.828512" y="142.56" style="fill: #0000ff; stroke: #0000ff"/>
     <use xlink:href="#m9a98c3d47b" x="253.710744" y="362.487273" style="fill: #0000ff; stroke: #0000ff"/>
     <use xlink:href="#m9a98c3d47b" x="256.592975" y="341.869091" style="fill: #0000ff; stroke: #0000ff"/>
     <use xlink:href="#m9a98c3d47b" x="259.475207" y="369.36" style="fill: #0000ff; stroke: #0000ff"/>
     <use xlink:href="#m9a98c3d47b" x="262.357438" y="355.614545" style="fill: #0000ff; stroke: #0000ff"/>
     <use xlink:href="#m9a98c3d47b" x="271.004132" y="328.123636" style="fill: #0000ff; stroke: #0000ff"/>
     <use xlink:href="#m9a98c3d47b" x="282.533058" y="369.36" style="fill: #0000ff; stroke: #0000ff"/>
     <use xlink:href="#m9a98c3d47b" x="285.415289" y="362.487273" style="fill: #0000ff; stroke: #0000ff"/>
     <use xlink:href="#m9a98c3d47b" x="291.179752" y="328.123636" style="fill: #0000ff; stroke: #0000ff"/>
     <use xlink:href="#m9a98c3d47b" x="294.061983" y="307.505455" style="fill: #0000ff; stroke: #0000ff"/>
     <use xlink:href="#m9a98c3d47b" x="296.944215" y="355.614545" style="fill: #0000ff; stroke: #0000ff"/>
     <use xlink:href="#m9a98c3d47b" x="299.826446" y="314.378182" style="fill: #0000ff; stroke: #0000ff"/>
     <use xlink:href="#m9a98c3d47b" x="302.708678" y="307.505455" style="fill: #0000ff; stroke: #0000ff"/>
     <use xlink:href="#m9a98c3d47b" x="305.590909" y="273.141818" style="fill: #0000ff; stroke: #0000ff"/>
     <use xlink:href="#m9a98c3d47b" x="308.47314" y="369.36" style="fill: #0000ff; stroke: #0000ff"/>
     <use xlink:href="#m9a98c3d47b" x="311.355372" y="273.141818" style="fill: #0000ff; stroke: #0000ff"/>
     <use xlink:href="#m9a98c3d47b" x="317.119835" y="328.123636" style="fill: #0000ff; stroke: #0000ff"/>
     <use xlink:href="#m9a98c3d47b" x="320.002066" y="362.487273" style="fill: #0000ff; stroke: #0000ff"/>
     <use xlink:href="#m9a98c3d47b" x="325.766529" y="293.76" style="fill: #0000ff; stroke: #0000ff"/>
     <use xlink:href="#m9a98c3d47b" x="328.64876" y="300.632727" style="fill: #0000ff; stroke: #0000ff"/>
     <use xlink:href="#m9a98c3d47b" x="331.530992" y="321.250909" style="fill: #0000ff; stroke: #0000ff"/>
     <use xlink:href="#m9a98c3d47b" x="334.413223" y="362.487273" style="fill: #0000ff; stroke: #0000ff"/>
     <use xlink:href="#m9a98c3d47b" x="340.177686" y="362.487273" style="fill: #0000ff; stroke: #0000ff"/>
     <use xlink:href="#m9a98c3d47b" x="343.059917" y="355.614545" style="fill: #0000ff; stroke: #0000ff"/>
     <use xlink:href="#m9a98c3d47b" x="345.942149" y="341.869091" style="fill: #0000ff; stroke: #0000ff"/>
     <use xlink:href="#m9a98c3d47b" x="351.706612" y="307.505455" style="fill: #0000ff; stroke: #0000ff"/>
     <use xlink:href="#m9a98c3d47b" x="354.588843" y="362.487273" style="fill: #0000ff; stroke: #0000ff"/>
     <use xlink:href="#m9a98c3d47b" x="357.471074" y="334.996364" style="fill: #0000ff; stroke: #0000ff"/>
     <use xlink:href="#m9a98c3d47b" x="360.353306" y="355.614545" style="fill: #0000ff; stroke: #0000ff"/>
     <use xlink:href="#m9a98c3d47b" x="363.235537" y="341.869091" style="fill: #0000ff; stroke: #0000ff"/>
     <use xlink:href="#m9a98c3d47b" x="366.117769" y="280.014545" style="fill: #0000ff; stroke: #0000ff"/>
     <use xlink:href="#m9a98c3d47b" x="369" y="348.741818" style="fill: #0000ff; stroke: #0000ff"/>
     <use xlink:href="#m9a98c3d47b" x="371.882231" y="369.36" style="fill: #0000ff; stroke: #0000ff"/>
     <use xlink:href="#m9a98c3d47b" x="374.764463" y="259.396364" style="fill: #0000ff; stroke: #0000ff"/>
     <use xlink:href="#m9a98c3d47b" x="383.411157" y="348.741818" style="fill: #0000ff; stroke: #0000ff"/>
     <use xlink:href="#m9a98c3d47b" x="386.293388" y="328.123636" style="fill: #0000ff; stroke: #0000ff"/>
     <use xlink:href="#m9a98c3d47b" x="392.057851" y="334.996364" style="fill: #0000ff; stroke: #0000ff"/>
     <use xlink:href="#m9a98c3d47b" x="394.940083" y="369.36" style="fill: #0000ff; stroke: #0000ff"/>
     <use xlink:href="#m9a98c3d47b" x="400.704545" y="348.741818" style="fill: #0000ff; stroke: #0000ff"/>
     <use xlink:href="#m9a98c3d47b" x="403.586777" y="348.741818" style="fill: #0000ff; stroke: #0000ff"/>
     <use xlink:href="#m9a98c3d47b" x="406.469008" y="369.36" style="fill: #0000ff; stroke: #0000ff"/>
     <use xlink:href="#m9a98c3d47b" x="409.35124" y="341.869091" style="fill: #0000ff; stroke: #0000ff"/>
     <use xlink:href="#m9a98c3d47b" x="412.233471" y="341.869091" style="fill: #0000ff; stroke: #0000ff"/>
     <use xlink:href="#m9a98c3d47b" x="420.880165" y="334.996364" style="fill: #0000ff; stroke: #0000ff"/>
     <use xlink:href="#m9a98c3d47b" x="423.762397" y="348.741818" style="fill: #0000ff; stroke: #0000ff"/>
     <use xlink:href="#m9a98c3d47b" x="426.644628" y="355.614545" style="fill: #0000ff; stroke: #0000ff"/>
     <use xlink:href="#m9a98c3d47b" x="435.291322" y="369.36" style="fill: #0000ff; stroke: #0000ff"/>
     <use xlink:href="#m9a98c3d47b" x="438.173554" y="334.996364" style="fill: #0000ff; stroke: #0000ff"/>
     <use xlink:href="#m9a98c3d47b" x="443.938017" y="341.869091" style="fill: #0000ff; stroke: #0000ff"/>
     <use xlink:href="#m9a98c3d47b" x="449.702479" y="369.36" style="fill: #0000ff; stroke: #0000ff"/>
     <use xlink:href="#m9a98c3d47b" x="455.466942" y="362.487273" style="fill: #0000ff; stroke: #0000ff"/>
     <use xlink:href="#m9a98c3d47b" x="458.349174" y="355.614545" style="fill: #0000ff; stroke: #0000ff"/>
     <use xlink:href="#m9a98c3d47b" x="461.231405" y="321.250909" style="fill: #0000ff; stroke: #0000ff"/>
     <use xlink:href="#m9a98c3d47b" x="464.113636" y="341.869091" style="fill: #0000ff; stroke: #0000ff"/>
     <use xlink:href="#m9a98c3d47b" x="466.995868" y="334.996364" style="fill: #0000ff; stroke: #0000ff"/>
     <use xlink:href="#m9a98c3d47b" x="469.878099" y="362.487273" style="fill: #0000ff; stroke: #0000ff"/>
     <use xlink:href="#m9a98c3d47b" x="472.760331" y="348.741818" style="fill: #0000ff; stroke: #0000ff"/>
     <use xlink:href="#m9a98c3d47b" x="475.642562" y="362.487273" style="fill: #0000ff; stroke: #0000ff"/>
     <use xlink:href="#m9a98c3d47b" x="481.407025" y="369.36" style="fill: #0000ff; stroke: #0000ff"/>
     <use xlink:href="#m9a98c3d47b" x="484.289256" y="369.36" style="fill: #0000ff; stroke: #0000ff"/>
     <use xlink:href="#m9a98c3d47b" x="487.171488" y="355.614545" style="fill: #0000ff; stroke: #0000ff"/>
     <use xlink:href="#m9a98c3d47b" x="490.053719" y="369.36" style="fill: #0000ff; stroke: #0000ff"/>
     <use xlink:href="#m9a98c3d47b" x="501.582645" y="369.36" style="fill: #0000ff; stroke: #0000ff"/>
     <use xlink:href="#m9a98c3d47b" x="510.229339" y="328.123636" style="fill: #0000ff; stroke: #0000ff"/>
     <use xlink:href="#m9a98c3d47b" x="513.11157" y="348.741818" style="fill: #0000ff; stroke: #0000ff"/>
     <use xlink:href="#m9a98c3d47b" x="515.993802" y="362.487273" style="fill: #0000ff; stroke: #0000ff"/>
     <use xlink:href="#m9a98c3d47b" x="518.876033" y="314.378182" style="fill: #0000ff; stroke: #0000ff"/>
     <use xlink:href="#m9a98c3d47b" x="524.640496" y="355.614545" style="fill: #0000ff; stroke: #0000ff"/>
     <use xlink:href="#m9a98c3d47b" x="527.522727" y="369.36" style="fill: #0000ff; stroke: #0000ff"/>
     <use xlink:href="#m9a98c3d47b" x="530.404959" y="362.487273" style="fill: #0000ff; stroke: #0000ff"/>
     <use xlink:href="#m9a98c3d47b" x="533.28719" y="369.36" style="fill: #0000ff; stroke: #0000ff"/>
     <use xlink:href="#m9a98c3d47b" x="536.169421" y="362.487273" style="fill: #0000ff; stroke: #0000ff"/>
     <use xlink:href="#m9a98c3d47b" x="539.051653" y="321.250909" style="fill: #0000ff; stroke: #0000ff"/>
     <use xlink:href="#m9a98c3d47b" x="541.933884" y="348.741818" style="fill: #0000ff; stroke: #0000ff"/>
     <use xlink:href="#m9a98c3d47b" x="544.816116" y="348.741818" style="fill: #0000ff; stroke: #0000ff"/>
     <use xlink:href="#m9a98c3d47b" x="547.698347" y="341.869091" style="fill: #0000ff; stroke: #0000ff"/>
     <use xlink:href="#m9a98c3d47b" x="550.580579" y="341.869091" style="fill: #0000ff; stroke: #0000ff"/>
     <use xlink:href="#m9a98c3d47b" x="553.46281" y="348.741818" style="fill: #0000ff; stroke: #0000ff"/>
     <use xlink:href="#m9a98c3d47b" x="556.345041" y="341.869091" style="fill: #0000ff; stroke: #0000ff"/>
     <use xlink:href="#m9a98c3d47b" x="562.109504" y="286.887273" style="fill: #0000ff; stroke: #0000ff"/>
     <use xlink:href="#m9a98c3d47b" x="564.991736" y="355.614545" style="fill: #0000ff; stroke: #0000ff"/>
     <use xlink:href="#m9a98c3d47b" x="567.873967" y="348.741818" style="fill: #0000ff; stroke: #0000ff"/>
     <use xlink:href="#m9a98c3d47b" x="576.520661" y="369.36" style="fill: #0000ff; stroke: #0000ff"/>
     <use xlink:href="#m9a98c3d47b" x="588.049587" y="307.505455" style="fill: #0000ff; stroke: #0000ff"/>
     <use xlink:href="#m9a98c3d47b" x="590.931818" y="341.869091" style="fill: #0000ff; stroke: #0000ff"/>
     <use xlink:href="#m9a98c3d47b" x="593.81405" y="362.487273" style="fill: #0000ff; stroke: #0000ff"/>
     <use xlink:href="#m9a98c3d47b" x="596.696281" y="293.76" style="fill: #0000ff; stroke: #0000ff"/>
     <use xlink:href="#m9a98c3d47b" x="599.578512" y="307.505455" style="fill: #0000ff; stroke: #0000ff"/>
     <use xlink:href="#m9a98c3d47b" x="602.460744" y="334.996364" style="fill: #0000ff; stroke: #0000ff"/>
     <use xlink:href="#m9a98c3d47b" x="605.342975" y="355.614545" style="fill: #0000ff; stroke: #0000ff"/>
     <use xlink:href="#m9a98c3d47b" x="608.225207" y="369.36" style="fill: #0000ff; stroke: #0000ff"/>
     <use xlink:href="#m9a98c3d47b" x="611.107438" y="348.741818" style="fill: #0000ff; stroke: #0000ff"/>
     <use xlink:href="#m9a98c3d47b" x="613.989669" y="369.36" style="fill: #0000ff; stroke: #0000ff"/>
     <use xlink:href="#m9a98c3d47b" x="616.871901" y="369.36" style="fill: #0000ff; stroke: #0000ff"/>
     <use xlink:href="#m9a98c3d47b" x="619.754132" y="307.505455" style="fill: #0000ff; stroke: #0000ff"/>
     <use xlink:href="#m9a98c3d47b" x="622.636364" y="348.741818" style="fill: #0000ff; stroke: #0000ff"/>
    </g>
   </g>
   <g id="patch_3">
    <path d="M 90 384.48 
L 90 51.84 
" style="fill: none; stroke: #000000; stroke-width: 0.8; stroke-linejoin: miter; stroke-linecap: square"/>
   </g>
   <g id="patch_4">
    <path d="M 648 384.48 
L 648 51.84 
" style="fill: none; stroke: #000000; stroke-width: 0.8; stroke-linejoin: miter; stroke-linecap: square"/>
   </g>
   <g id="patch_5">
    <path d="M 90 384.48 
L 648 384.48 
" style="fill: none; stroke: #000000; stroke-width: 0.8; stroke-linejoin: miter; stroke-linecap: square"/>
   </g>
   <g id="patch_6">
    <path d="M 90 51.84 
L 648 51.84 
" style="fill: none; stroke: #000000; stroke-width: 0.8; stroke-linejoin: miter; stroke-linecap: square"/>
   </g>
  </g>
  <g id="axes_2">
   <g id="matplotlib.axis_3">
    <g id="ytick_6">
     <g id="line2d_15">
      <defs>
       <path id="m04d86dccbe" d="M 0 0 
L 3.5 0 
" style="stroke: #000000; stroke-width: 0.8"/>
      </defs>
      <g>
       <use xlink:href="#m04d86dccbe" x="648" y="376.252001" style="stroke: #000000; stroke-width: 0.8"/>
      </g>
     </g>
     <g id="text_16">
      <!-- 0 -->
      <g style="fill: #008000" transform="translate(655 379.689501) scale(0.1 -0.1)">
       <use xlink:href="#SimHei-30"/>
      </g>
     </g>
    </g>
    <g id="ytick_7">
     <g id="line2d_16">
      <g>
       <use xlink:href="#m04d86dccbe" x="648" y="336.993841" style="stroke: #000000; stroke-width: 0.8"/>
      </g>
     </g>
     <g id="text_17">
      <!-- 10000 -->
      <g style="fill: #008000" transform="translate(655 340.431341) scale(0.1 -0.1)">
       <use xlink:href="#SimHei-31"/>
       <use xlink:href="#SimHei-30" x="50"/>
       <use xlink:href="#SimHei-30" x="100"/>
       <use xlink:href="#SimHei-30" x="150"/>
       <use xlink:href="#SimHei-30" x="200"/>
      </g>
     </g>
    </g>
    <g id="ytick_8">
     <g id="line2d_17">
      <g>
       <use xlink:href="#m04d86dccbe" x="648" y="297.735681" style="stroke: #000000; stroke-width: 0.8"/>
      </g>
     </g>
     <g id="text_18">
      <!-- 20000 -->
      <g style="fill: #008000" transform="translate(655 301.173181) scale(0.1 -0.1)">
       <use xlink:href="#SimHei-32"/>
       <use xlink:href="#SimHei-30" x="50"/>
       <use xlink:href="#SimHei-30" x="100"/>
       <use xlink:href="#SimHei-30" x="150"/>
       <use xlink:href="#SimHei-30" x="200"/>
      </g>
     </g>
    </g>
    <g id="ytick_9">
     <g id="line2d_18">
      <g>
       <use xlink:href="#m04d86dccbe" x="648" y="258.477521" style="stroke: #000000; stroke-width: 0.8"/>
      </g>
     </g>
     <g id="text_19">
      <!-- 30000 -->
      <g style="fill: #008000" transform="translate(655 261.915021) scale(0.1 -0.1)">
       <use xlink:href="#SimHei-33"/>
       <use xlink:href="#SimHei-30" x="50"/>
       <use xlink:href="#SimHei-30" x="100"/>
       <use xlink:href="#SimHei-30" x="150"/>
       <use xlink:href="#SimHei-30" x="200"/>
      </g>
     </g>
    </g>
    <g id="ytick_10">
     <g id="line2d_19">
      <g>
       <use xlink:href="#m04d86dccbe" x="648" y="219.219362" style="stroke: #000000; stroke-width: 0.8"/>
      </g>
     </g>
     <g id="text_20">
      <!-- 40000 -->
      <g style="fill: #008000" transform="translate(655 222.656862) scale(0.1 -0.1)">
       <use xlink:href="#SimHei-34"/>
       <use xlink:href="#SimHei-30" x="50"/>
       <use xlink:href="#SimHei-30" x="100"/>
       <use xlink:href="#SimHei-30" x="150"/>
       <use xlink:href="#SimHei-30" x="200"/>
      </g>
     </g>
    </g>
    <g id="ytick_11">
     <g id="line2d_20">
      <g>
       <use xlink:href="#m04d86dccbe" x="648" y="179.961202" style="stroke: #000000; stroke-width: 0.8"/>
      </g>
     </g>
     <g id="text_21">
      <!-- 50000 -->
      <g style="fill: #008000" transform="translate(655 183.398702) scale(0.1 -0.1)">
       <use xlink:href="#SimHei-35"/>
       <use xlink:href="#SimHei-30" x="50"/>
       <use xlink:href="#SimHei-30" x="100"/>
       <use xlink:href="#SimHei-30" x="150"/>
       <use xlink:href="#SimHei-30" x="200"/>
      </g>
     </g>
    </g>
    <g id="ytick_12">
     <g id="line2d_21">
      <g>
       <use xlink:href="#m04d86dccbe" x="648" y="140.703042" style="stroke: #000000; stroke-width: 0.8"/>
      </g>
     </g>
     <g id="text_22">
      <!-- 60000 -->
      <g style="fill: #008000" transform="translate(655 144.140542) scale(0.1 -0.1)">
       <defs>
        <path id="SimHei-36" d="M 250 1612 
Q 275 1975 387 2225 
Q 500 2475 725 2850 
L 1750 4450 
L 2325 4450 
L 1275 2800 
Q 1950 2975 2350 2750 
Q 2750 2525 2887 2237 
Q 3025 1950 3037 1612 
Q 3050 1275 2937 950 
Q 2825 625 2537 362 
Q 2250 100 1737 75 
Q 1225 50 862 262 
Q 500 475 362 862 
Q 225 1250 250 1612 
z
M 1025 787 
Q 1250 550 1625 525 
Q 2000 500 2250 775 
Q 2500 1050 2500 1575 
Q 2500 2100 2187 2300 
Q 1875 2500 1487 2450 
Q 1100 2400 925 2075 
Q 750 1750 775 1387 
Q 800 1025 1025 787 
z
" transform="scale(0.015625)"/>
       </defs>
       <use xlink:href="#SimHei-36"/>
       <use xlink:href="#SimHei-30" x="50"/>
       <use xlink:href="#SimHei-30" x="100"/>
       <use xlink:href="#SimHei-30" x="150"/>
       <use xlink:href="#SimHei-30" x="200"/>
      </g>
     </g>
    </g>
    <g id="ytick_13">
     <g id="line2d_22">
      <g>
       <use xlink:href="#m04d86dccbe" x="648" y="101.444882" style="stroke: #000000; stroke-width: 0.8"/>
      </g>
     </g>
     <g id="text_23">
      <!-- 70000 -->
      <g style="fill: #008000" transform="translate(655 104.882382) scale(0.1 -0.1)">
       <use xlink:href="#SimHei-37"/>
       <use xlink:href="#SimHei-30" x="50"/>
       <use xlink:href="#SimHei-30" x="100"/>
       <use xlink:href="#SimHei-30" x="150"/>
       <use xlink:href="#SimHei-30" x="200"/>
      </g>
     </g>
    </g>
    <g id="ytick_14">
     <g id="line2d_23">
      <g>
       <use xlink:href="#m04d86dccbe" x="648" y="62.186723" style="stroke: #000000; stroke-width: 0.8"/>
      </g>
     </g>
     <g id="text_24">
      <!-- 80000 -->
      <g style="fill: #008000" transform="translate(655 65.624223) scale(0.1 -0.1)">
       <defs>
        <path id="SimHei-38" d="M 175 1375 
Q 175 1675 325 1962 
Q 475 2250 825 2425 
Q 525 2600 425 2812 
Q 325 3025 312 3300 
Q 300 3575 387 3775 
Q 475 3975 650 4150 
Q 825 4325 1037 4387 
Q 1250 4450 1500 4450 
Q 1750 4450 1950 4400 
Q 2150 4350 2375 4187 
Q 2600 4025 2700 3725 
Q 2800 3425 2687 3025 
Q 2575 2625 2100 2400 
Q 2525 2275 2700 2012 
Q 2875 1750 2875 1375 
Q 2875 1000 2762 775 
Q 2650 550 2512 400 
Q 2375 250 2137 162 
Q 1900 75 1537 75 
Q 1175 75 912 162 
Q 650 250 475 425 
Q 300 600 237 837 
Q 175 1075 175 1375 
z
M 687 1400 
Q 675 1100 787 875 
Q 900 650 1200 587 
Q 1500 525 1825 600 
Q 2150 675 2275 950 
Q 2400 1225 2362 1500 
Q 2325 1775 2050 1962 
Q 1775 2150 1450 2125 
Q 1125 2100 912 1900 
Q 700 1700 687 1400 
z
M 775 3350 
Q 775 3100 950 2875 
Q 1125 2650 1500 2650 
Q 1875 2650 2062 2875 
Q 2250 3100 2237 3412 
Q 2225 3725 2012 3875 
Q 1800 4025 1437 4000 
Q 1075 3975 925 3787 
Q 775 3600 775 3350 
z
" transform="scale(0.015625)"/>
       </defs>
       <use xlink:href="#SimHei-38"/>
       <use xlink:href="#SimHei-30" x="50"/>
       <use xlink:href="#SimHei-30" x="100"/>
       <use xlink:href="#SimHei-30" x="150"/>
       <use xlink:href="#SimHei-30" x="200"/>
      </g>
     </g>
    </g>
    <g id="text_25">
     <!-- 收益 -->
     <g style="fill: #008000" transform="translate(691.929688 228.16) rotate(-90) scale(0.1 -0.1)">
      <defs>
       <path id="SimHei-6536" d="M 4250 5050 
Q 4125 4850 3750 4050 
L 5150 4050 
Q 5675 4050 6125 4075 
L 6125 3600 
Q 5675 3625 5300 3625 
Q 5225 2625 5025 1975 
Q 4825 1325 4575 900 
Q 4900 500 5287 275 
Q 5675 50 6200 -75 
Q 5900 -275 5800 -550 
Q 5300 -350 4950 -100 
Q 4600 150 4275 525 
Q 3800 0 2775 -625 
Q 2650 -425 2300 -225 
Q 3275 150 3950 925 
Q 3775 1325 3612 1787 
Q 3450 2250 3250 3000 
Q 2975 2450 2825 2275 
Q 2650 2400 2425 2525 
Q 2775 3025 3137 3837 
Q 3500 4650 3625 5250 
Q 3925 5125 4250 5050 
z
M 975 4275 
Q 925 3950 925 3450 
L 925 1575 
L 1775 1725 
L 1775 4425 
Q 1775 4775 1750 5150 
L 2250 5150 
Q 2225 4850 2225 4450 
L 2225 300 
Q 2225 -50 2250 -550 
L 1750 -550 
Q 1775 -25 1775 350 
L 1775 1350 
Q 625 1050 500 925 
Q 375 1125 225 1350 
Q 450 1475 450 1800 
L 450 3575 
Q 450 3925 425 4275 
L 975 4275 
z
M 3725 3150 
Q 3800 2700 3962 2212 
Q 4125 1725 4300 1375 
Q 4725 2150 4825 3625 
L 3575 3625 
Q 3400 3275 3300 3100 
L 3725 3150 
z
" transform="scale(0.015625)"/>
       <path id="SimHei-76ca" d="M 2825 2925 
Q 2425 2775 2012 2487 
Q 1600 2200 1225 1975 
L 5275 1975 
Q 5250 1575 5250 1000 
L 5250 -50 
Q 5800 -50 6175 -25 
L 6175 -525 
Q 5725 -500 5250 -500 
L 1325 -500 
Q 700 -500 250 -525 
L 250 -25 
Q 600 -50 1175 -50 
L 1175 1050 
Q 1175 1575 1150 1925 
Q 1000 1800 800 1700 
Q 650 1950 425 2125 
Q 800 2275 1312 2600 
Q 1825 2925 2325 3400 
Q 2550 3150 2825 2925 
z
M 4725 5050 
Q 4575 4900 4462 4637 
Q 4350 4375 4175 4075 
L 4625 4075 
Q 5350 4075 5900 4100 
L 5900 3625 
Q 5350 3650 4625 3650 
L 1975 3650 
Q 1350 3650 550 3625 
L 550 4100 
Q 1175 4075 1975 4075 
L 3675 4075 
Q 3775 4300 3887 4625 
Q 4000 4950 4125 5250 
L 4725 5050 
z
M 3600 -50 
L 3600 1575 
L 2800 1575 
L 2800 -50 
L 3600 -50 
z
M 4800 -50 
L 4800 1575 
L 4025 1575 
L 4025 -50 
L 4800 -50 
z
M 2375 -50 
L 2375 1575 
L 1625 1575 
L 1625 -50 
L 2375 -50 
z
M 3900 3350 
Q 4375 3150 4900 2925 
Q 5425 2700 5900 2500 
Q 5700 2300 5550 2000 
Q 5025 2300 4512 2537 
Q 4000 2775 3625 2900 
Q 3750 3075 3900 3350 
z
M 2150 5250 
Q 2375 4925 2650 4350 
Q 2425 4275 2150 4125 
Q 1950 4650 1675 5025 
Q 1875 5100 2150 5250 
z
" transform="scale(0.015625)"/>
      </defs>
      <use xlink:href="#SimHei-6536"/>
      <use xlink:href="#SimHei-76ca" x="100"/>
     </g>
    </g>
   </g>
   <g id="line2d_24">
    <path d="M 115.363636 327.445074 
L 118.245868 250.837444 
L 121.128099 320.561642 
L 126.892562 362.329411 
L 132.657025 334.484231 
L 135.539256 333.72872 
L 138.421488 185.669201 
L 141.303719 341.519255 
L 144.18595 348.465806 
L 149.950413 306.786519 
L 152.832645 348.459122 
L 155.714876 313.71301 
L 158.597107 230.298864 
L 161.479339 348.459916 
L 164.36157 369.304872 
L 167.243802 285.937678 
L 170.126033 334.559342 
L 173.008264 355.405671 
L 175.890496 320.661789 
L 178.772727 369.303224 
L 181.654959 299.81546 
L 184.53719 334.559342 
L 187.419421 230.392668 
L 190.301653 348.508874 
L 193.183884 369.316219 
L 196.066116 175.114347 
L 198.948347 362.380439 
L 201.830579 195.921705 
L 204.71281 286.086853 
L 207.595041 307.143222 
L 210.477273 272.339109 
L 213.359504 334.824087 
L 216.241736 293.396174 
L 219.123967 265.788111 
L 222.006198 224.630238 
L 224.88843 266.023479 
L 227.770661 203.617057 
L 230.652893 286.036012 
L 233.535124 286.036049 
L 236.417355 334.613869 
L 239.299587 66.96 
L 242.181818 293.831163 
L 245.06405 307.494389 
L 247.946281 307.445336 
L 250.828512 141.923981 
L 253.710744 362.467999 
L 256.592975 341.791998 
L 259.475207 369.36 
L 262.357438 355.575999 
L 271.004132 328.007996 
L 282.533058 369.36 
L 285.415289 362.467999 
L 291.179752 328.008041 
L 294.061983 307.332142 
L 296.944215 355.576043 
L 299.826446 314.224128 
L 302.708678 307.332142 
L 305.590909 272.753147 
L 308.47314 369.352077 
L 311.355372 272.753147 
L 317.119835 327.952536 
L 320.002066 362.452158 
L 325.766529 293.867361 
L 328.64876 300.802443 
L 331.530992 321.377233 
L 334.413223 362.533309 
L 340.177686 362.531114 
L 343.059917 355.670671 
L 345.942149 341.943748 
L 351.706612 307.647569 
L 354.588843 362.531114 
L 357.471074 335.089342 
L 360.353306 355.429033 
L 363.235537 341.547055 
L 366.117769 279.078152 
L 369 348.600756 
L 371.882231 369.339189 
L 374.764463 258.73421 
L 383.411157 348.600756 
L 386.293388 327.862322 
L 392.057851 334.780751 
L 394.940083 369.339117 
L 400.704545 348.600465 
L 403.586777 348.600465 
L 406.469008 369.281704 
L 409.35124 341.29412 
L 412.233471 341.336678 
L 420.880165 334.384054 
L 423.762397 348.3183 
L 426.644628 355.309876 
L 435.291322 369.260424 
L 438.173554 334.301815 
L 443.938017 341.297682 
L 449.702479 369.260303 
L 455.466942 362.270706 
L 458.349174 355.241538 
L 461.231405 320.347868 
L 464.113636 341.31511 
L 466.995868 334.323901 
L 469.878099 362.282352 
L 472.760331 348.315382 
L 475.642562 362.28503 
L 481.407025 369.273027 
L 484.289256 369.267177 
L 487.171488 355.303379 
L 490.053719 369.281103 
L 501.582645 369.273027 
L 510.229339 327.449679 
L 513.11157 348.336107 
L 515.993802 362.30848 
L 518.876033 313.676118 
L 524.640496 355.415742 
L 527.522727 369.301243 
L 530.404959 362.361162 
L 533.28719 369.306581 
L 536.169421 362.363324 
L 539.051653 320.684456 
L 541.933884 348.448918 
L 544.816116 348.474648 
L 547.698347 340.649168 
L 550.580579 340.72419 
L 553.46281 348.069824 
L 556.345041 340.776953 
L 562.109504 283.936006 
L 564.991736 354.946754 
L 567.873967 347.821241 
L 576.520661 369.136773 
L 588.049587 305.235403 
L 590.931818 340.736164 
L 593.81405 362.051696 
L 596.696281 290.480145 
L 599.578512 304.570527 
L 602.460744 333.202131 
L 605.342975 354.68608 
L 608.225207 369.071997 
L 611.107438 347.451115 
L 613.989669 369.051779 
L 616.871901 369.051779 
L 619.754132 304.249788 
L 622.636364 347.531987 
L 622.636364 347.531987 
" clip-path="url(#p95c0bba8dc)" style="fill: none; stroke: #008000; stroke-width: 1.5; stroke-linecap: square"/>
    <defs>
     <path id="m5dbf7d13c4" d="M 0 3 
C 0.795609 3 1.55874 2.683901 2.12132 2.12132 
C 2.683901 1.55874 3 0.795609 3 0 
C 3 -0.795609 2.683901 -1.55874 2.12132 -2.12132 
C 1.55874 -2.683901 0.795609 -3 0 -3 
C -0.795609 -3 -1.55874 -2.683901 -2.12132 -2.12132 
C -2.683901 -1.55874 -3 -0.795609 -3 0 
C -3 0.795609 -2.683901 1.55874 -2.12132 2.12132 
C -1.55874 2.683901 -0.795609 3 0 3 
z
" style="stroke: #008000"/>
    </defs>
    <g clip-path="url(#p95c0bba8dc)">
     <use xlink:href="#m5dbf7d13c4" x="115.363636" y="327.445074" style="fill: #008000; stroke: #008000"/>
     <use xlink:href="#m5dbf7d13c4" x="118.245868" y="250.837444" style="fill: #008000; stroke: #008000"/>
     <use xlink:href="#m5dbf7d13c4" x="121.128099" y="320.561642" style="fill: #008000; stroke: #008000"/>
     <use xlink:href="#m5dbf7d13c4" x="126.892562" y="362.329411" style="fill: #008000; stroke: #008000"/>
     <use xlink:href="#m5dbf7d13c4" x="132.657025" y="334.484231" style="fill: #008000; stroke: #008000"/>
     <use xlink:href="#m5dbf7d13c4" x="135.539256" y="333.72872" style="fill: #008000; stroke: #008000"/>
     <use xlink:href="#m5dbf7d13c4" x="138.421488" y="185.669201" style="fill: #008000; stroke: #008000"/>
     <use xlink:href="#m5dbf7d13c4" x="141.303719" y="341.519255" style="fill: #008000; stroke: #008000"/>
     <use xlink:href="#m5dbf7d13c4" x="144.18595" y="348.465806" style="fill: #008000; stroke: #008000"/>
     <use xlink:href="#m5dbf7d13c4" x="147.068182" y="327.496758" style="fill: #008000; stroke: #008000"/>
     <use xlink:href="#m5dbf7d13c4" x="149.950413" y="306.786519" style="fill: #008000; stroke: #008000"/>
     <use xlink:href="#m5dbf7d13c4" x="152.832645" y="348.459122" style="fill: #008000; stroke: #008000"/>
     <use xlink:href="#m5dbf7d13c4" x="155.714876" y="313.71301" style="fill: #008000; stroke: #008000"/>
     <use xlink:href="#m5dbf7d13c4" x="158.597107" y="230.298864" style="fill: #008000; stroke: #008000"/>
     <use xlink:href="#m5dbf7d13c4" x="161.479339" y="348.459916" style="fill: #008000; stroke: #008000"/>
     <use xlink:href="#m5dbf7d13c4" x="164.36157" y="369.304872" style="fill: #008000; stroke: #008000"/>
     <use xlink:href="#m5dbf7d13c4" x="167.243802" y="285.937678" style="fill: #008000; stroke: #008000"/>
     <use xlink:href="#m5dbf7d13c4" x="170.126033" y="334.559342" style="fill: #008000; stroke: #008000"/>
     <use xlink:href="#m5dbf7d13c4" x="173.008264" y="355.405671" style="fill: #008000; stroke: #008000"/>
     <use xlink:href="#m5dbf7d13c4" x="175.890496" y="320.661789" style="fill: #008000; stroke: #008000"/>
     <use xlink:href="#m5dbf7d13c4" x="178.772727" y="369.303224" style="fill: #008000; stroke: #008000"/>
     <use xlink:href="#m5dbf7d13c4" x="181.654959" y="299.81546" style="fill: #008000; stroke: #008000"/>
     <use xlink:href="#m5dbf7d13c4" x="184.53719" y="334.559342" style="fill: #008000; stroke: #008000"/>
     <use xlink:href="#m5dbf7d13c4" x="187.419421" y="230.392668" style="fill: #008000; stroke: #008000"/>
     <use xlink:href="#m5dbf7d13c4" x="190.301653" y="348.508874" style="fill: #008000; stroke: #008000"/>
     <use xlink:href="#m5dbf7d13c4" x="193.183884" y="369.316219" style="fill: #008000; stroke: #008000"/>
     <use xlink:href="#m5dbf7d13c4" x="196.066116" y="175.114347" style="fill: #008000; stroke: #008000"/>
     <use xlink:href="#m5dbf7d13c4" x="198.948347" y="362.380439" style="fill: #008000; stroke: #008000"/>
     <use xlink:href="#m5dbf7d13c4" x="201.830579" y="195.921705" style="fill: #008000; stroke: #008000"/>
     <use xlink:href="#m5dbf7d13c4" x="204.71281" y="286.086853" style="fill: #008000; stroke: #008000"/>
     <use xlink:href="#m5dbf7d13c4" x="207.595041" y="307.143222" style="fill: #008000; stroke: #008000"/>
     <use xlink:href="#m5dbf7d13c4" x="210.477273" y="272.339109" style="fill: #008000; stroke: #008000"/>
     <use xlink:href="#m5dbf7d13c4" x="213.359504" y="334.824087" style="fill: #008000; stroke: #008000"/>
     <use xlink:href="#m5dbf7d13c4" x="216.241736" y="293.396174" style="fill: #008000; stroke: #008000"/>
     <use xlink:href="#m5dbf7d13c4" x="219.123967" y="265.788111" style="fill: #008000; stroke: #008000"/>
     <use xlink:href="#m5dbf7d13c4" x="222.006198" y="224.630238" style="fill: #008000; stroke: #008000"/>
     <use xlink:href="#m5dbf7d13c4" x="224.88843" y="266.023479" style="fill: #008000; stroke: #008000"/>
     <use xlink:href="#m5dbf7d13c4" x="227.770661" y="203.617057" style="fill: #008000; stroke: #008000"/>
     <use xlink:href="#m5dbf7d13c4" x="230.652893" y="286.036012" style="fill: #008000; stroke: #008000"/>
     <use xlink:href="#m5dbf7d13c4" x="233.535124" y="286.036049" style="fill: #008000; stroke: #008000"/>
     <use xlink:href="#m5dbf7d13c4" x="236.417355" y="334.613869" style="fill: #008000; stroke: #008000"/>
     <use xlink:href="#m5dbf7d13c4" x="239.299587" y="66.96" style="fill: #008000; stroke: #008000"/>
     <use xlink:href="#m5dbf7d13c4" x="242.181818" y="293.831163" style="fill: #008000; stroke: #008000"/>
     <use xlink:href="#m5dbf7d13c4" x="245.06405" y="307.494389" style="fill: #008000; stroke: #008000"/>
     <use xlink:href="#m5dbf7d13c4" x="247.946281" y="307.445336" style="fill: #008000; stroke: #008000"/>
     <use xlink:href="#m5dbf7d13c4" x="250.828512" y="141.923981" style="fill: #008000; stroke: #008000"/>
     <use xlink:href="#m5dbf7d13c4" x="253.710744" y="362.467999" style="fill: #008000; stroke: #008000"/>
     <use xlink:href="#m5dbf7d13c4" x="256.592975" y="341.791998" style="fill: #008000; stroke: #008000"/>
     <use xlink:href="#m5dbf7d13c4" x="259.475207" y="369.36" style="fill: #008000; stroke: #008000"/>
     <use xlink:href="#m5dbf7d13c4" x="262.357438" y="355.575999" style="fill: #008000; stroke: #008000"/>
     <use xlink:href="#m5dbf7d13c4" x="271.004132" y="328.007996" style="fill: #008000; stroke: #008000"/>
     <use xlink:href="#m5dbf7d13c4" x="282.533058" y="369.36" style="fill: #008000; stroke: #008000"/>
     <use xlink:href="#m5dbf7d13c4" x="285.415289" y="362.467999" style="fill: #008000; stroke: #008000"/>
     <use xlink:href="#m5dbf7d13c4" x="291.179752" y="328.008041" style="fill: #008000; stroke: #008000"/>
     <use xlink:href="#m5dbf7d13c4" x="294.061983" y="307.332142" style="fill: #008000; stroke: #008000"/>
     <use xlink:href="#m5dbf7d13c4" x="296.944215" y="355.576043" style="fill: #008000; stroke: #008000"/>
     <use xlink:href="#m5dbf7d13c4" x="299.826446" y="314.224128" style="fill: #008000; stroke: #008000"/>
     <use xlink:href="#m5dbf7d13c4" x="302.708678" y="307.332142" style="fill: #008000; stroke: #008000"/>
     <use xlink:href="#m5dbf7d13c4" x="305.590909" y="272.753147" style="fill: #008000; stroke: #008000"/>
     <use xlink:href="#m5dbf7d13c4" x="308.47314" y="369.352077" style="fill: #008000; stroke: #008000"/>
     <use xlink:href="#m5dbf7d13c4" x="311.355372" y="272.753147" style="fill: #008000; stroke: #008000"/>
     <use xlink:href="#m5dbf7d13c4" x="317.119835" y="327.952536" style="fill: #008000; stroke: #008000"/>
     <use xlink:href="#m5dbf7d13c4" x="320.002066" y="362.452158" style="fill: #008000; stroke: #008000"/>
     <use xlink:href="#m5dbf7d13c4" x="325.766529" y="293.867361" style="fill: #008000; stroke: #008000"/>
     <use xlink:href="#m5dbf7d13c4" x="328.64876" y="300.802443" style="fill: #008000; stroke: #008000"/>
     <use xlink:href="#m5dbf7d13c4" x="331.530992" y="321.377233" style="fill: #008000; stroke: #008000"/>
     <use xlink:href="#m5dbf7d13c4" x="334.413223" y="362.533309" style="fill: #008000; stroke: #008000"/>
     <use xlink:href="#m5dbf7d13c4" x="340.177686" y="362.531114" style="fill: #008000; stroke: #008000"/>
     <use xlink:href="#m5dbf7d13c4" x="343.059917" y="355.670671" style="fill: #008000; stroke: #008000"/>
     <use xlink:href="#m5dbf7d13c4" x="345.942149" y="341.943748" style="fill: #008000; stroke: #008000"/>
     <use xlink:href="#m5dbf7d13c4" x="351.706612" y="307.647569" style="fill: #008000; stroke: #008000"/>
     <use xlink:href="#m5dbf7d13c4" x="354.588843" y="362.531114" style="fill: #008000; stroke: #008000"/>
     <use xlink:href="#m5dbf7d13c4" x="357.471074" y="335.089342" style="fill: #008000; stroke: #008000"/>
     <use xlink:href="#m5dbf7d13c4" x="360.353306" y="355.429033" style="fill: #008000; stroke: #008000"/>
     <use xlink:href="#m5dbf7d13c4" x="363.235537" y="341.547055" style="fill: #008000; stroke: #008000"/>
     <use xlink:href="#m5dbf7d13c4" x="366.117769" y="279.078152" style="fill: #008000; stroke: #008000"/>
     <use xlink:href="#m5dbf7d13c4" x="369" y="348.600756" style="fill: #008000; stroke: #008000"/>
     <use xlink:href="#m5dbf7d13c4" x="371.882231" y="369.339189" style="fill: #008000; stroke: #008000"/>
     <use xlink:href="#m5dbf7d13c4" x="374.764463" y="258.73421" style="fill: #008000; stroke: #008000"/>
     <use xlink:href="#m5dbf7d13c4" x="383.411157" y="348.600756" style="fill: #008000; stroke: #008000"/>
     <use xlink:href="#m5dbf7d13c4" x="386.293388" y="327.862322" style="fill: #008000; stroke: #008000"/>
     <use xlink:href="#m5dbf7d13c4" x="392.057851" y="334.780751" style="fill: #008000; stroke: #008000"/>
     <use xlink:href="#m5dbf7d13c4" x="394.940083" y="369.339117" style="fill: #008000; stroke: #008000"/>
     <use xlink:href="#m5dbf7d13c4" x="400.704545" y="348.600465" style="fill: #008000; stroke: #008000"/>
     <use xlink:href="#m5dbf7d13c4" x="403.586777" y="348.600465" style="fill: #008000; stroke: #008000"/>
     <use xlink:href="#m5dbf7d13c4" x="406.469008" y="369.281704" style="fill: #008000; stroke: #008000"/>
     <use xlink:href="#m5dbf7d13c4" x="409.35124" y="341.29412" style="fill: #008000; stroke: #008000"/>
     <use xlink:href="#m5dbf7d13c4" x="412.233471" y="341.336678" style="fill: #008000; stroke: #008000"/>
     <use xlink:href="#m5dbf7d13c4" x="420.880165" y="334.384054" style="fill: #008000; stroke: #008000"/>
     <use xlink:href="#m5dbf7d13c4" x="423.762397" y="348.3183" style="fill: #008000; stroke: #008000"/>
     <use xlink:href="#m5dbf7d13c4" x="426.644628" y="355.309876" style="fill: #008000; stroke: #008000"/>
     <use xlink:href="#m5dbf7d13c4" x="435.291322" y="369.260424" style="fill: #008000; stroke: #008000"/>
     <use xlink:href="#m5dbf7d13c4" x="438.173554" y="334.301815" style="fill: #008000; stroke: #008000"/>
     <use xlink:href="#m5dbf7d13c4" x="443.938017" y="341.297682" style="fill: #008000; stroke: #008000"/>
     <use xlink:href="#m5dbf7d13c4" x="449.702479" y="369.260303" style="fill: #008000; stroke: #008000"/>
     <use xlink:href="#m5dbf7d13c4" x="455.466942" y="362.270706" style="fill: #008000; stroke: #008000"/>
     <use xlink:href="#m5dbf7d13c4" x="458.349174" y="355.241538" style="fill: #008000; stroke: #008000"/>
     <use xlink:href="#m5dbf7d13c4" x="461.231405" y="320.347868" style="fill: #008000; stroke: #008000"/>
     <use xlink:href="#m5dbf7d13c4" x="464.113636" y="341.31511" style="fill: #008000; stroke: #008000"/>
     <use xlink:href="#m5dbf7d13c4" x="466.995868" y="334.323901" style="fill: #008000; stroke: #008000"/>
     <use xlink:href="#m5dbf7d13c4" x="469.878099" y="362.282352" style="fill: #008000; stroke: #008000"/>
     <use xlink:href="#m5dbf7d13c4" x="472.760331" y="348.315382" style="fill: #008000; stroke: #008000"/>
     <use xlink:href="#m5dbf7d13c4" x="475.642562" y="362.28503" style="fill: #008000; stroke: #008000"/>
     <use xlink:href="#m5dbf7d13c4" x="481.407025" y="369.273027" style="fill: #008000; stroke: #008000"/>
     <use xlink:href="#m5dbf7d13c4" x="484.289256" y="369.267177" style="fill: #008000; stroke: #008000"/>
     <use xlink:href="#m5dbf7d13c4" x="487.171488" y="355.303379" style="fill: #008000; stroke: #008000"/>
     <use xlink:href="#m5dbf7d13c4" x="490.053719" y="369.281103" style="fill: #008000; stroke: #008000"/>
     <use xlink:href="#m5dbf7d13c4" x="501.582645" y="369.273027" style="fill: #008000; stroke: #008000"/>
     <use xlink:href="#m5dbf7d13c4" x="510.229339" y="327.449679" style="fill: #008000; stroke: #008000"/>
     <use xlink:href="#m5dbf7d13c4" x="513.11157" y="348.336107" style="fill: #008000; stroke: #008000"/>
     <use xlink:href="#m5dbf7d13c4" x="515.993802" y="362.30848" style="fill: #008000; stroke: #008000"/>
     <use xlink:href="#m5dbf7d13c4" x="518.876033" y="313.676118" style="fill: #008000; stroke: #008000"/>
     <use xlink:href="#m5dbf7d13c4" x="524.640496" y="355.415742" style="fill: #008000; stroke: #008000"/>
     <use xlink:href="#m5dbf7d13c4" x="527.522727" y="369.301243" style="fill: #008000; stroke: #008000"/>
     <use xlink:href="#m5dbf7d13c4" x="530.404959" y="362.361162" style="fill: #008000; stroke: #008000"/>
     <use xlink:href="#m5dbf7d13c4" x="533.28719" y="369.306581" style="fill: #008000; stroke: #008000"/>
     <use xlink:href="#m5dbf7d13c4" x="536.169421" y="362.363324" style="fill: #008000; stroke: #008000"/>
     <use xlink:href="#m5dbf7d13c4" x="539.051653" y="320.684456" style="fill: #008000; stroke: #008000"/>
     <use xlink:href="#m5dbf7d13c4" x="541.933884" y="348.448918" style="fill: #008000; stroke: #008000"/>
     <use xlink:href="#m5dbf7d13c4" x="544.816116" y="348.474648" style="fill: #008000; stroke: #008000"/>
     <use xlink:href="#m5dbf7d13c4" x="547.698347" y="340.649168" style="fill: #008000; stroke: #008000"/>
     <use xlink:href="#m5dbf7d13c4" x="550.580579" y="340.72419" style="fill: #008000; stroke: #008000"/>
     <use xlink:href="#m5dbf7d13c4" x="553.46281" y="348.069824" style="fill: #008000; stroke: #008000"/>
     <use xlink:href="#m5dbf7d13c4" x="556.345041" y="340.776953" style="fill: #008000; stroke: #008000"/>
     <use xlink:href="#m5dbf7d13c4" x="562.109504" y="283.936006" style="fill: #008000; stroke: #008000"/>
     <use xlink:href="#m5dbf7d13c4" x="564.991736" y="354.946754" style="fill: #008000; stroke: #008000"/>
     <use xlink:href="#m5dbf7d13c4" x="567.873967" y="347.821241" style="fill: #008000; stroke: #008000"/>
     <use xlink:href="#m5dbf7d13c4" x="576.520661" y="369.136773" style="fill: #008000; stroke: #008000"/>
     <use xlink:href="#m5dbf7d13c4" x="588.049587" y="305.235403" style="fill: #008000; stroke: #008000"/>
     <use xlink:href="#m5dbf7d13c4" x="590.931818" y="340.736164" style="fill: #008000; stroke: #008000"/>
     <use xlink:href="#m5dbf7d13c4" x="593.81405" y="362.051696" style="fill: #008000; stroke: #008000"/>
     <use xlink:href="#m5dbf7d13c4" x="596.696281" y="290.480145" style="fill: #008000; stroke: #008000"/>
     <use xlink:href="#m5dbf7d13c4" x="599.578512" y="304.570527" style="fill: #008000; stroke: #008000"/>
     <use xlink:href="#m5dbf7d13c4" x="602.460744" y="333.202131" style="fill: #008000; stroke: #008000"/>
     <use xlink:href="#m5dbf7d13c4" x="605.342975" y="354.68608" style="fill: #008000; stroke: #008000"/>
     <use xlink:href="#m5dbf7d13c4" x="608.225207" y="369.071997" style="fill: #008000; stroke: #008000"/>
     <use xlink:href="#m5dbf7d13c4" x="611.107438" y="347.451115" style="fill: #008000; stroke: #008000"/>
     <use xlink:href="#m5dbf7d13c4" x="613.989669" y="369.051779" style="fill: #008000; stroke: #008000"/>
     <use xlink:href="#m5dbf7d13c4" x="616.871901" y="369.051779" style="fill: #008000; stroke: #008000"/>
     <use xlink:href="#m5dbf7d13c4" x="619.754132" y="304.249788" style="fill: #008000; stroke: #008000"/>
     <use xlink:href="#m5dbf7d13c4" x="622.636364" y="347.531987" style="fill: #008000; stroke: #008000"/>
    </g>
   </g>
   <g id="patch_7">
    <path d="M 90 384.48 
L 90 51.84 
" style="fill: none; stroke: #000000; stroke-width: 0.8; stroke-linejoin: miter; stroke-linecap: square"/>
   </g>
   <g id="patch_8">
    <path d="M 648 384.48 
L 648 51.84 
" style="fill: none; stroke: #000000; stroke-width: 0.8; stroke-linejoin: miter; stroke-linecap: square"/>
   </g>
   <g id="patch_9">
    <path d="M 90 384.48 
L 648 384.48 
" style="fill: none; stroke: #000000; stroke-width: 0.8; stroke-linejoin: miter; stroke-linecap: square"/>
   </g>
   <g id="patch_10">
    <path d="M 90 51.84 
L 648 51.84 
" style="fill: none; stroke: #000000; stroke-width: 0.8; stroke-linejoin: miter; stroke-linecap: square"/>
   </g>
  </g>
  <g id="axes_3">
   <g id="matplotlib.axis_4">
    <g id="ytick_15">
     <g id="line2d_25">
      <g>
       <use xlink:href="#m04d86dccbe" x="708" y="324.70034" style="stroke: #000000; stroke-width: 0.8"/>
      </g>
     </g>
     <g id="text_26">
      <!-- 1760 -->
      <g style="fill: #ff0000" transform="translate(715 328.13784) scale(0.1 -0.1)">
       <use xlink:href="#SimHei-31"/>
       <use xlink:href="#SimHei-37" x="50"/>
       <use xlink:href="#SimHei-36" x="100"/>
       <use xlink:href="#SimHei-30" x="150"/>
      </g>
     </g>
    </g>
    <g id="ytick_16">
     <g id="line2d_26">
      <g>
       <use xlink:href="#m04d86dccbe" x="708" y="255.10662" style="stroke: #000000; stroke-width: 0.8"/>
      </g>
     </g>
     <g id="text_27">
      <!-- 1780 -->
      <g style="fill: #ff0000" transform="translate(715 258.54412) scale(0.1 -0.1)">
       <use xlink:href="#SimHei-31"/>
       <use xlink:href="#SimHei-37" x="50"/>
       <use xlink:href="#SimHei-38" x="100"/>
       <use xlink:href="#SimHei-30" x="150"/>
      </g>
     </g>
    </g>
    <g id="ytick_17">
     <g id="line2d_27">
      <g>
       <use xlink:href="#m04d86dccbe" x="708" y="185.512901" style="stroke: #000000; stroke-width: 0.8"/>
      </g>
     </g>
     <g id="text_28">
      <!-- 1800 -->
      <g style="fill: #ff0000" transform="translate(715 188.950401) scale(0.1 -0.1)">
       <use xlink:href="#SimHei-31"/>
       <use xlink:href="#SimHei-38" x="50"/>
       <use xlink:href="#SimHei-30" x="100"/>
       <use xlink:href="#SimHei-30" x="150"/>
      </g>
     </g>
    </g>
    <g id="ytick_18">
     <g id="line2d_28">
      <g>
       <use xlink:href="#m04d86dccbe" x="708" y="115.919182" style="stroke: #000000; stroke-width: 0.8"/>
      </g>
     </g>
     <g id="text_29">
      <!-- 1820 -->
      <g style="fill: #ff0000" transform="translate(715 119.356682) scale(0.1 -0.1)">
       <use xlink:href="#SimHei-31"/>
       <use xlink:href="#SimHei-38" x="50"/>
       <use xlink:href="#SimHei-32" x="100"/>
       <use xlink:href="#SimHei-30" x="150"/>
      </g>
     </g>
    </g>
    <g id="text_30">
     <!-- 平均单价 -->
     <g style="fill: #ff0000" transform="translate(747.007812 238.16) rotate(-90) scale(0.1 -0.1)">
      <defs>
       <path id="SimHei-5e73" d="M 4525 4825 
Q 4900 4825 5450 4850 
L 5450 4375 
Q 4925 4400 4525 4400 
L 3475 4400 
L 3475 2025 
L 5000 2025 
Q 5550 2025 6025 2050 
L 6025 1575 
Q 5550 1600 5000 1600 
L 3475 1600 
L 3475 450 
Q 3475 -100 3500 -600 
L 2925 -600 
Q 2950 -100 2950 450 
L 2950 1600 
L 1125 1600 
Q 775 1600 375 1575 
L 375 2050 
Q 775 2025 1175 2025 
L 2950 2025 
L 2950 4400 
L 1775 4400 
Q 1400 4400 875 4375 
L 875 4850 
Q 1400 4825 1750 4825 
L 4525 4825 
z
M 3925 2600 
Q 4500 3300 4900 4125 
Q 5150 3950 5400 3825 
Q 4775 2850 4350 2300 
Q 4150 2475 3925 2600 
z
M 1975 2350 
Q 1600 3100 1050 3725 
Q 1250 3875 1450 4050 
Q 2075 3300 2450 2725 
Q 2150 2500 1975 2350 
z
" transform="scale(0.015625)"/>
       <path id="SimHei-5747" d="M 5775 275 
Q 5775 -325 5362 -450 
Q 4950 -575 4425 -600 
Q 4375 -275 4250 25 
Q 4950 -25 5125 62 
Q 5300 150 5300 500 
L 5375 3700 
L 3550 3700 
Q 3425 3375 3262 3037 
Q 3100 2700 2925 2400 
Q 2675 2550 2475 2625 
Q 3150 3625 3500 5200 
Q 3800 5100 4075 5025 
Q 3975 4875 3875 4650 
Q 3775 4425 3675 4125 
L 5900 4125 
L 5775 275 
z
M 1250 3625 
L 1250 4375 
Q 1250 4775 1225 5100 
L 1775 5100 
Q 1750 4725 1750 4375 
L 1750 3625 
L 1900 3625 
Q 2200 3625 2525 3650 
L 2525 3150 
Q 2200 3175 1900 3175 
L 1750 3175 
L 1750 1100 
L 2500 1375 
Q 2475 1125 2525 900 
Q 1225 475 962 362 
Q 700 250 475 150 
Q 375 475 250 750 
Q 575 800 800 850 
Q 1025 900 1250 975 
L 1250 3175 
L 1125 3175 
Q 850 3175 400 3150 
L 400 3650 
Q 850 3625 1100 3625 
L 1250 3625 
z
M 4950 1625 
Q 4675 1425 4137 1050 
Q 3600 675 3175 300 
Q 3000 575 2850 775 
Q 3350 1050 3762 1325 
Q 4175 1600 4775 2075 
Q 4825 1850 4950 1625 
z
M 3775 3150 
Q 4125 2800 4475 2300 
Q 4250 2125 4100 1975 
Q 3900 2325 3450 2825 
Q 3600 3000 3775 3150 
z
" transform="scale(0.015625)"/>
       <path id="SimHei-5355" d="M 5275 4075 
L 5275 1525 
L 3400 1525 
L 3400 925 
L 5050 925 
Q 5600 925 6000 950 
L 6000 450 
Q 5575 475 5050 475 
L 3400 475 
Q 3400 -300 3425 -625 
L 2875 -625 
Q 2925 -300 2925 475 
L 1300 475 
Q 700 475 425 450 
L 425 950 
Q 675 925 1250 925 
L 2925 925 
L 2925 1525 
L 1125 1525 
Q 1150 1950 1150 2750 
Q 1150 3550 1125 4075 
L 3600 4075 
Q 3875 4650 4075 5250 
Q 4325 5125 4650 4975 
Q 4550 4850 4400 4587 
Q 4250 4325 4100 4075 
L 5275 4075 
z
M 4775 1925 
L 4775 2600 
L 3400 2600 
L 3400 1925 
L 4775 1925 
z
M 4775 3000 
L 4775 3650 
L 3400 3650 
L 3400 3000 
L 4775 3000 
z
M 2925 1925 
L 2925 2600 
L 1625 2600 
L 1625 1925 
L 2925 1925 
z
M 2925 3000 
L 2925 3650 
L 1625 3650 
L 1625 3000 
L 2925 3000 
z
M 2100 5225 
Q 2350 4950 2675 4350 
Q 2400 4225 2225 4125 
Q 1975 4675 1725 4975 
Q 1900 5075 2100 5225 
z
" transform="scale(0.015625)"/>
       <path id="SimHei-4ef7" d="M 2200 4975 
Q 2050 4725 1650 3775 
L 1650 450 
Q 1650 -225 1675 -650 
L 1175 -650 
Q 1175 -225 1200 450 
L 1200 2975 
Q 900 2425 650 2100 
Q 525 2275 225 2450 
Q 750 3025 1125 3800 
Q 1500 4575 1625 5175 
Q 1950 5025 2200 4975 
z
M 4175 4700 
Q 4850 3525 6150 2950 
Q 5925 2750 5775 2500 
Q 4725 3100 3950 4300 
Q 3300 3125 2250 2350 
Q 2125 2525 1900 2725 
Q 2825 3325 3250 4050 
Q 3675 4775 3750 5150 
Q 4150 4950 4325 4900 
L 4175 4700 
z
M 3475 2650 
Q 3400 2075 3325 1087 
Q 3250 100 2325 -675 
Q 2175 -450 1925 -300 
Q 2850 350 2912 1262 
Q 2975 2175 2950 2700 
Q 3275 2650 3475 2650 
z
M 5075 2700 
Q 5050 2150 5050 1725 
L 5050 150 
Q 5050 -225 5075 -650 
L 4550 -650 
Q 4575 -225 4575 175 
L 4575 1875 
Q 4575 2150 4550 2700 
L 5075 2700 
z
" transform="scale(0.015625)"/>
      </defs>
      <use xlink:href="#SimHei-5e73"/>
      <use xlink:href="#SimHei-5747" x="100"/>
      <use xlink:href="#SimHei-5355" x="200"/>
      <use xlink:href="#SimHei-4ef7" x="300"/>
     </g>
    </g>
   </g>
   <g id="line2d_29">
    <path d="M 115.363636 268.875634 
L 118.245868 273.256655 
L 121.128099 278.73481 
L 132.657025 278.73481 
L 135.539256 167.12566 
L 138.421488 192.467762 
L 141.303719 291.80488 
L 144.18595 291.805294 
L 147.068182 275.420033 
L 149.950413 291.805708 
L 152.832645 290.324232 
L 155.714876 289.830406 
L 158.597107 288.613759 
L 161.479339 290.500029 
L 164.36157 291.291005 
L 167.243802 291.178675 
L 170.126033 289.830723 
L 184.53719 289.830649 
L 187.419421 292.572991 
L 190.301653 301.348727 
L 204.71281 301.349658 
L 207.595041 323.4224 
L 210.477273 308.666105 
L 213.359504 328.940585 
L 216.241736 328.940585 
L 219.123967 329.524822 
L 222.006198 340.245162 
L 224.88843 342.563634 
L 227.770661 328.279776 
L 230.652893 297.883225 
L 236.417355 297.885734 
L 239.299587 356.857964 
L 242.181818 361.070307 
L 245.06405 354.548506 
L 247.946281 350.200638 
L 250.828512 340.154495 
L 302.708678 340.167544 
L 305.590909 333.131886 
L 320.002066 333.133999 
L 325.766529 363.744069 
L 328.64876 369.36 
L 331.530992 369.098233 
L 334.413223 369.098233 
L 340.177686 368.125733 
L 343.059917 368.125733 
L 345.942149 367.055553 
L 351.706612 368.125733 
L 357.471074 368.125733 
L 360.353306 296.732944 
L 366.117769 296.732944 
L 369 321.708804 
L 386.293388 321.708804 
L 392.057851 322.538706 
L 394.940083 321.644356 
L 403.586777 321.644356 
L 406.469008 270.755814 
L 409.35124 251.894677 
L 412.233471 259.439132 
L 420.880165 263.935997 
L 423.762397 259.119469 
L 426.644628 261.527733 
L 435.291322 251.894677 
L 438.173554 251.787 
L 443.938017 252.526105 
L 449.702479 251.787 
L 455.466942 252.717841 
L 458.349174 241.337006 
L 461.231405 255.049761 
L 464.113636 255.615708 
L 466.995868 255.049761 
L 469.878099 257.879495 
L 475.642562 259.065949 
L 481.407025 263.065384 
L 484.289256 257.879495 
L 487.171488 259.608125 
L 490.053719 270.222956 
L 501.582645 263.065384 
L 510.229339 269.458743 
L 513.11157 263.065384 
L 515.993802 269.458743 
L 518.876033 286.197066 
L 524.640496 292.806118 
L 527.522727 288.074893 
L 530.404959 292.806118 
L 533.28719 292.806118 
L 536.169421 293.764481 
L 539.051653 292.342084 
L 541.933884 288.063158 
L 544.816116 293.764481 
L 547.698347 137.562828 
L 550.580579 150.862188 
L 553.46281 204.059627 
L 556.345041 160.215584 
L 562.109504 154.70162 
L 564.991736 154.242123 
L 567.873967 148.976198 
L 576.520661 142.295201 
L 588.049587 154.320996 
L 590.931818 152.984796 
L 593.81405 155.657195 
L 596.696281 113.552995 
L 599.578512 95.389034 
L 602.460744 89.334381 
L 605.342975 77.225074 
L 608.225207 84.880383 
L 611.107438 66.96 
L 619.754132 66.96 
L 622.636364 84.880383 
L 622.636364 84.880383 
" clip-path="url(#p95c0bba8dc)" style="fill: none; stroke: #ff0000; stroke-width: 1.5; stroke-linecap: square"/>
    <defs>
     <path id="me0e1e0ab25" d="M 0 3 
C 0.795609 3 1.55874 2.683901 2.12132 2.12132 
C 2.683901 1.55874 3 0.795609 3 0 
C 3 -0.795609 2.683901 -1.55874 2.12132 -2.12132 
C 1.55874 -2.683901 0.795609 -3 0 -3 
C -0.795609 -3 -1.55874 -2.683901 -2.12132 -2.12132 
C -2.683901 -1.55874 -3 -0.795609 -3 0 
C -3 0.795609 -2.683901 1.55874 -2.12132 2.12132 
C -1.55874 2.683901 -0.795609 3 0 3 
z
" style="stroke: #ff0000"/>
    </defs>
    <g clip-path="url(#p95c0bba8dc)">
     <use xlink:href="#me0e1e0ab25" x="115.363636" y="268.875634" style="fill: #ff0000; stroke: #ff0000"/>
     <use xlink:href="#me0e1e0ab25" x="118.245868" y="273.256655" style="fill: #ff0000; stroke: #ff0000"/>
     <use xlink:href="#me0e1e0ab25" x="121.128099" y="278.73481" style="fill: #ff0000; stroke: #ff0000"/>
     <use xlink:href="#me0e1e0ab25" x="126.892562" y="278.73481" style="fill: #ff0000; stroke: #ff0000"/>
     <use xlink:href="#me0e1e0ab25" x="132.657025" y="278.73481" style="fill: #ff0000; stroke: #ff0000"/>
     <use xlink:href="#me0e1e0ab25" x="135.539256" y="167.12566" style="fill: #ff0000; stroke: #ff0000"/>
     <use xlink:href="#me0e1e0ab25" x="138.421488" y="192.467762" style="fill: #ff0000; stroke: #ff0000"/>
     <use xlink:href="#me0e1e0ab25" x="141.303719" y="291.80488" style="fill: #ff0000; stroke: #ff0000"/>
     <use xlink:href="#me0e1e0ab25" x="144.18595" y="291.805294" style="fill: #ff0000; stroke: #ff0000"/>
     <use xlink:href="#me0e1e0ab25" x="147.068182" y="275.420033" style="fill: #ff0000; stroke: #ff0000"/>
     <use xlink:href="#me0e1e0ab25" x="149.950413" y="291.805708" style="fill: #ff0000; stroke: #ff0000"/>
     <use xlink:href="#me0e1e0ab25" x="152.832645" y="290.324232" style="fill: #ff0000; stroke: #ff0000"/>
     <use xlink:href="#me0e1e0ab25" x="155.714876" y="289.830406" style="fill: #ff0000; stroke: #ff0000"/>
     <use xlink:href="#me0e1e0ab25" x="158.597107" y="288.613759" style="fill: #ff0000; stroke: #ff0000"/>
     <use xlink:href="#me0e1e0ab25" x="161.479339" y="290.500029" style="fill: #ff0000; stroke: #ff0000"/>
     <use xlink:href="#me0e1e0ab25" x="164.36157" y="291.291005" style="fill: #ff0000; stroke: #ff0000"/>
     <use xlink:href="#me0e1e0ab25" x="167.243802" y="291.178675" style="fill: #ff0000; stroke: #ff0000"/>
     <use xlink:href="#me0e1e0ab25" x="170.126033" y="289.830723" style="fill: #ff0000; stroke: #ff0000"/>
     <use xlink:href="#me0e1e0ab25" x="173.008264" y="289.830649" style="fill: #ff0000; stroke: #ff0000"/>
     <use xlink:href="#me0e1e0ab25" x="175.890496" y="289.830649" style="fill: #ff0000; stroke: #ff0000"/>
     <use xlink:href="#me0e1e0ab25" x="178.772727" y="289.830649" style="fill: #ff0000; stroke: #ff0000"/>
     <use xlink:href="#me0e1e0ab25" x="181.654959" y="289.830649" style="fill: #ff0000; stroke: #ff0000"/>
     <use xlink:href="#me0e1e0ab25" x="184.53719" y="289.830649" style="fill: #ff0000; stroke: #ff0000"/>
     <use xlink:href="#me0e1e0ab25" x="187.419421" y="292.572991" style="fill: #ff0000; stroke: #ff0000"/>
     <use xlink:href="#me0e1e0ab25" x="190.301653" y="301.348727" style="fill: #ff0000; stroke: #ff0000"/>
     <use xlink:href="#me0e1e0ab25" x="193.183884" y="301.34897" style="fill: #ff0000; stroke: #ff0000"/>
     <use xlink:href="#me0e1e0ab25" x="196.066116" y="301.34916" style="fill: #ff0000; stroke: #ff0000"/>
     <use xlink:href="#me0e1e0ab25" x="198.948347" y="301.349658" style="fill: #ff0000; stroke: #ff0000"/>
     <use xlink:href="#me0e1e0ab25" x="201.830579" y="301.349658" style="fill: #ff0000; stroke: #ff0000"/>
     <use xlink:href="#me0e1e0ab25" x="204.71281" y="301.349658" style="fill: #ff0000; stroke: #ff0000"/>
     <use xlink:href="#me0e1e0ab25" x="207.595041" y="323.4224" style="fill: #ff0000; stroke: #ff0000"/>
     <use xlink:href="#me0e1e0ab25" x="210.477273" y="308.666105" style="fill: #ff0000; stroke: #ff0000"/>
     <use xlink:href="#me0e1e0ab25" x="213.359504" y="328.940585" style="fill: #ff0000; stroke: #ff0000"/>
     <use xlink:href="#me0e1e0ab25" x="216.241736" y="328.940585" style="fill: #ff0000; stroke: #ff0000"/>
     <use xlink:href="#me0e1e0ab25" x="219.123967" y="329.524822" style="fill: #ff0000; stroke: #ff0000"/>
     <use xlink:href="#me0e1e0ab25" x="222.006198" y="340.245162" style="fill: #ff0000; stroke: #ff0000"/>
     <use xlink:href="#me0e1e0ab25" x="224.88843" y="342.563634" style="fill: #ff0000; stroke: #ff0000"/>
     <use xlink:href="#me0e1e0ab25" x="227.770661" y="328.279776" style="fill: #ff0000; stroke: #ff0000"/>
     <use xlink:href="#me0e1e0ab25" x="230.652893" y="297.883225" style="fill: #ff0000; stroke: #ff0000"/>
     <use xlink:href="#me0e1e0ab25" x="233.535124" y="297.885734" style="fill: #ff0000; stroke: #ff0000"/>
     <use xlink:href="#me0e1e0ab25" x="236.417355" y="297.885734" style="fill: #ff0000; stroke: #ff0000"/>
     <use xlink:href="#me0e1e0ab25" x="239.299587" y="356.857964" style="fill: #ff0000; stroke: #ff0000"/>
     <use xlink:href="#me0e1e0ab25" x="242.181818" y="361.070307" style="fill: #ff0000; stroke: #ff0000"/>
     <use xlink:href="#me0e1e0ab25" x="245.06405" y="354.548506" style="fill: #ff0000; stroke: #ff0000"/>
     <use xlink:href="#me0e1e0ab25" x="247.946281" y="350.200638" style="fill: #ff0000; stroke: #ff0000"/>
     <use xlink:href="#me0e1e0ab25" x="250.828512" y="340.154495" style="fill: #ff0000; stroke: #ff0000"/>
     <use xlink:href="#me0e1e0ab25" x="253.710744" y="340.154495" style="fill: #ff0000; stroke: #ff0000"/>
     <use xlink:href="#me0e1e0ab25" x="256.592975" y="340.154495" style="fill: #ff0000; stroke: #ff0000"/>
     <use xlink:href="#me0e1e0ab25" x="259.475207" y="340.154495" style="fill: #ff0000; stroke: #ff0000"/>
     <use xlink:href="#me0e1e0ab25" x="262.357438" y="340.154495" style="fill: #ff0000; stroke: #ff0000"/>
     <use xlink:href="#me0e1e0ab25" x="271.004132" y="340.154495" style="fill: #ff0000; stroke: #ff0000"/>
     <use xlink:href="#me0e1e0ab25" x="282.533058" y="340.154495" style="fill: #ff0000; stroke: #ff0000"/>
     <use xlink:href="#me0e1e0ab25" x="285.415289" y="340.154495" style="fill: #ff0000; stroke: #ff0000"/>
     <use xlink:href="#me0e1e0ab25" x="291.179752" y="340.160087" style="fill: #ff0000; stroke: #ff0000"/>
     <use xlink:href="#me0e1e0ab25" x="294.061983" y="340.167544" style="fill: #ff0000; stroke: #ff0000"/>
     <use xlink:href="#me0e1e0ab25" x="296.944215" y="340.167544" style="fill: #ff0000; stroke: #ff0000"/>
     <use xlink:href="#me0e1e0ab25" x="299.826446" y="340.167544" style="fill: #ff0000; stroke: #ff0000"/>
     <use xlink:href="#me0e1e0ab25" x="302.708678" y="340.167544" style="fill: #ff0000; stroke: #ff0000"/>
     <use xlink:href="#me0e1e0ab25" x="305.590909" y="333.131886" style="fill: #ff0000; stroke: #ff0000"/>
     <use xlink:href="#me0e1e0ab25" x="308.47314" y="333.131886" style="fill: #ff0000; stroke: #ff0000"/>
     <use xlink:href="#me0e1e0ab25" x="311.355372" y="333.131886" style="fill: #ff0000; stroke: #ff0000"/>
     <use xlink:href="#me0e1e0ab25" x="317.119835" y="333.131886" style="fill: #ff0000; stroke: #ff0000"/>
     <use xlink:href="#me0e1e0ab25" x="320.002066" y="333.133999" style="fill: #ff0000; stroke: #ff0000"/>
     <use xlink:href="#me0e1e0ab25" x="325.766529" y="363.744069" style="fill: #ff0000; stroke: #ff0000"/>
     <use xlink:href="#me0e1e0ab25" x="328.64876" y="369.36" style="fill: #ff0000; stroke: #ff0000"/>
     <use xlink:href="#me0e1e0ab25" x="331.530992" y="369.098233" style="fill: #ff0000; stroke: #ff0000"/>
     <use xlink:href="#me0e1e0ab25" x="334.413223" y="369.098233" style="fill: #ff0000; stroke: #ff0000"/>
     <use xlink:href="#me0e1e0ab25" x="340.177686" y="368.125733" style="fill: #ff0000; stroke: #ff0000"/>
     <use xlink:href="#me0e1e0ab25" x="343.059917" y="368.125733" style="fill: #ff0000; stroke: #ff0000"/>
     <use xlink:href="#me0e1e0ab25" x="345.942149" y="367.055553" style="fill: #ff0000; stroke: #ff0000"/>
     <use xlink:href="#me0e1e0ab25" x="351.706612" y="368.125733" style="fill: #ff0000; stroke: #ff0000"/>
     <use xlink:href="#me0e1e0ab25" x="354.588843" y="368.125733" style="fill: #ff0000; stroke: #ff0000"/>
     <use xlink:href="#me0e1e0ab25" x="357.471074" y="368.125733" style="fill: #ff0000; stroke: #ff0000"/>
     <use xlink:href="#me0e1e0ab25" x="360.353306" y="296.732944" style="fill: #ff0000; stroke: #ff0000"/>
     <use xlink:href="#me0e1e0ab25" x="363.235537" y="296.732944" style="fill: #ff0000; stroke: #ff0000"/>
     <use xlink:href="#me0e1e0ab25" x="366.117769" y="296.732944" style="fill: #ff0000; stroke: #ff0000"/>
     <use xlink:href="#me0e1e0ab25" x="369" y="321.708804" style="fill: #ff0000; stroke: #ff0000"/>
     <use xlink:href="#me0e1e0ab25" x="371.882231" y="321.708804" style="fill: #ff0000; stroke: #ff0000"/>
     <use xlink:href="#me0e1e0ab25" x="374.764463" y="321.708804" style="fill: #ff0000; stroke: #ff0000"/>
     <use xlink:href="#me0e1e0ab25" x="383.411157" y="321.708804" style="fill: #ff0000; stroke: #ff0000"/>
     <use xlink:href="#me0e1e0ab25" x="386.293388" y="321.708804" style="fill: #ff0000; stroke: #ff0000"/>
     <use xlink:href="#me0e1e0ab25" x="392.057851" y="322.538706" style="fill: #ff0000; stroke: #ff0000"/>
     <use xlink:href="#me0e1e0ab25" x="394.940083" y="321.644356" style="fill: #ff0000; stroke: #ff0000"/>
     <use xlink:href="#me0e1e0ab25" x="400.704545" y="321.644356" style="fill: #ff0000; stroke: #ff0000"/>
     <use xlink:href="#me0e1e0ab25" x="403.586777" y="321.644356" style="fill: #ff0000; stroke: #ff0000"/>
     <use xlink:href="#me0e1e0ab25" x="406.469008" y="270.755814" style="fill: #ff0000; stroke: #ff0000"/>
     <use xlink:href="#me0e1e0ab25" x="409.35124" y="251.894677" style="fill: #ff0000; stroke: #ff0000"/>
     <use xlink:href="#me0e1e0ab25" x="412.233471" y="259.439132" style="fill: #ff0000; stroke: #ff0000"/>
     <use xlink:href="#me0e1e0ab25" x="420.880165" y="263.935997" style="fill: #ff0000; stroke: #ff0000"/>
     <use xlink:href="#me0e1e0ab25" x="423.762397" y="259.119469" style="fill: #ff0000; stroke: #ff0000"/>
     <use xlink:href="#me0e1e0ab25" x="426.644628" y="261.527733" style="fill: #ff0000; stroke: #ff0000"/>
     <use xlink:href="#me0e1e0ab25" x="435.291322" y="251.894677" style="fill: #ff0000; stroke: #ff0000"/>
     <use xlink:href="#me0e1e0ab25" x="438.173554" y="251.787" style="fill: #ff0000; stroke: #ff0000"/>
     <use xlink:href="#me0e1e0ab25" x="443.938017" y="252.526105" style="fill: #ff0000; stroke: #ff0000"/>
     <use xlink:href="#me0e1e0ab25" x="449.702479" y="251.787" style="fill: #ff0000; stroke: #ff0000"/>
     <use xlink:href="#me0e1e0ab25" x="455.466942" y="252.717841" style="fill: #ff0000; stroke: #ff0000"/>
     <use xlink:href="#me0e1e0ab25" x="458.349174" y="241.337006" style="fill: #ff0000; stroke: #ff0000"/>
     <use xlink:href="#me0e1e0ab25" x="461.231405" y="255.049761" style="fill: #ff0000; stroke: #ff0000"/>
     <use xlink:href="#me0e1e0ab25" x="464.113636" y="255.615708" style="fill: #ff0000; stroke: #ff0000"/>
     <use xlink:href="#me0e1e0ab25" x="466.995868" y="255.049761" style="fill: #ff0000; stroke: #ff0000"/>
     <use xlink:href="#me0e1e0ab25" x="469.878099" y="257.879495" style="fill: #ff0000; stroke: #ff0000"/>
     <use xlink:href="#me0e1e0ab25" x="472.760331" y="258.472722" style="fill: #ff0000; stroke: #ff0000"/>
     <use xlink:href="#me0e1e0ab25" x="475.642562" y="259.065949" style="fill: #ff0000; stroke: #ff0000"/>
     <use xlink:href="#me0e1e0ab25" x="481.407025" y="263.065384" style="fill: #ff0000; stroke: #ff0000"/>
     <use xlink:href="#me0e1e0ab25" x="484.289256" y="257.879495" style="fill: #ff0000; stroke: #ff0000"/>
     <use xlink:href="#me0e1e0ab25" x="487.171488" y="259.608125" style="fill: #ff0000; stroke: #ff0000"/>
     <use xlink:href="#me0e1e0ab25" x="490.053719" y="270.222956" style="fill: #ff0000; stroke: #ff0000"/>
     <use xlink:href="#me0e1e0ab25" x="501.582645" y="263.065384" style="fill: #ff0000; stroke: #ff0000"/>
     <use xlink:href="#me0e1e0ab25" x="510.229339" y="269.458743" style="fill: #ff0000; stroke: #ff0000"/>
     <use xlink:href="#me0e1e0ab25" x="513.11157" y="263.065384" style="fill: #ff0000; stroke: #ff0000"/>
     <use xlink:href="#me0e1e0ab25" x="515.993802" y="269.458743" style="fill: #ff0000; stroke: #ff0000"/>
     <use xlink:href="#me0e1e0ab25" x="518.876033" y="286.197066" style="fill: #ff0000; stroke: #ff0000"/>
     <use xlink:href="#me0e1e0ab25" x="524.640496" y="292.806118" style="fill: #ff0000; stroke: #ff0000"/>
     <use xlink:href="#me0e1e0ab25" x="527.522727" y="288.074893" style="fill: #ff0000; stroke: #ff0000"/>
     <use xlink:href="#me0e1e0ab25" x="530.404959" y="292.806118" style="fill: #ff0000; stroke: #ff0000"/>
     <use xlink:href="#me0e1e0ab25" x="533.28719" y="292.806118" style="fill: #ff0000; stroke: #ff0000"/>
     <use xlink:href="#me0e1e0ab25" x="536.169421" y="293.764481" style="fill: #ff0000; stroke: #ff0000"/>
     <use xlink:href="#me0e1e0ab25" x="539.051653" y="292.342084" style="fill: #ff0000; stroke: #ff0000"/>
     <use xlink:href="#me0e1e0ab25" x="541.933884" y="288.063158" style="fill: #ff0000; stroke: #ff0000"/>
     <use xlink:href="#me0e1e0ab25" x="544.816116" y="293.764481" style="fill: #ff0000; stroke: #ff0000"/>
     <use xlink:href="#me0e1e0ab25" x="547.698347" y="137.562828" style="fill: #ff0000; stroke: #ff0000"/>
     <use xlink:href="#me0e1e0ab25" x="550.580579" y="150.862188" style="fill: #ff0000; stroke: #ff0000"/>
     <use xlink:href="#me0e1e0ab25" x="553.46281" y="204.059627" style="fill: #ff0000; stroke: #ff0000"/>
     <use xlink:href="#me0e1e0ab25" x="556.345041" y="160.215584" style="fill: #ff0000; stroke: #ff0000"/>
     <use xlink:href="#me0e1e0ab25" x="562.109504" y="154.70162" style="fill: #ff0000; stroke: #ff0000"/>
     <use xlink:href="#me0e1e0ab25" x="564.991736" y="154.242123" style="fill: #ff0000; stroke: #ff0000"/>
     <use xlink:href="#me0e1e0ab25" x="567.873967" y="148.976198" style="fill: #ff0000; stroke: #ff0000"/>
     <use xlink:href="#me0e1e0ab25" x="576.520661" y="142.295201" style="fill: #ff0000; stroke: #ff0000"/>
     <use xlink:href="#me0e1e0ab25" x="588.049587" y="154.320996" style="fill: #ff0000; stroke: #ff0000"/>
     <use xlink:href="#me0e1e0ab25" x="590.931818" y="152.984796" style="fill: #ff0000; stroke: #ff0000"/>
     <use xlink:href="#me0e1e0ab25" x="593.81405" y="155.657195" style="fill: #ff0000; stroke: #ff0000"/>
     <use xlink:href="#me0e1e0ab25" x="596.696281" y="113.552995" style="fill: #ff0000; stroke: #ff0000"/>
     <use xlink:href="#me0e1e0ab25" x="599.578512" y="95.389034" style="fill: #ff0000; stroke: #ff0000"/>
     <use xlink:href="#me0e1e0ab25" x="602.460744" y="89.334381" style="fill: #ff0000; stroke: #ff0000"/>
     <use xlink:href="#me0e1e0ab25" x="605.342975" y="77.225074" style="fill: #ff0000; stroke: #ff0000"/>
     <use xlink:href="#me0e1e0ab25" x="608.225207" y="84.880383" style="fill: #ff0000; stroke: #ff0000"/>
     <use xlink:href="#me0e1e0ab25" x="611.107438" y="66.96" style="fill: #ff0000; stroke: #ff0000"/>
     <use xlink:href="#me0e1e0ab25" x="613.989669" y="66.96" style="fill: #ff0000; stroke: #ff0000"/>
     <use xlink:href="#me0e1e0ab25" x="616.871901" y="66.96" style="fill: #ff0000; stroke: #ff0000"/>
     <use xlink:href="#me0e1e0ab25" x="619.754132" y="66.96" style="fill: #ff0000; stroke: #ff0000"/>
     <use xlink:href="#me0e1e0ab25" x="622.636364" y="84.880383" style="fill: #ff0000; stroke: #ff0000"/>
    </g>
   </g>
   <g id="patch_11">
    <path d="M 90 384.48 
L 90 51.84 
" style="fill: none; stroke: #000000; stroke-width: 0.8; stroke-linejoin: miter; stroke-linecap: square"/>
   </g>
   <g id="patch_12">
    <path d="M 708 384.48 
L 708 51.84 
" style="fill: none; stroke: #000000; stroke-width: 0.8; stroke-linejoin: miter; stroke-linecap: square"/>
   </g>
   <g id="patch_13">
    <path d="M 90 384.48 
L 648 384.48 
" style="fill: none; stroke: #000000; stroke-width: 0.8; stroke-linejoin: miter; stroke-linecap: square"/>
   </g>
   <g id="patch_14">
    <path d="M 90 51.84 
L 648 51.84 
" style="fill: none; stroke: #000000; stroke-width: 0.8; stroke-linejoin: miter; stroke-linecap: square"/>
   </g>
   <g id="text_31">
    <!-- 6004100008 每周需求量、收益与平均单价 -->
    <g transform="translate(258 45.84) scale(0.12 -0.12)">
     <defs>
      <path id="SimHei-20" transform="scale(0.015625)"/>
      <path id="SimHei-6bcf" d="M 5225 3650 
Q 5175 3150 5150 2675 
L 5125 2200 
Q 5525 2200 6000 2225 
L 6000 1775 
Q 5625 1800 5100 1800 
L 5050 650 
Q 5325 650 5700 675 
L 5700 225 
Q 5400 250 5025 250 
Q 5000 -275 4775 -425 
Q 4550 -575 4000 -650 
Q 3950 -400 3775 -125 
Q 4375 -125 4475 -50 
Q 4575 25 4575 250 
L 1400 250 
L 1500 1100 
L 1550 1800 
L 1275 1800 
Q 825 1800 550 1775 
L 550 2225 
Q 975 2200 1275 2200 
L 1575 2200 
L 1625 2825 
L 1675 3650 
L 5225 3650 
z
M 2350 5000 
Q 2175 4825 2050 4600 
L 4875 4600 
Q 5275 4600 5775 4625 
L 5775 4175 
Q 5275 4200 4875 4200 
L 1825 4200 
L 1375 3625 
Q 1125 3325 775 2975 
Q 600 3175 350 3300 
Q 725 3575 1150 4112 
Q 1575 4650 1825 5250 
Q 2125 5075 2350 5000 
z
M 1975 1800 
L 1875 650 
L 4625 650 
L 4675 1800 
L 2950 1800 
Q 3575 1275 3825 1125 
Q 3625 925 3475 725 
Q 3100 1100 2650 1475 
Q 2775 1675 2875 1800 
L 1975 1800 
z
M 2975 3250 
Q 3125 3150 3287 3012 
Q 3450 2875 3800 2550 
Q 3650 2350 3525 2200 
L 4700 2200 
L 4750 3250 
L 2975 3250 
z
M 2075 3250 
L 2000 2200 
L 3425 2200 
Q 3150 2500 3012 2625 
Q 2875 2750 2700 2900 
Q 2800 3050 2925 3250 
L 2075 3250 
z
" transform="scale(0.015625)"/>
      <path id="SimHei-3001" d="M 1725 -275 
Q 1325 700 925 1450 
L 1325 1650 
Q 1825 950 2325 25 
L 1725 -275 
z
" transform="scale(0.015625)"/>
      <path id="SimHei-4e0e" d="M 5350 100 
Q 5275 -300 4925 -425 
Q 4575 -550 3900 -600 
Q 3875 -375 3650 -25 
Q 4375 -50 4575 0 
Q 4775 50 4837 225 
Q 4900 400 5100 2350 
L 1125 2350 
Q 1450 4350 1475 5200 
Q 1800 5150 2075 5125 
Q 1975 4825 1900 4275 
L 4900 4275 
Q 5400 4275 5800 4300 
L 5800 3825 
Q 5400 3850 4950 3850 
L 1850 3850 
L 1700 2750 
L 5675 2750 
Q 5625 2450 5575 2050 
L 5350 100 
z
M 3675 1350 
Q 4125 1350 4500 1375 
L 4500 875 
Q 4125 900 3850 900 
L 1450 900 
Q 1000 900 500 875 
L 500 1375 
Q 1000 1350 1450 1350 
L 3675 1350 
z
" transform="scale(0.015625)"/>
     </defs>
     <use xlink:href="#SimHei-36"/>
     <use xlink:href="#SimHei-30" x="50"/>
     <use xlink:href="#SimHei-30" x="100"/>
     <use xlink:href="#SimHei-34" x="150"/>
     <use xlink:href="#SimHei-31" x="200"/>
     <use xlink:href="#SimHei-30" x="250"/>
     <use xlink:href="#SimHei-30" x="300"/>
     <use xlink:href="#SimHei-30" x="350"/>
     <use xlink:href="#SimHei-30" x="400"/>
     <use xlink:href="#SimHei-38" x="450"/>
     <use xlink:href="#SimHei-20" x="500"/>
     <use xlink:href="#SimHei-6bcf" x="550"/>
     <use xlink:href="#SimHei-5468" x="650"/>
     <use xlink:href="#SimHei-9700" x="750"/>
     <use xlink:href="#SimHei-6c42" x="850"/>
     <use xlink:href="#SimHei-91cf" x="950"/>
     <use xlink:href="#SimHei-3001" x="1050"/>
     <use xlink:href="#SimHei-6536" x="1150"/>
     <use xlink:href="#SimHei-76ca" x="1250"/>
     <use xlink:href="#SimHei-4e0e" x="1350"/>
     <use xlink:href="#SimHei-5e73" x="1450"/>
     <use xlink:href="#SimHei-5747" x="1550"/>
     <use xlink:href="#SimHei-5355" x="1650"/>
     <use xlink:href="#SimHei-4ef7" x="1750"/>
    </g>
   </g>
  </g>
 </g>
 <defs>
  <clipPath id="p95c0bba8dc">
   <rect x="90" y="51.84" width="558" height="332.64"/>
  </clipPath>
 </defs>
</svg>
