<?xml version="1.0" encoding="utf-8" standalone="no"?>
<!DOCTYPE svg PUBLIC "-//W3C//DTD SVG 1.1//EN"
  "http://www.w3.org/Graphics/SVG/1.1/DTD/svg11.dtd">
<svg xmlns:xlink="http://www.w3.org/1999/xlink" width="720pt" height="432pt" viewBox="0 0 720 432" xmlns="http://www.w3.org/2000/svg" version="1.1">
 <metadata>
  <rdf:RDF xmlns:dc="http://purl.org/dc/elements/1.1/" xmlns:cc="http://creativecommons.org/ns#" xmlns:rdf="http://www.w3.org/1999/02/22-rdf-syntax-ns#">
   <cc:Work>
    <dc:type rdf:resource="http://purl.org/dc/dcmitype/StillImage"/>
    <dc:date>2024-08-17T14:09:41.567352</dc:date>
    <dc:format>image/svg+xml</dc:format>
    <dc:creator>
     <cc:Agent>
      <dc:title>Matplotlib v3.8.0, https://matplotlib.org/</dc:title>
     </cc:Agent>
    </dc:creator>
   </cc:Work>
  </rdf:RDF>
 </metadata>
 <defs>
  <style type="text/css">*{stroke-linejoin: round; stroke-linecap: butt}</style>
 </defs>
 <g id="figure_1">
  <g id="patch_1">
   <path d="M 0 432 
L 720 432 
L 720 0 
L 0 0 
z
" style="fill: #ffffff"/>
  </g>
  <g id="axes_1">
   <g id="patch_2">
    <path d="M 90 384.48 
L 648 384.48 
L 648 51.84 
L 90 51.84 
z
" style="fill: #ffffff"/>
   </g>
   <g id="matplotlib.axis_1">
    <g id="xtick_1">
     <g id="line2d_1">
      <path d="M 112.481405 384.48 
L 112.481405 51.84 
" clip-path="url(#p77de350146)" style="fill: none; stroke: #b0b0b0; stroke-width: 0.8; stroke-linecap: square"/>
     </g>
     <g id="line2d_2">
      <defs>
       <path id="m6175bb4a61" d="M 0 0 
L 0 3.5 
" style="stroke: #000000; stroke-width: 0.8"/>
      </defs>
      <g>
       <use xlink:href="#m6175bb4a61" x="112.481405" y="384.48" style="stroke: #000000; stroke-width: 0.8"/>
      </g>
     </g>
     <g id="text_1">
      <!-- 0 -->
      <g transform="translate(109.981405 398.355) scale(0.1 -0.1)">
       <defs>
        <path id="SimHei-30" d="M 225 2537 
Q 250 3200 412 3587 
Q 575 3975 875 4225 
Q 1175 4475 1612 4475 
Q 2050 4475 2375 4112 
Q 2700 3750 2800 3200 
Q 2900 2650 2862 1937 
Q 2825 1225 2612 775 
Q 2400 325 1975 150 
Q 1550 -25 1125 187 
Q 700 400 525 750 
Q 350 1100 275 1487 
Q 200 1875 225 2537 
z
M 750 2687 
Q 675 2000 800 1462 
Q 925 925 1212 700 
Q 1500 475 1800 612 
Q 2100 750 2237 1162 
Q 2375 1575 2375 2062 
Q 2375 2550 2337 2950 
Q 2300 3350 2112 3675 
Q 1925 4000 1612 4012 
Q 1300 4025 1062 3700 
Q 825 3375 750 2687 
z
" transform="scale(0.015625)"/>
       </defs>
       <use xlink:href="#SimHei-30"/>
      </g>
     </g>
    </g>
    <g id="xtick_2">
     <g id="line2d_3">
      <path d="M 184.53719 384.48 
L 184.53719 51.84 
" clip-path="url(#p77de350146)" style="fill: none; stroke: #b0b0b0; stroke-width: 0.8; stroke-linecap: square"/>
     </g>
     <g id="line2d_4">
      <g>
       <use xlink:href="#m6175bb4a61" x="184.53719" y="384.48" style="stroke: #000000; stroke-width: 0.8"/>
      </g>
     </g>
     <g id="text_2">
      <!-- 25 -->
      <g transform="translate(179.53719 398.355) scale(0.1 -0.1)">
       <defs>
        <path id="SimHei-32" d="M 300 250 
Q 325 625 650 925 
Q 975 1225 1475 1862 
Q 1975 2500 2125 2850 
Q 2275 3200 2237 3450 
Q 2200 3700 2000 3862 
Q 1800 4025 1537 4000 
Q 1275 3975 1037 3800 
Q 800 3625 675 3275 
L 200 3350 
Q 400 3925 712 4187 
Q 1025 4450 1450 4475 
Q 1700 4500 1900 4462 
Q 2100 4425 2312 4287 
Q 2525 4150 2662 3875 
Q 2800 3600 2762 3212 
Q 2725 2825 2375 2287 
Q 2025 1750 1025 600 
L 2825 600 
L 2825 150 
L 300 150 
L 300 250 
z
" transform="scale(0.015625)"/>
        <path id="SimHei-35" d="M 550 1325 
Q 725 650 1150 575 
Q 1575 500 1837 662 
Q 2100 825 2212 1087 
Q 2325 1350 2312 1675 
Q 2300 2000 2137 2225 
Q 1975 2450 1725 2525 
Q 1475 2600 1162 2525 
Q 850 2450 650 2175 
L 225 2225 
Q 275 2375 700 4375 
L 2675 4375 
L 2675 3925 
L 1075 3925 
Q 950 3250 825 2850 
Q 1200 3025 1525 3012 
Q 1850 3000 2150 2862 
Q 2450 2725 2587 2487 
Q 2725 2250 2787 2012 
Q 2850 1775 2837 1500 
Q 2825 1225 2725 937 
Q 2625 650 2425 462 
Q 2225 275 1937 162 
Q 1650 50 1275 75 
Q 900 100 562 350 
Q 225 600 100 1200 
L 550 1325 
z
" transform="scale(0.015625)"/>
       </defs>
       <use xlink:href="#SimHei-32"/>
       <use xlink:href="#SimHei-35" x="50"/>
      </g>
     </g>
    </g>
    <g id="xtick_3">
     <g id="line2d_5">
      <path d="M 256.592975 384.48 
L 256.592975 51.84 
" clip-path="url(#p77de350146)" style="fill: none; stroke: #b0b0b0; stroke-width: 0.8; stroke-linecap: square"/>
     </g>
     <g id="line2d_6">
      <g>
       <use xlink:href="#m6175bb4a61" x="256.592975" y="384.48" style="stroke: #000000; stroke-width: 0.8"/>
      </g>
     </g>
     <g id="text_3">
      <!-- 50 -->
      <g transform="translate(251.592975 398.355) scale(0.1 -0.1)">
       <use xlink:href="#SimHei-35"/>
       <use xlink:href="#SimHei-30" x="50"/>
      </g>
     </g>
    </g>
    <g id="xtick_4">
     <g id="line2d_7">
      <path d="M 328.64876 384.48 
L 328.64876 51.84 
" clip-path="url(#p77de350146)" style="fill: none; stroke: #b0b0b0; stroke-width: 0.8; stroke-linecap: square"/>
     </g>
     <g id="line2d_8">
      <g>
       <use xlink:href="#m6175bb4a61" x="328.64876" y="384.48" style="stroke: #000000; stroke-width: 0.8"/>
      </g>
     </g>
     <g id="text_4">
      <!-- 75 -->
      <g transform="translate(323.64876 398.355) scale(0.1 -0.1)">
       <defs>
        <path id="SimHei-37" d="M 850 150 
Q 1300 2050 2425 3925 
L 275 3925 
L 275 4375 
L 2950 4375 
L 2950 3950 
Q 1775 2050 1400 150 
L 850 150 
z
" transform="scale(0.015625)"/>
       </defs>
       <use xlink:href="#SimHei-37"/>
       <use xlink:href="#SimHei-35" x="50"/>
      </g>
     </g>
    </g>
    <g id="xtick_5">
     <g id="line2d_9">
      <path d="M 400.704545 384.48 
L 400.704545 51.84 
" clip-path="url(#p77de350146)" style="fill: none; stroke: #b0b0b0; stroke-width: 0.8; stroke-linecap: square"/>
     </g>
     <g id="line2d_10">
      <g>
       <use xlink:href="#m6175bb4a61" x="400.704545" y="384.48" style="stroke: #000000; stroke-width: 0.8"/>
      </g>
     </g>
     <g id="text_5">
      <!-- 100 -->
      <g transform="translate(393.204545 398.355) scale(0.1 -0.1)">
       <defs>
        <path id="SimHei-31" d="M 1400 3600 
Q 1075 3275 575 2975 
L 575 3450 
Q 1200 3875 1600 4450 
L 1900 4450 
L 1900 150 
L 1400 150 
L 1400 3600 
z
" transform="scale(0.015625)"/>
       </defs>
       <use xlink:href="#SimHei-31"/>
       <use xlink:href="#SimHei-30" x="50"/>
       <use xlink:href="#SimHei-30" x="100"/>
      </g>
     </g>
    </g>
    <g id="xtick_6">
     <g id="line2d_11">
      <path d="M 472.760331 384.48 
L 472.760331 51.84 
" clip-path="url(#p77de350146)" style="fill: none; stroke: #b0b0b0; stroke-width: 0.8; stroke-linecap: square"/>
     </g>
     <g id="line2d_12">
      <g>
       <use xlink:href="#m6175bb4a61" x="472.760331" y="384.48" style="stroke: #000000; stroke-width: 0.8"/>
      </g>
     </g>
     <g id="text_6">
      <!-- 125 -->
      <g transform="translate(465.260331 398.355) scale(0.1 -0.1)">
       <use xlink:href="#SimHei-31"/>
       <use xlink:href="#SimHei-32" x="50"/>
       <use xlink:href="#SimHei-35" x="100"/>
      </g>
     </g>
    </g>
    <g id="xtick_7">
     <g id="line2d_13">
      <path d="M 544.816116 384.48 
L 544.816116 51.84 
" clip-path="url(#p77de350146)" style="fill: none; stroke: #b0b0b0; stroke-width: 0.8; stroke-linecap: square"/>
     </g>
     <g id="line2d_14">
      <g>
       <use xlink:href="#m6175bb4a61" x="544.816116" y="384.48" style="stroke: #000000; stroke-width: 0.8"/>
      </g>
     </g>
     <g id="text_7">
      <!-- 150 -->
      <g transform="translate(537.316116 398.355) scale(0.1 -0.1)">
       <use xlink:href="#SimHei-31"/>
       <use xlink:href="#SimHei-35" x="50"/>
       <use xlink:href="#SimHei-30" x="100"/>
      </g>
     </g>
    </g>
    <g id="xtick_8">
     <g id="line2d_15">
      <path d="M 616.871901 384.48 
L 616.871901 51.84 
" clip-path="url(#p77de350146)" style="fill: none; stroke: #b0b0b0; stroke-width: 0.8; stroke-linecap: square"/>
     </g>
     <g id="line2d_16">
      <g>
       <use xlink:href="#m6175bb4a61" x="616.871901" y="384.48" style="stroke: #000000; stroke-width: 0.8"/>
      </g>
     </g>
     <g id="text_8">
      <!-- 175 -->
      <g transform="translate(609.371901 398.355) scale(0.1 -0.1)">
       <use xlink:href="#SimHei-31"/>
       <use xlink:href="#SimHei-37" x="50"/>
       <use xlink:href="#SimHei-35" x="100"/>
      </g>
     </g>
    </g>
    <g id="text_9">
     <!-- 周数 -->
     <g transform="translate(359 411.339375) scale(0.1 -0.1)">
      <defs>
       <path id="SimHei-5468" d="M 5600 4925 
Q 5575 4400 5575 3800 
L 5575 50 
Q 5550 -375 5325 -462 
Q 5100 -550 4325 -600 
Q 4300 -400 4125 -75 
Q 4800 -100 4962 -37 
Q 5125 25 5100 225 
L 5100 4525 
L 1500 4525 
Q 1500 2575 1450 1887 
Q 1400 1200 1237 550 
Q 1075 -100 775 -625 
Q 625 -450 275 -225 
Q 650 225 825 1000 
Q 1000 1775 1025 2587 
Q 1050 3400 1000 4925 
L 5600 4925 
z
M 2050 325 
Q 2075 625 2075 950 
L 2075 1400 
Q 2075 1625 2050 1925 
L 4400 1925 
Q 4375 1725 4375 1450 
L 4375 875 
Q 4375 600 4400 325 
L 2050 325 
z
M 3000 3800 
Q 3000 4150 2975 4375 
L 3475 4375 
Q 3450 4075 3450 3800 
Q 4100 3800 4475 3825 
L 4475 3350 
Q 4125 3375 3450 3375 
L 3450 2800 
Q 4200 2800 4825 2825 
L 4825 2350 
Q 4175 2375 3725 2375 
L 2750 2375 
Q 2325 2375 1725 2350 
L 1725 2825 
Q 2325 2800 3000 2800 
L 3000 3375 
Q 2500 3375 1975 3350 
L 1975 3825 
Q 2475 3800 3000 3800 
z
M 3900 725 
L 3900 1525 
L 2550 1525 
L 2550 725 
L 3900 725 
z
" transform="scale(0.015625)"/>
       <path id="SimHei-6570" d="M 4525 4925 
Q 4475 4800 4400 4587 
Q 4325 4375 4175 3825 
L 5325 3825 
Q 5575 3825 5925 3850 
L 5925 3400 
Q 5650 3425 5500 3425 
Q 5500 3025 5362 2162 
Q 5225 1300 4875 675 
Q 5125 375 5437 137 
Q 5750 -100 6025 -200 
Q 5725 -425 5625 -625 
Q 5325 -450 5075 -225 
Q 4825 0 4575 325 
Q 4300 25 3987 -187 
Q 3675 -400 3200 -650 
Q 3075 -425 2850 -300 
Q 3225 -150 3650 125 
Q 4075 400 4300 675 
Q 4125 1025 3962 1425 
Q 3800 1825 3675 2475 
Q 3600 2275 3425 1950 
Q 3250 2050 3000 2150 
Q 3400 2850 3650 3675 
Q 3900 4500 3975 5100 
Q 4275 4975 4525 4925 
z
M 2100 2250 
Q 2000 2150 1875 1925 
L 3250 1925 
Q 3100 1300 2725 675 
Q 3125 525 3350 400 
Q 3225 225 3125 25 
Q 2900 175 2450 325 
Q 1950 -225 725 -650 
Q 600 -375 400 -275 
Q 1575 0 2000 475 
Q 1300 650 850 775 
Q 1000 1000 1250 1525 
Q 1000 1525 425 1500 
L 425 1950 
Q 900 1925 1400 1925 
Q 1500 2150 1550 2425 
Q 1825 2325 2100 2250 
z
M 1775 3950 
Q 1775 4550 1750 5100 
L 2250 5100 
Q 2225 4575 2225 3950 
Q 3075 3950 3425 3975 
L 3425 3525 
Q 3075 3550 2225 3550 
Q 2225 2825 2250 2425 
L 1750 2425 
Q 1775 2775 1775 3300 
Q 1650 3100 1300 2787 
Q 950 2475 650 2300 
Q 525 2525 275 2625 
Q 500 2700 875 2975 
Q 1250 3250 1450 3550 
Q 950 3550 500 3525 
L 500 3975 
Q 925 3950 1775 3950 
z
M 3975 3175 
Q 4200 1700 4600 1125 
Q 4850 1700 4937 2287 
Q 5025 2875 5050 3425 
L 4075 3425 
L 3975 3175 
z
M 1450 1000 
Q 1750 925 2275 800 
Q 2475 1050 2650 1525 
L 1725 1525 
Q 1600 1275 1450 1000 
z
M 3325 4825 
Q 3200 4625 3125 4450 
Q 3050 4275 2925 4025 
Q 2725 4125 2525 4175 
Q 2725 4500 2900 5000 
Q 3150 4875 3325 4825 
z
M 2575 3375 
Q 2900 3050 3200 2725 
Q 3050 2600 2875 2425 
Q 2525 2850 2300 3100 
Q 2450 3225 2575 3375 
z
M 925 5000 
Q 1275 4650 1500 4300 
L 1125 4075 
Q 950 4425 600 4725 
Q 825 4875 925 5000 
z
" transform="scale(0.015625)"/>
      </defs>
      <use xlink:href="#SimHei-5468"/>
      <use xlink:href="#SimHei-6570" x="100"/>
     </g>
    </g>
   </g>
   <g id="matplotlib.axis_2">
    <g id="ytick_1">
     <g id="line2d_17">
      <path d="M 90 376.232727 
L 648 376.232727 
" clip-path="url(#p77de350146)" style="fill: none; stroke: #b0b0b0; stroke-width: 0.8; stroke-linecap: square"/>
     </g>
     <g id="line2d_18">
      <defs>
       <path id="ma717c81380" d="M 0 0 
L -3.5 0 
" style="stroke: #000000; stroke-width: 0.8"/>
      </defs>
      <g>
       <use xlink:href="#ma717c81380" x="90" y="376.232727" style="stroke: #000000; stroke-width: 0.8"/>
      </g>
     </g>
     <g id="text_10">
      <!-- 0 -->
      <g transform="translate(78 379.670227) scale(0.1 -0.1)">
       <use xlink:href="#SimHei-30"/>
      </g>
     </g>
    </g>
    <g id="ytick_2">
     <g id="line2d_19">
      <path d="M 90 307.505455 
L 648 307.505455 
" clip-path="url(#p77de350146)" style="fill: none; stroke: #b0b0b0; stroke-width: 0.8; stroke-linecap: square"/>
     </g>
     <g id="line2d_20">
      <g>
       <use xlink:href="#ma717c81380" x="90" y="307.505455" style="stroke: #000000; stroke-width: 0.8"/>
      </g>
     </g>
     <g id="text_11">
      <!-- 10 -->
      <g transform="translate(73 310.942955) scale(0.1 -0.1)">
       <use xlink:href="#SimHei-31"/>
       <use xlink:href="#SimHei-30" x="50"/>
      </g>
     </g>
    </g>
    <g id="ytick_3">
     <g id="line2d_21">
      <path d="M 90 238.778182 
L 648 238.778182 
" clip-path="url(#p77de350146)" style="fill: none; stroke: #b0b0b0; stroke-width: 0.8; stroke-linecap: square"/>
     </g>
     <g id="line2d_22">
      <g>
       <use xlink:href="#ma717c81380" x="90" y="238.778182" style="stroke: #000000; stroke-width: 0.8"/>
      </g>
     </g>
     <g id="text_12">
      <!-- 20 -->
      <g transform="translate(73 242.215682) scale(0.1 -0.1)">
       <use xlink:href="#SimHei-32"/>
       <use xlink:href="#SimHei-30" x="50"/>
      </g>
     </g>
    </g>
    <g id="ytick_4">
     <g id="line2d_23">
      <path d="M 90 170.050909 
L 648 170.050909 
" clip-path="url(#p77de350146)" style="fill: none; stroke: #b0b0b0; stroke-width: 0.8; stroke-linecap: square"/>
     </g>
     <g id="line2d_24">
      <g>
       <use xlink:href="#ma717c81380" x="90" y="170.050909" style="stroke: #000000; stroke-width: 0.8"/>
      </g>
     </g>
     <g id="text_13">
      <!-- 30 -->
      <g transform="translate(73 173.488409) scale(0.1 -0.1)">
       <defs>
        <path id="SimHei-33" d="M 250 1225 
L 700 1300 
Q 800 975 1025 762 
Q 1250 550 1587 562 
Q 1925 575 2125 837 
Q 2325 1100 2300 1437 
Q 2275 1775 2037 1962 
Q 1800 2150 1275 2225 
L 1275 2550 
Q 1800 2600 2037 2825 
Q 2275 3050 2250 3412 
Q 2225 3775 1925 3937 
Q 1625 4100 1287 3975 
Q 950 3850 750 3275 
L 300 3350 
Q 450 3800 712 4100 
Q 975 4400 1425 4450 
Q 1875 4500 2212 4337 
Q 2550 4175 2687 3837 
Q 2825 3500 2725 3100 
Q 2625 2700 2150 2400 
Q 2500 2250 2687 1950 
Q 2875 1650 2812 1162 
Q 2750 675 2375 375 
Q 2000 75 1525 87 
Q 1050 100 700 387 
Q 350 675 250 1225 
z
" transform="scale(0.015625)"/>
       </defs>
       <use xlink:href="#SimHei-33"/>
       <use xlink:href="#SimHei-30" x="50"/>
      </g>
     </g>
    </g>
    <g id="ytick_5">
     <g id="line2d_25">
      <path d="M 90 101.323636 
L 648 101.323636 
" clip-path="url(#p77de350146)" style="fill: none; stroke: #b0b0b0; stroke-width: 0.8; stroke-linecap: square"/>
     </g>
     <g id="line2d_26">
      <g>
       <use xlink:href="#ma717c81380" x="90" y="101.323636" style="stroke: #000000; stroke-width: 0.8"/>
      </g>
     </g>
     <g id="text_14">
      <!-- 40 -->
      <g transform="translate(73 104.761136) scale(0.1 -0.1)">
       <defs>
        <path id="SimHei-34" d="M 2000 1100 
L 75 1100 
L 75 1525 
L 2100 4450 
L 2475 4450 
L 2475 1525 
L 3075 1525 
L 3075 1100 
L 2475 1100 
L 2475 150 
L 2000 150 
L 2000 1100 
z
M 2000 1525 
L 2000 3500 
L 600 1525 
L 2000 1525 
z
" transform="scale(0.015625)"/>
       </defs>
       <use xlink:href="#SimHei-34"/>
       <use xlink:href="#SimHei-30" x="50"/>
      </g>
     </g>
    </g>
    <g id="text_15">
     <!-- 需求量 -->
     <g transform="translate(67.75 233.16) rotate(-90) scale(0.1 -0.1)">
      <defs>
       <path id="SimHei-9700" d="M 5150 2100 
Q 5500 2100 5975 2125 
L 5975 1700 
Q 5500 1725 5150 1725 
L 3425 1725 
Q 3300 1500 3250 1275 
L 5600 1275 
Q 5575 950 5575 700 
L 5575 -50 
Q 5575 -350 5425 -437 
Q 5275 -525 4775 -625 
Q 4750 -400 4550 -100 
Q 4950 -100 5025 -50 
Q 5100 0 5100 200 
L 5100 900 
L 4125 900 
L 4125 -375 
L 3650 -375 
L 3650 900 
L 2775 900 
L 2775 -375 
L 2300 -375 
L 2300 900 
L 1350 900 
L 1350 -575 
L 875 -575 
Q 900 -225 900 175 
L 900 575 
Q 900 900 875 1275 
L 2800 1275 
Q 2875 1500 2925 1725 
L 1350 1725 
Q 925 1725 525 1700 
L 525 2125 
Q 900 2100 1325 2100 
L 5150 2100 
z
M 4700 5075 
Q 5075 5075 5550 5100 
L 5550 4675 
Q 5075 4700 4700 4700 
L 3475 4700 
L 3475 4275 
L 5975 4275 
L 5975 3100 
L 5500 3100 
L 5500 3900 
L 3475 3900 
L 3475 3200 
Q 3475 2775 3500 2425 
L 2975 2425 
Q 3000 2750 3000 3175 
L 3000 3900 
L 950 3900 
L 950 3100 
L 450 3100 
Q 450 3375 462 3650 
Q 475 3925 450 4275 
L 3000 4275 
L 3000 4700 
L 1775 4700 
Q 1400 4700 1025 4675 
L 1025 5100 
Q 1400 5075 1750 5075 
L 4700 5075 
z
M 2475 2450 
L 1250 2450 
L 1250 2800 
L 2475 2800 
L 2475 2450 
z
M 2500 3150 
L 1325 3150 
L 1325 3500 
L 2500 3500 
L 2500 3150 
z
M 5000 3175 
L 3825 3175 
L 3825 3525 
L 5000 3525 
L 5000 3175 
z
M 5025 2500 
L 3850 2500 
L 3850 2850 
L 5025 2850 
L 5025 2500 
z
" transform="scale(0.015625)"/>
       <path id="SimHei-6c42" d="M 475 4025 
Q 875 4000 1325 4000 
L 2875 4000 
Q 2875 4725 2850 5125 
L 3400 5125 
Q 3375 4725 3375 4000 
L 5150 4000 
Q 5500 4000 5925 4025 
L 5925 3575 
Q 5475 3600 5150 3600 
L 3375 3600 
Q 3400 3200 3612 2750 
Q 3825 2300 4050 2000 
Q 4600 2450 5075 3150 
Q 5250 2950 5575 2750 
Q 5275 2600 4250 1650 
Q 4575 1225 5037 850 
Q 5500 475 6050 325 
Q 5700 125 5550 -150 
Q 5000 150 4437 687 
Q 3875 1225 3375 2375 
L 3375 150 
Q 3400 -225 3137 -350 
Q 2875 -475 2375 -525 
Q 2325 -275 2150 25 
Q 2575 0 2737 37 
Q 2900 75 2875 300 
L 2875 1675 
Q 1875 900 1437 550 
Q 1000 200 725 -50 
Q 500 200 300 400 
Q 650 575 1200 937 
Q 1750 1300 2875 2250 
L 2875 3600 
L 1325 3600 
Q 875 3600 475 3575 
L 475 4025 
z
M 1225 3175 
Q 1775 2725 2250 2325 
L 1825 1950 
Q 1450 2375 825 2825 
L 1225 3175 
z
M 4500 5100 
Q 4900 4825 5300 4425 
Q 5125 4300 4925 4100 
Q 4650 4400 4125 4825 
Q 4275 4950 4500 5100 
z
" transform="scale(0.015625)"/>
       <path id="SimHei-91cf" d="M 5250 2500 
Q 5225 2200 5225 1700 
Q 5225 1225 5250 950 
L 3425 950 
L 3425 625 
L 4575 625 
Q 5000 625 5375 650 
L 5375 275 
Q 5025 300 4575 300 
L 3425 300 
L 3425 -75 
L 5125 -75 
Q 5525 -75 5925 -50 
L 5925 -425 
Q 5525 -400 5125 -400 
L 1275 -400 
Q 900 -400 475 -425 
L 475 -50 
Q 925 -50 1275 -75 
L 2975 -75 
L 2975 300 
L 1725 300 
Q 1350 300 975 250 
L 975 650 
Q 1375 625 1725 625 
L 2975 625 
L 2975 950 
L 1150 950 
Q 1175 1375 1175 1775 
Q 1175 2175 1150 2500 
L 5250 2500 
z
M 5200 4950 
Q 5175 4575 5175 4250 
Q 5175 3925 5200 3400 
L 1200 3400 
Q 1225 3925 1225 4250 
Q 1225 4575 1200 4950 
L 5200 4950 
z
M 4900 3100 
Q 5500 3125 6000 3150 
L 6000 2750 
Q 5500 2775 4925 2775 
L 1650 2775 
Q 975 2775 325 2750 
L 325 3150 
Q 975 3125 1650 3100 
L 4900 3100 
z
M 4725 3700 
L 4725 4025 
L 1675 4025 
L 1675 3700 
L 4725 3700 
z
M 4725 4350 
L 4725 4650 
L 1675 4650 
L 1675 4350 
L 4725 4350 
z
M 4750 1875 
L 4750 2175 
L 3425 2175 
L 3425 1875 
L 4750 1875 
z
M 2975 1875 
L 2975 2175 
L 1650 2175 
L 1650 1875 
L 2975 1875 
z
M 2975 1275 
L 2975 1550 
L 1650 1550 
L 1650 1275 
L 2975 1275 
z
M 4750 1275 
L 4750 1550 
L 3425 1550 
L 3425 1275 
L 4750 1275 
z
" transform="scale(0.015625)"/>
      </defs>
      <use xlink:href="#SimHei-9700"/>
      <use xlink:href="#SimHei-6c42" x="100"/>
      <use xlink:href="#SimHei-91cf" x="200"/>
     </g>
    </g>
   </g>
   <g id="line2d_27">
    <path d="M 115.363636 328.123636 
L 118.245868 252.523636 
L 121.128099 321.250909 
L 126.892562 362.487273 
L 132.657025 334.996364 
L 135.539256 334.996364 
L 138.421488 190.669091 
L 141.303719 341.869091 
L 144.18595 348.741818 
L 149.950413 307.505455 
L 152.832645 348.741818 
L 155.714876 314.378182 
L 158.597107 231.905455 
L 161.479339 348.741818 
L 164.36157 369.36 
L 167.243802 286.887273 
L 170.126033 334.996364 
L 173.008264 355.614545 
L 175.890496 321.250909 
L 178.772727 369.36 
L 181.654959 300.632727 
L 184.53719 334.996364 
L 187.419421 231.905455 
L 190.301653 348.741818 
L 193.183884 369.36 
L 196.066116 176.923636 
L 198.948347 362.487273 
L 201.830579 197.541818 
L 204.71281 286.887273 
L 207.595041 307.505455 
L 210.477273 273.141818 
L 213.359504 334.996364 
L 216.241736 293.76 
L 219.123967 266.269091 
L 222.006198 225.032727 
L 224.88843 266.269091 
L 227.770661 204.414545 
L 230.652893 286.887273 
L 233.535124 286.887273 
L 236.417355 334.996364 
L 239.299587 66.96 
L 242.181818 293.76 
L 245.06405 307.505455 
L 247.946281 307.505455 
L 250.828512 142.56 
L 253.710744 362.487273 
L 256.592975 341.869091 
L 259.475207 369.36 
L 262.357438 355.614545 
L 271.004132 328.123636 
L 282.533058 369.36 
L 285.415289 362.487273 
L 291.179752 328.123636 
L 294.061983 307.505455 
L 296.944215 355.614545 
L 299.826446 314.378182 
L 302.708678 307.505455 
L 305.590909 273.141818 
L 308.47314 369.36 
L 311.355372 273.141818 
L 317.119835 328.123636 
L 320.002066 362.487273 
L 325.766529 293.76 
L 328.64876 300.632727 
L 331.530992 321.250909 
L 334.413223 362.487273 
L 340.177686 362.487273 
L 343.059917 355.614545 
L 345.942149 341.869091 
L 351.706612 307.505455 
L 354.588843 362.487273 
L 357.471074 334.996364 
L 360.353306 355.614545 
L 363.235537 341.869091 
L 366.117769 280.014545 
L 369 348.741818 
L 371.882231 369.36 
L 374.764463 259.396364 
L 383.411157 348.741818 
L 386.293388 328.123636 
L 392.057851 334.996364 
L 394.940083 369.36 
L 400.704545 348.741818 
L 403.586777 348.741818 
L 406.469008 369.36 
L 409.35124 341.869091 
L 412.233471 341.869091 
L 420.880165 334.996364 
L 423.762397 348.741818 
L 426.644628 355.614545 
L 435.291322 369.36 
L 438.173554 334.996364 
L 443.938017 341.869091 
L 449.702479 369.36 
L 455.466942 362.487273 
L 458.349174 355.614545 
L 461.231405 321.250909 
L 464.113636 341.869091 
L 466.995868 334.996364 
L 469.878099 362.487273 
L 472.760331 348.741818 
L 475.642562 362.487273 
L 481.407025 369.36 
L 484.289256 369.36 
L 487.171488 355.614545 
L 490.053719 369.36 
L 501.582645 369.36 
L 510.229339 328.123636 
L 513.11157 348.741818 
L 515.993802 362.487273 
L 518.876033 314.378182 
L 524.640496 355.614545 
L 527.522727 369.36 
L 530.404959 362.487273 
L 533.28719 369.36 
L 536.169421 362.487273 
L 539.051653 321.250909 
L 541.933884 348.741818 
L 544.816116 348.741818 
L 547.698347 341.869091 
L 550.580579 341.869091 
L 553.46281 348.741818 
L 556.345041 341.869091 
L 562.109504 286.887273 
L 564.991736 355.614545 
L 567.873967 348.741818 
L 576.520661 369.36 
L 588.049587 307.505455 
L 590.931818 341.869091 
L 593.81405 362.487273 
L 596.696281 293.76 
L 599.578512 307.505455 
L 602.460744 334.996364 
L 605.342975 355.614545 
L 608.225207 369.36 
L 611.107438 348.741818 
L 613.989669 369.36 
L 616.871901 369.36 
L 619.754132 307.505455 
L 622.636364 348.741818 
L 622.636364 348.741818 
" clip-path="url(#p77de350146)" style="fill: none; stroke: #0000ff; stroke-width: 1.5; stroke-linecap: square"/>
    <defs>
     <path id="m00648d36b1" d="M 0 3 
C 0.795609 3 1.55874 2.683901 2.12132 2.12132 
C 2.683901 1.55874 3 0.795609 3 0 
C 3 -0.795609 2.683901 -1.55874 2.12132 -2.12132 
C 1.55874 -2.683901 0.795609 -3 0 -3 
C -0.795609 -3 -1.55874 -2.683901 -2.12132 -2.12132 
C -2.683901 -1.55874 -3 -0.795609 -3 0 
C -3 0.795609 -2.683901 1.55874 -2.12132 2.12132 
C -1.55874 2.683901 -0.795609 3 0 3 
z
" style="stroke: #0000ff"/>
    </defs>
    <g clip-path="url(#p77de350146)">
     <use xlink:href="#m00648d36b1" x="115.363636" y="328.123636" style="fill: #0000ff; stroke: #0000ff"/>
     <use xlink:href="#m00648d36b1" x="118.245868" y="252.523636" style="fill: #0000ff; stroke: #0000ff"/>
     <use xlink:href="#m00648d36b1" x="121.128099" y="321.250909" style="fill: #0000ff; stroke: #0000ff"/>
     <use xlink:href="#m00648d36b1" x="126.892562" y="362.487273" style="fill: #0000ff; stroke: #0000ff"/>
     <use xlink:href="#m00648d36b1" x="132.657025" y="334.996364" style="fill: #0000ff; stroke: #0000ff"/>
     <use xlink:href="#m00648d36b1" x="135.539256" y="334.996364" style="fill: #0000ff; stroke: #0000ff"/>
     <use xlink:href="#m00648d36b1" x="138.421488" y="190.669091" style="fill: #0000ff; stroke: #0000ff"/>
     <use xlink:href="#m00648d36b1" x="141.303719" y="341.869091" style="fill: #0000ff; stroke: #0000ff"/>
     <use xlink:href="#m00648d36b1" x="144.18595" y="348.741818" style="fill: #0000ff; stroke: #0000ff"/>
     <use xlink:href="#m00648d36b1" x="147.068182" y="328.123636" style="fill: #0000ff; stroke: #0000ff"/>
     <use xlink:href="#m00648d36b1" x="149.950413" y="307.505455" style="fill: #0000ff; stroke: #0000ff"/>
     <use xlink:href="#m00648d36b1" x="152.832645" y="348.741818" style="fill: #0000ff; stroke: #0000ff"/>
     <use xlink:href="#m00648d36b1" x="155.714876" y="314.378182" style="fill: #0000ff; stroke: #0000ff"/>
     <use xlink:href="#m00648d36b1" x="158.597107" y="231.905455" style="fill: #0000ff; stroke: #0000ff"/>
     <use xlink:href="#m00648d36b1" x="161.479339" y="348.741818" style="fill: #0000ff; stroke: #0000ff"/>
     <use xlink:href="#m00648d36b1" x="164.36157" y="369.36" style="fill: #0000ff; stroke: #0000ff"/>
     <use xlink:href="#m00648d36b1" x="167.243802" y="286.887273" style="fill: #0000ff; stroke: #0000ff"/>
     <use xlink:href="#m00648d36b1" x="170.126033" y="334.996364" style="fill: #0000ff; stroke: #0000ff"/>
     <use xlink:href="#m00648d36b1" x="173.008264" y="355.614545" style="fill: #0000ff; stroke: #0000ff"/>
     <use xlink:href="#m00648d36b1" x="175.890496" y="321.250909" style="fill: #0000ff; stroke: #0000ff"/>
     <use xlink:href="#m00648d36b1" x="178.772727" y="369.36" style="fill: #0000ff; stroke: #0000ff"/>
     <use xlink:href="#m00648d36b1" x="181.654959" y="300.632727" style="fill: #0000ff; stroke: #0000ff"/>
     <use xlink:href="#m00648d36b1" x="184.53719" y="334.996364" style="fill: #0000ff; stroke: #0000ff"/>
     <use xlink:href="#m00648d36b1" x="187.419421" y="231.905455" style="fill: #0000ff; stroke: #0000ff"/>
     <use xlink:href="#m00648d36b1" x="190.301653" y="348.741818" style="fill: #0000ff; stroke: #0000ff"/>
     <use xlink:href="#m00648d36b1" x="193.183884" y="369.36" style="fill: #0000ff; stroke: #0000ff"/>
     <use xlink:href="#m00648d36b1" x="196.066116" y="176.923636" style="fill: #0000ff; stroke: #0000ff"/>
     <use xlink:href="#m00648d36b1" x="198.948347" y="362.487273" style="fill: #0000ff; stroke: #0000ff"/>
     <use xlink:href="#m00648d36b1" x="201.830579" y="197.541818" style="fill: #0000ff; stroke: #0000ff"/>
     <use xlink:href="#m00648d36b1" x="204.71281" y="286.887273" style="fill: #0000ff; stroke: #0000ff"/>
     <use xlink:href="#m00648d36b1" x="207.595041" y="307.505455" style="fill: #0000ff; stroke: #0000ff"/>
     <use xlink:href="#m00648d36b1" x="210.477273" y="273.141818" style="fill: #0000ff; stroke: #0000ff"/>
     <use xlink:href="#m00648d36b1" x="213.359504" y="334.996364" style="fill: #0000ff; stroke: #0000ff"/>
     <use xlink:href="#m00648d36b1" x="216.241736" y="293.76" style="fill: #0000ff; stroke: #0000ff"/>
     <use xlink:href="#m00648d36b1" x="219.123967" y="266.269091" style="fill: #0000ff; stroke: #0000ff"/>
     <use xlink:href="#m00648d36b1" x="222.006198" y="225.032727" style="fill: #0000ff; stroke: #0000ff"/>
     <use xlink:href="#m00648d36b1" x="224.88843" y="266.269091" style="fill: #0000ff; stroke: #0000ff"/>
     <use xlink:href="#m00648d36b1" x="227.770661" y="204.414545" style="fill: #0000ff; stroke: #0000ff"/>
     <use xlink:href="#m00648d36b1" x="230.652893" y="286.887273" style="fill: #0000ff; stroke: #0000ff"/>
     <use xlink:href="#m00648d36b1" x="233.535124" y="286.887273" style="fill: #0000ff; stroke: #0000ff"/>
     <use xlink:href="#m00648d36b1" x="236.417355" y="334.996364" style="fill: #0000ff; stroke: #0000ff"/>
     <use xlink:href="#m00648d36b1" x="239.299587" y="66.96" style="fill: #0000ff; stroke: #0000ff"/>
     <use xlink:href="#m00648d36b1" x="242.181818" y="293.76" style="fill: #0000ff; stroke: #0000ff"/>
     <use xlink:href="#m00648d36b1" x="245.06405" y="307.505455" style="fill: #0000ff; stroke: #0000ff"/>
     <use xlink:href="#m00648d36b1" x="247.946281" y="307.505455" style="fill: #0000ff; stroke: #0000ff"/>
     <use xlink:href="#m00648d36b1" x="250.828512" y="142.56" style="fill: #0000ff; stroke: #0000ff"/>
     <use xlink:href="#m00648d36b1" x="253.710744" y="362.487273" style="fill: #0000ff; stroke: #0000ff"/>
     <use xlink:href="#m00648d36b1" x="256.592975" y="341.869091" style="fill: #0000ff; stroke: #0000ff"/>
     <use xlink:href="#m00648d36b1" x="259.475207" y="369.36" style="fill: #0000ff; stroke: #0000ff"/>
     <use xlink:href="#m00648d36b1" x="262.357438" y="355.614545" style="fill: #0000ff; stroke: #0000ff"/>
     <use xlink:href="#m00648d36b1" x="271.004132" y="328.123636" style="fill: #0000ff; stroke: #0000ff"/>
     <use xlink:href="#m00648d36b1" x="282.533058" y="369.36" style="fill: #0000ff; stroke: #0000ff"/>
     <use xlink:href="#m00648d36b1" x="285.415289" y="362.487273" style="fill: #0000ff; stroke: #0000ff"/>
     <use xlink:href="#m00648d36b1" x="291.179752" y="328.123636" style="fill: #0000ff; stroke: #0000ff"/>
     <use xlink:href="#m00648d36b1" x="294.061983" y="307.505455" style="fill: #0000ff; stroke: #0000ff"/>
     <use xlink:href="#m00648d36b1" x="296.944215" y="355.614545" style="fill: #0000ff; stroke: #0000ff"/>
     <use xlink:href="#m00648d36b1" x="299.826446" y="314.378182" style="fill: #0000ff; stroke: #0000ff"/>
     <use xlink:href="#m00648d36b1" x="302.708678" y="307.505455" style="fill: #0000ff; stroke: #0000ff"/>
     <use xlink:href="#m00648d36b1" x="305.590909" y="273.141818" style="fill: #0000ff; stroke: #0000ff"/>
     <use xlink:href="#m00648d36b1" x="308.47314" y="369.36" style="fill: #0000ff; stroke: #0000ff"/>
     <use xlink:href="#m00648d36b1" x="311.355372" y="273.141818" style="fill: #0000ff; stroke: #0000ff"/>
     <use xlink:href="#m00648d36b1" x="317.119835" y="328.123636" style="fill: #0000ff; stroke: #0000ff"/>
     <use xlink:href="#m00648d36b1" x="320.002066" y="362.487273" style="fill: #0000ff; stroke: #0000ff"/>
     <use xlink:href="#m00648d36b1" x="325.766529" y="293.76" style="fill: #0000ff; stroke: #0000ff"/>
     <use xlink:href="#m00648d36b1" x="328.64876" y="300.632727" style="fill: #0000ff; stroke: #0000ff"/>
     <use xlink:href="#m00648d36b1" x="331.530992" y="321.250909" style="fill: #0000ff; stroke: #0000ff"/>
     <use xlink:href="#m00648d36b1" x="334.413223" y="362.487273" style="fill: #0000ff; stroke: #0000ff"/>
     <use xlink:href="#m00648d36b1" x="340.177686" y="362.487273" style="fill: #0000ff; stroke: #0000ff"/>
     <use xlink:href="#m00648d36b1" x="343.059917" y="355.614545" style="fill: #0000ff; stroke: #0000ff"/>
     <use xlink:href="#m00648d36b1" x="345.942149" y="341.869091" style="fill: #0000ff; stroke: #0000ff"/>
     <use xlink:href="#m00648d36b1" x="351.706612" y="307.505455" style="fill: #0000ff; stroke: #0000ff"/>
     <use xlink:href="#m00648d36b1" x="354.588843" y="362.487273" style="fill: #0000ff; stroke: #0000ff"/>
     <use xlink:href="#m00648d36b1" x="357.471074" y="334.996364" style="fill: #0000ff; stroke: #0000ff"/>
     <use xlink:href="#m00648d36b1" x="360.353306" y="355.614545" style="fill: #0000ff; stroke: #0000ff"/>
     <use xlink:href="#m00648d36b1" x="363.235537" y="341.869091" style="fill: #0000ff; stroke: #0000ff"/>
     <use xlink:href="#m00648d36b1" x="366.117769" y="280.014545" style="fill: #0000ff; stroke: #0000ff"/>
     <use xlink:href="#m00648d36b1" x="369" y="348.741818" style="fill: #0000ff; stroke: #0000ff"/>
     <use xlink:href="#m00648d36b1" x="371.882231" y="369.36" style="fill: #0000ff; stroke: #0000ff"/>
     <use xlink:href="#m00648d36b1" x="374.764463" y="259.396364" style="fill: #0000ff; stroke: #0000ff"/>
     <use xlink:href="#m00648d36b1" x="383.411157" y="348.741818" style="fill: #0000ff; stroke: #0000ff"/>
     <use xlink:href="#m00648d36b1" x="386.293388" y="328.123636" style="fill: #0000ff; stroke: #0000ff"/>
     <use xlink:href="#m00648d36b1" x="392.057851" y="334.996364" style="fill: #0000ff; stroke: #0000ff"/>
     <use xlink:href="#m00648d36b1" x="394.940083" y="369.36" style="fill: #0000ff; stroke: #0000ff"/>
     <use xlink:href="#m00648d36b1" x="400.704545" y="348.741818" style="fill: #0000ff; stroke: #0000ff"/>
     <use xlink:href="#m00648d36b1" x="403.586777" y="348.741818" style="fill: #0000ff; stroke: #0000ff"/>
     <use xlink:href="#m00648d36b1" x="406.469008" y="369.36" style="fill: #0000ff; stroke: #0000ff"/>
     <use xlink:href="#m00648d36b1" x="409.35124" y="341.869091" style="fill: #0000ff; stroke: #0000ff"/>
     <use xlink:href="#m00648d36b1" x="412.233471" y="341.869091" style="fill: #0000ff; stroke: #0000ff"/>
     <use xlink:href="#m00648d36b1" x="420.880165" y="334.996364" style="fill: #0000ff; stroke: #0000ff"/>
     <use xlink:href="#m00648d36b1" x="423.762397" y="348.741818" style="fill: #0000ff; stroke: #0000ff"/>
     <use xlink:href="#m00648d36b1" x="426.644628" y="355.614545" style="fill: #0000ff; stroke: #0000ff"/>
     <use xlink:href="#m00648d36b1" x="435.291322" y="369.36" style="fill: #0000ff; stroke: #0000ff"/>
     <use xlink:href="#m00648d36b1" x="438.173554" y="334.996364" style="fill: #0000ff; stroke: #0000ff"/>
     <use xlink:href="#m00648d36b1" x="443.938017" y="341.869091" style="fill: #0000ff; stroke: #0000ff"/>
     <use xlink:href="#m00648d36b1" x="449.702479" y="369.36" style="fill: #0000ff; stroke: #0000ff"/>
     <use xlink:href="#m00648d36b1" x="455.466942" y="362.487273" style="fill: #0000ff; stroke: #0000ff"/>
     <use xlink:href="#m00648d36b1" x="458.349174" y="355.614545" style="fill: #0000ff; stroke: #0000ff"/>
     <use xlink:href="#m00648d36b1" x="461.231405" y="321.250909" style="fill: #0000ff; stroke: #0000ff"/>
     <use xlink:href="#m00648d36b1" x="464.113636" y="341.869091" style="fill: #0000ff; stroke: #0000ff"/>
     <use xlink:href="#m00648d36b1" x="466.995868" y="334.996364" style="fill: #0000ff; stroke: #0000ff"/>
     <use xlink:href="#m00648d36b1" x="469.878099" y="362.487273" style="fill: #0000ff; stroke: #0000ff"/>
     <use xlink:href="#m00648d36b1" x="472.760331" y="348.741818" style="fill: #0000ff; stroke: #0000ff"/>
     <use xlink:href="#m00648d36b1" x="475.642562" y="362.487273" style="fill: #0000ff; stroke: #0000ff"/>
     <use xlink:href="#m00648d36b1" x="481.407025" y="369.36" style="fill: #0000ff; stroke: #0000ff"/>
     <use xlink:href="#m00648d36b1" x="484.289256" y="369.36" style="fill: #0000ff; stroke: #0000ff"/>
     <use xlink:href="#m00648d36b1" x="487.171488" y="355.614545" style="fill: #0000ff; stroke: #0000ff"/>
     <use xlink:href="#m00648d36b1" x="490.053719" y="369.36" style="fill: #0000ff; stroke: #0000ff"/>
     <use xlink:href="#m00648d36b1" x="501.582645" y="369.36" style="fill: #0000ff; stroke: #0000ff"/>
     <use xlink:href="#m00648d36b1" x="510.229339" y="328.123636" style="fill: #0000ff; stroke: #0000ff"/>
     <use xlink:href="#m00648d36b1" x="513.11157" y="348.741818" style="fill: #0000ff; stroke: #0000ff"/>
     <use xlink:href="#m00648d36b1" x="515.993802" y="362.487273" style="fill: #0000ff; stroke: #0000ff"/>
     <use xlink:href="#m00648d36b1" x="518.876033" y="314.378182" style="fill: #0000ff; stroke: #0000ff"/>
     <use xlink:href="#m00648d36b1" x="524.640496" y="355.614545" style="fill: #0000ff; stroke: #0000ff"/>
     <use xlink:href="#m00648d36b1" x="527.522727" y="369.36" style="fill: #0000ff; stroke: #0000ff"/>
     <use xlink:href="#m00648d36b1" x="530.404959" y="362.487273" style="fill: #0000ff; stroke: #0000ff"/>
     <use xlink:href="#m00648d36b1" x="533.28719" y="369.36" style="fill: #0000ff; stroke: #0000ff"/>
     <use xlink:href="#m00648d36b1" x="536.169421" y="362.487273" style="fill: #0000ff; stroke: #0000ff"/>
     <use xlink:href="#m00648d36b1" x="539.051653" y="321.250909" style="fill: #0000ff; stroke: #0000ff"/>
     <use xlink:href="#m00648d36b1" x="541.933884" y="348.741818" style="fill: #0000ff; stroke: #0000ff"/>
     <use xlink:href="#m00648d36b1" x="544.816116" y="348.741818" style="fill: #0000ff; stroke: #0000ff"/>
     <use xlink:href="#m00648d36b1" x="547.698347" y="341.869091" style="fill: #0000ff; stroke: #0000ff"/>
     <use xlink:href="#m00648d36b1" x="550.580579" y="341.869091" style="fill: #0000ff; stroke: #0000ff"/>
     <use xlink:href="#m00648d36b1" x="553.46281" y="348.741818" style="fill: #0000ff; stroke: #0000ff"/>
     <use xlink:href="#m00648d36b1" x="556.345041" y="341.869091" style="fill: #0000ff; stroke: #0000ff"/>
     <use xlink:href="#m00648d36b1" x="562.109504" y="286.887273" style="fill: #0000ff; stroke: #0000ff"/>
     <use xlink:href="#m00648d36b1" x="564.991736" y="355.614545" style="fill: #0000ff; stroke: #0000ff"/>
     <use xlink:href="#m00648d36b1" x="567.873967" y="348.741818" style="fill: #0000ff; stroke: #0000ff"/>
     <use xlink:href="#m00648d36b1" x="576.520661" y="369.36" style="fill: #0000ff; stroke: #0000ff"/>
     <use xlink:href="#m00648d36b1" x="588.049587" y="307.505455" style="fill: #0000ff; stroke: #0000ff"/>
     <use xlink:href="#m00648d36b1" x="590.931818" y="341.869091" style="fill: #0000ff; stroke: #0000ff"/>
     <use xlink:href="#m00648d36b1" x="593.81405" y="362.487273" style="fill: #0000ff; stroke: #0000ff"/>
     <use xlink:href="#m00648d36b1" x="596.696281" y="293.76" style="fill: #0000ff; stroke: #0000ff"/>
     <use xlink:href="#m00648d36b1" x="599.578512" y="307.505455" style="fill: #0000ff; stroke: #0000ff"/>
     <use xlink:href="#m00648d36b1" x="602.460744" y="334.996364" style="fill: #0000ff; stroke: #0000ff"/>
     <use xlink:href="#m00648d36b1" x="605.342975" y="355.614545" style="fill: #0000ff; stroke: #0000ff"/>
     <use xlink:href="#m00648d36b1" x="608.225207" y="369.36" style="fill: #0000ff; stroke: #0000ff"/>
     <use xlink:href="#m00648d36b1" x="611.107438" y="348.741818" style="fill: #0000ff; stroke: #0000ff"/>
     <use xlink:href="#m00648d36b1" x="613.989669" y="369.36" style="fill: #0000ff; stroke: #0000ff"/>
     <use xlink:href="#m00648d36b1" x="616.871901" y="369.36" style="fill: #0000ff; stroke: #0000ff"/>
     <use xlink:href="#m00648d36b1" x="619.754132" y="307.505455" style="fill: #0000ff; stroke: #0000ff"/>
     <use xlink:href="#m00648d36b1" x="622.636364" y="348.741818" style="fill: #0000ff; stroke: #0000ff"/>
    </g>
   </g>
   <g id="patch_3">
    <path d="M 90 384.48 
L 90 51.84 
" style="fill: none; stroke: #000000; stroke-width: 0.8; stroke-linejoin: miter; stroke-linecap: square"/>
   </g>
   <g id="patch_4">
    <path d="M 648 384.48 
L 648 51.84 
" style="fill: none; stroke: #000000; stroke-width: 0.8; stroke-linejoin: miter; stroke-linecap: square"/>
   </g>
   <g id="patch_5">
    <path d="M 90 384.48 
L 648 384.48 
" style="fill: none; stroke: #000000; stroke-width: 0.8; stroke-linejoin: miter; stroke-linecap: square"/>
   </g>
   <g id="patch_6">
    <path d="M 90 51.84 
L 648 51.84 
" style="fill: none; stroke: #000000; stroke-width: 0.8; stroke-linejoin: miter; stroke-linecap: square"/>
   </g>
   <g id="text_16">
    <!-- 6004100008 每周需求量 -->
    <g transform="translate(306 45.84) scale(0.12 -0.12)">
     <defs>
      <path id="SimHei-36" d="M 250 1612 
Q 275 1975 387 2225 
Q 500 2475 725 2850 
L 1750 4450 
L 2325 4450 
L 1275 2800 
Q 1950 2975 2350 2750 
Q 2750 2525 2887 2237 
Q 3025 1950 3037 1612 
Q 3050 1275 2937 950 
Q 2825 625 2537 362 
Q 2250 100 1737 75 
Q 1225 50 862 262 
Q 500 475 362 862 
Q 225 1250 250 1612 
z
M 1025 787 
Q 1250 550 1625 525 
Q 2000 500 2250 775 
Q 2500 1050 2500 1575 
Q 2500 2100 2187 2300 
Q 1875 2500 1487 2450 
Q 1100 2400 925 2075 
Q 750 1750 775 1387 
Q 800 1025 1025 787 
z
" transform="scale(0.015625)"/>
      <path id="SimHei-38" d="M 175 1375 
Q 175 1675 325 1962 
Q 475 2250 825 2425 
Q 525 2600 425 2812 
Q 325 3025 312 3300 
Q 300 3575 387 3775 
Q 475 3975 650 4150 
Q 825 4325 1037 4387 
Q 1250 4450 1500 4450 
Q 1750 4450 1950 4400 
Q 2150 4350 2375 4187 
Q 2600 4025 2700 3725 
Q 2800 3425 2687 3025 
Q 2575 2625 2100 2400 
Q 2525 2275 2700 2012 
Q 2875 1750 2875 1375 
Q 2875 1000 2762 775 
Q 2650 550 2512 400 
Q 2375 250 2137 162 
Q 1900 75 1537 75 
Q 1175 75 912 162 
Q 650 250 475 425 
Q 300 600 237 837 
Q 175 1075 175 1375 
z
M 687 1400 
Q 675 1100 787 875 
Q 900 650 1200 587 
Q 1500 525 1825 600 
Q 2150 675 2275 950 
Q 2400 1225 2362 1500 
Q 2325 1775 2050 1962 
Q 1775 2150 1450 2125 
Q 1125 2100 912 1900 
Q 700 1700 687 1400 
z
M 775 3350 
Q 775 3100 950 2875 
Q 1125 2650 1500 2650 
Q 1875 2650 2062 2875 
Q 2250 3100 2237 3412 
Q 2225 3725 2012 3875 
Q 1800 4025 1437 4000 
Q 1075 3975 925 3787 
Q 775 3600 775 3350 
z
" transform="scale(0.015625)"/>
      <path id="SimHei-20" transform="scale(0.015625)"/>
      <path id="SimHei-6bcf" d="M 5225 3650 
Q 5175 3150 5150 2675 
L 5125 2200 
Q 5525 2200 6000 2225 
L 6000 1775 
Q 5625 1800 5100 1800 
L 5050 650 
Q 5325 650 5700 675 
L 5700 225 
Q 5400 250 5025 250 
Q 5000 -275 4775 -425 
Q 4550 -575 4000 -650 
Q 3950 -400 3775 -125 
Q 4375 -125 4475 -50 
Q 4575 25 4575 250 
L 1400 250 
L 1500 1100 
L 1550 1800 
L 1275 1800 
Q 825 1800 550 1775 
L 550 2225 
Q 975 2200 1275 2200 
L 1575 2200 
L 1625 2825 
L 1675 3650 
L 5225 3650 
z
M 2350 5000 
Q 2175 4825 2050 4600 
L 4875 4600 
Q 5275 4600 5775 4625 
L 5775 4175 
Q 5275 4200 4875 4200 
L 1825 4200 
L 1375 3625 
Q 1125 3325 775 2975 
Q 600 3175 350 3300 
Q 725 3575 1150 4112 
Q 1575 4650 1825 5250 
Q 2125 5075 2350 5000 
z
M 1975 1800 
L 1875 650 
L 4625 650 
L 4675 1800 
L 2950 1800 
Q 3575 1275 3825 1125 
Q 3625 925 3475 725 
Q 3100 1100 2650 1475 
Q 2775 1675 2875 1800 
L 1975 1800 
z
M 2975 3250 
Q 3125 3150 3287 3012 
Q 3450 2875 3800 2550 
Q 3650 2350 3525 2200 
L 4700 2200 
L 4750 3250 
L 2975 3250 
z
M 2075 3250 
L 2000 2200 
L 3425 2200 
Q 3150 2500 3012 2625 
Q 2875 2750 2700 2900 
Q 2800 3050 2925 3250 
L 2075 3250 
z
" transform="scale(0.015625)"/>
     </defs>
     <use xlink:href="#SimHei-36"/>
     <use xlink:href="#SimHei-30" x="50"/>
     <use xlink:href="#SimHei-30" x="100"/>
     <use xlink:href="#SimHei-34" x="150"/>
     <use xlink:href="#SimHei-31" x="200"/>
     <use xlink:href="#SimHei-30" x="250"/>
     <use xlink:href="#SimHei-30" x="300"/>
     <use xlink:href="#SimHei-30" x="350"/>
     <use xlink:href="#SimHei-30" x="400"/>
     <use xlink:href="#SimHei-38" x="450"/>
     <use xlink:href="#SimHei-20" x="500"/>
     <use xlink:href="#SimHei-6bcf" x="550"/>
     <use xlink:href="#SimHei-5468" x="650"/>
     <use xlink:href="#SimHei-9700" x="750"/>
     <use xlink:href="#SimHei-6c42" x="850"/>
     <use xlink:href="#SimHei-91cf" x="950"/>
    </g>
   </g>
  </g>
 </g>
 <defs>
  <clipPath id="p77de350146">
   <rect x="90" y="51.84" width="558" height="332.64"/>
  </clipPath>
 </defs>
</svg>
