<?xml version="1.0" encoding="utf-8" standalone="no"?>
<!DOCTYPE svg PUBLIC "-//W3C//DTD SVG 1.1//EN"
  "http://www.w3.org/Graphics/SVG/1.1/DTD/svg11.dtd">
<svg xmlns:xlink="http://www.w3.org/1999/xlink" width="720pt" height="432pt" viewBox="0 0 720 432" xmlns="http://www.w3.org/2000/svg" version="1.1">
 <metadata>
  <rdf:RDF xmlns:dc="http://purl.org/dc/elements/1.1/" xmlns:cc="http://creativecommons.org/ns#" xmlns:rdf="http://www.w3.org/1999/02/22-rdf-syntax-ns#">
   <cc:Work>
    <dc:type rdf:resource="http://purl.org/dc/dcmitype/StillImage"/>
    <dc:date>2024-08-17T14:07:48.480249</dc:date>
    <dc:format>image/svg+xml</dc:format>
    <dc:creator>
     <cc:Agent>
      <dc:title>Matplotlib v3.8.0, https://matplotlib.org/</dc:title>
     </cc:Agent>
    </dc:creator>
   </cc:Work>
  </rdf:RDF>
 </metadata>
 <defs>
  <style type="text/css">*{stroke-linejoin: round; stroke-linecap: butt}</style>
 </defs>
 <g id="figure_1">
  <g id="patch_1">
   <path d="M 0 432 
L 720 432 
L 720 0 
L 0 0 
z
" style="fill: #ffffff"/>
  </g>
  <g id="axes_1">
   <g id="patch_2">
    <path d="M 90 384.48 
L 648 384.48 
L 648 51.84 
L 90 51.84 
z
" style="fill: #ffffff"/>
   </g>
   <g id="matplotlib.axis_1">
    <g id="xtick_1">
     <g id="line2d_1">
      <path d="M 112.326075 384.48 
L 112.326075 51.84 
" clip-path="url(#pe2d9df4411)" style="fill: none; stroke: #b0b0b0; stroke-width: 0.8; stroke-linecap: square"/>
     </g>
     <g id="line2d_2">
      <defs>
       <path id="m60a2ff388f" d="M 0 0 
L 0 3.5 
" style="stroke: #000000; stroke-width: 0.8"/>
      </defs>
      <g>
       <use xlink:href="#m60a2ff388f" x="112.326075" y="384.48" style="stroke: #000000; stroke-width: 0.8"/>
      </g>
     </g>
     <g id="text_1">
      <!-- 0 -->
      <g transform="translate(109.826075 398.355) scale(0.1 -0.1)">
       <defs>
        <path id="SimHei-30" d="M 225 2537 
Q 250 3200 412 3587 
Q 575 3975 875 4225 
Q 1175 4475 1612 4475 
Q 2050 4475 2375 4112 
Q 2700 3750 2800 3200 
Q 2900 2650 2862 1937 
Q 2825 1225 2612 775 
Q 2400 325 1975 150 
Q 1550 -25 1125 187 
Q 700 400 525 750 
Q 350 1100 275 1487 
Q 200 1875 225 2537 
z
M 750 2687 
Q 675 2000 800 1462 
Q 925 925 1212 700 
Q 1500 475 1800 612 
Q 2100 750 2237 1162 
Q 2375 1575 2375 2062 
Q 2375 2550 2337 2950 
Q 2300 3350 2112 3675 
Q 1925 4000 1612 4012 
Q 1300 4025 1062 3700 
Q 825 3375 750 2687 
z
" transform="scale(0.015625)"/>
       </defs>
       <use xlink:href="#SimHei-30"/>
      </g>
     </g>
    </g>
    <g id="xtick_2">
     <g id="line2d_3">
      <path d="M 188.265106 384.48 
L 188.265106 51.84 
" clip-path="url(#pe2d9df4411)" style="fill: none; stroke: #b0b0b0; stroke-width: 0.8; stroke-linecap: square"/>
     </g>
     <g id="line2d_4">
      <g>
       <use xlink:href="#m60a2ff388f" x="188.265106" y="384.48" style="stroke: #000000; stroke-width: 0.8"/>
      </g>
     </g>
     <g id="text_2">
      <!-- 25 -->
      <g transform="translate(183.265106 398.355) scale(0.1 -0.1)">
       <defs>
        <path id="SimHei-32" d="M 300 250 
Q 325 625 650 925 
Q 975 1225 1475 1862 
Q 1975 2500 2125 2850 
Q 2275 3200 2237 3450 
Q 2200 3700 2000 3862 
Q 1800 4025 1537 4000 
Q 1275 3975 1037 3800 
Q 800 3625 675 3275 
L 200 3350 
Q 400 3925 712 4187 
Q 1025 4450 1450 4475 
Q 1700 4500 1900 4462 
Q 2100 4425 2312 4287 
Q 2525 4150 2662 3875 
Q 2800 3600 2762 3212 
Q 2725 2825 2375 2287 
Q 2025 1750 1025 600 
L 2825 600 
L 2825 150 
L 300 150 
L 300 250 
z
" transform="scale(0.015625)"/>
        <path id="SimHei-35" d="M 550 1325 
Q 725 650 1150 575 
Q 1575 500 1837 662 
Q 2100 825 2212 1087 
Q 2325 1350 2312 1675 
Q 2300 2000 2137 2225 
Q 1975 2450 1725 2525 
Q 1475 2600 1162 2525 
Q 850 2450 650 2175 
L 225 2225 
Q 275 2375 700 4375 
L 2675 4375 
L 2675 3925 
L 1075 3925 
Q 950 3250 825 2850 
Q 1200 3025 1525 3012 
Q 1850 3000 2150 2862 
Q 2450 2725 2587 2487 
Q 2725 2250 2787 2012 
Q 2850 1775 2837 1500 
Q 2825 1225 2725 937 
Q 2625 650 2425 462 
Q 2225 275 1937 162 
Q 1650 50 1275 75 
Q 900 100 562 350 
Q 225 600 100 1200 
L 550 1325 
z
" transform="scale(0.015625)"/>
       </defs>
       <use xlink:href="#SimHei-32"/>
       <use xlink:href="#SimHei-35" x="50"/>
      </g>
     </g>
    </g>
    <g id="xtick_3">
     <g id="line2d_5">
      <path d="M 264.204137 384.48 
L 264.204137 51.84 
" clip-path="url(#pe2d9df4411)" style="fill: none; stroke: #b0b0b0; stroke-width: 0.8; stroke-linecap: square"/>
     </g>
     <g id="line2d_6">
      <g>
       <use xlink:href="#m60a2ff388f" x="264.204137" y="384.48" style="stroke: #000000; stroke-width: 0.8"/>
      </g>
     </g>
     <g id="text_3">
      <!-- 50 -->
      <g transform="translate(259.204137 398.355) scale(0.1 -0.1)">
       <use xlink:href="#SimHei-35"/>
       <use xlink:href="#SimHei-30" x="50"/>
      </g>
     </g>
    </g>
    <g id="xtick_4">
     <g id="line2d_7">
      <path d="M 340.143168 384.48 
L 340.143168 51.84 
" clip-path="url(#pe2d9df4411)" style="fill: none; stroke: #b0b0b0; stroke-width: 0.8; stroke-linecap: square"/>
     </g>
     <g id="line2d_8">
      <g>
       <use xlink:href="#m60a2ff388f" x="340.143168" y="384.48" style="stroke: #000000; stroke-width: 0.8"/>
      </g>
     </g>
     <g id="text_4">
      <!-- 75 -->
      <g transform="translate(335.143168 398.355) scale(0.1 -0.1)">
       <defs>
        <path id="SimHei-37" d="M 850 150 
Q 1300 2050 2425 3925 
L 275 3925 
L 275 4375 
L 2950 4375 
L 2950 3950 
Q 1775 2050 1400 150 
L 850 150 
z
" transform="scale(0.015625)"/>
       </defs>
       <use xlink:href="#SimHei-37"/>
       <use xlink:href="#SimHei-35" x="50"/>
      </g>
     </g>
    </g>
    <g id="xtick_5">
     <g id="line2d_9">
      <path d="M 416.082199 384.48 
L 416.082199 51.84 
" clip-path="url(#pe2d9df4411)" style="fill: none; stroke: #b0b0b0; stroke-width: 0.8; stroke-linecap: square"/>
     </g>
     <g id="line2d_10">
      <g>
       <use xlink:href="#m60a2ff388f" x="416.082199" y="384.48" style="stroke: #000000; stroke-width: 0.8"/>
      </g>
     </g>
     <g id="text_5">
      <!-- 100 -->
      <g transform="translate(408.582199 398.355) scale(0.1 -0.1)">
       <defs>
        <path id="SimHei-31" d="M 1400 3600 
Q 1075 3275 575 2975 
L 575 3450 
Q 1200 3875 1600 4450 
L 1900 4450 
L 1900 150 
L 1400 150 
L 1400 3600 
z
" transform="scale(0.015625)"/>
       </defs>
       <use xlink:href="#SimHei-31"/>
       <use xlink:href="#SimHei-30" x="50"/>
       <use xlink:href="#SimHei-30" x="100"/>
      </g>
     </g>
    </g>
    <g id="xtick_6">
     <g id="line2d_11">
      <path d="M 492.02123 384.48 
L 492.02123 51.84 
" clip-path="url(#pe2d9df4411)" style="fill: none; stroke: #b0b0b0; stroke-width: 0.8; stroke-linecap: square"/>
     </g>
     <g id="line2d_12">
      <g>
       <use xlink:href="#m60a2ff388f" x="492.02123" y="384.48" style="stroke: #000000; stroke-width: 0.8"/>
      </g>
     </g>
     <g id="text_6">
      <!-- 125 -->
      <g transform="translate(484.52123 398.355) scale(0.1 -0.1)">
       <use xlink:href="#SimHei-31"/>
       <use xlink:href="#SimHei-32" x="50"/>
       <use xlink:href="#SimHei-35" x="100"/>
      </g>
     </g>
    </g>
    <g id="xtick_7">
     <g id="line2d_13">
      <path d="M 567.960261 384.48 
L 567.960261 51.84 
" clip-path="url(#pe2d9df4411)" style="fill: none; stroke: #b0b0b0; stroke-width: 0.8; stroke-linecap: square"/>
     </g>
     <g id="line2d_14">
      <g>
       <use xlink:href="#m60a2ff388f" x="567.960261" y="384.48" style="stroke: #000000; stroke-width: 0.8"/>
      </g>
     </g>
     <g id="text_7">
      <!-- 150 -->
      <g transform="translate(560.460261 398.355) scale(0.1 -0.1)">
       <use xlink:href="#SimHei-31"/>
       <use xlink:href="#SimHei-35" x="50"/>
       <use xlink:href="#SimHei-30" x="100"/>
      </g>
     </g>
    </g>
    <g id="xtick_8">
     <g id="line2d_15">
      <path d="M 643.899292 384.48 
L 643.899292 51.84 
" clip-path="url(#pe2d9df4411)" style="fill: none; stroke: #b0b0b0; stroke-width: 0.8; stroke-linecap: square"/>
     </g>
     <g id="line2d_16">
      <g>
       <use xlink:href="#m60a2ff388f" x="643.899292" y="384.48" style="stroke: #000000; stroke-width: 0.8"/>
      </g>
     </g>
     <g id="text_8">
      <!-- 175 -->
      <g transform="translate(636.399292 398.355) scale(0.1 -0.1)">
       <use xlink:href="#SimHei-31"/>
       <use xlink:href="#SimHei-37" x="50"/>
       <use xlink:href="#SimHei-35" x="100"/>
      </g>
     </g>
    </g>
    <g id="text_9">
     <!-- 周数 -->
     <g transform="translate(359 411.339375) scale(0.1 -0.1)">
      <defs>
       <path id="SimHei-5468" d="M 5600 4925 
Q 5575 4400 5575 3800 
L 5575 50 
Q 5550 -375 5325 -462 
Q 5100 -550 4325 -600 
Q 4300 -400 4125 -75 
Q 4800 -100 4962 -37 
Q 5125 25 5100 225 
L 5100 4525 
L 1500 4525 
Q 1500 2575 1450 1887 
Q 1400 1200 1237 550 
Q 1075 -100 775 -625 
Q 625 -450 275 -225 
Q 650 225 825 1000 
Q 1000 1775 1025 2587 
Q 1050 3400 1000 4925 
L 5600 4925 
z
M 2050 325 
Q 2075 625 2075 950 
L 2075 1400 
Q 2075 1625 2050 1925 
L 4400 1925 
Q 4375 1725 4375 1450 
L 4375 875 
Q 4375 600 4400 325 
L 2050 325 
z
M 3000 3800 
Q 3000 4150 2975 4375 
L 3475 4375 
Q 3450 4075 3450 3800 
Q 4100 3800 4475 3825 
L 4475 3350 
Q 4125 3375 3450 3375 
L 3450 2800 
Q 4200 2800 4825 2825 
L 4825 2350 
Q 4175 2375 3725 2375 
L 2750 2375 
Q 2325 2375 1725 2350 
L 1725 2825 
Q 2325 2800 3000 2800 
L 3000 3375 
Q 2500 3375 1975 3350 
L 1975 3825 
Q 2475 3800 3000 3800 
z
M 3900 725 
L 3900 1525 
L 2550 1525 
L 2550 725 
L 3900 725 
z
" transform="scale(0.015625)"/>
       <path id="SimHei-6570" d="M 4525 4925 
Q 4475 4800 4400 4587 
Q 4325 4375 4175 3825 
L 5325 3825 
Q 5575 3825 5925 3850 
L 5925 3400 
Q 5650 3425 5500 3425 
Q 5500 3025 5362 2162 
Q 5225 1300 4875 675 
Q 5125 375 5437 137 
Q 5750 -100 6025 -200 
Q 5725 -425 5625 -625 
Q 5325 -450 5075 -225 
Q 4825 0 4575 325 
Q 4300 25 3987 -187 
Q 3675 -400 3200 -650 
Q 3075 -425 2850 -300 
Q 3225 -150 3650 125 
Q 4075 400 4300 675 
Q 4125 1025 3962 1425 
Q 3800 1825 3675 2475 
Q 3600 2275 3425 1950 
Q 3250 2050 3000 2150 
Q 3400 2850 3650 3675 
Q 3900 4500 3975 5100 
Q 4275 4975 4525 4925 
z
M 2100 2250 
Q 2000 2150 1875 1925 
L 3250 1925 
Q 3100 1300 2725 675 
Q 3125 525 3350 400 
Q 3225 225 3125 25 
Q 2900 175 2450 325 
Q 1950 -225 725 -650 
Q 600 -375 400 -275 
Q 1575 0 2000 475 
Q 1300 650 850 775 
Q 1000 1000 1250 1525 
Q 1000 1525 425 1500 
L 425 1950 
Q 900 1925 1400 1925 
Q 1500 2150 1550 2425 
Q 1825 2325 2100 2250 
z
M 1775 3950 
Q 1775 4550 1750 5100 
L 2250 5100 
Q 2225 4575 2225 3950 
Q 3075 3950 3425 3975 
L 3425 3525 
Q 3075 3550 2225 3550 
Q 2225 2825 2250 2425 
L 1750 2425 
Q 1775 2775 1775 3300 
Q 1650 3100 1300 2787 
Q 950 2475 650 2300 
Q 525 2525 275 2625 
Q 500 2700 875 2975 
Q 1250 3250 1450 3550 
Q 950 3550 500 3525 
L 500 3975 
Q 925 3950 1775 3950 
z
M 3975 3175 
Q 4200 1700 4600 1125 
Q 4850 1700 4937 2287 
Q 5025 2875 5050 3425 
L 4075 3425 
L 3975 3175 
z
M 1450 1000 
Q 1750 925 2275 800 
Q 2475 1050 2650 1525 
L 1725 1525 
Q 1600 1275 1450 1000 
z
M 3325 4825 
Q 3200 4625 3125 4450 
Q 3050 4275 2925 4025 
Q 2725 4125 2525 4175 
Q 2725 4500 2900 5000 
Q 3150 4875 3325 4825 
z
M 2575 3375 
Q 2900 3050 3200 2725 
Q 3050 2600 2875 2425 
Q 2525 2850 2300 3100 
Q 2450 3225 2575 3375 
z
M 925 5000 
Q 1275 4650 1500 4300 
L 1125 4075 
Q 950 4425 600 4725 
Q 825 4875 925 5000 
z
" transform="scale(0.015625)"/>
      </defs>
      <use xlink:href="#SimHei-5468"/>
      <use xlink:href="#SimHei-6570" x="100"/>
     </g>
    </g>
   </g>
   <g id="matplotlib.axis_2">
    <g id="ytick_1">
     <g id="line2d_17">
      <path d="M 90 369.305296 
L 648 369.305296 
" clip-path="url(#pe2d9df4411)" style="fill: none; stroke: #b0b0b0; stroke-width: 0.8; stroke-linecap: square"/>
     </g>
     <g id="line2d_18">
      <defs>
       <path id="m9b95d925a2" d="M 0 0 
L -3.5 0 
" style="stroke: #000000; stroke-width: 0.8"/>
      </defs>
      <g>
       <use xlink:href="#m9b95d925a2" x="90" y="369.305296" style="stroke: #000000; stroke-width: 0.8"/>
      </g>
     </g>
     <g id="text_10">
      <!-- 218 -->
      <g transform="translate(68 372.742796) scale(0.1 -0.1)">
       <defs>
        <path id="SimHei-38" d="M 175 1375 
Q 175 1675 325 1962 
Q 475 2250 825 2425 
Q 525 2600 425 2812 
Q 325 3025 312 3300 
Q 300 3575 387 3775 
Q 475 3975 650 4150 
Q 825 4325 1037 4387 
Q 1250 4450 1500 4450 
Q 1750 4450 1950 4400 
Q 2150 4350 2375 4187 
Q 2600 4025 2700 3725 
Q 2800 3425 2687 3025 
Q 2575 2625 2100 2400 
Q 2525 2275 2700 2012 
Q 2875 1750 2875 1375 
Q 2875 1000 2762 775 
Q 2650 550 2512 400 
Q 2375 250 2137 162 
Q 1900 75 1537 75 
Q 1175 75 912 162 
Q 650 250 475 425 
Q 300 600 237 837 
Q 175 1075 175 1375 
z
M 687 1400 
Q 675 1100 787 875 
Q 900 650 1200 587 
Q 1500 525 1825 600 
Q 2150 675 2275 950 
Q 2400 1225 2362 1500 
Q 2325 1775 2050 1962 
Q 1775 2150 1450 2125 
Q 1125 2100 912 1900 
Q 700 1700 687 1400 
z
M 775 3350 
Q 775 3100 950 2875 
Q 1125 2650 1500 2650 
Q 1875 2650 2062 2875 
Q 2250 3100 2237 3412 
Q 2225 3725 2012 3875 
Q 1800 4025 1437 4000 
Q 1075 3975 925 3787 
Q 775 3600 775 3350 
z
" transform="scale(0.015625)"/>
       </defs>
       <use xlink:href="#SimHei-32"/>
       <use xlink:href="#SimHei-31" x="50"/>
       <use xlink:href="#SimHei-38" x="100"/>
      </g>
     </g>
    </g>
    <g id="ytick_2">
     <g id="line2d_19">
      <path d="M 90 303.660388 
L 648 303.660388 
" clip-path="url(#pe2d9df4411)" style="fill: none; stroke: #b0b0b0; stroke-width: 0.8; stroke-linecap: square"/>
     </g>
     <g id="line2d_20">
      <g>
       <use xlink:href="#m9b95d925a2" x="90" y="303.660388" style="stroke: #000000; stroke-width: 0.8"/>
      </g>
     </g>
     <g id="text_11">
      <!-- 220 -->
      <g transform="translate(68 307.097888) scale(0.1 -0.1)">
       <use xlink:href="#SimHei-32"/>
       <use xlink:href="#SimHei-32" x="50"/>
       <use xlink:href="#SimHei-30" x="100"/>
      </g>
     </g>
    </g>
    <g id="ytick_3">
     <g id="line2d_21">
      <path d="M 90 238.015481 
L 648 238.015481 
" clip-path="url(#pe2d9df4411)" style="fill: none; stroke: #b0b0b0; stroke-width: 0.8; stroke-linecap: square"/>
     </g>
     <g id="line2d_22">
      <g>
       <use xlink:href="#m9b95d925a2" x="90" y="238.015481" style="stroke: #000000; stroke-width: 0.8"/>
      </g>
     </g>
     <g id="text_12">
      <!-- 222 -->
      <g transform="translate(68 241.452981) scale(0.1 -0.1)">
       <use xlink:href="#SimHei-32"/>
       <use xlink:href="#SimHei-32" x="50"/>
       <use xlink:href="#SimHei-32" x="100"/>
      </g>
     </g>
    </g>
    <g id="ytick_4">
     <g id="line2d_23">
      <path d="M 90 172.370573 
L 648 172.370573 
" clip-path="url(#pe2d9df4411)" style="fill: none; stroke: #b0b0b0; stroke-width: 0.8; stroke-linecap: square"/>
     </g>
     <g id="line2d_24">
      <g>
       <use xlink:href="#m9b95d925a2" x="90" y="172.370573" style="stroke: #000000; stroke-width: 0.8"/>
      </g>
     </g>
     <g id="text_13">
      <!-- 224 -->
      <g transform="translate(68 175.808073) scale(0.1 -0.1)">
       <defs>
        <path id="SimHei-34" d="M 2000 1100 
L 75 1100 
L 75 1525 
L 2100 4450 
L 2475 4450 
L 2475 1525 
L 3075 1525 
L 3075 1100 
L 2475 1100 
L 2475 150 
L 2000 150 
L 2000 1100 
z
M 2000 1525 
L 2000 3500 
L 600 1525 
L 2000 1525 
z
" transform="scale(0.015625)"/>
       </defs>
       <use xlink:href="#SimHei-32"/>
       <use xlink:href="#SimHei-32" x="50"/>
       <use xlink:href="#SimHei-34" x="100"/>
      </g>
     </g>
    </g>
    <g id="ytick_5">
     <g id="line2d_25">
      <path d="M 90 106.725665 
L 648 106.725665 
" clip-path="url(#pe2d9df4411)" style="fill: none; stroke: #b0b0b0; stroke-width: 0.8; stroke-linecap: square"/>
     </g>
     <g id="line2d_26">
      <g>
       <use xlink:href="#m9b95d925a2" x="90" y="106.725665" style="stroke: #000000; stroke-width: 0.8"/>
      </g>
     </g>
     <g id="text_14">
      <!-- 226 -->
      <g transform="translate(68 110.163165) scale(0.1 -0.1)">
       <defs>
        <path id="SimHei-36" d="M 250 1612 
Q 275 1975 387 2225 
Q 500 2475 725 2850 
L 1750 4450 
L 2325 4450 
L 1275 2800 
Q 1950 2975 2350 2750 
Q 2750 2525 2887 2237 
Q 3025 1950 3037 1612 
Q 3050 1275 2937 950 
Q 2825 625 2537 362 
Q 2250 100 1737 75 
Q 1225 50 862 262 
Q 500 475 362 862 
Q 225 1250 250 1612 
z
M 1025 787 
Q 1250 550 1625 525 
Q 2000 500 2250 775 
Q 2500 1050 2500 1575 
Q 2500 2100 2187 2300 
Q 1875 2500 1487 2450 
Q 1100 2400 925 2075 
Q 750 1750 775 1387 
Q 800 1025 1025 787 
z
" transform="scale(0.015625)"/>
       </defs>
       <use xlink:href="#SimHei-32"/>
       <use xlink:href="#SimHei-32" x="50"/>
       <use xlink:href="#SimHei-36" x="100"/>
      </g>
     </g>
    </g>
    <g id="text_15">
     <!-- 平均价格 -->
     <g transform="translate(62.75 238.16) rotate(-90) scale(0.1 -0.1)">
      <defs>
       <path id="SimHei-5e73" d="M 4525 4825 
Q 4900 4825 5450 4850 
L 5450 4375 
Q 4925 4400 4525 4400 
L 3475 4400 
L 3475 2025 
L 5000 2025 
Q 5550 2025 6025 2050 
L 6025 1575 
Q 5550 1600 5000 1600 
L 3475 1600 
L 3475 450 
Q 3475 -100 3500 -600 
L 2925 -600 
Q 2950 -100 2950 450 
L 2950 1600 
L 1125 1600 
Q 775 1600 375 1575 
L 375 2050 
Q 775 2025 1175 2025 
L 2950 2025 
L 2950 4400 
L 1775 4400 
Q 1400 4400 875 4375 
L 875 4850 
Q 1400 4825 1750 4825 
L 4525 4825 
z
M 3925 2600 
Q 4500 3300 4900 4125 
Q 5150 3950 5400 3825 
Q 4775 2850 4350 2300 
Q 4150 2475 3925 2600 
z
M 1975 2350 
Q 1600 3100 1050 3725 
Q 1250 3875 1450 4050 
Q 2075 3300 2450 2725 
Q 2150 2500 1975 2350 
z
" transform="scale(0.015625)"/>
       <path id="SimHei-5747" d="M 5775 275 
Q 5775 -325 5362 -450 
Q 4950 -575 4425 -600 
Q 4375 -275 4250 25 
Q 4950 -25 5125 62 
Q 5300 150 5300 500 
L 5375 3700 
L 3550 3700 
Q 3425 3375 3262 3037 
Q 3100 2700 2925 2400 
Q 2675 2550 2475 2625 
Q 3150 3625 3500 5200 
Q 3800 5100 4075 5025 
Q 3975 4875 3875 4650 
Q 3775 4425 3675 4125 
L 5900 4125 
L 5775 275 
z
M 1250 3625 
L 1250 4375 
Q 1250 4775 1225 5100 
L 1775 5100 
Q 1750 4725 1750 4375 
L 1750 3625 
L 1900 3625 
Q 2200 3625 2525 3650 
L 2525 3150 
Q 2200 3175 1900 3175 
L 1750 3175 
L 1750 1100 
L 2500 1375 
Q 2475 1125 2525 900 
Q 1225 475 962 362 
Q 700 250 475 150 
Q 375 475 250 750 
Q 575 800 800 850 
Q 1025 900 1250 975 
L 1250 3175 
L 1125 3175 
Q 850 3175 400 3150 
L 400 3650 
Q 850 3625 1100 3625 
L 1250 3625 
z
M 4950 1625 
Q 4675 1425 4137 1050 
Q 3600 675 3175 300 
Q 3000 575 2850 775 
Q 3350 1050 3762 1325 
Q 4175 1600 4775 2075 
Q 4825 1850 4950 1625 
z
M 3775 3150 
Q 4125 2800 4475 2300 
Q 4250 2125 4100 1975 
Q 3900 2325 3450 2825 
Q 3600 3000 3775 3150 
z
" transform="scale(0.015625)"/>
       <path id="SimHei-4ef7" d="M 2200 4975 
Q 2050 4725 1650 3775 
L 1650 450 
Q 1650 -225 1675 -650 
L 1175 -650 
Q 1175 -225 1200 450 
L 1200 2975 
Q 900 2425 650 2100 
Q 525 2275 225 2450 
Q 750 3025 1125 3800 
Q 1500 4575 1625 5175 
Q 1950 5025 2200 4975 
z
M 4175 4700 
Q 4850 3525 6150 2950 
Q 5925 2750 5775 2500 
Q 4725 3100 3950 4300 
Q 3300 3125 2250 2350 
Q 2125 2525 1900 2725 
Q 2825 3325 3250 4050 
Q 3675 4775 3750 5150 
Q 4150 4950 4325 4900 
L 4175 4700 
z
M 3475 2650 
Q 3400 2075 3325 1087 
Q 3250 100 2325 -675 
Q 2175 -450 1925 -300 
Q 2850 350 2912 1262 
Q 2975 2175 2950 2700 
Q 3275 2650 3475 2650 
z
M 5075 2700 
Q 5050 2150 5050 1725 
L 5050 150 
Q 5050 -225 5075 -650 
L 4550 -650 
Q 4575 -225 4575 175 
L 4575 1875 
Q 4575 2150 4550 2700 
L 5075 2700 
z
" transform="scale(0.015625)"/>
       <path id="SimHei-683c" d="M 4075 4875 
Q 3975 4750 3750 4350 
L 5625 4350 
Q 5450 3850 5212 3437 
Q 4975 3025 4650 2650 
Q 4950 2450 5412 2287 
Q 5875 2125 6150 2100 
Q 5975 1900 5875 1600 
Q 5550 1725 5125 1912 
Q 4700 2100 4300 2400 
Q 3925 2125 3537 1937 
Q 3150 1750 2575 1550 
Q 2475 1775 2300 1925 
Q 2825 2050 3262 2250 
Q 3700 2450 3975 2675 
Q 3625 3050 3325 3575 
Q 3175 3350 2875 2950 
Q 2700 3100 2475 3200 
Q 2825 3550 3112 4075 
Q 3400 4600 3550 5100 
Q 3775 4950 4075 4875 
z
M 5575 1650 
Q 5550 1350 5550 575 
Q 5550 -200 5575 -575 
L 5050 -575 
L 5050 -175 
L 3500 -175 
L 3500 -600 
L 2975 -600 
Q 3000 -200 3000 550 
Q 3000 1325 2975 1650 
L 5575 1650 
z
M 1850 5100 
Q 1825 4775 1825 4475 
L 1825 3825 
Q 2300 3825 2525 3850 
L 2525 3400 
Q 2300 3425 1825 3425 
L 1825 2725 
Q 1950 2800 2125 2950 
Q 2350 2600 2550 2200 
Q 2350 2075 2175 1950 
Q 1975 2375 1825 2625 
L 1825 275 
Q 1825 -275 1850 -625 
L 1350 -625 
Q 1375 -275 1375 275 
L 1375 2425 
Q 1150 1850 625 850 
Q 475 1025 250 1150 
Q 650 1775 900 2375 
Q 1150 2975 1250 3425 
Q 900 3425 475 3400 
L 475 3850 
Q 925 3825 1375 3825 
L 1375 4475 
Q 1375 4750 1350 5100 
L 1850 5100 
z
M 5050 200 
L 5050 1275 
L 3500 1275 
L 3500 200 
L 5050 200 
z
M 4300 2925 
Q 4675 3300 4975 3975 
L 3550 3975 
Q 3850 3350 4300 2925 
z
" transform="scale(0.015625)"/>
      </defs>
      <use xlink:href="#SimHei-5e73"/>
      <use xlink:href="#SimHei-5747" x="100"/>
      <use xlink:href="#SimHei-4ef7" x="200"/>
      <use xlink:href="#SimHei-683c" x="300"/>
     </g>
    </g>
   </g>
   <g id="line2d_27">
    <path d="M 115.363636 66.96 
L 118.401198 66.96 
L 121.438759 66.96 
L 124.47632 93.209379 
L 133.589004 110.66436 
L 136.626565 110.66436 
L 139.664126 110.66983 
L 142.701688 110.680771 
L 148.77681 110.680771 
L 151.814371 110.680771 
L 154.851932 110.680771 
L 160.927055 110.66436 
L 170.039739 110.66436 
L 173.0773 110.66436 
L 176.114861 110.66436 
L 179.152422 110.66436 
L 185.227545 110.66436 
L 188.265106 110.66436 
L 191.302667 110.66436 
L 194.340229 110.66436 
L 197.37779 95.779377 
L 200.415351 95.779377 
L 203.452912 95.762966 
L 206.490474 161.670453 
L 209.528035 161.670453 
L 212.565596 161.670453 
L 215.603157 161.679831 
L 218.640719 161.662247 
L 221.67828 161.662247 
L 224.715841 161.662247 
L 227.753402 159.733928 
L 230.790964 205.11213 
L 233.828525 205.099248 
L 236.866086 205.107063 
L 239.903647 205.110971 
L 242.941208 205.110971 
L 245.97877 205.110971 
L 249.016331 205.110971 
L 252.053892 205.028914 
L 261.166576 192.579827 
L 264.204137 142.783475 
L 270.27926 142.783475 
L 276.354382 142.783475 
L 279.391943 122.817003 
L 300.654872 92.867296 
L 303.692433 92.867296 
L 306.729995 92.867296 
L 309.767556 92.867296 
L 312.805117 92.867296 
L 315.842678 92.861218 
L 321.917801 92.858178 
L 324.955362 92.858178 
L 327.992923 92.858178 
L 334.068046 92.858178 
L 340.143168 91.422196 
L 346.218291 91.422196 
L 349.255852 91.422196 
L 352.293413 91.422196 
L 355.330974 91.422196 
L 358.368536 91.448305 
L 361.406097 91.448305 
L 364.443658 91.455765 
L 367.481219 91.463224 
L 370.518781 91.463224 
L 376.593903 91.463224 
L 382.669026 91.463224 
L 385.706587 91.463224 
L 388.744148 135.311498 
L 391.781709 310.704592 
L 394.819271 310.705153 
L 397.856832 310.706275 
L 400.894393 310.706275 
L 403.931954 369.36 
L 406.969516 369.36 
L 410.007077 369.36 
L 413.044638 331.934067 
L 416.082199 331.934067 
L 419.11976 331.934067 
L 422.157322 331.934067 
L 431.270005 331.934067 
L 434.307567 331.934067 
L 437.345128 340.659095 
L 440.382689 332.749288 
L 443.42025 340.659095 
L 452.532934 344.045061 
L 458.608057 345.553008 
L 461.645618 349.327663 
L 476.833424 352.14101 
L 485.946108 352.14101 
L 513.284159 355.317881 
L 516.32172 355.322931 
L 519.359281 352.14101 
L 531.509526 354.52745 
L 534.547088 352.14101 
L 537.584649 352.299085 
L 546.697333 350.945236 
L 549.734894 351.018609 
L 555.810016 350.945236 
L 574.035384 350.945236 
L 598.335874 350.945236 
L 616.561241 350.945236 
L 622.636364 336.548487 
" clip-path="url(#pe2d9df4411)" style="fill: none; stroke: #ff0000; stroke-width: 1.5; stroke-linecap: square"/>
    <defs>
     <path id="mbd99378fd8" d="M 0 3 
C 0.795609 3 1.55874 2.683901 2.12132 2.12132 
C 2.683901 1.55874 3 0.795609 3 0 
C 3 -0.795609 2.683901 -1.55874 2.12132 -2.12132 
C 1.55874 -2.683901 0.795609 -3 0 -3 
C -0.795609 -3 -1.55874 -2.683901 -2.12132 -2.12132 
C -2.683901 -1.55874 -3 -0.795609 -3 0 
C -3 0.795609 -2.683901 1.55874 -2.12132 2.12132 
C -1.55874 2.683901 -0.795609 3 0 3 
z
" style="stroke: #ff0000"/>
    </defs>
    <g clip-path="url(#pe2d9df4411)">
     <use xlink:href="#mbd99378fd8" x="115.363636" y="66.96" style="fill: #ff0000; stroke: #ff0000"/>
     <use xlink:href="#mbd99378fd8" x="118.401198" y="66.96" style="fill: #ff0000; stroke: #ff0000"/>
     <use xlink:href="#mbd99378fd8" x="121.438759" y="66.96" style="fill: #ff0000; stroke: #ff0000"/>
     <use xlink:href="#mbd99378fd8" x="124.47632" y="93.209379" style="fill: #ff0000; stroke: #ff0000"/>
     <use xlink:href="#mbd99378fd8" x="133.589004" y="110.66436" style="fill: #ff0000; stroke: #ff0000"/>
     <use xlink:href="#mbd99378fd8" x="136.626565" y="110.66436" style="fill: #ff0000; stroke: #ff0000"/>
     <use xlink:href="#mbd99378fd8" x="139.664126" y="110.66983" style="fill: #ff0000; stroke: #ff0000"/>
     <use xlink:href="#mbd99378fd8" x="142.701688" y="110.680771" style="fill: #ff0000; stroke: #ff0000"/>
     <use xlink:href="#mbd99378fd8" x="148.77681" y="110.680771" style="fill: #ff0000; stroke: #ff0000"/>
     <use xlink:href="#mbd99378fd8" x="151.814371" y="110.680771" style="fill: #ff0000; stroke: #ff0000"/>
     <use xlink:href="#mbd99378fd8" x="154.851932" y="110.680771" style="fill: #ff0000; stroke: #ff0000"/>
     <use xlink:href="#mbd99378fd8" x="160.927055" y="110.66436" style="fill: #ff0000; stroke: #ff0000"/>
     <use xlink:href="#mbd99378fd8" x="170.039739" y="110.66436" style="fill: #ff0000; stroke: #ff0000"/>
     <use xlink:href="#mbd99378fd8" x="173.0773" y="110.66436" style="fill: #ff0000; stroke: #ff0000"/>
     <use xlink:href="#mbd99378fd8" x="176.114861" y="110.66436" style="fill: #ff0000; stroke: #ff0000"/>
     <use xlink:href="#mbd99378fd8" x="179.152422" y="110.66436" style="fill: #ff0000; stroke: #ff0000"/>
     <use xlink:href="#mbd99378fd8" x="185.227545" y="110.66436" style="fill: #ff0000; stroke: #ff0000"/>
     <use xlink:href="#mbd99378fd8" x="188.265106" y="110.66436" style="fill: #ff0000; stroke: #ff0000"/>
     <use xlink:href="#mbd99378fd8" x="191.302667" y="110.66436" style="fill: #ff0000; stroke: #ff0000"/>
     <use xlink:href="#mbd99378fd8" x="194.340229" y="110.66436" style="fill: #ff0000; stroke: #ff0000"/>
     <use xlink:href="#mbd99378fd8" x="197.37779" y="95.779377" style="fill: #ff0000; stroke: #ff0000"/>
     <use xlink:href="#mbd99378fd8" x="200.415351" y="95.779377" style="fill: #ff0000; stroke: #ff0000"/>
     <use xlink:href="#mbd99378fd8" x="203.452912" y="95.762966" style="fill: #ff0000; stroke: #ff0000"/>
     <use xlink:href="#mbd99378fd8" x="206.490474" y="161.670453" style="fill: #ff0000; stroke: #ff0000"/>
     <use xlink:href="#mbd99378fd8" x="209.528035" y="161.670453" style="fill: #ff0000; stroke: #ff0000"/>
     <use xlink:href="#mbd99378fd8" x="212.565596" y="161.670453" style="fill: #ff0000; stroke: #ff0000"/>
     <use xlink:href="#mbd99378fd8" x="215.603157" y="161.679831" style="fill: #ff0000; stroke: #ff0000"/>
     <use xlink:href="#mbd99378fd8" x="218.640719" y="161.662247" style="fill: #ff0000; stroke: #ff0000"/>
     <use xlink:href="#mbd99378fd8" x="221.67828" y="161.662247" style="fill: #ff0000; stroke: #ff0000"/>
     <use xlink:href="#mbd99378fd8" x="224.715841" y="161.662247" style="fill: #ff0000; stroke: #ff0000"/>
     <use xlink:href="#mbd99378fd8" x="227.753402" y="159.733928" style="fill: #ff0000; stroke: #ff0000"/>
     <use xlink:href="#mbd99378fd8" x="230.790964" y="205.11213" style="fill: #ff0000; stroke: #ff0000"/>
     <use xlink:href="#mbd99378fd8" x="233.828525" y="205.099248" style="fill: #ff0000; stroke: #ff0000"/>
     <use xlink:href="#mbd99378fd8" x="236.866086" y="205.107063" style="fill: #ff0000; stroke: #ff0000"/>
     <use xlink:href="#mbd99378fd8" x="239.903647" y="205.110971" style="fill: #ff0000; stroke: #ff0000"/>
     <use xlink:href="#mbd99378fd8" x="242.941208" y="205.110971" style="fill: #ff0000; stroke: #ff0000"/>
     <use xlink:href="#mbd99378fd8" x="245.97877" y="205.110971" style="fill: #ff0000; stroke: #ff0000"/>
     <use xlink:href="#mbd99378fd8" x="249.016331" y="205.110971" style="fill: #ff0000; stroke: #ff0000"/>
     <use xlink:href="#mbd99378fd8" x="252.053892" y="205.028914" style="fill: #ff0000; stroke: #ff0000"/>
     <use xlink:href="#mbd99378fd8" x="261.166576" y="192.579827" style="fill: #ff0000; stroke: #ff0000"/>
     <use xlink:href="#mbd99378fd8" x="264.204137" y="142.783475" style="fill: #ff0000; stroke: #ff0000"/>
     <use xlink:href="#mbd99378fd8" x="270.27926" y="142.783475" style="fill: #ff0000; stroke: #ff0000"/>
     <use xlink:href="#mbd99378fd8" x="276.354382" y="142.783475" style="fill: #ff0000; stroke: #ff0000"/>
     <use xlink:href="#mbd99378fd8" x="279.391943" y="122.817003" style="fill: #ff0000; stroke: #ff0000"/>
     <use xlink:href="#mbd99378fd8" x="300.654872" y="92.867296" style="fill: #ff0000; stroke: #ff0000"/>
     <use xlink:href="#mbd99378fd8" x="303.692433" y="92.867296" style="fill: #ff0000; stroke: #ff0000"/>
     <use xlink:href="#mbd99378fd8" x="306.729995" y="92.867296" style="fill: #ff0000; stroke: #ff0000"/>
     <use xlink:href="#mbd99378fd8" x="309.767556" y="92.867296" style="fill: #ff0000; stroke: #ff0000"/>
     <use xlink:href="#mbd99378fd8" x="312.805117" y="92.867296" style="fill: #ff0000; stroke: #ff0000"/>
     <use xlink:href="#mbd99378fd8" x="315.842678" y="92.861218" style="fill: #ff0000; stroke: #ff0000"/>
     <use xlink:href="#mbd99378fd8" x="321.917801" y="92.858178" style="fill: #ff0000; stroke: #ff0000"/>
     <use xlink:href="#mbd99378fd8" x="324.955362" y="92.858178" style="fill: #ff0000; stroke: #ff0000"/>
     <use xlink:href="#mbd99378fd8" x="327.992923" y="92.858178" style="fill: #ff0000; stroke: #ff0000"/>
     <use xlink:href="#mbd99378fd8" x="334.068046" y="92.858178" style="fill: #ff0000; stroke: #ff0000"/>
     <use xlink:href="#mbd99378fd8" x="340.143168" y="91.422196" style="fill: #ff0000; stroke: #ff0000"/>
     <use xlink:href="#mbd99378fd8" x="346.218291" y="91.422196" style="fill: #ff0000; stroke: #ff0000"/>
     <use xlink:href="#mbd99378fd8" x="349.255852" y="91.422196" style="fill: #ff0000; stroke: #ff0000"/>
     <use xlink:href="#mbd99378fd8" x="352.293413" y="91.422196" style="fill: #ff0000; stroke: #ff0000"/>
     <use xlink:href="#mbd99378fd8" x="355.330974" y="91.422196" style="fill: #ff0000; stroke: #ff0000"/>
     <use xlink:href="#mbd99378fd8" x="358.368536" y="91.448305" style="fill: #ff0000; stroke: #ff0000"/>
     <use xlink:href="#mbd99378fd8" x="361.406097" y="91.448305" style="fill: #ff0000; stroke: #ff0000"/>
     <use xlink:href="#mbd99378fd8" x="364.443658" y="91.455765" style="fill: #ff0000; stroke: #ff0000"/>
     <use xlink:href="#mbd99378fd8" x="367.481219" y="91.463224" style="fill: #ff0000; stroke: #ff0000"/>
     <use xlink:href="#mbd99378fd8" x="370.518781" y="91.463224" style="fill: #ff0000; stroke: #ff0000"/>
     <use xlink:href="#mbd99378fd8" x="376.593903" y="91.463224" style="fill: #ff0000; stroke: #ff0000"/>
     <use xlink:href="#mbd99378fd8" x="382.669026" y="91.463224" style="fill: #ff0000; stroke: #ff0000"/>
     <use xlink:href="#mbd99378fd8" x="385.706587" y="91.463224" style="fill: #ff0000; stroke: #ff0000"/>
     <use xlink:href="#mbd99378fd8" x="388.744148" y="135.311498" style="fill: #ff0000; stroke: #ff0000"/>
     <use xlink:href="#mbd99378fd8" x="391.781709" y="310.704592" style="fill: #ff0000; stroke: #ff0000"/>
     <use xlink:href="#mbd99378fd8" x="394.819271" y="310.705153" style="fill: #ff0000; stroke: #ff0000"/>
     <use xlink:href="#mbd99378fd8" x="397.856832" y="310.706275" style="fill: #ff0000; stroke: #ff0000"/>
     <use xlink:href="#mbd99378fd8" x="400.894393" y="310.706275" style="fill: #ff0000; stroke: #ff0000"/>
     <use xlink:href="#mbd99378fd8" x="403.931954" y="369.36" style="fill: #ff0000; stroke: #ff0000"/>
     <use xlink:href="#mbd99378fd8" x="406.969516" y="369.36" style="fill: #ff0000; stroke: #ff0000"/>
     <use xlink:href="#mbd99378fd8" x="410.007077" y="369.36" style="fill: #ff0000; stroke: #ff0000"/>
     <use xlink:href="#mbd99378fd8" x="413.044638" y="331.934067" style="fill: #ff0000; stroke: #ff0000"/>
     <use xlink:href="#mbd99378fd8" x="416.082199" y="331.934067" style="fill: #ff0000; stroke: #ff0000"/>
     <use xlink:href="#mbd99378fd8" x="419.11976" y="331.934067" style="fill: #ff0000; stroke: #ff0000"/>
     <use xlink:href="#mbd99378fd8" x="422.157322" y="331.934067" style="fill: #ff0000; stroke: #ff0000"/>
     <use xlink:href="#mbd99378fd8" x="431.270005" y="331.934067" style="fill: #ff0000; stroke: #ff0000"/>
     <use xlink:href="#mbd99378fd8" x="434.307567" y="331.934067" style="fill: #ff0000; stroke: #ff0000"/>
     <use xlink:href="#mbd99378fd8" x="437.345128" y="340.659095" style="fill: #ff0000; stroke: #ff0000"/>
     <use xlink:href="#mbd99378fd8" x="440.382689" y="332.749288" style="fill: #ff0000; stroke: #ff0000"/>
     <use xlink:href="#mbd99378fd8" x="443.42025" y="340.659095" style="fill: #ff0000; stroke: #ff0000"/>
     <use xlink:href="#mbd99378fd8" x="452.532934" y="344.045061" style="fill: #ff0000; stroke: #ff0000"/>
     <use xlink:href="#mbd99378fd8" x="458.608057" y="345.553008" style="fill: #ff0000; stroke: #ff0000"/>
     <use xlink:href="#mbd99378fd8" x="461.645618" y="349.327663" style="fill: #ff0000; stroke: #ff0000"/>
     <use xlink:href="#mbd99378fd8" x="476.833424" y="352.14101" style="fill: #ff0000; stroke: #ff0000"/>
     <use xlink:href="#mbd99378fd8" x="485.946108" y="352.14101" style="fill: #ff0000; stroke: #ff0000"/>
     <use xlink:href="#mbd99378fd8" x="513.284159" y="355.317881" style="fill: #ff0000; stroke: #ff0000"/>
     <use xlink:href="#mbd99378fd8" x="516.32172" y="355.322931" style="fill: #ff0000; stroke: #ff0000"/>
     <use xlink:href="#mbd99378fd8" x="519.359281" y="352.14101" style="fill: #ff0000; stroke: #ff0000"/>
     <use xlink:href="#mbd99378fd8" x="531.509526" y="354.52745" style="fill: #ff0000; stroke: #ff0000"/>
     <use xlink:href="#mbd99378fd8" x="534.547088" y="352.14101" style="fill: #ff0000; stroke: #ff0000"/>
     <use xlink:href="#mbd99378fd8" x="537.584649" y="352.299085" style="fill: #ff0000; stroke: #ff0000"/>
     <use xlink:href="#mbd99378fd8" x="546.697333" y="350.945236" style="fill: #ff0000; stroke: #ff0000"/>
     <use xlink:href="#mbd99378fd8" x="549.734894" y="351.018609" style="fill: #ff0000; stroke: #ff0000"/>
     <use xlink:href="#mbd99378fd8" x="555.810016" y="350.945236" style="fill: #ff0000; stroke: #ff0000"/>
     <use xlink:href="#mbd99378fd8" x="574.035384" y="350.945236" style="fill: #ff0000; stroke: #ff0000"/>
     <use xlink:href="#mbd99378fd8" x="598.335874" y="350.945236" style="fill: #ff0000; stroke: #ff0000"/>
     <use xlink:href="#mbd99378fd8" x="616.561241" y="350.945236" style="fill: #ff0000; stroke: #ff0000"/>
     <use xlink:href="#mbd99378fd8" x="622.636364" y="336.548487" style="fill: #ff0000; stroke: #ff0000"/>
    </g>
   </g>
   <g id="patch_3">
    <path d="M 90 384.48 
L 90 51.84 
" style="fill: none; stroke: #000000; stroke-width: 0.8; stroke-linejoin: miter; stroke-linecap: square"/>
   </g>
   <g id="patch_4">
    <path d="M 648 384.48 
L 648 51.84 
" style="fill: none; stroke: #000000; stroke-width: 0.8; stroke-linejoin: miter; stroke-linecap: square"/>
   </g>
   <g id="patch_5">
    <path d="M 90 384.48 
L 648 384.48 
" style="fill: none; stroke: #000000; stroke-width: 0.8; stroke-linejoin: miter; stroke-linecap: square"/>
   </g>
   <g id="patch_6">
    <path d="M 90 51.84 
L 648 51.84 
" style="fill: none; stroke: #000000; stroke-width: 0.8; stroke-linejoin: miter; stroke-linecap: square"/>
   </g>
   <g id="text_16">
    <!-- 6004020141 每周平均价格 -->
    <g transform="translate(300 45.84) scale(0.12 -0.12)">
     <defs>
      <path id="SimHei-20" transform="scale(0.015625)"/>
      <path id="SimHei-6bcf" d="M 5225 3650 
Q 5175 3150 5150 2675 
L 5125 2200 
Q 5525 2200 6000 2225 
L 6000 1775 
Q 5625 1800 5100 1800 
L 5050 650 
Q 5325 650 5700 675 
L 5700 225 
Q 5400 250 5025 250 
Q 5000 -275 4775 -425 
Q 4550 -575 4000 -650 
Q 3950 -400 3775 -125 
Q 4375 -125 4475 -50 
Q 4575 25 4575 250 
L 1400 250 
L 1500 1100 
L 1550 1800 
L 1275 1800 
Q 825 1800 550 1775 
L 550 2225 
Q 975 2200 1275 2200 
L 1575 2200 
L 1625 2825 
L 1675 3650 
L 5225 3650 
z
M 2350 5000 
Q 2175 4825 2050 4600 
L 4875 4600 
Q 5275 4600 5775 4625 
L 5775 4175 
Q 5275 4200 4875 4200 
L 1825 4200 
L 1375 3625 
Q 1125 3325 775 2975 
Q 600 3175 350 3300 
Q 725 3575 1150 4112 
Q 1575 4650 1825 5250 
Q 2125 5075 2350 5000 
z
M 1975 1800 
L 1875 650 
L 4625 650 
L 4675 1800 
L 2950 1800 
Q 3575 1275 3825 1125 
Q 3625 925 3475 725 
Q 3100 1100 2650 1475 
Q 2775 1675 2875 1800 
L 1975 1800 
z
M 2975 3250 
Q 3125 3150 3287 3012 
Q 3450 2875 3800 2550 
Q 3650 2350 3525 2200 
L 4700 2200 
L 4750 3250 
L 2975 3250 
z
M 2075 3250 
L 2000 2200 
L 3425 2200 
Q 3150 2500 3012 2625 
Q 2875 2750 2700 2900 
Q 2800 3050 2925 3250 
L 2075 3250 
z
" transform="scale(0.015625)"/>
     </defs>
     <use xlink:href="#SimHei-36"/>
     <use xlink:href="#SimHei-30" x="50"/>
     <use xlink:href="#SimHei-30" x="100"/>
     <use xlink:href="#SimHei-34" x="150"/>
     <use xlink:href="#SimHei-30" x="200"/>
     <use xlink:href="#SimHei-32" x="250"/>
     <use xlink:href="#SimHei-30" x="300"/>
     <use xlink:href="#SimHei-31" x="350"/>
     <use xlink:href="#SimHei-34" x="400"/>
     <use xlink:href="#SimHei-31" x="450"/>
     <use xlink:href="#SimHei-20" x="500"/>
     <use xlink:href="#SimHei-6bcf" x="550"/>
     <use xlink:href="#SimHei-5468" x="650"/>
     <use xlink:href="#SimHei-5e73" x="750"/>
     <use xlink:href="#SimHei-5747" x="850"/>
     <use xlink:href="#SimHei-4ef7" x="950"/>
     <use xlink:href="#SimHei-683c" x="1050"/>
    </g>
   </g>
  </g>
 </g>
 <defs>
  <clipPath id="pe2d9df4411">
   <rect x="90" y="51.84" width="558" height="332.64"/>
  </clipPath>
 </defs>
</svg>
