<?xml version="1.0" encoding="utf-8" standalone="no"?>
<!DOCTYPE svg PUBLIC "-//W3C//DTD SVG 1.1//EN"
  "http://www.w3.org/Graphics/SVG/1.1/DTD/svg11.dtd">
<svg xmlns:xlink="http://www.w3.org/1999/xlink" width="720pt" height="432pt" viewBox="0 0 720 432" xmlns="http://www.w3.org/2000/svg" version="1.1">
 <metadata>
  <rdf:RDF xmlns:dc="http://purl.org/dc/elements/1.1/" xmlns:cc="http://creativecommons.org/ns#" xmlns:rdf="http://www.w3.org/1999/02/22-rdf-syntax-ns#">
   <cc:Work>
    <dc:type rdf:resource="http://purl.org/dc/dcmitype/StillImage"/>
    <dc:date>2024-08-17T14:07:48.322140</dc:date>
    <dc:format>image/svg+xml</dc:format>
    <dc:creator>
     <cc:Agent>
      <dc:title>Matplotlib v3.8.0, https://matplotlib.org/</dc:title>
     </cc:Agent>
    </dc:creator>
   </cc:Work>
  </rdf:RDF>
 </metadata>
 <defs>
  <style type="text/css">*{stroke-linejoin: round; stroke-linecap: butt}</style>
 </defs>
 <g id="figure_1">
  <g id="patch_1">
   <path d="M 0 432 
L 720 432 
L 720 0 
L 0 0 
z
" style="fill: #ffffff"/>
  </g>
  <g id="axes_1">
   <g id="patch_2">
    <path d="M 90 384.48 
L 648 384.48 
L 648 51.84 
L 90 51.84 
z
" style="fill: #ffffff"/>
   </g>
   <g id="matplotlib.axis_1">
    <g id="xtick_1">
     <g id="line2d_1">
      <path d="M 112.326075 384.48 
L 112.326075 51.84 
" clip-path="url(#p73d5de7a9a)" style="fill: none; stroke: #b0b0b0; stroke-width: 0.8; stroke-linecap: square"/>
     </g>
     <g id="line2d_2">
      <defs>
       <path id="mda38658f3c" d="M 0 0 
L 0 3.5 
" style="stroke: #000000; stroke-width: 0.8"/>
      </defs>
      <g>
       <use xlink:href="#mda38658f3c" x="112.326075" y="384.48" style="stroke: #000000; stroke-width: 0.8"/>
      </g>
     </g>
     <g id="text_1">
      <!-- 0 -->
      <g transform="translate(109.826075 398.355) scale(0.1 -0.1)">
       <defs>
        <path id="SimHei-30" d="M 225 2537 
Q 250 3200 412 3587 
Q 575 3975 875 4225 
Q 1175 4475 1612 4475 
Q 2050 4475 2375 4112 
Q 2700 3750 2800 3200 
Q 2900 2650 2862 1937 
Q 2825 1225 2612 775 
Q 2400 325 1975 150 
Q 1550 -25 1125 187 
Q 700 400 525 750 
Q 350 1100 275 1487 
Q 200 1875 225 2537 
z
M 750 2687 
Q 675 2000 800 1462 
Q 925 925 1212 700 
Q 1500 475 1800 612 
Q 2100 750 2237 1162 
Q 2375 1575 2375 2062 
Q 2375 2550 2337 2950 
Q 2300 3350 2112 3675 
Q 1925 4000 1612 4012 
Q 1300 4025 1062 3700 
Q 825 3375 750 2687 
z
" transform="scale(0.015625)"/>
       </defs>
       <use xlink:href="#SimHei-30"/>
      </g>
     </g>
    </g>
    <g id="xtick_2">
     <g id="line2d_3">
      <path d="M 188.265106 384.48 
L 188.265106 51.84 
" clip-path="url(#p73d5de7a9a)" style="fill: none; stroke: #b0b0b0; stroke-width: 0.8; stroke-linecap: square"/>
     </g>
     <g id="line2d_4">
      <g>
       <use xlink:href="#mda38658f3c" x="188.265106" y="384.48" style="stroke: #000000; stroke-width: 0.8"/>
      </g>
     </g>
     <g id="text_2">
      <!-- 25 -->
      <g transform="translate(183.265106 398.355) scale(0.1 -0.1)">
       <defs>
        <path id="SimHei-32" d="M 300 250 
Q 325 625 650 925 
Q 975 1225 1475 1862 
Q 1975 2500 2125 2850 
Q 2275 3200 2237 3450 
Q 2200 3700 2000 3862 
Q 1800 4025 1537 4000 
Q 1275 3975 1037 3800 
Q 800 3625 675 3275 
L 200 3350 
Q 400 3925 712 4187 
Q 1025 4450 1450 4475 
Q 1700 4500 1900 4462 
Q 2100 4425 2312 4287 
Q 2525 4150 2662 3875 
Q 2800 3600 2762 3212 
Q 2725 2825 2375 2287 
Q 2025 1750 1025 600 
L 2825 600 
L 2825 150 
L 300 150 
L 300 250 
z
" transform="scale(0.015625)"/>
        <path id="SimHei-35" d="M 550 1325 
Q 725 650 1150 575 
Q 1575 500 1837 662 
Q 2100 825 2212 1087 
Q 2325 1350 2312 1675 
Q 2300 2000 2137 2225 
Q 1975 2450 1725 2525 
Q 1475 2600 1162 2525 
Q 850 2450 650 2175 
L 225 2225 
Q 275 2375 700 4375 
L 2675 4375 
L 2675 3925 
L 1075 3925 
Q 950 3250 825 2850 
Q 1200 3025 1525 3012 
Q 1850 3000 2150 2862 
Q 2450 2725 2587 2487 
Q 2725 2250 2787 2012 
Q 2850 1775 2837 1500 
Q 2825 1225 2725 937 
Q 2625 650 2425 462 
Q 2225 275 1937 162 
Q 1650 50 1275 75 
Q 900 100 562 350 
Q 225 600 100 1200 
L 550 1325 
z
" transform="scale(0.015625)"/>
       </defs>
       <use xlink:href="#SimHei-32"/>
       <use xlink:href="#SimHei-35" x="50"/>
      </g>
     </g>
    </g>
    <g id="xtick_3">
     <g id="line2d_5">
      <path d="M 264.204137 384.48 
L 264.204137 51.84 
" clip-path="url(#p73d5de7a9a)" style="fill: none; stroke: #b0b0b0; stroke-width: 0.8; stroke-linecap: square"/>
     </g>
     <g id="line2d_6">
      <g>
       <use xlink:href="#mda38658f3c" x="264.204137" y="384.48" style="stroke: #000000; stroke-width: 0.8"/>
      </g>
     </g>
     <g id="text_3">
      <!-- 50 -->
      <g transform="translate(259.204137 398.355) scale(0.1 -0.1)">
       <use xlink:href="#SimHei-35"/>
       <use xlink:href="#SimHei-30" x="50"/>
      </g>
     </g>
    </g>
    <g id="xtick_4">
     <g id="line2d_7">
      <path d="M 340.143168 384.48 
L 340.143168 51.84 
" clip-path="url(#p73d5de7a9a)" style="fill: none; stroke: #b0b0b0; stroke-width: 0.8; stroke-linecap: square"/>
     </g>
     <g id="line2d_8">
      <g>
       <use xlink:href="#mda38658f3c" x="340.143168" y="384.48" style="stroke: #000000; stroke-width: 0.8"/>
      </g>
     </g>
     <g id="text_4">
      <!-- 75 -->
      <g transform="translate(335.143168 398.355) scale(0.1 -0.1)">
       <defs>
        <path id="SimHei-37" d="M 850 150 
Q 1300 2050 2425 3925 
L 275 3925 
L 275 4375 
L 2950 4375 
L 2950 3950 
Q 1775 2050 1400 150 
L 850 150 
z
" transform="scale(0.015625)"/>
       </defs>
       <use xlink:href="#SimHei-37"/>
       <use xlink:href="#SimHei-35" x="50"/>
      </g>
     </g>
    </g>
    <g id="xtick_5">
     <g id="line2d_9">
      <path d="M 416.082199 384.48 
L 416.082199 51.84 
" clip-path="url(#p73d5de7a9a)" style="fill: none; stroke: #b0b0b0; stroke-width: 0.8; stroke-linecap: square"/>
     </g>
     <g id="line2d_10">
      <g>
       <use xlink:href="#mda38658f3c" x="416.082199" y="384.48" style="stroke: #000000; stroke-width: 0.8"/>
      </g>
     </g>
     <g id="text_5">
      <!-- 100 -->
      <g transform="translate(408.582199 398.355) scale(0.1 -0.1)">
       <defs>
        <path id="SimHei-31" d="M 1400 3600 
Q 1075 3275 575 2975 
L 575 3450 
Q 1200 3875 1600 4450 
L 1900 4450 
L 1900 150 
L 1400 150 
L 1400 3600 
z
" transform="scale(0.015625)"/>
       </defs>
       <use xlink:href="#SimHei-31"/>
       <use xlink:href="#SimHei-30" x="50"/>
       <use xlink:href="#SimHei-30" x="100"/>
      </g>
     </g>
    </g>
    <g id="xtick_6">
     <g id="line2d_11">
      <path d="M 492.02123 384.48 
L 492.02123 51.84 
" clip-path="url(#p73d5de7a9a)" style="fill: none; stroke: #b0b0b0; stroke-width: 0.8; stroke-linecap: square"/>
     </g>
     <g id="line2d_12">
      <g>
       <use xlink:href="#mda38658f3c" x="492.02123" y="384.48" style="stroke: #000000; stroke-width: 0.8"/>
      </g>
     </g>
     <g id="text_6">
      <!-- 125 -->
      <g transform="translate(484.52123 398.355) scale(0.1 -0.1)">
       <use xlink:href="#SimHei-31"/>
       <use xlink:href="#SimHei-32" x="50"/>
       <use xlink:href="#SimHei-35" x="100"/>
      </g>
     </g>
    </g>
    <g id="xtick_7">
     <g id="line2d_13">
      <path d="M 567.960261 384.48 
L 567.960261 51.84 
" clip-path="url(#p73d5de7a9a)" style="fill: none; stroke: #b0b0b0; stroke-width: 0.8; stroke-linecap: square"/>
     </g>
     <g id="line2d_14">
      <g>
       <use xlink:href="#mda38658f3c" x="567.960261" y="384.48" style="stroke: #000000; stroke-width: 0.8"/>
      </g>
     </g>
     <g id="text_7">
      <!-- 150 -->
      <g transform="translate(560.460261 398.355) scale(0.1 -0.1)">
       <use xlink:href="#SimHei-31"/>
       <use xlink:href="#SimHei-35" x="50"/>
       <use xlink:href="#SimHei-30" x="100"/>
      </g>
     </g>
    </g>
    <g id="xtick_8">
     <g id="line2d_15">
      <path d="M 643.899292 384.48 
L 643.899292 51.84 
" clip-path="url(#p73d5de7a9a)" style="fill: none; stroke: #b0b0b0; stroke-width: 0.8; stroke-linecap: square"/>
     </g>
     <g id="line2d_16">
      <g>
       <use xlink:href="#mda38658f3c" x="643.899292" y="384.48" style="stroke: #000000; stroke-width: 0.8"/>
      </g>
     </g>
     <g id="text_8">
      <!-- 175 -->
      <g transform="translate(636.399292 398.355) scale(0.1 -0.1)">
       <use xlink:href="#SimHei-31"/>
       <use xlink:href="#SimHei-37" x="50"/>
       <use xlink:href="#SimHei-35" x="100"/>
      </g>
     </g>
    </g>
    <g id="text_9">
     <!-- 周数 -->
     <g transform="translate(359 411.339375) scale(0.1 -0.1)">
      <defs>
       <path id="SimHei-5468" d="M 5600 4925 
Q 5575 4400 5575 3800 
L 5575 50 
Q 5550 -375 5325 -462 
Q 5100 -550 4325 -600 
Q 4300 -400 4125 -75 
Q 4800 -100 4962 -37 
Q 5125 25 5100 225 
L 5100 4525 
L 1500 4525 
Q 1500 2575 1450 1887 
Q 1400 1200 1237 550 
Q 1075 -100 775 -625 
Q 625 -450 275 -225 
Q 650 225 825 1000 
Q 1000 1775 1025 2587 
Q 1050 3400 1000 4925 
L 5600 4925 
z
M 2050 325 
Q 2075 625 2075 950 
L 2075 1400 
Q 2075 1625 2050 1925 
L 4400 1925 
Q 4375 1725 4375 1450 
L 4375 875 
Q 4375 600 4400 325 
L 2050 325 
z
M 3000 3800 
Q 3000 4150 2975 4375 
L 3475 4375 
Q 3450 4075 3450 3800 
Q 4100 3800 4475 3825 
L 4475 3350 
Q 4125 3375 3450 3375 
L 3450 2800 
Q 4200 2800 4825 2825 
L 4825 2350 
Q 4175 2375 3725 2375 
L 2750 2375 
Q 2325 2375 1725 2350 
L 1725 2825 
Q 2325 2800 3000 2800 
L 3000 3375 
Q 2500 3375 1975 3350 
L 1975 3825 
Q 2475 3800 3000 3800 
z
M 3900 725 
L 3900 1525 
L 2550 1525 
L 2550 725 
L 3900 725 
z
" transform="scale(0.015625)"/>
       <path id="SimHei-6570" d="M 4525 4925 
Q 4475 4800 4400 4587 
Q 4325 4375 4175 3825 
L 5325 3825 
Q 5575 3825 5925 3850 
L 5925 3400 
Q 5650 3425 5500 3425 
Q 5500 3025 5362 2162 
Q 5225 1300 4875 675 
Q 5125 375 5437 137 
Q 5750 -100 6025 -200 
Q 5725 -425 5625 -625 
Q 5325 -450 5075 -225 
Q 4825 0 4575 325 
Q 4300 25 3987 -187 
Q 3675 -400 3200 -650 
Q 3075 -425 2850 -300 
Q 3225 -150 3650 125 
Q 4075 400 4300 675 
Q 4125 1025 3962 1425 
Q 3800 1825 3675 2475 
Q 3600 2275 3425 1950 
Q 3250 2050 3000 2150 
Q 3400 2850 3650 3675 
Q 3900 4500 3975 5100 
Q 4275 4975 4525 4925 
z
M 2100 2250 
Q 2000 2150 1875 1925 
L 3250 1925 
Q 3100 1300 2725 675 
Q 3125 525 3350 400 
Q 3225 225 3125 25 
Q 2900 175 2450 325 
Q 1950 -225 725 -650 
Q 600 -375 400 -275 
Q 1575 0 2000 475 
Q 1300 650 850 775 
Q 1000 1000 1250 1525 
Q 1000 1525 425 1500 
L 425 1950 
Q 900 1925 1400 1925 
Q 1500 2150 1550 2425 
Q 1825 2325 2100 2250 
z
M 1775 3950 
Q 1775 4550 1750 5100 
L 2250 5100 
Q 2225 4575 2225 3950 
Q 3075 3950 3425 3975 
L 3425 3525 
Q 3075 3550 2225 3550 
Q 2225 2825 2250 2425 
L 1750 2425 
Q 1775 2775 1775 3300 
Q 1650 3100 1300 2787 
Q 950 2475 650 2300 
Q 525 2525 275 2625 
Q 500 2700 875 2975 
Q 1250 3250 1450 3550 
Q 950 3550 500 3525 
L 500 3975 
Q 925 3950 1775 3950 
z
M 3975 3175 
Q 4200 1700 4600 1125 
Q 4850 1700 4937 2287 
Q 5025 2875 5050 3425 
L 4075 3425 
L 3975 3175 
z
M 1450 1000 
Q 1750 925 2275 800 
Q 2475 1050 2650 1525 
L 1725 1525 
Q 1600 1275 1450 1000 
z
M 3325 4825 
Q 3200 4625 3125 4450 
Q 3050 4275 2925 4025 
Q 2725 4125 2525 4175 
Q 2725 4500 2900 5000 
Q 3150 4875 3325 4825 
z
M 2575 3375 
Q 2900 3050 3200 2725 
Q 3050 2600 2875 2425 
Q 2525 2850 2300 3100 
Q 2450 3225 2575 3375 
z
M 925 5000 
Q 1275 4650 1500 4300 
L 1125 4075 
Q 950 4425 600 4725 
Q 825 4875 925 5000 
z
" transform="scale(0.015625)"/>
      </defs>
      <use xlink:href="#SimHei-5468"/>
      <use xlink:href="#SimHei-6570" x="100"/>
     </g>
    </g>
   </g>
   <g id="matplotlib.axis_2">
    <g id="ytick_1">
     <g id="line2d_17">
      <path d="M 90 314.528126 
L 648 314.528126 
" clip-path="url(#p73d5de7a9a)" style="fill: none; stroke: #b0b0b0; stroke-width: 0.8; stroke-linecap: square"/>
     </g>
     <g id="line2d_18">
      <defs>
       <path id="ma425ac35d4" d="M 0 0 
L -3.5 0 
" style="stroke: #000000; stroke-width: 0.8"/>
      </defs>
      <g>
       <use xlink:href="#ma425ac35d4" x="90" y="314.528126" style="stroke: #000000; stroke-width: 0.8"/>
      </g>
     </g>
     <g id="text_10">
      <!-- 1000 -->
      <g transform="translate(63 317.965626) scale(0.1 -0.1)">
       <use xlink:href="#SimHei-31"/>
       <use xlink:href="#SimHei-30" x="50"/>
       <use xlink:href="#SimHei-30" x="100"/>
       <use xlink:href="#SimHei-30" x="150"/>
      </g>
     </g>
    </g>
    <g id="ytick_2">
     <g id="line2d_19">
      <path d="M 90 244.360449 
L 648 244.360449 
" clip-path="url(#p73d5de7a9a)" style="fill: none; stroke: #b0b0b0; stroke-width: 0.8; stroke-linecap: square"/>
     </g>
     <g id="line2d_20">
      <g>
       <use xlink:href="#ma425ac35d4" x="90" y="244.360449" style="stroke: #000000; stroke-width: 0.8"/>
      </g>
     </g>
     <g id="text_11">
      <!-- 2000 -->
      <g transform="translate(63 247.797949) scale(0.1 -0.1)">
       <use xlink:href="#SimHei-32"/>
       <use xlink:href="#SimHei-30" x="50"/>
       <use xlink:href="#SimHei-30" x="100"/>
       <use xlink:href="#SimHei-30" x="150"/>
      </g>
     </g>
    </g>
    <g id="ytick_3">
     <g id="line2d_21">
      <path d="M 90 174.192771 
L 648 174.192771 
" clip-path="url(#p73d5de7a9a)" style="fill: none; stroke: #b0b0b0; stroke-width: 0.8; stroke-linecap: square"/>
     </g>
     <g id="line2d_22">
      <g>
       <use xlink:href="#ma425ac35d4" x="90" y="174.192771" style="stroke: #000000; stroke-width: 0.8"/>
      </g>
     </g>
     <g id="text_12">
      <!-- 3000 -->
      <g transform="translate(63 177.630271) scale(0.1 -0.1)">
       <defs>
        <path id="SimHei-33" d="M 250 1225 
L 700 1300 
Q 800 975 1025 762 
Q 1250 550 1587 562 
Q 1925 575 2125 837 
Q 2325 1100 2300 1437 
Q 2275 1775 2037 1962 
Q 1800 2150 1275 2225 
L 1275 2550 
Q 1800 2600 2037 2825 
Q 2275 3050 2250 3412 
Q 2225 3775 1925 3937 
Q 1625 4100 1287 3975 
Q 950 3850 750 3275 
L 300 3350 
Q 450 3800 712 4100 
Q 975 4400 1425 4450 
Q 1875 4500 2212 4337 
Q 2550 4175 2687 3837 
Q 2825 3500 2725 3100 
Q 2625 2700 2150 2400 
Q 2500 2250 2687 1950 
Q 2875 1650 2812 1162 
Q 2750 675 2375 375 
Q 2000 75 1525 87 
Q 1050 100 700 387 
Q 350 675 250 1225 
z
" transform="scale(0.015625)"/>
       </defs>
       <use xlink:href="#SimHei-33"/>
       <use xlink:href="#SimHei-30" x="50"/>
       <use xlink:href="#SimHei-30" x="100"/>
       <use xlink:href="#SimHei-30" x="150"/>
      </g>
     </g>
    </g>
    <g id="ytick_4">
     <g id="line2d_23">
      <path d="M 90 104.025093 
L 648 104.025093 
" clip-path="url(#p73d5de7a9a)" style="fill: none; stroke: #b0b0b0; stroke-width: 0.8; stroke-linecap: square"/>
     </g>
     <g id="line2d_24">
      <g>
       <use xlink:href="#ma425ac35d4" x="90" y="104.025093" style="stroke: #000000; stroke-width: 0.8"/>
      </g>
     </g>
     <g id="text_13">
      <!-- 4000 -->
      <g transform="translate(63 107.462593) scale(0.1 -0.1)">
       <defs>
        <path id="SimHei-34" d="M 2000 1100 
L 75 1100 
L 75 1525 
L 2100 4450 
L 2475 4450 
L 2475 1525 
L 3075 1525 
L 3075 1100 
L 2475 1100 
L 2475 150 
L 2000 150 
L 2000 1100 
z
M 2000 1525 
L 2000 3500 
L 600 1525 
L 2000 1525 
z
" transform="scale(0.015625)"/>
       </defs>
       <use xlink:href="#SimHei-34"/>
       <use xlink:href="#SimHei-30" x="50"/>
       <use xlink:href="#SimHei-30" x="100"/>
       <use xlink:href="#SimHei-30" x="150"/>
      </g>
     </g>
    </g>
    <g id="text_14">
     <!-- 收益 -->
     <g transform="translate(57.75 228.16) rotate(-90) scale(0.1 -0.1)">
      <defs>
       <path id="SimHei-6536" d="M 4250 5050 
Q 4125 4850 3750 4050 
L 5150 4050 
Q 5675 4050 6125 4075 
L 6125 3600 
Q 5675 3625 5300 3625 
Q 5225 2625 5025 1975 
Q 4825 1325 4575 900 
Q 4900 500 5287 275 
Q 5675 50 6200 -75 
Q 5900 -275 5800 -550 
Q 5300 -350 4950 -100 
Q 4600 150 4275 525 
Q 3800 0 2775 -625 
Q 2650 -425 2300 -225 
Q 3275 150 3950 925 
Q 3775 1325 3612 1787 
Q 3450 2250 3250 3000 
Q 2975 2450 2825 2275 
Q 2650 2400 2425 2525 
Q 2775 3025 3137 3837 
Q 3500 4650 3625 5250 
Q 3925 5125 4250 5050 
z
M 975 4275 
Q 925 3950 925 3450 
L 925 1575 
L 1775 1725 
L 1775 4425 
Q 1775 4775 1750 5150 
L 2250 5150 
Q 2225 4850 2225 4450 
L 2225 300 
Q 2225 -50 2250 -550 
L 1750 -550 
Q 1775 -25 1775 350 
L 1775 1350 
Q 625 1050 500 925 
Q 375 1125 225 1350 
Q 450 1475 450 1800 
L 450 3575 
Q 450 3925 425 4275 
L 975 4275 
z
M 3725 3150 
Q 3800 2700 3962 2212 
Q 4125 1725 4300 1375 
Q 4725 2150 4825 3625 
L 3575 3625 
Q 3400 3275 3300 3100 
L 3725 3150 
z
" transform="scale(0.015625)"/>
       <path id="SimHei-76ca" d="M 2825 2925 
Q 2425 2775 2012 2487 
Q 1600 2200 1225 1975 
L 5275 1975 
Q 5250 1575 5250 1000 
L 5250 -50 
Q 5800 -50 6175 -25 
L 6175 -525 
Q 5725 -500 5250 -500 
L 1325 -500 
Q 700 -500 250 -525 
L 250 -25 
Q 600 -50 1175 -50 
L 1175 1050 
Q 1175 1575 1150 1925 
Q 1000 1800 800 1700 
Q 650 1950 425 2125 
Q 800 2275 1312 2600 
Q 1825 2925 2325 3400 
Q 2550 3150 2825 2925 
z
M 4725 5050 
Q 4575 4900 4462 4637 
Q 4350 4375 4175 4075 
L 4625 4075 
Q 5350 4075 5900 4100 
L 5900 3625 
Q 5350 3650 4625 3650 
L 1975 3650 
Q 1350 3650 550 3625 
L 550 4100 
Q 1175 4075 1975 4075 
L 3675 4075 
Q 3775 4300 3887 4625 
Q 4000 4950 4125 5250 
L 4725 5050 
z
M 3600 -50 
L 3600 1575 
L 2800 1575 
L 2800 -50 
L 3600 -50 
z
M 4800 -50 
L 4800 1575 
L 4025 1575 
L 4025 -50 
L 4800 -50 
z
M 2375 -50 
L 2375 1575 
L 1625 1575 
L 1625 -50 
L 2375 -50 
z
M 3900 3350 
Q 4375 3150 4900 2925 
Q 5425 2700 5900 2500 
Q 5700 2300 5550 2000 
Q 5025 2300 4512 2537 
Q 4000 2775 3625 2900 
Q 3750 3075 3900 3350 
z
M 2150 5250 
Q 2375 4925 2650 4350 
Q 2425 4275 2150 4125 
Q 1950 4650 1675 5025 
Q 1875 5100 2150 5250 
z
" transform="scale(0.015625)"/>
      </defs>
      <use xlink:href="#SimHei-6536"/>
      <use xlink:href="#SimHei-76ca" x="100"/>
     </g>
    </g>
   </g>
   <g id="line2d_25">
    <path d="M 115.363636 352.809992 
L 118.401198 352.809992 
L 121.438759 336.867086 
L 124.47632 66.96 
L 133.589004 352.996854 
L 136.626565 352.996854 
L 139.664126 194.502244 
L 142.701688 321.298044 
L 148.77681 352.996924 
L 151.814371 321.298044 
L 154.851932 352.996924 
L 160.927055 352.996854 
L 170.039739 352.996854 
L 173.0773 352.996854 
L 176.114861 352.996854 
L 179.152422 321.297904 
L 185.227545 352.996854 
L 188.265106 337.147379 
L 191.302667 257.900004 
L 194.340229 321.297904 
L 197.37779 352.933212 
L 200.415351 98.832475 
L 203.452912 352.933141 
L 206.490474 321.734066 
L 209.528035 290.253197 
L 212.565596 353.214935 
L 215.603157 290.253317 
L 218.640719 353.2149 
L 221.67828 290.253092 
L 224.715841 164.329476 
L 227.753402 69.804317 
L 230.790964 165.629893 
L 233.828525 228.219878 
L 236.866086 290.810348 
L 239.903647 322.105534 
L 242.941208 290.810399 
L 245.97877 290.810399 
L 249.016331 353.400669 
L 252.053892 259.51386 
L 261.166576 227.952238 
L 264.204137 226.887694 
L 270.27926 195.326073 
L 276.354382 290.010938 
L 279.391943 226.460852 
L 300.654872 321.145718 
L 303.692433 257.595632 
L 306.729995 352.920761 
L 309.767556 321.145718 
L 312.805117 321.145718 
L 315.842678 289.370597 
L 321.917801 352.920722 
L 324.955362 289.370558 
L 327.992923 321.14564 
L 334.068046 257.595476 
L 340.143168 257.570917 
L 346.218291 289.352139 
L 349.255852 352.914582 
L 352.293413 321.13336 
L 355.330974 289.352139 
L 358.368536 321.133584 
L 361.406097 352.914694 
L 364.443658 257.571491 
L 367.481219 368.805281 
L 370.518781 257.571619 
L 376.593903 178.119003 
L 382.669026 289.352665 
L 385.706587 321.133711 
L 388.744148 226.727959 
L 391.781709 323.008484 
L 394.819271 292.164831 
L 397.856832 323.008498 
L 400.894393 261.321192 
L 403.931954 354.10293 
L 406.969516 354.10293 
L 410.007077 354.10293 
L 413.044638 353.942912 
L 416.082199 353.942912 
L 419.11976 353.942912 
L 422.157322 323.190021 
L 431.270005 353.942912 
L 434.307567 353.942912 
L 437.345128 261.833456 
L 440.382689 323.196992 
L 443.42025 353.980217 
L 452.532934 323.293584 
L 458.608057 338.65381 
L 461.645618 354.01728 
L 476.833424 323.362814 
L 485.946108 292.696319 
L 513.284159 323.38998 
L 516.32172 354.042913 
L 519.359281 354.029309 
L 531.509526 262.070638 
L 534.547088 354.029309 
L 537.584649 308.031256 
L 546.697333 354.024196 
L 549.734894 354.02451 
L 555.810016 354.024196 
L 574.035384 354.024196 
L 598.335874 369.36 
L 616.561241 369.36 
L 622.636364 323.22948 
" clip-path="url(#p73d5de7a9a)" style="fill: none; stroke: #008000; stroke-width: 1.5; stroke-linecap: square"/>
    <defs>
     <path id="m053badb417" d="M 0 3 
C 0.795609 3 1.55874 2.683901 2.12132 2.12132 
C 2.683901 1.55874 3 0.795609 3 0 
C 3 -0.795609 2.683901 -1.55874 2.12132 -2.12132 
C 1.55874 -2.683901 0.795609 -3 0 -3 
C -0.795609 -3 -1.55874 -2.683901 -2.12132 -2.12132 
C -2.683901 -1.55874 -3 -0.795609 -3 0 
C -3 0.795609 -2.683901 1.55874 -2.12132 2.12132 
C -1.55874 2.683901 -0.795609 3 0 3 
z
" style="stroke: #008000"/>
    </defs>
    <g clip-path="url(#p73d5de7a9a)">
     <use xlink:href="#m053badb417" x="115.363636" y="352.809992" style="fill: #008000; stroke: #008000"/>
     <use xlink:href="#m053badb417" x="118.401198" y="352.809992" style="fill: #008000; stroke: #008000"/>
     <use xlink:href="#m053badb417" x="121.438759" y="336.867086" style="fill: #008000; stroke: #008000"/>
     <use xlink:href="#m053badb417" x="124.47632" y="66.96" style="fill: #008000; stroke: #008000"/>
     <use xlink:href="#m053badb417" x="133.589004" y="352.996854" style="fill: #008000; stroke: #008000"/>
     <use xlink:href="#m053badb417" x="136.626565" y="352.996854" style="fill: #008000; stroke: #008000"/>
     <use xlink:href="#m053badb417" x="139.664126" y="194.502244" style="fill: #008000; stroke: #008000"/>
     <use xlink:href="#m053badb417" x="142.701688" y="321.298044" style="fill: #008000; stroke: #008000"/>
     <use xlink:href="#m053badb417" x="148.77681" y="352.996924" style="fill: #008000; stroke: #008000"/>
     <use xlink:href="#m053badb417" x="151.814371" y="321.298044" style="fill: #008000; stroke: #008000"/>
     <use xlink:href="#m053badb417" x="154.851932" y="352.996924" style="fill: #008000; stroke: #008000"/>
     <use xlink:href="#m053badb417" x="160.927055" y="352.996854" style="fill: #008000; stroke: #008000"/>
     <use xlink:href="#m053badb417" x="170.039739" y="352.996854" style="fill: #008000; stroke: #008000"/>
     <use xlink:href="#m053badb417" x="173.0773" y="352.996854" style="fill: #008000; stroke: #008000"/>
     <use xlink:href="#m053badb417" x="176.114861" y="352.996854" style="fill: #008000; stroke: #008000"/>
     <use xlink:href="#m053badb417" x="179.152422" y="321.297904" style="fill: #008000; stroke: #008000"/>
     <use xlink:href="#m053badb417" x="185.227545" y="352.996854" style="fill: #008000; stroke: #008000"/>
     <use xlink:href="#m053badb417" x="188.265106" y="337.147379" style="fill: #008000; stroke: #008000"/>
     <use xlink:href="#m053badb417" x="191.302667" y="257.900004" style="fill: #008000; stroke: #008000"/>
     <use xlink:href="#m053badb417" x="194.340229" y="321.297904" style="fill: #008000; stroke: #008000"/>
     <use xlink:href="#m053badb417" x="197.37779" y="352.933212" style="fill: #008000; stroke: #008000"/>
     <use xlink:href="#m053badb417" x="200.415351" y="98.832475" style="fill: #008000; stroke: #008000"/>
     <use xlink:href="#m053badb417" x="203.452912" y="352.933141" style="fill: #008000; stroke: #008000"/>
     <use xlink:href="#m053badb417" x="206.490474" y="321.734066" style="fill: #008000; stroke: #008000"/>
     <use xlink:href="#m053badb417" x="209.528035" y="290.253197" style="fill: #008000; stroke: #008000"/>
     <use xlink:href="#m053badb417" x="212.565596" y="353.214935" style="fill: #008000; stroke: #008000"/>
     <use xlink:href="#m053badb417" x="215.603157" y="290.253317" style="fill: #008000; stroke: #008000"/>
     <use xlink:href="#m053badb417" x="218.640719" y="353.2149" style="fill: #008000; stroke: #008000"/>
     <use xlink:href="#m053badb417" x="221.67828" y="290.253092" style="fill: #008000; stroke: #008000"/>
     <use xlink:href="#m053badb417" x="224.715841" y="164.329476" style="fill: #008000; stroke: #008000"/>
     <use xlink:href="#m053badb417" x="227.753402" y="69.804317" style="fill: #008000; stroke: #008000"/>
     <use xlink:href="#m053badb417" x="230.790964" y="165.629893" style="fill: #008000; stroke: #008000"/>
     <use xlink:href="#m053badb417" x="233.828525" y="228.219878" style="fill: #008000; stroke: #008000"/>
     <use xlink:href="#m053badb417" x="236.866086" y="290.810348" style="fill: #008000; stroke: #008000"/>
     <use xlink:href="#m053badb417" x="239.903647" y="322.105534" style="fill: #008000; stroke: #008000"/>
     <use xlink:href="#m053badb417" x="242.941208" y="290.810399" style="fill: #008000; stroke: #008000"/>
     <use xlink:href="#m053badb417" x="245.97877" y="290.810399" style="fill: #008000; stroke: #008000"/>
     <use xlink:href="#m053badb417" x="249.016331" y="353.400669" style="fill: #008000; stroke: #008000"/>
     <use xlink:href="#m053badb417" x="252.053892" y="259.51386" style="fill: #008000; stroke: #008000"/>
     <use xlink:href="#m053badb417" x="261.166576" y="227.952238" style="fill: #008000; stroke: #008000"/>
     <use xlink:href="#m053badb417" x="264.204137" y="226.887694" style="fill: #008000; stroke: #008000"/>
     <use xlink:href="#m053badb417" x="270.27926" y="195.326073" style="fill: #008000; stroke: #008000"/>
     <use xlink:href="#m053badb417" x="276.354382" y="290.010938" style="fill: #008000; stroke: #008000"/>
     <use xlink:href="#m053badb417" x="279.391943" y="226.460852" style="fill: #008000; stroke: #008000"/>
     <use xlink:href="#m053badb417" x="300.654872" y="321.145718" style="fill: #008000; stroke: #008000"/>
     <use xlink:href="#m053badb417" x="303.692433" y="257.595632" style="fill: #008000; stroke: #008000"/>
     <use xlink:href="#m053badb417" x="306.729995" y="352.920761" style="fill: #008000; stroke: #008000"/>
     <use xlink:href="#m053badb417" x="309.767556" y="321.145718" style="fill: #008000; stroke: #008000"/>
     <use xlink:href="#m053badb417" x="312.805117" y="321.145718" style="fill: #008000; stroke: #008000"/>
     <use xlink:href="#m053badb417" x="315.842678" y="289.370597" style="fill: #008000; stroke: #008000"/>
     <use xlink:href="#m053badb417" x="321.917801" y="352.920722" style="fill: #008000; stroke: #008000"/>
     <use xlink:href="#m053badb417" x="324.955362" y="289.370558" style="fill: #008000; stroke: #008000"/>
     <use xlink:href="#m053badb417" x="327.992923" y="321.14564" style="fill: #008000; stroke: #008000"/>
     <use xlink:href="#m053badb417" x="334.068046" y="257.595476" style="fill: #008000; stroke: #008000"/>
     <use xlink:href="#m053badb417" x="340.143168" y="257.570917" style="fill: #008000; stroke: #008000"/>
     <use xlink:href="#m053badb417" x="346.218291" y="289.352139" style="fill: #008000; stroke: #008000"/>
     <use xlink:href="#m053badb417" x="349.255852" y="352.914582" style="fill: #008000; stroke: #008000"/>
     <use xlink:href="#m053badb417" x="352.293413" y="321.13336" style="fill: #008000; stroke: #008000"/>
     <use xlink:href="#m053badb417" x="355.330974" y="289.352139" style="fill: #008000; stroke: #008000"/>
     <use xlink:href="#m053badb417" x="358.368536" y="321.133584" style="fill: #008000; stroke: #008000"/>
     <use xlink:href="#m053badb417" x="361.406097" y="352.914694" style="fill: #008000; stroke: #008000"/>
     <use xlink:href="#m053badb417" x="364.443658" y="257.571491" style="fill: #008000; stroke: #008000"/>
     <use xlink:href="#m053badb417" x="367.481219" y="368.805281" style="fill: #008000; stroke: #008000"/>
     <use xlink:href="#m053badb417" x="370.518781" y="257.571619" style="fill: #008000; stroke: #008000"/>
     <use xlink:href="#m053badb417" x="376.593903" y="178.119003" style="fill: #008000; stroke: #008000"/>
     <use xlink:href="#m053badb417" x="382.669026" y="289.352665" style="fill: #008000; stroke: #008000"/>
     <use xlink:href="#m053badb417" x="385.706587" y="321.133711" style="fill: #008000; stroke: #008000"/>
     <use xlink:href="#m053badb417" x="388.744148" y="226.727959" style="fill: #008000; stroke: #008000"/>
     <use xlink:href="#m053badb417" x="391.781709" y="323.008484" style="fill: #008000; stroke: #008000"/>
     <use xlink:href="#m053badb417" x="394.819271" y="292.164831" style="fill: #008000; stroke: #008000"/>
     <use xlink:href="#m053badb417" x="397.856832" y="323.008498" style="fill: #008000; stroke: #008000"/>
     <use xlink:href="#m053badb417" x="400.894393" y="261.321192" style="fill: #008000; stroke: #008000"/>
     <use xlink:href="#m053badb417" x="403.931954" y="354.10293" style="fill: #008000; stroke: #008000"/>
     <use xlink:href="#m053badb417" x="406.969516" y="354.10293" style="fill: #008000; stroke: #008000"/>
     <use xlink:href="#m053badb417" x="410.007077" y="354.10293" style="fill: #008000; stroke: #008000"/>
     <use xlink:href="#m053badb417" x="413.044638" y="353.942912" style="fill: #008000; stroke: #008000"/>
     <use xlink:href="#m053badb417" x="416.082199" y="353.942912" style="fill: #008000; stroke: #008000"/>
     <use xlink:href="#m053badb417" x="419.11976" y="353.942912" style="fill: #008000; stroke: #008000"/>
     <use xlink:href="#m053badb417" x="422.157322" y="323.190021" style="fill: #008000; stroke: #008000"/>
     <use xlink:href="#m053badb417" x="431.270005" y="353.942912" style="fill: #008000; stroke: #008000"/>
     <use xlink:href="#m053badb417" x="434.307567" y="353.942912" style="fill: #008000; stroke: #008000"/>
     <use xlink:href="#m053badb417" x="437.345128" y="261.833456" style="fill: #008000; stroke: #008000"/>
     <use xlink:href="#m053badb417" x="440.382689" y="323.196992" style="fill: #008000; stroke: #008000"/>
     <use xlink:href="#m053badb417" x="443.42025" y="353.980217" style="fill: #008000; stroke: #008000"/>
     <use xlink:href="#m053badb417" x="452.532934" y="323.293584" style="fill: #008000; stroke: #008000"/>
     <use xlink:href="#m053badb417" x="458.608057" y="338.65381" style="fill: #008000; stroke: #008000"/>
     <use xlink:href="#m053badb417" x="461.645618" y="354.01728" style="fill: #008000; stroke: #008000"/>
     <use xlink:href="#m053badb417" x="476.833424" y="323.362814" style="fill: #008000; stroke: #008000"/>
     <use xlink:href="#m053badb417" x="485.946108" y="292.696319" style="fill: #008000; stroke: #008000"/>
     <use xlink:href="#m053badb417" x="513.284159" y="323.38998" style="fill: #008000; stroke: #008000"/>
     <use xlink:href="#m053badb417" x="516.32172" y="354.042913" style="fill: #008000; stroke: #008000"/>
     <use xlink:href="#m053badb417" x="519.359281" y="354.029309" style="fill: #008000; stroke: #008000"/>
     <use xlink:href="#m053badb417" x="531.509526" y="262.070638" style="fill: #008000; stroke: #008000"/>
     <use xlink:href="#m053badb417" x="534.547088" y="354.029309" style="fill: #008000; stroke: #008000"/>
     <use xlink:href="#m053badb417" x="537.584649" y="308.031256" style="fill: #008000; stroke: #008000"/>
     <use xlink:href="#m053badb417" x="546.697333" y="354.024196" style="fill: #008000; stroke: #008000"/>
     <use xlink:href="#m053badb417" x="549.734894" y="354.02451" style="fill: #008000; stroke: #008000"/>
     <use xlink:href="#m053badb417" x="555.810016" y="354.024196" style="fill: #008000; stroke: #008000"/>
     <use xlink:href="#m053badb417" x="574.035384" y="354.024196" style="fill: #008000; stroke: #008000"/>
     <use xlink:href="#m053badb417" x="598.335874" y="369.36" style="fill: #008000; stroke: #008000"/>
     <use xlink:href="#m053badb417" x="616.561241" y="369.36" style="fill: #008000; stroke: #008000"/>
     <use xlink:href="#m053badb417" x="622.636364" y="323.22948" style="fill: #008000; stroke: #008000"/>
    </g>
   </g>
   <g id="patch_3">
    <path d="M 90 384.48 
L 90 51.84 
" style="fill: none; stroke: #000000; stroke-width: 0.8; stroke-linejoin: miter; stroke-linecap: square"/>
   </g>
   <g id="patch_4">
    <path d="M 648 384.48 
L 648 51.84 
" style="fill: none; stroke: #000000; stroke-width: 0.8; stroke-linejoin: miter; stroke-linecap: square"/>
   </g>
   <g id="patch_5">
    <path d="M 90 384.48 
L 648 384.48 
" style="fill: none; stroke: #000000; stroke-width: 0.8; stroke-linejoin: miter; stroke-linecap: square"/>
   </g>
   <g id="patch_6">
    <path d="M 90 51.84 
L 648 51.84 
" style="fill: none; stroke: #000000; stroke-width: 0.8; stroke-linejoin: miter; stroke-linecap: square"/>
   </g>
   <g id="text_15">
    <!-- 6004020141 每周收益 -->
    <g transform="translate(312 45.84) scale(0.12 -0.12)">
     <defs>
      <path id="SimHei-36" d="M 250 1612 
Q 275 1975 387 2225 
Q 500 2475 725 2850 
L 1750 4450 
L 2325 4450 
L 1275 2800 
Q 1950 2975 2350 2750 
Q 2750 2525 2887 2237 
Q 3025 1950 3037 1612 
Q 3050 1275 2937 950 
Q 2825 625 2537 362 
Q 2250 100 1737 75 
Q 1225 50 862 262 
Q 500 475 362 862 
Q 225 1250 250 1612 
z
M 1025 787 
Q 1250 550 1625 525 
Q 2000 500 2250 775 
Q 2500 1050 2500 1575 
Q 2500 2100 2187 2300 
Q 1875 2500 1487 2450 
Q 1100 2400 925 2075 
Q 750 1750 775 1387 
Q 800 1025 1025 787 
z
" transform="scale(0.015625)"/>
      <path id="SimHei-20" transform="scale(0.015625)"/>
      <path id="SimHei-6bcf" d="M 5225 3650 
Q 5175 3150 5150 2675 
L 5125 2200 
Q 5525 2200 6000 2225 
L 6000 1775 
Q 5625 1800 5100 1800 
L 5050 650 
Q 5325 650 5700 675 
L 5700 225 
Q 5400 250 5025 250 
Q 5000 -275 4775 -425 
Q 4550 -575 4000 -650 
Q 3950 -400 3775 -125 
Q 4375 -125 4475 -50 
Q 4575 25 4575 250 
L 1400 250 
L 1500 1100 
L 1550 1800 
L 1275 1800 
Q 825 1800 550 1775 
L 550 2225 
Q 975 2200 1275 2200 
L 1575 2200 
L 1625 2825 
L 1675 3650 
L 5225 3650 
z
M 2350 5000 
Q 2175 4825 2050 4600 
L 4875 4600 
Q 5275 4600 5775 4625 
L 5775 4175 
Q 5275 4200 4875 4200 
L 1825 4200 
L 1375 3625 
Q 1125 3325 775 2975 
Q 600 3175 350 3300 
Q 725 3575 1150 4112 
Q 1575 4650 1825 5250 
Q 2125 5075 2350 5000 
z
M 1975 1800 
L 1875 650 
L 4625 650 
L 4675 1800 
L 2950 1800 
Q 3575 1275 3825 1125 
Q 3625 925 3475 725 
Q 3100 1100 2650 1475 
Q 2775 1675 2875 1800 
L 1975 1800 
z
M 2975 3250 
Q 3125 3150 3287 3012 
Q 3450 2875 3800 2550 
Q 3650 2350 3525 2200 
L 4700 2200 
L 4750 3250 
L 2975 3250 
z
M 2075 3250 
L 2000 2200 
L 3425 2200 
Q 3150 2500 3012 2625 
Q 2875 2750 2700 2900 
Q 2800 3050 2925 3250 
L 2075 3250 
z
" transform="scale(0.015625)"/>
     </defs>
     <use xlink:href="#SimHei-36"/>
     <use xlink:href="#SimHei-30" x="50"/>
     <use xlink:href="#SimHei-30" x="100"/>
     <use xlink:href="#SimHei-34" x="150"/>
     <use xlink:href="#SimHei-30" x="200"/>
     <use xlink:href="#SimHei-32" x="250"/>
     <use xlink:href="#SimHei-30" x="300"/>
     <use xlink:href="#SimHei-31" x="350"/>
     <use xlink:href="#SimHei-34" x="400"/>
     <use xlink:href="#SimHei-31" x="450"/>
     <use xlink:href="#SimHei-20" x="500"/>
     <use xlink:href="#SimHei-6bcf" x="550"/>
     <use xlink:href="#SimHei-5468" x="650"/>
     <use xlink:href="#SimHei-6536" x="750"/>
     <use xlink:href="#SimHei-76ca" x="850"/>
    </g>
   </g>
  </g>
 </g>
 <defs>
  <clipPath id="p73d5de7a9a">
   <rect x="90" y="51.84" width="558" height="332.64"/>
  </clipPath>
 </defs>
</svg>
