<?xml version="1.0" encoding="utf-8" standalone="no"?>
<!DOCTYPE svg PUBLIC "-//W3C//DTD SVG 1.1//EN"
  "http://www.w3.org/Graphics/SVG/1.1/DTD/svg11.dtd">
<svg xmlns:xlink="http://www.w3.org/1999/xlink" width="720pt" height="432pt" viewBox="0 0 720 432" xmlns="http://www.w3.org/2000/svg" version="1.1">
 <metadata>
  <rdf:RDF xmlns:dc="http://purl.org/dc/elements/1.1/" xmlns:cc="http://creativecommons.org/ns#" xmlns:rdf="http://www.w3.org/1999/02/22-rdf-syntax-ns#">
   <cc:Work>
    <dc:type rdf:resource="http://purl.org/dc/dcmitype/StillImage"/>
    <dc:date>2024-08-17T14:09:48.723166</dc:date>
    <dc:format>image/svg+xml</dc:format>
    <dc:creator>
     <cc:Agent>
      <dc:title>Matplotlib v3.8.0, https://matplotlib.org/</dc:title>
     </cc:Agent>
    </dc:creator>
   </cc:Work>
  </rdf:RDF>
 </metadata>
 <defs>
  <style type="text/css">*{stroke-linejoin: round; stroke-linecap: butt}</style>
 </defs>
 <g id="figure_1">
  <g id="patch_1">
   <path d="M 0 432 
L 720 432 
L 720 0 
L 0 0 
z
" style="fill: #ffffff"/>
  </g>
  <g id="axes_1">
   <g id="patch_2">
    <path d="M 90 384.48 
L 648 384.48 
L 648 51.84 
L 90 51.84 
z
" style="fill: #ffffff"/>
   </g>
   <g id="matplotlib.axis_1">
    <g id="xtick_1">
     <g id="line2d_1">
      <defs>
       <path id="m54899581c4" d="M 0 0 
L 0 3.5 
" style="stroke: #000000; stroke-width: 0.8"/>
      </defs>
      <g>
       <use xlink:href="#m54899581c4" x="112.431424" y="384.48" style="stroke: #000000; stroke-width: 0.8"/>
      </g>
     </g>
     <g id="text_1">
      <!-- 0 -->
      <g transform="translate(109.931424 398.355) scale(0.1 -0.1)">
       <defs>
        <path id="SimHei-30" d="M 225 2537 
Q 250 3200 412 3587 
Q 575 3975 875 4225 
Q 1175 4475 1612 4475 
Q 2050 4475 2375 4112 
Q 2700 3750 2800 3200 
Q 2900 2650 2862 1937 
Q 2825 1225 2612 775 
Q 2400 325 1975 150 
Q 1550 -25 1125 187 
Q 700 400 525 750 
Q 350 1100 275 1487 
Q 200 1875 225 2537 
z
M 750 2687 
Q 675 2000 800 1462 
Q 925 925 1212 700 
Q 1500 475 1800 612 
Q 2100 750 2237 1162 
Q 2375 1575 2375 2062 
Q 2375 2550 2337 2950 
Q 2300 3350 2112 3675 
Q 1925 4000 1612 4012 
Q 1300 4025 1062 3700 
Q 825 3375 750 2687 
z
" transform="scale(0.015625)"/>
       </defs>
       <use xlink:href="#SimHei-30"/>
      </g>
     </g>
    </g>
    <g id="xtick_2">
     <g id="line2d_2">
      <g>
       <use xlink:href="#m54899581c4" x="185.736731" y="384.48" style="stroke: #000000; stroke-width: 0.8"/>
      </g>
     </g>
     <g id="text_2">
      <!-- 25 -->
      <g transform="translate(180.736731 398.355) scale(0.1 -0.1)">
       <defs>
        <path id="SimHei-32" d="M 300 250 
Q 325 625 650 925 
Q 975 1225 1475 1862 
Q 1975 2500 2125 2850 
Q 2275 3200 2237 3450 
Q 2200 3700 2000 3862 
Q 1800 4025 1537 4000 
Q 1275 3975 1037 3800 
Q 800 3625 675 3275 
L 200 3350 
Q 400 3925 712 4187 
Q 1025 4450 1450 4475 
Q 1700 4500 1900 4462 
Q 2100 4425 2312 4287 
Q 2525 4150 2662 3875 
Q 2800 3600 2762 3212 
Q 2725 2825 2375 2287 
Q 2025 1750 1025 600 
L 2825 600 
L 2825 150 
L 300 150 
L 300 250 
z
" transform="scale(0.015625)"/>
        <path id="SimHei-35" d="M 550 1325 
Q 725 650 1150 575 
Q 1575 500 1837 662 
Q 2100 825 2212 1087 
Q 2325 1350 2312 1675 
Q 2300 2000 2137 2225 
Q 1975 2450 1725 2525 
Q 1475 2600 1162 2525 
Q 850 2450 650 2175 
L 225 2225 
Q 275 2375 700 4375 
L 2675 4375 
L 2675 3925 
L 1075 3925 
Q 950 3250 825 2850 
Q 1200 3025 1525 3012 
Q 1850 3000 2150 2862 
Q 2450 2725 2587 2487 
Q 2725 2250 2787 2012 
Q 2850 1775 2837 1500 
Q 2825 1225 2725 937 
Q 2625 650 2425 462 
Q 2225 275 1937 162 
Q 1650 50 1275 75 
Q 900 100 562 350 
Q 225 600 100 1200 
L 550 1325 
z
" transform="scale(0.015625)"/>
       </defs>
       <use xlink:href="#SimHei-32"/>
       <use xlink:href="#SimHei-35" x="50"/>
      </g>
     </g>
    </g>
    <g id="xtick_3">
     <g id="line2d_3">
      <g>
       <use xlink:href="#m54899581c4" x="259.042039" y="384.48" style="stroke: #000000; stroke-width: 0.8"/>
      </g>
     </g>
     <g id="text_3">
      <!-- 50 -->
      <g transform="translate(254.042039 398.355) scale(0.1 -0.1)">
       <use xlink:href="#SimHei-35"/>
       <use xlink:href="#SimHei-30" x="50"/>
      </g>
     </g>
    </g>
    <g id="xtick_4">
     <g id="line2d_4">
      <g>
       <use xlink:href="#m54899581c4" x="332.347346" y="384.48" style="stroke: #000000; stroke-width: 0.8"/>
      </g>
     </g>
     <g id="text_4">
      <!-- 75 -->
      <g transform="translate(327.347346 398.355) scale(0.1 -0.1)">
       <defs>
        <path id="SimHei-37" d="M 850 150 
Q 1300 2050 2425 3925 
L 275 3925 
L 275 4375 
L 2950 4375 
L 2950 3950 
Q 1775 2050 1400 150 
L 850 150 
z
" transform="scale(0.015625)"/>
       </defs>
       <use xlink:href="#SimHei-37"/>
       <use xlink:href="#SimHei-35" x="50"/>
      </g>
     </g>
    </g>
    <g id="xtick_5">
     <g id="line2d_5">
      <g>
       <use xlink:href="#m54899581c4" x="405.652654" y="384.48" style="stroke: #000000; stroke-width: 0.8"/>
      </g>
     </g>
     <g id="text_5">
      <!-- 100 -->
      <g transform="translate(398.152654 398.355) scale(0.1 -0.1)">
       <defs>
        <path id="SimHei-31" d="M 1400 3600 
Q 1075 3275 575 2975 
L 575 3450 
Q 1200 3875 1600 4450 
L 1900 4450 
L 1900 150 
L 1400 150 
L 1400 3600 
z
" transform="scale(0.015625)"/>
       </defs>
       <use xlink:href="#SimHei-31"/>
       <use xlink:href="#SimHei-30" x="50"/>
       <use xlink:href="#SimHei-30" x="100"/>
      </g>
     </g>
    </g>
    <g id="xtick_6">
     <g id="line2d_6">
      <g>
       <use xlink:href="#m54899581c4" x="478.957961" y="384.48" style="stroke: #000000; stroke-width: 0.8"/>
      </g>
     </g>
     <g id="text_6">
      <!-- 125 -->
      <g transform="translate(471.457961 398.355) scale(0.1 -0.1)">
       <use xlink:href="#SimHei-31"/>
       <use xlink:href="#SimHei-32" x="50"/>
       <use xlink:href="#SimHei-35" x="100"/>
      </g>
     </g>
    </g>
    <g id="xtick_7">
     <g id="line2d_7">
      <g>
       <use xlink:href="#m54899581c4" x="552.263269" y="384.48" style="stroke: #000000; stroke-width: 0.8"/>
      </g>
     </g>
     <g id="text_7">
      <!-- 150 -->
      <g transform="translate(544.763269 398.355) scale(0.1 -0.1)">
       <use xlink:href="#SimHei-31"/>
       <use xlink:href="#SimHei-35" x="50"/>
       <use xlink:href="#SimHei-30" x="100"/>
      </g>
     </g>
    </g>
    <g id="xtick_8">
     <g id="line2d_8">
      <g>
       <use xlink:href="#m54899581c4" x="625.568576" y="384.48" style="stroke: #000000; stroke-width: 0.8"/>
      </g>
     </g>
     <g id="text_8">
      <!-- 175 -->
      <g transform="translate(618.068576 398.355) scale(0.1 -0.1)">
       <use xlink:href="#SimHei-31"/>
       <use xlink:href="#SimHei-37" x="50"/>
       <use xlink:href="#SimHei-35" x="100"/>
      </g>
     </g>
    </g>
    <g id="text_9">
     <!-- 周数 -->
     <g transform="translate(359 411.339375) scale(0.1 -0.1)">
      <defs>
       <path id="SimHei-5468" d="M 5600 4925 
Q 5575 4400 5575 3800 
L 5575 50 
Q 5550 -375 5325 -462 
Q 5100 -550 4325 -600 
Q 4300 -400 4125 -75 
Q 4800 -100 4962 -37 
Q 5125 25 5100 225 
L 5100 4525 
L 1500 4525 
Q 1500 2575 1450 1887 
Q 1400 1200 1237 550 
Q 1075 -100 775 -625 
Q 625 -450 275 -225 
Q 650 225 825 1000 
Q 1000 1775 1025 2587 
Q 1050 3400 1000 4925 
L 5600 4925 
z
M 2050 325 
Q 2075 625 2075 950 
L 2075 1400 
Q 2075 1625 2050 1925 
L 4400 1925 
Q 4375 1725 4375 1450 
L 4375 875 
Q 4375 600 4400 325 
L 2050 325 
z
M 3000 3800 
Q 3000 4150 2975 4375 
L 3475 4375 
Q 3450 4075 3450 3800 
Q 4100 3800 4475 3825 
L 4475 3350 
Q 4125 3375 3450 3375 
L 3450 2800 
Q 4200 2800 4825 2825 
L 4825 2350 
Q 4175 2375 3725 2375 
L 2750 2375 
Q 2325 2375 1725 2350 
L 1725 2825 
Q 2325 2800 3000 2800 
L 3000 3375 
Q 2500 3375 1975 3350 
L 1975 3825 
Q 2475 3800 3000 3800 
z
M 3900 725 
L 3900 1525 
L 2550 1525 
L 2550 725 
L 3900 725 
z
" transform="scale(0.015625)"/>
       <path id="SimHei-6570" d="M 4525 4925 
Q 4475 4800 4400 4587 
Q 4325 4375 4175 3825 
L 5325 3825 
Q 5575 3825 5925 3850 
L 5925 3400 
Q 5650 3425 5500 3425 
Q 5500 3025 5362 2162 
Q 5225 1300 4875 675 
Q 5125 375 5437 137 
Q 5750 -100 6025 -200 
Q 5725 -425 5625 -625 
Q 5325 -450 5075 -225 
Q 4825 0 4575 325 
Q 4300 25 3987 -187 
Q 3675 -400 3200 -650 
Q 3075 -425 2850 -300 
Q 3225 -150 3650 125 
Q 4075 400 4300 675 
Q 4125 1025 3962 1425 
Q 3800 1825 3675 2475 
Q 3600 2275 3425 1950 
Q 3250 2050 3000 2150 
Q 3400 2850 3650 3675 
Q 3900 4500 3975 5100 
Q 4275 4975 4525 4925 
z
M 2100 2250 
Q 2000 2150 1875 1925 
L 3250 1925 
Q 3100 1300 2725 675 
Q 3125 525 3350 400 
Q 3225 225 3125 25 
Q 2900 175 2450 325 
Q 1950 -225 725 -650 
Q 600 -375 400 -275 
Q 1575 0 2000 475 
Q 1300 650 850 775 
Q 1000 1000 1250 1525 
Q 1000 1525 425 1500 
L 425 1950 
Q 900 1925 1400 1925 
Q 1500 2150 1550 2425 
Q 1825 2325 2100 2250 
z
M 1775 3950 
Q 1775 4550 1750 5100 
L 2250 5100 
Q 2225 4575 2225 3950 
Q 3075 3950 3425 3975 
L 3425 3525 
Q 3075 3550 2225 3550 
Q 2225 2825 2250 2425 
L 1750 2425 
Q 1775 2775 1775 3300 
Q 1650 3100 1300 2787 
Q 950 2475 650 2300 
Q 525 2525 275 2625 
Q 500 2700 875 2975 
Q 1250 3250 1450 3550 
Q 950 3550 500 3525 
L 500 3975 
Q 925 3950 1775 3950 
z
M 3975 3175 
Q 4200 1700 4600 1125 
Q 4850 1700 4937 2287 
Q 5025 2875 5050 3425 
L 4075 3425 
L 3975 3175 
z
M 1450 1000 
Q 1750 925 2275 800 
Q 2475 1050 2650 1525 
L 1725 1525 
Q 1600 1275 1450 1000 
z
M 3325 4825 
Q 3200 4625 3125 4450 
Q 3050 4275 2925 4025 
Q 2725 4125 2525 4175 
Q 2725 4500 2900 5000 
Q 3150 4875 3325 4825 
z
M 2575 3375 
Q 2900 3050 3200 2725 
Q 3050 2600 2875 2425 
Q 2525 2850 2300 3100 
Q 2450 3225 2575 3375 
z
M 925 5000 
Q 1275 4650 1500 4300 
L 1125 4075 
Q 950 4425 600 4725 
Q 825 4875 925 5000 
z
" transform="scale(0.015625)"/>
      </defs>
      <use xlink:href="#SimHei-5468"/>
      <use xlink:href="#SimHei-6570" x="100"/>
     </g>
    </g>
   </g>
   <g id="matplotlib.axis_2">
    <g id="ytick_1">
     <g id="line2d_9">
      <defs>
       <path id="ma77c2519cf" d="M 0 0 
L -3.5 0 
" style="stroke: #000000; stroke-width: 0.8"/>
      </defs>
      <g>
       <use xlink:href="#ma77c2519cf" x="90" y="377.76" style="stroke: #000000; stroke-width: 0.8"/>
      </g>
     </g>
     <g id="text_10">
      <!-- 0 -->
      <g style="fill: #0000ff" transform="translate(78 381.1975) scale(0.1 -0.1)">
       <use xlink:href="#SimHei-30"/>
      </g>
     </g>
    </g>
    <g id="ytick_2">
     <g id="line2d_10">
      <g>
       <use xlink:href="#ma77c2519cf" x="90" y="335.76" style="stroke: #000000; stroke-width: 0.8"/>
      </g>
     </g>
     <g id="text_11">
      <!-- 5 -->
      <g style="fill: #0000ff" transform="translate(78 339.1975) scale(0.1 -0.1)">
       <use xlink:href="#SimHei-35"/>
      </g>
     </g>
    </g>
    <g id="ytick_3">
     <g id="line2d_11">
      <g>
       <use xlink:href="#ma77c2519cf" x="90" y="293.76" style="stroke: #000000; stroke-width: 0.8"/>
      </g>
     </g>
     <g id="text_12">
      <!-- 10 -->
      <g style="fill: #0000ff" transform="translate(73 297.1975) scale(0.1 -0.1)">
       <use xlink:href="#SimHei-31"/>
       <use xlink:href="#SimHei-30" x="50"/>
      </g>
     </g>
    </g>
    <g id="ytick_4">
     <g id="line2d_12">
      <g>
       <use xlink:href="#ma77c2519cf" x="90" y="251.76" style="stroke: #000000; stroke-width: 0.8"/>
      </g>
     </g>
     <g id="text_13">
      <!-- 15 -->
      <g style="fill: #0000ff" transform="translate(73 255.1975) scale(0.1 -0.1)">
       <use xlink:href="#SimHei-31"/>
       <use xlink:href="#SimHei-35" x="50"/>
      </g>
     </g>
    </g>
    <g id="ytick_5">
     <g id="line2d_13">
      <g>
       <use xlink:href="#ma77c2519cf" x="90" y="209.76" style="stroke: #000000; stroke-width: 0.8"/>
      </g>
     </g>
     <g id="text_14">
      <!-- 20 -->
      <g style="fill: #0000ff" transform="translate(73 213.1975) scale(0.1 -0.1)">
       <use xlink:href="#SimHei-32"/>
       <use xlink:href="#SimHei-30" x="50"/>
      </g>
     </g>
    </g>
    <g id="ytick_6">
     <g id="line2d_14">
      <g>
       <use xlink:href="#ma77c2519cf" x="90" y="167.76" style="stroke: #000000; stroke-width: 0.8"/>
      </g>
     </g>
     <g id="text_15">
      <!-- 25 -->
      <g style="fill: #0000ff" transform="translate(73 171.1975) scale(0.1 -0.1)">
       <use xlink:href="#SimHei-32"/>
       <use xlink:href="#SimHei-35" x="50"/>
      </g>
     </g>
    </g>
    <g id="ytick_7">
     <g id="line2d_15">
      <g>
       <use xlink:href="#ma77c2519cf" x="90" y="125.76" style="stroke: #000000; stroke-width: 0.8"/>
      </g>
     </g>
     <g id="text_16">
      <!-- 30 -->
      <g style="fill: #0000ff" transform="translate(73 129.1975) scale(0.1 -0.1)">
       <defs>
        <path id="SimHei-33" d="M 250 1225 
L 700 1300 
Q 800 975 1025 762 
Q 1250 550 1587 562 
Q 1925 575 2125 837 
Q 2325 1100 2300 1437 
Q 2275 1775 2037 1962 
Q 1800 2150 1275 2225 
L 1275 2550 
Q 1800 2600 2037 2825 
Q 2275 3050 2250 3412 
Q 2225 3775 1925 3937 
Q 1625 4100 1287 3975 
Q 950 3850 750 3275 
L 300 3350 
Q 450 3800 712 4100 
Q 975 4400 1425 4450 
Q 1875 4500 2212 4337 
Q 2550 4175 2687 3837 
Q 2825 3500 2725 3100 
Q 2625 2700 2150 2400 
Q 2500 2250 2687 1950 
Q 2875 1650 2812 1162 
Q 2750 675 2375 375 
Q 2000 75 1525 87 
Q 1050 100 700 387 
Q 350 675 250 1225 
z
" transform="scale(0.015625)"/>
       </defs>
       <use xlink:href="#SimHei-33"/>
       <use xlink:href="#SimHei-30" x="50"/>
      </g>
     </g>
    </g>
    <g id="ytick_8">
     <g id="line2d_16">
      <g>
       <use xlink:href="#ma77c2519cf" x="90" y="83.76" style="stroke: #000000; stroke-width: 0.8"/>
      </g>
     </g>
     <g id="text_17">
      <!-- 35 -->
      <g style="fill: #0000ff" transform="translate(73 87.1975) scale(0.1 -0.1)">
       <use xlink:href="#SimHei-33"/>
       <use xlink:href="#SimHei-35" x="50"/>
      </g>
     </g>
    </g>
    <g id="text_18">
     <!-- 需求量 -->
     <g style="fill: #0000ff" transform="translate(67.75 233.16) rotate(-90) scale(0.1 -0.1)">
      <defs>
       <path id="SimHei-9700" d="M 5150 2100 
Q 5500 2100 5975 2125 
L 5975 1700 
Q 5500 1725 5150 1725 
L 3425 1725 
Q 3300 1500 3250 1275 
L 5600 1275 
Q 5575 950 5575 700 
L 5575 -50 
Q 5575 -350 5425 -437 
Q 5275 -525 4775 -625 
Q 4750 -400 4550 -100 
Q 4950 -100 5025 -50 
Q 5100 0 5100 200 
L 5100 900 
L 4125 900 
L 4125 -375 
L 3650 -375 
L 3650 900 
L 2775 900 
L 2775 -375 
L 2300 -375 
L 2300 900 
L 1350 900 
L 1350 -575 
L 875 -575 
Q 900 -225 900 175 
L 900 575 
Q 900 900 875 1275 
L 2800 1275 
Q 2875 1500 2925 1725 
L 1350 1725 
Q 925 1725 525 1700 
L 525 2125 
Q 900 2100 1325 2100 
L 5150 2100 
z
M 4700 5075 
Q 5075 5075 5550 5100 
L 5550 4675 
Q 5075 4700 4700 4700 
L 3475 4700 
L 3475 4275 
L 5975 4275 
L 5975 3100 
L 5500 3100 
L 5500 3900 
L 3475 3900 
L 3475 3200 
Q 3475 2775 3500 2425 
L 2975 2425 
Q 3000 2750 3000 3175 
L 3000 3900 
L 950 3900 
L 950 3100 
L 450 3100 
Q 450 3375 462 3650 
Q 475 3925 450 4275 
L 3000 4275 
L 3000 4700 
L 1775 4700 
Q 1400 4700 1025 4675 
L 1025 5100 
Q 1400 5075 1750 5075 
L 4700 5075 
z
M 2475 2450 
L 1250 2450 
L 1250 2800 
L 2475 2800 
L 2475 2450 
z
M 2500 3150 
L 1325 3150 
L 1325 3500 
L 2500 3500 
L 2500 3150 
z
M 5000 3175 
L 3825 3175 
L 3825 3525 
L 5000 3525 
L 5000 3175 
z
M 5025 2500 
L 3850 2500 
L 3850 2850 
L 5025 2850 
L 5025 2500 
z
" transform="scale(0.015625)"/>
       <path id="SimHei-6c42" d="M 475 4025 
Q 875 4000 1325 4000 
L 2875 4000 
Q 2875 4725 2850 5125 
L 3400 5125 
Q 3375 4725 3375 4000 
L 5150 4000 
Q 5500 4000 5925 4025 
L 5925 3575 
Q 5475 3600 5150 3600 
L 3375 3600 
Q 3400 3200 3612 2750 
Q 3825 2300 4050 2000 
Q 4600 2450 5075 3150 
Q 5250 2950 5575 2750 
Q 5275 2600 4250 1650 
Q 4575 1225 5037 850 
Q 5500 475 6050 325 
Q 5700 125 5550 -150 
Q 5000 150 4437 687 
Q 3875 1225 3375 2375 
L 3375 150 
Q 3400 -225 3137 -350 
Q 2875 -475 2375 -525 
Q 2325 -275 2150 25 
Q 2575 0 2737 37 
Q 2900 75 2875 300 
L 2875 1675 
Q 1875 900 1437 550 
Q 1000 200 725 -50 
Q 500 200 300 400 
Q 650 575 1200 937 
Q 1750 1300 2875 2250 
L 2875 3600 
L 1325 3600 
Q 875 3600 475 3575 
L 475 4025 
z
M 1225 3175 
Q 1775 2725 2250 2325 
L 1825 1950 
Q 1450 2375 825 2825 
L 1225 3175 
z
M 4500 5100 
Q 4900 4825 5300 4425 
Q 5125 4300 4925 4100 
Q 4650 4400 4125 4825 
Q 4275 4950 4500 5100 
z
" transform="scale(0.015625)"/>
       <path id="SimHei-91cf" d="M 5250 2500 
Q 5225 2200 5225 1700 
Q 5225 1225 5250 950 
L 3425 950 
L 3425 625 
L 4575 625 
Q 5000 625 5375 650 
L 5375 275 
Q 5025 300 4575 300 
L 3425 300 
L 3425 -75 
L 5125 -75 
Q 5525 -75 5925 -50 
L 5925 -425 
Q 5525 -400 5125 -400 
L 1275 -400 
Q 900 -400 475 -425 
L 475 -50 
Q 925 -50 1275 -75 
L 2975 -75 
L 2975 300 
L 1725 300 
Q 1350 300 975 250 
L 975 650 
Q 1375 625 1725 625 
L 2975 625 
L 2975 950 
L 1150 950 
Q 1175 1375 1175 1775 
Q 1175 2175 1150 2500 
L 5250 2500 
z
M 5200 4950 
Q 5175 4575 5175 4250 
Q 5175 3925 5200 3400 
L 1200 3400 
Q 1225 3925 1225 4250 
Q 1225 4575 1200 4950 
L 5200 4950 
z
M 4900 3100 
Q 5500 3125 6000 3150 
L 6000 2750 
Q 5500 2775 4925 2775 
L 1650 2775 
Q 975 2775 325 2750 
L 325 3150 
Q 975 3125 1650 3100 
L 4900 3100 
z
M 4725 3700 
L 4725 4025 
L 1675 4025 
L 1675 3700 
L 4725 3700 
z
M 4725 4350 
L 4725 4650 
L 1675 4650 
L 1675 4350 
L 4725 4350 
z
M 4750 1875 
L 4750 2175 
L 3425 2175 
L 3425 1875 
L 4750 1875 
z
M 2975 1875 
L 2975 2175 
L 1650 2175 
L 1650 1875 
L 2975 1875 
z
M 2975 1275 
L 2975 1550 
L 1650 1550 
L 1650 1275 
L 2975 1275 
z
M 4750 1275 
L 4750 1550 
L 3425 1550 
L 3425 1275 
L 4750 1275 
z
" transform="scale(0.015625)"/>
      </defs>
      <use xlink:href="#SimHei-9700"/>
      <use xlink:href="#SimHei-6c42" x="100"/>
      <use xlink:href="#SimHei-91cf" x="200"/>
     </g>
    </g>
   </g>
   <g id="line2d_17">
    <path d="M 115.363636 369.36 
L 121.228061 369.36 
L 138.821335 310.56 
L 141.753547 293.76 
L 144.685759 369.36 
L 153.482396 66.96 
L 156.414609 344.16 
L 159.346821 142.56 
L 162.279033 360.96 
L 168.143458 344.16 
L 171.07567 310.56 
L 176.940095 335.76 
L 179.872307 360.96 
L 182.804519 352.56 
L 185.736731 369.36 
L 188.668944 360.96 
L 191.601156 251.76 
L 194.533368 360.96 
L 197.465581 192.96 
L 200.397793 268.56 
L 203.330005 318.96 
L 206.262218 369.36 
L 212.126642 344.16 
L 215.058854 302.16 
L 223.855491 327.36 
L 226.787704 352.56 
L 232.652128 327.36 
L 235.584341 360.96 
L 238.516553 369.36 
L 244.380977 302.16 
L 250.245402 369.36 
L 253.177614 293.76 
L 256.109827 360.96 
L 261.974251 335.76 
L 273.7031 335.76 
L 291.296374 260.16 
L 294.228586 360.96 
L 297.160799 293.76 
L 300.093011 369.36 
L 303.025223 352.56 
L 311.82186 293.76 
L 314.754073 234.96 
L 320.618497 276.96 
L 323.550709 369.36 
L 326.482922 360.96 
L 335.279559 293.76 
L 338.211771 335.76 
L 341.143983 360.96 
L 344.076195 360.96 
L 349.94062 344.16 
L 352.872832 360.96 
L 355.805045 293.76 
L 361.669469 360.96 
L 364.601682 293.76 
L 370.466106 360.96 
L 376.330531 360.96 
L 390.991592 293.76 
L 393.923805 352.56 
L 396.856017 344.16 
L 399.788229 369.36 
L 402.720441 360.96 
L 405.652654 360.96 
L 414.449291 335.76 
L 429.110352 360.96 
L 432.042564 344.16 
L 443.771414 360.96 
L 446.703626 125.76 
L 455.500263 352.56 
L 461.364687 360.96 
L 467.229112 125.76 
L 470.161324 369.36 
L 478.957961 369.36 
L 481.890173 251.76 
L 487.754598 360.96 
L 493.619023 360.96 
L 505.347872 234.96 
L 511.212296 310.56 
L 517.076721 209.76 
L 528.80557 184.56 
L 531.737782 344.16 
L 537.602207 352.56 
L 540.534419 369.36 
L 546.398844 352.56 
L 552.263269 360.96 
L 558.127693 360.96 
L 561.059905 369.36 
L 563.992118 369.36 
L 566.92433 369.36 
L 578.653179 369.36 
L 602.110878 352.56 
L 605.04309 369.36 
L 610.907514 100.56 
L 613.839727 369.36 
L 616.771939 360.96 
L 619.704151 369.36 
L 622.636364 369.36 
" clip-path="url(#p1c68d2efa6)" style="fill: none; stroke: #0000ff; stroke-width: 1.5; stroke-linecap: square"/>
    <defs>
     <path id="m70efa198dd" d="M 0 3 
C 0.795609 3 1.55874 2.683901 2.12132 2.12132 
C 2.683901 1.55874 3 0.795609 3 0 
C 3 -0.795609 2.683901 -1.55874 2.12132 -2.12132 
C 1.55874 -2.683901 0.795609 -3 0 -3 
C -0.795609 -3 -1.55874 -2.683901 -2.12132 -2.12132 
C -2.683901 -1.55874 -3 -0.795609 -3 0 
C -3 0.795609 -2.683901 1.55874 -2.12132 2.12132 
C -1.55874 2.683901 -0.795609 3 0 3 
z
" style="stroke: #0000ff"/>
    </defs>
    <g clip-path="url(#p1c68d2efa6)">
     <use xlink:href="#m70efa198dd" x="115.363636" y="369.36" style="fill: #0000ff; stroke: #0000ff"/>
     <use xlink:href="#m70efa198dd" x="121.228061" y="369.36" style="fill: #0000ff; stroke: #0000ff"/>
     <use xlink:href="#m70efa198dd" x="138.821335" y="310.56" style="fill: #0000ff; stroke: #0000ff"/>
     <use xlink:href="#m70efa198dd" x="141.753547" y="293.76" style="fill: #0000ff; stroke: #0000ff"/>
     <use xlink:href="#m70efa198dd" x="144.685759" y="369.36" style="fill: #0000ff; stroke: #0000ff"/>
     <use xlink:href="#m70efa198dd" x="153.482396" y="66.96" style="fill: #0000ff; stroke: #0000ff"/>
     <use xlink:href="#m70efa198dd" x="156.414609" y="344.16" style="fill: #0000ff; stroke: #0000ff"/>
     <use xlink:href="#m70efa198dd" x="159.346821" y="142.56" style="fill: #0000ff; stroke: #0000ff"/>
     <use xlink:href="#m70efa198dd" x="162.279033" y="360.96" style="fill: #0000ff; stroke: #0000ff"/>
     <use xlink:href="#m70efa198dd" x="168.143458" y="344.16" style="fill: #0000ff; stroke: #0000ff"/>
     <use xlink:href="#m70efa198dd" x="171.07567" y="310.56" style="fill: #0000ff; stroke: #0000ff"/>
     <use xlink:href="#m70efa198dd" x="176.940095" y="335.76" style="fill: #0000ff; stroke: #0000ff"/>
     <use xlink:href="#m70efa198dd" x="179.872307" y="360.96" style="fill: #0000ff; stroke: #0000ff"/>
     <use xlink:href="#m70efa198dd" x="182.804519" y="352.56" style="fill: #0000ff; stroke: #0000ff"/>
     <use xlink:href="#m70efa198dd" x="185.736731" y="369.36" style="fill: #0000ff; stroke: #0000ff"/>
     <use xlink:href="#m70efa198dd" x="188.668944" y="360.96" style="fill: #0000ff; stroke: #0000ff"/>
     <use xlink:href="#m70efa198dd" x="191.601156" y="251.76" style="fill: #0000ff; stroke: #0000ff"/>
     <use xlink:href="#m70efa198dd" x="194.533368" y="360.96" style="fill: #0000ff; stroke: #0000ff"/>
     <use xlink:href="#m70efa198dd" x="197.465581" y="192.96" style="fill: #0000ff; stroke: #0000ff"/>
     <use xlink:href="#m70efa198dd" x="200.397793" y="268.56" style="fill: #0000ff; stroke: #0000ff"/>
     <use xlink:href="#m70efa198dd" x="203.330005" y="318.96" style="fill: #0000ff; stroke: #0000ff"/>
     <use xlink:href="#m70efa198dd" x="206.262218" y="369.36" style="fill: #0000ff; stroke: #0000ff"/>
     <use xlink:href="#m70efa198dd" x="212.126642" y="344.16" style="fill: #0000ff; stroke: #0000ff"/>
     <use xlink:href="#m70efa198dd" x="215.058854" y="302.16" style="fill: #0000ff; stroke: #0000ff"/>
     <use xlink:href="#m70efa198dd" x="223.855491" y="327.36" style="fill: #0000ff; stroke: #0000ff"/>
     <use xlink:href="#m70efa198dd" x="226.787704" y="352.56" style="fill: #0000ff; stroke: #0000ff"/>
     <use xlink:href="#m70efa198dd" x="232.652128" y="327.36" style="fill: #0000ff; stroke: #0000ff"/>
     <use xlink:href="#m70efa198dd" x="235.584341" y="360.96" style="fill: #0000ff; stroke: #0000ff"/>
     <use xlink:href="#m70efa198dd" x="238.516553" y="369.36" style="fill: #0000ff; stroke: #0000ff"/>
     <use xlink:href="#m70efa198dd" x="244.380977" y="302.16" style="fill: #0000ff; stroke: #0000ff"/>
     <use xlink:href="#m70efa198dd" x="250.245402" y="369.36" style="fill: #0000ff; stroke: #0000ff"/>
     <use xlink:href="#m70efa198dd" x="253.177614" y="293.76" style="fill: #0000ff; stroke: #0000ff"/>
     <use xlink:href="#m70efa198dd" x="256.109827" y="360.96" style="fill: #0000ff; stroke: #0000ff"/>
     <use xlink:href="#m70efa198dd" x="261.974251" y="335.76" style="fill: #0000ff; stroke: #0000ff"/>
     <use xlink:href="#m70efa198dd" x="273.7031" y="335.76" style="fill: #0000ff; stroke: #0000ff"/>
     <use xlink:href="#m70efa198dd" x="291.296374" y="260.16" style="fill: #0000ff; stroke: #0000ff"/>
     <use xlink:href="#m70efa198dd" x="294.228586" y="360.96" style="fill: #0000ff; stroke: #0000ff"/>
     <use xlink:href="#m70efa198dd" x="297.160799" y="293.76" style="fill: #0000ff; stroke: #0000ff"/>
     <use xlink:href="#m70efa198dd" x="300.093011" y="369.36" style="fill: #0000ff; stroke: #0000ff"/>
     <use xlink:href="#m70efa198dd" x="303.025223" y="352.56" style="fill: #0000ff; stroke: #0000ff"/>
     <use xlink:href="#m70efa198dd" x="311.82186" y="293.76" style="fill: #0000ff; stroke: #0000ff"/>
     <use xlink:href="#m70efa198dd" x="314.754073" y="234.96" style="fill: #0000ff; stroke: #0000ff"/>
     <use xlink:href="#m70efa198dd" x="320.618497" y="276.96" style="fill: #0000ff; stroke: #0000ff"/>
     <use xlink:href="#m70efa198dd" x="323.550709" y="369.36" style="fill: #0000ff; stroke: #0000ff"/>
     <use xlink:href="#m70efa198dd" x="326.482922" y="360.96" style="fill: #0000ff; stroke: #0000ff"/>
     <use xlink:href="#m70efa198dd" x="335.279559" y="293.76" style="fill: #0000ff; stroke: #0000ff"/>
     <use xlink:href="#m70efa198dd" x="338.211771" y="335.76" style="fill: #0000ff; stroke: #0000ff"/>
     <use xlink:href="#m70efa198dd" x="341.143983" y="360.96" style="fill: #0000ff; stroke: #0000ff"/>
     <use xlink:href="#m70efa198dd" x="344.076195" y="360.96" style="fill: #0000ff; stroke: #0000ff"/>
     <use xlink:href="#m70efa198dd" x="349.94062" y="344.16" style="fill: #0000ff; stroke: #0000ff"/>
     <use xlink:href="#m70efa198dd" x="352.872832" y="360.96" style="fill: #0000ff; stroke: #0000ff"/>
     <use xlink:href="#m70efa198dd" x="355.805045" y="293.76" style="fill: #0000ff; stroke: #0000ff"/>
     <use xlink:href="#m70efa198dd" x="361.669469" y="360.96" style="fill: #0000ff; stroke: #0000ff"/>
     <use xlink:href="#m70efa198dd" x="364.601682" y="293.76" style="fill: #0000ff; stroke: #0000ff"/>
     <use xlink:href="#m70efa198dd" x="370.466106" y="360.96" style="fill: #0000ff; stroke: #0000ff"/>
     <use xlink:href="#m70efa198dd" x="376.330531" y="360.96" style="fill: #0000ff; stroke: #0000ff"/>
     <use xlink:href="#m70efa198dd" x="390.991592" y="293.76" style="fill: #0000ff; stroke: #0000ff"/>
     <use xlink:href="#m70efa198dd" x="393.923805" y="352.56" style="fill: #0000ff; stroke: #0000ff"/>
     <use xlink:href="#m70efa198dd" x="396.856017" y="344.16" style="fill: #0000ff; stroke: #0000ff"/>
     <use xlink:href="#m70efa198dd" x="399.788229" y="369.36" style="fill: #0000ff; stroke: #0000ff"/>
     <use xlink:href="#m70efa198dd" x="402.720441" y="360.96" style="fill: #0000ff; stroke: #0000ff"/>
     <use xlink:href="#m70efa198dd" x="405.652654" y="360.96" style="fill: #0000ff; stroke: #0000ff"/>
     <use xlink:href="#m70efa198dd" x="414.449291" y="335.76" style="fill: #0000ff; stroke: #0000ff"/>
     <use xlink:href="#m70efa198dd" x="429.110352" y="360.96" style="fill: #0000ff; stroke: #0000ff"/>
     <use xlink:href="#m70efa198dd" x="432.042564" y="344.16" style="fill: #0000ff; stroke: #0000ff"/>
     <use xlink:href="#m70efa198dd" x="443.771414" y="360.96" style="fill: #0000ff; stroke: #0000ff"/>
     <use xlink:href="#m70efa198dd" x="446.703626" y="125.76" style="fill: #0000ff; stroke: #0000ff"/>
     <use xlink:href="#m70efa198dd" x="455.500263" y="352.56" style="fill: #0000ff; stroke: #0000ff"/>
     <use xlink:href="#m70efa198dd" x="461.364687" y="360.96" style="fill: #0000ff; stroke: #0000ff"/>
     <use xlink:href="#m70efa198dd" x="467.229112" y="125.76" style="fill: #0000ff; stroke: #0000ff"/>
     <use xlink:href="#m70efa198dd" x="470.161324" y="369.36" style="fill: #0000ff; stroke: #0000ff"/>
     <use xlink:href="#m70efa198dd" x="478.957961" y="369.36" style="fill: #0000ff; stroke: #0000ff"/>
     <use xlink:href="#m70efa198dd" x="481.890173" y="251.76" style="fill: #0000ff; stroke: #0000ff"/>
     <use xlink:href="#m70efa198dd" x="487.754598" y="360.96" style="fill: #0000ff; stroke: #0000ff"/>
     <use xlink:href="#m70efa198dd" x="493.619023" y="360.96" style="fill: #0000ff; stroke: #0000ff"/>
     <use xlink:href="#m70efa198dd" x="505.347872" y="234.96" style="fill: #0000ff; stroke: #0000ff"/>
     <use xlink:href="#m70efa198dd" x="511.212296" y="310.56" style="fill: #0000ff; stroke: #0000ff"/>
     <use xlink:href="#m70efa198dd" x="517.076721" y="209.76" style="fill: #0000ff; stroke: #0000ff"/>
     <use xlink:href="#m70efa198dd" x="528.80557" y="184.56" style="fill: #0000ff; stroke: #0000ff"/>
     <use xlink:href="#m70efa198dd" x="531.737782" y="344.16" style="fill: #0000ff; stroke: #0000ff"/>
     <use xlink:href="#m70efa198dd" x="537.602207" y="352.56" style="fill: #0000ff; stroke: #0000ff"/>
     <use xlink:href="#m70efa198dd" x="540.534419" y="369.36" style="fill: #0000ff; stroke: #0000ff"/>
     <use xlink:href="#m70efa198dd" x="546.398844" y="352.56" style="fill: #0000ff; stroke: #0000ff"/>
     <use xlink:href="#m70efa198dd" x="552.263269" y="360.96" style="fill: #0000ff; stroke: #0000ff"/>
     <use xlink:href="#m70efa198dd" x="558.127693" y="360.96" style="fill: #0000ff; stroke: #0000ff"/>
     <use xlink:href="#m70efa198dd" x="561.059905" y="369.36" style="fill: #0000ff; stroke: #0000ff"/>
     <use xlink:href="#m70efa198dd" x="563.992118" y="369.36" style="fill: #0000ff; stroke: #0000ff"/>
     <use xlink:href="#m70efa198dd" x="566.92433" y="369.36" style="fill: #0000ff; stroke: #0000ff"/>
     <use xlink:href="#m70efa198dd" x="578.653179" y="369.36" style="fill: #0000ff; stroke: #0000ff"/>
     <use xlink:href="#m70efa198dd" x="602.110878" y="352.56" style="fill: #0000ff; stroke: #0000ff"/>
     <use xlink:href="#m70efa198dd" x="605.04309" y="369.36" style="fill: #0000ff; stroke: #0000ff"/>
     <use xlink:href="#m70efa198dd" x="610.907514" y="100.56" style="fill: #0000ff; stroke: #0000ff"/>
     <use xlink:href="#m70efa198dd" x="613.839727" y="369.36" style="fill: #0000ff; stroke: #0000ff"/>
     <use xlink:href="#m70efa198dd" x="616.771939" y="360.96" style="fill: #0000ff; stroke: #0000ff"/>
     <use xlink:href="#m70efa198dd" x="619.704151" y="369.36" style="fill: #0000ff; stroke: #0000ff"/>
     <use xlink:href="#m70efa198dd" x="622.636364" y="369.36" style="fill: #0000ff; stroke: #0000ff"/>
    </g>
   </g>
   <g id="patch_3">
    <path d="M 90 384.48 
L 90 51.84 
" style="fill: none; stroke: #000000; stroke-width: 0.8; stroke-linejoin: miter; stroke-linecap: square"/>
   </g>
   <g id="patch_4">
    <path d="M 648 384.48 
L 648 51.84 
" style="fill: none; stroke: #000000; stroke-width: 0.8; stroke-linejoin: miter; stroke-linecap: square"/>
   </g>
   <g id="patch_5">
    <path d="M 90 384.48 
L 648 384.48 
" style="fill: none; stroke: #000000; stroke-width: 0.8; stroke-linejoin: miter; stroke-linecap: square"/>
   </g>
   <g id="patch_6">
    <path d="M 90 51.84 
L 648 51.84 
" style="fill: none; stroke: #000000; stroke-width: 0.8; stroke-linejoin: miter; stroke-linecap: square"/>
   </g>
  </g>
  <g id="axes_2">
   <g id="matplotlib.axis_3">
    <g id="ytick_9">
     <g id="line2d_18">
      <defs>
       <path id="m9db4e141b9" d="M 0 0 
L 3.5 0 
" style="stroke: #000000; stroke-width: 0.8"/>
      </defs>
      <g>
       <use xlink:href="#m9db4e141b9" x="648" y="377.185093" style="stroke: #000000; stroke-width: 0.8"/>
      </g>
     </g>
     <g id="text_19">
      <!-- 0 -->
      <g style="fill: #008000" transform="translate(655 380.622593) scale(0.1 -0.1)">
       <use xlink:href="#SimHei-30"/>
      </g>
     </g>
    </g>
    <g id="ytick_10">
     <g id="line2d_19">
      <g>
       <use xlink:href="#m9db4e141b9" x="648" y="309.394875" style="stroke: #000000; stroke-width: 0.8"/>
      </g>
     </g>
     <g id="text_20">
      <!-- 10000 -->
      <g style="fill: #008000" transform="translate(655 312.832375) scale(0.1 -0.1)">
       <use xlink:href="#SimHei-31"/>
       <use xlink:href="#SimHei-30" x="50"/>
       <use xlink:href="#SimHei-30" x="100"/>
       <use xlink:href="#SimHei-30" x="150"/>
       <use xlink:href="#SimHei-30" x="200"/>
      </g>
     </g>
    </g>
    <g id="ytick_11">
     <g id="line2d_20">
      <g>
       <use xlink:href="#m9db4e141b9" x="648" y="241.604657" style="stroke: #000000; stroke-width: 0.8"/>
      </g>
     </g>
     <g id="text_21">
      <!-- 20000 -->
      <g style="fill: #008000" transform="translate(655 245.042157) scale(0.1 -0.1)">
       <use xlink:href="#SimHei-32"/>
       <use xlink:href="#SimHei-30" x="50"/>
       <use xlink:href="#SimHei-30" x="100"/>
       <use xlink:href="#SimHei-30" x="150"/>
       <use xlink:href="#SimHei-30" x="200"/>
      </g>
     </g>
    </g>
    <g id="ytick_12">
     <g id="line2d_21">
      <g>
       <use xlink:href="#m9db4e141b9" x="648" y="173.814439" style="stroke: #000000; stroke-width: 0.8"/>
      </g>
     </g>
     <g id="text_22">
      <!-- 30000 -->
      <g style="fill: #008000" transform="translate(655 177.251939) scale(0.1 -0.1)">
       <use xlink:href="#SimHei-33"/>
       <use xlink:href="#SimHei-30" x="50"/>
       <use xlink:href="#SimHei-30" x="100"/>
       <use xlink:href="#SimHei-30" x="150"/>
       <use xlink:href="#SimHei-30" x="200"/>
      </g>
     </g>
    </g>
    <g id="ytick_13">
     <g id="line2d_22">
      <g>
       <use xlink:href="#m9db4e141b9" x="648" y="106.024221" style="stroke: #000000; stroke-width: 0.8"/>
      </g>
     </g>
     <g id="text_23">
      <!-- 40000 -->
      <g style="fill: #008000" transform="translate(655 109.461721) scale(0.1 -0.1)">
       <defs>
        <path id="SimHei-34" d="M 2000 1100 
L 75 1100 
L 75 1525 
L 2100 4450 
L 2475 4450 
L 2475 1525 
L 3075 1525 
L 3075 1100 
L 2475 1100 
L 2475 150 
L 2000 150 
L 2000 1100 
z
M 2000 1525 
L 2000 3500 
L 600 1525 
L 2000 1525 
z
" transform="scale(0.015625)"/>
       </defs>
       <use xlink:href="#SimHei-34"/>
       <use xlink:href="#SimHei-30" x="50"/>
       <use xlink:href="#SimHei-30" x="100"/>
       <use xlink:href="#SimHei-30" x="150"/>
       <use xlink:href="#SimHei-30" x="200"/>
      </g>
     </g>
    </g>
    <g id="text_24">
     <!-- 收益 -->
     <g style="fill: #008000" transform="translate(691.929688 228.16) rotate(-90) scale(0.1 -0.1)">
      <defs>
       <path id="SimHei-6536" d="M 4250 5050 
Q 4125 4850 3750 4050 
L 5150 4050 
Q 5675 4050 6125 4075 
L 6125 3600 
Q 5675 3625 5300 3625 
Q 5225 2625 5025 1975 
Q 4825 1325 4575 900 
Q 4900 500 5287 275 
Q 5675 50 6200 -75 
Q 5900 -275 5800 -550 
Q 5300 -350 4950 -100 
Q 4600 150 4275 525 
Q 3800 0 2775 -625 
Q 2650 -425 2300 -225 
Q 3275 150 3950 925 
Q 3775 1325 3612 1787 
Q 3450 2250 3250 3000 
Q 2975 2450 2825 2275 
Q 2650 2400 2425 2525 
Q 2775 3025 3137 3837 
Q 3500 4650 3625 5250 
Q 3925 5125 4250 5050 
z
M 975 4275 
Q 925 3950 925 3450 
L 925 1575 
L 1775 1725 
L 1775 4425 
Q 1775 4775 1750 5150 
L 2250 5150 
Q 2225 4850 2225 4450 
L 2225 300 
Q 2225 -50 2250 -550 
L 1750 -550 
Q 1775 -25 1775 350 
L 1775 1350 
Q 625 1050 500 925 
Q 375 1125 225 1350 
Q 450 1475 450 1800 
L 450 3575 
Q 450 3925 425 4275 
L 975 4275 
z
M 3725 3150 
Q 3800 2700 3962 2212 
Q 4125 1725 4300 1375 
Q 4725 2150 4825 3625 
L 3575 3625 
Q 3400 3275 3300 3100 
L 3725 3150 
z
" transform="scale(0.015625)"/>
       <path id="SimHei-76ca" d="M 2825 2925 
Q 2425 2775 2012 2487 
Q 1600 2200 1225 1975 
L 5275 1975 
Q 5250 1575 5250 1000 
L 5250 -50 
Q 5800 -50 6175 -25 
L 6175 -525 
Q 5725 -500 5250 -500 
L 1325 -500 
Q 700 -500 250 -525 
L 250 -25 
Q 600 -50 1175 -50 
L 1175 1050 
Q 1175 1575 1150 1925 
Q 1000 1800 800 1700 
Q 650 1950 425 2125 
Q 800 2275 1312 2600 
Q 1825 2925 2325 3400 
Q 2550 3150 2825 2925 
z
M 4725 5050 
Q 4575 4900 4462 4637 
Q 4350 4375 4175 4075 
L 4625 4075 
Q 5350 4075 5900 4100 
L 5900 3625 
Q 5350 3650 4625 3650 
L 1975 3650 
Q 1350 3650 550 3625 
L 550 4100 
Q 1175 4075 1975 4075 
L 3675 4075 
Q 3775 4300 3887 4625 
Q 4000 4950 4125 5250 
L 4725 5050 
z
M 3600 -50 
L 3600 1575 
L 2800 1575 
L 2800 -50 
L 3600 -50 
z
M 4800 -50 
L 4800 1575 
L 4025 1575 
L 4025 -50 
L 4800 -50 
z
M 2375 -50 
L 2375 1575 
L 1625 1575 
L 1625 -50 
L 2375 -50 
z
M 3900 3350 
Q 4375 3150 4900 2925 
Q 5425 2700 5900 2500 
Q 5700 2300 5550 2000 
Q 5025 2300 4512 2537 
Q 4000 2775 3625 2900 
Q 3750 3075 3900 3350 
z
M 2150 5250 
Q 2375 4925 2650 4350 
Q 2425 4275 2150 4125 
Q 1950 4650 1675 5025 
Q 1875 5100 2150 5250 
z
" transform="scale(0.015625)"/>
      </defs>
      <use xlink:href="#SimHei-6536"/>
      <use xlink:href="#SimHei-76ca" x="100"/>
     </g>
    </g>
   </g>
   <g id="line2d_23">
    <path d="M 115.363636 368.79534 
L 121.228061 368.79534 
L 138.821335 309.979503 
L 141.753547 293.340473 
L 144.685759 368.800631 
L 153.482396 66.96 
L 156.414609 343.452405 
L 159.346821 142.420158 
L 162.279033 360.351222 
L 168.143458 343.647245 
L 171.07567 310.109397 
L 176.940095 335.262783 
L 179.872307 360.416169 
L 182.804519 352.031707 
L 185.736731 368.800631 
L 188.668944 360.416169 
L 191.601156 251.418163 
L 194.533368 360.416169 
L 197.465581 192.599802 
L 200.397793 268.191083 
L 203.330005 318.496011 
L 206.262218 368.800938 
L 212.126642 343.517966 
L 215.058854 301.727701 
L 223.855491 326.880165 
L 226.787704 352.032629 
L 232.652128 326.880165 
L 235.584341 360.416783 
L 238.516553 368.800938 
L 244.380977 301.727701 
L 250.245402 368.800938 
L 253.177614 293.343547 
L 256.109827 360.416783 
L 261.974251 335.26432 
L 273.7031 335.26432 
L 291.296374 259.806928 
L 294.228586 360.250249 
L 297.160799 292.510874 
L 300.093011 368.717671 
L 303.025223 351.877798 
L 311.82186 292.938243 
L 314.754073 233.23892 
L 320.618497 276.057438 
L 323.550709 368.735684 
L 326.482922 360.286275 
L 335.279559 292.897311 
L 338.211771 335.192756 
L 341.143983 360.34522 
L 344.076195 360.34522 
L 349.94062 343.387458 
L 352.872832 360.34522 
L 355.805045 293.341314 
L 361.669469 360.286275 
L 364.601682 292.691006 
L 370.466106 360.936583 
L 376.330531 360.286275 
L 390.991592 292.691006 
L 393.923805 351.836867 
L 396.856017 343.712612 
L 399.788229 368.765156 
L 402.720441 360.286275 
L 405.652654 360.286275 
L 414.449291 334.938049 
L 429.110352 360.286275 
L 432.042564 343.387458 
L 443.771414 360.286275 
L 446.703626 137.902571 
L 455.500263 351.866339 
L 461.364687 360.286275 
L 467.229112 123.702831 
L 470.161324 369.060838 
L 478.957961 368.735684 
L 481.890173 255.177215 
L 487.754598 361.606901 
L 493.619023 360.936584 
L 505.347872 239.407926 
L 511.212296 312.191057 
L 517.076721 215.177586 
L 528.80557 191.848187 
L 531.737782 345.616788 
L 537.602207 353.508864 
L 540.534419 369.293016 
L 546.398844 353.508864 
L 552.263269 361.40094 
L 558.127693 360.640901 
L 561.059905 369.293016 
L 563.992118 369.293016 
L 566.92433 369.293016 
L 578.653179 369.293016 
L 602.110878 353.508864 
L 605.04309 369.293016 
L 610.907514 120.064321 
L 613.839727 369.357424 
L 616.771939 361.529755 
L 619.704151 369.36 
L 622.636364 369.36 
" clip-path="url(#p1c68d2efa6)" style="fill: none; stroke: #008000; stroke-width: 1.5; stroke-linecap: square"/>
    <defs>
     <path id="m86e77f609a" d="M 0 3 
C 0.795609 3 1.55874 2.683901 2.12132 2.12132 
C 2.683901 1.55874 3 0.795609 3 0 
C 3 -0.795609 2.683901 -1.55874 2.12132 -2.12132 
C 1.55874 -2.683901 0.795609 -3 0 -3 
C -0.795609 -3 -1.55874 -2.683901 -2.12132 -2.12132 
C -2.683901 -1.55874 -3 -0.795609 -3 0 
C -3 0.795609 -2.683901 1.55874 -2.12132 2.12132 
C -1.55874 2.683901 -0.795609 3 0 3 
z
" style="stroke: #008000"/>
    </defs>
    <g clip-path="url(#p1c68d2efa6)">
     <use xlink:href="#m86e77f609a" x="115.363636" y="368.79534" style="fill: #008000; stroke: #008000"/>
     <use xlink:href="#m86e77f609a" x="121.228061" y="368.79534" style="fill: #008000; stroke: #008000"/>
     <use xlink:href="#m86e77f609a" x="138.821335" y="309.979503" style="fill: #008000; stroke: #008000"/>
     <use xlink:href="#m86e77f609a" x="141.753547" y="293.340473" style="fill: #008000; stroke: #008000"/>
     <use xlink:href="#m86e77f609a" x="144.685759" y="368.800631" style="fill: #008000; stroke: #008000"/>
     <use xlink:href="#m86e77f609a" x="153.482396" y="66.96" style="fill: #008000; stroke: #008000"/>
     <use xlink:href="#m86e77f609a" x="156.414609" y="343.452405" style="fill: #008000; stroke: #008000"/>
     <use xlink:href="#m86e77f609a" x="159.346821" y="142.420158" style="fill: #008000; stroke: #008000"/>
     <use xlink:href="#m86e77f609a" x="162.279033" y="360.351222" style="fill: #008000; stroke: #008000"/>
     <use xlink:href="#m86e77f609a" x="168.143458" y="343.647245" style="fill: #008000; stroke: #008000"/>
     <use xlink:href="#m86e77f609a" x="171.07567" y="310.109397" style="fill: #008000; stroke: #008000"/>
     <use xlink:href="#m86e77f609a" x="176.940095" y="335.262783" style="fill: #008000; stroke: #008000"/>
     <use xlink:href="#m86e77f609a" x="179.872307" y="360.416169" style="fill: #008000; stroke: #008000"/>
     <use xlink:href="#m86e77f609a" x="182.804519" y="352.031707" style="fill: #008000; stroke: #008000"/>
     <use xlink:href="#m86e77f609a" x="185.736731" y="368.800631" style="fill: #008000; stroke: #008000"/>
     <use xlink:href="#m86e77f609a" x="188.668944" y="360.416169" style="fill: #008000; stroke: #008000"/>
     <use xlink:href="#m86e77f609a" x="191.601156" y="251.418163" style="fill: #008000; stroke: #008000"/>
     <use xlink:href="#m86e77f609a" x="194.533368" y="360.416169" style="fill: #008000; stroke: #008000"/>
     <use xlink:href="#m86e77f609a" x="197.465581" y="192.599802" style="fill: #008000; stroke: #008000"/>
     <use xlink:href="#m86e77f609a" x="200.397793" y="268.191083" style="fill: #008000; stroke: #008000"/>
     <use xlink:href="#m86e77f609a" x="203.330005" y="318.496011" style="fill: #008000; stroke: #008000"/>
     <use xlink:href="#m86e77f609a" x="206.262218" y="368.800938" style="fill: #008000; stroke: #008000"/>
     <use xlink:href="#m86e77f609a" x="212.126642" y="343.517966" style="fill: #008000; stroke: #008000"/>
     <use xlink:href="#m86e77f609a" x="215.058854" y="301.727701" style="fill: #008000; stroke: #008000"/>
     <use xlink:href="#m86e77f609a" x="223.855491" y="326.880165" style="fill: #008000; stroke: #008000"/>
     <use xlink:href="#m86e77f609a" x="226.787704" y="352.032629" style="fill: #008000; stroke: #008000"/>
     <use xlink:href="#m86e77f609a" x="232.652128" y="326.880165" style="fill: #008000; stroke: #008000"/>
     <use xlink:href="#m86e77f609a" x="235.584341" y="360.416783" style="fill: #008000; stroke: #008000"/>
     <use xlink:href="#m86e77f609a" x="238.516553" y="368.800938" style="fill: #008000; stroke: #008000"/>
     <use xlink:href="#m86e77f609a" x="244.380977" y="301.727701" style="fill: #008000; stroke: #008000"/>
     <use xlink:href="#m86e77f609a" x="250.245402" y="368.800938" style="fill: #008000; stroke: #008000"/>
     <use xlink:href="#m86e77f609a" x="253.177614" y="293.343547" style="fill: #008000; stroke: #008000"/>
     <use xlink:href="#m86e77f609a" x="256.109827" y="360.416783" style="fill: #008000; stroke: #008000"/>
     <use xlink:href="#m86e77f609a" x="261.974251" y="335.26432" style="fill: #008000; stroke: #008000"/>
     <use xlink:href="#m86e77f609a" x="273.7031" y="335.26432" style="fill: #008000; stroke: #008000"/>
     <use xlink:href="#m86e77f609a" x="291.296374" y="259.806928" style="fill: #008000; stroke: #008000"/>
     <use xlink:href="#m86e77f609a" x="294.228586" y="360.250249" style="fill: #008000; stroke: #008000"/>
     <use xlink:href="#m86e77f609a" x="297.160799" y="292.510874" style="fill: #008000; stroke: #008000"/>
     <use xlink:href="#m86e77f609a" x="300.093011" y="368.717671" style="fill: #008000; stroke: #008000"/>
     <use xlink:href="#m86e77f609a" x="303.025223" y="351.877798" style="fill: #008000; stroke: #008000"/>
     <use xlink:href="#m86e77f609a" x="311.82186" y="292.938243" style="fill: #008000; stroke: #008000"/>
     <use xlink:href="#m86e77f609a" x="314.754073" y="233.23892" style="fill: #008000; stroke: #008000"/>
     <use xlink:href="#m86e77f609a" x="320.618497" y="276.057438" style="fill: #008000; stroke: #008000"/>
     <use xlink:href="#m86e77f609a" x="323.550709" y="368.735684" style="fill: #008000; stroke: #008000"/>
     <use xlink:href="#m86e77f609a" x="326.482922" y="360.286275" style="fill: #008000; stroke: #008000"/>
     <use xlink:href="#m86e77f609a" x="335.279559" y="292.897311" style="fill: #008000; stroke: #008000"/>
     <use xlink:href="#m86e77f609a" x="338.211771" y="335.192756" style="fill: #008000; stroke: #008000"/>
     <use xlink:href="#m86e77f609a" x="341.143983" y="360.34522" style="fill: #008000; stroke: #008000"/>
     <use xlink:href="#m86e77f609a" x="344.076195" y="360.34522" style="fill: #008000; stroke: #008000"/>
     <use xlink:href="#m86e77f609a" x="349.94062" y="343.387458" style="fill: #008000; stroke: #008000"/>
     <use xlink:href="#m86e77f609a" x="352.872832" y="360.34522" style="fill: #008000; stroke: #008000"/>
     <use xlink:href="#m86e77f609a" x="355.805045" y="293.341314" style="fill: #008000; stroke: #008000"/>
     <use xlink:href="#m86e77f609a" x="361.669469" y="360.286275" style="fill: #008000; stroke: #008000"/>
     <use xlink:href="#m86e77f609a" x="364.601682" y="292.691006" style="fill: #008000; stroke: #008000"/>
     <use xlink:href="#m86e77f609a" x="370.466106" y="360.936583" style="fill: #008000; stroke: #008000"/>
     <use xlink:href="#m86e77f609a" x="376.330531" y="360.286275" style="fill: #008000; stroke: #008000"/>
     <use xlink:href="#m86e77f609a" x="390.991592" y="292.691006" style="fill: #008000; stroke: #008000"/>
     <use xlink:href="#m86e77f609a" x="393.923805" y="351.836867" style="fill: #008000; stroke: #008000"/>
     <use xlink:href="#m86e77f609a" x="396.856017" y="343.712612" style="fill: #008000; stroke: #008000"/>
     <use xlink:href="#m86e77f609a" x="399.788229" y="368.765156" style="fill: #008000; stroke: #008000"/>
     <use xlink:href="#m86e77f609a" x="402.720441" y="360.286275" style="fill: #008000; stroke: #008000"/>
     <use xlink:href="#m86e77f609a" x="405.652654" y="360.286275" style="fill: #008000; stroke: #008000"/>
     <use xlink:href="#m86e77f609a" x="414.449291" y="334.938049" style="fill: #008000; stroke: #008000"/>
     <use xlink:href="#m86e77f609a" x="429.110352" y="360.286275" style="fill: #008000; stroke: #008000"/>
     <use xlink:href="#m86e77f609a" x="432.042564" y="343.387458" style="fill: #008000; stroke: #008000"/>
     <use xlink:href="#m86e77f609a" x="443.771414" y="360.286275" style="fill: #008000; stroke: #008000"/>
     <use xlink:href="#m86e77f609a" x="446.703626" y="137.902571" style="fill: #008000; stroke: #008000"/>
     <use xlink:href="#m86e77f609a" x="455.500263" y="351.866339" style="fill: #008000; stroke: #008000"/>
     <use xlink:href="#m86e77f609a" x="461.364687" y="360.286275" style="fill: #008000; stroke: #008000"/>
     <use xlink:href="#m86e77f609a" x="467.229112" y="123.702831" style="fill: #008000; stroke: #008000"/>
     <use xlink:href="#m86e77f609a" x="470.161324" y="369.060838" style="fill: #008000; stroke: #008000"/>
     <use xlink:href="#m86e77f609a" x="478.957961" y="368.735684" style="fill: #008000; stroke: #008000"/>
     <use xlink:href="#m86e77f609a" x="481.890173" y="255.177215" style="fill: #008000; stroke: #008000"/>
     <use xlink:href="#m86e77f609a" x="487.754598" y="361.606901" style="fill: #008000; stroke: #008000"/>
     <use xlink:href="#m86e77f609a" x="493.619023" y="360.936584" style="fill: #008000; stroke: #008000"/>
     <use xlink:href="#m86e77f609a" x="505.347872" y="239.407926" style="fill: #008000; stroke: #008000"/>
     <use xlink:href="#m86e77f609a" x="511.212296" y="312.191057" style="fill: #008000; stroke: #008000"/>
     <use xlink:href="#m86e77f609a" x="517.076721" y="215.177586" style="fill: #008000; stroke: #008000"/>
     <use xlink:href="#m86e77f609a" x="528.80557" y="191.848187" style="fill: #008000; stroke: #008000"/>
     <use xlink:href="#m86e77f609a" x="531.737782" y="345.616788" style="fill: #008000; stroke: #008000"/>
     <use xlink:href="#m86e77f609a" x="537.602207" y="353.508864" style="fill: #008000; stroke: #008000"/>
     <use xlink:href="#m86e77f609a" x="540.534419" y="369.293016" style="fill: #008000; stroke: #008000"/>
     <use xlink:href="#m86e77f609a" x="546.398844" y="353.508864" style="fill: #008000; stroke: #008000"/>
     <use xlink:href="#m86e77f609a" x="552.263269" y="361.40094" style="fill: #008000; stroke: #008000"/>
     <use xlink:href="#m86e77f609a" x="558.127693" y="360.640901" style="fill: #008000; stroke: #008000"/>
     <use xlink:href="#m86e77f609a" x="561.059905" y="369.293016" style="fill: #008000; stroke: #008000"/>
     <use xlink:href="#m86e77f609a" x="563.992118" y="369.293016" style="fill: #008000; stroke: #008000"/>
     <use xlink:href="#m86e77f609a" x="566.92433" y="369.293016" style="fill: #008000; stroke: #008000"/>
     <use xlink:href="#m86e77f609a" x="578.653179" y="369.293016" style="fill: #008000; stroke: #008000"/>
     <use xlink:href="#m86e77f609a" x="602.110878" y="353.508864" style="fill: #008000; stroke: #008000"/>
     <use xlink:href="#m86e77f609a" x="605.04309" y="369.293016" style="fill: #008000; stroke: #008000"/>
     <use xlink:href="#m86e77f609a" x="610.907514" y="120.064321" style="fill: #008000; stroke: #008000"/>
     <use xlink:href="#m86e77f609a" x="613.839727" y="369.357424" style="fill: #008000; stroke: #008000"/>
     <use xlink:href="#m86e77f609a" x="616.771939" y="361.529755" style="fill: #008000; stroke: #008000"/>
     <use xlink:href="#m86e77f609a" x="619.704151" y="369.36" style="fill: #008000; stroke: #008000"/>
     <use xlink:href="#m86e77f609a" x="622.636364" y="369.36" style="fill: #008000; stroke: #008000"/>
    </g>
   </g>
   <g id="patch_7">
    <path d="M 90 384.48 
L 90 51.84 
" style="fill: none; stroke: #000000; stroke-width: 0.8; stroke-linejoin: miter; stroke-linecap: square"/>
   </g>
   <g id="patch_8">
    <path d="M 648 384.48 
L 648 51.84 
" style="fill: none; stroke: #000000; stroke-width: 0.8; stroke-linejoin: miter; stroke-linecap: square"/>
   </g>
   <g id="patch_9">
    <path d="M 90 384.48 
L 648 384.48 
" style="fill: none; stroke: #000000; stroke-width: 0.8; stroke-linejoin: miter; stroke-linecap: square"/>
   </g>
   <g id="patch_10">
    <path d="M 90 51.84 
L 648 51.84 
" style="fill: none; stroke: #000000; stroke-width: 0.8; stroke-linejoin: miter; stroke-linecap: square"/>
   </g>
  </g>
  <g id="axes_3">
   <g id="matplotlib.axis_4">
    <g id="ytick_14">
     <g id="line2d_24">
      <g>
       <use xlink:href="#m9db4e141b9" x="708" y="336.116777" style="stroke: #000000; stroke-width: 0.8"/>
      </g>
     </g>
     <g id="text_25">
      <!-- 1160 -->
      <g style="fill: #ff0000" transform="translate(715 339.554277) scale(0.1 -0.1)">
       <defs>
        <path id="SimHei-36" d="M 250 1612 
Q 275 1975 387 2225 
Q 500 2475 725 2850 
L 1750 4450 
L 2325 4450 
L 1275 2800 
Q 1950 2975 2350 2750 
Q 2750 2525 2887 2237 
Q 3025 1950 3037 1612 
Q 3050 1275 2937 950 
Q 2825 625 2537 362 
Q 2250 100 1737 75 
Q 1225 50 862 262 
Q 500 475 362 862 
Q 225 1250 250 1612 
z
M 1025 787 
Q 1250 550 1625 525 
Q 2000 500 2250 775 
Q 2500 1050 2500 1575 
Q 2500 2100 2187 2300 
Q 1875 2500 1487 2450 
Q 1100 2400 925 2075 
Q 750 1750 775 1387 
Q 800 1025 1025 787 
z
" transform="scale(0.015625)"/>
       </defs>
       <use xlink:href="#SimHei-31"/>
       <use xlink:href="#SimHei-31" x="50"/>
       <use xlink:href="#SimHei-36" x="100"/>
       <use xlink:href="#SimHei-30" x="150"/>
      </g>
     </g>
    </g>
    <g id="ytick_15">
     <g id="line2d_25">
      <g>
       <use xlink:href="#m9db4e141b9" x="708" y="275.674553" style="stroke: #000000; stroke-width: 0.8"/>
      </g>
     </g>
     <g id="text_26">
      <!-- 1180 -->
      <g style="fill: #ff0000" transform="translate(715 279.112053) scale(0.1 -0.1)">
       <defs>
        <path id="SimHei-38" d="M 175 1375 
Q 175 1675 325 1962 
Q 475 2250 825 2425 
Q 525 2600 425 2812 
Q 325 3025 312 3300 
Q 300 3575 387 3775 
Q 475 3975 650 4150 
Q 825 4325 1037 4387 
Q 1250 4450 1500 4450 
Q 1750 4450 1950 4400 
Q 2150 4350 2375 4187 
Q 2600 4025 2700 3725 
Q 2800 3425 2687 3025 
Q 2575 2625 2100 2400 
Q 2525 2275 2700 2012 
Q 2875 1750 2875 1375 
Q 2875 1000 2762 775 
Q 2650 550 2512 400 
Q 2375 250 2137 162 
Q 1900 75 1537 75 
Q 1175 75 912 162 
Q 650 250 475 425 
Q 300 600 237 837 
Q 175 1075 175 1375 
z
M 687 1400 
Q 675 1100 787 875 
Q 900 650 1200 587 
Q 1500 525 1825 600 
Q 2150 675 2275 950 
Q 2400 1225 2362 1500 
Q 2325 1775 2050 1962 
Q 1775 2150 1450 2125 
Q 1125 2100 912 1900 
Q 700 1700 687 1400 
z
M 775 3350 
Q 775 3100 950 2875 
Q 1125 2650 1500 2650 
Q 1875 2650 2062 2875 
Q 2250 3100 2237 3412 
Q 2225 3725 2012 3875 
Q 1800 4025 1437 4000 
Q 1075 3975 925 3787 
Q 775 3600 775 3350 
z
" transform="scale(0.015625)"/>
       </defs>
       <use xlink:href="#SimHei-31"/>
       <use xlink:href="#SimHei-31" x="50"/>
       <use xlink:href="#SimHei-38" x="100"/>
       <use xlink:href="#SimHei-30" x="150"/>
      </g>
     </g>
    </g>
    <g id="ytick_16">
     <g id="line2d_26">
      <g>
       <use xlink:href="#m9db4e141b9" x="708" y="215.23233" style="stroke: #000000; stroke-width: 0.8"/>
      </g>
     </g>
     <g id="text_27">
      <!-- 1200 -->
      <g style="fill: #ff0000" transform="translate(715 218.66983) scale(0.1 -0.1)">
       <use xlink:href="#SimHei-31"/>
       <use xlink:href="#SimHei-32" x="50"/>
       <use xlink:href="#SimHei-30" x="100"/>
       <use xlink:href="#SimHei-30" x="150"/>
      </g>
     </g>
    </g>
    <g id="ytick_17">
     <g id="line2d_27">
      <g>
       <use xlink:href="#m9db4e141b9" x="708" y="154.790106" style="stroke: #000000; stroke-width: 0.8"/>
      </g>
     </g>
     <g id="text_28">
      <!-- 1220 -->
      <g style="fill: #ff0000" transform="translate(715 158.227606) scale(0.1 -0.1)">
       <use xlink:href="#SimHei-31"/>
       <use xlink:href="#SimHei-32" x="50"/>
       <use xlink:href="#SimHei-32" x="100"/>
       <use xlink:href="#SimHei-30" x="150"/>
      </g>
     </g>
    </g>
    <g id="ytick_18">
     <g id="line2d_28">
      <g>
       <use xlink:href="#m9db4e141b9" x="708" y="94.347883" style="stroke: #000000; stroke-width: 0.8"/>
      </g>
     </g>
     <g id="text_29">
      <!-- 1240 -->
      <g style="fill: #ff0000" transform="translate(715 97.785383) scale(0.1 -0.1)">
       <use xlink:href="#SimHei-31"/>
       <use xlink:href="#SimHei-32" x="50"/>
       <use xlink:href="#SimHei-34" x="100"/>
       <use xlink:href="#SimHei-30" x="150"/>
      </g>
     </g>
    </g>
    <g id="text_30">
     <!-- 平均单价 -->
     <g style="fill: #ff0000" transform="translate(747.007812 238.16) rotate(-90) scale(0.1 -0.1)">
      <defs>
       <path id="SimHei-5e73" d="M 4525 4825 
Q 4900 4825 5450 4850 
L 5450 4375 
Q 4925 4400 4525 4400 
L 3475 4400 
L 3475 2025 
L 5000 2025 
Q 5550 2025 6025 2050 
L 6025 1575 
Q 5550 1600 5000 1600 
L 3475 1600 
L 3475 450 
Q 3475 -100 3500 -600 
L 2925 -600 
Q 2950 -100 2950 450 
L 2950 1600 
L 1125 1600 
Q 775 1600 375 1575 
L 375 2050 
Q 775 2025 1175 2025 
L 2950 2025 
L 2950 4400 
L 1775 4400 
Q 1400 4400 875 4375 
L 875 4850 
Q 1400 4825 1750 4825 
L 4525 4825 
z
M 3925 2600 
Q 4500 3300 4900 4125 
Q 5150 3950 5400 3825 
Q 4775 2850 4350 2300 
Q 4150 2475 3925 2600 
z
M 1975 2350 
Q 1600 3100 1050 3725 
Q 1250 3875 1450 4050 
Q 2075 3300 2450 2725 
Q 2150 2500 1975 2350 
z
" transform="scale(0.015625)"/>
       <path id="SimHei-5747" d="M 5775 275 
Q 5775 -325 5362 -450 
Q 4950 -575 4425 -600 
Q 4375 -275 4250 25 
Q 4950 -25 5125 62 
Q 5300 150 5300 500 
L 5375 3700 
L 3550 3700 
Q 3425 3375 3262 3037 
Q 3100 2700 2925 2400 
Q 2675 2550 2475 2625 
Q 3150 3625 3500 5200 
Q 3800 5100 4075 5025 
Q 3975 4875 3875 4650 
Q 3775 4425 3675 4125 
L 5900 4125 
L 5775 275 
z
M 1250 3625 
L 1250 4375 
Q 1250 4775 1225 5100 
L 1775 5100 
Q 1750 4725 1750 4375 
L 1750 3625 
L 1900 3625 
Q 2200 3625 2525 3650 
L 2525 3150 
Q 2200 3175 1900 3175 
L 1750 3175 
L 1750 1100 
L 2500 1375 
Q 2475 1125 2525 900 
Q 1225 475 962 362 
Q 700 250 475 150 
Q 375 475 250 750 
Q 575 800 800 850 
Q 1025 900 1250 975 
L 1250 3175 
L 1125 3175 
Q 850 3175 400 3150 
L 400 3650 
Q 850 3625 1100 3625 
L 1250 3625 
z
M 4950 1625 
Q 4675 1425 4137 1050 
Q 3600 675 3175 300 
Q 3000 575 2850 775 
Q 3350 1050 3762 1325 
Q 4175 1600 4775 2075 
Q 4825 1850 4950 1625 
z
M 3775 3150 
Q 4125 2800 4475 2300 
Q 4250 2125 4100 1975 
Q 3900 2325 3450 2825 
Q 3600 3000 3775 3150 
z
" transform="scale(0.015625)"/>
       <path id="SimHei-5355" d="M 5275 4075 
L 5275 1525 
L 3400 1525 
L 3400 925 
L 5050 925 
Q 5600 925 6000 950 
L 6000 450 
Q 5575 475 5050 475 
L 3400 475 
Q 3400 -300 3425 -625 
L 2875 -625 
Q 2925 -300 2925 475 
L 1300 475 
Q 700 475 425 450 
L 425 950 
Q 675 925 1250 925 
L 2925 925 
L 2925 1525 
L 1125 1525 
Q 1150 1950 1150 2750 
Q 1150 3550 1125 4075 
L 3600 4075 
Q 3875 4650 4075 5250 
Q 4325 5125 4650 4975 
Q 4550 4850 4400 4587 
Q 4250 4325 4100 4075 
L 5275 4075 
z
M 4775 1925 
L 4775 2600 
L 3400 2600 
L 3400 1925 
L 4775 1925 
z
M 4775 3000 
L 4775 3650 
L 3400 3650 
L 3400 3000 
L 4775 3000 
z
M 2925 1925 
L 2925 2600 
L 1625 2600 
L 1625 1925 
L 2925 1925 
z
M 2925 3000 
L 2925 3650 
L 1625 3650 
L 1625 3000 
L 2925 3000 
z
M 2100 5225 
Q 2350 4950 2675 4350 
Q 2400 4225 2225 4125 
Q 1975 4675 1725 4975 
Q 1900 5075 2100 5225 
z
" transform="scale(0.015625)"/>
       <path id="SimHei-4ef7" d="M 2200 4975 
Q 2050 4725 1650 3775 
L 1650 450 
Q 1650 -225 1675 -650 
L 1175 -650 
Q 1175 -225 1200 450 
L 1200 2975 
Q 900 2425 650 2100 
Q 525 2275 225 2450 
Q 750 3025 1125 3800 
Q 1500 4575 1625 5175 
Q 1950 5025 2200 4975 
z
M 4175 4700 
Q 4850 3525 6150 2950 
Q 5925 2750 5775 2500 
Q 4725 3100 3950 4300 
Q 3300 3125 2250 2350 
Q 2125 2525 1900 2725 
Q 2825 3325 3250 4050 
Q 3675 4775 3750 5150 
Q 4150 4950 4325 4900 
L 4175 4700 
z
M 3475 2650 
Q 3400 2075 3325 1087 
Q 3250 100 2325 -675 
Q 2175 -450 1925 -300 
Q 2850 350 2912 1262 
Q 2975 2175 2950 2700 
Q 3275 2650 3475 2650 
z
M 5075 2700 
Q 5050 2150 5050 1725 
L 5050 150 
Q 5050 -225 5075 -650 
L 4550 -650 
Q 4575 -225 4575 175 
L 4575 1875 
Q 4575 2150 4550 2700 
L 5075 2700 
z
" transform="scale(0.015625)"/>
      </defs>
      <use xlink:href="#SimHei-5e73"/>
      <use xlink:href="#SimHei-5747" x="100"/>
      <use xlink:href="#SimHei-5355" x="200"/>
      <use xlink:href="#SimHei-4ef7" x="300"/>
     </g>
    </g>
   </g>
   <g id="line2d_29">
    <path d="M 115.363636 101.585234 
L 121.228061 101.585234 
L 138.821335 96.705458 
L 141.753547 103.943829 
L 144.685759 103.943829 
L 153.482396 103.943829 
L 156.414609 82.228715 
L 159.346821 103.943829 
L 162.279033 89.467086 
L 168.143458 103.943829 
L 171.07567 103.943829 
L 176.940095 103.943829 
L 179.872307 103.943829 
L 182.804519 103.943829 
L 185.736731 103.943829 
L 188.668944 103.943829 
L 191.601156 103.943829 
L 194.533368 103.943829 
L 197.465581 101.367751 
L 200.397793 104.080858 
L 203.330005 104.080858 
L 206.262218 104.080858 
L 212.126642 89.535601 
L 215.058854 104.080858 
L 223.855491 104.080858 
L 226.787704 104.080858 
L 232.652128 104.080858 
L 235.584341 104.080858 
L 238.516553 104.080858 
L 244.380977 104.080858 
L 250.245402 104.080858 
L 253.177614 104.080858 
L 256.109827 104.080858 
L 261.974251 104.080858 
L 273.7031 104.080858 
L 291.296374 104.080858 
L 294.228586 66.96 
L 297.160799 66.96 
L 300.093011 66.96 
L 303.025223 81.072783 
L 311.82186 86.012257 
L 314.754073 66.96 
L 320.618497 84.844467 
L 323.550709 74.990344 
L 326.482922 74.990344 
L 335.279559 84.187525 
L 338.211771 97.700185 
L 341.143983 88.129174 
L 344.076195 88.129174 
L 349.94062 74.990344 
L 352.872832 88.129174 
L 355.805045 103.981325 
L 361.669469 74.990344 
L 364.601682 74.990344 
L 370.466106 219.94501 
L 376.330531 74.990344 
L 390.991592 74.990344 
L 393.923805 74.990344 
L 396.856017 111.22907 
L 399.788229 88.129174 
L 402.720441 74.990344 
L 405.652654 74.990344 
L 414.449291 74.990344 
L 429.110352 74.990344 
L 432.042564 74.990344 
L 443.771414 74.990344 
L 446.703626 286.0001 
L 455.500263 79.369954 
L 461.364687 74.990344 
L 467.229112 74.990344 
L 470.161324 219.94501 
L 478.957961 74.990344 
L 481.890173 215.663722 
L 487.754598 369.36 
L 493.619023 219.945246 
L 505.347872 228.734349 
L 511.212296 219.945246 
L 517.076721 230.590633 
L 528.80557 249.425374 
L 531.737782 323.451097 
L 537.602207 323.451097 
L 540.534419 323.451097 
L 546.398844 323.451097 
L 552.263269 323.451097 
L 558.127693 154.037092 
L 561.059905 323.451097 
L 563.992118 323.451097 
L 566.92433 323.451097 
L 578.653179 323.451097 
L 602.110878 323.451097 
L 605.04309 323.451097 
L 610.907514 368.271124 
L 613.839727 352.164187 
L 616.771939 352.164187 
L 619.704151 353.31259 
L 622.636364 353.31259 
" clip-path="url(#p1c68d2efa6)" style="fill: none; stroke: #ff0000; stroke-width: 1.5; stroke-linecap: square"/>
    <defs>
     <path id="md918fdf544" d="M 0 3 
C 0.795609 3 1.55874 2.683901 2.12132 2.12132 
C 2.683901 1.55874 3 0.795609 3 0 
C 3 -0.795609 2.683901 -1.55874 2.12132 -2.12132 
C 1.55874 -2.683901 0.795609 -3 0 -3 
C -0.795609 -3 -1.55874 -2.683901 -2.12132 -2.12132 
C -2.683901 -1.55874 -3 -0.795609 -3 0 
C -3 0.795609 -2.683901 1.55874 -2.12132 2.12132 
C -1.55874 2.683901 -0.795609 3 0 3 
z
" style="stroke: #ff0000"/>
    </defs>
    <g clip-path="url(#p1c68d2efa6)">
     <use xlink:href="#md918fdf544" x="115.363636" y="101.585234" style="fill: #ff0000; stroke: #ff0000"/>
     <use xlink:href="#md918fdf544" x="121.228061" y="101.585234" style="fill: #ff0000; stroke: #ff0000"/>
     <use xlink:href="#md918fdf544" x="138.821335" y="96.705458" style="fill: #ff0000; stroke: #ff0000"/>
     <use xlink:href="#md918fdf544" x="141.753547" y="103.943829" style="fill: #ff0000; stroke: #ff0000"/>
     <use xlink:href="#md918fdf544" x="144.685759" y="103.943829" style="fill: #ff0000; stroke: #ff0000"/>
     <use xlink:href="#md918fdf544" x="153.482396" y="103.943829" style="fill: #ff0000; stroke: #ff0000"/>
     <use xlink:href="#md918fdf544" x="156.414609" y="82.228715" style="fill: #ff0000; stroke: #ff0000"/>
     <use xlink:href="#md918fdf544" x="159.346821" y="103.943829" style="fill: #ff0000; stroke: #ff0000"/>
     <use xlink:href="#md918fdf544" x="162.279033" y="89.467086" style="fill: #ff0000; stroke: #ff0000"/>
     <use xlink:href="#md918fdf544" x="168.143458" y="103.943829" style="fill: #ff0000; stroke: #ff0000"/>
     <use xlink:href="#md918fdf544" x="171.07567" y="103.943829" style="fill: #ff0000; stroke: #ff0000"/>
     <use xlink:href="#md918fdf544" x="176.940095" y="103.943829" style="fill: #ff0000; stroke: #ff0000"/>
     <use xlink:href="#md918fdf544" x="179.872307" y="103.943829" style="fill: #ff0000; stroke: #ff0000"/>
     <use xlink:href="#md918fdf544" x="182.804519" y="103.943829" style="fill: #ff0000; stroke: #ff0000"/>
     <use xlink:href="#md918fdf544" x="185.736731" y="103.943829" style="fill: #ff0000; stroke: #ff0000"/>
     <use xlink:href="#md918fdf544" x="188.668944" y="103.943829" style="fill: #ff0000; stroke: #ff0000"/>
     <use xlink:href="#md918fdf544" x="191.601156" y="103.943829" style="fill: #ff0000; stroke: #ff0000"/>
     <use xlink:href="#md918fdf544" x="194.533368" y="103.943829" style="fill: #ff0000; stroke: #ff0000"/>
     <use xlink:href="#md918fdf544" x="197.465581" y="101.367751" style="fill: #ff0000; stroke: #ff0000"/>
     <use xlink:href="#md918fdf544" x="200.397793" y="104.080858" style="fill: #ff0000; stroke: #ff0000"/>
     <use xlink:href="#md918fdf544" x="203.330005" y="104.080858" style="fill: #ff0000; stroke: #ff0000"/>
     <use xlink:href="#md918fdf544" x="206.262218" y="104.080858" style="fill: #ff0000; stroke: #ff0000"/>
     <use xlink:href="#md918fdf544" x="212.126642" y="89.535601" style="fill: #ff0000; stroke: #ff0000"/>
     <use xlink:href="#md918fdf544" x="215.058854" y="104.080858" style="fill: #ff0000; stroke: #ff0000"/>
     <use xlink:href="#md918fdf544" x="223.855491" y="104.080858" style="fill: #ff0000; stroke: #ff0000"/>
     <use xlink:href="#md918fdf544" x="226.787704" y="104.080858" style="fill: #ff0000; stroke: #ff0000"/>
     <use xlink:href="#md918fdf544" x="232.652128" y="104.080858" style="fill: #ff0000; stroke: #ff0000"/>
     <use xlink:href="#md918fdf544" x="235.584341" y="104.080858" style="fill: #ff0000; stroke: #ff0000"/>
     <use xlink:href="#md918fdf544" x="238.516553" y="104.080858" style="fill: #ff0000; stroke: #ff0000"/>
     <use xlink:href="#md918fdf544" x="244.380977" y="104.080858" style="fill: #ff0000; stroke: #ff0000"/>
     <use xlink:href="#md918fdf544" x="250.245402" y="104.080858" style="fill: #ff0000; stroke: #ff0000"/>
     <use xlink:href="#md918fdf544" x="253.177614" y="104.080858" style="fill: #ff0000; stroke: #ff0000"/>
     <use xlink:href="#md918fdf544" x="256.109827" y="104.080858" style="fill: #ff0000; stroke: #ff0000"/>
     <use xlink:href="#md918fdf544" x="261.974251" y="104.080858" style="fill: #ff0000; stroke: #ff0000"/>
     <use xlink:href="#md918fdf544" x="273.7031" y="104.080858" style="fill: #ff0000; stroke: #ff0000"/>
     <use xlink:href="#md918fdf544" x="291.296374" y="104.080858" style="fill: #ff0000; stroke: #ff0000"/>
     <use xlink:href="#md918fdf544" x="294.228586" y="66.96" style="fill: #ff0000; stroke: #ff0000"/>
     <use xlink:href="#md918fdf544" x="297.160799" y="66.96" style="fill: #ff0000; stroke: #ff0000"/>
     <use xlink:href="#md918fdf544" x="300.093011" y="66.96" style="fill: #ff0000; stroke: #ff0000"/>
     <use xlink:href="#md918fdf544" x="303.025223" y="81.072783" style="fill: #ff0000; stroke: #ff0000"/>
     <use xlink:href="#md918fdf544" x="311.82186" y="86.012257" style="fill: #ff0000; stroke: #ff0000"/>
     <use xlink:href="#md918fdf544" x="314.754073" y="66.96" style="fill: #ff0000; stroke: #ff0000"/>
     <use xlink:href="#md918fdf544" x="320.618497" y="84.844467" style="fill: #ff0000; stroke: #ff0000"/>
     <use xlink:href="#md918fdf544" x="323.550709" y="74.990344" style="fill: #ff0000; stroke: #ff0000"/>
     <use xlink:href="#md918fdf544" x="326.482922" y="74.990344" style="fill: #ff0000; stroke: #ff0000"/>
     <use xlink:href="#md918fdf544" x="335.279559" y="84.187525" style="fill: #ff0000; stroke: #ff0000"/>
     <use xlink:href="#md918fdf544" x="338.211771" y="97.700185" style="fill: #ff0000; stroke: #ff0000"/>
     <use xlink:href="#md918fdf544" x="341.143983" y="88.129174" style="fill: #ff0000; stroke: #ff0000"/>
     <use xlink:href="#md918fdf544" x="344.076195" y="88.129174" style="fill: #ff0000; stroke: #ff0000"/>
     <use xlink:href="#md918fdf544" x="349.94062" y="74.990344" style="fill: #ff0000; stroke: #ff0000"/>
     <use xlink:href="#md918fdf544" x="352.872832" y="88.129174" style="fill: #ff0000; stroke: #ff0000"/>
     <use xlink:href="#md918fdf544" x="355.805045" y="103.981325" style="fill: #ff0000; stroke: #ff0000"/>
     <use xlink:href="#md918fdf544" x="361.669469" y="74.990344" style="fill: #ff0000; stroke: #ff0000"/>
     <use xlink:href="#md918fdf544" x="364.601682" y="74.990344" style="fill: #ff0000; stroke: #ff0000"/>
     <use xlink:href="#md918fdf544" x="370.466106" y="219.94501" style="fill: #ff0000; stroke: #ff0000"/>
     <use xlink:href="#md918fdf544" x="376.330531" y="74.990344" style="fill: #ff0000; stroke: #ff0000"/>
     <use xlink:href="#md918fdf544" x="390.991592" y="74.990344" style="fill: #ff0000; stroke: #ff0000"/>
     <use xlink:href="#md918fdf544" x="393.923805" y="74.990344" style="fill: #ff0000; stroke: #ff0000"/>
     <use xlink:href="#md918fdf544" x="396.856017" y="111.22907" style="fill: #ff0000; stroke: #ff0000"/>
     <use xlink:href="#md918fdf544" x="399.788229" y="88.129174" style="fill: #ff0000; stroke: #ff0000"/>
     <use xlink:href="#md918fdf544" x="402.720441" y="74.990344" style="fill: #ff0000; stroke: #ff0000"/>
     <use xlink:href="#md918fdf544" x="405.652654" y="74.990344" style="fill: #ff0000; stroke: #ff0000"/>
     <use xlink:href="#md918fdf544" x="414.449291" y="74.990344" style="fill: #ff0000; stroke: #ff0000"/>
     <use xlink:href="#md918fdf544" x="429.110352" y="74.990344" style="fill: #ff0000; stroke: #ff0000"/>
     <use xlink:href="#md918fdf544" x="432.042564" y="74.990344" style="fill: #ff0000; stroke: #ff0000"/>
     <use xlink:href="#md918fdf544" x="443.771414" y="74.990344" style="fill: #ff0000; stroke: #ff0000"/>
     <use xlink:href="#md918fdf544" x="446.703626" y="286.0001" style="fill: #ff0000; stroke: #ff0000"/>
     <use xlink:href="#md918fdf544" x="455.500263" y="79.369954" style="fill: #ff0000; stroke: #ff0000"/>
     <use xlink:href="#md918fdf544" x="461.364687" y="74.990344" style="fill: #ff0000; stroke: #ff0000"/>
     <use xlink:href="#md918fdf544" x="467.229112" y="74.990344" style="fill: #ff0000; stroke: #ff0000"/>
     <use xlink:href="#md918fdf544" x="470.161324" y="219.94501" style="fill: #ff0000; stroke: #ff0000"/>
     <use xlink:href="#md918fdf544" x="478.957961" y="74.990344" style="fill: #ff0000; stroke: #ff0000"/>
     <use xlink:href="#md918fdf544" x="481.890173" y="215.663722" style="fill: #ff0000; stroke: #ff0000"/>
     <use xlink:href="#md918fdf544" x="487.754598" y="369.36" style="fill: #ff0000; stroke: #ff0000"/>
     <use xlink:href="#md918fdf544" x="493.619023" y="219.945246" style="fill: #ff0000; stroke: #ff0000"/>
     <use xlink:href="#md918fdf544" x="505.347872" y="228.734349" style="fill: #ff0000; stroke: #ff0000"/>
     <use xlink:href="#md918fdf544" x="511.212296" y="219.945246" style="fill: #ff0000; stroke: #ff0000"/>
     <use xlink:href="#md918fdf544" x="517.076721" y="230.590633" style="fill: #ff0000; stroke: #ff0000"/>
     <use xlink:href="#md918fdf544" x="528.80557" y="249.425374" style="fill: #ff0000; stroke: #ff0000"/>
     <use xlink:href="#md918fdf544" x="531.737782" y="323.451097" style="fill: #ff0000; stroke: #ff0000"/>
     <use xlink:href="#md918fdf544" x="537.602207" y="323.451097" style="fill: #ff0000; stroke: #ff0000"/>
     <use xlink:href="#md918fdf544" x="540.534419" y="323.451097" style="fill: #ff0000; stroke: #ff0000"/>
     <use xlink:href="#md918fdf544" x="546.398844" y="323.451097" style="fill: #ff0000; stroke: #ff0000"/>
     <use xlink:href="#md918fdf544" x="552.263269" y="323.451097" style="fill: #ff0000; stroke: #ff0000"/>
     <use xlink:href="#md918fdf544" x="558.127693" y="154.037092" style="fill: #ff0000; stroke: #ff0000"/>
     <use xlink:href="#md918fdf544" x="561.059905" y="323.451097" style="fill: #ff0000; stroke: #ff0000"/>
     <use xlink:href="#md918fdf544" x="563.992118" y="323.451097" style="fill: #ff0000; stroke: #ff0000"/>
     <use xlink:href="#md918fdf544" x="566.92433" y="323.451097" style="fill: #ff0000; stroke: #ff0000"/>
     <use xlink:href="#md918fdf544" x="578.653179" y="323.451097" style="fill: #ff0000; stroke: #ff0000"/>
     <use xlink:href="#md918fdf544" x="602.110878" y="323.451097" style="fill: #ff0000; stroke: #ff0000"/>
     <use xlink:href="#md918fdf544" x="605.04309" y="323.451097" style="fill: #ff0000; stroke: #ff0000"/>
     <use xlink:href="#md918fdf544" x="610.907514" y="368.271124" style="fill: #ff0000; stroke: #ff0000"/>
     <use xlink:href="#md918fdf544" x="613.839727" y="352.164187" style="fill: #ff0000; stroke: #ff0000"/>
     <use xlink:href="#md918fdf544" x="616.771939" y="352.164187" style="fill: #ff0000; stroke: #ff0000"/>
     <use xlink:href="#md918fdf544" x="619.704151" y="353.31259" style="fill: #ff0000; stroke: #ff0000"/>
     <use xlink:href="#md918fdf544" x="622.636364" y="353.31259" style="fill: #ff0000; stroke: #ff0000"/>
    </g>
   </g>
   <g id="patch_11">
    <path d="M 90 384.48 
L 90 51.84 
" style="fill: none; stroke: #000000; stroke-width: 0.8; stroke-linejoin: miter; stroke-linecap: square"/>
   </g>
   <g id="patch_12">
    <path d="M 708 384.48 
L 708 51.84 
" style="fill: none; stroke: #000000; stroke-width: 0.8; stroke-linejoin: miter; stroke-linecap: square"/>
   </g>
   <g id="patch_13">
    <path d="M 90 384.48 
L 648 384.48 
" style="fill: none; stroke: #000000; stroke-width: 0.8; stroke-linejoin: miter; stroke-linecap: square"/>
   </g>
   <g id="patch_14">
    <path d="M 90 51.84 
L 648 51.84 
" style="fill: none; stroke: #000000; stroke-width: 0.8; stroke-linejoin: miter; stroke-linecap: square"/>
   </g>
   <g id="text_31">
    <!-- 6004010229 每周需求量、收益与平均单价 -->
    <g transform="translate(258 45.84) scale(0.12 -0.12)">
     <defs>
      <path id="SimHei-39" d="M 800 75 
Q 1350 1000 1700 1750 
Q 1075 1650 662 1912 
Q 250 2175 162 2625 
Q 75 3075 175 3437 
Q 275 3800 487 4037 
Q 700 4275 1000 4375 
Q 1300 4475 1537 4475 
Q 1775 4475 2025 4375 
Q 2275 4275 2475 4075 
Q 2675 3875 2750 3662 
Q 2825 3450 2825 3112 
Q 2825 2775 2575 2250 
Q 2325 1725 1350 75 
L 800 75 
z
M 662 2875 
Q 700 2550 937 2337 
Q 1175 2125 1450 2150 
Q 1725 2175 1887 2300 
Q 2050 2425 2200 2725 
Q 2300 3100 2250 3362 
Q 2200 3625 1987 3800 
Q 1775 3975 1525 3975 
Q 1375 4000 1137 3900 
Q 900 3800 762 3500 
Q 625 3200 662 2875 
z
" transform="scale(0.015625)"/>
      <path id="SimHei-20" transform="scale(0.015625)"/>
      <path id="SimHei-6bcf" d="M 5225 3650 
Q 5175 3150 5150 2675 
L 5125 2200 
Q 5525 2200 6000 2225 
L 6000 1775 
Q 5625 1800 5100 1800 
L 5050 650 
Q 5325 650 5700 675 
L 5700 225 
Q 5400 250 5025 250 
Q 5000 -275 4775 -425 
Q 4550 -575 4000 -650 
Q 3950 -400 3775 -125 
Q 4375 -125 4475 -50 
Q 4575 25 4575 250 
L 1400 250 
L 1500 1100 
L 1550 1800 
L 1275 1800 
Q 825 1800 550 1775 
L 550 2225 
Q 975 2200 1275 2200 
L 1575 2200 
L 1625 2825 
L 1675 3650 
L 5225 3650 
z
M 2350 5000 
Q 2175 4825 2050 4600 
L 4875 4600 
Q 5275 4600 5775 4625 
L 5775 4175 
Q 5275 4200 4875 4200 
L 1825 4200 
L 1375 3625 
Q 1125 3325 775 2975 
Q 600 3175 350 3300 
Q 725 3575 1150 4112 
Q 1575 4650 1825 5250 
Q 2125 5075 2350 5000 
z
M 1975 1800 
L 1875 650 
L 4625 650 
L 4675 1800 
L 2950 1800 
Q 3575 1275 3825 1125 
Q 3625 925 3475 725 
Q 3100 1100 2650 1475 
Q 2775 1675 2875 1800 
L 1975 1800 
z
M 2975 3250 
Q 3125 3150 3287 3012 
Q 3450 2875 3800 2550 
Q 3650 2350 3525 2200 
L 4700 2200 
L 4750 3250 
L 2975 3250 
z
M 2075 3250 
L 2000 2200 
L 3425 2200 
Q 3150 2500 3012 2625 
Q 2875 2750 2700 2900 
Q 2800 3050 2925 3250 
L 2075 3250 
z
" transform="scale(0.015625)"/>
      <path id="SimHei-3001" d="M 1725 -275 
Q 1325 700 925 1450 
L 1325 1650 
Q 1825 950 2325 25 
L 1725 -275 
z
" transform="scale(0.015625)"/>
      <path id="SimHei-4e0e" d="M 5350 100 
Q 5275 -300 4925 -425 
Q 4575 -550 3900 -600 
Q 3875 -375 3650 -25 
Q 4375 -50 4575 0 
Q 4775 50 4837 225 
Q 4900 400 5100 2350 
L 1125 2350 
Q 1450 4350 1475 5200 
Q 1800 5150 2075 5125 
Q 1975 4825 1900 4275 
L 4900 4275 
Q 5400 4275 5800 4300 
L 5800 3825 
Q 5400 3850 4950 3850 
L 1850 3850 
L 1700 2750 
L 5675 2750 
Q 5625 2450 5575 2050 
L 5350 100 
z
M 3675 1350 
Q 4125 1350 4500 1375 
L 4500 875 
Q 4125 900 3850 900 
L 1450 900 
Q 1000 900 500 875 
L 500 1375 
Q 1000 1350 1450 1350 
L 3675 1350 
z
" transform="scale(0.015625)"/>
     </defs>
     <use xlink:href="#SimHei-36"/>
     <use xlink:href="#SimHei-30" x="50"/>
     <use xlink:href="#SimHei-30" x="100"/>
     <use xlink:href="#SimHei-34" x="150"/>
     <use xlink:href="#SimHei-30" x="200"/>
     <use xlink:href="#SimHei-31" x="250"/>
     <use xlink:href="#SimHei-30" x="300"/>
     <use xlink:href="#SimHei-32" x="350"/>
     <use xlink:href="#SimHei-32" x="400"/>
     <use xlink:href="#SimHei-39" x="450"/>
     <use xlink:href="#SimHei-20" x="500"/>
     <use xlink:href="#SimHei-6bcf" x="550"/>
     <use xlink:href="#SimHei-5468" x="650"/>
     <use xlink:href="#SimHei-9700" x="750"/>
     <use xlink:href="#SimHei-6c42" x="850"/>
     <use xlink:href="#SimHei-91cf" x="950"/>
     <use xlink:href="#SimHei-3001" x="1050"/>
     <use xlink:href="#SimHei-6536" x="1150"/>
     <use xlink:href="#SimHei-76ca" x="1250"/>
     <use xlink:href="#SimHei-4e0e" x="1350"/>
     <use xlink:href="#SimHei-5e73" x="1450"/>
     <use xlink:href="#SimHei-5747" x="1550"/>
     <use xlink:href="#SimHei-5355" x="1650"/>
     <use xlink:href="#SimHei-4ef7" x="1750"/>
    </g>
   </g>
  </g>
 </g>
 <defs>
  <clipPath id="p1c68d2efa6">
   <rect x="90" y="51.84" width="558" height="332.64"/>
  </clipPath>
 </defs>
</svg>
