<?xml version="1.0" encoding="utf-8" standalone="no"?>
<!DOCTYPE svg PUBLIC "-//W3C//DTD SVG 1.1//EN"
  "http://www.w3.org/Graphics/SVG/1.1/DTD/svg11.dtd">
<svg xmlns:xlink="http://www.w3.org/1999/xlink" width="460.8pt" height="345.6pt" viewBox="0 0 460.8 345.6" xmlns="http://www.w3.org/2000/svg" version="1.1">
 <metadata>
  <rdf:RDF xmlns:dc="http://purl.org/dc/elements/1.1/" xmlns:cc="http://creativecommons.org/ns#" xmlns:rdf="http://www.w3.org/1999/02/22-rdf-syntax-ns#">
   <cc:Work>
    <dc:type rdf:resource="http://purl.org/dc/dcmitype/StillImage"/>
    <dc:date>2024-08-17T14:02:10.395203</dc:date>
    <dc:format>image/svg+xml</dc:format>
    <dc:creator>
     <cc:Agent>
      <dc:title>Matplotlib v3.8.0, https://matplotlib.org/</dc:title>
     </cc:Agent>
    </dc:creator>
   </cc:Work>
  </rdf:RDF>
 </metadata>
 <defs>
  <style type="text/css">*{stroke-linejoin: round; stroke-linecap: butt}</style>
 </defs>
 <g id="figure_1">
  <g id="patch_1">
   <path d="M 0 345.6 
L 460.8 345.6 
L 460.8 0 
L 0 0 
z
" style="fill: #ffffff"/>
  </g>
  <g id="axes_1">
   <g id="patch_2">
    <path d="M 57.6 307.584 
L 414.72 307.584 
L 414.72 41.472 
L 57.6 41.472 
z
" style="fill: #ffffff"/>
   </g>
   <g id="matplotlib.axis_1">
    <g id="xtick_1">
     <g id="line2d_1">
      <defs>
       <path id="m8cfd3e1d37" d="M 0 0 
L 0 3.5 
" style="stroke: #000000; stroke-width: 0.8"/>
      </defs>
      <g>
       <use xlink:href="#m8cfd3e1d37" x="73.832727" y="307.584" style="stroke: #000000; stroke-width: 0.8"/>
      </g>
     </g>
     <g id="text_1">
      <!-- 0 -->
      <g transform="translate(71.332727 321.459) scale(0.1 -0.1)">
       <defs>
        <path id="SimHei-30" d="M 225 2537 
Q 250 3200 412 3587 
Q 575 3975 875 4225 
Q 1175 4475 1612 4475 
Q 2050 4475 2375 4112 
Q 2700 3750 2800 3200 
Q 2900 2650 2862 1937 
Q 2825 1225 2612 775 
Q 2400 325 1975 150 
Q 1550 -25 1125 187 
Q 700 400 525 750 
Q 350 1100 275 1487 
Q 200 1875 225 2537 
z
M 750 2687 
Q 675 2000 800 1462 
Q 925 925 1212 700 
Q 1500 475 1800 612 
Q 2100 750 2237 1162 
Q 2375 1575 2375 2062 
Q 2375 2550 2337 2950 
Q 2300 3350 2112 3675 
Q 1925 4000 1612 4012 
Q 1300 4025 1062 3700 
Q 825 3375 750 2687 
z
" transform="scale(0.015625)"/>
       </defs>
       <use xlink:href="#SimHei-30"/>
      </g>
     </g>
    </g>
    <g id="xtick_2">
     <g id="line2d_2">
      <g>
       <use xlink:href="#m8cfd3e1d37" x="118.003414" y="307.584" style="stroke: #000000; stroke-width: 0.8"/>
      </g>
     </g>
     <g id="text_2">
      <!-- 20 -->
      <g transform="translate(113.003414 321.459) scale(0.1 -0.1)">
       <defs>
        <path id="SimHei-32" d="M 300 250 
Q 325 625 650 925 
Q 975 1225 1475 1862 
Q 1975 2500 2125 2850 
Q 2275 3200 2237 3450 
Q 2200 3700 2000 3862 
Q 1800 4025 1537 4000 
Q 1275 3975 1037 3800 
Q 800 3625 675 3275 
L 200 3350 
Q 400 3925 712 4187 
Q 1025 4450 1450 4475 
Q 1700 4500 1900 4462 
Q 2100 4425 2312 4287 
Q 2525 4150 2662 3875 
Q 2800 3600 2762 3212 
Q 2725 2825 2375 2287 
Q 2025 1750 1025 600 
L 2825 600 
L 2825 150 
L 300 150 
L 300 250 
z
" transform="scale(0.015625)"/>
       </defs>
       <use xlink:href="#SimHei-32"/>
       <use xlink:href="#SimHei-30" x="50"/>
      </g>
     </g>
    </g>
    <g id="xtick_3">
     <g id="line2d_3">
      <g>
       <use xlink:href="#m8cfd3e1d37" x="162.1741" y="307.584" style="stroke: #000000; stroke-width: 0.8"/>
      </g>
     </g>
     <g id="text_3">
      <!-- 40 -->
      <g transform="translate(157.1741 321.459) scale(0.1 -0.1)">
       <defs>
        <path id="SimHei-34" d="M 2000 1100 
L 75 1100 
L 75 1525 
L 2100 4450 
L 2475 4450 
L 2475 1525 
L 3075 1525 
L 3075 1100 
L 2475 1100 
L 2475 150 
L 2000 150 
L 2000 1100 
z
M 2000 1525 
L 2000 3500 
L 600 1525 
L 2000 1525 
z
" transform="scale(0.015625)"/>
       </defs>
       <use xlink:href="#SimHei-34"/>
       <use xlink:href="#SimHei-30" x="50"/>
      </g>
     </g>
    </g>
    <g id="xtick_4">
     <g id="line2d_4">
      <g>
       <use xlink:href="#m8cfd3e1d37" x="206.344787" y="307.584" style="stroke: #000000; stroke-width: 0.8"/>
      </g>
     </g>
     <g id="text_4">
      <!-- 60 -->
      <g transform="translate(201.344787 321.459) scale(0.1 -0.1)">
       <defs>
        <path id="SimHei-36" d="M 250 1612 
Q 275 1975 387 2225 
Q 500 2475 725 2850 
L 1750 4450 
L 2325 4450 
L 1275 2800 
Q 1950 2975 2350 2750 
Q 2750 2525 2887 2237 
Q 3025 1950 3037 1612 
Q 3050 1275 2937 950 
Q 2825 625 2537 362 
Q 2250 100 1737 75 
Q 1225 50 862 262 
Q 500 475 362 862 
Q 225 1250 250 1612 
z
M 1025 787 
Q 1250 550 1625 525 
Q 2000 500 2250 775 
Q 2500 1050 2500 1575 
Q 2500 2100 2187 2300 
Q 1875 2500 1487 2450 
Q 1100 2400 925 2075 
Q 750 1750 775 1387 
Q 800 1025 1025 787 
z
" transform="scale(0.015625)"/>
       </defs>
       <use xlink:href="#SimHei-36"/>
       <use xlink:href="#SimHei-30" x="50"/>
      </g>
     </g>
    </g>
    <g id="xtick_5">
     <g id="line2d_5">
      <g>
       <use xlink:href="#m8cfd3e1d37" x="250.515473" y="307.584" style="stroke: #000000; stroke-width: 0.8"/>
      </g>
     </g>
     <g id="text_5">
      <!-- 80 -->
      <g transform="translate(245.515473 321.459) scale(0.1 -0.1)">
       <defs>
        <path id="SimHei-38" d="M 175 1375 
Q 175 1675 325 1962 
Q 475 2250 825 2425 
Q 525 2600 425 2812 
Q 325 3025 312 3300 
Q 300 3575 387 3775 
Q 475 3975 650 4150 
Q 825 4325 1037 4387 
Q 1250 4450 1500 4450 
Q 1750 4450 1950 4400 
Q 2150 4350 2375 4187 
Q 2600 4025 2700 3725 
Q 2800 3425 2687 3025 
Q 2575 2625 2100 2400 
Q 2525 2275 2700 2012 
Q 2875 1750 2875 1375 
Q 2875 1000 2762 775 
Q 2650 550 2512 400 
Q 2375 250 2137 162 
Q 1900 75 1537 75 
Q 1175 75 912 162 
Q 650 250 475 425 
Q 300 600 237 837 
Q 175 1075 175 1375 
z
M 687 1400 
Q 675 1100 787 875 
Q 900 650 1200 587 
Q 1500 525 1825 600 
Q 2150 675 2275 950 
Q 2400 1225 2362 1500 
Q 2325 1775 2050 1962 
Q 1775 2150 1450 2125 
Q 1125 2100 912 1900 
Q 700 1700 687 1400 
z
M 775 3350 
Q 775 3100 950 2875 
Q 1125 2650 1500 2650 
Q 1875 2650 2062 2875 
Q 2250 3100 2237 3412 
Q 2225 3725 2012 3875 
Q 1800 4025 1437 4000 
Q 1075 3975 925 3787 
Q 775 3600 775 3350 
z
" transform="scale(0.015625)"/>
       </defs>
       <use xlink:href="#SimHei-38"/>
       <use xlink:href="#SimHei-30" x="50"/>
      </g>
     </g>
    </g>
    <g id="xtick_6">
     <g id="line2d_6">
      <g>
       <use xlink:href="#m8cfd3e1d37" x="294.68616" y="307.584" style="stroke: #000000; stroke-width: 0.8"/>
      </g>
     </g>
     <g id="text_6">
      <!-- 100 -->
      <g transform="translate(287.18616 321.459) scale(0.1 -0.1)">
       <defs>
        <path id="SimHei-31" d="M 1400 3600 
Q 1075 3275 575 2975 
L 575 3450 
Q 1200 3875 1600 4450 
L 1900 4450 
L 1900 150 
L 1400 150 
L 1400 3600 
z
" transform="scale(0.015625)"/>
       </defs>
       <use xlink:href="#SimHei-31"/>
       <use xlink:href="#SimHei-30" x="50"/>
       <use xlink:href="#SimHei-30" x="100"/>
      </g>
     </g>
    </g>
    <g id="xtick_7">
     <g id="line2d_7">
      <g>
       <use xlink:href="#m8cfd3e1d37" x="338.856846" y="307.584" style="stroke: #000000; stroke-width: 0.8"/>
      </g>
     </g>
     <g id="text_7">
      <!-- 120 -->
      <g transform="translate(331.356846 321.459) scale(0.1 -0.1)">
       <use xlink:href="#SimHei-31"/>
       <use xlink:href="#SimHei-32" x="50"/>
       <use xlink:href="#SimHei-30" x="100"/>
      </g>
     </g>
    </g>
    <g id="xtick_8">
     <g id="line2d_8">
      <g>
       <use xlink:href="#m8cfd3e1d37" x="383.027532" y="307.584" style="stroke: #000000; stroke-width: 0.8"/>
      </g>
     </g>
     <g id="text_8">
      <!-- 140 -->
      <g transform="translate(375.527532 321.459) scale(0.1 -0.1)">
       <use xlink:href="#SimHei-31"/>
       <use xlink:href="#SimHei-34" x="50"/>
       <use xlink:href="#SimHei-30" x="100"/>
      </g>
     </g>
    </g>
   </g>
   <g id="matplotlib.axis_2">
    <g id="ytick_1">
     <g id="line2d_9">
      <defs>
       <path id="mb41af7db25" d="M 0 0 
L -3.5 0 
" style="stroke: #000000; stroke-width: 0.8"/>
      </defs>
      <g>
       <use xlink:href="#mb41af7db25" x="57.6" y="296.88374" style="stroke: #000000; stroke-width: 0.8"/>
      </g>
     </g>
     <g id="text_9">
      <!-- 0 -->
      <g transform="translate(45.6 300.32124) scale(0.1 -0.1)">
       <use xlink:href="#SimHei-30"/>
      </g>
     </g>
    </g>
    <g id="ytick_2">
     <g id="line2d_10">
      <g>
       <use xlink:href="#mb41af7db25" x="57.6" y="260.267376" style="stroke: #000000; stroke-width: 0.8"/>
      </g>
     </g>
     <g id="text_10">
      <!-- 200 -->
      <g transform="translate(35.6 263.704876) scale(0.1 -0.1)">
       <use xlink:href="#SimHei-32"/>
       <use xlink:href="#SimHei-30" x="50"/>
       <use xlink:href="#SimHei-30" x="100"/>
      </g>
     </g>
    </g>
    <g id="ytick_3">
     <g id="line2d_11">
      <g>
       <use xlink:href="#mb41af7db25" x="57.6" y="223.651012" style="stroke: #000000; stroke-width: 0.8"/>
      </g>
     </g>
     <g id="text_11">
      <!-- 400 -->
      <g transform="translate(35.6 227.088512) scale(0.1 -0.1)">
       <use xlink:href="#SimHei-34"/>
       <use xlink:href="#SimHei-30" x="50"/>
       <use xlink:href="#SimHei-30" x="100"/>
      </g>
     </g>
    </g>
    <g id="ytick_4">
     <g id="line2d_12">
      <g>
       <use xlink:href="#mb41af7db25" x="57.6" y="187.034648" style="stroke: #000000; stroke-width: 0.8"/>
      </g>
     </g>
     <g id="text_12">
      <!-- 600 -->
      <g transform="translate(35.6 190.472148) scale(0.1 -0.1)">
       <use xlink:href="#SimHei-36"/>
       <use xlink:href="#SimHei-30" x="50"/>
       <use xlink:href="#SimHei-30" x="100"/>
      </g>
     </g>
    </g>
    <g id="ytick_5">
     <g id="line2d_13">
      <g>
       <use xlink:href="#mb41af7db25" x="57.6" y="150.418283" style="stroke: #000000; stroke-width: 0.8"/>
      </g>
     </g>
     <g id="text_13">
      <!-- 800 -->
      <g transform="translate(35.6 153.855783) scale(0.1 -0.1)">
       <use xlink:href="#SimHei-38"/>
       <use xlink:href="#SimHei-30" x="50"/>
       <use xlink:href="#SimHei-30" x="100"/>
      </g>
     </g>
    </g>
    <g id="ytick_6">
     <g id="line2d_14">
      <g>
       <use xlink:href="#mb41af7db25" x="57.6" y="113.801919" style="stroke: #000000; stroke-width: 0.8"/>
      </g>
     </g>
     <g id="text_14">
      <!-- 1000 -->
      <g transform="translate(30.6 117.239419) scale(0.1 -0.1)">
       <use xlink:href="#SimHei-31"/>
       <use xlink:href="#SimHei-30" x="50"/>
       <use xlink:href="#SimHei-30" x="100"/>
       <use xlink:href="#SimHei-30" x="150"/>
      </g>
     </g>
    </g>
    <g id="ytick_7">
     <g id="line2d_15">
      <g>
       <use xlink:href="#mb41af7db25" x="57.6" y="77.185555" style="stroke: #000000; stroke-width: 0.8"/>
      </g>
     </g>
     <g id="text_15">
      <!-- 1200 -->
      <g transform="translate(30.6 80.623055) scale(0.1 -0.1)">
       <use xlink:href="#SimHei-31"/>
       <use xlink:href="#SimHei-32" x="50"/>
       <use xlink:href="#SimHei-30" x="100"/>
       <use xlink:href="#SimHei-30" x="150"/>
      </g>
     </g>
    </g>
   </g>
   <g id="line2d_16">
    <path d="M 73.832727 53.568 
L 76.041262 232.967069 
L 78.249796 284.444763 
L 80.45833 281.835554 
L 82.666865 283.618946 
L 84.875399 277.226412 
L 87.083933 278.706867 
L 89.292468 272.114054 
L 91.501002 282.574957 
L 93.709536 285.406632 
L 95.918071 290.553769 
L 98.126605 287.487223 
L 100.335139 280.079272 
L 102.543673 290.416884 
L 104.752208 284.588905 
L 106.960742 285.844449 
L 109.169276 288.545163 
L 111.377811 287.8251 
L 113.586345 274.482503 
L 115.794879 291.706769 
L 118.003414 292.614568 
L 120.211948 281.183524 
L 122.420482 291.743964 
L 124.629017 285.075575 
L 126.837551 281.364729 
L 129.046085 288.653126 
L 131.25462 280.499529 
L 133.463154 290.045863 
L 135.671688 291.388388 
L 137.880223 286.508433 
L 140.088757 271.166439 
L 142.297291 258.434654 
L 144.505826 264.544446 
L 146.71436 290.043502 
L 148.922894 287.404729 
L 151.131429 283.23935 
L 153.339963 277.541869 
L 155.548497 284.066705 
L 157.757032 268.531689 
L 159.965566 284.811893 
L 162.1741 282.742076 
L 164.382635 265.230577 
L 166.591169 263.862105 
L 168.799703 280.744667 
L 171.008237 288.977207 
L 173.216772 290.463967 
L 175.425306 278.412474 
L 177.63384 281.196758 
L 179.842375 293.120226 
L 182.050909 282.704304 
L 184.259443 283.211174 
L 186.467978 291.517325 
L 188.676512 286.284852 
L 190.885046 284.051763 
L 193.093581 285.739498 
L 195.302115 266.034734 
L 197.510649 269.662238 
L 199.719184 288.210271 
L 201.927718 285.123275 
L 204.136252 276.68189 
L 206.344787 273.908119 
L 208.553321 288.355333 
L 210.761855 287.571433 
L 212.97039 286.345755 
L 215.178924 293.682138 
L 217.387458 285.135869 
L 219.595993 289.642515 
L 221.804527 280.373386 
L 224.013061 279.210072 
L 226.221596 287.549551 
L 228.43013 287.667216 
L 230.638664 287.551778 
L 232.847199 295.488 
L 235.055733 292.673745 
L 237.264267 292.306695 
L 239.472801 292.673745 
L 241.681336 295.488 
L 243.88987 287.551778 
L 246.098404 287.667216 
L 248.306939 287.549551 
L 250.515473 279.210072 
L 252.724007 280.373386 
L 254.932542 289.642515 
L 257.141076 285.135869 
L 259.34961 293.682138 
L 261.558145 286.345755 
L 263.766679 287.571433 
L 265.975213 288.355333 
L 268.183748 273.908119 
L 270.392282 276.68189 
L 272.600816 285.123275 
L 274.809351 288.210271 
L 277.017885 269.662238 
L 279.226419 266.034734 
L 281.434954 285.739498 
L 283.643488 284.051763 
L 285.852022 286.284852 
L 288.060557 291.517325 
L 290.269091 283.211174 
L 292.477625 282.704304 
L 294.68616 293.120226 
L 296.894694 281.196758 
L 299.103228 278.412474 
L 301.311763 290.463967 
L 303.520297 288.977207 
L 305.728831 280.744667 
L 307.937365 263.862105 
L 310.1459 265.230577 
L 312.354434 282.742076 
L 314.562968 284.811893 
L 316.771503 268.531689 
L 318.980037 284.066705 
L 321.188571 277.541869 
L 323.397106 283.23935 
L 325.60564 287.404729 
L 327.814174 290.043502 
L 330.022709 264.544446 
L 332.231243 258.434654 
L 334.439777 271.166439 
L 336.648312 286.508433 
L 338.856846 291.388388 
L 341.06538 290.045863 
L 343.273915 280.499529 
L 345.482449 288.653126 
L 347.690983 281.364729 
L 349.899518 285.075575 
L 352.108052 291.743964 
L 354.316586 281.183524 
L 356.525121 292.614568 
L 358.733655 291.706769 
L 360.942189 274.482503 
L 363.150724 287.8251 
L 365.359258 288.545163 
L 367.567792 285.844449 
L 369.776327 284.588905 
L 371.984861 290.416884 
L 374.193395 280.079272 
L 376.401929 287.487223 
L 378.610464 290.553769 
L 380.818998 285.406632 
L 383.027532 282.574957 
L 385.236067 272.114054 
L 387.444601 278.706867 
L 389.653135 277.226412 
L 391.86167 283.618946 
L 394.070204 281.835554 
L 396.278738 284.444763 
L 398.487273 232.967069 
L 398.487273 232.967069 
" clip-path="url(#pf966190cba)" style="fill: none; stroke: #1f77b4; stroke-width: 1.5; stroke-linecap: square"/>
   </g>
   <g id="patch_3">
    <path d="M 57.6 307.584 
L 57.6 41.472 
" style="fill: none; stroke: #000000; stroke-width: 0.8; stroke-linejoin: miter; stroke-linecap: square"/>
   </g>
   <g id="patch_4">
    <path d="M 414.72 307.584 
L 414.72 41.472 
" style="fill: none; stroke: #000000; stroke-width: 0.8; stroke-linejoin: miter; stroke-linecap: square"/>
   </g>
   <g id="patch_5">
    <path d="M 57.6 307.584 
L 414.72 307.584 
" style="fill: none; stroke: #000000; stroke-width: 0.8; stroke-linejoin: miter; stroke-linecap: square"/>
   </g>
   <g id="patch_6">
    <path d="M 57.6 41.472 
L 414.72 41.472 
" style="fill: none; stroke: #000000; stroke-width: 0.8; stroke-linejoin: miter; stroke-linecap: square"/>
   </g>
   <g id="text_16">
    <!-- 6004010256 傅里叶变换 -->
    <g transform="translate(173.16 35.472) scale(0.12 -0.12)">
     <defs>
      <path id="SimHei-35" d="M 550 1325 
Q 725 650 1150 575 
Q 1575 500 1837 662 
Q 2100 825 2212 1087 
Q 2325 1350 2312 1675 
Q 2300 2000 2137 2225 
Q 1975 2450 1725 2525 
Q 1475 2600 1162 2525 
Q 850 2450 650 2175 
L 225 2225 
Q 275 2375 700 4375 
L 2675 4375 
L 2675 3925 
L 1075 3925 
Q 950 3250 825 2850 
Q 1200 3025 1525 3012 
Q 1850 3000 2150 2862 
Q 2450 2725 2587 2487 
Q 2725 2250 2787 2012 
Q 2850 1775 2837 1500 
Q 2825 1225 2725 937 
Q 2625 650 2425 462 
Q 2225 275 1937 162 
Q 1650 50 1275 75 
Q 900 100 562 350 
Q 225 600 100 1200 
L 550 1325 
z
" transform="scale(0.015625)"/>
      <path id="SimHei-20" transform="scale(0.015625)"/>
      <path id="SimHei-5085" d="M 2100 4550 
Q 2575 4525 2850 4525 
L 3575 4525 
Q 3575 4950 3550 5200 
L 4075 5200 
Q 4025 5000 4025 4525 
L 5050 4525 
Q 5600 4525 5925 4550 
L 5925 4125 
Q 5600 4150 5075 4150 
L 4025 4150 
L 4025 3775 
L 5550 3775 
Q 5525 3525 5525 2750 
Q 5525 2000 5550 1700 
L 5075 1700 
L 5075 1950 
L 4025 1950 
Q 4025 1725 4050 1500 
L 3550 1500 
Q 3575 1750 3575 1950 
L 2750 1950 
L 2750 1525 
L 2275 1525 
Q 2300 1900 2300 2675 
Q 2300 3475 2275 3775 
L 3575 3775 
L 3575 4150 
L 2875 4150 
Q 2550 4150 2100 4125 
L 2100 4550 
z
M 275 2550 
Q 550 2850 912 3512 
Q 1275 4175 1500 5175 
Q 1750 5050 2100 4950 
Q 1925 4750 1600 3775 
L 1600 750 
Q 1600 -25 1625 -525 
L 1125 -525 
Q 1150 -50 1150 775 
L 1150 2975 
Q 1050 2775 675 2225 
Q 525 2400 275 2550 
z
M 6100 800 
Q 5725 825 5350 825 
L 5150 825 
L 5150 50 
Q 5200 -350 4925 -462 
Q 4650 -575 4250 -625 
Q 4175 -375 4050 -125 
Q 4450 -125 4575 -87 
Q 4700 -50 4700 250 
L 4700 825 
L 2675 825 
Q 2325 825 1875 800 
L 1875 1250 
Q 2325 1225 2675 1225 
L 4700 1225 
Q 4700 1425 4675 1625 
L 5200 1625 
Q 5150 1425 5150 1225 
L 5350 1225 
Q 5650 1225 6100 1250 
L 6100 800 
z
M 3600 75 
Q 3350 -50 3175 -225 
Q 3075 25 2675 450 
Q 2900 600 3075 775 
Q 3250 550 3362 400 
Q 3475 250 3600 75 
z
M 5075 2325 
L 5075 2675 
L 4025 2675 
L 4025 2325 
L 5075 2325 
z
M 5075 3050 
L 5075 3375 
L 4025 3375 
L 4025 3050 
L 5075 3050 
z
M 4975 5300 
Q 5125 5100 5350 4825 
Q 5100 4700 4875 4575 
Q 4725 4850 4525 5025 
Q 4800 5175 4975 5300 
z
M 3575 2325 
L 3575 2675 
L 2750 2675 
L 2750 2325 
L 3575 2325 
z
M 3575 3050 
L 3575 3375 
L 2750 3375 
L 2750 3050 
L 3575 3050 
z
" transform="scale(0.015625)"/>
      <path id="SimHei-91cc" d="M 5325 4925 
Q 5300 4400 5300 3500 
Q 5300 2600 5325 2075 
L 3400 2075 
L 3400 1400 
L 4575 1400 
Q 4900 1400 5425 1450 
L 5425 950 
Q 4900 975 4575 975 
L 3400 975 
L 3400 125 
L 5125 125 
Q 5500 125 6000 150 
L 6000 -350 
Q 5500 -325 5125 -325 
L 1450 -325 
Q 1000 -325 425 -375 
L 425 150 
Q 850 125 1450 125 
L 2925 125 
L 2925 975 
L 1825 975 
Q 1500 975 975 950 
L 975 1450 
Q 1350 1400 1825 1400 
L 2925 1400 
L 2925 2075 
L 1075 2075 
Q 1100 2600 1112 3337 
Q 1125 4075 1075 4925 
L 5325 4925 
z
M 4825 3675 
L 4825 4500 
L 3400 4500 
L 3400 3675 
L 4825 3675 
z
M 4825 2500 
L 4825 3275 
L 3400 3275 
L 3400 2500 
L 4825 2500 
z
M 2925 3675 
L 2925 4500 
L 1600 4500 
L 1600 3675 
L 2925 3675 
z
M 2925 2500 
L 2925 3275 
L 1600 3275 
L 1600 2500 
L 2925 2500 
z
" transform="scale(0.015625)"/>
      <path id="SimHei-53f6" d="M 2350 4625 
Q 2325 4100 2325 3600 
L 2325 1475 
Q 2325 950 2350 500 
L 1825 500 
L 1825 1150 
L 875 1150 
L 875 150 
L 350 150 
Q 375 650 375 1125 
L 375 3600 
Q 375 3950 350 4625 
L 2350 4625 
z
M 4150 3200 
L 4150 4450 
Q 4150 4950 4125 5150 
L 4725 5150 
Q 4675 4950 4675 4450 
L 4675 3200 
L 5575 3200 
Q 6050 3200 6175 3225 
L 6175 2725 
Q 6025 2750 5600 2750 
L 4675 2750 
L 4675 275 
Q 4675 -275 4700 -550 
L 4125 -550 
Q 4150 -275 4150 250 
L 4150 2750 
L 3275 2750 
Q 2775 2750 2600 2725 
L 2600 3225 
Q 2775 3200 3250 3200 
L 4150 3200 
z
M 1825 1600 
L 1825 4175 
L 875 4175 
L 875 1600 
L 1825 1600 
z
" transform="scale(0.015625)"/>
      <path id="SimHei-53d8" d="M 5200 1975 
Q 4950 1600 4537 1137 
Q 4125 675 3675 375 
Q 3925 225 4600 87 
Q 5275 -50 6000 -75 
Q 5700 -400 5650 -625 
Q 4850 -525 4212 -312 
Q 3575 -100 3225 125 
Q 2800 -125 2150 -325 
Q 1500 -525 700 -675 
Q 600 -425 400 -175 
Q 950 -150 1687 12 
Q 2425 175 2825 375 
Q 2275 775 1675 1575 
Q 1350 1575 1000 1550 
L 1000 2000 
Q 1450 1975 2075 1975 
L 5200 1975 
z
M 3225 5275 
Q 3400 4900 3550 4475 
L 4675 4475 
Q 5400 4475 5975 4500 
L 5975 4025 
Q 5375 4050 4725 4050 
L 4125 4050 
L 4125 2950 
Q 4125 2550 4150 2150 
L 3600 2150 
Q 3625 2550 3625 2950 
L 3625 4050 
L 2750 4050 
L 2750 2950 
Q 2750 2675 2775 2150 
L 2225 2150 
Q 2250 2675 2250 2950 
L 2250 4050 
L 1700 4050 
Q 975 4050 425 4025 
L 425 4500 
Q 950 4475 1700 4475 
L 2975 4475 
Q 2925 4675 2700 5125 
Q 2950 5150 3225 5275 
z
M 2200 1575 
Q 2650 975 3250 600 
Q 3850 1000 4275 1575 
L 2200 1575 
z
M 4850 3750 
Q 5375 3275 5950 2675 
Q 5750 2525 5500 2300 
Q 5075 2800 4450 3400 
Q 4675 3575 4850 3750 
z
M 1825 3500 
Q 1700 3375 1425 3025 
Q 1150 2675 825 2300 
Q 575 2475 375 2600 
Q 975 3150 1300 3825 
Q 1525 3650 1825 3500 
z
" transform="scale(0.015625)"/>
      <path id="SimHei-6362" d="M 1225 4550 
Q 1225 4900 1200 5200 
L 1700 5200 
Q 1650 4925 1650 4550 
L 1650 3800 
Q 1925 3800 2300 3825 
L 2300 3425 
Q 2725 3850 3000 4300 
Q 3275 4750 3425 5200 
Q 3625 5075 3950 4950 
Q 3800 4800 3600 4450 
L 5325 4450 
Q 4825 3750 4575 3325 
L 5600 3325 
L 5600 1650 
Q 5875 1650 6150 1675 
L 6150 1250 
Q 5725 1275 5450 1275 
L 4500 1275 
Q 4725 700 5237 325 
Q 5750 -50 6150 -150 
Q 5875 -375 5775 -625 
Q 5375 -450 4925 -37 
Q 4475 375 4150 1000 
Q 3775 50 2250 -625 
Q 2175 -425 1925 -200 
Q 2650 0 3137 425 
Q 3625 850 3775 1275 
L 2650 1275 
Q 2500 1275 2100 1250 
L 2100 1675 
Q 2475 1650 2675 1650 
L 2675 2675 
Q 2675 3050 2650 3150 
L 2550 3025 
Q 2400 3200 2175 3325 
L 2275 3400 
Q 1925 3425 1650 3425 
L 1650 2350 
Q 1925 2475 2200 2650 
Q 2225 2450 2275 2225 
Q 2025 2100 1650 1900 
L 1650 50 
Q 1650 -275 1462 -400 
Q 1275 -525 725 -600 
Q 700 -375 525 -75 
Q 1050 -100 1137 -50 
Q 1225 0 1225 150 
L 1225 1700 
Q 800 1475 525 1300 
Q 425 1525 250 1750 
Q 875 1975 1225 2150 
L 1225 3425 
Q 675 3425 300 3400 
L 300 3825 
Q 650 3800 1225 3800 
L 1225 4550 
z
M 5175 1650 
L 5175 2950 
L 4375 2950 
Q 4375 2300 4325 1650 
L 5175 1650 
z
M 3850 1650 
Q 3900 2300 3925 2950 
L 3100 2950 
L 3100 1650 
L 3850 1650 
z
M 3400 4100 
Q 3075 3625 2800 3325 
L 4100 3325 
L 4550 4100 
L 3400 4100 
z
" transform="scale(0.015625)"/>
     </defs>
     <use xlink:href="#SimHei-36"/>
     <use xlink:href="#SimHei-30" x="50"/>
     <use xlink:href="#SimHei-30" x="100"/>
     <use xlink:href="#SimHei-34" x="150"/>
     <use xlink:href="#SimHei-30" x="200"/>
     <use xlink:href="#SimHei-31" x="250"/>
     <use xlink:href="#SimHei-30" x="300"/>
     <use xlink:href="#SimHei-32" x="350"/>
     <use xlink:href="#SimHei-35" x="400"/>
     <use xlink:href="#SimHei-36" x="450"/>
     <use xlink:href="#SimHei-20" x="500"/>
     <use xlink:href="#SimHei-5085" x="550"/>
     <use xlink:href="#SimHei-91cc" x="650"/>
     <use xlink:href="#SimHei-53f6" x="750"/>
     <use xlink:href="#SimHei-53d8" x="850"/>
     <use xlink:href="#SimHei-6362" x="950"/>
    </g>
   </g>
  </g>
 </g>
 <defs>
  <clipPath id="pf966190cba">
   <rect x="57.6" y="41.472" width="357.12" height="266.112"/>
  </clipPath>
 </defs>
</svg>
