<?xml version="1.0" encoding="utf-8" standalone="no"?>
<!DOCTYPE svg PUBLIC "-//W3C//DTD SVG 1.1//EN"
  "http://www.w3.org/Graphics/SVG/1.1/DTD/svg11.dtd">
<svg xmlns:xlink="http://www.w3.org/1999/xlink" width="720pt" height="432pt" viewBox="0 0 720 432" xmlns="http://www.w3.org/2000/svg" version="1.1">
 <metadata>
  <rdf:RDF xmlns:dc="http://purl.org/dc/elements/1.1/" xmlns:cc="http://creativecommons.org/ns#" xmlns:rdf="http://www.w3.org/1999/02/22-rdf-syntax-ns#">
   <cc:Work>
    <dc:type rdf:resource="http://purl.org/dc/dcmitype/StillImage"/>
    <dc:date>2024-08-17T14:09:53.222020</dc:date>
    <dc:format>image/svg+xml</dc:format>
    <dc:creator>
     <cc:Agent>
      <dc:title>Matplotlib v3.8.0, https://matplotlib.org/</dc:title>
     </cc:Agent>
    </dc:creator>
   </cc:Work>
  </rdf:RDF>
 </metadata>
 <defs>
  <style type="text/css">*{stroke-linejoin: round; stroke-linecap: butt}</style>
 </defs>
 <g id="figure_1">
  <g id="patch_1">
   <path d="M 0 432 
L 720 432 
L 720 0 
L 0 0 
z
" style="fill: #ffffff"/>
  </g>
  <g id="axes_1">
   <g id="patch_2">
    <path d="M 90 384.48 
L 648 384.48 
L 648 51.84 
L 90 51.84 
z
" style="fill: #ffffff"/>
   </g>
   <g id="matplotlib.axis_1">
    <g id="xtick_1">
     <g id="line2d_1">
      <defs>
       <path id="m873398f525" d="M 0 0 
L 0 3.5 
" style="stroke: #000000; stroke-width: 0.8"/>
      </defs>
      <g>
       <use xlink:href="#m873398f525" x="109.566234" y="384.48" style="stroke: #000000; stroke-width: 0.8"/>
      </g>
     </g>
     <g id="text_1">
      <!-- 0 -->
      <g transform="translate(107.066234 398.355) scale(0.1 -0.1)">
       <defs>
        <path id="SimHei-30" d="M 225 2537 
Q 250 3200 412 3587 
Q 575 3975 875 4225 
Q 1175 4475 1612 4475 
Q 2050 4475 2375 4112 
Q 2700 3750 2800 3200 
Q 2900 2650 2862 1937 
Q 2825 1225 2612 775 
Q 2400 325 1975 150 
Q 1550 -25 1125 187 
Q 700 400 525 750 
Q 350 1100 275 1487 
Q 200 1875 225 2537 
z
M 750 2687 
Q 675 2000 800 1462 
Q 925 925 1212 700 
Q 1500 475 1800 612 
Q 2100 750 2237 1162 
Q 2375 1575 2375 2062 
Q 2375 2550 2337 2950 
Q 2300 3350 2112 3675 
Q 1925 4000 1612 4012 
Q 1300 4025 1062 3700 
Q 825 3375 750 2687 
z
" transform="scale(0.015625)"/>
       </defs>
       <use xlink:href="#SimHei-30"/>
      </g>
     </g>
    </g>
    <g id="xtick_2">
     <g id="line2d_2">
      <g>
       <use xlink:href="#m873398f525" x="182.033766" y="384.48" style="stroke: #000000; stroke-width: 0.8"/>
      </g>
     </g>
     <g id="text_2">
      <!-- 25 -->
      <g transform="translate(177.033766 398.355) scale(0.1 -0.1)">
       <defs>
        <path id="SimHei-32" d="M 300 250 
Q 325 625 650 925 
Q 975 1225 1475 1862 
Q 1975 2500 2125 2850 
Q 2275 3200 2237 3450 
Q 2200 3700 2000 3862 
Q 1800 4025 1537 4000 
Q 1275 3975 1037 3800 
Q 800 3625 675 3275 
L 200 3350 
Q 400 3925 712 4187 
Q 1025 4450 1450 4475 
Q 1700 4500 1900 4462 
Q 2100 4425 2312 4287 
Q 2525 4150 2662 3875 
Q 2800 3600 2762 3212 
Q 2725 2825 2375 2287 
Q 2025 1750 1025 600 
L 2825 600 
L 2825 150 
L 300 150 
L 300 250 
z
" transform="scale(0.015625)"/>
        <path id="SimHei-35" d="M 550 1325 
Q 725 650 1150 575 
Q 1575 500 1837 662 
Q 2100 825 2212 1087 
Q 2325 1350 2312 1675 
Q 2300 2000 2137 2225 
Q 1975 2450 1725 2525 
Q 1475 2600 1162 2525 
Q 850 2450 650 2175 
L 225 2225 
Q 275 2375 700 4375 
L 2675 4375 
L 2675 3925 
L 1075 3925 
Q 950 3250 825 2850 
Q 1200 3025 1525 3012 
Q 1850 3000 2150 2862 
Q 2450 2725 2587 2487 
Q 2725 2250 2787 2012 
Q 2850 1775 2837 1500 
Q 2825 1225 2725 937 
Q 2625 650 2425 462 
Q 2225 275 1937 162 
Q 1650 50 1275 75 
Q 900 100 562 350 
Q 225 600 100 1200 
L 550 1325 
z
" transform="scale(0.015625)"/>
       </defs>
       <use xlink:href="#SimHei-32"/>
       <use xlink:href="#SimHei-35" x="50"/>
      </g>
     </g>
    </g>
    <g id="xtick_3">
     <g id="line2d_3">
      <g>
       <use xlink:href="#m873398f525" x="254.501299" y="384.48" style="stroke: #000000; stroke-width: 0.8"/>
      </g>
     </g>
     <g id="text_3">
      <!-- 50 -->
      <g transform="translate(249.501299 398.355) scale(0.1 -0.1)">
       <use xlink:href="#SimHei-35"/>
       <use xlink:href="#SimHei-30" x="50"/>
      </g>
     </g>
    </g>
    <g id="xtick_4">
     <g id="line2d_4">
      <g>
       <use xlink:href="#m873398f525" x="326.968831" y="384.48" style="stroke: #000000; stroke-width: 0.8"/>
      </g>
     </g>
     <g id="text_4">
      <!-- 75 -->
      <g transform="translate(321.968831 398.355) scale(0.1 -0.1)">
       <defs>
        <path id="SimHei-37" d="M 850 150 
Q 1300 2050 2425 3925 
L 275 3925 
L 275 4375 
L 2950 4375 
L 2950 3950 
Q 1775 2050 1400 150 
L 850 150 
z
" transform="scale(0.015625)"/>
       </defs>
       <use xlink:href="#SimHei-37"/>
       <use xlink:href="#SimHei-35" x="50"/>
      </g>
     </g>
    </g>
    <g id="xtick_5">
     <g id="line2d_5">
      <g>
       <use xlink:href="#m873398f525" x="399.436364" y="384.48" style="stroke: #000000; stroke-width: 0.8"/>
      </g>
     </g>
     <g id="text_5">
      <!-- 100 -->
      <g transform="translate(391.936364 398.355) scale(0.1 -0.1)">
       <defs>
        <path id="SimHei-31" d="M 1400 3600 
Q 1075 3275 575 2975 
L 575 3450 
Q 1200 3875 1600 4450 
L 1900 4450 
L 1900 150 
L 1400 150 
L 1400 3600 
z
" transform="scale(0.015625)"/>
       </defs>
       <use xlink:href="#SimHei-31"/>
       <use xlink:href="#SimHei-30" x="50"/>
       <use xlink:href="#SimHei-30" x="100"/>
      </g>
     </g>
    </g>
    <g id="xtick_6">
     <g id="line2d_6">
      <g>
       <use xlink:href="#m873398f525" x="471.903896" y="384.48" style="stroke: #000000; stroke-width: 0.8"/>
      </g>
     </g>
     <g id="text_6">
      <!-- 125 -->
      <g transform="translate(464.403896 398.355) scale(0.1 -0.1)">
       <use xlink:href="#SimHei-31"/>
       <use xlink:href="#SimHei-32" x="50"/>
       <use xlink:href="#SimHei-35" x="100"/>
      </g>
     </g>
    </g>
    <g id="xtick_7">
     <g id="line2d_7">
      <g>
       <use xlink:href="#m873398f525" x="544.371429" y="384.48" style="stroke: #000000; stroke-width: 0.8"/>
      </g>
     </g>
     <g id="text_7">
      <!-- 150 -->
      <g transform="translate(536.871429 398.355) scale(0.1 -0.1)">
       <use xlink:href="#SimHei-31"/>
       <use xlink:href="#SimHei-35" x="50"/>
       <use xlink:href="#SimHei-30" x="100"/>
      </g>
     </g>
    </g>
    <g id="xtick_8">
     <g id="line2d_8">
      <g>
       <use xlink:href="#m873398f525" x="616.838961" y="384.48" style="stroke: #000000; stroke-width: 0.8"/>
      </g>
     </g>
     <g id="text_8">
      <!-- 175 -->
      <g transform="translate(609.338961 398.355) scale(0.1 -0.1)">
       <use xlink:href="#SimHei-31"/>
       <use xlink:href="#SimHei-37" x="50"/>
       <use xlink:href="#SimHei-35" x="100"/>
      </g>
     </g>
    </g>
    <g id="text_9">
     <!-- 周数 -->
     <g transform="translate(359 411.339375) scale(0.1 -0.1)">
      <defs>
       <path id="SimHei-5468" d="M 5600 4925 
Q 5575 4400 5575 3800 
L 5575 50 
Q 5550 -375 5325 -462 
Q 5100 -550 4325 -600 
Q 4300 -400 4125 -75 
Q 4800 -100 4962 -37 
Q 5125 25 5100 225 
L 5100 4525 
L 1500 4525 
Q 1500 2575 1450 1887 
Q 1400 1200 1237 550 
Q 1075 -100 775 -625 
Q 625 -450 275 -225 
Q 650 225 825 1000 
Q 1000 1775 1025 2587 
Q 1050 3400 1000 4925 
L 5600 4925 
z
M 2050 325 
Q 2075 625 2075 950 
L 2075 1400 
Q 2075 1625 2050 1925 
L 4400 1925 
Q 4375 1725 4375 1450 
L 4375 875 
Q 4375 600 4400 325 
L 2050 325 
z
M 3000 3800 
Q 3000 4150 2975 4375 
L 3475 4375 
Q 3450 4075 3450 3800 
Q 4100 3800 4475 3825 
L 4475 3350 
Q 4125 3375 3450 3375 
L 3450 2800 
Q 4200 2800 4825 2825 
L 4825 2350 
Q 4175 2375 3725 2375 
L 2750 2375 
Q 2325 2375 1725 2350 
L 1725 2825 
Q 2325 2800 3000 2800 
L 3000 3375 
Q 2500 3375 1975 3350 
L 1975 3825 
Q 2475 3800 3000 3800 
z
M 3900 725 
L 3900 1525 
L 2550 1525 
L 2550 725 
L 3900 725 
z
" transform="scale(0.015625)"/>
       <path id="SimHei-6570" d="M 4525 4925 
Q 4475 4800 4400 4587 
Q 4325 4375 4175 3825 
L 5325 3825 
Q 5575 3825 5925 3850 
L 5925 3400 
Q 5650 3425 5500 3425 
Q 5500 3025 5362 2162 
Q 5225 1300 4875 675 
Q 5125 375 5437 137 
Q 5750 -100 6025 -200 
Q 5725 -425 5625 -625 
Q 5325 -450 5075 -225 
Q 4825 0 4575 325 
Q 4300 25 3987 -187 
Q 3675 -400 3200 -650 
Q 3075 -425 2850 -300 
Q 3225 -150 3650 125 
Q 4075 400 4300 675 
Q 4125 1025 3962 1425 
Q 3800 1825 3675 2475 
Q 3600 2275 3425 1950 
Q 3250 2050 3000 2150 
Q 3400 2850 3650 3675 
Q 3900 4500 3975 5100 
Q 4275 4975 4525 4925 
z
M 2100 2250 
Q 2000 2150 1875 1925 
L 3250 1925 
Q 3100 1300 2725 675 
Q 3125 525 3350 400 
Q 3225 225 3125 25 
Q 2900 175 2450 325 
Q 1950 -225 725 -650 
Q 600 -375 400 -275 
Q 1575 0 2000 475 
Q 1300 650 850 775 
Q 1000 1000 1250 1525 
Q 1000 1525 425 1500 
L 425 1950 
Q 900 1925 1400 1925 
Q 1500 2150 1550 2425 
Q 1825 2325 2100 2250 
z
M 1775 3950 
Q 1775 4550 1750 5100 
L 2250 5100 
Q 2225 4575 2225 3950 
Q 3075 3950 3425 3975 
L 3425 3525 
Q 3075 3550 2225 3550 
Q 2225 2825 2250 2425 
L 1750 2425 
Q 1775 2775 1775 3300 
Q 1650 3100 1300 2787 
Q 950 2475 650 2300 
Q 525 2525 275 2625 
Q 500 2700 875 2975 
Q 1250 3250 1450 3550 
Q 950 3550 500 3525 
L 500 3975 
Q 925 3950 1775 3950 
z
M 3975 3175 
Q 4200 1700 4600 1125 
Q 4850 1700 4937 2287 
Q 5025 2875 5050 3425 
L 4075 3425 
L 3975 3175 
z
M 1450 1000 
Q 1750 925 2275 800 
Q 2475 1050 2650 1525 
L 1725 1525 
Q 1600 1275 1450 1000 
z
M 3325 4825 
Q 3200 4625 3125 4450 
Q 3050 4275 2925 4025 
Q 2725 4125 2525 4175 
Q 2725 4500 2900 5000 
Q 3150 4875 3325 4825 
z
M 2575 3375 
Q 2900 3050 3200 2725 
Q 3050 2600 2875 2425 
Q 2525 2850 2300 3100 
Q 2450 3225 2575 3375 
z
M 925 5000 
Q 1275 4650 1500 4300 
L 1125 4075 
Q 950 4425 600 4725 
Q 825 4875 925 5000 
z
" transform="scale(0.015625)"/>
      </defs>
      <use xlink:href="#SimHei-5468"/>
      <use xlink:href="#SimHei-6570" x="100"/>
     </g>
    </g>
   </g>
   <g id="matplotlib.axis_2">
    <g id="ytick_1">
     <g id="line2d_9">
      <defs>
       <path id="m04213a7258" d="M 0 0 
L -3.5 0 
" style="stroke: #000000; stroke-width: 0.8"/>
      </defs>
      <g>
       <use xlink:href="#m04213a7258" x="90" y="375.794043" style="stroke: #000000; stroke-width: 0.8"/>
      </g>
     </g>
     <g id="text_10">
      <!-- 0 -->
      <g style="fill: #0000ff" transform="translate(78 379.231543) scale(0.1 -0.1)">
       <use xlink:href="#SimHei-30"/>
      </g>
     </g>
    </g>
    <g id="ytick_2">
     <g id="line2d_10">
      <g>
       <use xlink:href="#m04213a7258" x="90" y="311.453617" style="stroke: #000000; stroke-width: 0.8"/>
      </g>
     </g>
     <g id="text_11">
      <!-- 10 -->
      <g style="fill: #0000ff" transform="translate(73 314.891117) scale(0.1 -0.1)">
       <use xlink:href="#SimHei-31"/>
       <use xlink:href="#SimHei-30" x="50"/>
      </g>
     </g>
    </g>
    <g id="ytick_3">
     <g id="line2d_11">
      <g>
       <use xlink:href="#m04213a7258" x="90" y="247.113191" style="stroke: #000000; stroke-width: 0.8"/>
      </g>
     </g>
     <g id="text_12">
      <!-- 20 -->
      <g style="fill: #0000ff" transform="translate(73 250.550691) scale(0.1 -0.1)">
       <use xlink:href="#SimHei-32"/>
       <use xlink:href="#SimHei-30" x="50"/>
      </g>
     </g>
    </g>
    <g id="ytick_4">
     <g id="line2d_12">
      <g>
       <use xlink:href="#m04213a7258" x="90" y="182.772766" style="stroke: #000000; stroke-width: 0.8"/>
      </g>
     </g>
     <g id="text_13">
      <!-- 30 -->
      <g style="fill: #0000ff" transform="translate(73 186.210266) scale(0.1 -0.1)">
       <defs>
        <path id="SimHei-33" d="M 250 1225 
L 700 1300 
Q 800 975 1025 762 
Q 1250 550 1587 562 
Q 1925 575 2125 837 
Q 2325 1100 2300 1437 
Q 2275 1775 2037 1962 
Q 1800 2150 1275 2225 
L 1275 2550 
Q 1800 2600 2037 2825 
Q 2275 3050 2250 3412 
Q 2225 3775 1925 3937 
Q 1625 4100 1287 3975 
Q 950 3850 750 3275 
L 300 3350 
Q 450 3800 712 4100 
Q 975 4400 1425 4450 
Q 1875 4500 2212 4337 
Q 2550 4175 2687 3837 
Q 2825 3500 2725 3100 
Q 2625 2700 2150 2400 
Q 2500 2250 2687 1950 
Q 2875 1650 2812 1162 
Q 2750 675 2375 375 
Q 2000 75 1525 87 
Q 1050 100 700 387 
Q 350 675 250 1225 
z
" transform="scale(0.015625)"/>
       </defs>
       <use xlink:href="#SimHei-33"/>
       <use xlink:href="#SimHei-30" x="50"/>
      </g>
     </g>
    </g>
    <g id="ytick_5">
     <g id="line2d_13">
      <g>
       <use xlink:href="#m04213a7258" x="90" y="118.43234" style="stroke: #000000; stroke-width: 0.8"/>
      </g>
     </g>
     <g id="text_14">
      <!-- 40 -->
      <g style="fill: #0000ff" transform="translate(73 121.86984) scale(0.1 -0.1)">
       <defs>
        <path id="SimHei-34" d="M 2000 1100 
L 75 1100 
L 75 1525 
L 2100 4450 
L 2475 4450 
L 2475 1525 
L 3075 1525 
L 3075 1100 
L 2475 1100 
L 2475 150 
L 2000 150 
L 2000 1100 
z
M 2000 1525 
L 2000 3500 
L 600 1525 
L 2000 1525 
z
" transform="scale(0.015625)"/>
       </defs>
       <use xlink:href="#SimHei-34"/>
       <use xlink:href="#SimHei-30" x="50"/>
      </g>
     </g>
    </g>
    <g id="ytick_6">
     <g id="line2d_14">
      <g>
       <use xlink:href="#m04213a7258" x="90" y="54.091915" style="stroke: #000000; stroke-width: 0.8"/>
      </g>
     </g>
     <g id="text_15">
      <!-- 50 -->
      <g style="fill: #0000ff" transform="translate(73 57.529415) scale(0.1 -0.1)">
       <use xlink:href="#SimHei-35"/>
       <use xlink:href="#SimHei-30" x="50"/>
      </g>
     </g>
    </g>
    <g id="text_16">
     <!-- 需求量 -->
     <g style="fill: #0000ff" transform="translate(67.75 233.16) rotate(-90) scale(0.1 -0.1)">
      <defs>
       <path id="SimHei-9700" d="M 5150 2100 
Q 5500 2100 5975 2125 
L 5975 1700 
Q 5500 1725 5150 1725 
L 3425 1725 
Q 3300 1500 3250 1275 
L 5600 1275 
Q 5575 950 5575 700 
L 5575 -50 
Q 5575 -350 5425 -437 
Q 5275 -525 4775 -625 
Q 4750 -400 4550 -100 
Q 4950 -100 5025 -50 
Q 5100 0 5100 200 
L 5100 900 
L 4125 900 
L 4125 -375 
L 3650 -375 
L 3650 900 
L 2775 900 
L 2775 -375 
L 2300 -375 
L 2300 900 
L 1350 900 
L 1350 -575 
L 875 -575 
Q 900 -225 900 175 
L 900 575 
Q 900 900 875 1275 
L 2800 1275 
Q 2875 1500 2925 1725 
L 1350 1725 
Q 925 1725 525 1700 
L 525 2125 
Q 900 2100 1325 2100 
L 5150 2100 
z
M 4700 5075 
Q 5075 5075 5550 5100 
L 5550 4675 
Q 5075 4700 4700 4700 
L 3475 4700 
L 3475 4275 
L 5975 4275 
L 5975 3100 
L 5500 3100 
L 5500 3900 
L 3475 3900 
L 3475 3200 
Q 3475 2775 3500 2425 
L 2975 2425 
Q 3000 2750 3000 3175 
L 3000 3900 
L 950 3900 
L 950 3100 
L 450 3100 
Q 450 3375 462 3650 
Q 475 3925 450 4275 
L 3000 4275 
L 3000 4700 
L 1775 4700 
Q 1400 4700 1025 4675 
L 1025 5100 
Q 1400 5075 1750 5075 
L 4700 5075 
z
M 2475 2450 
L 1250 2450 
L 1250 2800 
L 2475 2800 
L 2475 2450 
z
M 2500 3150 
L 1325 3150 
L 1325 3500 
L 2500 3500 
L 2500 3150 
z
M 5000 3175 
L 3825 3175 
L 3825 3525 
L 5000 3525 
L 5000 3175 
z
M 5025 2500 
L 3850 2500 
L 3850 2850 
L 5025 2850 
L 5025 2500 
z
" transform="scale(0.015625)"/>
       <path id="SimHei-6c42" d="M 475 4025 
Q 875 4000 1325 4000 
L 2875 4000 
Q 2875 4725 2850 5125 
L 3400 5125 
Q 3375 4725 3375 4000 
L 5150 4000 
Q 5500 4000 5925 4025 
L 5925 3575 
Q 5475 3600 5150 3600 
L 3375 3600 
Q 3400 3200 3612 2750 
Q 3825 2300 4050 2000 
Q 4600 2450 5075 3150 
Q 5250 2950 5575 2750 
Q 5275 2600 4250 1650 
Q 4575 1225 5037 850 
Q 5500 475 6050 325 
Q 5700 125 5550 -150 
Q 5000 150 4437 687 
Q 3875 1225 3375 2375 
L 3375 150 
Q 3400 -225 3137 -350 
Q 2875 -475 2375 -525 
Q 2325 -275 2150 25 
Q 2575 0 2737 37 
Q 2900 75 2875 300 
L 2875 1675 
Q 1875 900 1437 550 
Q 1000 200 725 -50 
Q 500 200 300 400 
Q 650 575 1200 937 
Q 1750 1300 2875 2250 
L 2875 3600 
L 1325 3600 
Q 875 3600 475 3575 
L 475 4025 
z
M 1225 3175 
Q 1775 2725 2250 2325 
L 1825 1950 
Q 1450 2375 825 2825 
L 1225 3175 
z
M 4500 5100 
Q 4900 4825 5300 4425 
Q 5125 4300 4925 4100 
Q 4650 4400 4125 4825 
Q 4275 4950 4500 5100 
z
" transform="scale(0.015625)"/>
       <path id="SimHei-91cf" d="M 5250 2500 
Q 5225 2200 5225 1700 
Q 5225 1225 5250 950 
L 3425 950 
L 3425 625 
L 4575 625 
Q 5000 625 5375 650 
L 5375 275 
Q 5025 300 4575 300 
L 3425 300 
L 3425 -75 
L 5125 -75 
Q 5525 -75 5925 -50 
L 5925 -425 
Q 5525 -400 5125 -400 
L 1275 -400 
Q 900 -400 475 -425 
L 475 -50 
Q 925 -50 1275 -75 
L 2975 -75 
L 2975 300 
L 1725 300 
Q 1350 300 975 250 
L 975 650 
Q 1375 625 1725 625 
L 2975 625 
L 2975 950 
L 1150 950 
Q 1175 1375 1175 1775 
Q 1175 2175 1150 2500 
L 5250 2500 
z
M 5200 4950 
Q 5175 4575 5175 4250 
Q 5175 3925 5200 3400 
L 1200 3400 
Q 1225 3925 1225 4250 
Q 1225 4575 1200 4950 
L 5200 4950 
z
M 4900 3100 
Q 5500 3125 6000 3150 
L 6000 2750 
Q 5500 2775 4925 2775 
L 1650 2775 
Q 975 2775 325 2750 
L 325 3150 
Q 975 3125 1650 3100 
L 4900 3100 
z
M 4725 3700 
L 4725 4025 
L 1675 4025 
L 1675 3700 
L 4725 3700 
z
M 4725 4350 
L 4725 4650 
L 1675 4650 
L 1675 4350 
L 4725 4350 
z
M 4750 1875 
L 4750 2175 
L 3425 2175 
L 3425 1875 
L 4750 1875 
z
M 2975 1875 
L 2975 2175 
L 1650 2175 
L 1650 1875 
L 2975 1875 
z
M 2975 1275 
L 2975 1550 
L 1650 1550 
L 1650 1275 
L 2975 1275 
z
M 4750 1275 
L 4750 1550 
L 3425 1550 
L 3425 1275 
L 4750 1275 
z
" transform="scale(0.015625)"/>
      </defs>
      <use xlink:href="#SimHei-9700"/>
      <use xlink:href="#SimHei-6c42" x="100"/>
      <use xlink:href="#SimHei-91cf" x="200"/>
     </g>
    </g>
   </g>
   <g id="line2d_15">
    <path d="M 115.363636 369.36 
L 132.755844 369.36 
L 135.654545 330.755745 
L 138.553247 369.36 
L 141.451948 362.925957 
L 150.148052 311.453617 
L 153.046753 369.36 
L 155.945455 362.925957 
L 158.844156 343.62383 
L 164.641558 343.62383 
L 167.54026 311.453617 
L 170.438961 324.321702 
L 179.135065 356.491915 
L 182.033766 305.019574 
L 184.932468 292.151489 
L 187.831169 362.925957 
L 190.72987 324.321702 
L 193.628571 369.36 
L 196.527273 356.491915 
L 199.425974 350.057872 
L 202.324675 362.925957 
L 205.223377 369.36 
L 211.020779 311.453617 
L 219.716883 350.057872 
L 222.615584 343.62383 
L 225.514286 356.491915 
L 237.109091 356.491915 
L 240.007792 305.019574 
L 242.906494 362.925957 
L 245.805195 343.62383 
L 248.703896 343.62383 
L 251.602597 279.283404 
L 254.501299 362.925957 
L 257.4 369.36 
L 260.298701 234.245106 
L 266.096104 350.057872 
L 283.488312 362.925957 
L 286.387013 369.36 
L 289.285714 369.36 
L 292.184416 350.057872 
L 295.083117 337.189787 
L 297.981818 343.62383 
L 300.880519 369.36 
L 306.677922 279.283404 
L 309.576623 279.283404 
L 312.475325 362.925957 
L 318.272727 337.189787 
L 321.171429 337.189787 
L 324.07013 317.88766 
L 326.968831 292.151489 
L 329.867532 311.453617 
L 332.766234 343.62383 
L 335.664935 362.925957 
L 338.563636 247.113191 
L 341.462338 305.019574 
L 344.361039 350.057872 
L 347.25974 343.62383 
L 350.158442 259.981277 
L 353.057143 298.585532 
L 355.955844 343.62383 
L 358.854545 362.925957 
L 361.753247 317.88766 
L 364.651948 337.189787 
L 367.550649 272.849362 
L 370.449351 362.925957 
L 373.348052 324.321702 
L 379.145455 350.057872 
L 382.044156 234.245106 
L 384.942857 66.96 
L 387.841558 311.453617 
L 390.74026 330.755745 
L 393.638961 272.849362 
L 396.537662 144.168511 
L 399.436364 253.547234 
L 402.335065 343.62383 
L 405.233766 208.508936 
L 408.132468 157.036596 
L 411.031169 356.491915 
L 413.92987 247.113191 
L 416.828571 343.62383 
L 419.727273 350.057872 
L 422.625974 163.470638 
L 425.524675 350.057872 
L 434.220779 272.849362 
L 437.119481 356.491915 
L 440.018182 350.057872 
L 442.916883 279.283404 
L 445.815584 311.453617 
L 448.714286 324.321702 
L 451.612987 311.453617 
L 454.511688 330.755745 
L 457.41039 266.415319 
L 460.309091 221.377021 
L 463.207792 292.151489 
L 466.106494 330.755745 
L 469.005195 324.321702 
L 471.903896 253.547234 
L 474.802597 227.811064 
L 477.701299 311.453617 
L 480.6 337.189787 
L 483.498701 221.377021 
L 486.397403 305.019574 
L 489.296104 362.925957 
L 492.194805 298.585532 
L 495.093506 317.88766 
L 497.992208 279.283404 
L 500.890909 369.36 
L 503.78961 253.547234 
L 506.688312 221.377021 
L 509.587013 350.057872 
L 512.485714 272.849362 
L 515.384416 298.585532 
L 518.283117 337.189787 
L 521.181818 350.057872 
L 524.080519 337.189787 
L 526.979221 330.755745 
L 529.877922 330.755745 
L 532.776623 317.88766 
L 535.675325 279.283404 
L 538.574026 253.547234 
L 541.472727 337.189787 
L 544.371429 350.057872 
L 547.27013 305.019574 
L 550.168831 343.62383 
L 553.067532 317.88766 
L 555.966234 298.585532 
L 558.864935 234.245106 
L 561.763636 356.491915 
L 564.662338 356.491915 
L 567.561039 305.019574 
L 570.45974 356.491915 
L 582.054545 350.057872 
L 584.953247 305.019574 
L 587.851948 343.62383 
L 590.750649 369.36 
L 593.649351 337.189787 
L 596.548052 350.057872 
L 599.446753 305.019574 
L 602.345455 317.88766 
L 605.244156 337.189787 
L 611.041558 343.62383 
L 613.94026 337.189787 
L 616.838961 324.321702 
L 619.737662 317.88766 
L 622.636364 350.057872 
L 622.636364 350.057872 
" clip-path="url(#p3edd0ea5c5)" style="fill: none; stroke: #0000ff; stroke-width: 1.5; stroke-linecap: square"/>
    <defs>
     <path id="me9b73abbe8" d="M 0 3 
C 0.795609 3 1.55874 2.683901 2.12132 2.12132 
C 2.683901 1.55874 3 0.795609 3 0 
C 3 -0.795609 2.683901 -1.55874 2.12132 -2.12132 
C 1.55874 -2.683901 0.795609 -3 0 -3 
C -0.795609 -3 -1.55874 -2.683901 -2.12132 -2.12132 
C -2.683901 -1.55874 -3 -0.795609 -3 0 
C -3 0.795609 -2.683901 1.55874 -2.12132 2.12132 
C -1.55874 2.683901 -0.795609 3 0 3 
z
" style="stroke: #0000ff"/>
    </defs>
    <g clip-path="url(#p3edd0ea5c5)">
     <use xlink:href="#me9b73abbe8" x="115.363636" y="369.36" style="fill: #0000ff; stroke: #0000ff"/>
     <use xlink:href="#me9b73abbe8" x="132.755844" y="369.36" style="fill: #0000ff; stroke: #0000ff"/>
     <use xlink:href="#me9b73abbe8" x="135.654545" y="330.755745" style="fill: #0000ff; stroke: #0000ff"/>
     <use xlink:href="#me9b73abbe8" x="138.553247" y="369.36" style="fill: #0000ff; stroke: #0000ff"/>
     <use xlink:href="#me9b73abbe8" x="141.451948" y="362.925957" style="fill: #0000ff; stroke: #0000ff"/>
     <use xlink:href="#me9b73abbe8" x="150.148052" y="311.453617" style="fill: #0000ff; stroke: #0000ff"/>
     <use xlink:href="#me9b73abbe8" x="153.046753" y="369.36" style="fill: #0000ff; stroke: #0000ff"/>
     <use xlink:href="#me9b73abbe8" x="155.945455" y="362.925957" style="fill: #0000ff; stroke: #0000ff"/>
     <use xlink:href="#me9b73abbe8" x="158.844156" y="343.62383" style="fill: #0000ff; stroke: #0000ff"/>
     <use xlink:href="#me9b73abbe8" x="164.641558" y="343.62383" style="fill: #0000ff; stroke: #0000ff"/>
     <use xlink:href="#me9b73abbe8" x="167.54026" y="311.453617" style="fill: #0000ff; stroke: #0000ff"/>
     <use xlink:href="#me9b73abbe8" x="170.438961" y="324.321702" style="fill: #0000ff; stroke: #0000ff"/>
     <use xlink:href="#me9b73abbe8" x="179.135065" y="356.491915" style="fill: #0000ff; stroke: #0000ff"/>
     <use xlink:href="#me9b73abbe8" x="182.033766" y="305.019574" style="fill: #0000ff; stroke: #0000ff"/>
     <use xlink:href="#me9b73abbe8" x="184.932468" y="292.151489" style="fill: #0000ff; stroke: #0000ff"/>
     <use xlink:href="#me9b73abbe8" x="187.831169" y="362.925957" style="fill: #0000ff; stroke: #0000ff"/>
     <use xlink:href="#me9b73abbe8" x="190.72987" y="324.321702" style="fill: #0000ff; stroke: #0000ff"/>
     <use xlink:href="#me9b73abbe8" x="193.628571" y="369.36" style="fill: #0000ff; stroke: #0000ff"/>
     <use xlink:href="#me9b73abbe8" x="196.527273" y="356.491915" style="fill: #0000ff; stroke: #0000ff"/>
     <use xlink:href="#me9b73abbe8" x="199.425974" y="350.057872" style="fill: #0000ff; stroke: #0000ff"/>
     <use xlink:href="#me9b73abbe8" x="202.324675" y="362.925957" style="fill: #0000ff; stroke: #0000ff"/>
     <use xlink:href="#me9b73abbe8" x="205.223377" y="369.36" style="fill: #0000ff; stroke: #0000ff"/>
     <use xlink:href="#me9b73abbe8" x="211.020779" y="311.453617" style="fill: #0000ff; stroke: #0000ff"/>
     <use xlink:href="#me9b73abbe8" x="219.716883" y="350.057872" style="fill: #0000ff; stroke: #0000ff"/>
     <use xlink:href="#me9b73abbe8" x="222.615584" y="343.62383" style="fill: #0000ff; stroke: #0000ff"/>
     <use xlink:href="#me9b73abbe8" x="225.514286" y="356.491915" style="fill: #0000ff; stroke: #0000ff"/>
     <use xlink:href="#me9b73abbe8" x="228.412987" y="356.491915" style="fill: #0000ff; stroke: #0000ff"/>
     <use xlink:href="#me9b73abbe8" x="231.311688" y="356.491915" style="fill: #0000ff; stroke: #0000ff"/>
     <use xlink:href="#me9b73abbe8" x="237.109091" y="356.491915" style="fill: #0000ff; stroke: #0000ff"/>
     <use xlink:href="#me9b73abbe8" x="240.007792" y="305.019574" style="fill: #0000ff; stroke: #0000ff"/>
     <use xlink:href="#me9b73abbe8" x="242.906494" y="362.925957" style="fill: #0000ff; stroke: #0000ff"/>
     <use xlink:href="#me9b73abbe8" x="245.805195" y="343.62383" style="fill: #0000ff; stroke: #0000ff"/>
     <use xlink:href="#me9b73abbe8" x="248.703896" y="343.62383" style="fill: #0000ff; stroke: #0000ff"/>
     <use xlink:href="#me9b73abbe8" x="251.602597" y="279.283404" style="fill: #0000ff; stroke: #0000ff"/>
     <use xlink:href="#me9b73abbe8" x="254.501299" y="362.925957" style="fill: #0000ff; stroke: #0000ff"/>
     <use xlink:href="#me9b73abbe8" x="257.4" y="369.36" style="fill: #0000ff; stroke: #0000ff"/>
     <use xlink:href="#me9b73abbe8" x="260.298701" y="234.245106" style="fill: #0000ff; stroke: #0000ff"/>
     <use xlink:href="#me9b73abbe8" x="263.197403" y="292.151489" style="fill: #0000ff; stroke: #0000ff"/>
     <use xlink:href="#me9b73abbe8" x="266.096104" y="350.057872" style="fill: #0000ff; stroke: #0000ff"/>
     <use xlink:href="#me9b73abbe8" x="283.488312" y="362.925957" style="fill: #0000ff; stroke: #0000ff"/>
     <use xlink:href="#me9b73abbe8" x="286.387013" y="369.36" style="fill: #0000ff; stroke: #0000ff"/>
     <use xlink:href="#me9b73abbe8" x="289.285714" y="369.36" style="fill: #0000ff; stroke: #0000ff"/>
     <use xlink:href="#me9b73abbe8" x="292.184416" y="350.057872" style="fill: #0000ff; stroke: #0000ff"/>
     <use xlink:href="#me9b73abbe8" x="295.083117" y="337.189787" style="fill: #0000ff; stroke: #0000ff"/>
     <use xlink:href="#me9b73abbe8" x="297.981818" y="343.62383" style="fill: #0000ff; stroke: #0000ff"/>
     <use xlink:href="#me9b73abbe8" x="300.880519" y="369.36" style="fill: #0000ff; stroke: #0000ff"/>
     <use xlink:href="#me9b73abbe8" x="306.677922" y="279.283404" style="fill: #0000ff; stroke: #0000ff"/>
     <use xlink:href="#me9b73abbe8" x="309.576623" y="279.283404" style="fill: #0000ff; stroke: #0000ff"/>
     <use xlink:href="#me9b73abbe8" x="312.475325" y="362.925957" style="fill: #0000ff; stroke: #0000ff"/>
     <use xlink:href="#me9b73abbe8" x="318.272727" y="337.189787" style="fill: #0000ff; stroke: #0000ff"/>
     <use xlink:href="#me9b73abbe8" x="321.171429" y="337.189787" style="fill: #0000ff; stroke: #0000ff"/>
     <use xlink:href="#me9b73abbe8" x="324.07013" y="317.88766" style="fill: #0000ff; stroke: #0000ff"/>
     <use xlink:href="#me9b73abbe8" x="326.968831" y="292.151489" style="fill: #0000ff; stroke: #0000ff"/>
     <use xlink:href="#me9b73abbe8" x="329.867532" y="311.453617" style="fill: #0000ff; stroke: #0000ff"/>
     <use xlink:href="#me9b73abbe8" x="332.766234" y="343.62383" style="fill: #0000ff; stroke: #0000ff"/>
     <use xlink:href="#me9b73abbe8" x="335.664935" y="362.925957" style="fill: #0000ff; stroke: #0000ff"/>
     <use xlink:href="#me9b73abbe8" x="338.563636" y="247.113191" style="fill: #0000ff; stroke: #0000ff"/>
     <use xlink:href="#me9b73abbe8" x="341.462338" y="305.019574" style="fill: #0000ff; stroke: #0000ff"/>
     <use xlink:href="#me9b73abbe8" x="344.361039" y="350.057872" style="fill: #0000ff; stroke: #0000ff"/>
     <use xlink:href="#me9b73abbe8" x="347.25974" y="343.62383" style="fill: #0000ff; stroke: #0000ff"/>
     <use xlink:href="#me9b73abbe8" x="350.158442" y="259.981277" style="fill: #0000ff; stroke: #0000ff"/>
     <use xlink:href="#me9b73abbe8" x="353.057143" y="298.585532" style="fill: #0000ff; stroke: #0000ff"/>
     <use xlink:href="#me9b73abbe8" x="355.955844" y="343.62383" style="fill: #0000ff; stroke: #0000ff"/>
     <use xlink:href="#me9b73abbe8" x="358.854545" y="362.925957" style="fill: #0000ff; stroke: #0000ff"/>
     <use xlink:href="#me9b73abbe8" x="361.753247" y="317.88766" style="fill: #0000ff; stroke: #0000ff"/>
     <use xlink:href="#me9b73abbe8" x="364.651948" y="337.189787" style="fill: #0000ff; stroke: #0000ff"/>
     <use xlink:href="#me9b73abbe8" x="367.550649" y="272.849362" style="fill: #0000ff; stroke: #0000ff"/>
     <use xlink:href="#me9b73abbe8" x="370.449351" y="362.925957" style="fill: #0000ff; stroke: #0000ff"/>
     <use xlink:href="#me9b73abbe8" x="373.348052" y="324.321702" style="fill: #0000ff; stroke: #0000ff"/>
     <use xlink:href="#me9b73abbe8" x="379.145455" y="350.057872" style="fill: #0000ff; stroke: #0000ff"/>
     <use xlink:href="#me9b73abbe8" x="382.044156" y="234.245106" style="fill: #0000ff; stroke: #0000ff"/>
     <use xlink:href="#me9b73abbe8" x="384.942857" y="66.96" style="fill: #0000ff; stroke: #0000ff"/>
     <use xlink:href="#me9b73abbe8" x="387.841558" y="311.453617" style="fill: #0000ff; stroke: #0000ff"/>
     <use xlink:href="#me9b73abbe8" x="390.74026" y="330.755745" style="fill: #0000ff; stroke: #0000ff"/>
     <use xlink:href="#me9b73abbe8" x="393.638961" y="272.849362" style="fill: #0000ff; stroke: #0000ff"/>
     <use xlink:href="#me9b73abbe8" x="396.537662" y="144.168511" style="fill: #0000ff; stroke: #0000ff"/>
     <use xlink:href="#me9b73abbe8" x="399.436364" y="253.547234" style="fill: #0000ff; stroke: #0000ff"/>
     <use xlink:href="#me9b73abbe8" x="402.335065" y="343.62383" style="fill: #0000ff; stroke: #0000ff"/>
     <use xlink:href="#me9b73abbe8" x="405.233766" y="208.508936" style="fill: #0000ff; stroke: #0000ff"/>
     <use xlink:href="#me9b73abbe8" x="408.132468" y="157.036596" style="fill: #0000ff; stroke: #0000ff"/>
     <use xlink:href="#me9b73abbe8" x="411.031169" y="356.491915" style="fill: #0000ff; stroke: #0000ff"/>
     <use xlink:href="#me9b73abbe8" x="413.92987" y="247.113191" style="fill: #0000ff; stroke: #0000ff"/>
     <use xlink:href="#me9b73abbe8" x="416.828571" y="343.62383" style="fill: #0000ff; stroke: #0000ff"/>
     <use xlink:href="#me9b73abbe8" x="419.727273" y="350.057872" style="fill: #0000ff; stroke: #0000ff"/>
     <use xlink:href="#me9b73abbe8" x="422.625974" y="163.470638" style="fill: #0000ff; stroke: #0000ff"/>
     <use xlink:href="#me9b73abbe8" x="425.524675" y="350.057872" style="fill: #0000ff; stroke: #0000ff"/>
     <use xlink:href="#me9b73abbe8" x="434.220779" y="272.849362" style="fill: #0000ff; stroke: #0000ff"/>
     <use xlink:href="#me9b73abbe8" x="437.119481" y="356.491915" style="fill: #0000ff; stroke: #0000ff"/>
     <use xlink:href="#me9b73abbe8" x="440.018182" y="350.057872" style="fill: #0000ff; stroke: #0000ff"/>
     <use xlink:href="#me9b73abbe8" x="442.916883" y="279.283404" style="fill: #0000ff; stroke: #0000ff"/>
     <use xlink:href="#me9b73abbe8" x="445.815584" y="311.453617" style="fill: #0000ff; stroke: #0000ff"/>
     <use xlink:href="#me9b73abbe8" x="448.714286" y="324.321702" style="fill: #0000ff; stroke: #0000ff"/>
     <use xlink:href="#me9b73abbe8" x="451.612987" y="311.453617" style="fill: #0000ff; stroke: #0000ff"/>
     <use xlink:href="#me9b73abbe8" x="454.511688" y="330.755745" style="fill: #0000ff; stroke: #0000ff"/>
     <use xlink:href="#me9b73abbe8" x="457.41039" y="266.415319" style="fill: #0000ff; stroke: #0000ff"/>
     <use xlink:href="#me9b73abbe8" x="460.309091" y="221.377021" style="fill: #0000ff; stroke: #0000ff"/>
     <use xlink:href="#me9b73abbe8" x="463.207792" y="292.151489" style="fill: #0000ff; stroke: #0000ff"/>
     <use xlink:href="#me9b73abbe8" x="466.106494" y="330.755745" style="fill: #0000ff; stroke: #0000ff"/>
     <use xlink:href="#me9b73abbe8" x="469.005195" y="324.321702" style="fill: #0000ff; stroke: #0000ff"/>
     <use xlink:href="#me9b73abbe8" x="471.903896" y="253.547234" style="fill: #0000ff; stroke: #0000ff"/>
     <use xlink:href="#me9b73abbe8" x="474.802597" y="227.811064" style="fill: #0000ff; stroke: #0000ff"/>
     <use xlink:href="#me9b73abbe8" x="477.701299" y="311.453617" style="fill: #0000ff; stroke: #0000ff"/>
     <use xlink:href="#me9b73abbe8" x="480.6" y="337.189787" style="fill: #0000ff; stroke: #0000ff"/>
     <use xlink:href="#me9b73abbe8" x="483.498701" y="221.377021" style="fill: #0000ff; stroke: #0000ff"/>
     <use xlink:href="#me9b73abbe8" x="486.397403" y="305.019574" style="fill: #0000ff; stroke: #0000ff"/>
     <use xlink:href="#me9b73abbe8" x="489.296104" y="362.925957" style="fill: #0000ff; stroke: #0000ff"/>
     <use xlink:href="#me9b73abbe8" x="492.194805" y="298.585532" style="fill: #0000ff; stroke: #0000ff"/>
     <use xlink:href="#me9b73abbe8" x="495.093506" y="317.88766" style="fill: #0000ff; stroke: #0000ff"/>
     <use xlink:href="#me9b73abbe8" x="497.992208" y="279.283404" style="fill: #0000ff; stroke: #0000ff"/>
     <use xlink:href="#me9b73abbe8" x="500.890909" y="369.36" style="fill: #0000ff; stroke: #0000ff"/>
     <use xlink:href="#me9b73abbe8" x="503.78961" y="253.547234" style="fill: #0000ff; stroke: #0000ff"/>
     <use xlink:href="#me9b73abbe8" x="506.688312" y="221.377021" style="fill: #0000ff; stroke: #0000ff"/>
     <use xlink:href="#me9b73abbe8" x="509.587013" y="350.057872" style="fill: #0000ff; stroke: #0000ff"/>
     <use xlink:href="#me9b73abbe8" x="512.485714" y="272.849362" style="fill: #0000ff; stroke: #0000ff"/>
     <use xlink:href="#me9b73abbe8" x="515.384416" y="298.585532" style="fill: #0000ff; stroke: #0000ff"/>
     <use xlink:href="#me9b73abbe8" x="518.283117" y="337.189787" style="fill: #0000ff; stroke: #0000ff"/>
     <use xlink:href="#me9b73abbe8" x="521.181818" y="350.057872" style="fill: #0000ff; stroke: #0000ff"/>
     <use xlink:href="#me9b73abbe8" x="524.080519" y="337.189787" style="fill: #0000ff; stroke: #0000ff"/>
     <use xlink:href="#me9b73abbe8" x="526.979221" y="330.755745" style="fill: #0000ff; stroke: #0000ff"/>
     <use xlink:href="#me9b73abbe8" x="529.877922" y="330.755745" style="fill: #0000ff; stroke: #0000ff"/>
     <use xlink:href="#me9b73abbe8" x="532.776623" y="317.88766" style="fill: #0000ff; stroke: #0000ff"/>
     <use xlink:href="#me9b73abbe8" x="535.675325" y="279.283404" style="fill: #0000ff; stroke: #0000ff"/>
     <use xlink:href="#me9b73abbe8" x="538.574026" y="253.547234" style="fill: #0000ff; stroke: #0000ff"/>
     <use xlink:href="#me9b73abbe8" x="541.472727" y="337.189787" style="fill: #0000ff; stroke: #0000ff"/>
     <use xlink:href="#me9b73abbe8" x="544.371429" y="350.057872" style="fill: #0000ff; stroke: #0000ff"/>
     <use xlink:href="#me9b73abbe8" x="547.27013" y="305.019574" style="fill: #0000ff; stroke: #0000ff"/>
     <use xlink:href="#me9b73abbe8" x="550.168831" y="343.62383" style="fill: #0000ff; stroke: #0000ff"/>
     <use xlink:href="#me9b73abbe8" x="553.067532" y="317.88766" style="fill: #0000ff; stroke: #0000ff"/>
     <use xlink:href="#me9b73abbe8" x="555.966234" y="298.585532" style="fill: #0000ff; stroke: #0000ff"/>
     <use xlink:href="#me9b73abbe8" x="558.864935" y="234.245106" style="fill: #0000ff; stroke: #0000ff"/>
     <use xlink:href="#me9b73abbe8" x="561.763636" y="356.491915" style="fill: #0000ff; stroke: #0000ff"/>
     <use xlink:href="#me9b73abbe8" x="564.662338" y="356.491915" style="fill: #0000ff; stroke: #0000ff"/>
     <use xlink:href="#me9b73abbe8" x="567.561039" y="305.019574" style="fill: #0000ff; stroke: #0000ff"/>
     <use xlink:href="#me9b73abbe8" x="570.45974" y="356.491915" style="fill: #0000ff; stroke: #0000ff"/>
     <use xlink:href="#me9b73abbe8" x="582.054545" y="350.057872" style="fill: #0000ff; stroke: #0000ff"/>
     <use xlink:href="#me9b73abbe8" x="584.953247" y="305.019574" style="fill: #0000ff; stroke: #0000ff"/>
     <use xlink:href="#me9b73abbe8" x="587.851948" y="343.62383" style="fill: #0000ff; stroke: #0000ff"/>
     <use xlink:href="#me9b73abbe8" x="590.750649" y="369.36" style="fill: #0000ff; stroke: #0000ff"/>
     <use xlink:href="#me9b73abbe8" x="593.649351" y="337.189787" style="fill: #0000ff; stroke: #0000ff"/>
     <use xlink:href="#me9b73abbe8" x="596.548052" y="350.057872" style="fill: #0000ff; stroke: #0000ff"/>
     <use xlink:href="#me9b73abbe8" x="599.446753" y="305.019574" style="fill: #0000ff; stroke: #0000ff"/>
     <use xlink:href="#me9b73abbe8" x="602.345455" y="317.88766" style="fill: #0000ff; stroke: #0000ff"/>
     <use xlink:href="#me9b73abbe8" x="605.244156" y="337.189787" style="fill: #0000ff; stroke: #0000ff"/>
     <use xlink:href="#me9b73abbe8" x="611.041558" y="343.62383" style="fill: #0000ff; stroke: #0000ff"/>
     <use xlink:href="#me9b73abbe8" x="613.94026" y="337.189787" style="fill: #0000ff; stroke: #0000ff"/>
     <use xlink:href="#me9b73abbe8" x="616.838961" y="324.321702" style="fill: #0000ff; stroke: #0000ff"/>
     <use xlink:href="#me9b73abbe8" x="619.737662" y="317.88766" style="fill: #0000ff; stroke: #0000ff"/>
     <use xlink:href="#me9b73abbe8" x="622.636364" y="350.057872" style="fill: #0000ff; stroke: #0000ff"/>
    </g>
   </g>
   <g id="patch_3">
    <path d="M 90 384.48 
L 90 51.84 
" style="fill: none; stroke: #000000; stroke-width: 0.8; stroke-linejoin: miter; stroke-linecap: square"/>
   </g>
   <g id="patch_4">
    <path d="M 648 384.48 
L 648 51.84 
" style="fill: none; stroke: #000000; stroke-width: 0.8; stroke-linejoin: miter; stroke-linecap: square"/>
   </g>
   <g id="patch_5">
    <path d="M 90 384.48 
L 648 384.48 
" style="fill: none; stroke: #000000; stroke-width: 0.8; stroke-linejoin: miter; stroke-linecap: square"/>
   </g>
   <g id="patch_6">
    <path d="M 90 51.84 
L 648 51.84 
" style="fill: none; stroke: #000000; stroke-width: 0.8; stroke-linejoin: miter; stroke-linecap: square"/>
   </g>
  </g>
  <g id="axes_2">
   <g id="matplotlib.axis_3">
    <g id="ytick_7">
     <g id="line2d_16">
      <defs>
       <path id="m2f519bc7ef" d="M 0 0 
L 3.5 0 
" style="stroke: #000000; stroke-width: 0.8"/>
      </defs>
      <g>
       <use xlink:href="#m2f519bc7ef" x="648" y="375.060379" style="stroke: #000000; stroke-width: 0.8"/>
      </g>
     </g>
     <g id="text_17">
      <!-- 0 -->
      <g style="fill: #008000" transform="translate(655 378.497879) scale(0.1 -0.1)">
       <use xlink:href="#SimHei-30"/>
      </g>
     </g>
    </g>
    <g id="ytick_8">
     <g id="line2d_17">
      <g>
       <use xlink:href="#m2f519bc7ef" x="648" y="330.10143" style="stroke: #000000; stroke-width: 0.8"/>
      </g>
     </g>
     <g id="text_18">
      <!-- 10000 -->
      <g style="fill: #008000" transform="translate(655 333.53893) scale(0.1 -0.1)">
       <use xlink:href="#SimHei-31"/>
       <use xlink:href="#SimHei-30" x="50"/>
       <use xlink:href="#SimHei-30" x="100"/>
       <use xlink:href="#SimHei-30" x="150"/>
       <use xlink:href="#SimHei-30" x="200"/>
      </g>
     </g>
    </g>
    <g id="ytick_9">
     <g id="line2d_18">
      <g>
       <use xlink:href="#m2f519bc7ef" x="648" y="285.14248" style="stroke: #000000; stroke-width: 0.8"/>
      </g>
     </g>
     <g id="text_19">
      <!-- 20000 -->
      <g style="fill: #008000" transform="translate(655 288.57998) scale(0.1 -0.1)">
       <use xlink:href="#SimHei-32"/>
       <use xlink:href="#SimHei-30" x="50"/>
       <use xlink:href="#SimHei-30" x="100"/>
       <use xlink:href="#SimHei-30" x="150"/>
       <use xlink:href="#SimHei-30" x="200"/>
      </g>
     </g>
    </g>
    <g id="ytick_10">
     <g id="line2d_19">
      <g>
       <use xlink:href="#m2f519bc7ef" x="648" y="240.183531" style="stroke: #000000; stroke-width: 0.8"/>
      </g>
     </g>
     <g id="text_20">
      <!-- 30000 -->
      <g style="fill: #008000" transform="translate(655 243.621031) scale(0.1 -0.1)">
       <use xlink:href="#SimHei-33"/>
       <use xlink:href="#SimHei-30" x="50"/>
       <use xlink:href="#SimHei-30" x="100"/>
       <use xlink:href="#SimHei-30" x="150"/>
       <use xlink:href="#SimHei-30" x="200"/>
      </g>
     </g>
    </g>
    <g id="ytick_11">
     <g id="line2d_20">
      <g>
       <use xlink:href="#m2f519bc7ef" x="648" y="195.224581" style="stroke: #000000; stroke-width: 0.8"/>
      </g>
     </g>
     <g id="text_21">
      <!-- 40000 -->
      <g style="fill: #008000" transform="translate(655 198.662081) scale(0.1 -0.1)">
       <use xlink:href="#SimHei-34"/>
       <use xlink:href="#SimHei-30" x="50"/>
       <use xlink:href="#SimHei-30" x="100"/>
       <use xlink:href="#SimHei-30" x="150"/>
       <use xlink:href="#SimHei-30" x="200"/>
      </g>
     </g>
    </g>
    <g id="ytick_12">
     <g id="line2d_21">
      <g>
       <use xlink:href="#m2f519bc7ef" x="648" y="150.265631" style="stroke: #000000; stroke-width: 0.8"/>
      </g>
     </g>
     <g id="text_22">
      <!-- 50000 -->
      <g style="fill: #008000" transform="translate(655 153.703131) scale(0.1 -0.1)">
       <use xlink:href="#SimHei-35"/>
       <use xlink:href="#SimHei-30" x="50"/>
       <use xlink:href="#SimHei-30" x="100"/>
       <use xlink:href="#SimHei-30" x="150"/>
       <use xlink:href="#SimHei-30" x="200"/>
      </g>
     </g>
    </g>
    <g id="ytick_13">
     <g id="line2d_22">
      <g>
       <use xlink:href="#m2f519bc7ef" x="648" y="105.306682" style="stroke: #000000; stroke-width: 0.8"/>
      </g>
     </g>
     <g id="text_23">
      <!-- 60000 -->
      <g style="fill: #008000" transform="translate(655 108.744182) scale(0.1 -0.1)">
       <defs>
        <path id="SimHei-36" d="M 250 1612 
Q 275 1975 387 2225 
Q 500 2475 725 2850 
L 1750 4450 
L 2325 4450 
L 1275 2800 
Q 1950 2975 2350 2750 
Q 2750 2525 2887 2237 
Q 3025 1950 3037 1612 
Q 3050 1275 2937 950 
Q 2825 625 2537 362 
Q 2250 100 1737 75 
Q 1225 50 862 262 
Q 500 475 362 862 
Q 225 1250 250 1612 
z
M 1025 787 
Q 1250 550 1625 525 
Q 2000 500 2250 775 
Q 2500 1050 2500 1575 
Q 2500 2100 2187 2300 
Q 1875 2500 1487 2450 
Q 1100 2400 925 2075 
Q 750 1750 775 1387 
Q 800 1025 1025 787 
z
" transform="scale(0.015625)"/>
       </defs>
       <use xlink:href="#SimHei-36"/>
       <use xlink:href="#SimHei-30" x="50"/>
       <use xlink:href="#SimHei-30" x="100"/>
       <use xlink:href="#SimHei-30" x="150"/>
       <use xlink:href="#SimHei-30" x="200"/>
      </g>
     </g>
    </g>
    <g id="ytick_14">
     <g id="line2d_23">
      <g>
       <use xlink:href="#m2f519bc7ef" x="648" y="60.347732" style="stroke: #000000; stroke-width: 0.8"/>
      </g>
     </g>
     <g id="text_24">
      <!-- 70000 -->
      <g style="fill: #008000" transform="translate(655 63.785232) scale(0.1 -0.1)">
       <use xlink:href="#SimHei-37"/>
       <use xlink:href="#SimHei-30" x="50"/>
       <use xlink:href="#SimHei-30" x="100"/>
       <use xlink:href="#SimHei-30" x="150"/>
       <use xlink:href="#SimHei-30" x="200"/>
      </g>
     </g>
    </g>
    <g id="text_25">
     <!-- 收益 -->
     <g style="fill: #008000" transform="translate(691.929688 228.16) rotate(-90) scale(0.1 -0.1)">
      <defs>
       <path id="SimHei-6536" d="M 4250 5050 
Q 4125 4850 3750 4050 
L 5150 4050 
Q 5675 4050 6125 4075 
L 6125 3600 
Q 5675 3625 5300 3625 
Q 5225 2625 5025 1975 
Q 4825 1325 4575 900 
Q 4900 500 5287 275 
Q 5675 50 6200 -75 
Q 5900 -275 5800 -550 
Q 5300 -350 4950 -100 
Q 4600 150 4275 525 
Q 3800 0 2775 -625 
Q 2650 -425 2300 -225 
Q 3275 150 3950 925 
Q 3775 1325 3612 1787 
Q 3450 2250 3250 3000 
Q 2975 2450 2825 2275 
Q 2650 2400 2425 2525 
Q 2775 3025 3137 3837 
Q 3500 4650 3625 5250 
Q 3925 5125 4250 5050 
z
M 975 4275 
Q 925 3950 925 3450 
L 925 1575 
L 1775 1725 
L 1775 4425 
Q 1775 4775 1750 5150 
L 2250 5150 
Q 2225 4850 2225 4450 
L 2225 300 
Q 2225 -50 2250 -550 
L 1750 -550 
Q 1775 -25 1775 350 
L 1775 1350 
Q 625 1050 500 925 
Q 375 1125 225 1350 
Q 450 1475 450 1800 
L 450 3575 
Q 450 3925 425 4275 
L 975 4275 
z
M 3725 3150 
Q 3800 2700 3962 2212 
Q 4125 1725 4300 1375 
Q 4725 2150 4825 3625 
L 3575 3625 
Q 3400 3275 3300 3100 
L 3725 3150 
z
" transform="scale(0.015625)"/>
       <path id="SimHei-76ca" d="M 2825 2925 
Q 2425 2775 2012 2487 
Q 1600 2200 1225 1975 
L 5275 1975 
Q 5250 1575 5250 1000 
L 5250 -50 
Q 5800 -50 6175 -25 
L 6175 -525 
Q 5725 -500 5250 -500 
L 1325 -500 
Q 700 -500 250 -525 
L 250 -25 
Q 600 -50 1175 -50 
L 1175 1050 
Q 1175 1575 1150 1925 
Q 1000 1800 800 1700 
Q 650 1950 425 2125 
Q 800 2275 1312 2600 
Q 1825 2925 2325 3400 
Q 2550 3150 2825 2925 
z
M 4725 5050 
Q 4575 4900 4462 4637 
Q 4350 4375 4175 4075 
L 4625 4075 
Q 5350 4075 5900 4100 
L 5900 3625 
Q 5350 3650 4625 3650 
L 1975 3650 
Q 1350 3650 550 3625 
L 550 4100 
Q 1175 4075 1975 4075 
L 3675 4075 
Q 3775 4300 3887 4625 
Q 4000 4950 4125 5250 
L 4725 5050 
z
M 3600 -50 
L 3600 1575 
L 2800 1575 
L 2800 -50 
L 3600 -50 
z
M 4800 -50 
L 4800 1575 
L 4025 1575 
L 4025 -50 
L 4800 -50 
z
M 2375 -50 
L 2375 1575 
L 1625 1575 
L 1625 -50 
L 2375 -50 
z
M 3900 3350 
Q 4375 3150 4900 2925 
Q 5425 2700 5900 2500 
Q 5700 2300 5550 2000 
Q 5025 2300 4512 2537 
Q 4000 2775 3625 2900 
Q 3750 3075 3900 3350 
z
M 2150 5250 
Q 2375 4925 2650 4350 
Q 2425 4275 2150 4125 
Q 1950 4650 1675 5025 
Q 1875 5100 2150 5250 
z
" transform="scale(0.015625)"/>
      </defs>
      <use xlink:href="#SimHei-6536"/>
      <use xlink:href="#SimHei-76ca" x="100"/>
     </g>
    </g>
   </g>
   <g id="line2d_24">
    <path d="M 115.363636 369.349289 
L 132.755844 369.349289 
L 135.654545 335.082746 
L 138.553247 369.349289 
L 141.451948 363.638198 
L 150.148052 312.873636 
L 153.046753 369.349289 
L 155.945455 361.607863 
L 158.844156 346.504927 
L 164.641558 346.504927 
L 167.54026 309.828132 
L 170.438961 322.265481 
L 179.135065 357.927108 
L 182.033766 304.117042 
L 184.932468 300.816204 
L 187.831169 361.607863 
L 190.72987 322.265481 
L 193.628571 369.349289 
L 196.527273 355.896772 
L 199.425974 352.216018 
L 202.324675 363.638198 
L 205.223377 369.349289 
L 211.020779 313.888804 
L 219.716883 351.20085 
L 222.615584 341.429088 
L 225.514286 355.896772 
L 228.412987 357.927108 
L 231.311688 357.927108 
L 237.109091 354.881604 
L 240.007792 306.147377 
L 242.906494 363.638198 
L 245.805195 342.444256 
L 248.703896 342.444256 
L 251.602597 277.212008 
L 254.501299 361.749706 
L 257.4 369.349289 
L 260.298701 235.054476 
L 263.197403 288.541002 
L 266.096104 349.734925 
L 283.488312 361.749706 
L 286.387013 368.405043 
L 289.285714 368.334121 
L 292.184416 348.163123 
L 295.083117 334.57654 
L 297.981818 341.892358 
L 300.880519 368.334121 
L 306.677922 274.542105 
L 309.576623 271.818028 
L 312.475325 361.749706 
L 318.272727 333.459107 
L 321.171429 334.680924 
L 324.07013 312.951185 
L 326.968831 285.899977 
L 329.867532 309.740711 
L 332.766234 341.090106 
L 335.664935 362.520555 
L 338.563636 238.485696 
L 341.462338 300.083653 
L 344.361039 347.745443 
L 347.25974 341.226286 
L 350.158442 253.618479 
L 353.057143 293.755965 
L 355.955844 342.357002 
L 358.854545 361.464826 
L 361.753247 313.998338 
L 364.651948 334.423942 
L 367.550649 267.585246 
L 370.449351 361.486052 
L 373.348052 322.521874 
L 379.145455 348.396632 
L 382.044156 232.112513 
L 384.942857 66.96 
L 387.841558 310.323985 
L 390.74026 329.288693 
L 393.638961 277.541427 
L 396.537662 141.518473 
L 399.436364 254.441367 
L 402.335065 343.186362 
L 405.233766 207.434488 
L 408.132468 159.864431 
L 411.031169 356.424618 
L 413.92987 255.327925 
L 416.828571 344.307029 
L 419.727273 351.518861 
L 422.625974 177.481217 
L 425.524675 351.335287 
L 434.220779 277.28636 
L 437.119481 356.930487 
L 440.018182 350.870443 
L 442.916883 286.291054 
L 445.815584 314.196927 
L 448.714286 327.553161 
L 451.612987 315.526555 
L 454.511688 333.89024 
L 457.41039 275.162495 
L 460.309091 234.372033 
L 463.207792 298.718154 
L 466.106494 333.754202 
L 469.005195 328.164264 
L 471.903896 264.646193 
L 474.802597 241.891783 
L 477.701299 317.104168 
L 480.6 340.43121 
L 483.498701 236.053858 
L 486.397403 311.725353 
L 489.296104 363.511915 
L 492.194805 306.036146 
L 495.093506 322.370951 
L 497.992208 288.721562 
L 500.890909 369.337876 
L 503.78961 265.994005 
L 506.688312 237.635596 
L 509.587013 352.210022 
L 512.485714 283.500325 
L 515.384416 306.121231 
L 518.283117 340.774929 
L 521.181818 352.060597 
L 524.080519 340.599857 
L 526.979221 335.100922 
L 529.877922 334.616907 
L 532.776623 323.659361 
L 535.675325 289.384474 
L 538.574026 266.594746 
L 541.472727 340.81753 
L 544.371429 352.222308 
L 547.27013 312.300513 
L 550.168831 346.49708 
L 553.067532 323.772521 
L 555.966234 306.660339 
L 558.864935 249.698007 
L 561.763636 357.964427 
L 564.662338 357.969612 
L 567.561039 312.400576 
L 570.45974 357.974024 
L 582.054545 352.279167 
L 584.953247 312.407441 
L 587.851948 346.569611 
L 590.750649 369.36 
L 593.649351 340.887711 
L 596.548052 352.278516 
L 599.446753 312.41611 
L 602.345455 323.802602 
L 605.244156 340.879059 
L 611.041558 346.571152 
L 613.94026 340.875707 
L 616.838961 329.501363 
L 619.737662 323.774806 
L 622.636364 352.277252 
L 622.636364 352.277252 
" clip-path="url(#p3edd0ea5c5)" style="fill: none; stroke: #008000; stroke-width: 1.5; stroke-linecap: square"/>
    <defs>
     <path id="m8a68c15bfd" d="M 0 3 
C 0.795609 3 1.55874 2.683901 2.12132 2.12132 
C 2.683901 1.55874 3 0.795609 3 0 
C 3 -0.795609 2.683901 -1.55874 2.12132 -2.12132 
C 1.55874 -2.683901 0.795609 -3 0 -3 
C -0.795609 -3 -1.55874 -2.683901 -2.12132 -2.12132 
C -2.683901 -1.55874 -3 -0.795609 -3 0 
C -3 0.795609 -2.683901 1.55874 -2.12132 2.12132 
C -1.55874 2.683901 -0.795609 3 0 3 
z
" style="stroke: #008000"/>
    </defs>
    <g clip-path="url(#p3edd0ea5c5)">
     <use xlink:href="#m8a68c15bfd" x="115.363636" y="369.349289" style="fill: #008000; stroke: #008000"/>
     <use xlink:href="#m8a68c15bfd" x="132.755844" y="369.349289" style="fill: #008000; stroke: #008000"/>
     <use xlink:href="#m8a68c15bfd" x="135.654545" y="335.082746" style="fill: #008000; stroke: #008000"/>
     <use xlink:href="#m8a68c15bfd" x="138.553247" y="369.349289" style="fill: #008000; stroke: #008000"/>
     <use xlink:href="#m8a68c15bfd" x="141.451948" y="363.638198" style="fill: #008000; stroke: #008000"/>
     <use xlink:href="#m8a68c15bfd" x="150.148052" y="312.873636" style="fill: #008000; stroke: #008000"/>
     <use xlink:href="#m8a68c15bfd" x="153.046753" y="369.349289" style="fill: #008000; stroke: #008000"/>
     <use xlink:href="#m8a68c15bfd" x="155.945455" y="361.607863" style="fill: #008000; stroke: #008000"/>
     <use xlink:href="#m8a68c15bfd" x="158.844156" y="346.504927" style="fill: #008000; stroke: #008000"/>
     <use xlink:href="#m8a68c15bfd" x="164.641558" y="346.504927" style="fill: #008000; stroke: #008000"/>
     <use xlink:href="#m8a68c15bfd" x="167.54026" y="309.828132" style="fill: #008000; stroke: #008000"/>
     <use xlink:href="#m8a68c15bfd" x="170.438961" y="322.265481" style="fill: #008000; stroke: #008000"/>
     <use xlink:href="#m8a68c15bfd" x="179.135065" y="357.927108" style="fill: #008000; stroke: #008000"/>
     <use xlink:href="#m8a68c15bfd" x="182.033766" y="304.117042" style="fill: #008000; stroke: #008000"/>
     <use xlink:href="#m8a68c15bfd" x="184.932468" y="300.816204" style="fill: #008000; stroke: #008000"/>
     <use xlink:href="#m8a68c15bfd" x="187.831169" y="361.607863" style="fill: #008000; stroke: #008000"/>
     <use xlink:href="#m8a68c15bfd" x="190.72987" y="322.265481" style="fill: #008000; stroke: #008000"/>
     <use xlink:href="#m8a68c15bfd" x="193.628571" y="369.349289" style="fill: #008000; stroke: #008000"/>
     <use xlink:href="#m8a68c15bfd" x="196.527273" y="355.896772" style="fill: #008000; stroke: #008000"/>
     <use xlink:href="#m8a68c15bfd" x="199.425974" y="352.216018" style="fill: #008000; stroke: #008000"/>
     <use xlink:href="#m8a68c15bfd" x="202.324675" y="363.638198" style="fill: #008000; stroke: #008000"/>
     <use xlink:href="#m8a68c15bfd" x="205.223377" y="369.349289" style="fill: #008000; stroke: #008000"/>
     <use xlink:href="#m8a68c15bfd" x="211.020779" y="313.888804" style="fill: #008000; stroke: #008000"/>
     <use xlink:href="#m8a68c15bfd" x="219.716883" y="351.20085" style="fill: #008000; stroke: #008000"/>
     <use xlink:href="#m8a68c15bfd" x="222.615584" y="341.429088" style="fill: #008000; stroke: #008000"/>
     <use xlink:href="#m8a68c15bfd" x="225.514286" y="355.896772" style="fill: #008000; stroke: #008000"/>
     <use xlink:href="#m8a68c15bfd" x="228.412987" y="357.927108" style="fill: #008000; stroke: #008000"/>
     <use xlink:href="#m8a68c15bfd" x="231.311688" y="357.927108" style="fill: #008000; stroke: #008000"/>
     <use xlink:href="#m8a68c15bfd" x="237.109091" y="354.881604" style="fill: #008000; stroke: #008000"/>
     <use xlink:href="#m8a68c15bfd" x="240.007792" y="306.147377" style="fill: #008000; stroke: #008000"/>
     <use xlink:href="#m8a68c15bfd" x="242.906494" y="363.638198" style="fill: #008000; stroke: #008000"/>
     <use xlink:href="#m8a68c15bfd" x="245.805195" y="342.444256" style="fill: #008000; stroke: #008000"/>
     <use xlink:href="#m8a68c15bfd" x="248.703896" y="342.444256" style="fill: #008000; stroke: #008000"/>
     <use xlink:href="#m8a68c15bfd" x="251.602597" y="277.212008" style="fill: #008000; stroke: #008000"/>
     <use xlink:href="#m8a68c15bfd" x="254.501299" y="361.749706" style="fill: #008000; stroke: #008000"/>
     <use xlink:href="#m8a68c15bfd" x="257.4" y="369.349289" style="fill: #008000; stroke: #008000"/>
     <use xlink:href="#m8a68c15bfd" x="260.298701" y="235.054476" style="fill: #008000; stroke: #008000"/>
     <use xlink:href="#m8a68c15bfd" x="263.197403" y="288.541002" style="fill: #008000; stroke: #008000"/>
     <use xlink:href="#m8a68c15bfd" x="266.096104" y="349.734925" style="fill: #008000; stroke: #008000"/>
     <use xlink:href="#m8a68c15bfd" x="283.488312" y="361.749706" style="fill: #008000; stroke: #008000"/>
     <use xlink:href="#m8a68c15bfd" x="286.387013" y="368.405043" style="fill: #008000; stroke: #008000"/>
     <use xlink:href="#m8a68c15bfd" x="289.285714" y="368.334121" style="fill: #008000; stroke: #008000"/>
     <use xlink:href="#m8a68c15bfd" x="292.184416" y="348.163123" style="fill: #008000; stroke: #008000"/>
     <use xlink:href="#m8a68c15bfd" x="295.083117" y="334.57654" style="fill: #008000; stroke: #008000"/>
     <use xlink:href="#m8a68c15bfd" x="297.981818" y="341.892358" style="fill: #008000; stroke: #008000"/>
     <use xlink:href="#m8a68c15bfd" x="300.880519" y="368.334121" style="fill: #008000; stroke: #008000"/>
     <use xlink:href="#m8a68c15bfd" x="306.677922" y="274.542105" style="fill: #008000; stroke: #008000"/>
     <use xlink:href="#m8a68c15bfd" x="309.576623" y="271.818028" style="fill: #008000; stroke: #008000"/>
     <use xlink:href="#m8a68c15bfd" x="312.475325" y="361.749706" style="fill: #008000; stroke: #008000"/>
     <use xlink:href="#m8a68c15bfd" x="318.272727" y="333.459107" style="fill: #008000; stroke: #008000"/>
     <use xlink:href="#m8a68c15bfd" x="321.171429" y="334.680924" style="fill: #008000; stroke: #008000"/>
     <use xlink:href="#m8a68c15bfd" x="324.07013" y="312.951185" style="fill: #008000; stroke: #008000"/>
     <use xlink:href="#m8a68c15bfd" x="326.968831" y="285.899977" style="fill: #008000; stroke: #008000"/>
     <use xlink:href="#m8a68c15bfd" x="329.867532" y="309.740711" style="fill: #008000; stroke: #008000"/>
     <use xlink:href="#m8a68c15bfd" x="332.766234" y="341.090106" style="fill: #008000; stroke: #008000"/>
     <use xlink:href="#m8a68c15bfd" x="335.664935" y="362.520555" style="fill: #008000; stroke: #008000"/>
     <use xlink:href="#m8a68c15bfd" x="338.563636" y="238.485696" style="fill: #008000; stroke: #008000"/>
     <use xlink:href="#m8a68c15bfd" x="341.462338" y="300.083653" style="fill: #008000; stroke: #008000"/>
     <use xlink:href="#m8a68c15bfd" x="344.361039" y="347.745443" style="fill: #008000; stroke: #008000"/>
     <use xlink:href="#m8a68c15bfd" x="347.25974" y="341.226286" style="fill: #008000; stroke: #008000"/>
     <use xlink:href="#m8a68c15bfd" x="350.158442" y="253.618479" style="fill: #008000; stroke: #008000"/>
     <use xlink:href="#m8a68c15bfd" x="353.057143" y="293.755965" style="fill: #008000; stroke: #008000"/>
     <use xlink:href="#m8a68c15bfd" x="355.955844" y="342.357002" style="fill: #008000; stroke: #008000"/>
     <use xlink:href="#m8a68c15bfd" x="358.854545" y="361.464826" style="fill: #008000; stroke: #008000"/>
     <use xlink:href="#m8a68c15bfd" x="361.753247" y="313.998338" style="fill: #008000; stroke: #008000"/>
     <use xlink:href="#m8a68c15bfd" x="364.651948" y="334.423942" style="fill: #008000; stroke: #008000"/>
     <use xlink:href="#m8a68c15bfd" x="367.550649" y="267.585246" style="fill: #008000; stroke: #008000"/>
     <use xlink:href="#m8a68c15bfd" x="370.449351" y="361.486052" style="fill: #008000; stroke: #008000"/>
     <use xlink:href="#m8a68c15bfd" x="373.348052" y="322.521874" style="fill: #008000; stroke: #008000"/>
     <use xlink:href="#m8a68c15bfd" x="379.145455" y="348.396632" style="fill: #008000; stroke: #008000"/>
     <use xlink:href="#m8a68c15bfd" x="382.044156" y="232.112513" style="fill: #008000; stroke: #008000"/>
     <use xlink:href="#m8a68c15bfd" x="384.942857" y="66.96" style="fill: #008000; stroke: #008000"/>
     <use xlink:href="#m8a68c15bfd" x="387.841558" y="310.323985" style="fill: #008000; stroke: #008000"/>
     <use xlink:href="#m8a68c15bfd" x="390.74026" y="329.288693" style="fill: #008000; stroke: #008000"/>
     <use xlink:href="#m8a68c15bfd" x="393.638961" y="277.541427" style="fill: #008000; stroke: #008000"/>
     <use xlink:href="#m8a68c15bfd" x="396.537662" y="141.518473" style="fill: #008000; stroke: #008000"/>
     <use xlink:href="#m8a68c15bfd" x="399.436364" y="254.441367" style="fill: #008000; stroke: #008000"/>
     <use xlink:href="#m8a68c15bfd" x="402.335065" y="343.186362" style="fill: #008000; stroke: #008000"/>
     <use xlink:href="#m8a68c15bfd" x="405.233766" y="207.434488" style="fill: #008000; stroke: #008000"/>
     <use xlink:href="#m8a68c15bfd" x="408.132468" y="159.864431" style="fill: #008000; stroke: #008000"/>
     <use xlink:href="#m8a68c15bfd" x="411.031169" y="356.424618" style="fill: #008000; stroke: #008000"/>
     <use xlink:href="#m8a68c15bfd" x="413.92987" y="255.327925" style="fill: #008000; stroke: #008000"/>
     <use xlink:href="#m8a68c15bfd" x="416.828571" y="344.307029" style="fill: #008000; stroke: #008000"/>
     <use xlink:href="#m8a68c15bfd" x="419.727273" y="351.518861" style="fill: #008000; stroke: #008000"/>
     <use xlink:href="#m8a68c15bfd" x="422.625974" y="177.481217" style="fill: #008000; stroke: #008000"/>
     <use xlink:href="#m8a68c15bfd" x="425.524675" y="351.335287" style="fill: #008000; stroke: #008000"/>
     <use xlink:href="#m8a68c15bfd" x="434.220779" y="277.28636" style="fill: #008000; stroke: #008000"/>
     <use xlink:href="#m8a68c15bfd" x="437.119481" y="356.930487" style="fill: #008000; stroke: #008000"/>
     <use xlink:href="#m8a68c15bfd" x="440.018182" y="350.870443" style="fill: #008000; stroke: #008000"/>
     <use xlink:href="#m8a68c15bfd" x="442.916883" y="286.291054" style="fill: #008000; stroke: #008000"/>
     <use xlink:href="#m8a68c15bfd" x="445.815584" y="314.196927" style="fill: #008000; stroke: #008000"/>
     <use xlink:href="#m8a68c15bfd" x="448.714286" y="327.553161" style="fill: #008000; stroke: #008000"/>
     <use xlink:href="#m8a68c15bfd" x="451.612987" y="315.526555" style="fill: #008000; stroke: #008000"/>
     <use xlink:href="#m8a68c15bfd" x="454.511688" y="333.89024" style="fill: #008000; stroke: #008000"/>
     <use xlink:href="#m8a68c15bfd" x="457.41039" y="275.162495" style="fill: #008000; stroke: #008000"/>
     <use xlink:href="#m8a68c15bfd" x="460.309091" y="234.372033" style="fill: #008000; stroke: #008000"/>
     <use xlink:href="#m8a68c15bfd" x="463.207792" y="298.718154" style="fill: #008000; stroke: #008000"/>
     <use xlink:href="#m8a68c15bfd" x="466.106494" y="333.754202" style="fill: #008000; stroke: #008000"/>
     <use xlink:href="#m8a68c15bfd" x="469.005195" y="328.164264" style="fill: #008000; stroke: #008000"/>
     <use xlink:href="#m8a68c15bfd" x="471.903896" y="264.646193" style="fill: #008000; stroke: #008000"/>
     <use xlink:href="#m8a68c15bfd" x="474.802597" y="241.891783" style="fill: #008000; stroke: #008000"/>
     <use xlink:href="#m8a68c15bfd" x="477.701299" y="317.104168" style="fill: #008000; stroke: #008000"/>
     <use xlink:href="#m8a68c15bfd" x="480.6" y="340.43121" style="fill: #008000; stroke: #008000"/>
     <use xlink:href="#m8a68c15bfd" x="483.498701" y="236.053858" style="fill: #008000; stroke: #008000"/>
     <use xlink:href="#m8a68c15bfd" x="486.397403" y="311.725353" style="fill: #008000; stroke: #008000"/>
     <use xlink:href="#m8a68c15bfd" x="489.296104" y="363.511915" style="fill: #008000; stroke: #008000"/>
     <use xlink:href="#m8a68c15bfd" x="492.194805" y="306.036146" style="fill: #008000; stroke: #008000"/>
     <use xlink:href="#m8a68c15bfd" x="495.093506" y="322.370951" style="fill: #008000; stroke: #008000"/>
     <use xlink:href="#m8a68c15bfd" x="497.992208" y="288.721562" style="fill: #008000; stroke: #008000"/>
     <use xlink:href="#m8a68c15bfd" x="500.890909" y="369.337876" style="fill: #008000; stroke: #008000"/>
     <use xlink:href="#m8a68c15bfd" x="503.78961" y="265.994005" style="fill: #008000; stroke: #008000"/>
     <use xlink:href="#m8a68c15bfd" x="506.688312" y="237.635596" style="fill: #008000; stroke: #008000"/>
     <use xlink:href="#m8a68c15bfd" x="509.587013" y="352.210022" style="fill: #008000; stroke: #008000"/>
     <use xlink:href="#m8a68c15bfd" x="512.485714" y="283.500325" style="fill: #008000; stroke: #008000"/>
     <use xlink:href="#m8a68c15bfd" x="515.384416" y="306.121231" style="fill: #008000; stroke: #008000"/>
     <use xlink:href="#m8a68c15bfd" x="518.283117" y="340.774929" style="fill: #008000; stroke: #008000"/>
     <use xlink:href="#m8a68c15bfd" x="521.181818" y="352.060597" style="fill: #008000; stroke: #008000"/>
     <use xlink:href="#m8a68c15bfd" x="524.080519" y="340.599857" style="fill: #008000; stroke: #008000"/>
     <use xlink:href="#m8a68c15bfd" x="526.979221" y="335.100922" style="fill: #008000; stroke: #008000"/>
     <use xlink:href="#m8a68c15bfd" x="529.877922" y="334.616907" style="fill: #008000; stroke: #008000"/>
     <use xlink:href="#m8a68c15bfd" x="532.776623" y="323.659361" style="fill: #008000; stroke: #008000"/>
     <use xlink:href="#m8a68c15bfd" x="535.675325" y="289.384474" style="fill: #008000; stroke: #008000"/>
     <use xlink:href="#m8a68c15bfd" x="538.574026" y="266.594746" style="fill: #008000; stroke: #008000"/>
     <use xlink:href="#m8a68c15bfd" x="541.472727" y="340.81753" style="fill: #008000; stroke: #008000"/>
     <use xlink:href="#m8a68c15bfd" x="544.371429" y="352.222308" style="fill: #008000; stroke: #008000"/>
     <use xlink:href="#m8a68c15bfd" x="547.27013" y="312.300513" style="fill: #008000; stroke: #008000"/>
     <use xlink:href="#m8a68c15bfd" x="550.168831" y="346.49708" style="fill: #008000; stroke: #008000"/>
     <use xlink:href="#m8a68c15bfd" x="553.067532" y="323.772521" style="fill: #008000; stroke: #008000"/>
     <use xlink:href="#m8a68c15bfd" x="555.966234" y="306.660339" style="fill: #008000; stroke: #008000"/>
     <use xlink:href="#m8a68c15bfd" x="558.864935" y="249.698007" style="fill: #008000; stroke: #008000"/>
     <use xlink:href="#m8a68c15bfd" x="561.763636" y="357.964427" style="fill: #008000; stroke: #008000"/>
     <use xlink:href="#m8a68c15bfd" x="564.662338" y="357.969612" style="fill: #008000; stroke: #008000"/>
     <use xlink:href="#m8a68c15bfd" x="567.561039" y="312.400576" style="fill: #008000; stroke: #008000"/>
     <use xlink:href="#m8a68c15bfd" x="570.45974" y="357.974024" style="fill: #008000; stroke: #008000"/>
     <use xlink:href="#m8a68c15bfd" x="582.054545" y="352.279167" style="fill: #008000; stroke: #008000"/>
     <use xlink:href="#m8a68c15bfd" x="584.953247" y="312.407441" style="fill: #008000; stroke: #008000"/>
     <use xlink:href="#m8a68c15bfd" x="587.851948" y="346.569611" style="fill: #008000; stroke: #008000"/>
     <use xlink:href="#m8a68c15bfd" x="590.750649" y="369.36" style="fill: #008000; stroke: #008000"/>
     <use xlink:href="#m8a68c15bfd" x="593.649351" y="340.887711" style="fill: #008000; stroke: #008000"/>
     <use xlink:href="#m8a68c15bfd" x="596.548052" y="352.278516" style="fill: #008000; stroke: #008000"/>
     <use xlink:href="#m8a68c15bfd" x="599.446753" y="312.41611" style="fill: #008000; stroke: #008000"/>
     <use xlink:href="#m8a68c15bfd" x="602.345455" y="323.802602" style="fill: #008000; stroke: #008000"/>
     <use xlink:href="#m8a68c15bfd" x="605.244156" y="340.879059" style="fill: #008000; stroke: #008000"/>
     <use xlink:href="#m8a68c15bfd" x="611.041558" y="346.571152" style="fill: #008000; stroke: #008000"/>
     <use xlink:href="#m8a68c15bfd" x="613.94026" y="340.875707" style="fill: #008000; stroke: #008000"/>
     <use xlink:href="#m8a68c15bfd" x="616.838961" y="329.501363" style="fill: #008000; stroke: #008000"/>
     <use xlink:href="#m8a68c15bfd" x="619.737662" y="323.774806" style="fill: #008000; stroke: #008000"/>
     <use xlink:href="#m8a68c15bfd" x="622.636364" y="352.277252" style="fill: #008000; stroke: #008000"/>
    </g>
   </g>
   <g id="patch_7">
    <path d="M 90 384.48 
L 90 51.84 
" style="fill: none; stroke: #000000; stroke-width: 0.8; stroke-linejoin: miter; stroke-linecap: square"/>
   </g>
   <g id="patch_8">
    <path d="M 648 384.48 
L 648 51.84 
" style="fill: none; stroke: #000000; stroke-width: 0.8; stroke-linejoin: miter; stroke-linecap: square"/>
   </g>
   <g id="patch_9">
    <path d="M 90 384.48 
L 648 384.48 
" style="fill: none; stroke: #000000; stroke-width: 0.8; stroke-linejoin: miter; stroke-linecap: square"/>
   </g>
   <g id="patch_10">
    <path d="M 90 51.84 
L 648 51.84 
" style="fill: none; stroke: #000000; stroke-width: 0.8; stroke-linejoin: miter; stroke-linecap: square"/>
   </g>
  </g>
  <g id="axes_3">
   <g id="matplotlib.axis_4">
    <g id="ytick_15">
     <g id="line2d_25">
      <g>
       <use xlink:href="#m2f519bc7ef" x="708" y="332.792181" style="stroke: #000000; stroke-width: 0.8"/>
      </g>
     </g>
     <g id="text_26">
      <!-- 1300 -->
      <g style="fill: #ff0000" transform="translate(715 336.229681) scale(0.1 -0.1)">
       <use xlink:href="#SimHei-31"/>
       <use xlink:href="#SimHei-33" x="50"/>
       <use xlink:href="#SimHei-30" x="100"/>
       <use xlink:href="#SimHei-30" x="150"/>
      </g>
     </g>
    </g>
    <g id="ytick_16">
     <g id="line2d_26">
      <g>
       <use xlink:href="#m2f519bc7ef" x="708" y="277.912327" style="stroke: #000000; stroke-width: 0.8"/>
      </g>
     </g>
     <g id="text_27">
      <!-- 1350 -->
      <g style="fill: #ff0000" transform="translate(715 281.349827) scale(0.1 -0.1)">
       <use xlink:href="#SimHei-31"/>
       <use xlink:href="#SimHei-33" x="50"/>
       <use xlink:href="#SimHei-35" x="100"/>
       <use xlink:href="#SimHei-30" x="150"/>
      </g>
     </g>
    </g>
    <g id="ytick_17">
     <g id="line2d_27">
      <g>
       <use xlink:href="#m2f519bc7ef" x="708" y="223.032473" style="stroke: #000000; stroke-width: 0.8"/>
      </g>
     </g>
     <g id="text_28">
      <!-- 1400 -->
      <g style="fill: #ff0000" transform="translate(715 226.469973) scale(0.1 -0.1)">
       <use xlink:href="#SimHei-31"/>
       <use xlink:href="#SimHei-34" x="50"/>
       <use xlink:href="#SimHei-30" x="100"/>
       <use xlink:href="#SimHei-30" x="150"/>
      </g>
     </g>
    </g>
    <g id="ytick_18">
     <g id="line2d_28">
      <g>
       <use xlink:href="#m2f519bc7ef" x="708" y="168.152618" style="stroke: #000000; stroke-width: 0.8"/>
      </g>
     </g>
     <g id="text_29">
      <!-- 1450 -->
      <g style="fill: #ff0000" transform="translate(715 171.590118) scale(0.1 -0.1)">
       <use xlink:href="#SimHei-31"/>
       <use xlink:href="#SimHei-34" x="50"/>
       <use xlink:href="#SimHei-35" x="100"/>
       <use xlink:href="#SimHei-30" x="150"/>
      </g>
     </g>
    </g>
    <g id="ytick_19">
     <g id="line2d_29">
      <g>
       <use xlink:href="#m2f519bc7ef" x="708" y="113.272764" style="stroke: #000000; stroke-width: 0.8"/>
      </g>
     </g>
     <g id="text_30">
      <!-- 1500 -->
      <g style="fill: #ff0000" transform="translate(715 116.710264) scale(0.1 -0.1)">
       <use xlink:href="#SimHei-31"/>
       <use xlink:href="#SimHei-35" x="50"/>
       <use xlink:href="#SimHei-30" x="100"/>
       <use xlink:href="#SimHei-30" x="150"/>
      </g>
     </g>
    </g>
    <g id="ytick_20">
     <g id="line2d_30">
      <g>
       <use xlink:href="#m2f519bc7ef" x="708" y="58.39291" style="stroke: #000000; stroke-width: 0.8"/>
      </g>
     </g>
     <g id="text_31">
      <!-- 1550 -->
      <g style="fill: #ff0000" transform="translate(715 61.83041) scale(0.1 -0.1)">
       <use xlink:href="#SimHei-31"/>
       <use xlink:href="#SimHei-35" x="50"/>
       <use xlink:href="#SimHei-35" x="100"/>
       <use xlink:href="#SimHei-30" x="150"/>
      </g>
     </g>
    </g>
    <g id="text_32">
     <!-- 平均单价 -->
     <g style="fill: #ff0000" transform="translate(747.007812 238.16) rotate(-90) scale(0.1 -0.1)">
      <defs>
       <path id="SimHei-5e73" d="M 4525 4825 
Q 4900 4825 5450 4850 
L 5450 4375 
Q 4925 4400 4525 4400 
L 3475 4400 
L 3475 2025 
L 5000 2025 
Q 5550 2025 6025 2050 
L 6025 1575 
Q 5550 1600 5000 1600 
L 3475 1600 
L 3475 450 
Q 3475 -100 3500 -600 
L 2925 -600 
Q 2950 -100 2950 450 
L 2950 1600 
L 1125 1600 
Q 775 1600 375 1575 
L 375 2050 
Q 775 2025 1175 2025 
L 2950 2025 
L 2950 4400 
L 1775 4400 
Q 1400 4400 875 4375 
L 875 4850 
Q 1400 4825 1750 4825 
L 4525 4825 
z
M 3925 2600 
Q 4500 3300 4900 4125 
Q 5150 3950 5400 3825 
Q 4775 2850 4350 2300 
Q 4150 2475 3925 2600 
z
M 1975 2350 
Q 1600 3100 1050 3725 
Q 1250 3875 1450 4050 
Q 2075 3300 2450 2725 
Q 2150 2500 1975 2350 
z
" transform="scale(0.015625)"/>
       <path id="SimHei-5747" d="M 5775 275 
Q 5775 -325 5362 -450 
Q 4950 -575 4425 -600 
Q 4375 -275 4250 25 
Q 4950 -25 5125 62 
Q 5300 150 5300 500 
L 5375 3700 
L 3550 3700 
Q 3425 3375 3262 3037 
Q 3100 2700 2925 2400 
Q 2675 2550 2475 2625 
Q 3150 3625 3500 5200 
Q 3800 5100 4075 5025 
Q 3975 4875 3875 4650 
Q 3775 4425 3675 4125 
L 5900 4125 
L 5775 275 
z
M 1250 3625 
L 1250 4375 
Q 1250 4775 1225 5100 
L 1775 5100 
Q 1750 4725 1750 4375 
L 1750 3625 
L 1900 3625 
Q 2200 3625 2525 3650 
L 2525 3150 
Q 2200 3175 1900 3175 
L 1750 3175 
L 1750 1100 
L 2500 1375 
Q 2475 1125 2525 900 
Q 1225 475 962 362 
Q 700 250 475 150 
Q 375 475 250 750 
Q 575 800 800 850 
Q 1025 900 1250 975 
L 1250 3175 
L 1125 3175 
Q 850 3175 400 3150 
L 400 3650 
Q 850 3625 1100 3625 
L 1250 3625 
z
M 4950 1625 
Q 4675 1425 4137 1050 
Q 3600 675 3175 300 
Q 3000 575 2850 775 
Q 3350 1050 3762 1325 
Q 4175 1600 4775 2075 
Q 4825 1850 4950 1625 
z
M 3775 3150 
Q 4125 2800 4475 2300 
Q 4250 2125 4100 1975 
Q 3900 2325 3450 2825 
Q 3600 3000 3775 3150 
z
" transform="scale(0.015625)"/>
       <path id="SimHei-5355" d="M 5275 4075 
L 5275 1525 
L 3400 1525 
L 3400 925 
L 5050 925 
Q 5600 925 6000 950 
L 6000 450 
Q 5575 475 5050 475 
L 3400 475 
Q 3400 -300 3425 -625 
L 2875 -625 
Q 2925 -300 2925 475 
L 1300 475 
Q 700 475 425 450 
L 425 950 
Q 675 925 1250 925 
L 2925 925 
L 2925 1525 
L 1125 1525 
Q 1150 1950 1150 2750 
Q 1150 3550 1125 4075 
L 3600 4075 
Q 3875 4650 4075 5250 
Q 4325 5125 4650 4975 
Q 4550 4850 4400 4587 
Q 4250 4325 4100 4075 
L 5275 4075 
z
M 4775 1925 
L 4775 2600 
L 3400 2600 
L 3400 1925 
L 4775 1925 
z
M 4775 3000 
L 4775 3650 
L 3400 3650 
L 3400 3000 
L 4775 3000 
z
M 2925 1925 
L 2925 2600 
L 1625 2600 
L 1625 1925 
L 2925 1925 
z
M 2925 3000 
L 2925 3650 
L 1625 3650 
L 1625 3000 
L 2925 3000 
z
M 2100 5225 
Q 2350 4950 2675 4350 
Q 2400 4225 2225 4125 
Q 1975 4675 1725 4975 
Q 1900 5075 2100 5225 
z
" transform="scale(0.015625)"/>
       <path id="SimHei-4ef7" d="M 2200 4975 
Q 2050 4725 1650 3775 
L 1650 450 
Q 1650 -225 1675 -650 
L 1175 -650 
Q 1175 -225 1200 450 
L 1200 2975 
Q 900 2425 650 2100 
Q 525 2275 225 2450 
Q 750 3025 1125 3800 
Q 1500 4575 1625 5175 
Q 1950 5025 2200 4975 
z
M 4175 4700 
Q 4850 3525 6150 2950 
Q 5925 2750 5775 2500 
Q 4725 3100 3950 4300 
Q 3300 3125 2250 2350 
Q 2125 2525 1900 2725 
Q 2825 3325 3250 4050 
Q 3675 4775 3750 5150 
Q 4150 4950 4325 4900 
L 4175 4700 
z
M 3475 2650 
Q 3400 2075 3325 1087 
Q 3250 100 2325 -675 
Q 2175 -450 1925 -300 
Q 2850 350 2912 1262 
Q 2975 2175 2950 2700 
Q 3275 2650 3475 2650 
z
M 5075 2700 
Q 5050 2150 5050 1725 
L 5050 150 
Q 5050 -225 5075 -650 
L 4550 -650 
Q 4575 -225 4575 175 
L 4575 1875 
Q 4575 2150 4550 2700 
L 5075 2700 
z
" transform="scale(0.015625)"/>
      </defs>
      <use xlink:href="#SimHei-5e73"/>
      <use xlink:href="#SimHei-5747" x="100"/>
      <use xlink:href="#SimHei-5355" x="200"/>
      <use xlink:href="#SimHei-4ef7" x="300"/>
     </g>
    </g>
   </g>
   <g id="line2d_31">
    <path d="M 115.363636 365.401791 
L 141.451948 365.401791 
L 150.148052 241.483711 
L 153.046753 365.401791 
L 155.945455 117.565631 
L 158.844156 365.401791 
L 164.641558 365.401791 
L 167.54026 167.132863 
L 170.438961 148.545151 
L 179.135065 365.401791 
L 182.033766 185.157311 
L 184.932468 365.401791 
L 187.831169 117.565631 
L 190.72987 148.545151 
L 193.628571 365.401791 
L 196.527273 200.177684 
L 199.425974 365.401791 
L 205.223377 365.401791 
L 211.020779 266.267327 
L 219.716883 303.442751 
L 222.615584 117.565631 
L 225.514286 200.177684 
L 228.412987 365.401791 
L 231.311688 365.401791 
L 237.109091 117.565631 
L 240.007792 230.218431 
L 242.906494 365.401791 
L 245.805195 167.132863 
L 251.602597 167.132863 
L 254.501299 134.879949 
L 257.4 365.401791 
L 260.298701 206.028164 
L 263.197403 134.879949 
L 266.096104 213.97255 
L 283.488312 134.879949 
L 286.387013 134.879949 
L 289.285714 117.565631 
L 292.184416 118.040277 
L 295.083117 112.427053 
L 297.981818 140.185572 
L 300.880519 117.565631 
L 306.677922 123.678731 
L 309.576623 79.342904 
L 312.475325 134.879949 
L 318.272727 66.96 
L 321.171429 116.674335 
L 324.07013 74.900134 
L 326.968831 85.282894 
L 329.867532 164.998625 
L 332.766234 101.014288 
L 335.664935 228.974832 
L 338.563636 92.547873 
L 341.462338 95.640587 
L 344.361039 92.547873 
L 347.25974 107.663494 
L 350.158442 112.557496 
L 353.057143 105.576368 
L 355.955844 162.872556 
L 358.854545 100.105684 
L 361.753247 103.305098 
L 364.651948 106.218005 
L 367.550649 119.778085 
L 370.449351 102.696626 
L 373.348052 156.369413 
L 379.145455 132.292117 
L 382.044156 173.381313 
L 384.942857 192.636682 
L 387.841558 179.238281 
L 390.74026 163.327401 
L 393.638961 271.692707 
L 396.537662 175.909345 
L 399.436364 209.820933 
L 402.335065 203.367411 
L 405.233766 185.705307 
L 411.031169 243.13258 
L 413.92987 298.135214 
L 416.828571 258.085808 
L 419.727273 322.852057 
L 422.625974 297.982724 
L 425.524675 311.647886 
L 434.220779 267.800814 
L 437.119481 284.299044 
L 440.018182 283.276925 
L 442.916883 314.899285 
L 445.815584 273.789636 
L 448.714286 309.90743 
L 451.612987 306.25027 
L 454.511688 323.811749 
L 457.41039 325.057381 
L 460.309091 328.556229 
L 463.207792 326.001509 
L 466.106494 319.06727 
L 469.005195 328.556229 
L 471.903896 340.943902 
L 474.802597 346.152238 
L 477.701299 344.765033 
L 480.6 350.646939 
L 483.498701 345.664118 
L 486.397403 354.01561 
L 489.296104 349.986807 
L 492.194805 355.409666 
L 495.093506 330.419816 
L 497.992208 354.457121 
L 500.890909 362.615505 
L 503.78961 358.262102 
L 506.688312 361.753894 
L 509.587013 365.035838 
L 512.485714 362.615505 
L 515.384416 357.140653 
L 518.283117 364.632449 
L 521.181818 355.915935 
L 524.080519 357.508986 
L 526.979221 366.035669 
L 529.877922 349.155082 
L 532.776623 365.369115 
L 535.675325 365.24637 
L 538.574026 365.98109 
L 541.472727 366.365848 
L 544.371429 365.785711 
L 547.27013 366.78067 
L 550.168831 365.018656 
L 553.067532 368.438688 
L 555.966234 368.10851 
L 558.864935 368.526879 
L 561.763636 368.438688 
L 564.662338 368.860634 
L 570.45974 369.219716 
L 582.054545 369.255991 
L 584.953247 369.15382 
L 590.750649 368.016742 
L 593.649351 369.221428 
L 596.548052 369.216291 
L 599.446753 369.346219 
L 602.345455 369.254653 
L 605.244156 368.869375 
L 611.041558 368.635312 
L 613.94026 368.732998 
L 616.838961 369.36 
L 619.737662 368.500673 
L 622.636364 369.139109 
L 622.636364 369.139109 
" clip-path="url(#p3edd0ea5c5)" style="fill: none; stroke: #ff0000; stroke-width: 1.5; stroke-linecap: square"/>
    <defs>
     <path id="m6aac4728a4" d="M 0 3 
C 0.795609 3 1.55874 2.683901 2.12132 2.12132 
C 2.683901 1.55874 3 0.795609 3 0 
C 3 -0.795609 2.683901 -1.55874 2.12132 -2.12132 
C 1.55874 -2.683901 0.795609 -3 0 -3 
C -0.795609 -3 -1.55874 -2.683901 -2.12132 -2.12132 
C -2.683901 -1.55874 -3 -0.795609 -3 0 
C -3 0.795609 -2.683901 1.55874 -2.12132 2.12132 
C -1.55874 2.683901 -0.795609 3 0 3 
z
" style="stroke: #ff0000"/>
    </defs>
    <g clip-path="url(#p3edd0ea5c5)">
     <use xlink:href="#m6aac4728a4" x="115.363636" y="365.401791" style="fill: #ff0000; stroke: #ff0000"/>
     <use xlink:href="#m6aac4728a4" x="132.755844" y="365.401791" style="fill: #ff0000; stroke: #ff0000"/>
     <use xlink:href="#m6aac4728a4" x="135.654545" y="365.401791" style="fill: #ff0000; stroke: #ff0000"/>
     <use xlink:href="#m6aac4728a4" x="138.553247" y="365.401791" style="fill: #ff0000; stroke: #ff0000"/>
     <use xlink:href="#m6aac4728a4" x="141.451948" y="365.401791" style="fill: #ff0000; stroke: #ff0000"/>
     <use xlink:href="#m6aac4728a4" x="150.148052" y="241.483711" style="fill: #ff0000; stroke: #ff0000"/>
     <use xlink:href="#m6aac4728a4" x="153.046753" y="365.401791" style="fill: #ff0000; stroke: #ff0000"/>
     <use xlink:href="#m6aac4728a4" x="155.945455" y="117.565631" style="fill: #ff0000; stroke: #ff0000"/>
     <use xlink:href="#m6aac4728a4" x="158.844156" y="365.401791" style="fill: #ff0000; stroke: #ff0000"/>
     <use xlink:href="#m6aac4728a4" x="164.641558" y="365.401791" style="fill: #ff0000; stroke: #ff0000"/>
     <use xlink:href="#m6aac4728a4" x="167.54026" y="167.132863" style="fill: #ff0000; stroke: #ff0000"/>
     <use xlink:href="#m6aac4728a4" x="170.438961" y="148.545151" style="fill: #ff0000; stroke: #ff0000"/>
     <use xlink:href="#m6aac4728a4" x="179.135065" y="365.401791" style="fill: #ff0000; stroke: #ff0000"/>
     <use xlink:href="#m6aac4728a4" x="182.033766" y="185.157311" style="fill: #ff0000; stroke: #ff0000"/>
     <use xlink:href="#m6aac4728a4" x="184.932468" y="365.401791" style="fill: #ff0000; stroke: #ff0000"/>
     <use xlink:href="#m6aac4728a4" x="187.831169" y="117.565631" style="fill: #ff0000; stroke: #ff0000"/>
     <use xlink:href="#m6aac4728a4" x="190.72987" y="148.545151" style="fill: #ff0000; stroke: #ff0000"/>
     <use xlink:href="#m6aac4728a4" x="193.628571" y="365.401791" style="fill: #ff0000; stroke: #ff0000"/>
     <use xlink:href="#m6aac4728a4" x="196.527273" y="200.177684" style="fill: #ff0000; stroke: #ff0000"/>
     <use xlink:href="#m6aac4728a4" x="199.425974" y="365.401791" style="fill: #ff0000; stroke: #ff0000"/>
     <use xlink:href="#m6aac4728a4" x="202.324675" y="365.401791" style="fill: #ff0000; stroke: #ff0000"/>
     <use xlink:href="#m6aac4728a4" x="205.223377" y="365.401791" style="fill: #ff0000; stroke: #ff0000"/>
     <use xlink:href="#m6aac4728a4" x="211.020779" y="266.267327" style="fill: #ff0000; stroke: #ff0000"/>
     <use xlink:href="#m6aac4728a4" x="219.716883" y="303.442751" style="fill: #ff0000; stroke: #ff0000"/>
     <use xlink:href="#m6aac4728a4" x="222.615584" y="117.565631" style="fill: #ff0000; stroke: #ff0000"/>
     <use xlink:href="#m6aac4728a4" x="225.514286" y="200.177684" style="fill: #ff0000; stroke: #ff0000"/>
     <use xlink:href="#m6aac4728a4" x="228.412987" y="365.401791" style="fill: #ff0000; stroke: #ff0000"/>
     <use xlink:href="#m6aac4728a4" x="231.311688" y="365.401791" style="fill: #ff0000; stroke: #ff0000"/>
     <use xlink:href="#m6aac4728a4" x="237.109091" y="117.565631" style="fill: #ff0000; stroke: #ff0000"/>
     <use xlink:href="#m6aac4728a4" x="240.007792" y="230.218431" style="fill: #ff0000; stroke: #ff0000"/>
     <use xlink:href="#m6aac4728a4" x="242.906494" y="365.401791" style="fill: #ff0000; stroke: #ff0000"/>
     <use xlink:href="#m6aac4728a4" x="245.805195" y="167.132863" style="fill: #ff0000; stroke: #ff0000"/>
     <use xlink:href="#m6aac4728a4" x="248.703896" y="167.132863" style="fill: #ff0000; stroke: #ff0000"/>
     <use xlink:href="#m6aac4728a4" x="251.602597" y="167.132863" style="fill: #ff0000; stroke: #ff0000"/>
     <use xlink:href="#m6aac4728a4" x="254.501299" y="134.879949" style="fill: #ff0000; stroke: #ff0000"/>
     <use xlink:href="#m6aac4728a4" x="257.4" y="365.401791" style="fill: #ff0000; stroke: #ff0000"/>
     <use xlink:href="#m6aac4728a4" x="260.298701" y="206.028164" style="fill: #ff0000; stroke: #ff0000"/>
     <use xlink:href="#m6aac4728a4" x="263.197403" y="134.879949" style="fill: #ff0000; stroke: #ff0000"/>
     <use xlink:href="#m6aac4728a4" x="266.096104" y="213.97255" style="fill: #ff0000; stroke: #ff0000"/>
     <use xlink:href="#m6aac4728a4" x="283.488312" y="134.879949" style="fill: #ff0000; stroke: #ff0000"/>
     <use xlink:href="#m6aac4728a4" x="286.387013" y="134.879949" style="fill: #ff0000; stroke: #ff0000"/>
     <use xlink:href="#m6aac4728a4" x="289.285714" y="117.565631" style="fill: #ff0000; stroke: #ff0000"/>
     <use xlink:href="#m6aac4728a4" x="292.184416" y="118.040277" style="fill: #ff0000; stroke: #ff0000"/>
     <use xlink:href="#m6aac4728a4" x="295.083117" y="112.427053" style="fill: #ff0000; stroke: #ff0000"/>
     <use xlink:href="#m6aac4728a4" x="297.981818" y="140.185572" style="fill: #ff0000; stroke: #ff0000"/>
     <use xlink:href="#m6aac4728a4" x="300.880519" y="117.565631" style="fill: #ff0000; stroke: #ff0000"/>
     <use xlink:href="#m6aac4728a4" x="306.677922" y="123.678731" style="fill: #ff0000; stroke: #ff0000"/>
     <use xlink:href="#m6aac4728a4" x="309.576623" y="79.342904" style="fill: #ff0000; stroke: #ff0000"/>
     <use xlink:href="#m6aac4728a4" x="312.475325" y="134.879949" style="fill: #ff0000; stroke: #ff0000"/>
     <use xlink:href="#m6aac4728a4" x="318.272727" y="66.96" style="fill: #ff0000; stroke: #ff0000"/>
     <use xlink:href="#m6aac4728a4" x="321.171429" y="116.674335" style="fill: #ff0000; stroke: #ff0000"/>
     <use xlink:href="#m6aac4728a4" x="324.07013" y="74.900134" style="fill: #ff0000; stroke: #ff0000"/>
     <use xlink:href="#m6aac4728a4" x="326.968831" y="85.282894" style="fill: #ff0000; stroke: #ff0000"/>
     <use xlink:href="#m6aac4728a4" x="329.867532" y="164.998625" style="fill: #ff0000; stroke: #ff0000"/>
     <use xlink:href="#m6aac4728a4" x="332.766234" y="101.014288" style="fill: #ff0000; stroke: #ff0000"/>
     <use xlink:href="#m6aac4728a4" x="335.664935" y="228.974832" style="fill: #ff0000; stroke: #ff0000"/>
     <use xlink:href="#m6aac4728a4" x="338.563636" y="92.547873" style="fill: #ff0000; stroke: #ff0000"/>
     <use xlink:href="#m6aac4728a4" x="341.462338" y="95.640587" style="fill: #ff0000; stroke: #ff0000"/>
     <use xlink:href="#m6aac4728a4" x="344.361039" y="92.547873" style="fill: #ff0000; stroke: #ff0000"/>
     <use xlink:href="#m6aac4728a4" x="347.25974" y="107.663494" style="fill: #ff0000; stroke: #ff0000"/>
     <use xlink:href="#m6aac4728a4" x="350.158442" y="112.557496" style="fill: #ff0000; stroke: #ff0000"/>
     <use xlink:href="#m6aac4728a4" x="353.057143" y="105.576368" style="fill: #ff0000; stroke: #ff0000"/>
     <use xlink:href="#m6aac4728a4" x="355.955844" y="162.872556" style="fill: #ff0000; stroke: #ff0000"/>
     <use xlink:href="#m6aac4728a4" x="358.854545" y="100.105684" style="fill: #ff0000; stroke: #ff0000"/>
     <use xlink:href="#m6aac4728a4" x="361.753247" y="103.305098" style="fill: #ff0000; stroke: #ff0000"/>
     <use xlink:href="#m6aac4728a4" x="364.651948" y="106.218005" style="fill: #ff0000; stroke: #ff0000"/>
     <use xlink:href="#m6aac4728a4" x="367.550649" y="119.778085" style="fill: #ff0000; stroke: #ff0000"/>
     <use xlink:href="#m6aac4728a4" x="370.449351" y="102.696626" style="fill: #ff0000; stroke: #ff0000"/>
     <use xlink:href="#m6aac4728a4" x="373.348052" y="156.369413" style="fill: #ff0000; stroke: #ff0000"/>
     <use xlink:href="#m6aac4728a4" x="379.145455" y="132.292117" style="fill: #ff0000; stroke: #ff0000"/>
     <use xlink:href="#m6aac4728a4" x="382.044156" y="173.381313" style="fill: #ff0000; stroke: #ff0000"/>
     <use xlink:href="#m6aac4728a4" x="384.942857" y="192.636682" style="fill: #ff0000; stroke: #ff0000"/>
     <use xlink:href="#m6aac4728a4" x="387.841558" y="179.238281" style="fill: #ff0000; stroke: #ff0000"/>
     <use xlink:href="#m6aac4728a4" x="390.74026" y="163.327401" style="fill: #ff0000; stroke: #ff0000"/>
     <use xlink:href="#m6aac4728a4" x="393.638961" y="271.692707" style="fill: #ff0000; stroke: #ff0000"/>
     <use xlink:href="#m6aac4728a4" x="396.537662" y="175.909345" style="fill: #ff0000; stroke: #ff0000"/>
     <use xlink:href="#m6aac4728a4" x="399.436364" y="209.820933" style="fill: #ff0000; stroke: #ff0000"/>
     <use xlink:href="#m6aac4728a4" x="402.335065" y="203.367411" style="fill: #ff0000; stroke: #ff0000"/>
     <use xlink:href="#m6aac4728a4" x="405.233766" y="185.705307" style="fill: #ff0000; stroke: #ff0000"/>
     <use xlink:href="#m6aac4728a4" x="408.132468" y="214.47813" style="fill: #ff0000; stroke: #ff0000"/>
     <use xlink:href="#m6aac4728a4" x="411.031169" y="243.13258" style="fill: #ff0000; stroke: #ff0000"/>
     <use xlink:href="#m6aac4728a4" x="413.92987" y="298.135214" style="fill: #ff0000; stroke: #ff0000"/>
     <use xlink:href="#m6aac4728a4" x="416.828571" y="258.085808" style="fill: #ff0000; stroke: #ff0000"/>
     <use xlink:href="#m6aac4728a4" x="419.727273" y="322.852057" style="fill: #ff0000; stroke: #ff0000"/>
     <use xlink:href="#m6aac4728a4" x="422.625974" y="297.982724" style="fill: #ff0000; stroke: #ff0000"/>
     <use xlink:href="#m6aac4728a4" x="425.524675" y="311.647886" style="fill: #ff0000; stroke: #ff0000"/>
     <use xlink:href="#m6aac4728a4" x="434.220779" y="267.800814" style="fill: #ff0000; stroke: #ff0000"/>
     <use xlink:href="#m6aac4728a4" x="437.119481" y="284.299044" style="fill: #ff0000; stroke: #ff0000"/>
     <use xlink:href="#m6aac4728a4" x="440.018182" y="283.276925" style="fill: #ff0000; stroke: #ff0000"/>
     <use xlink:href="#m6aac4728a4" x="442.916883" y="314.899285" style="fill: #ff0000; stroke: #ff0000"/>
     <use xlink:href="#m6aac4728a4" x="445.815584" y="273.789636" style="fill: #ff0000; stroke: #ff0000"/>
     <use xlink:href="#m6aac4728a4" x="448.714286" y="309.90743" style="fill: #ff0000; stroke: #ff0000"/>
     <use xlink:href="#m6aac4728a4" x="451.612987" y="306.25027" style="fill: #ff0000; stroke: #ff0000"/>
     <use xlink:href="#m6aac4728a4" x="454.511688" y="323.811749" style="fill: #ff0000; stroke: #ff0000"/>
     <use xlink:href="#m6aac4728a4" x="457.41039" y="325.057381" style="fill: #ff0000; stroke: #ff0000"/>
     <use xlink:href="#m6aac4728a4" x="460.309091" y="328.556229" style="fill: #ff0000; stroke: #ff0000"/>
     <use xlink:href="#m6aac4728a4" x="463.207792" y="326.001509" style="fill: #ff0000; stroke: #ff0000"/>
     <use xlink:href="#m6aac4728a4" x="466.106494" y="319.06727" style="fill: #ff0000; stroke: #ff0000"/>
     <use xlink:href="#m6aac4728a4" x="469.005195" y="328.556229" style="fill: #ff0000; stroke: #ff0000"/>
     <use xlink:href="#m6aac4728a4" x="471.903896" y="340.943902" style="fill: #ff0000; stroke: #ff0000"/>
     <use xlink:href="#m6aac4728a4" x="474.802597" y="346.152238" style="fill: #ff0000; stroke: #ff0000"/>
     <use xlink:href="#m6aac4728a4" x="477.701299" y="344.765033" style="fill: #ff0000; stroke: #ff0000"/>
     <use xlink:href="#m6aac4728a4" x="480.6" y="350.646939" style="fill: #ff0000; stroke: #ff0000"/>
     <use xlink:href="#m6aac4728a4" x="483.498701" y="345.664118" style="fill: #ff0000; stroke: #ff0000"/>
     <use xlink:href="#m6aac4728a4" x="486.397403" y="354.01561" style="fill: #ff0000; stroke: #ff0000"/>
     <use xlink:href="#m6aac4728a4" x="489.296104" y="349.986807" style="fill: #ff0000; stroke: #ff0000"/>
     <use xlink:href="#m6aac4728a4" x="492.194805" y="355.409666" style="fill: #ff0000; stroke: #ff0000"/>
     <use xlink:href="#m6aac4728a4" x="495.093506" y="330.419816" style="fill: #ff0000; stroke: #ff0000"/>
     <use xlink:href="#m6aac4728a4" x="497.992208" y="354.457121" style="fill: #ff0000; stroke: #ff0000"/>
     <use xlink:href="#m6aac4728a4" x="500.890909" y="362.615505" style="fill: #ff0000; stroke: #ff0000"/>
     <use xlink:href="#m6aac4728a4" x="503.78961" y="358.262102" style="fill: #ff0000; stroke: #ff0000"/>
     <use xlink:href="#m6aac4728a4" x="506.688312" y="361.753894" style="fill: #ff0000; stroke: #ff0000"/>
     <use xlink:href="#m6aac4728a4" x="509.587013" y="365.035838" style="fill: #ff0000; stroke: #ff0000"/>
     <use xlink:href="#m6aac4728a4" x="512.485714" y="362.615505" style="fill: #ff0000; stroke: #ff0000"/>
     <use xlink:href="#m6aac4728a4" x="515.384416" y="357.140653" style="fill: #ff0000; stroke: #ff0000"/>
     <use xlink:href="#m6aac4728a4" x="518.283117" y="364.632449" style="fill: #ff0000; stroke: #ff0000"/>
     <use xlink:href="#m6aac4728a4" x="521.181818" y="355.915935" style="fill: #ff0000; stroke: #ff0000"/>
     <use xlink:href="#m6aac4728a4" x="524.080519" y="357.508986" style="fill: #ff0000; stroke: #ff0000"/>
     <use xlink:href="#m6aac4728a4" x="526.979221" y="366.035669" style="fill: #ff0000; stroke: #ff0000"/>
     <use xlink:href="#m6aac4728a4" x="529.877922" y="349.155082" style="fill: #ff0000; stroke: #ff0000"/>
     <use xlink:href="#m6aac4728a4" x="532.776623" y="365.369115" style="fill: #ff0000; stroke: #ff0000"/>
     <use xlink:href="#m6aac4728a4" x="535.675325" y="365.24637" style="fill: #ff0000; stroke: #ff0000"/>
     <use xlink:href="#m6aac4728a4" x="538.574026" y="365.98109" style="fill: #ff0000; stroke: #ff0000"/>
     <use xlink:href="#m6aac4728a4" x="541.472727" y="366.365848" style="fill: #ff0000; stroke: #ff0000"/>
     <use xlink:href="#m6aac4728a4" x="544.371429" y="365.785711" style="fill: #ff0000; stroke: #ff0000"/>
     <use xlink:href="#m6aac4728a4" x="547.27013" y="366.78067" style="fill: #ff0000; stroke: #ff0000"/>
     <use xlink:href="#m6aac4728a4" x="550.168831" y="365.018656" style="fill: #ff0000; stroke: #ff0000"/>
     <use xlink:href="#m6aac4728a4" x="553.067532" y="368.438688" style="fill: #ff0000; stroke: #ff0000"/>
     <use xlink:href="#m6aac4728a4" x="555.966234" y="368.10851" style="fill: #ff0000; stroke: #ff0000"/>
     <use xlink:href="#m6aac4728a4" x="558.864935" y="368.526879" style="fill: #ff0000; stroke: #ff0000"/>
     <use xlink:href="#m6aac4728a4" x="561.763636" y="368.438688" style="fill: #ff0000; stroke: #ff0000"/>
     <use xlink:href="#m6aac4728a4" x="564.662338" y="368.860634" style="fill: #ff0000; stroke: #ff0000"/>
     <use xlink:href="#m6aac4728a4" x="567.561039" y="369.00146" style="fill: #ff0000; stroke: #ff0000"/>
     <use xlink:href="#m6aac4728a4" x="570.45974" y="369.219716" style="fill: #ff0000; stroke: #ff0000"/>
     <use xlink:href="#m6aac4728a4" x="582.054545" y="369.255991" style="fill: #ff0000; stroke: #ff0000"/>
     <use xlink:href="#m6aac4728a4" x="584.953247" y="369.15382" style="fill: #ff0000; stroke: #ff0000"/>
     <use xlink:href="#m6aac4728a4" x="587.851948" y="368.560082" style="fill: #ff0000; stroke: #ff0000"/>
     <use xlink:href="#m6aac4728a4" x="590.750649" y="368.016742" style="fill: #ff0000; stroke: #ff0000"/>
     <use xlink:href="#m6aac4728a4" x="593.649351" y="369.221428" style="fill: #ff0000; stroke: #ff0000"/>
     <use xlink:href="#m6aac4728a4" x="596.548052" y="369.216291" style="fill: #ff0000; stroke: #ff0000"/>
     <use xlink:href="#m6aac4728a4" x="599.446753" y="369.346219" style="fill: #ff0000; stroke: #ff0000"/>
     <use xlink:href="#m6aac4728a4" x="602.345455" y="369.254653" style="fill: #ff0000; stroke: #ff0000"/>
     <use xlink:href="#m6aac4728a4" x="605.244156" y="368.869375" style="fill: #ff0000; stroke: #ff0000"/>
     <use xlink:href="#m6aac4728a4" x="611.041558" y="368.635312" style="fill: #ff0000; stroke: #ff0000"/>
     <use xlink:href="#m6aac4728a4" x="613.94026" y="368.732998" style="fill: #ff0000; stroke: #ff0000"/>
     <use xlink:href="#m6aac4728a4" x="616.838961" y="369.36" style="fill: #ff0000; stroke: #ff0000"/>
     <use xlink:href="#m6aac4728a4" x="619.737662" y="368.500673" style="fill: #ff0000; stroke: #ff0000"/>
     <use xlink:href="#m6aac4728a4" x="622.636364" y="369.139109" style="fill: #ff0000; stroke: #ff0000"/>
    </g>
   </g>
   <g id="patch_11">
    <path d="M 90 384.48 
L 90 51.84 
" style="fill: none; stroke: #000000; stroke-width: 0.8; stroke-linejoin: miter; stroke-linecap: square"/>
   </g>
   <g id="patch_12">
    <path d="M 708 384.48 
L 708 51.84 
" style="fill: none; stroke: #000000; stroke-width: 0.8; stroke-linejoin: miter; stroke-linecap: square"/>
   </g>
   <g id="patch_13">
    <path d="M 90 384.48 
L 648 384.48 
" style="fill: none; stroke: #000000; stroke-width: 0.8; stroke-linejoin: miter; stroke-linecap: square"/>
   </g>
   <g id="patch_14">
    <path d="M 90 51.84 
L 648 51.84 
" style="fill: none; stroke: #000000; stroke-width: 0.8; stroke-linejoin: miter; stroke-linecap: square"/>
   </g>
   <g id="text_33">
    <!-- 6004010256 每周需求量、收益与平均单价 -->
    <g transform="translate(258 45.84) scale(0.12 -0.12)">
     <defs>
      <path id="SimHei-20" transform="scale(0.015625)"/>
      <path id="SimHei-6bcf" d="M 5225 3650 
Q 5175 3150 5150 2675 
L 5125 2200 
Q 5525 2200 6000 2225 
L 6000 1775 
Q 5625 1800 5100 1800 
L 5050 650 
Q 5325 650 5700 675 
L 5700 225 
Q 5400 250 5025 250 
Q 5000 -275 4775 -425 
Q 4550 -575 4000 -650 
Q 3950 -400 3775 -125 
Q 4375 -125 4475 -50 
Q 4575 25 4575 250 
L 1400 250 
L 1500 1100 
L 1550 1800 
L 1275 1800 
Q 825 1800 550 1775 
L 550 2225 
Q 975 2200 1275 2200 
L 1575 2200 
L 1625 2825 
L 1675 3650 
L 5225 3650 
z
M 2350 5000 
Q 2175 4825 2050 4600 
L 4875 4600 
Q 5275 4600 5775 4625 
L 5775 4175 
Q 5275 4200 4875 4200 
L 1825 4200 
L 1375 3625 
Q 1125 3325 775 2975 
Q 600 3175 350 3300 
Q 725 3575 1150 4112 
Q 1575 4650 1825 5250 
Q 2125 5075 2350 5000 
z
M 1975 1800 
L 1875 650 
L 4625 650 
L 4675 1800 
L 2950 1800 
Q 3575 1275 3825 1125 
Q 3625 925 3475 725 
Q 3100 1100 2650 1475 
Q 2775 1675 2875 1800 
L 1975 1800 
z
M 2975 3250 
Q 3125 3150 3287 3012 
Q 3450 2875 3800 2550 
Q 3650 2350 3525 2200 
L 4700 2200 
L 4750 3250 
L 2975 3250 
z
M 2075 3250 
L 2000 2200 
L 3425 2200 
Q 3150 2500 3012 2625 
Q 2875 2750 2700 2900 
Q 2800 3050 2925 3250 
L 2075 3250 
z
" transform="scale(0.015625)"/>
      <path id="SimHei-3001" d="M 1725 -275 
Q 1325 700 925 1450 
L 1325 1650 
Q 1825 950 2325 25 
L 1725 -275 
z
" transform="scale(0.015625)"/>
      <path id="SimHei-4e0e" d="M 5350 100 
Q 5275 -300 4925 -425 
Q 4575 -550 3900 -600 
Q 3875 -375 3650 -25 
Q 4375 -50 4575 0 
Q 4775 50 4837 225 
Q 4900 400 5100 2350 
L 1125 2350 
Q 1450 4350 1475 5200 
Q 1800 5150 2075 5125 
Q 1975 4825 1900 4275 
L 4900 4275 
Q 5400 4275 5800 4300 
L 5800 3825 
Q 5400 3850 4950 3850 
L 1850 3850 
L 1700 2750 
L 5675 2750 
Q 5625 2450 5575 2050 
L 5350 100 
z
M 3675 1350 
Q 4125 1350 4500 1375 
L 4500 875 
Q 4125 900 3850 900 
L 1450 900 
Q 1000 900 500 875 
L 500 1375 
Q 1000 1350 1450 1350 
L 3675 1350 
z
" transform="scale(0.015625)"/>
     </defs>
     <use xlink:href="#SimHei-36"/>
     <use xlink:href="#SimHei-30" x="50"/>
     <use xlink:href="#SimHei-30" x="100"/>
     <use xlink:href="#SimHei-34" x="150"/>
     <use xlink:href="#SimHei-30" x="200"/>
     <use xlink:href="#SimHei-31" x="250"/>
     <use xlink:href="#SimHei-30" x="300"/>
     <use xlink:href="#SimHei-32" x="350"/>
     <use xlink:href="#SimHei-35" x="400"/>
     <use xlink:href="#SimHei-36" x="450"/>
     <use xlink:href="#SimHei-20" x="500"/>
     <use xlink:href="#SimHei-6bcf" x="550"/>
     <use xlink:href="#SimHei-5468" x="650"/>
     <use xlink:href="#SimHei-9700" x="750"/>
     <use xlink:href="#SimHei-6c42" x="850"/>
     <use xlink:href="#SimHei-91cf" x="950"/>
     <use xlink:href="#SimHei-3001" x="1050"/>
     <use xlink:href="#SimHei-6536" x="1150"/>
     <use xlink:href="#SimHei-76ca" x="1250"/>
     <use xlink:href="#SimHei-4e0e" x="1350"/>
     <use xlink:href="#SimHei-5e73" x="1450"/>
     <use xlink:href="#SimHei-5747" x="1550"/>
     <use xlink:href="#SimHei-5355" x="1650"/>
     <use xlink:href="#SimHei-4ef7" x="1750"/>
    </g>
   </g>
  </g>
 </g>
 <defs>
  <clipPath id="p3edd0ea5c5">
   <rect x="90" y="51.84" width="558" height="332.64"/>
  </clipPath>
 </defs>
</svg>
