<?xml version="1.0" encoding="utf-8" standalone="no"?>
<!DOCTYPE svg PUBLIC "-//W3C//DTD SVG 1.1//EN"
  "http://www.w3.org/Graphics/SVG/1.1/DTD/svg11.dtd">
<svg xmlns:xlink="http://www.w3.org/1999/xlink" width="720pt" height="432pt" viewBox="0 0 720 432" xmlns="http://www.w3.org/2000/svg" version="1.1">
 <metadata>
  <rdf:RDF xmlns:dc="http://purl.org/dc/elements/1.1/" xmlns:cc="http://creativecommons.org/ns#" xmlns:rdf="http://www.w3.org/1999/02/22-rdf-syntax-ns#">
   <cc:Work>
    <dc:type rdf:resource="http://purl.org/dc/dcmitype/StillImage"/>
    <dc:date>2024-08-17T14:06:56.114985</dc:date>
    <dc:format>image/svg+xml</dc:format>
    <dc:creator>
     <cc:Agent>
      <dc:title>Matplotlib v3.8.0, https://matplotlib.org/</dc:title>
     </cc:Agent>
    </dc:creator>
   </cc:Work>
  </rdf:RDF>
 </metadata>
 <defs>
  <style type="text/css">*{stroke-linejoin: round; stroke-linecap: butt}</style>
 </defs>
 <g id="figure_1">
  <g id="patch_1">
   <path d="M 0 432 
L 720 432 
L 720 0 
L 0 0 
z
" style="fill: #ffffff"/>
  </g>
  <g id="axes_1">
   <g id="patch_2">
    <path d="M 90 384.48 
L 648 384.48 
L 648 51.84 
L 90 51.84 
z
" style="fill: #ffffff"/>
   </g>
   <g id="matplotlib.axis_1">
    <g id="xtick_1">
     <g id="line2d_1">
      <path d="M 109.566234 384.48 
L 109.566234 51.84 
" clip-path="url(#pedb410d635)" style="fill: none; stroke: #b0b0b0; stroke-width: 0.8; stroke-linecap: square"/>
     </g>
     <g id="line2d_2">
      <defs>
       <path id="m8f221f3a7d" d="M 0 0 
L 0 3.5 
" style="stroke: #000000; stroke-width: 0.8"/>
      </defs>
      <g>
       <use xlink:href="#m8f221f3a7d" x="109.566234" y="384.48" style="stroke: #000000; stroke-width: 0.8"/>
      </g>
     </g>
     <g id="text_1">
      <!-- 0 -->
      <g transform="translate(107.066234 398.355) scale(0.1 -0.1)">
       <defs>
        <path id="SimHei-30" d="M 225 2537 
Q 250 3200 412 3587 
Q 575 3975 875 4225 
Q 1175 4475 1612 4475 
Q 2050 4475 2375 4112 
Q 2700 3750 2800 3200 
Q 2900 2650 2862 1937 
Q 2825 1225 2612 775 
Q 2400 325 1975 150 
Q 1550 -25 1125 187 
Q 700 400 525 750 
Q 350 1100 275 1487 
Q 200 1875 225 2537 
z
M 750 2687 
Q 675 2000 800 1462 
Q 925 925 1212 700 
Q 1500 475 1800 612 
Q 2100 750 2237 1162 
Q 2375 1575 2375 2062 
Q 2375 2550 2337 2950 
Q 2300 3350 2112 3675 
Q 1925 4000 1612 4012 
Q 1300 4025 1062 3700 
Q 825 3375 750 2687 
z
" transform="scale(0.015625)"/>
       </defs>
       <use xlink:href="#SimHei-30"/>
      </g>
     </g>
    </g>
    <g id="xtick_2">
     <g id="line2d_3">
      <path d="M 182.033766 384.48 
L 182.033766 51.84 
" clip-path="url(#pedb410d635)" style="fill: none; stroke: #b0b0b0; stroke-width: 0.8; stroke-linecap: square"/>
     </g>
     <g id="line2d_4">
      <g>
       <use xlink:href="#m8f221f3a7d" x="182.033766" y="384.48" style="stroke: #000000; stroke-width: 0.8"/>
      </g>
     </g>
     <g id="text_2">
      <!-- 25 -->
      <g transform="translate(177.033766 398.355) scale(0.1 -0.1)">
       <defs>
        <path id="SimHei-32" d="M 300 250 
Q 325 625 650 925 
Q 975 1225 1475 1862 
Q 1975 2500 2125 2850 
Q 2275 3200 2237 3450 
Q 2200 3700 2000 3862 
Q 1800 4025 1537 4000 
Q 1275 3975 1037 3800 
Q 800 3625 675 3275 
L 200 3350 
Q 400 3925 712 4187 
Q 1025 4450 1450 4475 
Q 1700 4500 1900 4462 
Q 2100 4425 2312 4287 
Q 2525 4150 2662 3875 
Q 2800 3600 2762 3212 
Q 2725 2825 2375 2287 
Q 2025 1750 1025 600 
L 2825 600 
L 2825 150 
L 300 150 
L 300 250 
z
" transform="scale(0.015625)"/>
        <path id="SimHei-35" d="M 550 1325 
Q 725 650 1150 575 
Q 1575 500 1837 662 
Q 2100 825 2212 1087 
Q 2325 1350 2312 1675 
Q 2300 2000 2137 2225 
Q 1975 2450 1725 2525 
Q 1475 2600 1162 2525 
Q 850 2450 650 2175 
L 225 2225 
Q 275 2375 700 4375 
L 2675 4375 
L 2675 3925 
L 1075 3925 
Q 950 3250 825 2850 
Q 1200 3025 1525 3012 
Q 1850 3000 2150 2862 
Q 2450 2725 2587 2487 
Q 2725 2250 2787 2012 
Q 2850 1775 2837 1500 
Q 2825 1225 2725 937 
Q 2625 650 2425 462 
Q 2225 275 1937 162 
Q 1650 50 1275 75 
Q 900 100 562 350 
Q 225 600 100 1200 
L 550 1325 
z
" transform="scale(0.015625)"/>
       </defs>
       <use xlink:href="#SimHei-32"/>
       <use xlink:href="#SimHei-35" x="50"/>
      </g>
     </g>
    </g>
    <g id="xtick_3">
     <g id="line2d_5">
      <path d="M 254.501299 384.48 
L 254.501299 51.84 
" clip-path="url(#pedb410d635)" style="fill: none; stroke: #b0b0b0; stroke-width: 0.8; stroke-linecap: square"/>
     </g>
     <g id="line2d_6">
      <g>
       <use xlink:href="#m8f221f3a7d" x="254.501299" y="384.48" style="stroke: #000000; stroke-width: 0.8"/>
      </g>
     </g>
     <g id="text_3">
      <!-- 50 -->
      <g transform="translate(249.501299 398.355) scale(0.1 -0.1)">
       <use xlink:href="#SimHei-35"/>
       <use xlink:href="#SimHei-30" x="50"/>
      </g>
     </g>
    </g>
    <g id="xtick_4">
     <g id="line2d_7">
      <path d="M 326.968831 384.48 
L 326.968831 51.84 
" clip-path="url(#pedb410d635)" style="fill: none; stroke: #b0b0b0; stroke-width: 0.8; stroke-linecap: square"/>
     </g>
     <g id="line2d_8">
      <g>
       <use xlink:href="#m8f221f3a7d" x="326.968831" y="384.48" style="stroke: #000000; stroke-width: 0.8"/>
      </g>
     </g>
     <g id="text_4">
      <!-- 75 -->
      <g transform="translate(321.968831 398.355) scale(0.1 -0.1)">
       <defs>
        <path id="SimHei-37" d="M 850 150 
Q 1300 2050 2425 3925 
L 275 3925 
L 275 4375 
L 2950 4375 
L 2950 3950 
Q 1775 2050 1400 150 
L 850 150 
z
" transform="scale(0.015625)"/>
       </defs>
       <use xlink:href="#SimHei-37"/>
       <use xlink:href="#SimHei-35" x="50"/>
      </g>
     </g>
    </g>
    <g id="xtick_5">
     <g id="line2d_9">
      <path d="M 399.436364 384.48 
L 399.436364 51.84 
" clip-path="url(#pedb410d635)" style="fill: none; stroke: #b0b0b0; stroke-width: 0.8; stroke-linecap: square"/>
     </g>
     <g id="line2d_10">
      <g>
       <use xlink:href="#m8f221f3a7d" x="399.436364" y="384.48" style="stroke: #000000; stroke-width: 0.8"/>
      </g>
     </g>
     <g id="text_5">
      <!-- 100 -->
      <g transform="translate(391.936364 398.355) scale(0.1 -0.1)">
       <defs>
        <path id="SimHei-31" d="M 1400 3600 
Q 1075 3275 575 2975 
L 575 3450 
Q 1200 3875 1600 4450 
L 1900 4450 
L 1900 150 
L 1400 150 
L 1400 3600 
z
" transform="scale(0.015625)"/>
       </defs>
       <use xlink:href="#SimHei-31"/>
       <use xlink:href="#SimHei-30" x="50"/>
       <use xlink:href="#SimHei-30" x="100"/>
      </g>
     </g>
    </g>
    <g id="xtick_6">
     <g id="line2d_11">
      <path d="M 471.903896 384.48 
L 471.903896 51.84 
" clip-path="url(#pedb410d635)" style="fill: none; stroke: #b0b0b0; stroke-width: 0.8; stroke-linecap: square"/>
     </g>
     <g id="line2d_12">
      <g>
       <use xlink:href="#m8f221f3a7d" x="471.903896" y="384.48" style="stroke: #000000; stroke-width: 0.8"/>
      </g>
     </g>
     <g id="text_6">
      <!-- 125 -->
      <g transform="translate(464.403896 398.355) scale(0.1 -0.1)">
       <use xlink:href="#SimHei-31"/>
       <use xlink:href="#SimHei-32" x="50"/>
       <use xlink:href="#SimHei-35" x="100"/>
      </g>
     </g>
    </g>
    <g id="xtick_7">
     <g id="line2d_13">
      <path d="M 544.371429 384.48 
L 544.371429 51.84 
" clip-path="url(#pedb410d635)" style="fill: none; stroke: #b0b0b0; stroke-width: 0.8; stroke-linecap: square"/>
     </g>
     <g id="line2d_14">
      <g>
       <use xlink:href="#m8f221f3a7d" x="544.371429" y="384.48" style="stroke: #000000; stroke-width: 0.8"/>
      </g>
     </g>
     <g id="text_7">
      <!-- 150 -->
      <g transform="translate(536.871429 398.355) scale(0.1 -0.1)">
       <use xlink:href="#SimHei-31"/>
       <use xlink:href="#SimHei-35" x="50"/>
       <use xlink:href="#SimHei-30" x="100"/>
      </g>
     </g>
    </g>
    <g id="xtick_8">
     <g id="line2d_15">
      <path d="M 616.838961 384.48 
L 616.838961 51.84 
" clip-path="url(#pedb410d635)" style="fill: none; stroke: #b0b0b0; stroke-width: 0.8; stroke-linecap: square"/>
     </g>
     <g id="line2d_16">
      <g>
       <use xlink:href="#m8f221f3a7d" x="616.838961" y="384.48" style="stroke: #000000; stroke-width: 0.8"/>
      </g>
     </g>
     <g id="text_8">
      <!-- 175 -->
      <g transform="translate(609.338961 398.355) scale(0.1 -0.1)">
       <use xlink:href="#SimHei-31"/>
       <use xlink:href="#SimHei-37" x="50"/>
       <use xlink:href="#SimHei-35" x="100"/>
      </g>
     </g>
    </g>
    <g id="text_9">
     <!-- 周数 -->
     <g transform="translate(359 411.339375) scale(0.1 -0.1)">
      <defs>
       <path id="SimHei-5468" d="M 5600 4925 
Q 5575 4400 5575 3800 
L 5575 50 
Q 5550 -375 5325 -462 
Q 5100 -550 4325 -600 
Q 4300 -400 4125 -75 
Q 4800 -100 4962 -37 
Q 5125 25 5100 225 
L 5100 4525 
L 1500 4525 
Q 1500 2575 1450 1887 
Q 1400 1200 1237 550 
Q 1075 -100 775 -625 
Q 625 -450 275 -225 
Q 650 225 825 1000 
Q 1000 1775 1025 2587 
Q 1050 3400 1000 4925 
L 5600 4925 
z
M 2050 325 
Q 2075 625 2075 950 
L 2075 1400 
Q 2075 1625 2050 1925 
L 4400 1925 
Q 4375 1725 4375 1450 
L 4375 875 
Q 4375 600 4400 325 
L 2050 325 
z
M 3000 3800 
Q 3000 4150 2975 4375 
L 3475 4375 
Q 3450 4075 3450 3800 
Q 4100 3800 4475 3825 
L 4475 3350 
Q 4125 3375 3450 3375 
L 3450 2800 
Q 4200 2800 4825 2825 
L 4825 2350 
Q 4175 2375 3725 2375 
L 2750 2375 
Q 2325 2375 1725 2350 
L 1725 2825 
Q 2325 2800 3000 2800 
L 3000 3375 
Q 2500 3375 1975 3350 
L 1975 3825 
Q 2475 3800 3000 3800 
z
M 3900 725 
L 3900 1525 
L 2550 1525 
L 2550 725 
L 3900 725 
z
" transform="scale(0.015625)"/>
       <path id="SimHei-6570" d="M 4525 4925 
Q 4475 4800 4400 4587 
Q 4325 4375 4175 3825 
L 5325 3825 
Q 5575 3825 5925 3850 
L 5925 3400 
Q 5650 3425 5500 3425 
Q 5500 3025 5362 2162 
Q 5225 1300 4875 675 
Q 5125 375 5437 137 
Q 5750 -100 6025 -200 
Q 5725 -425 5625 -625 
Q 5325 -450 5075 -225 
Q 4825 0 4575 325 
Q 4300 25 3987 -187 
Q 3675 -400 3200 -650 
Q 3075 -425 2850 -300 
Q 3225 -150 3650 125 
Q 4075 400 4300 675 
Q 4125 1025 3962 1425 
Q 3800 1825 3675 2475 
Q 3600 2275 3425 1950 
Q 3250 2050 3000 2150 
Q 3400 2850 3650 3675 
Q 3900 4500 3975 5100 
Q 4275 4975 4525 4925 
z
M 2100 2250 
Q 2000 2150 1875 1925 
L 3250 1925 
Q 3100 1300 2725 675 
Q 3125 525 3350 400 
Q 3225 225 3125 25 
Q 2900 175 2450 325 
Q 1950 -225 725 -650 
Q 600 -375 400 -275 
Q 1575 0 2000 475 
Q 1300 650 850 775 
Q 1000 1000 1250 1525 
Q 1000 1525 425 1500 
L 425 1950 
Q 900 1925 1400 1925 
Q 1500 2150 1550 2425 
Q 1825 2325 2100 2250 
z
M 1775 3950 
Q 1775 4550 1750 5100 
L 2250 5100 
Q 2225 4575 2225 3950 
Q 3075 3950 3425 3975 
L 3425 3525 
Q 3075 3550 2225 3550 
Q 2225 2825 2250 2425 
L 1750 2425 
Q 1775 2775 1775 3300 
Q 1650 3100 1300 2787 
Q 950 2475 650 2300 
Q 525 2525 275 2625 
Q 500 2700 875 2975 
Q 1250 3250 1450 3550 
Q 950 3550 500 3525 
L 500 3975 
Q 925 3950 1775 3950 
z
M 3975 3175 
Q 4200 1700 4600 1125 
Q 4850 1700 4937 2287 
Q 5025 2875 5050 3425 
L 4075 3425 
L 3975 3175 
z
M 1450 1000 
Q 1750 925 2275 800 
Q 2475 1050 2650 1525 
L 1725 1525 
Q 1600 1275 1450 1000 
z
M 3325 4825 
Q 3200 4625 3125 4450 
Q 3050 4275 2925 4025 
Q 2725 4125 2525 4175 
Q 2725 4500 2900 5000 
Q 3150 4875 3325 4825 
z
M 2575 3375 
Q 2900 3050 3200 2725 
Q 3050 2600 2875 2425 
Q 2525 2850 2300 3100 
Q 2450 3225 2575 3375 
z
M 925 5000 
Q 1275 4650 1500 4300 
L 1125 4075 
Q 950 4425 600 4725 
Q 825 4875 925 5000 
z
" transform="scale(0.015625)"/>
      </defs>
      <use xlink:href="#SimHei-5468"/>
      <use xlink:href="#SimHei-6570" x="100"/>
     </g>
    </g>
   </g>
   <g id="matplotlib.axis_2">
    <g id="ytick_1">
     <g id="line2d_17">
      <path d="M 90 375.060379 
L 648 375.060379 
" clip-path="url(#pedb410d635)" style="fill: none; stroke: #b0b0b0; stroke-width: 0.8; stroke-linecap: square"/>
     </g>
     <g id="line2d_18">
      <defs>
       <path id="m1ac1bbcc5f" d="M 0 0 
L -3.5 0 
" style="stroke: #000000; stroke-width: 0.8"/>
      </defs>
      <g>
       <use xlink:href="#m1ac1bbcc5f" x="90" y="375.060379" style="stroke: #000000; stroke-width: 0.8"/>
      </g>
     </g>
     <g id="text_10">
      <!-- 0 -->
      <g transform="translate(78 378.497879) scale(0.1 -0.1)">
       <use xlink:href="#SimHei-30"/>
      </g>
     </g>
    </g>
    <g id="ytick_2">
     <g id="line2d_19">
      <path d="M 90 330.10143 
L 648 330.10143 
" clip-path="url(#pedb410d635)" style="fill: none; stroke: #b0b0b0; stroke-width: 0.8; stroke-linecap: square"/>
     </g>
     <g id="line2d_20">
      <g>
       <use xlink:href="#m1ac1bbcc5f" x="90" y="330.10143" style="stroke: #000000; stroke-width: 0.8"/>
      </g>
     </g>
     <g id="text_11">
      <!-- 10000 -->
      <g transform="translate(58 333.53893) scale(0.1 -0.1)">
       <use xlink:href="#SimHei-31"/>
       <use xlink:href="#SimHei-30" x="50"/>
       <use xlink:href="#SimHei-30" x="100"/>
       <use xlink:href="#SimHei-30" x="150"/>
       <use xlink:href="#SimHei-30" x="200"/>
      </g>
     </g>
    </g>
    <g id="ytick_3">
     <g id="line2d_21">
      <path d="M 90 285.14248 
L 648 285.14248 
" clip-path="url(#pedb410d635)" style="fill: none; stroke: #b0b0b0; stroke-width: 0.8; stroke-linecap: square"/>
     </g>
     <g id="line2d_22">
      <g>
       <use xlink:href="#m1ac1bbcc5f" x="90" y="285.14248" style="stroke: #000000; stroke-width: 0.8"/>
      </g>
     </g>
     <g id="text_12">
      <!-- 20000 -->
      <g transform="translate(58 288.57998) scale(0.1 -0.1)">
       <use xlink:href="#SimHei-32"/>
       <use xlink:href="#SimHei-30" x="50"/>
       <use xlink:href="#SimHei-30" x="100"/>
       <use xlink:href="#SimHei-30" x="150"/>
       <use xlink:href="#SimHei-30" x="200"/>
      </g>
     </g>
    </g>
    <g id="ytick_4">
     <g id="line2d_23">
      <path d="M 90 240.183531 
L 648 240.183531 
" clip-path="url(#pedb410d635)" style="fill: none; stroke: #b0b0b0; stroke-width: 0.8; stroke-linecap: square"/>
     </g>
     <g id="line2d_24">
      <g>
       <use xlink:href="#m1ac1bbcc5f" x="90" y="240.183531" style="stroke: #000000; stroke-width: 0.8"/>
      </g>
     </g>
     <g id="text_13">
      <!-- 30000 -->
      <g transform="translate(58 243.621031) scale(0.1 -0.1)">
       <defs>
        <path id="SimHei-33" d="M 250 1225 
L 700 1300 
Q 800 975 1025 762 
Q 1250 550 1587 562 
Q 1925 575 2125 837 
Q 2325 1100 2300 1437 
Q 2275 1775 2037 1962 
Q 1800 2150 1275 2225 
L 1275 2550 
Q 1800 2600 2037 2825 
Q 2275 3050 2250 3412 
Q 2225 3775 1925 3937 
Q 1625 4100 1287 3975 
Q 950 3850 750 3275 
L 300 3350 
Q 450 3800 712 4100 
Q 975 4400 1425 4450 
Q 1875 4500 2212 4337 
Q 2550 4175 2687 3837 
Q 2825 3500 2725 3100 
Q 2625 2700 2150 2400 
Q 2500 2250 2687 1950 
Q 2875 1650 2812 1162 
Q 2750 675 2375 375 
Q 2000 75 1525 87 
Q 1050 100 700 387 
Q 350 675 250 1225 
z
" transform="scale(0.015625)"/>
       </defs>
       <use xlink:href="#SimHei-33"/>
       <use xlink:href="#SimHei-30" x="50"/>
       <use xlink:href="#SimHei-30" x="100"/>
       <use xlink:href="#SimHei-30" x="150"/>
       <use xlink:href="#SimHei-30" x="200"/>
      </g>
     </g>
    </g>
    <g id="ytick_5">
     <g id="line2d_25">
      <path d="M 90 195.224581 
L 648 195.224581 
" clip-path="url(#pedb410d635)" style="fill: none; stroke: #b0b0b0; stroke-width: 0.8; stroke-linecap: square"/>
     </g>
     <g id="line2d_26">
      <g>
       <use xlink:href="#m1ac1bbcc5f" x="90" y="195.224581" style="stroke: #000000; stroke-width: 0.8"/>
      </g>
     </g>
     <g id="text_14">
      <!-- 40000 -->
      <g transform="translate(58 198.662081) scale(0.1 -0.1)">
       <defs>
        <path id="SimHei-34" d="M 2000 1100 
L 75 1100 
L 75 1525 
L 2100 4450 
L 2475 4450 
L 2475 1525 
L 3075 1525 
L 3075 1100 
L 2475 1100 
L 2475 150 
L 2000 150 
L 2000 1100 
z
M 2000 1525 
L 2000 3500 
L 600 1525 
L 2000 1525 
z
" transform="scale(0.015625)"/>
       </defs>
       <use xlink:href="#SimHei-34"/>
       <use xlink:href="#SimHei-30" x="50"/>
       <use xlink:href="#SimHei-30" x="100"/>
       <use xlink:href="#SimHei-30" x="150"/>
       <use xlink:href="#SimHei-30" x="200"/>
      </g>
     </g>
    </g>
    <g id="ytick_6">
     <g id="line2d_27">
      <path d="M 90 150.265631 
L 648 150.265631 
" clip-path="url(#pedb410d635)" style="fill: none; stroke: #b0b0b0; stroke-width: 0.8; stroke-linecap: square"/>
     </g>
     <g id="line2d_28">
      <g>
       <use xlink:href="#m1ac1bbcc5f" x="90" y="150.265631" style="stroke: #000000; stroke-width: 0.8"/>
      </g>
     </g>
     <g id="text_15">
      <!-- 50000 -->
      <g transform="translate(58 153.703131) scale(0.1 -0.1)">
       <use xlink:href="#SimHei-35"/>
       <use xlink:href="#SimHei-30" x="50"/>
       <use xlink:href="#SimHei-30" x="100"/>
       <use xlink:href="#SimHei-30" x="150"/>
       <use xlink:href="#SimHei-30" x="200"/>
      </g>
     </g>
    </g>
    <g id="ytick_7">
     <g id="line2d_29">
      <path d="M 90 105.306682 
L 648 105.306682 
" clip-path="url(#pedb410d635)" style="fill: none; stroke: #b0b0b0; stroke-width: 0.8; stroke-linecap: square"/>
     </g>
     <g id="line2d_30">
      <g>
       <use xlink:href="#m1ac1bbcc5f" x="90" y="105.306682" style="stroke: #000000; stroke-width: 0.8"/>
      </g>
     </g>
     <g id="text_16">
      <!-- 60000 -->
      <g transform="translate(58 108.744182) scale(0.1 -0.1)">
       <defs>
        <path id="SimHei-36" d="M 250 1612 
Q 275 1975 387 2225 
Q 500 2475 725 2850 
L 1750 4450 
L 2325 4450 
L 1275 2800 
Q 1950 2975 2350 2750 
Q 2750 2525 2887 2237 
Q 3025 1950 3037 1612 
Q 3050 1275 2937 950 
Q 2825 625 2537 362 
Q 2250 100 1737 75 
Q 1225 50 862 262 
Q 500 475 362 862 
Q 225 1250 250 1612 
z
M 1025 787 
Q 1250 550 1625 525 
Q 2000 500 2250 775 
Q 2500 1050 2500 1575 
Q 2500 2100 2187 2300 
Q 1875 2500 1487 2450 
Q 1100 2400 925 2075 
Q 750 1750 775 1387 
Q 800 1025 1025 787 
z
" transform="scale(0.015625)"/>
       </defs>
       <use xlink:href="#SimHei-36"/>
       <use xlink:href="#SimHei-30" x="50"/>
       <use xlink:href="#SimHei-30" x="100"/>
       <use xlink:href="#SimHei-30" x="150"/>
       <use xlink:href="#SimHei-30" x="200"/>
      </g>
     </g>
    </g>
    <g id="ytick_8">
     <g id="line2d_31">
      <path d="M 90 60.347732 
L 648 60.347732 
" clip-path="url(#pedb410d635)" style="fill: none; stroke: #b0b0b0; stroke-width: 0.8; stroke-linecap: square"/>
     </g>
     <g id="line2d_32">
      <g>
       <use xlink:href="#m1ac1bbcc5f" x="90" y="60.347732" style="stroke: #000000; stroke-width: 0.8"/>
      </g>
     </g>
     <g id="text_17">
      <!-- 70000 -->
      <g transform="translate(58 63.785232) scale(0.1 -0.1)">
       <use xlink:href="#SimHei-37"/>
       <use xlink:href="#SimHei-30" x="50"/>
       <use xlink:href="#SimHei-30" x="100"/>
       <use xlink:href="#SimHei-30" x="150"/>
       <use xlink:href="#SimHei-30" x="200"/>
      </g>
     </g>
    </g>
    <g id="text_18">
     <!-- 收益 -->
     <g transform="translate(52.75 228.16) rotate(-90) scale(0.1 -0.1)">
      <defs>
       <path id="SimHei-6536" d="M 4250 5050 
Q 4125 4850 3750 4050 
L 5150 4050 
Q 5675 4050 6125 4075 
L 6125 3600 
Q 5675 3625 5300 3625 
Q 5225 2625 5025 1975 
Q 4825 1325 4575 900 
Q 4900 500 5287 275 
Q 5675 50 6200 -75 
Q 5900 -275 5800 -550 
Q 5300 -350 4950 -100 
Q 4600 150 4275 525 
Q 3800 0 2775 -625 
Q 2650 -425 2300 -225 
Q 3275 150 3950 925 
Q 3775 1325 3612 1787 
Q 3450 2250 3250 3000 
Q 2975 2450 2825 2275 
Q 2650 2400 2425 2525 
Q 2775 3025 3137 3837 
Q 3500 4650 3625 5250 
Q 3925 5125 4250 5050 
z
M 975 4275 
Q 925 3950 925 3450 
L 925 1575 
L 1775 1725 
L 1775 4425 
Q 1775 4775 1750 5150 
L 2250 5150 
Q 2225 4850 2225 4450 
L 2225 300 
Q 2225 -50 2250 -550 
L 1750 -550 
Q 1775 -25 1775 350 
L 1775 1350 
Q 625 1050 500 925 
Q 375 1125 225 1350 
Q 450 1475 450 1800 
L 450 3575 
Q 450 3925 425 4275 
L 975 4275 
z
M 3725 3150 
Q 3800 2700 3962 2212 
Q 4125 1725 4300 1375 
Q 4725 2150 4825 3625 
L 3575 3625 
Q 3400 3275 3300 3100 
L 3725 3150 
z
" transform="scale(0.015625)"/>
       <path id="SimHei-76ca" d="M 2825 2925 
Q 2425 2775 2012 2487 
Q 1600 2200 1225 1975 
L 5275 1975 
Q 5250 1575 5250 1000 
L 5250 -50 
Q 5800 -50 6175 -25 
L 6175 -525 
Q 5725 -500 5250 -500 
L 1325 -500 
Q 700 -500 250 -525 
L 250 -25 
Q 600 -50 1175 -50 
L 1175 1050 
Q 1175 1575 1150 1925 
Q 1000 1800 800 1700 
Q 650 1950 425 2125 
Q 800 2275 1312 2600 
Q 1825 2925 2325 3400 
Q 2550 3150 2825 2925 
z
M 4725 5050 
Q 4575 4900 4462 4637 
Q 4350 4375 4175 4075 
L 4625 4075 
Q 5350 4075 5900 4100 
L 5900 3625 
Q 5350 3650 4625 3650 
L 1975 3650 
Q 1350 3650 550 3625 
L 550 4100 
Q 1175 4075 1975 4075 
L 3675 4075 
Q 3775 4300 3887 4625 
Q 4000 4950 4125 5250 
L 4725 5050 
z
M 3600 -50 
L 3600 1575 
L 2800 1575 
L 2800 -50 
L 3600 -50 
z
M 4800 -50 
L 4800 1575 
L 4025 1575 
L 4025 -50 
L 4800 -50 
z
M 2375 -50 
L 2375 1575 
L 1625 1575 
L 1625 -50 
L 2375 -50 
z
M 3900 3350 
Q 4375 3150 4900 2925 
Q 5425 2700 5900 2500 
Q 5700 2300 5550 2000 
Q 5025 2300 4512 2537 
Q 4000 2775 3625 2900 
Q 3750 3075 3900 3350 
z
M 2150 5250 
Q 2375 4925 2650 4350 
Q 2425 4275 2150 4125 
Q 1950 4650 1675 5025 
Q 1875 5100 2150 5250 
z
" transform="scale(0.015625)"/>
      </defs>
      <use xlink:href="#SimHei-6536"/>
      <use xlink:href="#SimHei-76ca" x="100"/>
     </g>
    </g>
   </g>
   <g id="line2d_33">
    <path d="M 115.363636 369.349289 
L 132.755844 369.349289 
L 135.654545 335.082746 
L 138.553247 369.349289 
L 141.451948 363.638198 
L 150.148052 312.873636 
L 153.046753 369.349289 
L 155.945455 361.607863 
L 158.844156 346.504927 
L 164.641558 346.504927 
L 167.54026 309.828132 
L 170.438961 322.265481 
L 179.135065 357.927108 
L 182.033766 304.117042 
L 184.932468 300.816204 
L 187.831169 361.607863 
L 190.72987 322.265481 
L 193.628571 369.349289 
L 196.527273 355.896772 
L 199.425974 352.216018 
L 202.324675 363.638198 
L 205.223377 369.349289 
L 211.020779 313.888804 
L 219.716883 351.20085 
L 222.615584 341.429088 
L 225.514286 355.896772 
L 228.412987 357.927108 
L 231.311688 357.927108 
L 237.109091 354.881604 
L 240.007792 306.147377 
L 242.906494 363.638198 
L 245.805195 342.444256 
L 248.703896 342.444256 
L 251.602597 277.212008 
L 254.501299 361.749706 
L 257.4 369.349289 
L 260.298701 235.054476 
L 263.197403 288.541002 
L 266.096104 349.734925 
L 283.488312 361.749706 
L 286.387013 368.405043 
L 289.285714 368.334121 
L 292.184416 348.163123 
L 295.083117 334.57654 
L 297.981818 341.892358 
L 300.880519 368.334121 
L 306.677922 274.542105 
L 309.576623 271.818028 
L 312.475325 361.749706 
L 318.272727 333.459107 
L 321.171429 334.680924 
L 324.07013 312.951185 
L 326.968831 285.899977 
L 329.867532 309.740711 
L 332.766234 341.090106 
L 335.664935 362.520555 
L 338.563636 238.485696 
L 341.462338 300.083653 
L 344.361039 347.745443 
L 347.25974 341.226286 
L 350.158442 253.618479 
L 353.057143 293.755965 
L 355.955844 342.357002 
L 358.854545 361.464826 
L 361.753247 313.998338 
L 364.651948 334.423942 
L 367.550649 267.585246 
L 370.449351 361.486052 
L 373.348052 322.521874 
L 379.145455 348.396632 
L 382.044156 232.112513 
L 384.942857 66.96 
L 387.841558 310.323985 
L 390.74026 329.288693 
L 393.638961 277.541427 
L 396.537662 141.518473 
L 399.436364 254.441367 
L 402.335065 343.186362 
L 405.233766 207.434488 
L 408.132468 159.864431 
L 411.031169 356.424618 
L 413.92987 255.327925 
L 416.828571 344.307029 
L 419.727273 351.518861 
L 422.625974 177.481217 
L 425.524675 351.335287 
L 434.220779 277.28636 
L 437.119481 356.930487 
L 440.018182 350.870443 
L 442.916883 286.291054 
L 445.815584 314.196927 
L 448.714286 327.553161 
L 451.612987 315.526555 
L 454.511688 333.89024 
L 457.41039 275.162495 
L 460.309091 234.372033 
L 463.207792 298.718154 
L 466.106494 333.754202 
L 469.005195 328.164264 
L 471.903896 264.646193 
L 474.802597 241.891783 
L 477.701299 317.104168 
L 480.6 340.43121 
L 483.498701 236.053858 
L 486.397403 311.725353 
L 489.296104 363.511915 
L 492.194805 306.036146 
L 495.093506 322.370951 
L 497.992208 288.721562 
L 500.890909 369.337876 
L 503.78961 265.994005 
L 506.688312 237.635596 
L 509.587013 352.210022 
L 512.485714 283.500325 
L 515.384416 306.121231 
L 518.283117 340.774929 
L 521.181818 352.060597 
L 524.080519 340.599857 
L 526.979221 335.100922 
L 529.877922 334.616907 
L 532.776623 323.659361 
L 535.675325 289.384474 
L 538.574026 266.594746 
L 541.472727 340.81753 
L 544.371429 352.222308 
L 547.27013 312.300513 
L 550.168831 346.49708 
L 553.067532 323.772521 
L 555.966234 306.660339 
L 558.864935 249.698007 
L 561.763636 357.964427 
L 564.662338 357.969612 
L 567.561039 312.400576 
L 570.45974 357.974024 
L 582.054545 352.279167 
L 584.953247 312.407441 
L 587.851948 346.569611 
L 590.750649 369.36 
L 593.649351 340.887711 
L 596.548052 352.278516 
L 599.446753 312.41611 
L 602.345455 323.802602 
L 605.244156 340.879059 
L 611.041558 346.571152 
L 613.94026 340.875707 
L 616.838961 329.501363 
L 619.737662 323.774806 
L 622.636364 352.277252 
L 622.636364 352.277252 
" clip-path="url(#pedb410d635)" style="fill: none; stroke: #008000; stroke-width: 1.5; stroke-linecap: square"/>
    <defs>
     <path id="m14de95d1a3" d="M 0 3 
C 0.795609 3 1.55874 2.683901 2.12132 2.12132 
C 2.683901 1.55874 3 0.795609 3 0 
C 3 -0.795609 2.683901 -1.55874 2.12132 -2.12132 
C 1.55874 -2.683901 0.795609 -3 0 -3 
C -0.795609 -3 -1.55874 -2.683901 -2.12132 -2.12132 
C -2.683901 -1.55874 -3 -0.795609 -3 0 
C -3 0.795609 -2.683901 1.55874 -2.12132 2.12132 
C -1.55874 2.683901 -0.795609 3 0 3 
z
" style="stroke: #008000"/>
    </defs>
    <g clip-path="url(#pedb410d635)">
     <use xlink:href="#m14de95d1a3" x="115.363636" y="369.349289" style="fill: #008000; stroke: #008000"/>
     <use xlink:href="#m14de95d1a3" x="132.755844" y="369.349289" style="fill: #008000; stroke: #008000"/>
     <use xlink:href="#m14de95d1a3" x="135.654545" y="335.082746" style="fill: #008000; stroke: #008000"/>
     <use xlink:href="#m14de95d1a3" x="138.553247" y="369.349289" style="fill: #008000; stroke: #008000"/>
     <use xlink:href="#m14de95d1a3" x="141.451948" y="363.638198" style="fill: #008000; stroke: #008000"/>
     <use xlink:href="#m14de95d1a3" x="150.148052" y="312.873636" style="fill: #008000; stroke: #008000"/>
     <use xlink:href="#m14de95d1a3" x="153.046753" y="369.349289" style="fill: #008000; stroke: #008000"/>
     <use xlink:href="#m14de95d1a3" x="155.945455" y="361.607863" style="fill: #008000; stroke: #008000"/>
     <use xlink:href="#m14de95d1a3" x="158.844156" y="346.504927" style="fill: #008000; stroke: #008000"/>
     <use xlink:href="#m14de95d1a3" x="164.641558" y="346.504927" style="fill: #008000; stroke: #008000"/>
     <use xlink:href="#m14de95d1a3" x="167.54026" y="309.828132" style="fill: #008000; stroke: #008000"/>
     <use xlink:href="#m14de95d1a3" x="170.438961" y="322.265481" style="fill: #008000; stroke: #008000"/>
     <use xlink:href="#m14de95d1a3" x="179.135065" y="357.927108" style="fill: #008000; stroke: #008000"/>
     <use xlink:href="#m14de95d1a3" x="182.033766" y="304.117042" style="fill: #008000; stroke: #008000"/>
     <use xlink:href="#m14de95d1a3" x="184.932468" y="300.816204" style="fill: #008000; stroke: #008000"/>
     <use xlink:href="#m14de95d1a3" x="187.831169" y="361.607863" style="fill: #008000; stroke: #008000"/>
     <use xlink:href="#m14de95d1a3" x="190.72987" y="322.265481" style="fill: #008000; stroke: #008000"/>
     <use xlink:href="#m14de95d1a3" x="193.628571" y="369.349289" style="fill: #008000; stroke: #008000"/>
     <use xlink:href="#m14de95d1a3" x="196.527273" y="355.896772" style="fill: #008000; stroke: #008000"/>
     <use xlink:href="#m14de95d1a3" x="199.425974" y="352.216018" style="fill: #008000; stroke: #008000"/>
     <use xlink:href="#m14de95d1a3" x="202.324675" y="363.638198" style="fill: #008000; stroke: #008000"/>
     <use xlink:href="#m14de95d1a3" x="205.223377" y="369.349289" style="fill: #008000; stroke: #008000"/>
     <use xlink:href="#m14de95d1a3" x="211.020779" y="313.888804" style="fill: #008000; stroke: #008000"/>
     <use xlink:href="#m14de95d1a3" x="219.716883" y="351.20085" style="fill: #008000; stroke: #008000"/>
     <use xlink:href="#m14de95d1a3" x="222.615584" y="341.429088" style="fill: #008000; stroke: #008000"/>
     <use xlink:href="#m14de95d1a3" x="225.514286" y="355.896772" style="fill: #008000; stroke: #008000"/>
     <use xlink:href="#m14de95d1a3" x="228.412987" y="357.927108" style="fill: #008000; stroke: #008000"/>
     <use xlink:href="#m14de95d1a3" x="231.311688" y="357.927108" style="fill: #008000; stroke: #008000"/>
     <use xlink:href="#m14de95d1a3" x="237.109091" y="354.881604" style="fill: #008000; stroke: #008000"/>
     <use xlink:href="#m14de95d1a3" x="240.007792" y="306.147377" style="fill: #008000; stroke: #008000"/>
     <use xlink:href="#m14de95d1a3" x="242.906494" y="363.638198" style="fill: #008000; stroke: #008000"/>
     <use xlink:href="#m14de95d1a3" x="245.805195" y="342.444256" style="fill: #008000; stroke: #008000"/>
     <use xlink:href="#m14de95d1a3" x="248.703896" y="342.444256" style="fill: #008000; stroke: #008000"/>
     <use xlink:href="#m14de95d1a3" x="251.602597" y="277.212008" style="fill: #008000; stroke: #008000"/>
     <use xlink:href="#m14de95d1a3" x="254.501299" y="361.749706" style="fill: #008000; stroke: #008000"/>
     <use xlink:href="#m14de95d1a3" x="257.4" y="369.349289" style="fill: #008000; stroke: #008000"/>
     <use xlink:href="#m14de95d1a3" x="260.298701" y="235.054476" style="fill: #008000; stroke: #008000"/>
     <use xlink:href="#m14de95d1a3" x="263.197403" y="288.541002" style="fill: #008000; stroke: #008000"/>
     <use xlink:href="#m14de95d1a3" x="266.096104" y="349.734925" style="fill: #008000; stroke: #008000"/>
     <use xlink:href="#m14de95d1a3" x="283.488312" y="361.749706" style="fill: #008000; stroke: #008000"/>
     <use xlink:href="#m14de95d1a3" x="286.387013" y="368.405043" style="fill: #008000; stroke: #008000"/>
     <use xlink:href="#m14de95d1a3" x="289.285714" y="368.334121" style="fill: #008000; stroke: #008000"/>
     <use xlink:href="#m14de95d1a3" x="292.184416" y="348.163123" style="fill: #008000; stroke: #008000"/>
     <use xlink:href="#m14de95d1a3" x="295.083117" y="334.57654" style="fill: #008000; stroke: #008000"/>
     <use xlink:href="#m14de95d1a3" x="297.981818" y="341.892358" style="fill: #008000; stroke: #008000"/>
     <use xlink:href="#m14de95d1a3" x="300.880519" y="368.334121" style="fill: #008000; stroke: #008000"/>
     <use xlink:href="#m14de95d1a3" x="306.677922" y="274.542105" style="fill: #008000; stroke: #008000"/>
     <use xlink:href="#m14de95d1a3" x="309.576623" y="271.818028" style="fill: #008000; stroke: #008000"/>
     <use xlink:href="#m14de95d1a3" x="312.475325" y="361.749706" style="fill: #008000; stroke: #008000"/>
     <use xlink:href="#m14de95d1a3" x="318.272727" y="333.459107" style="fill: #008000; stroke: #008000"/>
     <use xlink:href="#m14de95d1a3" x="321.171429" y="334.680924" style="fill: #008000; stroke: #008000"/>
     <use xlink:href="#m14de95d1a3" x="324.07013" y="312.951185" style="fill: #008000; stroke: #008000"/>
     <use xlink:href="#m14de95d1a3" x="326.968831" y="285.899977" style="fill: #008000; stroke: #008000"/>
     <use xlink:href="#m14de95d1a3" x="329.867532" y="309.740711" style="fill: #008000; stroke: #008000"/>
     <use xlink:href="#m14de95d1a3" x="332.766234" y="341.090106" style="fill: #008000; stroke: #008000"/>
     <use xlink:href="#m14de95d1a3" x="335.664935" y="362.520555" style="fill: #008000; stroke: #008000"/>
     <use xlink:href="#m14de95d1a3" x="338.563636" y="238.485696" style="fill: #008000; stroke: #008000"/>
     <use xlink:href="#m14de95d1a3" x="341.462338" y="300.083653" style="fill: #008000; stroke: #008000"/>
     <use xlink:href="#m14de95d1a3" x="344.361039" y="347.745443" style="fill: #008000; stroke: #008000"/>
     <use xlink:href="#m14de95d1a3" x="347.25974" y="341.226286" style="fill: #008000; stroke: #008000"/>
     <use xlink:href="#m14de95d1a3" x="350.158442" y="253.618479" style="fill: #008000; stroke: #008000"/>
     <use xlink:href="#m14de95d1a3" x="353.057143" y="293.755965" style="fill: #008000; stroke: #008000"/>
     <use xlink:href="#m14de95d1a3" x="355.955844" y="342.357002" style="fill: #008000; stroke: #008000"/>
     <use xlink:href="#m14de95d1a3" x="358.854545" y="361.464826" style="fill: #008000; stroke: #008000"/>
     <use xlink:href="#m14de95d1a3" x="361.753247" y="313.998338" style="fill: #008000; stroke: #008000"/>
     <use xlink:href="#m14de95d1a3" x="364.651948" y="334.423942" style="fill: #008000; stroke: #008000"/>
     <use xlink:href="#m14de95d1a3" x="367.550649" y="267.585246" style="fill: #008000; stroke: #008000"/>
     <use xlink:href="#m14de95d1a3" x="370.449351" y="361.486052" style="fill: #008000; stroke: #008000"/>
     <use xlink:href="#m14de95d1a3" x="373.348052" y="322.521874" style="fill: #008000; stroke: #008000"/>
     <use xlink:href="#m14de95d1a3" x="379.145455" y="348.396632" style="fill: #008000; stroke: #008000"/>
     <use xlink:href="#m14de95d1a3" x="382.044156" y="232.112513" style="fill: #008000; stroke: #008000"/>
     <use xlink:href="#m14de95d1a3" x="384.942857" y="66.96" style="fill: #008000; stroke: #008000"/>
     <use xlink:href="#m14de95d1a3" x="387.841558" y="310.323985" style="fill: #008000; stroke: #008000"/>
     <use xlink:href="#m14de95d1a3" x="390.74026" y="329.288693" style="fill: #008000; stroke: #008000"/>
     <use xlink:href="#m14de95d1a3" x="393.638961" y="277.541427" style="fill: #008000; stroke: #008000"/>
     <use xlink:href="#m14de95d1a3" x="396.537662" y="141.518473" style="fill: #008000; stroke: #008000"/>
     <use xlink:href="#m14de95d1a3" x="399.436364" y="254.441367" style="fill: #008000; stroke: #008000"/>
     <use xlink:href="#m14de95d1a3" x="402.335065" y="343.186362" style="fill: #008000; stroke: #008000"/>
     <use xlink:href="#m14de95d1a3" x="405.233766" y="207.434488" style="fill: #008000; stroke: #008000"/>
     <use xlink:href="#m14de95d1a3" x="408.132468" y="159.864431" style="fill: #008000; stroke: #008000"/>
     <use xlink:href="#m14de95d1a3" x="411.031169" y="356.424618" style="fill: #008000; stroke: #008000"/>
     <use xlink:href="#m14de95d1a3" x="413.92987" y="255.327925" style="fill: #008000; stroke: #008000"/>
     <use xlink:href="#m14de95d1a3" x="416.828571" y="344.307029" style="fill: #008000; stroke: #008000"/>
     <use xlink:href="#m14de95d1a3" x="419.727273" y="351.518861" style="fill: #008000; stroke: #008000"/>
     <use xlink:href="#m14de95d1a3" x="422.625974" y="177.481217" style="fill: #008000; stroke: #008000"/>
     <use xlink:href="#m14de95d1a3" x="425.524675" y="351.335287" style="fill: #008000; stroke: #008000"/>
     <use xlink:href="#m14de95d1a3" x="434.220779" y="277.28636" style="fill: #008000; stroke: #008000"/>
     <use xlink:href="#m14de95d1a3" x="437.119481" y="356.930487" style="fill: #008000; stroke: #008000"/>
     <use xlink:href="#m14de95d1a3" x="440.018182" y="350.870443" style="fill: #008000; stroke: #008000"/>
     <use xlink:href="#m14de95d1a3" x="442.916883" y="286.291054" style="fill: #008000; stroke: #008000"/>
     <use xlink:href="#m14de95d1a3" x="445.815584" y="314.196927" style="fill: #008000; stroke: #008000"/>
     <use xlink:href="#m14de95d1a3" x="448.714286" y="327.553161" style="fill: #008000; stroke: #008000"/>
     <use xlink:href="#m14de95d1a3" x="451.612987" y="315.526555" style="fill: #008000; stroke: #008000"/>
     <use xlink:href="#m14de95d1a3" x="454.511688" y="333.89024" style="fill: #008000; stroke: #008000"/>
     <use xlink:href="#m14de95d1a3" x="457.41039" y="275.162495" style="fill: #008000; stroke: #008000"/>
     <use xlink:href="#m14de95d1a3" x="460.309091" y="234.372033" style="fill: #008000; stroke: #008000"/>
     <use xlink:href="#m14de95d1a3" x="463.207792" y="298.718154" style="fill: #008000; stroke: #008000"/>
     <use xlink:href="#m14de95d1a3" x="466.106494" y="333.754202" style="fill: #008000; stroke: #008000"/>
     <use xlink:href="#m14de95d1a3" x="469.005195" y="328.164264" style="fill: #008000; stroke: #008000"/>
     <use xlink:href="#m14de95d1a3" x="471.903896" y="264.646193" style="fill: #008000; stroke: #008000"/>
     <use xlink:href="#m14de95d1a3" x="474.802597" y="241.891783" style="fill: #008000; stroke: #008000"/>
     <use xlink:href="#m14de95d1a3" x="477.701299" y="317.104168" style="fill: #008000; stroke: #008000"/>
     <use xlink:href="#m14de95d1a3" x="480.6" y="340.43121" style="fill: #008000; stroke: #008000"/>
     <use xlink:href="#m14de95d1a3" x="483.498701" y="236.053858" style="fill: #008000; stroke: #008000"/>
     <use xlink:href="#m14de95d1a3" x="486.397403" y="311.725353" style="fill: #008000; stroke: #008000"/>
     <use xlink:href="#m14de95d1a3" x="489.296104" y="363.511915" style="fill: #008000; stroke: #008000"/>
     <use xlink:href="#m14de95d1a3" x="492.194805" y="306.036146" style="fill: #008000; stroke: #008000"/>
     <use xlink:href="#m14de95d1a3" x="495.093506" y="322.370951" style="fill: #008000; stroke: #008000"/>
     <use xlink:href="#m14de95d1a3" x="497.992208" y="288.721562" style="fill: #008000; stroke: #008000"/>
     <use xlink:href="#m14de95d1a3" x="500.890909" y="369.337876" style="fill: #008000; stroke: #008000"/>
     <use xlink:href="#m14de95d1a3" x="503.78961" y="265.994005" style="fill: #008000; stroke: #008000"/>
     <use xlink:href="#m14de95d1a3" x="506.688312" y="237.635596" style="fill: #008000; stroke: #008000"/>
     <use xlink:href="#m14de95d1a3" x="509.587013" y="352.210022" style="fill: #008000; stroke: #008000"/>
     <use xlink:href="#m14de95d1a3" x="512.485714" y="283.500325" style="fill: #008000; stroke: #008000"/>
     <use xlink:href="#m14de95d1a3" x="515.384416" y="306.121231" style="fill: #008000; stroke: #008000"/>
     <use xlink:href="#m14de95d1a3" x="518.283117" y="340.774929" style="fill: #008000; stroke: #008000"/>
     <use xlink:href="#m14de95d1a3" x="521.181818" y="352.060597" style="fill: #008000; stroke: #008000"/>
     <use xlink:href="#m14de95d1a3" x="524.080519" y="340.599857" style="fill: #008000; stroke: #008000"/>
     <use xlink:href="#m14de95d1a3" x="526.979221" y="335.100922" style="fill: #008000; stroke: #008000"/>
     <use xlink:href="#m14de95d1a3" x="529.877922" y="334.616907" style="fill: #008000; stroke: #008000"/>
     <use xlink:href="#m14de95d1a3" x="532.776623" y="323.659361" style="fill: #008000; stroke: #008000"/>
     <use xlink:href="#m14de95d1a3" x="535.675325" y="289.384474" style="fill: #008000; stroke: #008000"/>
     <use xlink:href="#m14de95d1a3" x="538.574026" y="266.594746" style="fill: #008000; stroke: #008000"/>
     <use xlink:href="#m14de95d1a3" x="541.472727" y="340.81753" style="fill: #008000; stroke: #008000"/>
     <use xlink:href="#m14de95d1a3" x="544.371429" y="352.222308" style="fill: #008000; stroke: #008000"/>
     <use xlink:href="#m14de95d1a3" x="547.27013" y="312.300513" style="fill: #008000; stroke: #008000"/>
     <use xlink:href="#m14de95d1a3" x="550.168831" y="346.49708" style="fill: #008000; stroke: #008000"/>
     <use xlink:href="#m14de95d1a3" x="553.067532" y="323.772521" style="fill: #008000; stroke: #008000"/>
     <use xlink:href="#m14de95d1a3" x="555.966234" y="306.660339" style="fill: #008000; stroke: #008000"/>
     <use xlink:href="#m14de95d1a3" x="558.864935" y="249.698007" style="fill: #008000; stroke: #008000"/>
     <use xlink:href="#m14de95d1a3" x="561.763636" y="357.964427" style="fill: #008000; stroke: #008000"/>
     <use xlink:href="#m14de95d1a3" x="564.662338" y="357.969612" style="fill: #008000; stroke: #008000"/>
     <use xlink:href="#m14de95d1a3" x="567.561039" y="312.400576" style="fill: #008000; stroke: #008000"/>
     <use xlink:href="#m14de95d1a3" x="570.45974" y="357.974024" style="fill: #008000; stroke: #008000"/>
     <use xlink:href="#m14de95d1a3" x="582.054545" y="352.279167" style="fill: #008000; stroke: #008000"/>
     <use xlink:href="#m14de95d1a3" x="584.953247" y="312.407441" style="fill: #008000; stroke: #008000"/>
     <use xlink:href="#m14de95d1a3" x="587.851948" y="346.569611" style="fill: #008000; stroke: #008000"/>
     <use xlink:href="#m14de95d1a3" x="590.750649" y="369.36" style="fill: #008000; stroke: #008000"/>
     <use xlink:href="#m14de95d1a3" x="593.649351" y="340.887711" style="fill: #008000; stroke: #008000"/>
     <use xlink:href="#m14de95d1a3" x="596.548052" y="352.278516" style="fill: #008000; stroke: #008000"/>
     <use xlink:href="#m14de95d1a3" x="599.446753" y="312.41611" style="fill: #008000; stroke: #008000"/>
     <use xlink:href="#m14de95d1a3" x="602.345455" y="323.802602" style="fill: #008000; stroke: #008000"/>
     <use xlink:href="#m14de95d1a3" x="605.244156" y="340.879059" style="fill: #008000; stroke: #008000"/>
     <use xlink:href="#m14de95d1a3" x="611.041558" y="346.571152" style="fill: #008000; stroke: #008000"/>
     <use xlink:href="#m14de95d1a3" x="613.94026" y="340.875707" style="fill: #008000; stroke: #008000"/>
     <use xlink:href="#m14de95d1a3" x="616.838961" y="329.501363" style="fill: #008000; stroke: #008000"/>
     <use xlink:href="#m14de95d1a3" x="619.737662" y="323.774806" style="fill: #008000; stroke: #008000"/>
     <use xlink:href="#m14de95d1a3" x="622.636364" y="352.277252" style="fill: #008000; stroke: #008000"/>
    </g>
   </g>
   <g id="patch_3">
    <path d="M 90 384.48 
L 90 51.84 
" style="fill: none; stroke: #000000; stroke-width: 0.8; stroke-linejoin: miter; stroke-linecap: square"/>
   </g>
   <g id="patch_4">
    <path d="M 648 384.48 
L 648 51.84 
" style="fill: none; stroke: #000000; stroke-width: 0.8; stroke-linejoin: miter; stroke-linecap: square"/>
   </g>
   <g id="patch_5">
    <path d="M 90 384.48 
L 648 384.48 
" style="fill: none; stroke: #000000; stroke-width: 0.8; stroke-linejoin: miter; stroke-linecap: square"/>
   </g>
   <g id="patch_6">
    <path d="M 90 51.84 
L 648 51.84 
" style="fill: none; stroke: #000000; stroke-width: 0.8; stroke-linejoin: miter; stroke-linecap: square"/>
   </g>
   <g id="text_19">
    <!-- 6004010256 每周收益 -->
    <g transform="translate(312 45.84) scale(0.12 -0.12)">
     <defs>
      <path id="SimHei-20" transform="scale(0.015625)"/>
      <path id="SimHei-6bcf" d="M 5225 3650 
Q 5175 3150 5150 2675 
L 5125 2200 
Q 5525 2200 6000 2225 
L 6000 1775 
Q 5625 1800 5100 1800 
L 5050 650 
Q 5325 650 5700 675 
L 5700 225 
Q 5400 250 5025 250 
Q 5000 -275 4775 -425 
Q 4550 -575 4000 -650 
Q 3950 -400 3775 -125 
Q 4375 -125 4475 -50 
Q 4575 25 4575 250 
L 1400 250 
L 1500 1100 
L 1550 1800 
L 1275 1800 
Q 825 1800 550 1775 
L 550 2225 
Q 975 2200 1275 2200 
L 1575 2200 
L 1625 2825 
L 1675 3650 
L 5225 3650 
z
M 2350 5000 
Q 2175 4825 2050 4600 
L 4875 4600 
Q 5275 4600 5775 4625 
L 5775 4175 
Q 5275 4200 4875 4200 
L 1825 4200 
L 1375 3625 
Q 1125 3325 775 2975 
Q 600 3175 350 3300 
Q 725 3575 1150 4112 
Q 1575 4650 1825 5250 
Q 2125 5075 2350 5000 
z
M 1975 1800 
L 1875 650 
L 4625 650 
L 4675 1800 
L 2950 1800 
Q 3575 1275 3825 1125 
Q 3625 925 3475 725 
Q 3100 1100 2650 1475 
Q 2775 1675 2875 1800 
L 1975 1800 
z
M 2975 3250 
Q 3125 3150 3287 3012 
Q 3450 2875 3800 2550 
Q 3650 2350 3525 2200 
L 4700 2200 
L 4750 3250 
L 2975 3250 
z
M 2075 3250 
L 2000 2200 
L 3425 2200 
Q 3150 2500 3012 2625 
Q 2875 2750 2700 2900 
Q 2800 3050 2925 3250 
L 2075 3250 
z
" transform="scale(0.015625)"/>
     </defs>
     <use xlink:href="#SimHei-36"/>
     <use xlink:href="#SimHei-30" x="50"/>
     <use xlink:href="#SimHei-30" x="100"/>
     <use xlink:href="#SimHei-34" x="150"/>
     <use xlink:href="#SimHei-30" x="200"/>
     <use xlink:href="#SimHei-31" x="250"/>
     <use xlink:href="#SimHei-30" x="300"/>
     <use xlink:href="#SimHei-32" x="350"/>
     <use xlink:href="#SimHei-35" x="400"/>
     <use xlink:href="#SimHei-36" x="450"/>
     <use xlink:href="#SimHei-20" x="500"/>
     <use xlink:href="#SimHei-6bcf" x="550"/>
     <use xlink:href="#SimHei-5468" x="650"/>
     <use xlink:href="#SimHei-6536" x="750"/>
     <use xlink:href="#SimHei-76ca" x="850"/>
    </g>
   </g>
  </g>
 </g>
 <defs>
  <clipPath id="pedb410d635">
   <rect x="90" y="51.84" width="558" height="332.64"/>
  </clipPath>
 </defs>
</svg>
