<?xml version="1.0" encoding="utf-8" standalone="no"?>
<!DOCTYPE svg PUBLIC "-//W3C//DTD SVG 1.1//EN"
  "http://www.w3.org/Graphics/SVG/1.1/DTD/svg11.dtd">
<svg xmlns:xlink="http://www.w3.org/1999/xlink" width="720pt" height="432pt" viewBox="0 0 720 432" xmlns="http://www.w3.org/2000/svg" version="1.1">
 <metadata>
  <rdf:RDF xmlns:dc="http://purl.org/dc/elements/1.1/" xmlns:cc="http://creativecommons.org/ns#" xmlns:rdf="http://www.w3.org/1999/02/22-rdf-syntax-ns#">
   <cc:Work>
    <dc:type rdf:resource="http://purl.org/dc/dcmitype/StillImage"/>
    <dc:date>2024-08-17T14:11:10.167044</dc:date>
    <dc:format>image/svg+xml</dc:format>
    <dc:creator>
     <cc:Agent>
      <dc:title>Matplotlib v3.8.0, https://matplotlib.org/</dc:title>
     </cc:Agent>
    </dc:creator>
   </cc:Work>
  </rdf:RDF>
 </metadata>
 <defs>
  <style type="text/css">*{stroke-linejoin: round; stroke-linecap: butt}</style>
 </defs>
 <g id="figure_1">
  <g id="patch_1">
   <path d="M 0 432 
L 720 432 
L 720 0 
L 0 0 
z
" style="fill: #ffffff"/>
  </g>
  <g id="axes_1">
   <g id="patch_2">
    <path d="M 90 384.48 
L 648 384.48 
L 648 51.84 
L 90 51.84 
z
" style="fill: #ffffff"/>
   </g>
   <g id="matplotlib.axis_1">
    <g id="xtick_1">
     <g id="line2d_1">
      <defs>
       <path id="mdbcfac81f1" d="M 0 0 
L 0 3.5 
" style="stroke: #000000; stroke-width: 0.8"/>
      </defs>
      <g>
       <use xlink:href="#mdbcfac81f1" x="109.499212" y="384.48" style="stroke: #000000; stroke-width: 0.8"/>
      </g>
     </g>
     <g id="text_1">
      <!-- 0 -->
      <g transform="translate(106.999212 398.355) scale(0.1 -0.1)">
       <defs>
        <path id="SimHei-30" d="M 225 2537 
Q 250 3200 412 3587 
Q 575 3975 875 4225 
Q 1175 4475 1612 4475 
Q 2050 4475 2375 4112 
Q 2700 3750 2800 3200 
Q 2900 2650 2862 1937 
Q 2825 1225 2612 775 
Q 2400 325 1975 150 
Q 1550 -25 1125 187 
Q 700 400 525 750 
Q 350 1100 275 1487 
Q 200 1875 225 2537 
z
M 750 2687 
Q 675 2000 800 1462 
Q 925 925 1212 700 
Q 1500 475 1800 612 
Q 2100 750 2237 1162 
Q 2375 1575 2375 2062 
Q 2375 2550 2337 2950 
Q 2300 3350 2112 3675 
Q 1925 4000 1612 4012 
Q 1300 4025 1062 3700 
Q 825 3375 750 2687 
z
" transform="scale(0.015625)"/>
       </defs>
       <use xlink:href="#SimHei-30"/>
      </g>
     </g>
    </g>
    <g id="xtick_2">
     <g id="line2d_2">
      <g>
       <use xlink:href="#mdbcfac81f1" x="182.804519" y="384.48" style="stroke: #000000; stroke-width: 0.8"/>
      </g>
     </g>
     <g id="text_2">
      <!-- 25 -->
      <g transform="translate(177.804519 398.355) scale(0.1 -0.1)">
       <defs>
        <path id="SimHei-32" d="M 300 250 
Q 325 625 650 925 
Q 975 1225 1475 1862 
Q 1975 2500 2125 2850 
Q 2275 3200 2237 3450 
Q 2200 3700 2000 3862 
Q 1800 4025 1537 4000 
Q 1275 3975 1037 3800 
Q 800 3625 675 3275 
L 200 3350 
Q 400 3925 712 4187 
Q 1025 4450 1450 4475 
Q 1700 4500 1900 4462 
Q 2100 4425 2312 4287 
Q 2525 4150 2662 3875 
Q 2800 3600 2762 3212 
Q 2725 2825 2375 2287 
Q 2025 1750 1025 600 
L 2825 600 
L 2825 150 
L 300 150 
L 300 250 
z
" transform="scale(0.015625)"/>
        <path id="SimHei-35" d="M 550 1325 
Q 725 650 1150 575 
Q 1575 500 1837 662 
Q 2100 825 2212 1087 
Q 2325 1350 2312 1675 
Q 2300 2000 2137 2225 
Q 1975 2450 1725 2525 
Q 1475 2600 1162 2525 
Q 850 2450 650 2175 
L 225 2225 
Q 275 2375 700 4375 
L 2675 4375 
L 2675 3925 
L 1075 3925 
Q 950 3250 825 2850 
Q 1200 3025 1525 3012 
Q 1850 3000 2150 2862 
Q 2450 2725 2587 2487 
Q 2725 2250 2787 2012 
Q 2850 1775 2837 1500 
Q 2825 1225 2725 937 
Q 2625 650 2425 462 
Q 2225 275 1937 162 
Q 1650 50 1275 75 
Q 900 100 562 350 
Q 225 600 100 1200 
L 550 1325 
z
" transform="scale(0.015625)"/>
       </defs>
       <use xlink:href="#SimHei-32"/>
       <use xlink:href="#SimHei-35" x="50"/>
      </g>
     </g>
    </g>
    <g id="xtick_3">
     <g id="line2d_3">
      <g>
       <use xlink:href="#mdbcfac81f1" x="256.109827" y="384.48" style="stroke: #000000; stroke-width: 0.8"/>
      </g>
     </g>
     <g id="text_3">
      <!-- 50 -->
      <g transform="translate(251.109827 398.355) scale(0.1 -0.1)">
       <use xlink:href="#SimHei-35"/>
       <use xlink:href="#SimHei-30" x="50"/>
      </g>
     </g>
    </g>
    <g id="xtick_4">
     <g id="line2d_4">
      <g>
       <use xlink:href="#mdbcfac81f1" x="329.415134" y="384.48" style="stroke: #000000; stroke-width: 0.8"/>
      </g>
     </g>
     <g id="text_4">
      <!-- 75 -->
      <g transform="translate(324.415134 398.355) scale(0.1 -0.1)">
       <defs>
        <path id="SimHei-37" d="M 850 150 
Q 1300 2050 2425 3925 
L 275 3925 
L 275 4375 
L 2950 4375 
L 2950 3950 
Q 1775 2050 1400 150 
L 850 150 
z
" transform="scale(0.015625)"/>
       </defs>
       <use xlink:href="#SimHei-37"/>
       <use xlink:href="#SimHei-35" x="50"/>
      </g>
     </g>
    </g>
    <g id="xtick_5">
     <g id="line2d_5">
      <g>
       <use xlink:href="#mdbcfac81f1" x="402.720441" y="384.48" style="stroke: #000000; stroke-width: 0.8"/>
      </g>
     </g>
     <g id="text_5">
      <!-- 100 -->
      <g transform="translate(395.220441 398.355) scale(0.1 -0.1)">
       <defs>
        <path id="SimHei-31" d="M 1400 3600 
Q 1075 3275 575 2975 
L 575 3450 
Q 1200 3875 1600 4450 
L 1900 4450 
L 1900 150 
L 1400 150 
L 1400 3600 
z
" transform="scale(0.015625)"/>
       </defs>
       <use xlink:href="#SimHei-31"/>
       <use xlink:href="#SimHei-30" x="50"/>
       <use xlink:href="#SimHei-30" x="100"/>
      </g>
     </g>
    </g>
    <g id="xtick_6">
     <g id="line2d_6">
      <g>
       <use xlink:href="#mdbcfac81f1" x="476.025749" y="384.48" style="stroke: #000000; stroke-width: 0.8"/>
      </g>
     </g>
     <g id="text_6">
      <!-- 125 -->
      <g transform="translate(468.525749 398.355) scale(0.1 -0.1)">
       <use xlink:href="#SimHei-31"/>
       <use xlink:href="#SimHei-32" x="50"/>
       <use xlink:href="#SimHei-35" x="100"/>
      </g>
     </g>
    </g>
    <g id="xtick_7">
     <g id="line2d_7">
      <g>
       <use xlink:href="#mdbcfac81f1" x="549.331056" y="384.48" style="stroke: #000000; stroke-width: 0.8"/>
      </g>
     </g>
     <g id="text_7">
      <!-- 150 -->
      <g transform="translate(541.831056 398.355) scale(0.1 -0.1)">
       <use xlink:href="#SimHei-31"/>
       <use xlink:href="#SimHei-35" x="50"/>
       <use xlink:href="#SimHei-30" x="100"/>
      </g>
     </g>
    </g>
    <g id="xtick_8">
     <g id="line2d_8">
      <g>
       <use xlink:href="#mdbcfac81f1" x="622.636364" y="384.48" style="stroke: #000000; stroke-width: 0.8"/>
      </g>
     </g>
     <g id="text_8">
      <!-- 175 -->
      <g transform="translate(615.136364 398.355) scale(0.1 -0.1)">
       <use xlink:href="#SimHei-31"/>
       <use xlink:href="#SimHei-37" x="50"/>
       <use xlink:href="#SimHei-35" x="100"/>
      </g>
     </g>
    </g>
    <g id="text_9">
     <!-- 周数 -->
     <g transform="translate(359 411.339375) scale(0.1 -0.1)">
      <defs>
       <path id="SimHei-5468" d="M 5600 4925 
Q 5575 4400 5575 3800 
L 5575 50 
Q 5550 -375 5325 -462 
Q 5100 -550 4325 -600 
Q 4300 -400 4125 -75 
Q 4800 -100 4962 -37 
Q 5125 25 5100 225 
L 5100 4525 
L 1500 4525 
Q 1500 2575 1450 1887 
Q 1400 1200 1237 550 
Q 1075 -100 775 -625 
Q 625 -450 275 -225 
Q 650 225 825 1000 
Q 1000 1775 1025 2587 
Q 1050 3400 1000 4925 
L 5600 4925 
z
M 2050 325 
Q 2075 625 2075 950 
L 2075 1400 
Q 2075 1625 2050 1925 
L 4400 1925 
Q 4375 1725 4375 1450 
L 4375 875 
Q 4375 600 4400 325 
L 2050 325 
z
M 3000 3800 
Q 3000 4150 2975 4375 
L 3475 4375 
Q 3450 4075 3450 3800 
Q 4100 3800 4475 3825 
L 4475 3350 
Q 4125 3375 3450 3375 
L 3450 2800 
Q 4200 2800 4825 2825 
L 4825 2350 
Q 4175 2375 3725 2375 
L 2750 2375 
Q 2325 2375 1725 2350 
L 1725 2825 
Q 2325 2800 3000 2800 
L 3000 3375 
Q 2500 3375 1975 3350 
L 1975 3825 
Q 2475 3800 3000 3800 
z
M 3900 725 
L 3900 1525 
L 2550 1525 
L 2550 725 
L 3900 725 
z
" transform="scale(0.015625)"/>
       <path id="SimHei-6570" d="M 4525 4925 
Q 4475 4800 4400 4587 
Q 4325 4375 4175 3825 
L 5325 3825 
Q 5575 3825 5925 3850 
L 5925 3400 
Q 5650 3425 5500 3425 
Q 5500 3025 5362 2162 
Q 5225 1300 4875 675 
Q 5125 375 5437 137 
Q 5750 -100 6025 -200 
Q 5725 -425 5625 -625 
Q 5325 -450 5075 -225 
Q 4825 0 4575 325 
Q 4300 25 3987 -187 
Q 3675 -400 3200 -650 
Q 3075 -425 2850 -300 
Q 3225 -150 3650 125 
Q 4075 400 4300 675 
Q 4125 1025 3962 1425 
Q 3800 1825 3675 2475 
Q 3600 2275 3425 1950 
Q 3250 2050 3000 2150 
Q 3400 2850 3650 3675 
Q 3900 4500 3975 5100 
Q 4275 4975 4525 4925 
z
M 2100 2250 
Q 2000 2150 1875 1925 
L 3250 1925 
Q 3100 1300 2725 675 
Q 3125 525 3350 400 
Q 3225 225 3125 25 
Q 2900 175 2450 325 
Q 1950 -225 725 -650 
Q 600 -375 400 -275 
Q 1575 0 2000 475 
Q 1300 650 850 775 
Q 1000 1000 1250 1525 
Q 1000 1525 425 1500 
L 425 1950 
Q 900 1925 1400 1925 
Q 1500 2150 1550 2425 
Q 1825 2325 2100 2250 
z
M 1775 3950 
Q 1775 4550 1750 5100 
L 2250 5100 
Q 2225 4575 2225 3950 
Q 3075 3950 3425 3975 
L 3425 3525 
Q 3075 3550 2225 3550 
Q 2225 2825 2250 2425 
L 1750 2425 
Q 1775 2775 1775 3300 
Q 1650 3100 1300 2787 
Q 950 2475 650 2300 
Q 525 2525 275 2625 
Q 500 2700 875 2975 
Q 1250 3250 1450 3550 
Q 950 3550 500 3525 
L 500 3975 
Q 925 3950 1775 3950 
z
M 3975 3175 
Q 4200 1700 4600 1125 
Q 4850 1700 4937 2287 
Q 5025 2875 5050 3425 
L 4075 3425 
L 3975 3175 
z
M 1450 1000 
Q 1750 925 2275 800 
Q 2475 1050 2650 1525 
L 1725 1525 
Q 1600 1275 1450 1000 
z
M 3325 4825 
Q 3200 4625 3125 4450 
Q 3050 4275 2925 4025 
Q 2725 4125 2525 4175 
Q 2725 4500 2900 5000 
Q 3150 4875 3325 4825 
z
M 2575 3375 
Q 2900 3050 3200 2725 
Q 3050 2600 2875 2425 
Q 2525 2850 2300 3100 
Q 2450 3225 2575 3375 
z
M 925 5000 
Q 1275 4650 1500 4300 
L 1125 4075 
Q 950 4425 600 4725 
Q 825 4875 925 5000 
z
" transform="scale(0.015625)"/>
      </defs>
      <use xlink:href="#SimHei-5468"/>
      <use xlink:href="#SimHei-6570" x="100"/>
     </g>
    </g>
   </g>
   <g id="matplotlib.axis_2">
    <g id="ytick_1">
     <g id="line2d_9">
      <defs>
       <path id="m7ae46e175c" d="M 0 0 
L -3.5 0 
" style="stroke: #000000; stroke-width: 0.8"/>
      </defs>
      <g>
       <use xlink:href="#m7ae46e175c" x="90" y="369.36" style="stroke: #000000; stroke-width: 0.8"/>
      </g>
     </g>
     <g id="text_10">
      <!-- 1 -->
      <g style="fill: #0000ff" transform="translate(78 372.7975) scale(0.1 -0.1)">
       <use xlink:href="#SimHei-31"/>
      </g>
     </g>
    </g>
    <g id="ytick_2">
     <g id="line2d_10">
      <g>
       <use xlink:href="#m7ae46e175c" x="90" y="326.16" style="stroke: #000000; stroke-width: 0.8"/>
      </g>
     </g>
     <g id="text_11">
      <!-- 2 -->
      <g style="fill: #0000ff" transform="translate(78 329.5975) scale(0.1 -0.1)">
       <use xlink:href="#SimHei-32"/>
      </g>
     </g>
    </g>
    <g id="ytick_3">
     <g id="line2d_11">
      <g>
       <use xlink:href="#m7ae46e175c" x="90" y="282.96" style="stroke: #000000; stroke-width: 0.8"/>
      </g>
     </g>
     <g id="text_12">
      <!-- 3 -->
      <g style="fill: #0000ff" transform="translate(78 286.3975) scale(0.1 -0.1)">
       <defs>
        <path id="SimHei-33" d="M 250 1225 
L 700 1300 
Q 800 975 1025 762 
Q 1250 550 1587 562 
Q 1925 575 2125 837 
Q 2325 1100 2300 1437 
Q 2275 1775 2037 1962 
Q 1800 2150 1275 2225 
L 1275 2550 
Q 1800 2600 2037 2825 
Q 2275 3050 2250 3412 
Q 2225 3775 1925 3937 
Q 1625 4100 1287 3975 
Q 950 3850 750 3275 
L 300 3350 
Q 450 3800 712 4100 
Q 975 4400 1425 4450 
Q 1875 4500 2212 4337 
Q 2550 4175 2687 3837 
Q 2825 3500 2725 3100 
Q 2625 2700 2150 2400 
Q 2500 2250 2687 1950 
Q 2875 1650 2812 1162 
Q 2750 675 2375 375 
Q 2000 75 1525 87 
Q 1050 100 700 387 
Q 350 675 250 1225 
z
" transform="scale(0.015625)"/>
       </defs>
       <use xlink:href="#SimHei-33"/>
      </g>
     </g>
    </g>
    <g id="ytick_4">
     <g id="line2d_12">
      <g>
       <use xlink:href="#m7ae46e175c" x="90" y="239.76" style="stroke: #000000; stroke-width: 0.8"/>
      </g>
     </g>
     <g id="text_13">
      <!-- 4 -->
      <g style="fill: #0000ff" transform="translate(78 243.1975) scale(0.1 -0.1)">
       <defs>
        <path id="SimHei-34" d="M 2000 1100 
L 75 1100 
L 75 1525 
L 2100 4450 
L 2475 4450 
L 2475 1525 
L 3075 1525 
L 3075 1100 
L 2475 1100 
L 2475 150 
L 2000 150 
L 2000 1100 
z
M 2000 1525 
L 2000 3500 
L 600 1525 
L 2000 1525 
z
" transform="scale(0.015625)"/>
       </defs>
       <use xlink:href="#SimHei-34"/>
      </g>
     </g>
    </g>
    <g id="ytick_5">
     <g id="line2d_13">
      <g>
       <use xlink:href="#m7ae46e175c" x="90" y="196.56" style="stroke: #000000; stroke-width: 0.8"/>
      </g>
     </g>
     <g id="text_14">
      <!-- 5 -->
      <g style="fill: #0000ff" transform="translate(78 199.9975) scale(0.1 -0.1)">
       <use xlink:href="#SimHei-35"/>
      </g>
     </g>
    </g>
    <g id="ytick_6">
     <g id="line2d_14">
      <g>
       <use xlink:href="#m7ae46e175c" x="90" y="153.36" style="stroke: #000000; stroke-width: 0.8"/>
      </g>
     </g>
     <g id="text_15">
      <!-- 6 -->
      <g style="fill: #0000ff" transform="translate(78 156.7975) scale(0.1 -0.1)">
       <defs>
        <path id="SimHei-36" d="M 250 1612 
Q 275 1975 387 2225 
Q 500 2475 725 2850 
L 1750 4450 
L 2325 4450 
L 1275 2800 
Q 1950 2975 2350 2750 
Q 2750 2525 2887 2237 
Q 3025 1950 3037 1612 
Q 3050 1275 2937 950 
Q 2825 625 2537 362 
Q 2250 100 1737 75 
Q 1225 50 862 262 
Q 500 475 362 862 
Q 225 1250 250 1612 
z
M 1025 787 
Q 1250 550 1625 525 
Q 2000 500 2250 775 
Q 2500 1050 2500 1575 
Q 2500 2100 2187 2300 
Q 1875 2500 1487 2450 
Q 1100 2400 925 2075 
Q 750 1750 775 1387 
Q 800 1025 1025 787 
z
" transform="scale(0.015625)"/>
       </defs>
       <use xlink:href="#SimHei-36"/>
      </g>
     </g>
    </g>
    <g id="ytick_7">
     <g id="line2d_15">
      <g>
       <use xlink:href="#m7ae46e175c" x="90" y="110.16" style="stroke: #000000; stroke-width: 0.8"/>
      </g>
     </g>
     <g id="text_16">
      <!-- 7 -->
      <g style="fill: #0000ff" transform="translate(78 113.5975) scale(0.1 -0.1)">
       <use xlink:href="#SimHei-37"/>
      </g>
     </g>
    </g>
    <g id="ytick_8">
     <g id="line2d_16">
      <g>
       <use xlink:href="#m7ae46e175c" x="90" y="66.96" style="stroke: #000000; stroke-width: 0.8"/>
      </g>
     </g>
     <g id="text_17">
      <!-- 8 -->
      <g style="fill: #0000ff" transform="translate(78 70.3975) scale(0.1 -0.1)">
       <defs>
        <path id="SimHei-38" d="M 175 1375 
Q 175 1675 325 1962 
Q 475 2250 825 2425 
Q 525 2600 425 2812 
Q 325 3025 312 3300 
Q 300 3575 387 3775 
Q 475 3975 650 4150 
Q 825 4325 1037 4387 
Q 1250 4450 1500 4450 
Q 1750 4450 1950 4400 
Q 2150 4350 2375 4187 
Q 2600 4025 2700 3725 
Q 2800 3425 2687 3025 
Q 2575 2625 2100 2400 
Q 2525 2275 2700 2012 
Q 2875 1750 2875 1375 
Q 2875 1000 2762 775 
Q 2650 550 2512 400 
Q 2375 250 2137 162 
Q 1900 75 1537 75 
Q 1175 75 912 162 
Q 650 250 475 425 
Q 300 600 237 837 
Q 175 1075 175 1375 
z
M 687 1400 
Q 675 1100 787 875 
Q 900 650 1200 587 
Q 1500 525 1825 600 
Q 2150 675 2275 950 
Q 2400 1225 2362 1500 
Q 2325 1775 2050 1962 
Q 1775 2150 1450 2125 
Q 1125 2100 912 1900 
Q 700 1700 687 1400 
z
M 775 3350 
Q 775 3100 950 2875 
Q 1125 2650 1500 2650 
Q 1875 2650 2062 2875 
Q 2250 3100 2237 3412 
Q 2225 3725 2012 3875 
Q 1800 4025 1437 4000 
Q 1075 3975 925 3787 
Q 775 3600 775 3350 
z
" transform="scale(0.015625)"/>
       </defs>
       <use xlink:href="#SimHei-38"/>
      </g>
     </g>
    </g>
    <g id="text_18">
     <!-- 需求量 -->
     <g style="fill: #0000ff" transform="translate(72.75 233.16) rotate(-90) scale(0.1 -0.1)">
      <defs>
       <path id="SimHei-9700" d="M 5150 2100 
Q 5500 2100 5975 2125 
L 5975 1700 
Q 5500 1725 5150 1725 
L 3425 1725 
Q 3300 1500 3250 1275 
L 5600 1275 
Q 5575 950 5575 700 
L 5575 -50 
Q 5575 -350 5425 -437 
Q 5275 -525 4775 -625 
Q 4750 -400 4550 -100 
Q 4950 -100 5025 -50 
Q 5100 0 5100 200 
L 5100 900 
L 4125 900 
L 4125 -375 
L 3650 -375 
L 3650 900 
L 2775 900 
L 2775 -375 
L 2300 -375 
L 2300 900 
L 1350 900 
L 1350 -575 
L 875 -575 
Q 900 -225 900 175 
L 900 575 
Q 900 900 875 1275 
L 2800 1275 
Q 2875 1500 2925 1725 
L 1350 1725 
Q 925 1725 525 1700 
L 525 2125 
Q 900 2100 1325 2100 
L 5150 2100 
z
M 4700 5075 
Q 5075 5075 5550 5100 
L 5550 4675 
Q 5075 4700 4700 4700 
L 3475 4700 
L 3475 4275 
L 5975 4275 
L 5975 3100 
L 5500 3100 
L 5500 3900 
L 3475 3900 
L 3475 3200 
Q 3475 2775 3500 2425 
L 2975 2425 
Q 3000 2750 3000 3175 
L 3000 3900 
L 950 3900 
L 950 3100 
L 450 3100 
Q 450 3375 462 3650 
Q 475 3925 450 4275 
L 3000 4275 
L 3000 4700 
L 1775 4700 
Q 1400 4700 1025 4675 
L 1025 5100 
Q 1400 5075 1750 5075 
L 4700 5075 
z
M 2475 2450 
L 1250 2450 
L 1250 2800 
L 2475 2800 
L 2475 2450 
z
M 2500 3150 
L 1325 3150 
L 1325 3500 
L 2500 3500 
L 2500 3150 
z
M 5000 3175 
L 3825 3175 
L 3825 3525 
L 5000 3525 
L 5000 3175 
z
M 5025 2500 
L 3850 2500 
L 3850 2850 
L 5025 2850 
L 5025 2500 
z
" transform="scale(0.015625)"/>
       <path id="SimHei-6c42" d="M 475 4025 
Q 875 4000 1325 4000 
L 2875 4000 
Q 2875 4725 2850 5125 
L 3400 5125 
Q 3375 4725 3375 4000 
L 5150 4000 
Q 5500 4000 5925 4025 
L 5925 3575 
Q 5475 3600 5150 3600 
L 3375 3600 
Q 3400 3200 3612 2750 
Q 3825 2300 4050 2000 
Q 4600 2450 5075 3150 
Q 5250 2950 5575 2750 
Q 5275 2600 4250 1650 
Q 4575 1225 5037 850 
Q 5500 475 6050 325 
Q 5700 125 5550 -150 
Q 5000 150 4437 687 
Q 3875 1225 3375 2375 
L 3375 150 
Q 3400 -225 3137 -350 
Q 2875 -475 2375 -525 
Q 2325 -275 2150 25 
Q 2575 0 2737 37 
Q 2900 75 2875 300 
L 2875 1675 
Q 1875 900 1437 550 
Q 1000 200 725 -50 
Q 500 200 300 400 
Q 650 575 1200 937 
Q 1750 1300 2875 2250 
L 2875 3600 
L 1325 3600 
Q 875 3600 475 3575 
L 475 4025 
z
M 1225 3175 
Q 1775 2725 2250 2325 
L 1825 1950 
Q 1450 2375 825 2825 
L 1225 3175 
z
M 4500 5100 
Q 4900 4825 5300 4425 
Q 5125 4300 4925 4100 
Q 4650 4400 4125 4825 
Q 4275 4950 4500 5100 
z
" transform="scale(0.015625)"/>
       <path id="SimHei-91cf" d="M 5250 2500 
Q 5225 2200 5225 1700 
Q 5225 1225 5250 950 
L 3425 950 
L 3425 625 
L 4575 625 
Q 5000 625 5375 650 
L 5375 275 
Q 5025 300 4575 300 
L 3425 300 
L 3425 -75 
L 5125 -75 
Q 5525 -75 5925 -50 
L 5925 -425 
Q 5525 -400 5125 -400 
L 1275 -400 
Q 900 -400 475 -425 
L 475 -50 
Q 925 -50 1275 -75 
L 2975 -75 
L 2975 300 
L 1725 300 
Q 1350 300 975 250 
L 975 650 
Q 1375 625 1725 625 
L 2975 625 
L 2975 950 
L 1150 950 
Q 1175 1375 1175 1775 
Q 1175 2175 1150 2500 
L 5250 2500 
z
M 5200 4950 
Q 5175 4575 5175 4250 
Q 5175 3925 5200 3400 
L 1200 3400 
Q 1225 3925 1225 4250 
Q 1225 4575 1200 4950 
L 5200 4950 
z
M 4900 3100 
Q 5500 3125 6000 3150 
L 6000 2750 
Q 5500 2775 4925 2775 
L 1650 2775 
Q 975 2775 325 2750 
L 325 3150 
Q 975 3125 1650 3100 
L 4900 3100 
z
M 4725 3700 
L 4725 4025 
L 1675 4025 
L 1675 3700 
L 4725 3700 
z
M 4725 4350 
L 4725 4650 
L 1675 4650 
L 1675 4350 
L 4725 4350 
z
M 4750 1875 
L 4750 2175 
L 3425 2175 
L 3425 1875 
L 4750 1875 
z
M 2975 1875 
L 2975 2175 
L 1650 2175 
L 1650 1875 
L 2975 1875 
z
M 2975 1275 
L 2975 1550 
L 1650 1550 
L 1650 1275 
L 2975 1275 
z
M 4750 1275 
L 4750 1550 
L 3425 1550 
L 3425 1275 
L 4750 1275 
z
" transform="scale(0.015625)"/>
      </defs>
      <use xlink:href="#SimHei-9700"/>
      <use xlink:href="#SimHei-6c42" x="100"/>
      <use xlink:href="#SimHei-91cf" x="200"/>
     </g>
    </g>
   </g>
   <g id="line2d_17">
    <path d="M 115.363636 369.36 
L 159.346821 369.36 
L 162.279033 369.36 
L 174.007882 369.36 
L 179.872307 326.16 
L 194.533368 326.16 
L 206.262218 196.56 
L 238.516553 369.36 
L 241.448765 326.16 
L 244.380977 369.36 
L 247.31319 239.76 
L 294.228586 369.36 
L 297.160799 239.76 
L 300.093011 282.96 
L 303.025223 326.16 
L 305.957436 369.36 
L 311.82186 196.56 
L 320.618497 326.16 
L 323.550709 282.96 
L 326.482922 369.36 
L 329.415134 66.96 
L 332.347346 196.56 
L 338.211771 369.36 
L 341.143983 326.16 
L 344.076195 153.36 
L 349.94062 326.16 
L 352.872832 282.96 
L 358.737257 369.36 
L 361.669469 369.36 
L 367.533894 369.36 
L 370.466106 326.16 
L 373.398318 369.36 
L 379.262743 369.36 
L 382.194955 369.36 
L 385.127168 369.36 
L 388.05938 369.36 
L 390.991592 369.36 
L 393.923805 369.36 
L 399.788229 326.16 
L 402.720441 282.96 
L 405.652654 282.96 
L 408.584866 326.16 
L 420.313715 326.16 
L 423.245927 369.36 
L 426.17814 369.36 
L 429.110352 369.36 
L 443.771414 369.36 
L 461.364687 326.16 
L 464.2969 369.36 
L 470.161324 239.76 
L 481.890173 369.36 
L 505.347872 369.36 
L 508.280084 239.76 
L 520.008933 282.96 
L 525.873358 326.16 
L 531.737782 369.36 
L 534.669995 282.96 
L 540.534419 369.36 
L 543.466632 326.16 
L 546.398844 369.36 
L 555.195481 369.36 
L 558.127693 369.36 
L 561.059905 369.36 
L 563.992118 369.36 
L 566.92433 369.36 
L 575.720967 369.36 
L 581.585391 369.36 
L 602.110878 369.36 
L 607.975302 326.16 
L 610.907514 369.36 
L 619.704151 326.16 
L 622.636364 369.36 
" clip-path="url(#p258e06bafa)" style="fill: none; stroke: #0000ff; stroke-width: 1.5; stroke-linecap: square"/>
    <defs>
     <path id="m5d5ef8980e" d="M 0 3 
C 0.795609 3 1.55874 2.683901 2.12132 2.12132 
C 2.683901 1.55874 3 0.795609 3 0 
C 3 -0.795609 2.683901 -1.55874 2.12132 -2.12132 
C 1.55874 -2.683901 0.795609 -3 0 -3 
C -0.795609 -3 -1.55874 -2.683901 -2.12132 -2.12132 
C -2.683901 -1.55874 -3 -0.795609 -3 0 
C -3 0.795609 -2.683901 1.55874 -2.12132 2.12132 
C -1.55874 2.683901 -0.795609 3 0 3 
z
" style="stroke: #0000ff"/>
    </defs>
    <g clip-path="url(#p258e06bafa)">
     <use xlink:href="#m5d5ef8980e" x="115.363636" y="369.36" style="fill: #0000ff; stroke: #0000ff"/>
     <use xlink:href="#m5d5ef8980e" x="159.346821" y="369.36" style="fill: #0000ff; stroke: #0000ff"/>
     <use xlink:href="#m5d5ef8980e" x="162.279033" y="369.36" style="fill: #0000ff; stroke: #0000ff"/>
     <use xlink:href="#m5d5ef8980e" x="174.007882" y="369.36" style="fill: #0000ff; stroke: #0000ff"/>
     <use xlink:href="#m5d5ef8980e" x="179.872307" y="326.16" style="fill: #0000ff; stroke: #0000ff"/>
     <use xlink:href="#m5d5ef8980e" x="194.533368" y="326.16" style="fill: #0000ff; stroke: #0000ff"/>
     <use xlink:href="#m5d5ef8980e" x="206.262218" y="196.56" style="fill: #0000ff; stroke: #0000ff"/>
     <use xlink:href="#m5d5ef8980e" x="238.516553" y="369.36" style="fill: #0000ff; stroke: #0000ff"/>
     <use xlink:href="#m5d5ef8980e" x="241.448765" y="326.16" style="fill: #0000ff; stroke: #0000ff"/>
     <use xlink:href="#m5d5ef8980e" x="244.380977" y="369.36" style="fill: #0000ff; stroke: #0000ff"/>
     <use xlink:href="#m5d5ef8980e" x="247.31319" y="239.76" style="fill: #0000ff; stroke: #0000ff"/>
     <use xlink:href="#m5d5ef8980e" x="294.228586" y="369.36" style="fill: #0000ff; stroke: #0000ff"/>
     <use xlink:href="#m5d5ef8980e" x="297.160799" y="239.76" style="fill: #0000ff; stroke: #0000ff"/>
     <use xlink:href="#m5d5ef8980e" x="300.093011" y="282.96" style="fill: #0000ff; stroke: #0000ff"/>
     <use xlink:href="#m5d5ef8980e" x="303.025223" y="326.16" style="fill: #0000ff; stroke: #0000ff"/>
     <use xlink:href="#m5d5ef8980e" x="305.957436" y="369.36" style="fill: #0000ff; stroke: #0000ff"/>
     <use xlink:href="#m5d5ef8980e" x="311.82186" y="196.56" style="fill: #0000ff; stroke: #0000ff"/>
     <use xlink:href="#m5d5ef8980e" x="320.618497" y="326.16" style="fill: #0000ff; stroke: #0000ff"/>
     <use xlink:href="#m5d5ef8980e" x="323.550709" y="282.96" style="fill: #0000ff; stroke: #0000ff"/>
     <use xlink:href="#m5d5ef8980e" x="326.482922" y="369.36" style="fill: #0000ff; stroke: #0000ff"/>
     <use xlink:href="#m5d5ef8980e" x="329.415134" y="66.96" style="fill: #0000ff; stroke: #0000ff"/>
     <use xlink:href="#m5d5ef8980e" x="332.347346" y="196.56" style="fill: #0000ff; stroke: #0000ff"/>
     <use xlink:href="#m5d5ef8980e" x="338.211771" y="369.36" style="fill: #0000ff; stroke: #0000ff"/>
     <use xlink:href="#m5d5ef8980e" x="341.143983" y="326.16" style="fill: #0000ff; stroke: #0000ff"/>
     <use xlink:href="#m5d5ef8980e" x="344.076195" y="153.36" style="fill: #0000ff; stroke: #0000ff"/>
     <use xlink:href="#m5d5ef8980e" x="349.94062" y="326.16" style="fill: #0000ff; stroke: #0000ff"/>
     <use xlink:href="#m5d5ef8980e" x="352.872832" y="282.96" style="fill: #0000ff; stroke: #0000ff"/>
     <use xlink:href="#m5d5ef8980e" x="358.737257" y="369.36" style="fill: #0000ff; stroke: #0000ff"/>
     <use xlink:href="#m5d5ef8980e" x="361.669469" y="369.36" style="fill: #0000ff; stroke: #0000ff"/>
     <use xlink:href="#m5d5ef8980e" x="367.533894" y="369.36" style="fill: #0000ff; stroke: #0000ff"/>
     <use xlink:href="#m5d5ef8980e" x="370.466106" y="326.16" style="fill: #0000ff; stroke: #0000ff"/>
     <use xlink:href="#m5d5ef8980e" x="373.398318" y="369.36" style="fill: #0000ff; stroke: #0000ff"/>
     <use xlink:href="#m5d5ef8980e" x="379.262743" y="369.36" style="fill: #0000ff; stroke: #0000ff"/>
     <use xlink:href="#m5d5ef8980e" x="382.194955" y="369.36" style="fill: #0000ff; stroke: #0000ff"/>
     <use xlink:href="#m5d5ef8980e" x="385.127168" y="369.36" style="fill: #0000ff; stroke: #0000ff"/>
     <use xlink:href="#m5d5ef8980e" x="388.05938" y="369.36" style="fill: #0000ff; stroke: #0000ff"/>
     <use xlink:href="#m5d5ef8980e" x="390.991592" y="369.36" style="fill: #0000ff; stroke: #0000ff"/>
     <use xlink:href="#m5d5ef8980e" x="393.923805" y="369.36" style="fill: #0000ff; stroke: #0000ff"/>
     <use xlink:href="#m5d5ef8980e" x="399.788229" y="326.16" style="fill: #0000ff; stroke: #0000ff"/>
     <use xlink:href="#m5d5ef8980e" x="402.720441" y="282.96" style="fill: #0000ff; stroke: #0000ff"/>
     <use xlink:href="#m5d5ef8980e" x="405.652654" y="282.96" style="fill: #0000ff; stroke: #0000ff"/>
     <use xlink:href="#m5d5ef8980e" x="408.584866" y="326.16" style="fill: #0000ff; stroke: #0000ff"/>
     <use xlink:href="#m5d5ef8980e" x="420.313715" y="326.16" style="fill: #0000ff; stroke: #0000ff"/>
     <use xlink:href="#m5d5ef8980e" x="423.245927" y="369.36" style="fill: #0000ff; stroke: #0000ff"/>
     <use xlink:href="#m5d5ef8980e" x="426.17814" y="369.36" style="fill: #0000ff; stroke: #0000ff"/>
     <use xlink:href="#m5d5ef8980e" x="429.110352" y="369.36" style="fill: #0000ff; stroke: #0000ff"/>
     <use xlink:href="#m5d5ef8980e" x="443.771414" y="369.36" style="fill: #0000ff; stroke: #0000ff"/>
     <use xlink:href="#m5d5ef8980e" x="461.364687" y="326.16" style="fill: #0000ff; stroke: #0000ff"/>
     <use xlink:href="#m5d5ef8980e" x="464.2969" y="369.36" style="fill: #0000ff; stroke: #0000ff"/>
     <use xlink:href="#m5d5ef8980e" x="470.161324" y="239.76" style="fill: #0000ff; stroke: #0000ff"/>
     <use xlink:href="#m5d5ef8980e" x="481.890173" y="369.36" style="fill: #0000ff; stroke: #0000ff"/>
     <use xlink:href="#m5d5ef8980e" x="505.347872" y="369.36" style="fill: #0000ff; stroke: #0000ff"/>
     <use xlink:href="#m5d5ef8980e" x="508.280084" y="239.76" style="fill: #0000ff; stroke: #0000ff"/>
     <use xlink:href="#m5d5ef8980e" x="520.008933" y="282.96" style="fill: #0000ff; stroke: #0000ff"/>
     <use xlink:href="#m5d5ef8980e" x="525.873358" y="326.16" style="fill: #0000ff; stroke: #0000ff"/>
     <use xlink:href="#m5d5ef8980e" x="531.737782" y="369.36" style="fill: #0000ff; stroke: #0000ff"/>
     <use xlink:href="#m5d5ef8980e" x="534.669995" y="282.96" style="fill: #0000ff; stroke: #0000ff"/>
     <use xlink:href="#m5d5ef8980e" x="540.534419" y="369.36" style="fill: #0000ff; stroke: #0000ff"/>
     <use xlink:href="#m5d5ef8980e" x="543.466632" y="326.16" style="fill: #0000ff; stroke: #0000ff"/>
     <use xlink:href="#m5d5ef8980e" x="546.398844" y="369.36" style="fill: #0000ff; stroke: #0000ff"/>
     <use xlink:href="#m5d5ef8980e" x="555.195481" y="369.36" style="fill: #0000ff; stroke: #0000ff"/>
     <use xlink:href="#m5d5ef8980e" x="558.127693" y="369.36" style="fill: #0000ff; stroke: #0000ff"/>
     <use xlink:href="#m5d5ef8980e" x="561.059905" y="369.36" style="fill: #0000ff; stroke: #0000ff"/>
     <use xlink:href="#m5d5ef8980e" x="563.992118" y="369.36" style="fill: #0000ff; stroke: #0000ff"/>
     <use xlink:href="#m5d5ef8980e" x="566.92433" y="369.36" style="fill: #0000ff; stroke: #0000ff"/>
     <use xlink:href="#m5d5ef8980e" x="575.720967" y="369.36" style="fill: #0000ff; stroke: #0000ff"/>
     <use xlink:href="#m5d5ef8980e" x="581.585391" y="369.36" style="fill: #0000ff; stroke: #0000ff"/>
     <use xlink:href="#m5d5ef8980e" x="602.110878" y="369.36" style="fill: #0000ff; stroke: #0000ff"/>
     <use xlink:href="#m5d5ef8980e" x="607.975302" y="326.16" style="fill: #0000ff; stroke: #0000ff"/>
     <use xlink:href="#m5d5ef8980e" x="610.907514" y="369.36" style="fill: #0000ff; stroke: #0000ff"/>
     <use xlink:href="#m5d5ef8980e" x="619.704151" y="326.16" style="fill: #0000ff; stroke: #0000ff"/>
     <use xlink:href="#m5d5ef8980e" x="622.636364" y="369.36" style="fill: #0000ff; stroke: #0000ff"/>
    </g>
   </g>
   <g id="patch_3">
    <path d="M 90 384.48 
L 90 51.84 
" style="fill: none; stroke: #000000; stroke-width: 0.8; stroke-linejoin: miter; stroke-linecap: square"/>
   </g>
   <g id="patch_4">
    <path d="M 648 384.48 
L 648 51.84 
" style="fill: none; stroke: #000000; stroke-width: 0.8; stroke-linejoin: miter; stroke-linecap: square"/>
   </g>
   <g id="patch_5">
    <path d="M 90 384.48 
L 648 384.48 
" style="fill: none; stroke: #000000; stroke-width: 0.8; stroke-linejoin: miter; stroke-linecap: square"/>
   </g>
   <g id="patch_6">
    <path d="M 90 51.84 
L 648 51.84 
" style="fill: none; stroke: #000000; stroke-width: 0.8; stroke-linejoin: miter; stroke-linecap: square"/>
   </g>
  </g>
  <g id="axes_2">
   <g id="matplotlib.axis_3">
    <g id="ytick_9">
     <g id="line2d_18">
      <defs>
       <path id="m505d571f3b" d="M 0 0 
L 3.5 0 
" style="stroke: #000000; stroke-width: 0.8"/>
      </defs>
      <g>
       <use xlink:href="#m505d571f3b" x="648" y="340.868842" style="stroke: #000000; stroke-width: 0.8"/>
      </g>
     </g>
     <g id="text_19">
      <!-- 10000 -->
      <g style="fill: #008000" transform="translate(655 344.306342) scale(0.1 -0.1)">
       <use xlink:href="#SimHei-31"/>
       <use xlink:href="#SimHei-30" x="50"/>
       <use xlink:href="#SimHei-30" x="100"/>
       <use xlink:href="#SimHei-30" x="150"/>
       <use xlink:href="#SimHei-30" x="200"/>
      </g>
     </g>
    </g>
    <g id="ytick_10">
     <g id="line2d_19">
      <g>
       <use xlink:href="#m505d571f3b" x="648" y="270.770161" style="stroke: #000000; stroke-width: 0.8"/>
      </g>
     </g>
     <g id="text_20">
      <!-- 20000 -->
      <g style="fill: #008000" transform="translate(655 274.207661) scale(0.1 -0.1)">
       <use xlink:href="#SimHei-32"/>
       <use xlink:href="#SimHei-30" x="50"/>
       <use xlink:href="#SimHei-30" x="100"/>
       <use xlink:href="#SimHei-30" x="150"/>
       <use xlink:href="#SimHei-30" x="200"/>
      </g>
     </g>
    </g>
    <g id="ytick_11">
     <g id="line2d_20">
      <g>
       <use xlink:href="#m505d571f3b" x="648" y="200.671481" style="stroke: #000000; stroke-width: 0.8"/>
      </g>
     </g>
     <g id="text_21">
      <!-- 30000 -->
      <g style="fill: #008000" transform="translate(655 204.108981) scale(0.1 -0.1)">
       <use xlink:href="#SimHei-33"/>
       <use xlink:href="#SimHei-30" x="50"/>
       <use xlink:href="#SimHei-30" x="100"/>
       <use xlink:href="#SimHei-30" x="150"/>
       <use xlink:href="#SimHei-30" x="200"/>
      </g>
     </g>
    </g>
    <g id="ytick_12">
     <g id="line2d_21">
      <g>
       <use xlink:href="#m505d571f3b" x="648" y="130.5728" style="stroke: #000000; stroke-width: 0.8"/>
      </g>
     </g>
     <g id="text_22">
      <!-- 40000 -->
      <g style="fill: #008000" transform="translate(655 134.0103) scale(0.1 -0.1)">
       <use xlink:href="#SimHei-34"/>
       <use xlink:href="#SimHei-30" x="50"/>
       <use xlink:href="#SimHei-30" x="100"/>
       <use xlink:href="#SimHei-30" x="150"/>
       <use xlink:href="#SimHei-30" x="200"/>
      </g>
     </g>
    </g>
    <g id="ytick_13">
     <g id="line2d_22">
      <g>
       <use xlink:href="#m505d571f3b" x="648" y="60.47412" style="stroke: #000000; stroke-width: 0.8"/>
      </g>
     </g>
     <g id="text_23">
      <!-- 50000 -->
      <g style="fill: #008000" transform="translate(655 63.91162) scale(0.1 -0.1)">
       <use xlink:href="#SimHei-35"/>
       <use xlink:href="#SimHei-30" x="50"/>
       <use xlink:href="#SimHei-30" x="100"/>
       <use xlink:href="#SimHei-30" x="150"/>
       <use xlink:href="#SimHei-30" x="200"/>
      </g>
     </g>
    </g>
    <g id="text_24">
     <!-- 收益 -->
     <g style="fill: #008000" transform="translate(691.929688 228.16) rotate(-90) scale(0.1 -0.1)">
      <defs>
       <path id="SimHei-6536" d="M 4250 5050 
Q 4125 4850 3750 4050 
L 5150 4050 
Q 5675 4050 6125 4075 
L 6125 3600 
Q 5675 3625 5300 3625 
Q 5225 2625 5025 1975 
Q 4825 1325 4575 900 
Q 4900 500 5287 275 
Q 5675 50 6200 -75 
Q 5900 -275 5800 -550 
Q 5300 -350 4950 -100 
Q 4600 150 4275 525 
Q 3800 0 2775 -625 
Q 2650 -425 2300 -225 
Q 3275 150 3950 925 
Q 3775 1325 3612 1787 
Q 3450 2250 3250 3000 
Q 2975 2450 2825 2275 
Q 2650 2400 2425 2525 
Q 2775 3025 3137 3837 
Q 3500 4650 3625 5250 
Q 3925 5125 4250 5050 
z
M 975 4275 
Q 925 3950 925 3450 
L 925 1575 
L 1775 1725 
L 1775 4425 
Q 1775 4775 1750 5150 
L 2250 5150 
Q 2225 4850 2225 4450 
L 2225 300 
Q 2225 -50 2250 -550 
L 1750 -550 
Q 1775 -25 1775 350 
L 1775 1350 
Q 625 1050 500 925 
Q 375 1125 225 1350 
Q 450 1475 450 1800 
L 450 3575 
Q 450 3925 425 4275 
L 975 4275 
z
M 3725 3150 
Q 3800 2700 3962 2212 
Q 4125 1725 4300 1375 
Q 4725 2150 4825 3625 
L 3575 3625 
Q 3400 3275 3300 3100 
L 3725 3150 
z
" transform="scale(0.015625)"/>
       <path id="SimHei-76ca" d="M 2825 2925 
Q 2425 2775 2012 2487 
Q 1600 2200 1225 1975 
L 5275 1975 
Q 5250 1575 5250 1000 
L 5250 -50 
Q 5800 -50 6175 -25 
L 6175 -525 
Q 5725 -500 5250 -500 
L 1325 -500 
Q 700 -500 250 -525 
L 250 -25 
Q 600 -50 1175 -50 
L 1175 1050 
Q 1175 1575 1150 1925 
Q 1000 1800 800 1700 
Q 650 1950 425 2125 
Q 800 2275 1312 2600 
Q 1825 2925 2325 3400 
Q 2550 3150 2825 2925 
z
M 4725 5050 
Q 4575 4900 4462 4637 
Q 4350 4375 4175 4075 
L 4625 4075 
Q 5350 4075 5900 4100 
L 5900 3625 
Q 5350 3650 4625 3650 
L 1975 3650 
Q 1350 3650 550 3625 
L 550 4100 
Q 1175 4075 1975 4075 
L 3675 4075 
Q 3775 4300 3887 4625 
Q 4000 4950 4125 5250 
L 4725 5050 
z
M 3600 -50 
L 3600 1575 
L 2800 1575 
L 2800 -50 
L 3600 -50 
z
M 4800 -50 
L 4800 1575 
L 4025 1575 
L 4025 -50 
L 4800 -50 
z
M 2375 -50 
L 2375 1575 
L 1625 1575 
L 1625 -50 
L 2375 -50 
z
M 3900 3350 
Q 4375 3150 4900 2925 
Q 5425 2700 5900 2500 
Q 5700 2300 5550 2000 
Q 5025 2300 4512 2537 
Q 4000 2775 3625 2900 
Q 3750 3075 3900 3350 
z
M 2150 5250 
Q 2375 4925 2650 4350 
Q 2425 4275 2150 4125 
Q 1950 4650 1675 5025 
Q 1875 5100 2150 5250 
z
" transform="scale(0.015625)"/>
      </defs>
      <use xlink:href="#SimHei-6536"/>
      <use xlink:href="#SimHei-76ca" x="100"/>
     </g>
    </g>
   </g>
   <g id="line2d_23">
    <path d="M 115.363636 358.945504 
L 159.346821 358.748847 
L 162.279033 358.748847 
L 174.007882 358.748847 
L 179.872307 304.002637 
L 194.533368 305.261236 
L 206.262218 150.857431 
L 238.516553 358.945504 
L 241.448765 306.923486 
L 244.380977 359.205325 
L 247.31319 202.879449 
L 294.228586 358.9455 
L 297.160799 203.462254 
L 300.093011 254.585816 
L 303.025223 306.757399 
L 305.957436 358.928982 
L 311.82186 166.065877 
L 320.618497 306.624357 
L 323.550709 254.452774 
L 326.482922 364.070349 
L 329.415134 66.96 
L 332.347346 192.066587 
L 338.211771 359.474551 
L 341.143983 321.941988 
L 344.076195 116.0248 
L 349.94062 307.236336 
L 352.872832 269.367113 
L 358.737257 359.101929 
L 361.669469 358.691642 
L 367.533894 359.101929 
L 370.466106 306.413518 
L 373.398318 362.39704 
L 379.262743 360.888955 
L 382.194955 360.888955 
L 385.127168 358.762392 
L 388.05938 359.101929 
L 390.991592 360.888955 
L 393.923805 358.392648 
L 399.788229 308.352437 
L 402.720441 253.838643 
L 405.652654 254.004516 
L 408.584866 308.683824 
L 420.313715 305.894484 
L 423.245927 358.431003 
L 426.17814 359.401557 
L 429.110352 358.748847 
L 443.771414 358.748847 
L 461.364687 313.260434 
L 464.2969 358.748847 
L 470.161324 208.505239 
L 481.890173 358.748847 
L 505.347872 369.36 
L 508.280084 202.092822 
L 520.008933 278.898933 
L 525.873358 313.260434 
L 531.737782 357.08109 
L 534.669995 256.109859 
L 540.534419 359.401557 
L 543.466632 303.385736 
L 546.398844 357.96549 
L 555.195481 357.965463 
L 558.127693 357.272214 
L 561.059905 357.081068 
L 563.992118 356.957751 
L 566.92433 356.957751 
L 575.720967 358.748847 
L 581.585391 358.748847 
L 602.110878 356.957751 
L 607.975302 302.47257 
L 610.907514 353.844038 
L 619.704151 303.576905 
L 622.636364 353.095384 
" clip-path="url(#p258e06bafa)" style="fill: none; stroke: #008000; stroke-width: 1.5; stroke-linecap: square"/>
    <defs>
     <path id="m2eb481565e" d="M 0 3 
C 0.795609 3 1.55874 2.683901 2.12132 2.12132 
C 2.683901 1.55874 3 0.795609 3 0 
C 3 -0.795609 2.683901 -1.55874 2.12132 -2.12132 
C 1.55874 -2.683901 0.795609 -3 0 -3 
C -0.795609 -3 -1.55874 -2.683901 -2.12132 -2.12132 
C -2.683901 -1.55874 -3 -0.795609 -3 0 
C -3 0.795609 -2.683901 1.55874 -2.12132 2.12132 
C -1.55874 2.683901 -0.795609 3 0 3 
z
" style="stroke: #008000"/>
    </defs>
    <g clip-path="url(#p258e06bafa)">
     <use xlink:href="#m2eb481565e" x="115.363636" y="358.945504" style="fill: #008000; stroke: #008000"/>
     <use xlink:href="#m2eb481565e" x="159.346821" y="358.748847" style="fill: #008000; stroke: #008000"/>
     <use xlink:href="#m2eb481565e" x="162.279033" y="358.748847" style="fill: #008000; stroke: #008000"/>
     <use xlink:href="#m2eb481565e" x="174.007882" y="358.748847" style="fill: #008000; stroke: #008000"/>
     <use xlink:href="#m2eb481565e" x="179.872307" y="304.002637" style="fill: #008000; stroke: #008000"/>
     <use xlink:href="#m2eb481565e" x="194.533368" y="305.261236" style="fill: #008000; stroke: #008000"/>
     <use xlink:href="#m2eb481565e" x="206.262218" y="150.857431" style="fill: #008000; stroke: #008000"/>
     <use xlink:href="#m2eb481565e" x="238.516553" y="358.945504" style="fill: #008000; stroke: #008000"/>
     <use xlink:href="#m2eb481565e" x="241.448765" y="306.923486" style="fill: #008000; stroke: #008000"/>
     <use xlink:href="#m2eb481565e" x="244.380977" y="359.205325" style="fill: #008000; stroke: #008000"/>
     <use xlink:href="#m2eb481565e" x="247.31319" y="202.879449" style="fill: #008000; stroke: #008000"/>
     <use xlink:href="#m2eb481565e" x="294.228586" y="358.9455" style="fill: #008000; stroke: #008000"/>
     <use xlink:href="#m2eb481565e" x="297.160799" y="203.462254" style="fill: #008000; stroke: #008000"/>
     <use xlink:href="#m2eb481565e" x="300.093011" y="254.585816" style="fill: #008000; stroke: #008000"/>
     <use xlink:href="#m2eb481565e" x="303.025223" y="306.757399" style="fill: #008000; stroke: #008000"/>
     <use xlink:href="#m2eb481565e" x="305.957436" y="358.928982" style="fill: #008000; stroke: #008000"/>
     <use xlink:href="#m2eb481565e" x="311.82186" y="166.065877" style="fill: #008000; stroke: #008000"/>
     <use xlink:href="#m2eb481565e" x="320.618497" y="306.624357" style="fill: #008000; stroke: #008000"/>
     <use xlink:href="#m2eb481565e" x="323.550709" y="254.452774" style="fill: #008000; stroke: #008000"/>
     <use xlink:href="#m2eb481565e" x="326.482922" y="364.070349" style="fill: #008000; stroke: #008000"/>
     <use xlink:href="#m2eb481565e" x="329.415134" y="66.96" style="fill: #008000; stroke: #008000"/>
     <use xlink:href="#m2eb481565e" x="332.347346" y="192.066587" style="fill: #008000; stroke: #008000"/>
     <use xlink:href="#m2eb481565e" x="338.211771" y="359.474551" style="fill: #008000; stroke: #008000"/>
     <use xlink:href="#m2eb481565e" x="341.143983" y="321.941988" style="fill: #008000; stroke: #008000"/>
     <use xlink:href="#m2eb481565e" x="344.076195" y="116.0248" style="fill: #008000; stroke: #008000"/>
     <use xlink:href="#m2eb481565e" x="349.94062" y="307.236336" style="fill: #008000; stroke: #008000"/>
     <use xlink:href="#m2eb481565e" x="352.872832" y="269.367113" style="fill: #008000; stroke: #008000"/>
     <use xlink:href="#m2eb481565e" x="358.737257" y="359.101929" style="fill: #008000; stroke: #008000"/>
     <use xlink:href="#m2eb481565e" x="361.669469" y="358.691642" style="fill: #008000; stroke: #008000"/>
     <use xlink:href="#m2eb481565e" x="367.533894" y="359.101929" style="fill: #008000; stroke: #008000"/>
     <use xlink:href="#m2eb481565e" x="370.466106" y="306.413518" style="fill: #008000; stroke: #008000"/>
     <use xlink:href="#m2eb481565e" x="373.398318" y="362.39704" style="fill: #008000; stroke: #008000"/>
     <use xlink:href="#m2eb481565e" x="379.262743" y="360.888955" style="fill: #008000; stroke: #008000"/>
     <use xlink:href="#m2eb481565e" x="382.194955" y="360.888955" style="fill: #008000; stroke: #008000"/>
     <use xlink:href="#m2eb481565e" x="385.127168" y="358.762392" style="fill: #008000; stroke: #008000"/>
     <use xlink:href="#m2eb481565e" x="388.05938" y="359.101929" style="fill: #008000; stroke: #008000"/>
     <use xlink:href="#m2eb481565e" x="390.991592" y="360.888955" style="fill: #008000; stroke: #008000"/>
     <use xlink:href="#m2eb481565e" x="393.923805" y="358.392648" style="fill: #008000; stroke: #008000"/>
     <use xlink:href="#m2eb481565e" x="399.788229" y="308.352437" style="fill: #008000; stroke: #008000"/>
     <use xlink:href="#m2eb481565e" x="402.720441" y="253.838643" style="fill: #008000; stroke: #008000"/>
     <use xlink:href="#m2eb481565e" x="405.652654" y="254.004516" style="fill: #008000; stroke: #008000"/>
     <use xlink:href="#m2eb481565e" x="408.584866" y="308.683824" style="fill: #008000; stroke: #008000"/>
     <use xlink:href="#m2eb481565e" x="420.313715" y="305.894484" style="fill: #008000; stroke: #008000"/>
     <use xlink:href="#m2eb481565e" x="423.245927" y="358.431003" style="fill: #008000; stroke: #008000"/>
     <use xlink:href="#m2eb481565e" x="426.17814" y="359.401557" style="fill: #008000; stroke: #008000"/>
     <use xlink:href="#m2eb481565e" x="429.110352" y="358.748847" style="fill: #008000; stroke: #008000"/>
     <use xlink:href="#m2eb481565e" x="443.771414" y="358.748847" style="fill: #008000; stroke: #008000"/>
     <use xlink:href="#m2eb481565e" x="461.364687" y="313.260434" style="fill: #008000; stroke: #008000"/>
     <use xlink:href="#m2eb481565e" x="464.2969" y="358.748847" style="fill: #008000; stroke: #008000"/>
     <use xlink:href="#m2eb481565e" x="470.161324" y="208.505239" style="fill: #008000; stroke: #008000"/>
     <use xlink:href="#m2eb481565e" x="481.890173" y="358.748847" style="fill: #008000; stroke: #008000"/>
     <use xlink:href="#m2eb481565e" x="505.347872" y="369.36" style="fill: #008000; stroke: #008000"/>
     <use xlink:href="#m2eb481565e" x="508.280084" y="202.092822" style="fill: #008000; stroke: #008000"/>
     <use xlink:href="#m2eb481565e" x="520.008933" y="278.898933" style="fill: #008000; stroke: #008000"/>
     <use xlink:href="#m2eb481565e" x="525.873358" y="313.260434" style="fill: #008000; stroke: #008000"/>
     <use xlink:href="#m2eb481565e" x="531.737782" y="357.08109" style="fill: #008000; stroke: #008000"/>
     <use xlink:href="#m2eb481565e" x="534.669995" y="256.109859" style="fill: #008000; stroke: #008000"/>
     <use xlink:href="#m2eb481565e" x="540.534419" y="359.401557" style="fill: #008000; stroke: #008000"/>
     <use xlink:href="#m2eb481565e" x="543.466632" y="303.385736" style="fill: #008000; stroke: #008000"/>
     <use xlink:href="#m2eb481565e" x="546.398844" y="357.96549" style="fill: #008000; stroke: #008000"/>
     <use xlink:href="#m2eb481565e" x="555.195481" y="357.965463" style="fill: #008000; stroke: #008000"/>
     <use xlink:href="#m2eb481565e" x="558.127693" y="357.272214" style="fill: #008000; stroke: #008000"/>
     <use xlink:href="#m2eb481565e" x="561.059905" y="357.081068" style="fill: #008000; stroke: #008000"/>
     <use xlink:href="#m2eb481565e" x="563.992118" y="356.957751" style="fill: #008000; stroke: #008000"/>
     <use xlink:href="#m2eb481565e" x="566.92433" y="356.957751" style="fill: #008000; stroke: #008000"/>
     <use xlink:href="#m2eb481565e" x="575.720967" y="358.748847" style="fill: #008000; stroke: #008000"/>
     <use xlink:href="#m2eb481565e" x="581.585391" y="358.748847" style="fill: #008000; stroke: #008000"/>
     <use xlink:href="#m2eb481565e" x="602.110878" y="356.957751" style="fill: #008000; stroke: #008000"/>
     <use xlink:href="#m2eb481565e" x="607.975302" y="302.47257" style="fill: #008000; stroke: #008000"/>
     <use xlink:href="#m2eb481565e" x="610.907514" y="353.844038" style="fill: #008000; stroke: #008000"/>
     <use xlink:href="#m2eb481565e" x="619.704151" y="303.576905" style="fill: #008000; stroke: #008000"/>
     <use xlink:href="#m2eb481565e" x="622.636364" y="353.095384" style="fill: #008000; stroke: #008000"/>
    </g>
   </g>
   <g id="patch_7">
    <path d="M 90 384.48 
L 90 51.84 
" style="fill: none; stroke: #000000; stroke-width: 0.8; stroke-linejoin: miter; stroke-linecap: square"/>
   </g>
   <g id="patch_8">
    <path d="M 648 384.48 
L 648 51.84 
" style="fill: none; stroke: #000000; stroke-width: 0.8; stroke-linejoin: miter; stroke-linecap: square"/>
   </g>
   <g id="patch_9">
    <path d="M 90 384.48 
L 648 384.48 
" style="fill: none; stroke: #000000; stroke-width: 0.8; stroke-linejoin: miter; stroke-linecap: square"/>
   </g>
   <g id="patch_10">
    <path d="M 90 51.84 
L 648 51.84 
" style="fill: none; stroke: #000000; stroke-width: 0.8; stroke-linejoin: miter; stroke-linecap: square"/>
   </g>
  </g>
  <g id="axes_3">
   <g id="matplotlib.axis_4">
    <g id="ytick_14">
     <g id="line2d_24">
      <g>
       <use xlink:href="#m505d571f3b" x="708" y="360.962027" style="stroke: #000000; stroke-width: 0.8"/>
      </g>
     </g>
     <g id="text_25">
      <!-- 6000 -->
      <g style="fill: #ff0000" transform="translate(715 364.399527) scale(0.1 -0.1)">
       <use xlink:href="#SimHei-36"/>
       <use xlink:href="#SimHei-30" x="50"/>
       <use xlink:href="#SimHei-30" x="100"/>
       <use xlink:href="#SimHei-30" x="150"/>
      </g>
     </g>
    </g>
    <g id="ytick_15">
     <g id="line2d_25">
      <g>
       <use xlink:href="#m505d571f3b" x="708" y="295.796515" style="stroke: #000000; stroke-width: 0.8"/>
      </g>
     </g>
     <g id="text_26">
      <!-- 6500 -->
      <g style="fill: #ff0000" transform="translate(715 299.234015) scale(0.1 -0.1)">
       <use xlink:href="#SimHei-36"/>
       <use xlink:href="#SimHei-35" x="50"/>
       <use xlink:href="#SimHei-30" x="100"/>
       <use xlink:href="#SimHei-30" x="150"/>
      </g>
     </g>
    </g>
    <g id="ytick_16">
     <g id="line2d_26">
      <g>
       <use xlink:href="#m505d571f3b" x="708" y="230.631003" style="stroke: #000000; stroke-width: 0.8"/>
      </g>
     </g>
     <g id="text_27">
      <!-- 7000 -->
      <g style="fill: #ff0000" transform="translate(715 234.068503) scale(0.1 -0.1)">
       <use xlink:href="#SimHei-37"/>
       <use xlink:href="#SimHei-30" x="50"/>
       <use xlink:href="#SimHei-30" x="100"/>
       <use xlink:href="#SimHei-30" x="150"/>
      </g>
     </g>
    </g>
    <g id="ytick_17">
     <g id="line2d_27">
      <g>
       <use xlink:href="#m505d571f3b" x="708" y="165.465491" style="stroke: #000000; stroke-width: 0.8"/>
      </g>
     </g>
     <g id="text_28">
      <!-- 7500 -->
      <g style="fill: #ff0000" transform="translate(715 168.902991) scale(0.1 -0.1)">
       <use xlink:href="#SimHei-37"/>
       <use xlink:href="#SimHei-35" x="50"/>
       <use xlink:href="#SimHei-30" x="100"/>
       <use xlink:href="#SimHei-30" x="150"/>
      </g>
     </g>
    </g>
    <g id="ytick_18">
     <g id="line2d_28">
      <g>
       <use xlink:href="#m505d571f3b" x="708" y="100.299979" style="stroke: #000000; stroke-width: 0.8"/>
      </g>
     </g>
     <g id="text_29">
      <!-- 8000 -->
      <g style="fill: #ff0000" transform="translate(715 103.737479) scale(0.1 -0.1)">
       <use xlink:href="#SimHei-38"/>
       <use xlink:href="#SimHei-30" x="50"/>
       <use xlink:href="#SimHei-30" x="100"/>
       <use xlink:href="#SimHei-30" x="150"/>
      </g>
     </g>
    </g>
    <g id="text_30">
     <!-- 平均单价 -->
     <g style="fill: #ff0000" transform="translate(747.007812 238.16) rotate(-90) scale(0.1 -0.1)">
      <defs>
       <path id="SimHei-5e73" d="M 4525 4825 
Q 4900 4825 5450 4850 
L 5450 4375 
Q 4925 4400 4525 4400 
L 3475 4400 
L 3475 2025 
L 5000 2025 
Q 5550 2025 6025 2050 
L 6025 1575 
Q 5550 1600 5000 1600 
L 3475 1600 
L 3475 450 
Q 3475 -100 3500 -600 
L 2925 -600 
Q 2950 -100 2950 450 
L 2950 1600 
L 1125 1600 
Q 775 1600 375 1575 
L 375 2050 
Q 775 2025 1175 2025 
L 2950 2025 
L 2950 4400 
L 1775 4400 
Q 1400 4400 875 4375 
L 875 4850 
Q 1400 4825 1750 4825 
L 4525 4825 
z
M 3925 2600 
Q 4500 3300 4900 4125 
Q 5150 3950 5400 3825 
Q 4775 2850 4350 2300 
Q 4150 2475 3925 2600 
z
M 1975 2350 
Q 1600 3100 1050 3725 
Q 1250 3875 1450 4050 
Q 2075 3300 2450 2725 
Q 2150 2500 1975 2350 
z
" transform="scale(0.015625)"/>
       <path id="SimHei-5747" d="M 5775 275 
Q 5775 -325 5362 -450 
Q 4950 -575 4425 -600 
Q 4375 -275 4250 25 
Q 4950 -25 5125 62 
Q 5300 150 5300 500 
L 5375 3700 
L 3550 3700 
Q 3425 3375 3262 3037 
Q 3100 2700 2925 2400 
Q 2675 2550 2475 2625 
Q 3150 3625 3500 5200 
Q 3800 5100 4075 5025 
Q 3975 4875 3875 4650 
Q 3775 4425 3675 4125 
L 5900 4125 
L 5775 275 
z
M 1250 3625 
L 1250 4375 
Q 1250 4775 1225 5100 
L 1775 5100 
Q 1750 4725 1750 4375 
L 1750 3625 
L 1900 3625 
Q 2200 3625 2525 3650 
L 2525 3150 
Q 2200 3175 1900 3175 
L 1750 3175 
L 1750 1100 
L 2500 1375 
Q 2475 1125 2525 900 
Q 1225 475 962 362 
Q 700 250 475 150 
Q 375 475 250 750 
Q 575 800 800 850 
Q 1025 900 1250 975 
L 1250 3175 
L 1125 3175 
Q 850 3175 400 3150 
L 400 3650 
Q 850 3625 1100 3625 
L 1250 3625 
z
M 4950 1625 
Q 4675 1425 4137 1050 
Q 3600 675 3175 300 
Q 3000 575 2850 775 
Q 3350 1050 3762 1325 
Q 4175 1600 4775 2075 
Q 4825 1850 4950 1625 
z
M 3775 3150 
Q 4125 2800 4475 2300 
Q 4250 2125 4100 1975 
Q 3900 2325 3450 2825 
Q 3600 3000 3775 3150 
z
" transform="scale(0.015625)"/>
       <path id="SimHei-5355" d="M 5275 4075 
L 5275 1525 
L 3400 1525 
L 3400 925 
L 5050 925 
Q 5600 925 6000 950 
L 6000 450 
Q 5575 475 5050 475 
L 3400 475 
Q 3400 -300 3425 -625 
L 2875 -625 
Q 2925 -300 2925 475 
L 1300 475 
Q 700 475 425 450 
L 425 950 
Q 675 925 1250 925 
L 2925 925 
L 2925 1525 
L 1125 1525 
Q 1150 1950 1150 2750 
Q 1150 3550 1125 4075 
L 3600 4075 
Q 3875 4650 4075 5250 
Q 4325 5125 4650 4975 
Q 4550 4850 4400 4587 
Q 4250 4325 4100 4075 
L 5275 4075 
z
M 4775 1925 
L 4775 2600 
L 3400 2600 
L 3400 1925 
L 4775 1925 
z
M 4775 3000 
L 4775 3650 
L 3400 3650 
L 3400 3000 
L 4775 3000 
z
M 2925 1925 
L 2925 2600 
L 1625 2600 
L 1625 1925 
L 2925 1925 
z
M 2925 3000 
L 2925 3650 
L 1625 3650 
L 1625 3000 
L 2925 3000 
z
M 2100 5225 
Q 2350 4950 2675 4350 
Q 2400 4225 2225 4125 
Q 1975 4675 1725 4975 
Q 1900 5075 2100 5225 
z
" transform="scale(0.015625)"/>
       <path id="SimHei-4ef7" d="M 2200 4975 
Q 2050 4725 1650 3775 
L 1650 450 
Q 1650 -225 1675 -650 
L 1175 -650 
Q 1175 -225 1200 450 
L 1200 2975 
Q 900 2425 650 2100 
Q 525 2275 225 2450 
Q 750 3025 1125 3800 
Q 1500 4575 1625 5175 
Q 1950 5025 2200 4975 
z
M 4175 4700 
Q 4850 3525 6150 2950 
Q 5925 2750 5775 2500 
Q 4725 3100 3950 4300 
Q 3300 3125 2250 2350 
Q 2125 2525 1900 2725 
Q 2825 3325 3250 4050 
Q 3675 4775 3750 5150 
Q 4150 4950 4325 4900 
L 4175 4700 
z
M 3475 2650 
Q 3400 2075 3325 1087 
Q 3250 100 2325 -675 
Q 2175 -450 1925 -300 
Q 2850 350 2912 1262 
Q 2975 2175 2950 2700 
Q 3275 2650 3475 2650 
z
M 5075 2700 
Q 5050 2150 5050 1725 
L 5050 150 
Q 5050 -225 5075 -650 
L 4550 -650 
Q 4575 -225 4575 175 
L 4575 1875 
Q 4575 2150 4550 2700 
L 5075 2700 
z
" transform="scale(0.015625)"/>
      </defs>
      <use xlink:href="#SimHei-5e73"/>
      <use xlink:href="#SimHei-5747" x="100"/>
      <use xlink:href="#SimHei-5355" x="200"/>
      <use xlink:href="#SimHei-4ef7" x="300"/>
     </g>
    </g>
   </g>
   <g id="line2d_29">
    <path d="M 115.363636 175.728408 
L 159.346821 172.072064 
L 162.279033 172.072064 
L 174.007882 172.072064 
L 179.872307 148.575459 
L 194.533368 160.27571 
L 206.262218 175.728408 
L 238.516553 175.728408 
L 241.448765 175.728408 
L 244.380977 180.559127 
L 247.31319 175.728408 
L 294.228586 175.728335 
L 297.160799 178.437361 
L 300.093011 173.772161 
L 303.025223 174.184425 
L 305.957436 175.421218 
L 311.82186 232.28104 
L 320.618497 172.947632 
L 323.550709 172.947632 
L 326.482922 271.012116 
L 329.415134 343.452869 
L 332.347346 328.964718 
L 338.211771 185.564707 
L 341.143983 315.344214 
L 344.076195 228.994046 
L 349.94062 178.636745 
L 352.872832 265.379282 
L 358.737257 178.636745 
L 361.669469 171.00847 
L 367.533894 178.636745 
L 370.466106 170.987617 
L 373.398318 239.90111 
L 379.262743 211.862033 
L 382.194955 211.862033 
L 385.127168 172.323889 
L 388.05938 178.636745 
L 390.991592 211.862033 
L 393.923805 165.449417 
L 399.788229 189.012304 
L 402.720441 169.14155 
L 405.652654 170.169552 
L 408.584866 192.092961 
L 420.313715 166.162545 
L 423.245927 166.162545 
L 426.17814 184.207571 
L 429.110352 172.072064 
L 443.771414 172.072064 
L 461.364687 234.638287 
L 464.2969 172.072064 
L 470.161324 201.877796 
L 481.890173 172.072064 
L 505.347872 369.36 
L 508.280084 172.072064 
L 520.008933 324.452762 
L 525.873358 234.638287 
L 531.737782 141.064265 
L 534.669995 183.21742 
L 540.534419 184.207571 
L 543.466632 142.840588 
L 546.398844 157.507479 
L 555.195481 157.506987 
L 558.127693 144.617741 
L 561.059905 141.063874 
L 563.992118 138.771091 
L 566.92433 138.771091 
L 575.720967 172.072064 
L 581.585391 172.072064 
L 602.110878 138.771091 
L 607.975302 134.351566 
L 610.907514 80.879353 
L 619.704151 144.617741 
L 622.636364 66.96 
" clip-path="url(#p258e06bafa)" style="fill: none; stroke: #ff0000; stroke-width: 1.5; stroke-linecap: square"/>
    <defs>
     <path id="mc1717f2c13" d="M 0 3 
C 0.795609 3 1.55874 2.683901 2.12132 2.12132 
C 2.683901 1.55874 3 0.795609 3 0 
C 3 -0.795609 2.683901 -1.55874 2.12132 -2.12132 
C 1.55874 -2.683901 0.795609 -3 0 -3 
C -0.795609 -3 -1.55874 -2.683901 -2.12132 -2.12132 
C -2.683901 -1.55874 -3 -0.795609 -3 0 
C -3 0.795609 -2.683901 1.55874 -2.12132 2.12132 
C -1.55874 2.683901 -0.795609 3 0 3 
z
" style="stroke: #ff0000"/>
    </defs>
    <g clip-path="url(#p258e06bafa)">
     <use xlink:href="#mc1717f2c13" x="115.363636" y="175.728408" style="fill: #ff0000; stroke: #ff0000"/>
     <use xlink:href="#mc1717f2c13" x="159.346821" y="172.072064" style="fill: #ff0000; stroke: #ff0000"/>
     <use xlink:href="#mc1717f2c13" x="162.279033" y="172.072064" style="fill: #ff0000; stroke: #ff0000"/>
     <use xlink:href="#mc1717f2c13" x="174.007882" y="172.072064" style="fill: #ff0000; stroke: #ff0000"/>
     <use xlink:href="#mc1717f2c13" x="179.872307" y="148.575459" style="fill: #ff0000; stroke: #ff0000"/>
     <use xlink:href="#mc1717f2c13" x="194.533368" y="160.27571" style="fill: #ff0000; stroke: #ff0000"/>
     <use xlink:href="#mc1717f2c13" x="206.262218" y="175.728408" style="fill: #ff0000; stroke: #ff0000"/>
     <use xlink:href="#mc1717f2c13" x="238.516553" y="175.728408" style="fill: #ff0000; stroke: #ff0000"/>
     <use xlink:href="#mc1717f2c13" x="241.448765" y="175.728408" style="fill: #ff0000; stroke: #ff0000"/>
     <use xlink:href="#mc1717f2c13" x="244.380977" y="180.559127" style="fill: #ff0000; stroke: #ff0000"/>
     <use xlink:href="#mc1717f2c13" x="247.31319" y="175.728408" style="fill: #ff0000; stroke: #ff0000"/>
     <use xlink:href="#mc1717f2c13" x="294.228586" y="175.728335" style="fill: #ff0000; stroke: #ff0000"/>
     <use xlink:href="#mc1717f2c13" x="297.160799" y="178.437361" style="fill: #ff0000; stroke: #ff0000"/>
     <use xlink:href="#mc1717f2c13" x="300.093011" y="173.772161" style="fill: #ff0000; stroke: #ff0000"/>
     <use xlink:href="#mc1717f2c13" x="303.025223" y="174.184425" style="fill: #ff0000; stroke: #ff0000"/>
     <use xlink:href="#mc1717f2c13" x="305.957436" y="175.421218" style="fill: #ff0000; stroke: #ff0000"/>
     <use xlink:href="#mc1717f2c13" x="311.82186" y="232.28104" style="fill: #ff0000; stroke: #ff0000"/>
     <use xlink:href="#mc1717f2c13" x="320.618497" y="172.947632" style="fill: #ff0000; stroke: #ff0000"/>
     <use xlink:href="#mc1717f2c13" x="323.550709" y="172.947632" style="fill: #ff0000; stroke: #ff0000"/>
     <use xlink:href="#mc1717f2c13" x="326.482922" y="271.012116" style="fill: #ff0000; stroke: #ff0000"/>
     <use xlink:href="#mc1717f2c13" x="329.415134" y="343.452869" style="fill: #ff0000; stroke: #ff0000"/>
     <use xlink:href="#mc1717f2c13" x="332.347346" y="328.964718" style="fill: #ff0000; stroke: #ff0000"/>
     <use xlink:href="#mc1717f2c13" x="338.211771" y="185.564707" style="fill: #ff0000; stroke: #ff0000"/>
     <use xlink:href="#mc1717f2c13" x="341.143983" y="315.344214" style="fill: #ff0000; stroke: #ff0000"/>
     <use xlink:href="#mc1717f2c13" x="344.076195" y="228.994046" style="fill: #ff0000; stroke: #ff0000"/>
     <use xlink:href="#mc1717f2c13" x="349.94062" y="178.636745" style="fill: #ff0000; stroke: #ff0000"/>
     <use xlink:href="#mc1717f2c13" x="352.872832" y="265.379282" style="fill: #ff0000; stroke: #ff0000"/>
     <use xlink:href="#mc1717f2c13" x="358.737257" y="178.636745" style="fill: #ff0000; stroke: #ff0000"/>
     <use xlink:href="#mc1717f2c13" x="361.669469" y="171.00847" style="fill: #ff0000; stroke: #ff0000"/>
     <use xlink:href="#mc1717f2c13" x="367.533894" y="178.636745" style="fill: #ff0000; stroke: #ff0000"/>
     <use xlink:href="#mc1717f2c13" x="370.466106" y="170.987617" style="fill: #ff0000; stroke: #ff0000"/>
     <use xlink:href="#mc1717f2c13" x="373.398318" y="239.90111" style="fill: #ff0000; stroke: #ff0000"/>
     <use xlink:href="#mc1717f2c13" x="379.262743" y="211.862033" style="fill: #ff0000; stroke: #ff0000"/>
     <use xlink:href="#mc1717f2c13" x="382.194955" y="211.862033" style="fill: #ff0000; stroke: #ff0000"/>
     <use xlink:href="#mc1717f2c13" x="385.127168" y="172.323889" style="fill: #ff0000; stroke: #ff0000"/>
     <use xlink:href="#mc1717f2c13" x="388.05938" y="178.636745" style="fill: #ff0000; stroke: #ff0000"/>
     <use xlink:href="#mc1717f2c13" x="390.991592" y="211.862033" style="fill: #ff0000; stroke: #ff0000"/>
     <use xlink:href="#mc1717f2c13" x="393.923805" y="165.449417" style="fill: #ff0000; stroke: #ff0000"/>
     <use xlink:href="#mc1717f2c13" x="399.788229" y="189.012304" style="fill: #ff0000; stroke: #ff0000"/>
     <use xlink:href="#mc1717f2c13" x="402.720441" y="169.14155" style="fill: #ff0000; stroke: #ff0000"/>
     <use xlink:href="#mc1717f2c13" x="405.652654" y="170.169552" style="fill: #ff0000; stroke: #ff0000"/>
     <use xlink:href="#mc1717f2c13" x="408.584866" y="192.092961" style="fill: #ff0000; stroke: #ff0000"/>
     <use xlink:href="#mc1717f2c13" x="420.313715" y="166.162545" style="fill: #ff0000; stroke: #ff0000"/>
     <use xlink:href="#mc1717f2c13" x="423.245927" y="166.162545" style="fill: #ff0000; stroke: #ff0000"/>
     <use xlink:href="#mc1717f2c13" x="426.17814" y="184.207571" style="fill: #ff0000; stroke: #ff0000"/>
     <use xlink:href="#mc1717f2c13" x="429.110352" y="172.072064" style="fill: #ff0000; stroke: #ff0000"/>
     <use xlink:href="#mc1717f2c13" x="443.771414" y="172.072064" style="fill: #ff0000; stroke: #ff0000"/>
     <use xlink:href="#mc1717f2c13" x="461.364687" y="234.638287" style="fill: #ff0000; stroke: #ff0000"/>
     <use xlink:href="#mc1717f2c13" x="464.2969" y="172.072064" style="fill: #ff0000; stroke: #ff0000"/>
     <use xlink:href="#mc1717f2c13" x="470.161324" y="201.877796" style="fill: #ff0000; stroke: #ff0000"/>
     <use xlink:href="#mc1717f2c13" x="481.890173" y="172.072064" style="fill: #ff0000; stroke: #ff0000"/>
     <use xlink:href="#mc1717f2c13" x="505.347872" y="369.36" style="fill: #ff0000; stroke: #ff0000"/>
     <use xlink:href="#mc1717f2c13" x="508.280084" y="172.072064" style="fill: #ff0000; stroke: #ff0000"/>
     <use xlink:href="#mc1717f2c13" x="520.008933" y="324.452762" style="fill: #ff0000; stroke: #ff0000"/>
     <use xlink:href="#mc1717f2c13" x="525.873358" y="234.638287" style="fill: #ff0000; stroke: #ff0000"/>
     <use xlink:href="#mc1717f2c13" x="531.737782" y="141.064265" style="fill: #ff0000; stroke: #ff0000"/>
     <use xlink:href="#mc1717f2c13" x="534.669995" y="183.21742" style="fill: #ff0000; stroke: #ff0000"/>
     <use xlink:href="#mc1717f2c13" x="540.534419" y="184.207571" style="fill: #ff0000; stroke: #ff0000"/>
     <use xlink:href="#mc1717f2c13" x="543.466632" y="142.840588" style="fill: #ff0000; stroke: #ff0000"/>
     <use xlink:href="#mc1717f2c13" x="546.398844" y="157.507479" style="fill: #ff0000; stroke: #ff0000"/>
     <use xlink:href="#mc1717f2c13" x="555.195481" y="157.506987" style="fill: #ff0000; stroke: #ff0000"/>
     <use xlink:href="#mc1717f2c13" x="558.127693" y="144.617741" style="fill: #ff0000; stroke: #ff0000"/>
     <use xlink:href="#mc1717f2c13" x="561.059905" y="141.063874" style="fill: #ff0000; stroke: #ff0000"/>
     <use xlink:href="#mc1717f2c13" x="563.992118" y="138.771091" style="fill: #ff0000; stroke: #ff0000"/>
     <use xlink:href="#mc1717f2c13" x="566.92433" y="138.771091" style="fill: #ff0000; stroke: #ff0000"/>
     <use xlink:href="#mc1717f2c13" x="575.720967" y="172.072064" style="fill: #ff0000; stroke: #ff0000"/>
     <use xlink:href="#mc1717f2c13" x="581.585391" y="172.072064" style="fill: #ff0000; stroke: #ff0000"/>
     <use xlink:href="#mc1717f2c13" x="602.110878" y="138.771091" style="fill: #ff0000; stroke: #ff0000"/>
     <use xlink:href="#mc1717f2c13" x="607.975302" y="134.351566" style="fill: #ff0000; stroke: #ff0000"/>
     <use xlink:href="#mc1717f2c13" x="610.907514" y="80.879353" style="fill: #ff0000; stroke: #ff0000"/>
     <use xlink:href="#mc1717f2c13" x="619.704151" y="144.617741" style="fill: #ff0000; stroke: #ff0000"/>
     <use xlink:href="#mc1717f2c13" x="622.636364" y="66.96" style="fill: #ff0000; stroke: #ff0000"/>
    </g>
   </g>
   <g id="patch_11">
    <path d="M 90 384.48 
L 90 51.84 
" style="fill: none; stroke: #000000; stroke-width: 0.8; stroke-linejoin: miter; stroke-linecap: square"/>
   </g>
   <g id="patch_12">
    <path d="M 708 384.48 
L 708 51.84 
" style="fill: none; stroke: #000000; stroke-width: 0.8; stroke-linejoin: miter; stroke-linecap: square"/>
   </g>
   <g id="patch_13">
    <path d="M 90 384.48 
L 648 384.48 
" style="fill: none; stroke: #000000; stroke-width: 0.8; stroke-linejoin: miter; stroke-linecap: square"/>
   </g>
   <g id="patch_14">
    <path d="M 90 51.84 
L 648 51.84 
" style="fill: none; stroke: #000000; stroke-width: 0.8; stroke-linejoin: miter; stroke-linecap: square"/>
   </g>
   <g id="text_31">
    <!-- 6004020810 每周需求量、收益与平均单价 -->
    <g transform="translate(258 45.84) scale(0.12 -0.12)">
     <defs>
      <path id="SimHei-20" transform="scale(0.015625)"/>
      <path id="SimHei-6bcf" d="M 5225 3650 
Q 5175 3150 5150 2675 
L 5125 2200 
Q 5525 2200 6000 2225 
L 6000 1775 
Q 5625 1800 5100 1800 
L 5050 650 
Q 5325 650 5700 675 
L 5700 225 
Q 5400 250 5025 250 
Q 5000 -275 4775 -425 
Q 4550 -575 4000 -650 
Q 3950 -400 3775 -125 
Q 4375 -125 4475 -50 
Q 4575 25 4575 250 
L 1400 250 
L 1500 1100 
L 1550 1800 
L 1275 1800 
Q 825 1800 550 1775 
L 550 2225 
Q 975 2200 1275 2200 
L 1575 2200 
L 1625 2825 
L 1675 3650 
L 5225 3650 
z
M 2350 5000 
Q 2175 4825 2050 4600 
L 4875 4600 
Q 5275 4600 5775 4625 
L 5775 4175 
Q 5275 4200 4875 4200 
L 1825 4200 
L 1375 3625 
Q 1125 3325 775 2975 
Q 600 3175 350 3300 
Q 725 3575 1150 4112 
Q 1575 4650 1825 5250 
Q 2125 5075 2350 5000 
z
M 1975 1800 
L 1875 650 
L 4625 650 
L 4675 1800 
L 2950 1800 
Q 3575 1275 3825 1125 
Q 3625 925 3475 725 
Q 3100 1100 2650 1475 
Q 2775 1675 2875 1800 
L 1975 1800 
z
M 2975 3250 
Q 3125 3150 3287 3012 
Q 3450 2875 3800 2550 
Q 3650 2350 3525 2200 
L 4700 2200 
L 4750 3250 
L 2975 3250 
z
M 2075 3250 
L 2000 2200 
L 3425 2200 
Q 3150 2500 3012 2625 
Q 2875 2750 2700 2900 
Q 2800 3050 2925 3250 
L 2075 3250 
z
" transform="scale(0.015625)"/>
      <path id="SimHei-3001" d="M 1725 -275 
Q 1325 700 925 1450 
L 1325 1650 
Q 1825 950 2325 25 
L 1725 -275 
z
" transform="scale(0.015625)"/>
      <path id="SimHei-4e0e" d="M 5350 100 
Q 5275 -300 4925 -425 
Q 4575 -550 3900 -600 
Q 3875 -375 3650 -25 
Q 4375 -50 4575 0 
Q 4775 50 4837 225 
Q 4900 400 5100 2350 
L 1125 2350 
Q 1450 4350 1475 5200 
Q 1800 5150 2075 5125 
Q 1975 4825 1900 4275 
L 4900 4275 
Q 5400 4275 5800 4300 
L 5800 3825 
Q 5400 3850 4950 3850 
L 1850 3850 
L 1700 2750 
L 5675 2750 
Q 5625 2450 5575 2050 
L 5350 100 
z
M 3675 1350 
Q 4125 1350 4500 1375 
L 4500 875 
Q 4125 900 3850 900 
L 1450 900 
Q 1000 900 500 875 
L 500 1375 
Q 1000 1350 1450 1350 
L 3675 1350 
z
" transform="scale(0.015625)"/>
     </defs>
     <use xlink:href="#SimHei-36"/>
     <use xlink:href="#SimHei-30" x="50"/>
     <use xlink:href="#SimHei-30" x="100"/>
     <use xlink:href="#SimHei-34" x="150"/>
     <use xlink:href="#SimHei-30" x="200"/>
     <use xlink:href="#SimHei-32" x="250"/>
     <use xlink:href="#SimHei-30" x="300"/>
     <use xlink:href="#SimHei-38" x="350"/>
     <use xlink:href="#SimHei-31" x="400"/>
     <use xlink:href="#SimHei-30" x="450"/>
     <use xlink:href="#SimHei-20" x="500"/>
     <use xlink:href="#SimHei-6bcf" x="550"/>
     <use xlink:href="#SimHei-5468" x="650"/>
     <use xlink:href="#SimHei-9700" x="750"/>
     <use xlink:href="#SimHei-6c42" x="850"/>
     <use xlink:href="#SimHei-91cf" x="950"/>
     <use xlink:href="#SimHei-3001" x="1050"/>
     <use xlink:href="#SimHei-6536" x="1150"/>
     <use xlink:href="#SimHei-76ca" x="1250"/>
     <use xlink:href="#SimHei-4e0e" x="1350"/>
     <use xlink:href="#SimHei-5e73" x="1450"/>
     <use xlink:href="#SimHei-5747" x="1550"/>
     <use xlink:href="#SimHei-5355" x="1650"/>
     <use xlink:href="#SimHei-4ef7" x="1750"/>
    </g>
   </g>
  </g>
 </g>
 <defs>
  <clipPath id="p258e06bafa">
   <rect x="90" y="51.84" width="558" height="332.64"/>
  </clipPath>
 </defs>
</svg>
