<?xml version="1.0" encoding="utf-8" standalone="no"?>
<!DOCTYPE svg PUBLIC "-//W3C//DTD SVG 1.1//EN"
  "http://www.w3.org/Graphics/SVG/1.1/DTD/svg11.dtd">
<svg xmlns:xlink="http://www.w3.org/1999/xlink" width="720pt" height="432pt" viewBox="0 0 720 432" xmlns="http://www.w3.org/2000/svg" version="1.1">
 <metadata>
  <rdf:RDF xmlns:dc="http://purl.org/dc/elements/1.1/" xmlns:cc="http://creativecommons.org/ns#" xmlns:rdf="http://www.w3.org/1999/02/22-rdf-syntax-ns#">
   <cc:Work>
    <dc:type rdf:resource="http://purl.org/dc/dcmitype/StillImage"/>
    <dc:date>2024-08-17T14:07:54.571033</dc:date>
    <dc:format>image/svg+xml</dc:format>
    <dc:creator>
     <cc:Agent>
      <dc:title>Matplotlib v3.8.0, https://matplotlib.org/</dc:title>
     </cc:Agent>
    </dc:creator>
   </cc:Work>
  </rdf:RDF>
 </metadata>
 <defs>
  <style type="text/css">*{stroke-linejoin: round; stroke-linecap: butt}</style>
 </defs>
 <g id="figure_1">
  <g id="patch_1">
   <path d="M 0 432 
L 720 432 
L 720 0 
L 0 0 
z
" style="fill: #ffffff"/>
  </g>
  <g id="axes_1">
   <g id="patch_2">
    <path d="M 90 384.48 
L 648 384.48 
L 648 51.84 
L 90 51.84 
z
" style="fill: #ffffff"/>
   </g>
   <g id="matplotlib.axis_1">
    <g id="xtick_1">
     <g id="line2d_1">
      <path d="M 109.566234 384.48 
L 109.566234 51.84 
" clip-path="url(#p4184d74213)" style="fill: none; stroke: #b0b0b0; stroke-width: 0.8; stroke-linecap: square"/>
     </g>
     <g id="line2d_2">
      <defs>
       <path id="m3fa5d83aa4" d="M 0 0 
L 0 3.5 
" style="stroke: #000000; stroke-width: 0.8"/>
      </defs>
      <g>
       <use xlink:href="#m3fa5d83aa4" x="109.566234" y="384.48" style="stroke: #000000; stroke-width: 0.8"/>
      </g>
     </g>
     <g id="text_1">
      <!-- 0 -->
      <g transform="translate(107.066234 398.355) scale(0.1 -0.1)">
       <defs>
        <path id="SimHei-30" d="M 225 2537 
Q 250 3200 412 3587 
Q 575 3975 875 4225 
Q 1175 4475 1612 4475 
Q 2050 4475 2375 4112 
Q 2700 3750 2800 3200 
Q 2900 2650 2862 1937 
Q 2825 1225 2612 775 
Q 2400 325 1975 150 
Q 1550 -25 1125 187 
Q 700 400 525 750 
Q 350 1100 275 1487 
Q 200 1875 225 2537 
z
M 750 2687 
Q 675 2000 800 1462 
Q 925 925 1212 700 
Q 1500 475 1800 612 
Q 2100 750 2237 1162 
Q 2375 1575 2375 2062 
Q 2375 2550 2337 2950 
Q 2300 3350 2112 3675 
Q 1925 4000 1612 4012 
Q 1300 4025 1062 3700 
Q 825 3375 750 2687 
z
" transform="scale(0.015625)"/>
       </defs>
       <use xlink:href="#SimHei-30"/>
      </g>
     </g>
    </g>
    <g id="xtick_2">
     <g id="line2d_3">
      <path d="M 182.033766 384.48 
L 182.033766 51.84 
" clip-path="url(#p4184d74213)" style="fill: none; stroke: #b0b0b0; stroke-width: 0.8; stroke-linecap: square"/>
     </g>
     <g id="line2d_4">
      <g>
       <use xlink:href="#m3fa5d83aa4" x="182.033766" y="384.48" style="stroke: #000000; stroke-width: 0.8"/>
      </g>
     </g>
     <g id="text_2">
      <!-- 25 -->
      <g transform="translate(177.033766 398.355) scale(0.1 -0.1)">
       <defs>
        <path id="SimHei-32" d="M 300 250 
Q 325 625 650 925 
Q 975 1225 1475 1862 
Q 1975 2500 2125 2850 
Q 2275 3200 2237 3450 
Q 2200 3700 2000 3862 
Q 1800 4025 1537 4000 
Q 1275 3975 1037 3800 
Q 800 3625 675 3275 
L 200 3350 
Q 400 3925 712 4187 
Q 1025 4450 1450 4475 
Q 1700 4500 1900 4462 
Q 2100 4425 2312 4287 
Q 2525 4150 2662 3875 
Q 2800 3600 2762 3212 
Q 2725 2825 2375 2287 
Q 2025 1750 1025 600 
L 2825 600 
L 2825 150 
L 300 150 
L 300 250 
z
" transform="scale(0.015625)"/>
        <path id="SimHei-35" d="M 550 1325 
Q 725 650 1150 575 
Q 1575 500 1837 662 
Q 2100 825 2212 1087 
Q 2325 1350 2312 1675 
Q 2300 2000 2137 2225 
Q 1975 2450 1725 2525 
Q 1475 2600 1162 2525 
Q 850 2450 650 2175 
L 225 2225 
Q 275 2375 700 4375 
L 2675 4375 
L 2675 3925 
L 1075 3925 
Q 950 3250 825 2850 
Q 1200 3025 1525 3012 
Q 1850 3000 2150 2862 
Q 2450 2725 2587 2487 
Q 2725 2250 2787 2012 
Q 2850 1775 2837 1500 
Q 2825 1225 2725 937 
Q 2625 650 2425 462 
Q 2225 275 1937 162 
Q 1650 50 1275 75 
Q 900 100 562 350 
Q 225 600 100 1200 
L 550 1325 
z
" transform="scale(0.015625)"/>
       </defs>
       <use xlink:href="#SimHei-32"/>
       <use xlink:href="#SimHei-35" x="50"/>
      </g>
     </g>
    </g>
    <g id="xtick_3">
     <g id="line2d_5">
      <path d="M 254.501299 384.48 
L 254.501299 51.84 
" clip-path="url(#p4184d74213)" style="fill: none; stroke: #b0b0b0; stroke-width: 0.8; stroke-linecap: square"/>
     </g>
     <g id="line2d_6">
      <g>
       <use xlink:href="#m3fa5d83aa4" x="254.501299" y="384.48" style="stroke: #000000; stroke-width: 0.8"/>
      </g>
     </g>
     <g id="text_3">
      <!-- 50 -->
      <g transform="translate(249.501299 398.355) scale(0.1 -0.1)">
       <use xlink:href="#SimHei-35"/>
       <use xlink:href="#SimHei-30" x="50"/>
      </g>
     </g>
    </g>
    <g id="xtick_4">
     <g id="line2d_7">
      <path d="M 326.968831 384.48 
L 326.968831 51.84 
" clip-path="url(#p4184d74213)" style="fill: none; stroke: #b0b0b0; stroke-width: 0.8; stroke-linecap: square"/>
     </g>
     <g id="line2d_8">
      <g>
       <use xlink:href="#m3fa5d83aa4" x="326.968831" y="384.48" style="stroke: #000000; stroke-width: 0.8"/>
      </g>
     </g>
     <g id="text_4">
      <!-- 75 -->
      <g transform="translate(321.968831 398.355) scale(0.1 -0.1)">
       <defs>
        <path id="SimHei-37" d="M 850 150 
Q 1300 2050 2425 3925 
L 275 3925 
L 275 4375 
L 2950 4375 
L 2950 3950 
Q 1775 2050 1400 150 
L 850 150 
z
" transform="scale(0.015625)"/>
       </defs>
       <use xlink:href="#SimHei-37"/>
       <use xlink:href="#SimHei-35" x="50"/>
      </g>
     </g>
    </g>
    <g id="xtick_5">
     <g id="line2d_9">
      <path d="M 399.436364 384.48 
L 399.436364 51.84 
" clip-path="url(#p4184d74213)" style="fill: none; stroke: #b0b0b0; stroke-width: 0.8; stroke-linecap: square"/>
     </g>
     <g id="line2d_10">
      <g>
       <use xlink:href="#m3fa5d83aa4" x="399.436364" y="384.48" style="stroke: #000000; stroke-width: 0.8"/>
      </g>
     </g>
     <g id="text_5">
      <!-- 100 -->
      <g transform="translate(391.936364 398.355) scale(0.1 -0.1)">
       <defs>
        <path id="SimHei-31" d="M 1400 3600 
Q 1075 3275 575 2975 
L 575 3450 
Q 1200 3875 1600 4450 
L 1900 4450 
L 1900 150 
L 1400 150 
L 1400 3600 
z
" transform="scale(0.015625)"/>
       </defs>
       <use xlink:href="#SimHei-31"/>
       <use xlink:href="#SimHei-30" x="50"/>
       <use xlink:href="#SimHei-30" x="100"/>
      </g>
     </g>
    </g>
    <g id="xtick_6">
     <g id="line2d_11">
      <path d="M 471.903896 384.48 
L 471.903896 51.84 
" clip-path="url(#p4184d74213)" style="fill: none; stroke: #b0b0b0; stroke-width: 0.8; stroke-linecap: square"/>
     </g>
     <g id="line2d_12">
      <g>
       <use xlink:href="#m3fa5d83aa4" x="471.903896" y="384.48" style="stroke: #000000; stroke-width: 0.8"/>
      </g>
     </g>
     <g id="text_6">
      <!-- 125 -->
      <g transform="translate(464.403896 398.355) scale(0.1 -0.1)">
       <use xlink:href="#SimHei-31"/>
       <use xlink:href="#SimHei-32" x="50"/>
       <use xlink:href="#SimHei-35" x="100"/>
      </g>
     </g>
    </g>
    <g id="xtick_7">
     <g id="line2d_13">
      <path d="M 544.371429 384.48 
L 544.371429 51.84 
" clip-path="url(#p4184d74213)" style="fill: none; stroke: #b0b0b0; stroke-width: 0.8; stroke-linecap: square"/>
     </g>
     <g id="line2d_14">
      <g>
       <use xlink:href="#m3fa5d83aa4" x="544.371429" y="384.48" style="stroke: #000000; stroke-width: 0.8"/>
      </g>
     </g>
     <g id="text_7">
      <!-- 150 -->
      <g transform="translate(536.871429 398.355) scale(0.1 -0.1)">
       <use xlink:href="#SimHei-31"/>
       <use xlink:href="#SimHei-35" x="50"/>
       <use xlink:href="#SimHei-30" x="100"/>
      </g>
     </g>
    </g>
    <g id="xtick_8">
     <g id="line2d_15">
      <path d="M 616.838961 384.48 
L 616.838961 51.84 
" clip-path="url(#p4184d74213)" style="fill: none; stroke: #b0b0b0; stroke-width: 0.8; stroke-linecap: square"/>
     </g>
     <g id="line2d_16">
      <g>
       <use xlink:href="#m3fa5d83aa4" x="616.838961" y="384.48" style="stroke: #000000; stroke-width: 0.8"/>
      </g>
     </g>
     <g id="text_8">
      <!-- 175 -->
      <g transform="translate(609.338961 398.355) scale(0.1 -0.1)">
       <use xlink:href="#SimHei-31"/>
       <use xlink:href="#SimHei-37" x="50"/>
       <use xlink:href="#SimHei-35" x="100"/>
      </g>
     </g>
    </g>
    <g id="text_9">
     <!-- 周数 -->
     <g transform="translate(359 411.339375) scale(0.1 -0.1)">
      <defs>
       <path id="SimHei-5468" d="M 5600 4925 
Q 5575 4400 5575 3800 
L 5575 50 
Q 5550 -375 5325 -462 
Q 5100 -550 4325 -600 
Q 4300 -400 4125 -75 
Q 4800 -100 4962 -37 
Q 5125 25 5100 225 
L 5100 4525 
L 1500 4525 
Q 1500 2575 1450 1887 
Q 1400 1200 1237 550 
Q 1075 -100 775 -625 
Q 625 -450 275 -225 
Q 650 225 825 1000 
Q 1000 1775 1025 2587 
Q 1050 3400 1000 4925 
L 5600 4925 
z
M 2050 325 
Q 2075 625 2075 950 
L 2075 1400 
Q 2075 1625 2050 1925 
L 4400 1925 
Q 4375 1725 4375 1450 
L 4375 875 
Q 4375 600 4400 325 
L 2050 325 
z
M 3000 3800 
Q 3000 4150 2975 4375 
L 3475 4375 
Q 3450 4075 3450 3800 
Q 4100 3800 4475 3825 
L 4475 3350 
Q 4125 3375 3450 3375 
L 3450 2800 
Q 4200 2800 4825 2825 
L 4825 2350 
Q 4175 2375 3725 2375 
L 2750 2375 
Q 2325 2375 1725 2350 
L 1725 2825 
Q 2325 2800 3000 2800 
L 3000 3375 
Q 2500 3375 1975 3350 
L 1975 3825 
Q 2475 3800 3000 3800 
z
M 3900 725 
L 3900 1525 
L 2550 1525 
L 2550 725 
L 3900 725 
z
" transform="scale(0.015625)"/>
       <path id="SimHei-6570" d="M 4525 4925 
Q 4475 4800 4400 4587 
Q 4325 4375 4175 3825 
L 5325 3825 
Q 5575 3825 5925 3850 
L 5925 3400 
Q 5650 3425 5500 3425 
Q 5500 3025 5362 2162 
Q 5225 1300 4875 675 
Q 5125 375 5437 137 
Q 5750 -100 6025 -200 
Q 5725 -425 5625 -625 
Q 5325 -450 5075 -225 
Q 4825 0 4575 325 
Q 4300 25 3987 -187 
Q 3675 -400 3200 -650 
Q 3075 -425 2850 -300 
Q 3225 -150 3650 125 
Q 4075 400 4300 675 
Q 4125 1025 3962 1425 
Q 3800 1825 3675 2475 
Q 3600 2275 3425 1950 
Q 3250 2050 3000 2150 
Q 3400 2850 3650 3675 
Q 3900 4500 3975 5100 
Q 4275 4975 4525 4925 
z
M 2100 2250 
Q 2000 2150 1875 1925 
L 3250 1925 
Q 3100 1300 2725 675 
Q 3125 525 3350 400 
Q 3225 225 3125 25 
Q 2900 175 2450 325 
Q 1950 -225 725 -650 
Q 600 -375 400 -275 
Q 1575 0 2000 475 
Q 1300 650 850 775 
Q 1000 1000 1250 1525 
Q 1000 1525 425 1500 
L 425 1950 
Q 900 1925 1400 1925 
Q 1500 2150 1550 2425 
Q 1825 2325 2100 2250 
z
M 1775 3950 
Q 1775 4550 1750 5100 
L 2250 5100 
Q 2225 4575 2225 3950 
Q 3075 3950 3425 3975 
L 3425 3525 
Q 3075 3550 2225 3550 
Q 2225 2825 2250 2425 
L 1750 2425 
Q 1775 2775 1775 3300 
Q 1650 3100 1300 2787 
Q 950 2475 650 2300 
Q 525 2525 275 2625 
Q 500 2700 875 2975 
Q 1250 3250 1450 3550 
Q 950 3550 500 3525 
L 500 3975 
Q 925 3950 1775 3950 
z
M 3975 3175 
Q 4200 1700 4600 1125 
Q 4850 1700 4937 2287 
Q 5025 2875 5050 3425 
L 4075 3425 
L 3975 3175 
z
M 1450 1000 
Q 1750 925 2275 800 
Q 2475 1050 2650 1525 
L 1725 1525 
Q 1600 1275 1450 1000 
z
M 3325 4825 
Q 3200 4625 3125 4450 
Q 3050 4275 2925 4025 
Q 2725 4125 2525 4175 
Q 2725 4500 2900 5000 
Q 3150 4875 3325 4825 
z
M 2575 3375 
Q 2900 3050 3200 2725 
Q 3050 2600 2875 2425 
Q 2525 2850 2300 3100 
Q 2450 3225 2575 3375 
z
M 925 5000 
Q 1275 4650 1500 4300 
L 1125 4075 
Q 950 4425 600 4725 
Q 825 4875 925 5000 
z
" transform="scale(0.015625)"/>
      </defs>
      <use xlink:href="#SimHei-5468"/>
      <use xlink:href="#SimHei-6570" x="100"/>
     </g>
    </g>
   </g>
   <g id="matplotlib.axis_2">
    <g id="ytick_1">
     <g id="line2d_17">
      <path d="M 90 377.950068 
L 648 377.950068 
" clip-path="url(#p4184d74213)" style="fill: none; stroke: #b0b0b0; stroke-width: 0.8; stroke-linecap: square"/>
     </g>
     <g id="line2d_18">
      <defs>
       <path id="mc2e02b10e9" d="M 0 0 
L -3.5 0 
" style="stroke: #000000; stroke-width: 0.8"/>
      </defs>
      <g>
       <use xlink:href="#mc2e02b10e9" x="90" y="377.950068" style="stroke: #000000; stroke-width: 0.8"/>
      </g>
     </g>
     <g id="text_10">
      <!-- 0 -->
      <g transform="translate(78 381.387568) scale(0.1 -0.1)">
       <use xlink:href="#SimHei-30"/>
      </g>
     </g>
    </g>
    <g id="ytick_2">
     <g id="line2d_19">
      <path d="M 90 312.089943 
L 648 312.089943 
" clip-path="url(#p4184d74213)" style="fill: none; stroke: #b0b0b0; stroke-width: 0.8; stroke-linecap: square"/>
     </g>
     <g id="line2d_20">
      <g>
       <use xlink:href="#mc2e02b10e9" x="90" y="312.089943" style="stroke: #000000; stroke-width: 0.8"/>
      </g>
     </g>
     <g id="text_11">
      <!-- 2000 -->
      <g transform="translate(63 315.527443) scale(0.1 -0.1)">
       <use xlink:href="#SimHei-32"/>
       <use xlink:href="#SimHei-30" x="50"/>
       <use xlink:href="#SimHei-30" x="100"/>
       <use xlink:href="#SimHei-30" x="150"/>
      </g>
     </g>
    </g>
    <g id="ytick_3">
     <g id="line2d_21">
      <path d="M 90 246.229818 
L 648 246.229818 
" clip-path="url(#p4184d74213)" style="fill: none; stroke: #b0b0b0; stroke-width: 0.8; stroke-linecap: square"/>
     </g>
     <g id="line2d_22">
      <g>
       <use xlink:href="#mc2e02b10e9" x="90" y="246.229818" style="stroke: #000000; stroke-width: 0.8"/>
      </g>
     </g>
     <g id="text_12">
      <!-- 4000 -->
      <g transform="translate(63 249.667318) scale(0.1 -0.1)">
       <defs>
        <path id="SimHei-34" d="M 2000 1100 
L 75 1100 
L 75 1525 
L 2100 4450 
L 2475 4450 
L 2475 1525 
L 3075 1525 
L 3075 1100 
L 2475 1100 
L 2475 150 
L 2000 150 
L 2000 1100 
z
M 2000 1525 
L 2000 3500 
L 600 1525 
L 2000 1525 
z
" transform="scale(0.015625)"/>
       </defs>
       <use xlink:href="#SimHei-34"/>
       <use xlink:href="#SimHei-30" x="50"/>
       <use xlink:href="#SimHei-30" x="100"/>
       <use xlink:href="#SimHei-30" x="150"/>
      </g>
     </g>
    </g>
    <g id="ytick_4">
     <g id="line2d_23">
      <path d="M 90 180.369693 
L 648 180.369693 
" clip-path="url(#p4184d74213)" style="fill: none; stroke: #b0b0b0; stroke-width: 0.8; stroke-linecap: square"/>
     </g>
     <g id="line2d_24">
      <g>
       <use xlink:href="#mc2e02b10e9" x="90" y="180.369693" style="stroke: #000000; stroke-width: 0.8"/>
      </g>
     </g>
     <g id="text_13">
      <!-- 6000 -->
      <g transform="translate(63 183.807193) scale(0.1 -0.1)">
       <defs>
        <path id="SimHei-36" d="M 250 1612 
Q 275 1975 387 2225 
Q 500 2475 725 2850 
L 1750 4450 
L 2325 4450 
L 1275 2800 
Q 1950 2975 2350 2750 
Q 2750 2525 2887 2237 
Q 3025 1950 3037 1612 
Q 3050 1275 2937 950 
Q 2825 625 2537 362 
Q 2250 100 1737 75 
Q 1225 50 862 262 
Q 500 475 362 862 
Q 225 1250 250 1612 
z
M 1025 787 
Q 1250 550 1625 525 
Q 2000 500 2250 775 
Q 2500 1050 2500 1575 
Q 2500 2100 2187 2300 
Q 1875 2500 1487 2450 
Q 1100 2400 925 2075 
Q 750 1750 775 1387 
Q 800 1025 1025 787 
z
" transform="scale(0.015625)"/>
       </defs>
       <use xlink:href="#SimHei-36"/>
       <use xlink:href="#SimHei-30" x="50"/>
       <use xlink:href="#SimHei-30" x="100"/>
       <use xlink:href="#SimHei-30" x="150"/>
      </g>
     </g>
    </g>
    <g id="ytick_5">
     <g id="line2d_25">
      <path d="M 90 114.509568 
L 648 114.509568 
" clip-path="url(#p4184d74213)" style="fill: none; stroke: #b0b0b0; stroke-width: 0.8; stroke-linecap: square"/>
     </g>
     <g id="line2d_26">
      <g>
       <use xlink:href="#mc2e02b10e9" x="90" y="114.509568" style="stroke: #000000; stroke-width: 0.8"/>
      </g>
     </g>
     <g id="text_14">
      <!-- 8000 -->
      <g transform="translate(63 117.947068) scale(0.1 -0.1)">
       <defs>
        <path id="SimHei-38" d="M 175 1375 
Q 175 1675 325 1962 
Q 475 2250 825 2425 
Q 525 2600 425 2812 
Q 325 3025 312 3300 
Q 300 3575 387 3775 
Q 475 3975 650 4150 
Q 825 4325 1037 4387 
Q 1250 4450 1500 4450 
Q 1750 4450 1950 4400 
Q 2150 4350 2375 4187 
Q 2600 4025 2700 3725 
Q 2800 3425 2687 3025 
Q 2575 2625 2100 2400 
Q 2525 2275 2700 2012 
Q 2875 1750 2875 1375 
Q 2875 1000 2762 775 
Q 2650 550 2512 400 
Q 2375 250 2137 162 
Q 1900 75 1537 75 
Q 1175 75 912 162 
Q 650 250 475 425 
Q 300 600 237 837 
Q 175 1075 175 1375 
z
M 687 1400 
Q 675 1100 787 875 
Q 900 650 1200 587 
Q 1500 525 1825 600 
Q 2150 675 2275 950 
Q 2400 1225 2362 1500 
Q 2325 1775 2050 1962 
Q 1775 2150 1450 2125 
Q 1125 2100 912 1900 
Q 700 1700 687 1400 
z
M 775 3350 
Q 775 3100 950 2875 
Q 1125 2650 1500 2650 
Q 1875 2650 2062 2875 
Q 2250 3100 2237 3412 
Q 2225 3725 2012 3875 
Q 1800 4025 1437 4000 
Q 1075 3975 925 3787 
Q 775 3600 775 3350 
z
" transform="scale(0.015625)"/>
       </defs>
       <use xlink:href="#SimHei-38"/>
       <use xlink:href="#SimHei-30" x="50"/>
       <use xlink:href="#SimHei-30" x="100"/>
       <use xlink:href="#SimHei-30" x="150"/>
      </g>
     </g>
    </g>
    <g id="text_15">
     <!-- 收益 -->
     <g transform="translate(57.75 228.16) rotate(-90) scale(0.1 -0.1)">
      <defs>
       <path id="SimHei-6536" d="M 4250 5050 
Q 4125 4850 3750 4050 
L 5150 4050 
Q 5675 4050 6125 4075 
L 6125 3600 
Q 5675 3625 5300 3625 
Q 5225 2625 5025 1975 
Q 4825 1325 4575 900 
Q 4900 500 5287 275 
Q 5675 50 6200 -75 
Q 5900 -275 5800 -550 
Q 5300 -350 4950 -100 
Q 4600 150 4275 525 
Q 3800 0 2775 -625 
Q 2650 -425 2300 -225 
Q 3275 150 3950 925 
Q 3775 1325 3612 1787 
Q 3450 2250 3250 3000 
Q 2975 2450 2825 2275 
Q 2650 2400 2425 2525 
Q 2775 3025 3137 3837 
Q 3500 4650 3625 5250 
Q 3925 5125 4250 5050 
z
M 975 4275 
Q 925 3950 925 3450 
L 925 1575 
L 1775 1725 
L 1775 4425 
Q 1775 4775 1750 5150 
L 2250 5150 
Q 2225 4850 2225 4450 
L 2225 300 
Q 2225 -50 2250 -550 
L 1750 -550 
Q 1775 -25 1775 350 
L 1775 1350 
Q 625 1050 500 925 
Q 375 1125 225 1350 
Q 450 1475 450 1800 
L 450 3575 
Q 450 3925 425 4275 
L 975 4275 
z
M 3725 3150 
Q 3800 2700 3962 2212 
Q 4125 1725 4300 1375 
Q 4725 2150 4825 3625 
L 3575 3625 
Q 3400 3275 3300 3100 
L 3725 3150 
z
" transform="scale(0.015625)"/>
       <path id="SimHei-76ca" d="M 2825 2925 
Q 2425 2775 2012 2487 
Q 1600 2200 1225 1975 
L 5275 1975 
Q 5250 1575 5250 1000 
L 5250 -50 
Q 5800 -50 6175 -25 
L 6175 -525 
Q 5725 -500 5250 -500 
L 1325 -500 
Q 700 -500 250 -525 
L 250 -25 
Q 600 -50 1175 -50 
L 1175 1050 
Q 1175 1575 1150 1925 
Q 1000 1800 800 1700 
Q 650 1950 425 2125 
Q 800 2275 1312 2600 
Q 1825 2925 2325 3400 
Q 2550 3150 2825 2925 
z
M 4725 5050 
Q 4575 4900 4462 4637 
Q 4350 4375 4175 4075 
L 4625 4075 
Q 5350 4075 5900 4100 
L 5900 3625 
Q 5350 3650 4625 3650 
L 1975 3650 
Q 1350 3650 550 3625 
L 550 4100 
Q 1175 4075 1975 4075 
L 3675 4075 
Q 3775 4300 3887 4625 
Q 4000 4950 4125 5250 
L 4725 5050 
z
M 3600 -50 
L 3600 1575 
L 2800 1575 
L 2800 -50 
L 3600 -50 
z
M 4800 -50 
L 4800 1575 
L 4025 1575 
L 4025 -50 
L 4800 -50 
z
M 2375 -50 
L 2375 1575 
L 1625 1575 
L 1625 -50 
L 2375 -50 
z
M 3900 3350 
Q 4375 3150 4900 2925 
Q 5425 2700 5900 2500 
Q 5700 2300 5550 2000 
Q 5025 2300 4512 2537 
Q 4000 2775 3625 2900 
Q 3750 3075 3900 3350 
z
M 2150 5250 
Q 2375 4925 2650 4350 
Q 2425 4275 2150 4125 
Q 1950 4650 1675 5025 
Q 1875 5100 2150 5250 
z
" transform="scale(0.015625)"/>
      </defs>
      <use xlink:href="#SimHei-6536"/>
      <use xlink:href="#SimHei-76ca" x="100"/>
     </g>
    </g>
   </g>
   <g id="line2d_27">
    <path d="M 115.363636 234.269369 
L 121.161039 360.057622 
L 129.857143 324.324351 
L 132.755844 368.868562 
L 135.654545 341.958067 
L 138.553247 324.243844 
L 141.451948 270.698635 
L 144.350649 306.367753 
L 147.249351 351.096524 
L 153.046753 288.168694 
L 155.945455 360.022223 
L 158.844156 368.986145 
L 164.641558 288.34713 
L 167.54026 315.237541 
L 173.337662 342.114338 
L 176.236364 315.322814 
L 179.135065 342.131815 
L 182.033766 342.184244 
L 184.932468 315.380098 
L 187.831169 252.800018 
L 190.72987 333.228352 
L 193.628571 279.586834 
L 196.527273 252.740813 
L 199.425974 351.118482 
L 202.324675 332.739302 
L 205.223377 225.884187 
L 208.122078 360.067156 
L 213.919481 306.526128 
L 219.716883 351.152627 
L 222.615584 199.255582 
L 228.412987 342.239325 
L 231.311688 315.414957 
L 234.21039 270.735218 
L 240.007792 360.215228 
L 245.805195 262.492813 
L 248.703896 66.96 
L 251.602597 298.685683 
L 254.501299 226.069308 
L 257.4 325.107145 
L 263.197403 324.93118 
L 266.096104 359.878081 
L 268.994805 316.168019 
L 286.387013 351.528608 
L 289.285714 289.790551 
L 292.184416 325.019164 
L 297.981818 325.149644 
L 300.880519 360.35701 
L 303.779221 369.153539 
L 309.576623 342.763951 
L 312.475325 342.763951 
L 315.374026 369.098923 
L 318.272727 333.858191 
L 324.07013 298.620083 
L 326.968831 360.359553 
L 329.867532 360.359562 
L 332.766234 281.064132 
L 335.664935 342.769056 
L 338.563636 360.359562 
L 341.462338 360.359562 
L 344.361039 325.144013 
L 347.25974 360.359562 
L 350.158442 272.407031 
L 353.057143 360.359562 
L 355.955844 351.564309 
L 358.854545 219.152 
L 361.753247 245.503224 
L 364.651948 192.619521 
L 367.550649 289.810561 
L 370.449351 289.715519 
L 373.348052 369.221929 
L 376.246753 264.48426 
L 379.145455 316.853095 
L 382.044156 290.668677 
L 387.841558 343.04358 
L 390.74026 343.04358 
L 393.638961 264.389076 
L 396.537662 351.770202 
L 399.436364 369.203406 
L 402.335065 308.200159 
L 405.233766 334.282554 
L 408.132468 351.747313 
L 411.031169 343.062979 
L 416.828571 351.701416 
L 419.727273 343.013612 
L 422.625974 325.644117 
L 425.524675 325.545385 
L 428.423377 360.48184 
L 440.018182 360.48184 
L 442.916883 299.613926 
L 445.815584 317.131521 
L 451.612987 283.066743 
L 454.511688 351.910256 
L 457.41039 343.261813 
L 460.309091 308.727292 
L 463.207792 351.957497 
L 469.005195 317.337422 
L 471.903896 360.621688 
L 474.802597 369.322563 
L 483.498701 326.185041 
L 486.397403 360.695059 
L 489.296104 308.930031 
L 492.194805 352.142427 
L 497.992208 283.459319 
L 500.890909 369.36 
L 503.78961 317.943301 
L 506.688312 335.02257 
L 509.587013 335.037798 
L 512.485714 352.257789 
L 515.384416 266.378166 
L 518.283117 309.290436 
L 521.181818 326.343788 
L 524.080519 231.539201 
L 529.877922 222.368246 
L 532.776623 231.154668 
L 535.675325 231.144306 
L 538.574026 334.774951 
L 547.27013 360.680029 
L 550.168831 317.50493 
L 553.067532 360.680029 
L 558.864935 360.625299 
L 576.257143 360.63037 
L 584.953247 343.320814 
L 587.851948 291.290591 
L 590.750649 308.576437 
L 593.649351 343.263253 
L 602.345455 343.263253 
L 605.244156 334.47142 
L 611.041558 325.739652 
L 619.737662 369.248332 
L 622.636364 290.932707 
L 622.636364 290.932707 
" clip-path="url(#p4184d74213)" style="fill: none; stroke: #008000; stroke-width: 1.5; stroke-linecap: square"/>
    <defs>
     <path id="md4f1523c1e" d="M 0 3 
C 0.795609 3 1.55874 2.683901 2.12132 2.12132 
C 2.683901 1.55874 3 0.795609 3 0 
C 3 -0.795609 2.683901 -1.55874 2.12132 -2.12132 
C 1.55874 -2.683901 0.795609 -3 0 -3 
C -0.795609 -3 -1.55874 -2.683901 -2.12132 -2.12132 
C -2.683901 -1.55874 -3 -0.795609 -3 0 
C -3 0.795609 -2.683901 1.55874 -2.12132 2.12132 
C -1.55874 2.683901 -0.795609 3 0 3 
z
" style="stroke: #008000"/>
    </defs>
    <g clip-path="url(#p4184d74213)">
     <use xlink:href="#md4f1523c1e" x="115.363636" y="234.269369" style="fill: #008000; stroke: #008000"/>
     <use xlink:href="#md4f1523c1e" x="121.161039" y="360.057622" style="fill: #008000; stroke: #008000"/>
     <use xlink:href="#md4f1523c1e" x="129.857143" y="324.324351" style="fill: #008000; stroke: #008000"/>
     <use xlink:href="#md4f1523c1e" x="132.755844" y="368.868562" style="fill: #008000; stroke: #008000"/>
     <use xlink:href="#md4f1523c1e" x="135.654545" y="341.958067" style="fill: #008000; stroke: #008000"/>
     <use xlink:href="#md4f1523c1e" x="138.553247" y="324.243844" style="fill: #008000; stroke: #008000"/>
     <use xlink:href="#md4f1523c1e" x="141.451948" y="270.698635" style="fill: #008000; stroke: #008000"/>
     <use xlink:href="#md4f1523c1e" x="144.350649" y="306.367753" style="fill: #008000; stroke: #008000"/>
     <use xlink:href="#md4f1523c1e" x="147.249351" y="351.096524" style="fill: #008000; stroke: #008000"/>
     <use xlink:href="#md4f1523c1e" x="153.046753" y="288.168694" style="fill: #008000; stroke: #008000"/>
     <use xlink:href="#md4f1523c1e" x="155.945455" y="360.022223" style="fill: #008000; stroke: #008000"/>
     <use xlink:href="#md4f1523c1e" x="158.844156" y="368.986145" style="fill: #008000; stroke: #008000"/>
     <use xlink:href="#md4f1523c1e" x="164.641558" y="288.34713" style="fill: #008000; stroke: #008000"/>
     <use xlink:href="#md4f1523c1e" x="167.54026" y="315.237541" style="fill: #008000; stroke: #008000"/>
     <use xlink:href="#md4f1523c1e" x="173.337662" y="342.114338" style="fill: #008000; stroke: #008000"/>
     <use xlink:href="#md4f1523c1e" x="176.236364" y="315.322814" style="fill: #008000; stroke: #008000"/>
     <use xlink:href="#md4f1523c1e" x="179.135065" y="342.131815" style="fill: #008000; stroke: #008000"/>
     <use xlink:href="#md4f1523c1e" x="182.033766" y="342.184244" style="fill: #008000; stroke: #008000"/>
     <use xlink:href="#md4f1523c1e" x="184.932468" y="315.380098" style="fill: #008000; stroke: #008000"/>
     <use xlink:href="#md4f1523c1e" x="187.831169" y="252.800018" style="fill: #008000; stroke: #008000"/>
     <use xlink:href="#md4f1523c1e" x="190.72987" y="333.228352" style="fill: #008000; stroke: #008000"/>
     <use xlink:href="#md4f1523c1e" x="193.628571" y="279.586834" style="fill: #008000; stroke: #008000"/>
     <use xlink:href="#md4f1523c1e" x="196.527273" y="252.740813" style="fill: #008000; stroke: #008000"/>
     <use xlink:href="#md4f1523c1e" x="199.425974" y="351.118482" style="fill: #008000; stroke: #008000"/>
     <use xlink:href="#md4f1523c1e" x="202.324675" y="332.739302" style="fill: #008000; stroke: #008000"/>
     <use xlink:href="#md4f1523c1e" x="205.223377" y="225.884187" style="fill: #008000; stroke: #008000"/>
     <use xlink:href="#md4f1523c1e" x="208.122078" y="360.067156" style="fill: #008000; stroke: #008000"/>
     <use xlink:href="#md4f1523c1e" x="213.919481" y="306.526128" style="fill: #008000; stroke: #008000"/>
     <use xlink:href="#md4f1523c1e" x="219.716883" y="351.152627" style="fill: #008000; stroke: #008000"/>
     <use xlink:href="#md4f1523c1e" x="222.615584" y="199.255582" style="fill: #008000; stroke: #008000"/>
     <use xlink:href="#md4f1523c1e" x="225.514286" y="270.815385" style="fill: #008000; stroke: #008000"/>
     <use xlink:href="#md4f1523c1e" x="228.412987" y="342.239325" style="fill: #008000; stroke: #008000"/>
     <use xlink:href="#md4f1523c1e" x="231.311688" y="315.414957" style="fill: #008000; stroke: #008000"/>
     <use xlink:href="#md4f1523c1e" x="234.21039" y="270.735218" style="fill: #008000; stroke: #008000"/>
     <use xlink:href="#md4f1523c1e" x="237.109091" y="315.817864" style="fill: #008000; stroke: #008000"/>
     <use xlink:href="#md4f1523c1e" x="240.007792" y="360.215228" style="fill: #008000; stroke: #008000"/>
     <use xlink:href="#md4f1523c1e" x="245.805195" y="262.492813" style="fill: #008000; stroke: #008000"/>
     <use xlink:href="#md4f1523c1e" x="248.703896" y="66.96" style="fill: #008000; stroke: #008000"/>
     <use xlink:href="#md4f1523c1e" x="251.602597" y="298.685683" style="fill: #008000; stroke: #008000"/>
     <use xlink:href="#md4f1523c1e" x="254.501299" y="226.069308" style="fill: #008000; stroke: #008000"/>
     <use xlink:href="#md4f1523c1e" x="257.4" y="325.107145" style="fill: #008000; stroke: #008000"/>
     <use xlink:href="#md4f1523c1e" x="263.197403" y="324.93118" style="fill: #008000; stroke: #008000"/>
     <use xlink:href="#md4f1523c1e" x="266.096104" y="359.878081" style="fill: #008000; stroke: #008000"/>
     <use xlink:href="#md4f1523c1e" x="268.994805" y="316.168019" style="fill: #008000; stroke: #008000"/>
     <use xlink:href="#md4f1523c1e" x="286.387013" y="351.528608" style="fill: #008000; stroke: #008000"/>
     <use xlink:href="#md4f1523c1e" x="289.285714" y="289.790551" style="fill: #008000; stroke: #008000"/>
     <use xlink:href="#md4f1523c1e" x="292.184416" y="325.019164" style="fill: #008000; stroke: #008000"/>
     <use xlink:href="#md4f1523c1e" x="295.083117" y="325.107147" style="fill: #008000; stroke: #008000"/>
     <use xlink:href="#md4f1523c1e" x="297.981818" y="325.149644" style="fill: #008000; stroke: #008000"/>
     <use xlink:href="#md4f1523c1e" x="300.880519" y="360.35701" style="fill: #008000; stroke: #008000"/>
     <use xlink:href="#md4f1523c1e" x="303.779221" y="369.153539" style="fill: #008000; stroke: #008000"/>
     <use xlink:href="#md4f1523c1e" x="309.576623" y="342.763951" style="fill: #008000; stroke: #008000"/>
     <use xlink:href="#md4f1523c1e" x="312.475325" y="342.763951" style="fill: #008000; stroke: #008000"/>
     <use xlink:href="#md4f1523c1e" x="315.374026" y="369.098923" style="fill: #008000; stroke: #008000"/>
     <use xlink:href="#md4f1523c1e" x="318.272727" y="333.858191" style="fill: #008000; stroke: #008000"/>
     <use xlink:href="#md4f1523c1e" x="324.07013" y="298.620083" style="fill: #008000; stroke: #008000"/>
     <use xlink:href="#md4f1523c1e" x="326.968831" y="360.359553" style="fill: #008000; stroke: #008000"/>
     <use xlink:href="#md4f1523c1e" x="329.867532" y="360.359562" style="fill: #008000; stroke: #008000"/>
     <use xlink:href="#md4f1523c1e" x="332.766234" y="281.064132" style="fill: #008000; stroke: #008000"/>
     <use xlink:href="#md4f1523c1e" x="335.664935" y="342.769056" style="fill: #008000; stroke: #008000"/>
     <use xlink:href="#md4f1523c1e" x="338.563636" y="360.359562" style="fill: #008000; stroke: #008000"/>
     <use xlink:href="#md4f1523c1e" x="341.462338" y="360.359562" style="fill: #008000; stroke: #008000"/>
     <use xlink:href="#md4f1523c1e" x="344.361039" y="325.144013" style="fill: #008000; stroke: #008000"/>
     <use xlink:href="#md4f1523c1e" x="347.25974" y="360.359562" style="fill: #008000; stroke: #008000"/>
     <use xlink:href="#md4f1523c1e" x="350.158442" y="272.407031" style="fill: #008000; stroke: #008000"/>
     <use xlink:href="#md4f1523c1e" x="353.057143" y="360.359562" style="fill: #008000; stroke: #008000"/>
     <use xlink:href="#md4f1523c1e" x="355.955844" y="351.564309" style="fill: #008000; stroke: #008000"/>
     <use xlink:href="#md4f1523c1e" x="358.854545" y="219.152" style="fill: #008000; stroke: #008000"/>
     <use xlink:href="#md4f1523c1e" x="361.753247" y="245.503224" style="fill: #008000; stroke: #008000"/>
     <use xlink:href="#md4f1523c1e" x="364.651948" y="192.619521" style="fill: #008000; stroke: #008000"/>
     <use xlink:href="#md4f1523c1e" x="367.550649" y="289.810561" style="fill: #008000; stroke: #008000"/>
     <use xlink:href="#md4f1523c1e" x="370.449351" y="289.715519" style="fill: #008000; stroke: #008000"/>
     <use xlink:href="#md4f1523c1e" x="373.348052" y="369.221929" style="fill: #008000; stroke: #008000"/>
     <use xlink:href="#md4f1523c1e" x="376.246753" y="264.48426" style="fill: #008000; stroke: #008000"/>
     <use xlink:href="#md4f1523c1e" x="379.145455" y="316.853095" style="fill: #008000; stroke: #008000"/>
     <use xlink:href="#md4f1523c1e" x="382.044156" y="290.668677" style="fill: #008000; stroke: #008000"/>
     <use xlink:href="#md4f1523c1e" x="387.841558" y="343.04358" style="fill: #008000; stroke: #008000"/>
     <use xlink:href="#md4f1523c1e" x="390.74026" y="343.04358" style="fill: #008000; stroke: #008000"/>
     <use xlink:href="#md4f1523c1e" x="393.638961" y="264.389076" style="fill: #008000; stroke: #008000"/>
     <use xlink:href="#md4f1523c1e" x="396.537662" y="351.770202" style="fill: #008000; stroke: #008000"/>
     <use xlink:href="#md4f1523c1e" x="399.436364" y="369.203406" style="fill: #008000; stroke: #008000"/>
     <use xlink:href="#md4f1523c1e" x="402.335065" y="308.200159" style="fill: #008000; stroke: #008000"/>
     <use xlink:href="#md4f1523c1e" x="405.233766" y="334.282554" style="fill: #008000; stroke: #008000"/>
     <use xlink:href="#md4f1523c1e" x="408.132468" y="351.747313" style="fill: #008000; stroke: #008000"/>
     <use xlink:href="#md4f1523c1e" x="411.031169" y="343.062979" style="fill: #008000; stroke: #008000"/>
     <use xlink:href="#md4f1523c1e" x="416.828571" y="351.701416" style="fill: #008000; stroke: #008000"/>
     <use xlink:href="#md4f1523c1e" x="419.727273" y="343.013612" style="fill: #008000; stroke: #008000"/>
     <use xlink:href="#md4f1523c1e" x="422.625974" y="325.644117" style="fill: #008000; stroke: #008000"/>
     <use xlink:href="#md4f1523c1e" x="425.524675" y="325.545385" style="fill: #008000; stroke: #008000"/>
     <use xlink:href="#md4f1523c1e" x="428.423377" y="360.48184" style="fill: #008000; stroke: #008000"/>
     <use xlink:href="#md4f1523c1e" x="440.018182" y="360.48184" style="fill: #008000; stroke: #008000"/>
     <use xlink:href="#md4f1523c1e" x="442.916883" y="299.613926" style="fill: #008000; stroke: #008000"/>
     <use xlink:href="#md4f1523c1e" x="445.815584" y="317.131521" style="fill: #008000; stroke: #008000"/>
     <use xlink:href="#md4f1523c1e" x="451.612987" y="283.066743" style="fill: #008000; stroke: #008000"/>
     <use xlink:href="#md4f1523c1e" x="454.511688" y="351.910256" style="fill: #008000; stroke: #008000"/>
     <use xlink:href="#md4f1523c1e" x="457.41039" y="343.261813" style="fill: #008000; stroke: #008000"/>
     <use xlink:href="#md4f1523c1e" x="460.309091" y="308.727292" style="fill: #008000; stroke: #008000"/>
     <use xlink:href="#md4f1523c1e" x="463.207792" y="351.957497" style="fill: #008000; stroke: #008000"/>
     <use xlink:href="#md4f1523c1e" x="469.005195" y="317.337422" style="fill: #008000; stroke: #008000"/>
     <use xlink:href="#md4f1523c1e" x="471.903896" y="360.621688" style="fill: #008000; stroke: #008000"/>
     <use xlink:href="#md4f1523c1e" x="474.802597" y="369.322563" style="fill: #008000; stroke: #008000"/>
     <use xlink:href="#md4f1523c1e" x="483.498701" y="326.185041" style="fill: #008000; stroke: #008000"/>
     <use xlink:href="#md4f1523c1e" x="486.397403" y="360.695059" style="fill: #008000; stroke: #008000"/>
     <use xlink:href="#md4f1523c1e" x="489.296104" y="308.930031" style="fill: #008000; stroke: #008000"/>
     <use xlink:href="#md4f1523c1e" x="492.194805" y="352.142427" style="fill: #008000; stroke: #008000"/>
     <use xlink:href="#md4f1523c1e" x="497.992208" y="283.459319" style="fill: #008000; stroke: #008000"/>
     <use xlink:href="#md4f1523c1e" x="500.890909" y="369.36" style="fill: #008000; stroke: #008000"/>
     <use xlink:href="#md4f1523c1e" x="503.78961" y="317.943301" style="fill: #008000; stroke: #008000"/>
     <use xlink:href="#md4f1523c1e" x="506.688312" y="335.02257" style="fill: #008000; stroke: #008000"/>
     <use xlink:href="#md4f1523c1e" x="509.587013" y="335.037798" style="fill: #008000; stroke: #008000"/>
     <use xlink:href="#md4f1523c1e" x="512.485714" y="352.257789" style="fill: #008000; stroke: #008000"/>
     <use xlink:href="#md4f1523c1e" x="515.384416" y="266.378166" style="fill: #008000; stroke: #008000"/>
     <use xlink:href="#md4f1523c1e" x="518.283117" y="309.290436" style="fill: #008000; stroke: #008000"/>
     <use xlink:href="#md4f1523c1e" x="521.181818" y="326.343788" style="fill: #008000; stroke: #008000"/>
     <use xlink:href="#md4f1523c1e" x="524.080519" y="231.539201" style="fill: #008000; stroke: #008000"/>
     <use xlink:href="#md4f1523c1e" x="529.877922" y="222.368246" style="fill: #008000; stroke: #008000"/>
     <use xlink:href="#md4f1523c1e" x="532.776623" y="231.154668" style="fill: #008000; stroke: #008000"/>
     <use xlink:href="#md4f1523c1e" x="535.675325" y="231.144306" style="fill: #008000; stroke: #008000"/>
     <use xlink:href="#md4f1523c1e" x="538.574026" y="334.774951" style="fill: #008000; stroke: #008000"/>
     <use xlink:href="#md4f1523c1e" x="541.472727" y="343.384399" style="fill: #008000; stroke: #008000"/>
     <use xlink:href="#md4f1523c1e" x="544.371429" y="352.045009" style="fill: #008000; stroke: #008000"/>
     <use xlink:href="#md4f1523c1e" x="547.27013" y="360.680029" style="fill: #008000; stroke: #008000"/>
     <use xlink:href="#md4f1523c1e" x="550.168831" y="317.50493" style="fill: #008000; stroke: #008000"/>
     <use xlink:href="#md4f1523c1e" x="553.067532" y="360.680029" style="fill: #008000; stroke: #008000"/>
     <use xlink:href="#md4f1523c1e" x="555.966234" y="360.625299" style="fill: #008000; stroke: #008000"/>
     <use xlink:href="#md4f1523c1e" x="558.864935" y="360.625299" style="fill: #008000; stroke: #008000"/>
     <use xlink:href="#md4f1523c1e" x="564.662338" y="360.635441" style="fill: #008000; stroke: #008000"/>
     <use xlink:href="#md4f1523c1e" x="573.358442" y="360.635441" style="fill: #008000; stroke: #008000"/>
     <use xlink:href="#md4f1523c1e" x="576.257143" y="360.63037" style="fill: #008000; stroke: #008000"/>
     <use xlink:href="#md4f1523c1e" x="584.953247" y="343.320814" style="fill: #008000; stroke: #008000"/>
     <use xlink:href="#md4f1523c1e" x="587.851948" y="291.290591" style="fill: #008000; stroke: #008000"/>
     <use xlink:href="#md4f1523c1e" x="590.750649" y="308.576437" style="fill: #008000; stroke: #008000"/>
     <use xlink:href="#md4f1523c1e" x="593.649351" y="343.263253" style="fill: #008000; stroke: #008000"/>
     <use xlink:href="#md4f1523c1e" x="599.446753" y="343.263253" style="fill: #008000; stroke: #008000"/>
     <use xlink:href="#md4f1523c1e" x="602.345455" y="343.263253" style="fill: #008000; stroke: #008000"/>
     <use xlink:href="#md4f1523c1e" x="605.244156" y="334.47142" style="fill: #008000; stroke: #008000"/>
     <use xlink:href="#md4f1523c1e" x="611.041558" y="325.739652" style="fill: #008000; stroke: #008000"/>
     <use xlink:href="#md4f1523c1e" x="619.737662" y="369.248332" style="fill: #008000; stroke: #008000"/>
     <use xlink:href="#md4f1523c1e" x="622.636364" y="290.932707" style="fill: #008000; stroke: #008000"/>
    </g>
   </g>
   <g id="patch_3">
    <path d="M 90 384.48 
L 90 51.84 
" style="fill: none; stroke: #000000; stroke-width: 0.8; stroke-linejoin: miter; stroke-linecap: square"/>
   </g>
   <g id="patch_4">
    <path d="M 648 384.48 
L 648 51.84 
" style="fill: none; stroke: #000000; stroke-width: 0.8; stroke-linejoin: miter; stroke-linecap: square"/>
   </g>
   <g id="patch_5">
    <path d="M 90 384.48 
L 648 384.48 
" style="fill: none; stroke: #000000; stroke-width: 0.8; stroke-linejoin: miter; stroke-linecap: square"/>
   </g>
   <g id="patch_6">
    <path d="M 90 51.84 
L 648 51.84 
" style="fill: none; stroke: #000000; stroke-width: 0.8; stroke-linejoin: miter; stroke-linecap: square"/>
   </g>
   <g id="text_16">
    <!-- 6004020374 每周收益 -->
    <g transform="translate(312 45.84) scale(0.12 -0.12)">
     <defs>
      <path id="SimHei-33" d="M 250 1225 
L 700 1300 
Q 800 975 1025 762 
Q 1250 550 1587 562 
Q 1925 575 2125 837 
Q 2325 1100 2300 1437 
Q 2275 1775 2037 1962 
Q 1800 2150 1275 2225 
L 1275 2550 
Q 1800 2600 2037 2825 
Q 2275 3050 2250 3412 
Q 2225 3775 1925 3937 
Q 1625 4100 1287 3975 
Q 950 3850 750 3275 
L 300 3350 
Q 450 3800 712 4100 
Q 975 4400 1425 4450 
Q 1875 4500 2212 4337 
Q 2550 4175 2687 3837 
Q 2825 3500 2725 3100 
Q 2625 2700 2150 2400 
Q 2500 2250 2687 1950 
Q 2875 1650 2812 1162 
Q 2750 675 2375 375 
Q 2000 75 1525 87 
Q 1050 100 700 387 
Q 350 675 250 1225 
z
" transform="scale(0.015625)"/>
      <path id="SimHei-20" transform="scale(0.015625)"/>
      <path id="SimHei-6bcf" d="M 5225 3650 
Q 5175 3150 5150 2675 
L 5125 2200 
Q 5525 2200 6000 2225 
L 6000 1775 
Q 5625 1800 5100 1800 
L 5050 650 
Q 5325 650 5700 675 
L 5700 225 
Q 5400 250 5025 250 
Q 5000 -275 4775 -425 
Q 4550 -575 4000 -650 
Q 3950 -400 3775 -125 
Q 4375 -125 4475 -50 
Q 4575 25 4575 250 
L 1400 250 
L 1500 1100 
L 1550 1800 
L 1275 1800 
Q 825 1800 550 1775 
L 550 2225 
Q 975 2200 1275 2200 
L 1575 2200 
L 1625 2825 
L 1675 3650 
L 5225 3650 
z
M 2350 5000 
Q 2175 4825 2050 4600 
L 4875 4600 
Q 5275 4600 5775 4625 
L 5775 4175 
Q 5275 4200 4875 4200 
L 1825 4200 
L 1375 3625 
Q 1125 3325 775 2975 
Q 600 3175 350 3300 
Q 725 3575 1150 4112 
Q 1575 4650 1825 5250 
Q 2125 5075 2350 5000 
z
M 1975 1800 
L 1875 650 
L 4625 650 
L 4675 1800 
L 2950 1800 
Q 3575 1275 3825 1125 
Q 3625 925 3475 725 
Q 3100 1100 2650 1475 
Q 2775 1675 2875 1800 
L 1975 1800 
z
M 2975 3250 
Q 3125 3150 3287 3012 
Q 3450 2875 3800 2550 
Q 3650 2350 3525 2200 
L 4700 2200 
L 4750 3250 
L 2975 3250 
z
M 2075 3250 
L 2000 2200 
L 3425 2200 
Q 3150 2500 3012 2625 
Q 2875 2750 2700 2900 
Q 2800 3050 2925 3250 
L 2075 3250 
z
" transform="scale(0.015625)"/>
     </defs>
     <use xlink:href="#SimHei-36"/>
     <use xlink:href="#SimHei-30" x="50"/>
     <use xlink:href="#SimHei-30" x="100"/>
     <use xlink:href="#SimHei-34" x="150"/>
     <use xlink:href="#SimHei-30" x="200"/>
     <use xlink:href="#SimHei-32" x="250"/>
     <use xlink:href="#SimHei-30" x="300"/>
     <use xlink:href="#SimHei-33" x="350"/>
     <use xlink:href="#SimHei-37" x="400"/>
     <use xlink:href="#SimHei-34" x="450"/>
     <use xlink:href="#SimHei-20" x="500"/>
     <use xlink:href="#SimHei-6bcf" x="550"/>
     <use xlink:href="#SimHei-5468" x="650"/>
     <use xlink:href="#SimHei-6536" x="750"/>
     <use xlink:href="#SimHei-76ca" x="850"/>
    </g>
   </g>
  </g>
 </g>
 <defs>
  <clipPath id="p4184d74213">
   <rect x="90" y="51.84" width="558" height="332.64"/>
  </clipPath>
 </defs>
</svg>
