<?xml version="1.0" encoding="utf-8" standalone="no"?>
<!DOCTYPE svg PUBLIC "-//W3C//DTD SVG 1.1//EN"
  "http://www.w3.org/Graphics/SVG/1.1/DTD/svg11.dtd">
<svg xmlns:xlink="http://www.w3.org/1999/xlink" width="720pt" height="432pt" viewBox="0 0 720 432" xmlns="http://www.w3.org/2000/svg" version="1.1">
 <metadata>
  <rdf:RDF xmlns:dc="http://purl.org/dc/elements/1.1/" xmlns:cc="http://creativecommons.org/ns#" xmlns:rdf="http://www.w3.org/1999/02/22-rdf-syntax-ns#">
   <cc:Work>
    <dc:type rdf:resource="http://purl.org/dc/dcmitype/StillImage"/>
    <dc:date>2024-08-17T14:09:02.130056</dc:date>
    <dc:format>image/svg+xml</dc:format>
    <dc:creator>
     <cc:Agent>
      <dc:title>Matplotlib v3.8.0, https://matplotlib.org/</dc:title>
     </cc:Agent>
    </dc:creator>
   </cc:Work>
  </rdf:RDF>
 </metadata>
 <defs>
  <style type="text/css">*{stroke-linejoin: round; stroke-linecap: butt}</style>
 </defs>
 <g id="figure_1">
  <g id="patch_1">
   <path d="M 0 432 
L 720 432 
L 720 0 
L 0 0 
z
" style="fill: #ffffff"/>
  </g>
  <g id="axes_1">
   <g id="patch_2">
    <path d="M 90 384.48 
L 648 384.48 
L 648 51.84 
L 90 51.84 
z
" style="fill: #ffffff"/>
   </g>
   <g id="matplotlib.axis_1">
    <g id="xtick_1">
     <g id="line2d_1">
      <path d="M 112.481405 384.48 
L 112.481405 51.84 
" clip-path="url(#p17cc7a1ffc)" style="fill: none; stroke: #b0b0b0; stroke-width: 0.8; stroke-linecap: square"/>
     </g>
     <g id="line2d_2">
      <defs>
       <path id="m4afe0eb48a" d="M 0 0 
L 0 3.5 
" style="stroke: #000000; stroke-width: 0.8"/>
      </defs>
      <g>
       <use xlink:href="#m4afe0eb48a" x="112.481405" y="384.48" style="stroke: #000000; stroke-width: 0.8"/>
      </g>
     </g>
     <g id="text_1">
      <!-- 0 -->
      <g transform="translate(109.981405 398.355) scale(0.1 -0.1)">
       <defs>
        <path id="SimHei-30" d="M 225 2537 
Q 250 3200 412 3587 
Q 575 3975 875 4225 
Q 1175 4475 1612 4475 
Q 2050 4475 2375 4112 
Q 2700 3750 2800 3200 
Q 2900 2650 2862 1937 
Q 2825 1225 2612 775 
Q 2400 325 1975 150 
Q 1550 -25 1125 187 
Q 700 400 525 750 
Q 350 1100 275 1487 
Q 200 1875 225 2537 
z
M 750 2687 
Q 675 2000 800 1462 
Q 925 925 1212 700 
Q 1500 475 1800 612 
Q 2100 750 2237 1162 
Q 2375 1575 2375 2062 
Q 2375 2550 2337 2950 
Q 2300 3350 2112 3675 
Q 1925 4000 1612 4012 
Q 1300 4025 1062 3700 
Q 825 3375 750 2687 
z
" transform="scale(0.015625)"/>
       </defs>
       <use xlink:href="#SimHei-30"/>
      </g>
     </g>
    </g>
    <g id="xtick_2">
     <g id="line2d_3">
      <path d="M 184.53719 384.48 
L 184.53719 51.84 
" clip-path="url(#p17cc7a1ffc)" style="fill: none; stroke: #b0b0b0; stroke-width: 0.8; stroke-linecap: square"/>
     </g>
     <g id="line2d_4">
      <g>
       <use xlink:href="#m4afe0eb48a" x="184.53719" y="384.48" style="stroke: #000000; stroke-width: 0.8"/>
      </g>
     </g>
     <g id="text_2">
      <!-- 25 -->
      <g transform="translate(179.53719 398.355) scale(0.1 -0.1)">
       <defs>
        <path id="SimHei-32" d="M 300 250 
Q 325 625 650 925 
Q 975 1225 1475 1862 
Q 1975 2500 2125 2850 
Q 2275 3200 2237 3450 
Q 2200 3700 2000 3862 
Q 1800 4025 1537 4000 
Q 1275 3975 1037 3800 
Q 800 3625 675 3275 
L 200 3350 
Q 400 3925 712 4187 
Q 1025 4450 1450 4475 
Q 1700 4500 1900 4462 
Q 2100 4425 2312 4287 
Q 2525 4150 2662 3875 
Q 2800 3600 2762 3212 
Q 2725 2825 2375 2287 
Q 2025 1750 1025 600 
L 2825 600 
L 2825 150 
L 300 150 
L 300 250 
z
" transform="scale(0.015625)"/>
        <path id="SimHei-35" d="M 550 1325 
Q 725 650 1150 575 
Q 1575 500 1837 662 
Q 2100 825 2212 1087 
Q 2325 1350 2312 1675 
Q 2300 2000 2137 2225 
Q 1975 2450 1725 2525 
Q 1475 2600 1162 2525 
Q 850 2450 650 2175 
L 225 2225 
Q 275 2375 700 4375 
L 2675 4375 
L 2675 3925 
L 1075 3925 
Q 950 3250 825 2850 
Q 1200 3025 1525 3012 
Q 1850 3000 2150 2862 
Q 2450 2725 2587 2487 
Q 2725 2250 2787 2012 
Q 2850 1775 2837 1500 
Q 2825 1225 2725 937 
Q 2625 650 2425 462 
Q 2225 275 1937 162 
Q 1650 50 1275 75 
Q 900 100 562 350 
Q 225 600 100 1200 
L 550 1325 
z
" transform="scale(0.015625)"/>
       </defs>
       <use xlink:href="#SimHei-32"/>
       <use xlink:href="#SimHei-35" x="50"/>
      </g>
     </g>
    </g>
    <g id="xtick_3">
     <g id="line2d_5">
      <path d="M 256.592975 384.48 
L 256.592975 51.84 
" clip-path="url(#p17cc7a1ffc)" style="fill: none; stroke: #b0b0b0; stroke-width: 0.8; stroke-linecap: square"/>
     </g>
     <g id="line2d_6">
      <g>
       <use xlink:href="#m4afe0eb48a" x="256.592975" y="384.48" style="stroke: #000000; stroke-width: 0.8"/>
      </g>
     </g>
     <g id="text_3">
      <!-- 50 -->
      <g transform="translate(251.592975 398.355) scale(0.1 -0.1)">
       <use xlink:href="#SimHei-35"/>
       <use xlink:href="#SimHei-30" x="50"/>
      </g>
     </g>
    </g>
    <g id="xtick_4">
     <g id="line2d_7">
      <path d="M 328.64876 384.48 
L 328.64876 51.84 
" clip-path="url(#p17cc7a1ffc)" style="fill: none; stroke: #b0b0b0; stroke-width: 0.8; stroke-linecap: square"/>
     </g>
     <g id="line2d_8">
      <g>
       <use xlink:href="#m4afe0eb48a" x="328.64876" y="384.48" style="stroke: #000000; stroke-width: 0.8"/>
      </g>
     </g>
     <g id="text_4">
      <!-- 75 -->
      <g transform="translate(323.64876 398.355) scale(0.1 -0.1)">
       <defs>
        <path id="SimHei-37" d="M 850 150 
Q 1300 2050 2425 3925 
L 275 3925 
L 275 4375 
L 2950 4375 
L 2950 3950 
Q 1775 2050 1400 150 
L 850 150 
z
" transform="scale(0.015625)"/>
       </defs>
       <use xlink:href="#SimHei-37"/>
       <use xlink:href="#SimHei-35" x="50"/>
      </g>
     </g>
    </g>
    <g id="xtick_5">
     <g id="line2d_9">
      <path d="M 400.704545 384.48 
L 400.704545 51.84 
" clip-path="url(#p17cc7a1ffc)" style="fill: none; stroke: #b0b0b0; stroke-width: 0.8; stroke-linecap: square"/>
     </g>
     <g id="line2d_10">
      <g>
       <use xlink:href="#m4afe0eb48a" x="400.704545" y="384.48" style="stroke: #000000; stroke-width: 0.8"/>
      </g>
     </g>
     <g id="text_5">
      <!-- 100 -->
      <g transform="translate(393.204545 398.355) scale(0.1 -0.1)">
       <defs>
        <path id="SimHei-31" d="M 1400 3600 
Q 1075 3275 575 2975 
L 575 3450 
Q 1200 3875 1600 4450 
L 1900 4450 
L 1900 150 
L 1400 150 
L 1400 3600 
z
" transform="scale(0.015625)"/>
       </defs>
       <use xlink:href="#SimHei-31"/>
       <use xlink:href="#SimHei-30" x="50"/>
       <use xlink:href="#SimHei-30" x="100"/>
      </g>
     </g>
    </g>
    <g id="xtick_6">
     <g id="line2d_11">
      <path d="M 472.760331 384.48 
L 472.760331 51.84 
" clip-path="url(#p17cc7a1ffc)" style="fill: none; stroke: #b0b0b0; stroke-width: 0.8; stroke-linecap: square"/>
     </g>
     <g id="line2d_12">
      <g>
       <use xlink:href="#m4afe0eb48a" x="472.760331" y="384.48" style="stroke: #000000; stroke-width: 0.8"/>
      </g>
     </g>
     <g id="text_6">
      <!-- 125 -->
      <g transform="translate(465.260331 398.355) scale(0.1 -0.1)">
       <use xlink:href="#SimHei-31"/>
       <use xlink:href="#SimHei-32" x="50"/>
       <use xlink:href="#SimHei-35" x="100"/>
      </g>
     </g>
    </g>
    <g id="xtick_7">
     <g id="line2d_13">
      <path d="M 544.816116 384.48 
L 544.816116 51.84 
" clip-path="url(#p17cc7a1ffc)" style="fill: none; stroke: #b0b0b0; stroke-width: 0.8; stroke-linecap: square"/>
     </g>
     <g id="line2d_14">
      <g>
       <use xlink:href="#m4afe0eb48a" x="544.816116" y="384.48" style="stroke: #000000; stroke-width: 0.8"/>
      </g>
     </g>
     <g id="text_7">
      <!-- 150 -->
      <g transform="translate(537.316116 398.355) scale(0.1 -0.1)">
       <use xlink:href="#SimHei-31"/>
       <use xlink:href="#SimHei-35" x="50"/>
       <use xlink:href="#SimHei-30" x="100"/>
      </g>
     </g>
    </g>
    <g id="xtick_8">
     <g id="line2d_15">
      <path d="M 616.871901 384.48 
L 616.871901 51.84 
" clip-path="url(#p17cc7a1ffc)" style="fill: none; stroke: #b0b0b0; stroke-width: 0.8; stroke-linecap: square"/>
     </g>
     <g id="line2d_16">
      <g>
       <use xlink:href="#m4afe0eb48a" x="616.871901" y="384.48" style="stroke: #000000; stroke-width: 0.8"/>
      </g>
     </g>
     <g id="text_8">
      <!-- 175 -->
      <g transform="translate(609.371901 398.355) scale(0.1 -0.1)">
       <use xlink:href="#SimHei-31"/>
       <use xlink:href="#SimHei-37" x="50"/>
       <use xlink:href="#SimHei-35" x="100"/>
      </g>
     </g>
    </g>
    <g id="text_9">
     <!-- 周数 -->
     <g transform="translate(359 411.339375) scale(0.1 -0.1)">
      <defs>
       <path id="SimHei-5468" d="M 5600 4925 
Q 5575 4400 5575 3800 
L 5575 50 
Q 5550 -375 5325 -462 
Q 5100 -550 4325 -600 
Q 4300 -400 4125 -75 
Q 4800 -100 4962 -37 
Q 5125 25 5100 225 
L 5100 4525 
L 1500 4525 
Q 1500 2575 1450 1887 
Q 1400 1200 1237 550 
Q 1075 -100 775 -625 
Q 625 -450 275 -225 
Q 650 225 825 1000 
Q 1000 1775 1025 2587 
Q 1050 3400 1000 4925 
L 5600 4925 
z
M 2050 325 
Q 2075 625 2075 950 
L 2075 1400 
Q 2075 1625 2050 1925 
L 4400 1925 
Q 4375 1725 4375 1450 
L 4375 875 
Q 4375 600 4400 325 
L 2050 325 
z
M 3000 3800 
Q 3000 4150 2975 4375 
L 3475 4375 
Q 3450 4075 3450 3800 
Q 4100 3800 4475 3825 
L 4475 3350 
Q 4125 3375 3450 3375 
L 3450 2800 
Q 4200 2800 4825 2825 
L 4825 2350 
Q 4175 2375 3725 2375 
L 2750 2375 
Q 2325 2375 1725 2350 
L 1725 2825 
Q 2325 2800 3000 2800 
L 3000 3375 
Q 2500 3375 1975 3350 
L 1975 3825 
Q 2475 3800 3000 3800 
z
M 3900 725 
L 3900 1525 
L 2550 1525 
L 2550 725 
L 3900 725 
z
" transform="scale(0.015625)"/>
       <path id="SimHei-6570" d="M 4525 4925 
Q 4475 4800 4400 4587 
Q 4325 4375 4175 3825 
L 5325 3825 
Q 5575 3825 5925 3850 
L 5925 3400 
Q 5650 3425 5500 3425 
Q 5500 3025 5362 2162 
Q 5225 1300 4875 675 
Q 5125 375 5437 137 
Q 5750 -100 6025 -200 
Q 5725 -425 5625 -625 
Q 5325 -450 5075 -225 
Q 4825 0 4575 325 
Q 4300 25 3987 -187 
Q 3675 -400 3200 -650 
Q 3075 -425 2850 -300 
Q 3225 -150 3650 125 
Q 4075 400 4300 675 
Q 4125 1025 3962 1425 
Q 3800 1825 3675 2475 
Q 3600 2275 3425 1950 
Q 3250 2050 3000 2150 
Q 3400 2850 3650 3675 
Q 3900 4500 3975 5100 
Q 4275 4975 4525 4925 
z
M 2100 2250 
Q 2000 2150 1875 1925 
L 3250 1925 
Q 3100 1300 2725 675 
Q 3125 525 3350 400 
Q 3225 225 3125 25 
Q 2900 175 2450 325 
Q 1950 -225 725 -650 
Q 600 -375 400 -275 
Q 1575 0 2000 475 
Q 1300 650 850 775 
Q 1000 1000 1250 1525 
Q 1000 1525 425 1500 
L 425 1950 
Q 900 1925 1400 1925 
Q 1500 2150 1550 2425 
Q 1825 2325 2100 2250 
z
M 1775 3950 
Q 1775 4550 1750 5100 
L 2250 5100 
Q 2225 4575 2225 3950 
Q 3075 3950 3425 3975 
L 3425 3525 
Q 3075 3550 2225 3550 
Q 2225 2825 2250 2425 
L 1750 2425 
Q 1775 2775 1775 3300 
Q 1650 3100 1300 2787 
Q 950 2475 650 2300 
Q 525 2525 275 2625 
Q 500 2700 875 2975 
Q 1250 3250 1450 3550 
Q 950 3550 500 3525 
L 500 3975 
Q 925 3950 1775 3950 
z
M 3975 3175 
Q 4200 1700 4600 1125 
Q 4850 1700 4937 2287 
Q 5025 2875 5050 3425 
L 4075 3425 
L 3975 3175 
z
M 1450 1000 
Q 1750 925 2275 800 
Q 2475 1050 2650 1525 
L 1725 1525 
Q 1600 1275 1450 1000 
z
M 3325 4825 
Q 3200 4625 3125 4450 
Q 3050 4275 2925 4025 
Q 2725 4125 2525 4175 
Q 2725 4500 2900 5000 
Q 3150 4875 3325 4825 
z
M 2575 3375 
Q 2900 3050 3200 2725 
Q 3050 2600 2875 2425 
Q 2525 2850 2300 3100 
Q 2450 3225 2575 3375 
z
M 925 5000 
Q 1275 4650 1500 4300 
L 1125 4075 
Q 950 4425 600 4725 
Q 825 4875 925 5000 
z
" transform="scale(0.015625)"/>
      </defs>
      <use xlink:href="#SimHei-5468"/>
      <use xlink:href="#SimHei-6570" x="100"/>
     </g>
    </g>
   </g>
   <g id="matplotlib.axis_2">
    <g id="ytick_1">
     <g id="line2d_17">
      <path d="M 90 373.826144 
L 648 373.826144 
" clip-path="url(#p17cc7a1ffc)" style="fill: none; stroke: #b0b0b0; stroke-width: 0.8; stroke-linecap: square"/>
     </g>
     <g id="line2d_18">
      <defs>
       <path id="m665291e6f4" d="M 0 0 
L -3.5 0 
" style="stroke: #000000; stroke-width: 0.8"/>
      </defs>
      <g>
       <use xlink:href="#m665291e6f4" x="90" y="373.826144" style="stroke: #000000; stroke-width: 0.8"/>
      </g>
     </g>
     <g id="text_10">
      <!-- 0 -->
      <g transform="translate(78 377.263644) scale(0.1 -0.1)">
       <use xlink:href="#SimHei-30"/>
      </g>
     </g>
    </g>
    <g id="ytick_2">
     <g id="line2d_19">
      <path d="M 90 333.436065 
L 648 333.436065 
" clip-path="url(#p17cc7a1ffc)" style="fill: none; stroke: #b0b0b0; stroke-width: 0.8; stroke-linecap: square"/>
     </g>
     <g id="line2d_20">
      <g>
       <use xlink:href="#m665291e6f4" x="90" y="333.436065" style="stroke: #000000; stroke-width: 0.8"/>
      </g>
     </g>
     <g id="text_11">
      <!-- 20000 -->
      <g transform="translate(58 336.873565) scale(0.1 -0.1)">
       <use xlink:href="#SimHei-32"/>
       <use xlink:href="#SimHei-30" x="50"/>
       <use xlink:href="#SimHei-30" x="100"/>
       <use xlink:href="#SimHei-30" x="150"/>
       <use xlink:href="#SimHei-30" x="200"/>
      </g>
     </g>
    </g>
    <g id="ytick_3">
     <g id="line2d_21">
      <path d="M 90 293.045986 
L 648 293.045986 
" clip-path="url(#p17cc7a1ffc)" style="fill: none; stroke: #b0b0b0; stroke-width: 0.8; stroke-linecap: square"/>
     </g>
     <g id="line2d_22">
      <g>
       <use xlink:href="#m665291e6f4" x="90" y="293.045986" style="stroke: #000000; stroke-width: 0.8"/>
      </g>
     </g>
     <g id="text_12">
      <!-- 40000 -->
      <g transform="translate(58 296.483486) scale(0.1 -0.1)">
       <defs>
        <path id="SimHei-34" d="M 2000 1100 
L 75 1100 
L 75 1525 
L 2100 4450 
L 2475 4450 
L 2475 1525 
L 3075 1525 
L 3075 1100 
L 2475 1100 
L 2475 150 
L 2000 150 
L 2000 1100 
z
M 2000 1525 
L 2000 3500 
L 600 1525 
L 2000 1525 
z
" transform="scale(0.015625)"/>
       </defs>
       <use xlink:href="#SimHei-34"/>
       <use xlink:href="#SimHei-30" x="50"/>
       <use xlink:href="#SimHei-30" x="100"/>
       <use xlink:href="#SimHei-30" x="150"/>
       <use xlink:href="#SimHei-30" x="200"/>
      </g>
     </g>
    </g>
    <g id="ytick_4">
     <g id="line2d_23">
      <path d="M 90 252.655908 
L 648 252.655908 
" clip-path="url(#p17cc7a1ffc)" style="fill: none; stroke: #b0b0b0; stroke-width: 0.8; stroke-linecap: square"/>
     </g>
     <g id="line2d_24">
      <g>
       <use xlink:href="#m665291e6f4" x="90" y="252.655908" style="stroke: #000000; stroke-width: 0.8"/>
      </g>
     </g>
     <g id="text_13">
      <!-- 60000 -->
      <g transform="translate(58 256.093408) scale(0.1 -0.1)">
       <defs>
        <path id="SimHei-36" d="M 250 1612 
Q 275 1975 387 2225 
Q 500 2475 725 2850 
L 1750 4450 
L 2325 4450 
L 1275 2800 
Q 1950 2975 2350 2750 
Q 2750 2525 2887 2237 
Q 3025 1950 3037 1612 
Q 3050 1275 2937 950 
Q 2825 625 2537 362 
Q 2250 100 1737 75 
Q 1225 50 862 262 
Q 500 475 362 862 
Q 225 1250 250 1612 
z
M 1025 787 
Q 1250 550 1625 525 
Q 2000 500 2250 775 
Q 2500 1050 2500 1575 
Q 2500 2100 2187 2300 
Q 1875 2500 1487 2450 
Q 1100 2400 925 2075 
Q 750 1750 775 1387 
Q 800 1025 1025 787 
z
" transform="scale(0.015625)"/>
       </defs>
       <use xlink:href="#SimHei-36"/>
       <use xlink:href="#SimHei-30" x="50"/>
       <use xlink:href="#SimHei-30" x="100"/>
       <use xlink:href="#SimHei-30" x="150"/>
       <use xlink:href="#SimHei-30" x="200"/>
      </g>
     </g>
    </g>
    <g id="ytick_5">
     <g id="line2d_25">
      <path d="M 90 212.265829 
L 648 212.265829 
" clip-path="url(#p17cc7a1ffc)" style="fill: none; stroke: #b0b0b0; stroke-width: 0.8; stroke-linecap: square"/>
     </g>
     <g id="line2d_26">
      <g>
       <use xlink:href="#m665291e6f4" x="90" y="212.265829" style="stroke: #000000; stroke-width: 0.8"/>
      </g>
     </g>
     <g id="text_14">
      <!-- 80000 -->
      <g transform="translate(58 215.703329) scale(0.1 -0.1)">
       <defs>
        <path id="SimHei-38" d="M 175 1375 
Q 175 1675 325 1962 
Q 475 2250 825 2425 
Q 525 2600 425 2812 
Q 325 3025 312 3300 
Q 300 3575 387 3775 
Q 475 3975 650 4150 
Q 825 4325 1037 4387 
Q 1250 4450 1500 4450 
Q 1750 4450 1950 4400 
Q 2150 4350 2375 4187 
Q 2600 4025 2700 3725 
Q 2800 3425 2687 3025 
Q 2575 2625 2100 2400 
Q 2525 2275 2700 2012 
Q 2875 1750 2875 1375 
Q 2875 1000 2762 775 
Q 2650 550 2512 400 
Q 2375 250 2137 162 
Q 1900 75 1537 75 
Q 1175 75 912 162 
Q 650 250 475 425 
Q 300 600 237 837 
Q 175 1075 175 1375 
z
M 687 1400 
Q 675 1100 787 875 
Q 900 650 1200 587 
Q 1500 525 1825 600 
Q 2150 675 2275 950 
Q 2400 1225 2362 1500 
Q 2325 1775 2050 1962 
Q 1775 2150 1450 2125 
Q 1125 2100 912 1900 
Q 700 1700 687 1400 
z
M 775 3350 
Q 775 3100 950 2875 
Q 1125 2650 1500 2650 
Q 1875 2650 2062 2875 
Q 2250 3100 2237 3412 
Q 2225 3725 2012 3875 
Q 1800 4025 1437 4000 
Q 1075 3975 925 3787 
Q 775 3600 775 3350 
z
" transform="scale(0.015625)"/>
       </defs>
       <use xlink:href="#SimHei-38"/>
       <use xlink:href="#SimHei-30" x="50"/>
       <use xlink:href="#SimHei-30" x="100"/>
       <use xlink:href="#SimHei-30" x="150"/>
       <use xlink:href="#SimHei-30" x="200"/>
      </g>
     </g>
    </g>
    <g id="ytick_6">
     <g id="line2d_27">
      <path d="M 90 171.87575 
L 648 171.87575 
" clip-path="url(#p17cc7a1ffc)" style="fill: none; stroke: #b0b0b0; stroke-width: 0.8; stroke-linecap: square"/>
     </g>
     <g id="line2d_28">
      <g>
       <use xlink:href="#m665291e6f4" x="90" y="171.87575" style="stroke: #000000; stroke-width: 0.8"/>
      </g>
     </g>
     <g id="text_15">
      <!-- 100000 -->
      <g transform="translate(53 175.31325) scale(0.1 -0.1)">
       <use xlink:href="#SimHei-31"/>
       <use xlink:href="#SimHei-30" x="50"/>
       <use xlink:href="#SimHei-30" x="100"/>
       <use xlink:href="#SimHei-30" x="150"/>
       <use xlink:href="#SimHei-30" x="200"/>
       <use xlink:href="#SimHei-30" x="250"/>
      </g>
     </g>
    </g>
    <g id="ytick_7">
     <g id="line2d_29">
      <path d="M 90 131.485671 
L 648 131.485671 
" clip-path="url(#p17cc7a1ffc)" style="fill: none; stroke: #b0b0b0; stroke-width: 0.8; stroke-linecap: square"/>
     </g>
     <g id="line2d_30">
      <g>
       <use xlink:href="#m665291e6f4" x="90" y="131.485671" style="stroke: #000000; stroke-width: 0.8"/>
      </g>
     </g>
     <g id="text_16">
      <!-- 120000 -->
      <g transform="translate(53 134.923171) scale(0.1 -0.1)">
       <use xlink:href="#SimHei-31"/>
       <use xlink:href="#SimHei-32" x="50"/>
       <use xlink:href="#SimHei-30" x="100"/>
       <use xlink:href="#SimHei-30" x="150"/>
       <use xlink:href="#SimHei-30" x="200"/>
       <use xlink:href="#SimHei-30" x="250"/>
      </g>
     </g>
    </g>
    <g id="ytick_8">
     <g id="line2d_31">
      <path d="M 90 91.095593 
L 648 91.095593 
" clip-path="url(#p17cc7a1ffc)" style="fill: none; stroke: #b0b0b0; stroke-width: 0.8; stroke-linecap: square"/>
     </g>
     <g id="line2d_32">
      <g>
       <use xlink:href="#m665291e6f4" x="90" y="91.095593" style="stroke: #000000; stroke-width: 0.8"/>
      </g>
     </g>
     <g id="text_17">
      <!-- 140000 -->
      <g transform="translate(53 94.533093) scale(0.1 -0.1)">
       <use xlink:href="#SimHei-31"/>
       <use xlink:href="#SimHei-34" x="50"/>
       <use xlink:href="#SimHei-30" x="100"/>
       <use xlink:href="#SimHei-30" x="150"/>
       <use xlink:href="#SimHei-30" x="200"/>
       <use xlink:href="#SimHei-30" x="250"/>
      </g>
     </g>
    </g>
    <g id="text_18">
     <!-- 收益 -->
     <g transform="translate(47.75 228.16) rotate(-90) scale(0.1 -0.1)">
      <defs>
       <path id="SimHei-6536" d="M 4250 5050 
Q 4125 4850 3750 4050 
L 5150 4050 
Q 5675 4050 6125 4075 
L 6125 3600 
Q 5675 3625 5300 3625 
Q 5225 2625 5025 1975 
Q 4825 1325 4575 900 
Q 4900 500 5287 275 
Q 5675 50 6200 -75 
Q 5900 -275 5800 -550 
Q 5300 -350 4950 -100 
Q 4600 150 4275 525 
Q 3800 0 2775 -625 
Q 2650 -425 2300 -225 
Q 3275 150 3950 925 
Q 3775 1325 3612 1787 
Q 3450 2250 3250 3000 
Q 2975 2450 2825 2275 
Q 2650 2400 2425 2525 
Q 2775 3025 3137 3837 
Q 3500 4650 3625 5250 
Q 3925 5125 4250 5050 
z
M 975 4275 
Q 925 3950 925 3450 
L 925 1575 
L 1775 1725 
L 1775 4425 
Q 1775 4775 1750 5150 
L 2250 5150 
Q 2225 4850 2225 4450 
L 2225 300 
Q 2225 -50 2250 -550 
L 1750 -550 
Q 1775 -25 1775 350 
L 1775 1350 
Q 625 1050 500 925 
Q 375 1125 225 1350 
Q 450 1475 450 1800 
L 450 3575 
Q 450 3925 425 4275 
L 975 4275 
z
M 3725 3150 
Q 3800 2700 3962 2212 
Q 4125 1725 4300 1375 
Q 4725 2150 4825 3625 
L 3575 3625 
Q 3400 3275 3300 3100 
L 3725 3150 
z
" transform="scale(0.015625)"/>
       <path id="SimHei-76ca" d="M 2825 2925 
Q 2425 2775 2012 2487 
Q 1600 2200 1225 1975 
L 5275 1975 
Q 5250 1575 5250 1000 
L 5250 -50 
Q 5800 -50 6175 -25 
L 6175 -525 
Q 5725 -500 5250 -500 
L 1325 -500 
Q 700 -500 250 -525 
L 250 -25 
Q 600 -50 1175 -50 
L 1175 1050 
Q 1175 1575 1150 1925 
Q 1000 1800 800 1700 
Q 650 1950 425 2125 
Q 800 2275 1312 2600 
Q 1825 2925 2325 3400 
Q 2550 3150 2825 2925 
z
M 4725 5050 
Q 4575 4900 4462 4637 
Q 4350 4375 4175 4075 
L 4625 4075 
Q 5350 4075 5900 4100 
L 5900 3625 
Q 5350 3650 4625 3650 
L 1975 3650 
Q 1350 3650 550 3625 
L 550 4100 
Q 1175 4075 1975 4075 
L 3675 4075 
Q 3775 4300 3887 4625 
Q 4000 4950 4125 5250 
L 4725 5050 
z
M 3600 -50 
L 3600 1575 
L 2800 1575 
L 2800 -50 
L 3600 -50 
z
M 4800 -50 
L 4800 1575 
L 4025 1575 
L 4025 -50 
L 4800 -50 
z
M 2375 -50 
L 2375 1575 
L 1625 1575 
L 1625 -50 
L 2375 -50 
z
M 3900 3350 
Q 4375 3150 4900 2925 
Q 5425 2700 5900 2500 
Q 5700 2300 5550 2000 
Q 5025 2300 4512 2537 
Q 4000 2775 3625 2900 
Q 3750 3075 3900 3350 
z
M 2150 5250 
Q 2375 4925 2650 4350 
Q 2425 4275 2150 4125 
Q 1950 4650 1675 5025 
Q 1875 5100 2150 5250 
z
" transform="scale(0.015625)"/>
      </defs>
      <use xlink:href="#SimHei-6536"/>
      <use xlink:href="#SimHei-76ca" x="100"/>
     </g>
    </g>
   </g>
   <g id="line2d_33">
    <path d="M 115.363636 369.163701 
L 118.245868 369.202323 
L 121.128099 340.986451 
L 124.010331 355.186086 
L 135.539256 281.349726 
L 138.421488 336.642466 
L 141.303719 276.92069 
L 144.18595 276.920714 
L 147.068182 326.811446 
L 149.950413 369.158355 
L 152.832645 369.124674 
L 158.597107 270.414597 
L 164.36157 289.071735 
L 167.243802 354.982234 
L 170.126033 349.997775 
L 173.008264 296.81182 
L 181.654959 364.338142 
L 184.53719 359.365506 
L 187.419421 364.428584 
L 193.183884 345.616014 
L 196.066116 332.468522 
L 198.948347 354.973812 
L 201.830579 317.847902 
L 204.71281 331.83637 
L 207.595041 364.185719 
L 213.359504 336.407787 
L 216.241736 369.135425 
L 219.123967 266.650273 
L 222.006198 174.253487 
L 224.88843 238.457531 
L 227.770661 222.516477 
L 230.652893 315.104274 
L 233.535124 250.345196 
L 236.417355 254.354243 
L 239.299587 310.005013 
L 242.181818 282.496047 
L 245.06405 262.06989 
L 247.946281 173.882177 
L 250.828512 201.60201 
L 253.710744 178.826728 
L 256.592975 205.840548 
L 259.475207 360.124169 
L 262.357438 159.229787 
L 265.239669 351.027847 
L 271.004132 337.209113 
L 282.533058 364.671886 
L 288.297521 314.364124 
L 291.179752 360.094757 
L 294.061983 314.461445 
L 299.826446 318.763056 
L 302.708678 314.074238 
L 305.590909 341.408287 
L 308.47314 299.728186 
L 311.355372 309.00595 
L 317.119835 252.527889 
L 320.002066 327.110796 
L 325.766529 245.484341 
L 328.64876 277.317683 
L 331.530992 233.57566 
L 334.413223 66.96 
L 340.177686 369.169454 
L 343.059917 355.53516 
L 345.942149 229.691263 
L 348.82438 364.712542 
L 351.706612 369.326498 
L 354.588843 315.330742 
L 357.471074 342.117796 
L 363.235537 355.385182 
L 366.117769 272.301547 
L 369 309.266818 
L 371.882231 285.814708 
L 374.764463 304.237471 
L 377.646694 345.990675 
L 380.528926 332.147582 
L 383.411157 313.519677 
L 386.293388 364.595329 
L 389.17562 299.584066 
L 392.057851 322.784716 
L 394.940083 369.186014 
L 397.822314 364.545884 
L 400.704545 369.187023 
L 403.586777 294.943942 
L 406.469008 313.50437 
L 409.35124 341.344596 
L 412.233471 341.16341 
L 415.115702 364.5097 
L 420.880165 369.160039 
L 423.762397 122.346098 
L 426.644628 266.672756 
L 435.291322 308.637683 
L 438.173554 346.505216 
L 441.055785 369.168753 
L 443.938017 277.691719 
L 446.820248 341.236082 
L 449.702479 345.831225 
L 452.584711 345.816078 
L 455.466942 222.077955 
L 458.349174 359.791359 
L 461.231405 343.495863 
L 464.113636 317.862042 
L 466.995868 364.570746 
L 469.878099 322.324613 
L 472.760331 364.462229 
L 475.642562 322.324623 
L 478.524793 331.819157 
L 481.407025 369.36 
L 484.289256 350.394268 
L 487.171488 369.142276 
L 490.053719 364.469903 
L 495.818182 369.36 
L 498.700413 340.99519 
L 501.582645 364.45214 
L 507.347107 355.488029 
L 510.229339 369.207117 
L 513.11157 355.060777 
L 515.993802 369.36 
L 518.876033 355.049179 
L 521.758264 336.272215 
L 524.640496 303.412527 
L 530.404959 336.139567 
L 533.28719 350.279253 
L 536.169421 340.978576 
L 539.051653 336.283877 
L 541.933884 322.036935 
L 544.816116 331.569293 
L 547.698347 369.116766 
L 550.580579 324.69856 
L 556.345041 350.260603 
L 559.227273 336.149774 
L 562.109504 229.778967 
L 564.991736 344.532755 
L 567.873967 349.818281 
L 576.520661 354.297218 
L 582.285124 344.532755 
L 588.049587 140.819664 
L 590.931818 325.130249 
L 593.81405 321.254331 
L 596.696281 208.926562 
L 599.578512 320.121597 
L 602.460744 359.252878 
L 605.342975 266.95553 
L 608.225207 344.867205 
L 611.107438 326.060231 
L 616.871901 369.049553 
L 619.754132 160.079585 
L 622.636364 364.148055 
L 622.636364 364.148055 
" clip-path="url(#p17cc7a1ffc)" style="fill: none; stroke: #008000; stroke-width: 1.5; stroke-linecap: square"/>
    <defs>
     <path id="m1bf8ecef61" d="M 0 3 
C 0.795609 3 1.55874 2.683901 2.12132 2.12132 
C 2.683901 1.55874 3 0.795609 3 0 
C 3 -0.795609 2.683901 -1.55874 2.12132 -2.12132 
C 1.55874 -2.683901 0.795609 -3 0 -3 
C -0.795609 -3 -1.55874 -2.683901 -2.12132 -2.12132 
C -2.683901 -1.55874 -3 -0.795609 -3 0 
C -3 0.795609 -2.683901 1.55874 -2.12132 2.12132 
C -1.55874 2.683901 -0.795609 3 0 3 
z
" style="stroke: #008000"/>
    </defs>
    <g clip-path="url(#p17cc7a1ffc)">
     <use xlink:href="#m1bf8ecef61" x="115.363636" y="369.163701" style="fill: #008000; stroke: #008000"/>
     <use xlink:href="#m1bf8ecef61" x="118.245868" y="369.202323" style="fill: #008000; stroke: #008000"/>
     <use xlink:href="#m1bf8ecef61" x="121.128099" y="340.986451" style="fill: #008000; stroke: #008000"/>
     <use xlink:href="#m1bf8ecef61" x="124.010331" y="355.186086" style="fill: #008000; stroke: #008000"/>
     <use xlink:href="#m1bf8ecef61" x="135.539256" y="281.349726" style="fill: #008000; stroke: #008000"/>
     <use xlink:href="#m1bf8ecef61" x="138.421488" y="336.642466" style="fill: #008000; stroke: #008000"/>
     <use xlink:href="#m1bf8ecef61" x="141.303719" y="276.92069" style="fill: #008000; stroke: #008000"/>
     <use xlink:href="#m1bf8ecef61" x="144.18595" y="276.920714" style="fill: #008000; stroke: #008000"/>
     <use xlink:href="#m1bf8ecef61" x="147.068182" y="326.811446" style="fill: #008000; stroke: #008000"/>
     <use xlink:href="#m1bf8ecef61" x="149.950413" y="369.158355" style="fill: #008000; stroke: #008000"/>
     <use xlink:href="#m1bf8ecef61" x="152.832645" y="369.124674" style="fill: #008000; stroke: #008000"/>
     <use xlink:href="#m1bf8ecef61" x="158.597107" y="270.414597" style="fill: #008000; stroke: #008000"/>
     <use xlink:href="#m1bf8ecef61" x="164.36157" y="289.071735" style="fill: #008000; stroke: #008000"/>
     <use xlink:href="#m1bf8ecef61" x="167.243802" y="354.982234" style="fill: #008000; stroke: #008000"/>
     <use xlink:href="#m1bf8ecef61" x="170.126033" y="349.997775" style="fill: #008000; stroke: #008000"/>
     <use xlink:href="#m1bf8ecef61" x="173.008264" y="296.81182" style="fill: #008000; stroke: #008000"/>
     <use xlink:href="#m1bf8ecef61" x="181.654959" y="364.338142" style="fill: #008000; stroke: #008000"/>
     <use xlink:href="#m1bf8ecef61" x="184.53719" y="359.365506" style="fill: #008000; stroke: #008000"/>
     <use xlink:href="#m1bf8ecef61" x="187.419421" y="364.428584" style="fill: #008000; stroke: #008000"/>
     <use xlink:href="#m1bf8ecef61" x="193.183884" y="345.616014" style="fill: #008000; stroke: #008000"/>
     <use xlink:href="#m1bf8ecef61" x="196.066116" y="332.468522" style="fill: #008000; stroke: #008000"/>
     <use xlink:href="#m1bf8ecef61" x="198.948347" y="354.973812" style="fill: #008000; stroke: #008000"/>
     <use xlink:href="#m1bf8ecef61" x="201.830579" y="317.847902" style="fill: #008000; stroke: #008000"/>
     <use xlink:href="#m1bf8ecef61" x="204.71281" y="331.83637" style="fill: #008000; stroke: #008000"/>
     <use xlink:href="#m1bf8ecef61" x="207.595041" y="364.185719" style="fill: #008000; stroke: #008000"/>
     <use xlink:href="#m1bf8ecef61" x="210.477273" y="350.252606" style="fill: #008000; stroke: #008000"/>
     <use xlink:href="#m1bf8ecef61" x="213.359504" y="336.407787" style="fill: #008000; stroke: #008000"/>
     <use xlink:href="#m1bf8ecef61" x="216.241736" y="369.135425" style="fill: #008000; stroke: #008000"/>
     <use xlink:href="#m1bf8ecef61" x="219.123967" y="266.650273" style="fill: #008000; stroke: #008000"/>
     <use xlink:href="#m1bf8ecef61" x="222.006198" y="174.253487" style="fill: #008000; stroke: #008000"/>
     <use xlink:href="#m1bf8ecef61" x="224.88843" y="238.457531" style="fill: #008000; stroke: #008000"/>
     <use xlink:href="#m1bf8ecef61" x="227.770661" y="222.516477" style="fill: #008000; stroke: #008000"/>
     <use xlink:href="#m1bf8ecef61" x="230.652893" y="315.104274" style="fill: #008000; stroke: #008000"/>
     <use xlink:href="#m1bf8ecef61" x="233.535124" y="250.345196" style="fill: #008000; stroke: #008000"/>
     <use xlink:href="#m1bf8ecef61" x="236.417355" y="254.354243" style="fill: #008000; stroke: #008000"/>
     <use xlink:href="#m1bf8ecef61" x="239.299587" y="310.005013" style="fill: #008000; stroke: #008000"/>
     <use xlink:href="#m1bf8ecef61" x="242.181818" y="282.496047" style="fill: #008000; stroke: #008000"/>
     <use xlink:href="#m1bf8ecef61" x="245.06405" y="262.06989" style="fill: #008000; stroke: #008000"/>
     <use xlink:href="#m1bf8ecef61" x="247.946281" y="173.882177" style="fill: #008000; stroke: #008000"/>
     <use xlink:href="#m1bf8ecef61" x="250.828512" y="201.60201" style="fill: #008000; stroke: #008000"/>
     <use xlink:href="#m1bf8ecef61" x="253.710744" y="178.826728" style="fill: #008000; stroke: #008000"/>
     <use xlink:href="#m1bf8ecef61" x="256.592975" y="205.840548" style="fill: #008000; stroke: #008000"/>
     <use xlink:href="#m1bf8ecef61" x="259.475207" y="360.124169" style="fill: #008000; stroke: #008000"/>
     <use xlink:href="#m1bf8ecef61" x="262.357438" y="159.229787" style="fill: #008000; stroke: #008000"/>
     <use xlink:href="#m1bf8ecef61" x="265.239669" y="351.027847" style="fill: #008000; stroke: #008000"/>
     <use xlink:href="#m1bf8ecef61" x="271.004132" y="337.209113" style="fill: #008000; stroke: #008000"/>
     <use xlink:href="#m1bf8ecef61" x="282.533058" y="364.671886" style="fill: #008000; stroke: #008000"/>
     <use xlink:href="#m1bf8ecef61" x="288.297521" y="314.364124" style="fill: #008000; stroke: #008000"/>
     <use xlink:href="#m1bf8ecef61" x="291.179752" y="360.094757" style="fill: #008000; stroke: #008000"/>
     <use xlink:href="#m1bf8ecef61" x="294.061983" y="314.461445" style="fill: #008000; stroke: #008000"/>
     <use xlink:href="#m1bf8ecef61" x="299.826446" y="318.763056" style="fill: #008000; stroke: #008000"/>
     <use xlink:href="#m1bf8ecef61" x="302.708678" y="314.074238" style="fill: #008000; stroke: #008000"/>
     <use xlink:href="#m1bf8ecef61" x="305.590909" y="341.408287" style="fill: #008000; stroke: #008000"/>
     <use xlink:href="#m1bf8ecef61" x="308.47314" y="299.728186" style="fill: #008000; stroke: #008000"/>
     <use xlink:href="#m1bf8ecef61" x="311.355372" y="309.00595" style="fill: #008000; stroke: #008000"/>
     <use xlink:href="#m1bf8ecef61" x="317.119835" y="252.527889" style="fill: #008000; stroke: #008000"/>
     <use xlink:href="#m1bf8ecef61" x="320.002066" y="327.110796" style="fill: #008000; stroke: #008000"/>
     <use xlink:href="#m1bf8ecef61" x="325.766529" y="245.484341" style="fill: #008000; stroke: #008000"/>
     <use xlink:href="#m1bf8ecef61" x="328.64876" y="277.317683" style="fill: #008000; stroke: #008000"/>
     <use xlink:href="#m1bf8ecef61" x="331.530992" y="233.57566" style="fill: #008000; stroke: #008000"/>
     <use xlink:href="#m1bf8ecef61" x="334.413223" y="66.96" style="fill: #008000; stroke: #008000"/>
     <use xlink:href="#m1bf8ecef61" x="340.177686" y="369.169454" style="fill: #008000; stroke: #008000"/>
     <use xlink:href="#m1bf8ecef61" x="343.059917" y="355.53516" style="fill: #008000; stroke: #008000"/>
     <use xlink:href="#m1bf8ecef61" x="345.942149" y="229.691263" style="fill: #008000; stroke: #008000"/>
     <use xlink:href="#m1bf8ecef61" x="348.82438" y="364.712542" style="fill: #008000; stroke: #008000"/>
     <use xlink:href="#m1bf8ecef61" x="351.706612" y="369.326498" style="fill: #008000; stroke: #008000"/>
     <use xlink:href="#m1bf8ecef61" x="354.588843" y="315.330742" style="fill: #008000; stroke: #008000"/>
     <use xlink:href="#m1bf8ecef61" x="357.471074" y="342.117796" style="fill: #008000; stroke: #008000"/>
     <use xlink:href="#m1bf8ecef61" x="363.235537" y="355.385182" style="fill: #008000; stroke: #008000"/>
     <use xlink:href="#m1bf8ecef61" x="366.117769" y="272.301547" style="fill: #008000; stroke: #008000"/>
     <use xlink:href="#m1bf8ecef61" x="369" y="309.266818" style="fill: #008000; stroke: #008000"/>
     <use xlink:href="#m1bf8ecef61" x="371.882231" y="285.814708" style="fill: #008000; stroke: #008000"/>
     <use xlink:href="#m1bf8ecef61" x="374.764463" y="304.237471" style="fill: #008000; stroke: #008000"/>
     <use xlink:href="#m1bf8ecef61" x="377.646694" y="345.990675" style="fill: #008000; stroke: #008000"/>
     <use xlink:href="#m1bf8ecef61" x="380.528926" y="332.147582" style="fill: #008000; stroke: #008000"/>
     <use xlink:href="#m1bf8ecef61" x="383.411157" y="313.519677" style="fill: #008000; stroke: #008000"/>
     <use xlink:href="#m1bf8ecef61" x="386.293388" y="364.595329" style="fill: #008000; stroke: #008000"/>
     <use xlink:href="#m1bf8ecef61" x="389.17562" y="299.584066" style="fill: #008000; stroke: #008000"/>
     <use xlink:href="#m1bf8ecef61" x="392.057851" y="322.784716" style="fill: #008000; stroke: #008000"/>
     <use xlink:href="#m1bf8ecef61" x="394.940083" y="369.186014" style="fill: #008000; stroke: #008000"/>
     <use xlink:href="#m1bf8ecef61" x="397.822314" y="364.545884" style="fill: #008000; stroke: #008000"/>
     <use xlink:href="#m1bf8ecef61" x="400.704545" y="369.187023" style="fill: #008000; stroke: #008000"/>
     <use xlink:href="#m1bf8ecef61" x="403.586777" y="294.943942" style="fill: #008000; stroke: #008000"/>
     <use xlink:href="#m1bf8ecef61" x="406.469008" y="313.50437" style="fill: #008000; stroke: #008000"/>
     <use xlink:href="#m1bf8ecef61" x="409.35124" y="341.344596" style="fill: #008000; stroke: #008000"/>
     <use xlink:href="#m1bf8ecef61" x="412.233471" y="341.16341" style="fill: #008000; stroke: #008000"/>
     <use xlink:href="#m1bf8ecef61" x="415.115702" y="364.5097" style="fill: #008000; stroke: #008000"/>
     <use xlink:href="#m1bf8ecef61" x="420.880165" y="369.160039" style="fill: #008000; stroke: #008000"/>
     <use xlink:href="#m1bf8ecef61" x="423.762397" y="122.346098" style="fill: #008000; stroke: #008000"/>
     <use xlink:href="#m1bf8ecef61" x="426.644628" y="266.672756" style="fill: #008000; stroke: #008000"/>
     <use xlink:href="#m1bf8ecef61" x="435.291322" y="308.637683" style="fill: #008000; stroke: #008000"/>
     <use xlink:href="#m1bf8ecef61" x="438.173554" y="346.505216" style="fill: #008000; stroke: #008000"/>
     <use xlink:href="#m1bf8ecef61" x="441.055785" y="369.168753" style="fill: #008000; stroke: #008000"/>
     <use xlink:href="#m1bf8ecef61" x="443.938017" y="277.691719" style="fill: #008000; stroke: #008000"/>
     <use xlink:href="#m1bf8ecef61" x="446.820248" y="341.236082" style="fill: #008000; stroke: #008000"/>
     <use xlink:href="#m1bf8ecef61" x="449.702479" y="345.831225" style="fill: #008000; stroke: #008000"/>
     <use xlink:href="#m1bf8ecef61" x="452.584711" y="345.816078" style="fill: #008000; stroke: #008000"/>
     <use xlink:href="#m1bf8ecef61" x="455.466942" y="222.077955" style="fill: #008000; stroke: #008000"/>
     <use xlink:href="#m1bf8ecef61" x="458.349174" y="359.791359" style="fill: #008000; stroke: #008000"/>
     <use xlink:href="#m1bf8ecef61" x="461.231405" y="343.495863" style="fill: #008000; stroke: #008000"/>
     <use xlink:href="#m1bf8ecef61" x="464.113636" y="317.862042" style="fill: #008000; stroke: #008000"/>
     <use xlink:href="#m1bf8ecef61" x="466.995868" y="364.570746" style="fill: #008000; stroke: #008000"/>
     <use xlink:href="#m1bf8ecef61" x="469.878099" y="322.324613" style="fill: #008000; stroke: #008000"/>
     <use xlink:href="#m1bf8ecef61" x="472.760331" y="364.462229" style="fill: #008000; stroke: #008000"/>
     <use xlink:href="#m1bf8ecef61" x="475.642562" y="322.324623" style="fill: #008000; stroke: #008000"/>
     <use xlink:href="#m1bf8ecef61" x="478.524793" y="331.819157" style="fill: #008000; stroke: #008000"/>
     <use xlink:href="#m1bf8ecef61" x="481.407025" y="369.36" style="fill: #008000; stroke: #008000"/>
     <use xlink:href="#m1bf8ecef61" x="484.289256" y="350.394268" style="fill: #008000; stroke: #008000"/>
     <use xlink:href="#m1bf8ecef61" x="487.171488" y="369.142276" style="fill: #008000; stroke: #008000"/>
     <use xlink:href="#m1bf8ecef61" x="490.053719" y="364.469903" style="fill: #008000; stroke: #008000"/>
     <use xlink:href="#m1bf8ecef61" x="495.818182" y="369.36" style="fill: #008000; stroke: #008000"/>
     <use xlink:href="#m1bf8ecef61" x="498.700413" y="340.99519" style="fill: #008000; stroke: #008000"/>
     <use xlink:href="#m1bf8ecef61" x="501.582645" y="364.45214" style="fill: #008000; stroke: #008000"/>
     <use xlink:href="#m1bf8ecef61" x="507.347107" y="355.488029" style="fill: #008000; stroke: #008000"/>
     <use xlink:href="#m1bf8ecef61" x="510.229339" y="369.207117" style="fill: #008000; stroke: #008000"/>
     <use xlink:href="#m1bf8ecef61" x="513.11157" y="355.060777" style="fill: #008000; stroke: #008000"/>
     <use xlink:href="#m1bf8ecef61" x="515.993802" y="369.36" style="fill: #008000; stroke: #008000"/>
     <use xlink:href="#m1bf8ecef61" x="518.876033" y="355.049179" style="fill: #008000; stroke: #008000"/>
     <use xlink:href="#m1bf8ecef61" x="521.758264" y="336.272215" style="fill: #008000; stroke: #008000"/>
     <use xlink:href="#m1bf8ecef61" x="524.640496" y="303.412527" style="fill: #008000; stroke: #008000"/>
     <use xlink:href="#m1bf8ecef61" x="530.404959" y="336.139567" style="fill: #008000; stroke: #008000"/>
     <use xlink:href="#m1bf8ecef61" x="533.28719" y="350.279253" style="fill: #008000; stroke: #008000"/>
     <use xlink:href="#m1bf8ecef61" x="536.169421" y="340.978576" style="fill: #008000; stroke: #008000"/>
     <use xlink:href="#m1bf8ecef61" x="539.051653" y="336.283877" style="fill: #008000; stroke: #008000"/>
     <use xlink:href="#m1bf8ecef61" x="541.933884" y="322.036935" style="fill: #008000; stroke: #008000"/>
     <use xlink:href="#m1bf8ecef61" x="544.816116" y="331.569293" style="fill: #008000; stroke: #008000"/>
     <use xlink:href="#m1bf8ecef61" x="547.698347" y="369.116766" style="fill: #008000; stroke: #008000"/>
     <use xlink:href="#m1bf8ecef61" x="550.580579" y="324.69856" style="fill: #008000; stroke: #008000"/>
     <use xlink:href="#m1bf8ecef61" x="556.345041" y="350.260603" style="fill: #008000; stroke: #008000"/>
     <use xlink:href="#m1bf8ecef61" x="559.227273" y="336.149774" style="fill: #008000; stroke: #008000"/>
     <use xlink:href="#m1bf8ecef61" x="562.109504" y="229.778967" style="fill: #008000; stroke: #008000"/>
     <use xlink:href="#m1bf8ecef61" x="564.991736" y="344.532755" style="fill: #008000; stroke: #008000"/>
     <use xlink:href="#m1bf8ecef61" x="567.873967" y="349.818281" style="fill: #008000; stroke: #008000"/>
     <use xlink:href="#m1bf8ecef61" x="576.520661" y="354.297218" style="fill: #008000; stroke: #008000"/>
     <use xlink:href="#m1bf8ecef61" x="582.285124" y="344.532755" style="fill: #008000; stroke: #008000"/>
     <use xlink:href="#m1bf8ecef61" x="588.049587" y="140.819664" style="fill: #008000; stroke: #008000"/>
     <use xlink:href="#m1bf8ecef61" x="590.931818" y="325.130249" style="fill: #008000; stroke: #008000"/>
     <use xlink:href="#m1bf8ecef61" x="593.81405" y="321.254331" style="fill: #008000; stroke: #008000"/>
     <use xlink:href="#m1bf8ecef61" x="596.696281" y="208.926562" style="fill: #008000; stroke: #008000"/>
     <use xlink:href="#m1bf8ecef61" x="599.578512" y="320.121597" style="fill: #008000; stroke: #008000"/>
     <use xlink:href="#m1bf8ecef61" x="602.460744" y="359.252878" style="fill: #008000; stroke: #008000"/>
     <use xlink:href="#m1bf8ecef61" x="605.342975" y="266.95553" style="fill: #008000; stroke: #008000"/>
     <use xlink:href="#m1bf8ecef61" x="608.225207" y="344.867205" style="fill: #008000; stroke: #008000"/>
     <use xlink:href="#m1bf8ecef61" x="611.107438" y="326.060231" style="fill: #008000; stroke: #008000"/>
     <use xlink:href="#m1bf8ecef61" x="616.871901" y="369.049553" style="fill: #008000; stroke: #008000"/>
     <use xlink:href="#m1bf8ecef61" x="619.754132" y="160.079585" style="fill: #008000; stroke: #008000"/>
     <use xlink:href="#m1bf8ecef61" x="622.636364" y="364.148055" style="fill: #008000; stroke: #008000"/>
    </g>
   </g>
   <g id="patch_3">
    <path d="M 90 384.48 
L 90 51.84 
" style="fill: none; stroke: #000000; stroke-width: 0.8; stroke-linejoin: miter; stroke-linecap: square"/>
   </g>
   <g id="patch_4">
    <path d="M 648 384.48 
L 648 51.84 
" style="fill: none; stroke: #000000; stroke-width: 0.8; stroke-linejoin: miter; stroke-linecap: square"/>
   </g>
   <g id="patch_5">
    <path d="M 90 384.48 
L 648 384.48 
" style="fill: none; stroke: #000000; stroke-width: 0.8; stroke-linejoin: miter; stroke-linecap: square"/>
   </g>
   <g id="patch_6">
    <path d="M 90 51.84 
L 648 51.84 
" style="fill: none; stroke: #000000; stroke-width: 0.8; stroke-linejoin: miter; stroke-linecap: square"/>
   </g>
   <g id="text_19">
    <!-- 6004020918 每周收益 -->
    <g transform="translate(312 45.84) scale(0.12 -0.12)">
     <defs>
      <path id="SimHei-39" d="M 800 75 
Q 1350 1000 1700 1750 
Q 1075 1650 662 1912 
Q 250 2175 162 2625 
Q 75 3075 175 3437 
Q 275 3800 487 4037 
Q 700 4275 1000 4375 
Q 1300 4475 1537 4475 
Q 1775 4475 2025 4375 
Q 2275 4275 2475 4075 
Q 2675 3875 2750 3662 
Q 2825 3450 2825 3112 
Q 2825 2775 2575 2250 
Q 2325 1725 1350 75 
L 800 75 
z
M 662 2875 
Q 700 2550 937 2337 
Q 1175 2125 1450 2150 
Q 1725 2175 1887 2300 
Q 2050 2425 2200 2725 
Q 2300 3100 2250 3362 
Q 2200 3625 1987 3800 
Q 1775 3975 1525 3975 
Q 1375 4000 1137 3900 
Q 900 3800 762 3500 
Q 625 3200 662 2875 
z
" transform="scale(0.015625)"/>
      <path id="SimHei-20" transform="scale(0.015625)"/>
      <path id="SimHei-6bcf" d="M 5225 3650 
Q 5175 3150 5150 2675 
L 5125 2200 
Q 5525 2200 6000 2225 
L 6000 1775 
Q 5625 1800 5100 1800 
L 5050 650 
Q 5325 650 5700 675 
L 5700 225 
Q 5400 250 5025 250 
Q 5000 -275 4775 -425 
Q 4550 -575 4000 -650 
Q 3950 -400 3775 -125 
Q 4375 -125 4475 -50 
Q 4575 25 4575 250 
L 1400 250 
L 1500 1100 
L 1550 1800 
L 1275 1800 
Q 825 1800 550 1775 
L 550 2225 
Q 975 2200 1275 2200 
L 1575 2200 
L 1625 2825 
L 1675 3650 
L 5225 3650 
z
M 2350 5000 
Q 2175 4825 2050 4600 
L 4875 4600 
Q 5275 4600 5775 4625 
L 5775 4175 
Q 5275 4200 4875 4200 
L 1825 4200 
L 1375 3625 
Q 1125 3325 775 2975 
Q 600 3175 350 3300 
Q 725 3575 1150 4112 
Q 1575 4650 1825 5250 
Q 2125 5075 2350 5000 
z
M 1975 1800 
L 1875 650 
L 4625 650 
L 4675 1800 
L 2950 1800 
Q 3575 1275 3825 1125 
Q 3625 925 3475 725 
Q 3100 1100 2650 1475 
Q 2775 1675 2875 1800 
L 1975 1800 
z
M 2975 3250 
Q 3125 3150 3287 3012 
Q 3450 2875 3800 2550 
Q 3650 2350 3525 2200 
L 4700 2200 
L 4750 3250 
L 2975 3250 
z
M 2075 3250 
L 2000 2200 
L 3425 2200 
Q 3150 2500 3012 2625 
Q 2875 2750 2700 2900 
Q 2800 3050 2925 3250 
L 2075 3250 
z
" transform="scale(0.015625)"/>
     </defs>
     <use xlink:href="#SimHei-36"/>
     <use xlink:href="#SimHei-30" x="50"/>
     <use xlink:href="#SimHei-30" x="100"/>
     <use xlink:href="#SimHei-34" x="150"/>
     <use xlink:href="#SimHei-30" x="200"/>
     <use xlink:href="#SimHei-32" x="250"/>
     <use xlink:href="#SimHei-30" x="300"/>
     <use xlink:href="#SimHei-39" x="350"/>
     <use xlink:href="#SimHei-31" x="400"/>
     <use xlink:href="#SimHei-38" x="450"/>
     <use xlink:href="#SimHei-20" x="500"/>
     <use xlink:href="#SimHei-6bcf" x="550"/>
     <use xlink:href="#SimHei-5468" x="650"/>
     <use xlink:href="#SimHei-6536" x="750"/>
     <use xlink:href="#SimHei-76ca" x="850"/>
    </g>
   </g>
  </g>
 </g>
 <defs>
  <clipPath id="p17cc7a1ffc">
   <rect x="90" y="51.84" width="558" height="332.64"/>
  </clipPath>
 </defs>
</svg>
