<?xml version="1.0" encoding="utf-8" standalone="no"?>
<!DOCTYPE svg PUBLIC "-//W3C//DTD SVG 1.1//EN"
  "http://www.w3.org/Graphics/SVG/1.1/DTD/svg11.dtd">
<svg xmlns:xlink="http://www.w3.org/1999/xlink" width="864pt" height="576pt" viewBox="0 0 864 576" xmlns="http://www.w3.org/2000/svg" version="1.1">
 <metadata>
  <rdf:RDF xmlns:dc="http://purl.org/dc/elements/1.1/" xmlns:cc="http://creativecommons.org/ns#" xmlns:rdf="http://www.w3.org/1999/02/22-rdf-syntax-ns#">
   <cc:Work>
    <dc:type rdf:resource="http://purl.org/dc/dcmitype/StillImage"/>
    <dc:date>2024-08-18T14:00:26.938215</dc:date>
    <dc:format>image/svg+xml</dc:format>
    <dc:creator>
     <cc:Agent>
      <dc:title>Matplotlib v3.8.0, https://matplotlib.org/</dc:title>
     </cc:Agent>
    </dc:creator>
   </cc:Work>
  </rdf:RDF>
 </metadata>
 <defs>
  <style type="text/css">*{stroke-linejoin: round; stroke-linecap: butt}</style>
 </defs>
 <g id="figure_1">
  <g id="patch_1">
   <path d="M 0 576 
L 864 576 
L 864 0 
L 0 0 
z
" style="fill: #ffffff"/>
  </g>
  <g id="axes_1">
   <g id="patch_2">
    <path d="M 42.91 549.56 
L 426.6 549.56 
L 426.6 25.44 
L 42.91 25.44 
z
" style="fill: #ffffff"/>
   </g>
   <g id="PolyCollection_1">
    <path d="M 68.857993 240.216695 
L 68.857993 334.783305 
L 94.38061 336.504478 
L 111.395687 346.257796 
L 128.410765 346.431772 
L 145.425843 347.267401 
L 162.44092 348.326872 
L 179.455998 349.668795 
L 196.471075 349.949437 
L 213.486153 350.263158 
L 230.501231 350.461922 
L 247.516308 351.249148 
L 264.531386 351.52137 
L 281.546463 355.136525 
L 298.561541 355.153731 
L 315.576619 355.94382 
L 332.591696 356.404619 
L 349.606774 356.856339 
L 366.621851 357.764976 
L 383.636929 357.824333 
L 409.159545 358.790439 
L 409.159545 216.209561 
L 409.159545 216.209561 
L 383.636929 217.175667 
L 366.621851 217.235024 
L 349.606774 218.143661 
L 332.591696 218.595381 
L 315.576619 219.05618 
L 298.561541 219.846269 
L 281.546463 219.863475 
L 264.531386 223.47863 
L 247.516308 223.750852 
L 230.501231 224.538078 
L 213.486153 224.736842 
L 196.471075 225.050563 
L 179.455998 225.331205 
L 162.44092 226.673128 
L 145.425843 227.732599 
L 128.410765 228.568228 
L 111.395687 228.742204 
L 94.38061 238.495522 
L 68.857993 240.216695 
z
" clip-path="url(#p224f19d412)" style="fill: #1f77b4; fill-opacity: 0.25"/>
   </g>
   <g id="matplotlib.axis_1">
    <g id="xtick_1">
     <g id="line2d_1">
      <defs>
       <path id="m5aec1ad5b7" d="M 0 0 
L 0 3.5 
" style="stroke: #000000; stroke-width: 0.8"/>
      </defs>
      <g>
       <use xlink:href="#m5aec1ad5b7" x="60.350455" y="549.56" style="stroke: #000000; stroke-width: 0.8"/>
      </g>
     </g>
     <g id="text_1">
      <!-- 0 -->
      <g transform="translate(57.850455 563.435) scale(0.1 -0.1)">
       <defs>
        <path id="SimHei-30" d="M 225 2537 
Q 250 3200 412 3587 
Q 575 3975 875 4225 
Q 1175 4475 1612 4475 
Q 2050 4475 2375 4112 
Q 2700 3750 2800 3200 
Q 2900 2650 2862 1937 
Q 2825 1225 2612 775 
Q 2400 325 1975 150 
Q 1550 -25 1125 187 
Q 700 400 525 750 
Q 350 1100 275 1487 
Q 200 1875 225 2537 
z
M 750 2687 
Q 675 2000 800 1462 
Q 925 925 1212 700 
Q 1500 475 1800 612 
Q 2100 750 2237 1162 
Q 2375 1575 2375 2062 
Q 2375 2550 2337 2950 
Q 2300 3350 2112 3675 
Q 1925 4000 1612 4012 
Q 1300 4025 1062 3700 
Q 825 3375 750 2687 
z
" transform="scale(0.015625)"/>
       </defs>
       <use xlink:href="#SimHei-30"/>
      </g>
     </g>
    </g>
    <g id="xtick_2">
     <g id="line2d_2">
      <g>
       <use xlink:href="#m5aec1ad5b7" x="145.425843" y="549.56" style="stroke: #000000; stroke-width: 0.8"/>
      </g>
     </g>
     <g id="text_2">
      <!-- 5 -->
      <g transform="translate(142.925843 563.435) scale(0.1 -0.1)">
       <defs>
        <path id="SimHei-35" d="M 550 1325 
Q 725 650 1150 575 
Q 1575 500 1837 662 
Q 2100 825 2212 1087 
Q 2325 1350 2312 1675 
Q 2300 2000 2137 2225 
Q 1975 2450 1725 2525 
Q 1475 2600 1162 2525 
Q 850 2450 650 2175 
L 225 2225 
Q 275 2375 700 4375 
L 2675 4375 
L 2675 3925 
L 1075 3925 
Q 950 3250 825 2850 
Q 1200 3025 1525 3012 
Q 1850 3000 2150 2862 
Q 2450 2725 2587 2487 
Q 2725 2250 2787 2012 
Q 2850 1775 2837 1500 
Q 2825 1225 2725 937 
Q 2625 650 2425 462 
Q 2225 275 1937 162 
Q 1650 50 1275 75 
Q 900 100 562 350 
Q 225 600 100 1200 
L 550 1325 
z
" transform="scale(0.015625)"/>
       </defs>
       <use xlink:href="#SimHei-35"/>
      </g>
     </g>
    </g>
    <g id="xtick_3">
     <g id="line2d_3">
      <g>
       <use xlink:href="#m5aec1ad5b7" x="230.501231" y="549.56" style="stroke: #000000; stroke-width: 0.8"/>
      </g>
     </g>
     <g id="text_3">
      <!-- 10 -->
      <g transform="translate(225.501231 563.435) scale(0.1 -0.1)">
       <defs>
        <path id="SimHei-31" d="M 1400 3600 
Q 1075 3275 575 2975 
L 575 3450 
Q 1200 3875 1600 4450 
L 1900 4450 
L 1900 150 
L 1400 150 
L 1400 3600 
z
" transform="scale(0.015625)"/>
       </defs>
       <use xlink:href="#SimHei-31"/>
       <use xlink:href="#SimHei-30" x="50"/>
      </g>
     </g>
    </g>
    <g id="xtick_4">
     <g id="line2d_4">
      <g>
       <use xlink:href="#m5aec1ad5b7" x="315.576619" y="549.56" style="stroke: #000000; stroke-width: 0.8"/>
      </g>
     </g>
     <g id="text_4">
      <!-- 15 -->
      <g transform="translate(310.576619 563.435) scale(0.1 -0.1)">
       <use xlink:href="#SimHei-31"/>
       <use xlink:href="#SimHei-35" x="50"/>
      </g>
     </g>
    </g>
    <g id="xtick_5">
     <g id="line2d_5">
      <g>
       <use xlink:href="#m5aec1ad5b7" x="400.652007" y="549.56" style="stroke: #000000; stroke-width: 0.8"/>
      </g>
     </g>
     <g id="text_5">
      <!-- 20 -->
      <g transform="translate(395.652007 563.435) scale(0.1 -0.1)">
       <defs>
        <path id="SimHei-32" d="M 300 250 
Q 325 625 650 925 
Q 975 1225 1475 1862 
Q 1975 2500 2125 2850 
Q 2275 3200 2237 3450 
Q 2200 3700 2000 3862 
Q 1800 4025 1537 4000 
Q 1275 3975 1037 3800 
Q 800 3625 675 3275 
L 200 3350 
Q 400 3925 712 4187 
Q 1025 4450 1450 4475 
Q 1700 4500 1900 4462 
Q 2100 4425 2312 4287 
Q 2525 4150 2662 3875 
Q 2800 3600 2762 3212 
Q 2725 2825 2375 2287 
Q 2025 1750 1025 600 
L 2825 600 
L 2825 150 
L 300 150 
L 300 250 
z
" transform="scale(0.015625)"/>
       </defs>
       <use xlink:href="#SimHei-32"/>
       <use xlink:href="#SimHei-30" x="50"/>
      </g>
     </g>
    </g>
   </g>
   <g id="matplotlib.axis_2">
    <g id="ytick_1">
     <g id="line2d_6">
      <defs>
       <path id="m28c121b545" d="M 0 0 
L -3.5 0 
" style="stroke: #000000; stroke-width: 0.8"/>
      </defs>
      <g>
       <use xlink:href="#m28c121b545" x="42.91" y="549.56" style="stroke: #000000; stroke-width: 0.8"/>
      </g>
     </g>
     <g id="text_6">
      <!-- -1.00 -->
      <g transform="translate(10.91 552.9975) scale(0.1 -0.1)">
       <defs>
        <path id="SimHei-2d" d="M 2975 2125 
L 125 2125 
L 125 2525 
L 2975 2525 
L 2975 2125 
z
" transform="scale(0.015625)"/>
        <path id="SimHei-2e" d="M 1075 125 
L 500 125 
L 500 675 
L 1075 675 
L 1075 125 
z
" transform="scale(0.015625)"/>
       </defs>
       <use xlink:href="#SimHei-2d"/>
       <use xlink:href="#SimHei-31" x="50"/>
       <use xlink:href="#SimHei-2e" x="100"/>
       <use xlink:href="#SimHei-30" x="150"/>
       <use xlink:href="#SimHei-30" x="200"/>
      </g>
     </g>
    </g>
    <g id="ytick_2">
     <g id="line2d_7">
      <g>
       <use xlink:href="#m28c121b545" x="42.91" y="484.045" style="stroke: #000000; stroke-width: 0.8"/>
      </g>
     </g>
     <g id="text_7">
      <!-- -0.75 -->
      <g transform="translate(10.91 487.4825) scale(0.1 -0.1)">
       <defs>
        <path id="SimHei-37" d="M 850 150 
Q 1300 2050 2425 3925 
L 275 3925 
L 275 4375 
L 2950 4375 
L 2950 3950 
Q 1775 2050 1400 150 
L 850 150 
z
" transform="scale(0.015625)"/>
       </defs>
       <use xlink:href="#SimHei-2d"/>
       <use xlink:href="#SimHei-30" x="50"/>
       <use xlink:href="#SimHei-2e" x="100"/>
       <use xlink:href="#SimHei-37" x="150"/>
       <use xlink:href="#SimHei-35" x="200"/>
      </g>
     </g>
    </g>
    <g id="ytick_3">
     <g id="line2d_8">
      <g>
       <use xlink:href="#m28c121b545" x="42.91" y="418.53" style="stroke: #000000; stroke-width: 0.8"/>
      </g>
     </g>
     <g id="text_8">
      <!-- -0.50 -->
      <g transform="translate(10.91 421.9675) scale(0.1 -0.1)">
       <use xlink:href="#SimHei-2d"/>
       <use xlink:href="#SimHei-30" x="50"/>
       <use xlink:href="#SimHei-2e" x="100"/>
       <use xlink:href="#SimHei-35" x="150"/>
       <use xlink:href="#SimHei-30" x="200"/>
      </g>
     </g>
    </g>
    <g id="ytick_4">
     <g id="line2d_9">
      <g>
       <use xlink:href="#m28c121b545" x="42.91" y="353.015" style="stroke: #000000; stroke-width: 0.8"/>
      </g>
     </g>
     <g id="text_9">
      <!-- -0.25 -->
      <g transform="translate(10.91 356.4525) scale(0.1 -0.1)">
       <use xlink:href="#SimHei-2d"/>
       <use xlink:href="#SimHei-30" x="50"/>
       <use xlink:href="#SimHei-2e" x="100"/>
       <use xlink:href="#SimHei-32" x="150"/>
       <use xlink:href="#SimHei-35" x="200"/>
      </g>
     </g>
    </g>
    <g id="ytick_5">
     <g id="line2d_10">
      <g>
       <use xlink:href="#m28c121b545" x="42.91" y="287.5" style="stroke: #000000; stroke-width: 0.8"/>
      </g>
     </g>
     <g id="text_10">
      <!-- 0.00 -->
      <g transform="translate(15.91 290.9375) scale(0.1 -0.1)">
       <use xlink:href="#SimHei-30"/>
       <use xlink:href="#SimHei-2e" x="50"/>
       <use xlink:href="#SimHei-30" x="100"/>
       <use xlink:href="#SimHei-30" x="150"/>
      </g>
     </g>
    </g>
    <g id="ytick_6">
     <g id="line2d_11">
      <g>
       <use xlink:href="#m28c121b545" x="42.91" y="221.985" style="stroke: #000000; stroke-width: 0.8"/>
      </g>
     </g>
     <g id="text_11">
      <!-- 0.25 -->
      <g transform="translate(15.91 225.4225) scale(0.1 -0.1)">
       <use xlink:href="#SimHei-30"/>
       <use xlink:href="#SimHei-2e" x="50"/>
       <use xlink:href="#SimHei-32" x="100"/>
       <use xlink:href="#SimHei-35" x="150"/>
      </g>
     </g>
    </g>
    <g id="ytick_7">
     <g id="line2d_12">
      <g>
       <use xlink:href="#m28c121b545" x="42.91" y="156.47" style="stroke: #000000; stroke-width: 0.8"/>
      </g>
     </g>
     <g id="text_12">
      <!-- 0.50 -->
      <g transform="translate(15.91 159.9075) scale(0.1 -0.1)">
       <use xlink:href="#SimHei-30"/>
       <use xlink:href="#SimHei-2e" x="50"/>
       <use xlink:href="#SimHei-35" x="100"/>
       <use xlink:href="#SimHei-30" x="150"/>
      </g>
     </g>
    </g>
    <g id="ytick_8">
     <g id="line2d_13">
      <g>
       <use xlink:href="#m28c121b545" x="42.91" y="90.955" style="stroke: #000000; stroke-width: 0.8"/>
      </g>
     </g>
     <g id="text_13">
      <!-- 0.75 -->
      <g transform="translate(15.91 94.3925) scale(0.1 -0.1)">
       <use xlink:href="#SimHei-30"/>
       <use xlink:href="#SimHei-2e" x="50"/>
       <use xlink:href="#SimHei-37" x="100"/>
       <use xlink:href="#SimHei-35" x="150"/>
      </g>
     </g>
    </g>
    <g id="ytick_9">
     <g id="line2d_14">
      <g>
       <use xlink:href="#m28c121b545" x="42.91" y="25.44" style="stroke: #000000; stroke-width: 0.8"/>
      </g>
     </g>
     <g id="text_14">
      <!-- 1.00 -->
      <g transform="translate(15.91 28.8775) scale(0.1 -0.1)">
       <use xlink:href="#SimHei-31"/>
       <use xlink:href="#SimHei-2e" x="50"/>
       <use xlink:href="#SimHei-30" x="100"/>
       <use xlink:href="#SimHei-30" x="150"/>
      </g>
     </g>
    </g>
   </g>
   <g id="LineCollection_1">
    <path d="M 60.350455 287.5 
L 60.350455 25.44 
" clip-path="url(#p224f19d412)" style="fill: none; stroke: #1f77b4; stroke-width: 1.5"/>
    <path d="M 77.365532 287.5 
L 77.365532 337.951691 
" clip-path="url(#p224f19d412)" style="fill: none; stroke: #1f77b4; stroke-width: 1.5"/>
    <path d="M 94.38061 287.5 
L 94.38061 414.553754 
" clip-path="url(#p224f19d412)" style="fill: none; stroke: #1f77b4; stroke-width: 1.5"/>
    <path d="M 111.395687 287.5 
L 111.395687 269.766648 
" clip-path="url(#p224f19d412)" style="fill: none; stroke: #1f77b4; stroke-width: 1.5"/>
    <path d="M 128.410765 287.5 
L 128.410765 248.469113 
" clip-path="url(#p224f19d412)" style="fill: none; stroke: #1f77b4; stroke-width: 1.5"/>
    <path d="M 145.425843 287.5 
L 145.425843 243.201822 
" clip-path="url(#p224f19d412)" style="fill: none; stroke: #1f77b4; stroke-width: 1.5"/>
    <path d="M 162.44092 287.5 
L 162.44092 337.848515 
" clip-path="url(#p224f19d412)" style="fill: none; stroke: #1f77b4; stroke-width: 1.5"/>
    <path d="M 179.455998 287.5 
L 179.455998 310.676361 
" clip-path="url(#p224f19d412)" style="fill: none; stroke: #1f77b4; stroke-width: 1.5"/>
    <path d="M 196.471075 287.5 
L 196.471075 262.937434 
" clip-path="url(#p224f19d412)" style="fill: none; stroke: #1f77b4; stroke-width: 1.5"/>
    <path d="M 213.486153 287.5 
L 213.486153 307.09103 
" clip-path="url(#p224f19d412)" style="fill: none; stroke: #1f77b4; stroke-width: 1.5"/>
    <path d="M 230.501231 287.5 
L 230.501231 248.358727 
" clip-path="url(#p224f19d412)" style="fill: none; stroke: #1f77b4; stroke-width: 1.5"/>
    <path d="M 247.516308 287.5 
L 247.516308 264.387095 
" clip-path="url(#p224f19d412)" style="fill: none; stroke: #1f77b4; stroke-width: 1.5"/>
    <path d="M 264.531386 287.5 
L 264.531386 372.999754 
" clip-path="url(#p224f19d412)" style="fill: none; stroke: #1f77b4; stroke-width: 1.5"/>
    <path d="M 281.546463 287.5 
L 281.546463 281.52076 
" clip-path="url(#p224f19d412)" style="fill: none; stroke: #1f77b4; stroke-width: 1.5"/>
    <path d="M 298.561541 287.5 
L 298.561541 246.861177 
" clip-path="url(#p224f19d412)" style="fill: none; stroke: #1f77b4; stroke-width: 1.5"/>
    <path d="M 315.576619 287.5 
L 315.576619 256.322184 
" clip-path="url(#p224f19d412)" style="fill: none; stroke: #1f77b4; stroke-width: 1.5"/>
    <path d="M 332.591696 287.5 
L 332.591696 318.471495 
" clip-path="url(#p224f19d412)" style="fill: none; stroke: #1f77b4; stroke-width: 1.5"/>
    <path d="M 349.606774 287.5 
L 349.606774 331.641705 
" clip-path="url(#p224f19d412)" style="fill: none; stroke: #1f77b4; stroke-width: 1.5"/>
    <path d="M 366.621851 287.5 
L 366.621851 276.178869 
" clip-path="url(#p224f19d412)" style="fill: none; stroke: #1f77b4; stroke-width: 1.5"/>
    <path d="M 383.636929 287.5 
L 383.636929 241.66001 
" clip-path="url(#p224f19d412)" style="fill: none; stroke: #1f77b4; stroke-width: 1.5"/>
    <path d="M 400.652007 287.5 
L 400.652007 280.653174 
" clip-path="url(#p224f19d412)" style="fill: none; stroke: #1f77b4; stroke-width: 1.5"/>
   </g>
   <g id="line2d_15">
    <path d="M 42.91 287.5 
L 426.6 287.5 
" clip-path="url(#p224f19d412)" style="fill: none; stroke: #1f77b4; stroke-width: 1.5; stroke-linecap: square"/>
   </g>
   <g id="line2d_16">
    <defs>
     <path id="m8fce206844" d="M 0 2.5 
C 0.663008 2.5 1.29895 2.236584 1.767767 1.767767 
C 2.236584 1.29895 2.5 0.663008 2.5 0 
C 2.5 -0.663008 2.236584 -1.29895 1.767767 -1.767767 
C 1.29895 -2.236584 0.663008 -2.5 0 -2.5 
C -0.663008 -2.5 -1.29895 -2.236584 -1.767767 -1.767767 
C -2.236584 -1.29895 -2.5 -0.663008 -2.5 0 
C -2.5 0.663008 -2.236584 1.29895 -1.767767 1.767767 
C -1.29895 2.236584 -0.663008 2.5 0 2.5 
z
" style="stroke: #1f77b4"/>
    </defs>
    <g clip-path="url(#p224f19d412)">
     <use xlink:href="#m8fce206844" x="60.350455" y="25.44" style="fill: #1f77b4; stroke: #1f77b4"/>
     <use xlink:href="#m8fce206844" x="77.365532" y="337.951691" style="fill: #1f77b4; stroke: #1f77b4"/>
     <use xlink:href="#m8fce206844" x="94.38061" y="414.553754" style="fill: #1f77b4; stroke: #1f77b4"/>
     <use xlink:href="#m8fce206844" x="111.395687" y="269.766648" style="fill: #1f77b4; stroke: #1f77b4"/>
     <use xlink:href="#m8fce206844" x="128.410765" y="248.469113" style="fill: #1f77b4; stroke: #1f77b4"/>
     <use xlink:href="#m8fce206844" x="145.425843" y="243.201822" style="fill: #1f77b4; stroke: #1f77b4"/>
     <use xlink:href="#m8fce206844" x="162.44092" y="337.848515" style="fill: #1f77b4; stroke: #1f77b4"/>
     <use xlink:href="#m8fce206844" x="179.455998" y="310.676361" style="fill: #1f77b4; stroke: #1f77b4"/>
     <use xlink:href="#m8fce206844" x="196.471075" y="262.937434" style="fill: #1f77b4; stroke: #1f77b4"/>
     <use xlink:href="#m8fce206844" x="213.486153" y="307.09103" style="fill: #1f77b4; stroke: #1f77b4"/>
     <use xlink:href="#m8fce206844" x="230.501231" y="248.358727" style="fill: #1f77b4; stroke: #1f77b4"/>
     <use xlink:href="#m8fce206844" x="247.516308" y="264.387095" style="fill: #1f77b4; stroke: #1f77b4"/>
     <use xlink:href="#m8fce206844" x="264.531386" y="372.999754" style="fill: #1f77b4; stroke: #1f77b4"/>
     <use xlink:href="#m8fce206844" x="281.546463" y="281.52076" style="fill: #1f77b4; stroke: #1f77b4"/>
     <use xlink:href="#m8fce206844" x="298.561541" y="246.861177" style="fill: #1f77b4; stroke: #1f77b4"/>
     <use xlink:href="#m8fce206844" x="315.576619" y="256.322184" style="fill: #1f77b4; stroke: #1f77b4"/>
     <use xlink:href="#m8fce206844" x="332.591696" y="318.471495" style="fill: #1f77b4; stroke: #1f77b4"/>
     <use xlink:href="#m8fce206844" x="349.606774" y="331.641705" style="fill: #1f77b4; stroke: #1f77b4"/>
     <use xlink:href="#m8fce206844" x="366.621851" y="276.178869" style="fill: #1f77b4; stroke: #1f77b4"/>
     <use xlink:href="#m8fce206844" x="383.636929" y="241.66001" style="fill: #1f77b4; stroke: #1f77b4"/>
     <use xlink:href="#m8fce206844" x="400.652007" y="280.653174" style="fill: #1f77b4; stroke: #1f77b4"/>
    </g>
   </g>
   <g id="patch_3">
    <path d="M 42.91 549.56 
L 42.91 25.44 
" style="fill: none; stroke: #000000; stroke-width: 0.8; stroke-linejoin: miter; stroke-linecap: square"/>
   </g>
   <g id="patch_4">
    <path d="M 426.6 549.56 
L 426.6 25.44 
" style="fill: none; stroke: #000000; stroke-width: 0.8; stroke-linejoin: miter; stroke-linecap: square"/>
   </g>
   <g id="patch_5">
    <path d="M 42.91 549.56 
L 426.6 549.56 
" style="fill: none; stroke: #000000; stroke-width: 0.8; stroke-linejoin: miter; stroke-linecap: square"/>
   </g>
   <g id="patch_6">
    <path d="M 42.91 25.44 
L 426.6 25.44 
" style="fill: none; stroke: #000000; stroke-width: 0.8; stroke-linejoin: miter; stroke-linecap: square"/>
   </g>
   <g id="text_15">
    <!-- MLE ACF -->
    <g transform="translate(213.755 19.44) scale(0.12 -0.12)">
     <defs>
      <path id="SimHei-4d" d="M 2925 125 
L 2425 125 
L 2425 3175 
L 2375 3175 
L 1775 125 
L 1375 125 
L 775 3175 
L 725 3175 
L 725 125 
L 225 125 
L 225 4400 
L 1000 4400 
L 1550 1575 
L 1600 1575 
L 2150 4400 
L 2925 4400 
L 2925 125 
z
" transform="scale(0.015625)"/>
      <path id="SimHei-4c" d="M 2900 125 
L 300 125 
L 300 4400 
L 875 4400 
L 875 600 
L 2900 600 
L 2900 125 
z
" transform="scale(0.015625)"/>
      <path id="SimHei-45" d="M 2900 125 
L 350 125 
L 350 4400 
L 2775 4400 
L 2775 3925 
L 925 3925 
L 925 2600 
L 2625 2600 
L 2625 2125 
L 925 2125 
L 925 600 
L 2900 600 
L 2900 125 
z
" transform="scale(0.015625)"/>
      <path id="SimHei-20" transform="scale(0.015625)"/>
      <path id="SimHei-41" d="M 3075 125 
L 2475 125 
L 2125 1450 
L 1025 1450 
L 675 125 
L 75 125 
L 1325 4450 
L 1825 4450 
L 3075 125 
z
M 2000 1925 
L 1600 3450 
L 1550 3450 
L 1150 1925 
L 2000 1925 
z
" transform="scale(0.015625)"/>
      <path id="SimHei-43" d="M 2975 1825 
Q 2950 875 2575 475 
Q 2200 75 1675 75 
Q 1075 75 650 562 
Q 225 1050 225 2125 
Q 225 3300 637 3875 
Q 1050 4450 1700 4450 
Q 2250 4450 2612 4037 
Q 2975 3625 2950 2875 
L 2400 2875 
Q 2400 3425 2225 3700 
Q 2050 3975 1700 3975 
Q 1300 3975 1062 3562 
Q 825 3150 825 2175 
Q 825 1275 1062 912 
Q 1300 550 1675 550 
Q 1950 550 2175 812 
Q 2400 1075 2400 1825 
L 2975 1825 
z
" transform="scale(0.015625)"/>
      <path id="SimHei-46" d="M 2925 3925 
L 875 3925 
L 875 2525 
L 2425 2525 
L 2425 2050 
L 875 2050 
L 875 125 
L 300 125 
L 300 4400 
L 2925 4400 
L 2925 3925 
z
" transform="scale(0.015625)"/>
     </defs>
     <use xlink:href="#SimHei-4d"/>
     <use xlink:href="#SimHei-4c" x="50"/>
     <use xlink:href="#SimHei-45" x="100"/>
     <use xlink:href="#SimHei-20" x="150"/>
     <use xlink:href="#SimHei-41" x="200"/>
     <use xlink:href="#SimHei-43" x="250"/>
     <use xlink:href="#SimHei-46" x="300"/>
    </g>
   </g>
  </g>
  <g id="axes_2">
   <g id="patch_7">
    <path d="M 469.51 549.56 
L 853.2 549.56 
L 853.2 25.44 
L 469.51 25.44 
z
" style="fill: #ffffff"/>
   </g>
   <g id="PolyCollection_2">
    <path d="M 495.457993 240.216695 
L 495.457993 334.783305 
L 520.98061 334.783305 
L 537.995687 334.783305 
L 555.010765 334.783305 
L 572.025843 334.783305 
L 589.04092 334.783305 
L 606.055998 334.783305 
L 623.071075 334.783305 
L 640.086153 334.783305 
L 657.101231 334.783305 
L 674.116308 334.783305 
L 691.131386 334.783305 
L 708.146463 334.783305 
L 725.161541 334.783305 
L 742.176619 334.783305 
L 759.191696 334.783305 
L 776.206774 334.783305 
L 793.221851 334.783305 
L 810.236929 334.783305 
L 835.759545 334.783305 
L 835.759545 240.216695 
L 835.759545 240.216695 
L 810.236929 240.216695 
L 793.221851 240.216695 
L 776.206774 240.216695 
L 759.191696 240.216695 
L 742.176619 240.216695 
L 725.161541 240.216695 
L 708.146463 240.216695 
L 691.131386 240.216695 
L 674.116308 240.216695 
L 657.101231 240.216695 
L 640.086153 240.216695 
L 623.071075 240.216695 
L 606.055998 240.216695 
L 589.04092 240.216695 
L 572.025843 240.216695 
L 555.010765 240.216695 
L 537.995687 240.216695 
L 520.98061 240.216695 
L 495.457993 240.216695 
z
" clip-path="url(#p221eab735f)" style="fill: #1f77b4; fill-opacity: 0.25"/>
   </g>
   <g id="matplotlib.axis_3">
    <g id="xtick_6">
     <g id="line2d_17">
      <g>
       <use xlink:href="#m5aec1ad5b7" x="486.950455" y="549.56" style="stroke: #000000; stroke-width: 0.8"/>
      </g>
     </g>
     <g id="text_16">
      <!-- 0 -->
      <g transform="translate(484.450455 563.435) scale(0.1 -0.1)">
       <use xlink:href="#SimHei-30"/>
      </g>
     </g>
    </g>
    <g id="xtick_7">
     <g id="line2d_18">
      <g>
       <use xlink:href="#m5aec1ad5b7" x="572.025843" y="549.56" style="stroke: #000000; stroke-width: 0.8"/>
      </g>
     </g>
     <g id="text_17">
      <!-- 5 -->
      <g transform="translate(569.525843 563.435) scale(0.1 -0.1)">
       <use xlink:href="#SimHei-35"/>
      </g>
     </g>
    </g>
    <g id="xtick_8">
     <g id="line2d_19">
      <g>
       <use xlink:href="#m5aec1ad5b7" x="657.101231" y="549.56" style="stroke: #000000; stroke-width: 0.8"/>
      </g>
     </g>
     <g id="text_18">
      <!-- 10 -->
      <g transform="translate(652.101231 563.435) scale(0.1 -0.1)">
       <use xlink:href="#SimHei-31"/>
       <use xlink:href="#SimHei-30" x="50"/>
      </g>
     </g>
    </g>
    <g id="xtick_9">
     <g id="line2d_20">
      <g>
       <use xlink:href="#m5aec1ad5b7" x="742.176619" y="549.56" style="stroke: #000000; stroke-width: 0.8"/>
      </g>
     </g>
     <g id="text_19">
      <!-- 15 -->
      <g transform="translate(737.176619 563.435) scale(0.1 -0.1)">
       <use xlink:href="#SimHei-31"/>
       <use xlink:href="#SimHei-35" x="50"/>
      </g>
     </g>
    </g>
    <g id="xtick_10">
     <g id="line2d_21">
      <g>
       <use xlink:href="#m5aec1ad5b7" x="827.252007" y="549.56" style="stroke: #000000; stroke-width: 0.8"/>
      </g>
     </g>
     <g id="text_20">
      <!-- 20 -->
      <g transform="translate(822.252007 563.435) scale(0.1 -0.1)">
       <use xlink:href="#SimHei-32"/>
       <use xlink:href="#SimHei-30" x="50"/>
      </g>
     </g>
    </g>
   </g>
   <g id="matplotlib.axis_4">
    <g id="ytick_10">
     <g id="line2d_22">
      <g>
       <use xlink:href="#m28c121b545" x="469.51" y="549.56" style="stroke: #000000; stroke-width: 0.8"/>
      </g>
     </g>
     <g id="text_21">
      <!-- -1.00 -->
      <g transform="translate(437.51 552.9975) scale(0.1 -0.1)">
       <use xlink:href="#SimHei-2d"/>
       <use xlink:href="#SimHei-31" x="50"/>
       <use xlink:href="#SimHei-2e" x="100"/>
       <use xlink:href="#SimHei-30" x="150"/>
       <use xlink:href="#SimHei-30" x="200"/>
      </g>
     </g>
    </g>
    <g id="ytick_11">
     <g id="line2d_23">
      <g>
       <use xlink:href="#m28c121b545" x="469.51" y="484.045" style="stroke: #000000; stroke-width: 0.8"/>
      </g>
     </g>
     <g id="text_22">
      <!-- -0.75 -->
      <g transform="translate(437.51 487.4825) scale(0.1 -0.1)">
       <use xlink:href="#SimHei-2d"/>
       <use xlink:href="#SimHei-30" x="50"/>
       <use xlink:href="#SimHei-2e" x="100"/>
       <use xlink:href="#SimHei-37" x="150"/>
       <use xlink:href="#SimHei-35" x="200"/>
      </g>
     </g>
    </g>
    <g id="ytick_12">
     <g id="line2d_24">
      <g>
       <use xlink:href="#m28c121b545" x="469.51" y="418.53" style="stroke: #000000; stroke-width: 0.8"/>
      </g>
     </g>
     <g id="text_23">
      <!-- -0.50 -->
      <g transform="translate(437.51 421.9675) scale(0.1 -0.1)">
       <use xlink:href="#SimHei-2d"/>
       <use xlink:href="#SimHei-30" x="50"/>
       <use xlink:href="#SimHei-2e" x="100"/>
       <use xlink:href="#SimHei-35" x="150"/>
       <use xlink:href="#SimHei-30" x="200"/>
      </g>
     </g>
    </g>
    <g id="ytick_13">
     <g id="line2d_25">
      <g>
       <use xlink:href="#m28c121b545" x="469.51" y="353.015" style="stroke: #000000; stroke-width: 0.8"/>
      </g>
     </g>
     <g id="text_24">
      <!-- -0.25 -->
      <g transform="translate(437.51 356.4525) scale(0.1 -0.1)">
       <use xlink:href="#SimHei-2d"/>
       <use xlink:href="#SimHei-30" x="50"/>
       <use xlink:href="#SimHei-2e" x="100"/>
       <use xlink:href="#SimHei-32" x="150"/>
       <use xlink:href="#SimHei-35" x="200"/>
      </g>
     </g>
    </g>
    <g id="ytick_14">
     <g id="line2d_26">
      <g>
       <use xlink:href="#m28c121b545" x="469.51" y="287.5" style="stroke: #000000; stroke-width: 0.8"/>
      </g>
     </g>
     <g id="text_25">
      <!-- 0.00 -->
      <g transform="translate(442.51 290.9375) scale(0.1 -0.1)">
       <use xlink:href="#SimHei-30"/>
       <use xlink:href="#SimHei-2e" x="50"/>
       <use xlink:href="#SimHei-30" x="100"/>
       <use xlink:href="#SimHei-30" x="150"/>
      </g>
     </g>
    </g>
    <g id="ytick_15">
     <g id="line2d_27">
      <g>
       <use xlink:href="#m28c121b545" x="469.51" y="221.985" style="stroke: #000000; stroke-width: 0.8"/>
      </g>
     </g>
     <g id="text_26">
      <!-- 0.25 -->
      <g transform="translate(442.51 225.4225) scale(0.1 -0.1)">
       <use xlink:href="#SimHei-30"/>
       <use xlink:href="#SimHei-2e" x="50"/>
       <use xlink:href="#SimHei-32" x="100"/>
       <use xlink:href="#SimHei-35" x="150"/>
      </g>
     </g>
    </g>
    <g id="ytick_16">
     <g id="line2d_28">
      <g>
       <use xlink:href="#m28c121b545" x="469.51" y="156.47" style="stroke: #000000; stroke-width: 0.8"/>
      </g>
     </g>
     <g id="text_27">
      <!-- 0.50 -->
      <g transform="translate(442.51 159.9075) scale(0.1 -0.1)">
       <use xlink:href="#SimHei-30"/>
       <use xlink:href="#SimHei-2e" x="50"/>
       <use xlink:href="#SimHei-35" x="100"/>
       <use xlink:href="#SimHei-30" x="150"/>
      </g>
     </g>
    </g>
    <g id="ytick_17">
     <g id="line2d_29">
      <g>
       <use xlink:href="#m28c121b545" x="469.51" y="90.955" style="stroke: #000000; stroke-width: 0.8"/>
      </g>
     </g>
     <g id="text_28">
      <!-- 0.75 -->
      <g transform="translate(442.51 94.3925) scale(0.1 -0.1)">
       <use xlink:href="#SimHei-30"/>
       <use xlink:href="#SimHei-2e" x="50"/>
       <use xlink:href="#SimHei-37" x="100"/>
       <use xlink:href="#SimHei-35" x="150"/>
      </g>
     </g>
    </g>
    <g id="ytick_18">
     <g id="line2d_30">
      <g>
       <use xlink:href="#m28c121b545" x="469.51" y="25.44" style="stroke: #000000; stroke-width: 0.8"/>
      </g>
     </g>
     <g id="text_29">
      <!-- 1.00 -->
      <g transform="translate(442.51 28.8775) scale(0.1 -0.1)">
       <use xlink:href="#SimHei-31"/>
       <use xlink:href="#SimHei-2e" x="50"/>
       <use xlink:href="#SimHei-30" x="100"/>
       <use xlink:href="#SimHei-30" x="150"/>
      </g>
     </g>
    </g>
   </g>
   <g id="LineCollection_2">
    <path d="M 486.950455 287.5 
L 486.950455 25.44 
" clip-path="url(#p221eab735f)" style="fill: none; stroke: #1f77b4; stroke-width: 1.5"/>
    <path d="M 503.965532 287.5 
L 503.965532 337.951691 
" clip-path="url(#p221eab735f)" style="fill: none; stroke: #1f77b4; stroke-width: 1.5"/>
    <path d="M 520.98061 287.5 
L 520.98061 429.5309 
" clip-path="url(#p221eab735f)" style="fill: none; stroke: #1f77b4; stroke-width: 1.5"/>
    <path d="M 537.995687 287.5 
L 537.995687 357.091111 
" clip-path="url(#p221eab735f)" style="fill: none; stroke: #1f77b4; stroke-width: 1.5"/>
    <path d="M 555.010765 287.5 
L 555.010765 359.363381 
" clip-path="url(#p221eab735f)" style="fill: none; stroke: #1f77b4; stroke-width: 1.5"/>
    <path d="M 572.025843 287.5 
L 572.025843 261.087507 
" clip-path="url(#p221eab735f)" style="fill: none; stroke: #1f77b4; stroke-width: 1.5"/>
    <path d="M 589.04092 287.5 
L 589.04092 317.235064 
" clip-path="url(#p221eab735f)" style="fill: none; stroke: #1f77b4; stroke-width: 1.5"/>
    <path d="M 606.055998 287.5 
L 606.055998 276.594793 
" clip-path="url(#p221eab735f)" style="fill: none; stroke: #1f77b4; stroke-width: 1.5"/>
    <path d="M 623.071075 287.5 
L 623.071075 306.320297 
" clip-path="url(#p221eab735f)" style="fill: none; stroke: #1f77b4; stroke-width: 1.5"/>
    <path d="M 640.086153 287.5 
L 640.086153 341.724517 
" clip-path="url(#p221eab735f)" style="fill: none; stroke: #1f77b4; stroke-width: 1.5"/>
    <path d="M 657.101231 287.5 
L 657.101231 277.698178 
" clip-path="url(#p221eab735f)" style="fill: none; stroke: #1f77b4; stroke-width: 1.5"/>
    <path d="M 674.116308 287.5 
L 674.116308 245.862183 
" clip-path="url(#p221eab735f)" style="fill: none; stroke: #1f77b4; stroke-width: 1.5"/>
    <path d="M 691.131386 287.5 
L 691.131386 332.147118 
" clip-path="url(#p221eab735f)" style="fill: none; stroke: #1f77b4; stroke-width: 1.5"/>
    <path d="M 708.146463 287.5 
L 708.146463 300.373772 
" clip-path="url(#p221eab735f)" style="fill: none; stroke: #1f77b4; stroke-width: 1.5"/>
    <path d="M 725.161541 287.5 
L 725.161541 331.949529 
" clip-path="url(#p221eab735f)" style="fill: none; stroke: #1f77b4; stroke-width: 1.5"/>
    <path d="M 742.176619 287.5 
L 742.176619 274.71422 
" clip-path="url(#p221eab735f)" style="fill: none; stroke: #1f77b4; stroke-width: 1.5"/>
    <path d="M 759.191696 287.5 
L 759.191696 301.329768 
" clip-path="url(#p221eab735f)" style="fill: none; stroke: #1f77b4; stroke-width: 1.5"/>
    <path d="M 776.206774 287.5 
L 776.206774 270.14476 
" clip-path="url(#p221eab735f)" style="fill: none; stroke: #1f77b4; stroke-width: 1.5"/>
    <path d="M 793.221851 287.5 
L 793.221851 348.103105 
" clip-path="url(#p221eab735f)" style="fill: none; stroke: #1f77b4; stroke-width: 1.5"/>
    <path d="M 810.236929 287.5 
L 810.236929 278.574784 
" clip-path="url(#p221eab735f)" style="fill: none; stroke: #1f77b4; stroke-width: 1.5"/>
    <path d="M 827.252007 287.5 
L 827.252007 297.953153 
" clip-path="url(#p221eab735f)" style="fill: none; stroke: #1f77b4; stroke-width: 1.5"/>
   </g>
   <g id="line2d_31">
    <path d="M 469.51 287.5 
L 853.2 287.5 
" clip-path="url(#p221eab735f)" style="fill: none; stroke: #1f77b4; stroke-width: 1.5; stroke-linecap: square"/>
   </g>
   <g id="line2d_32">
    <g clip-path="url(#p221eab735f)">
     <use xlink:href="#m8fce206844" x="486.950455" y="25.44" style="fill: #1f77b4; stroke: #1f77b4"/>
     <use xlink:href="#m8fce206844" x="503.965532" y="337.951691" style="fill: #1f77b4; stroke: #1f77b4"/>
     <use xlink:href="#m8fce206844" x="520.98061" y="429.5309" style="fill: #1f77b4; stroke: #1f77b4"/>
     <use xlink:href="#m8fce206844" x="537.995687" y="357.091111" style="fill: #1f77b4; stroke: #1f77b4"/>
     <use xlink:href="#m8fce206844" x="555.010765" y="359.363381" style="fill: #1f77b4; stroke: #1f77b4"/>
     <use xlink:href="#m8fce206844" x="572.025843" y="261.087507" style="fill: #1f77b4; stroke: #1f77b4"/>
     <use xlink:href="#m8fce206844" x="589.04092" y="317.235064" style="fill: #1f77b4; stroke: #1f77b4"/>
     <use xlink:href="#m8fce206844" x="606.055998" y="276.594793" style="fill: #1f77b4; stroke: #1f77b4"/>
     <use xlink:href="#m8fce206844" x="623.071075" y="306.320297" style="fill: #1f77b4; stroke: #1f77b4"/>
     <use xlink:href="#m8fce206844" x="640.086153" y="341.724517" style="fill: #1f77b4; stroke: #1f77b4"/>
     <use xlink:href="#m8fce206844" x="657.101231" y="277.698178" style="fill: #1f77b4; stroke: #1f77b4"/>
     <use xlink:href="#m8fce206844" x="674.116308" y="245.862183" style="fill: #1f77b4; stroke: #1f77b4"/>
     <use xlink:href="#m8fce206844" x="691.131386" y="332.147118" style="fill: #1f77b4; stroke: #1f77b4"/>
     <use xlink:href="#m8fce206844" x="708.146463" y="300.373772" style="fill: #1f77b4; stroke: #1f77b4"/>
     <use xlink:href="#m8fce206844" x="725.161541" y="331.949529" style="fill: #1f77b4; stroke: #1f77b4"/>
     <use xlink:href="#m8fce206844" x="742.176619" y="274.71422" style="fill: #1f77b4; stroke: #1f77b4"/>
     <use xlink:href="#m8fce206844" x="759.191696" y="301.329768" style="fill: #1f77b4; stroke: #1f77b4"/>
     <use xlink:href="#m8fce206844" x="776.206774" y="270.14476" style="fill: #1f77b4; stroke: #1f77b4"/>
     <use xlink:href="#m8fce206844" x="793.221851" y="348.103105" style="fill: #1f77b4; stroke: #1f77b4"/>
     <use xlink:href="#m8fce206844" x="810.236929" y="278.574784" style="fill: #1f77b4; stroke: #1f77b4"/>
     <use xlink:href="#m8fce206844" x="827.252007" y="297.953153" style="fill: #1f77b4; stroke: #1f77b4"/>
    </g>
   </g>
   <g id="patch_8">
    <path d="M 469.51 549.56 
L 469.51 25.44 
" style="fill: none; stroke: #000000; stroke-width: 0.8; stroke-linejoin: miter; stroke-linecap: square"/>
   </g>
   <g id="patch_9">
    <path d="M 853.2 549.56 
L 853.2 25.44 
" style="fill: none; stroke: #000000; stroke-width: 0.8; stroke-linejoin: miter; stroke-linecap: square"/>
   </g>
   <g id="patch_10">
    <path d="M 469.51 549.56 
L 853.2 549.56 
" style="fill: none; stroke: #000000; stroke-width: 0.8; stroke-linejoin: miter; stroke-linecap: square"/>
   </g>
   <g id="patch_11">
    <path d="M 469.51 25.44 
L 853.2 25.44 
" style="fill: none; stroke: #000000; stroke-width: 0.8; stroke-linejoin: miter; stroke-linecap: square"/>
   </g>
   <g id="text_30">
    <!-- MLE PACF -->
    <g transform="translate(637.355 19.44) scale(0.12 -0.12)">
     <defs>
      <path id="SimHei-50" d="M 2950 3100 
Q 2950 2500 2600 2150 
Q 2250 1800 1625 1800 
L 900 1800 
L 900 125 
L 325 125 
L 325 4400 
L 1625 4400 
Q 2250 4400 2600 4050 
Q 2950 3700 2950 3100 
z
M 2375 3100 
Q 2375 3575 2150 3750 
Q 1925 3925 1475 3925 
L 900 3925 
L 900 2275 
L 1475 2275 
Q 1925 2275 2150 2450 
Q 2375 2625 2375 3100 
z
" transform="scale(0.015625)"/>
     </defs>
     <use xlink:href="#SimHei-4d"/>
     <use xlink:href="#SimHei-4c" x="50"/>
     <use xlink:href="#SimHei-45" x="100"/>
     <use xlink:href="#SimHei-20" x="150"/>
     <use xlink:href="#SimHei-50" x="200"/>
     <use xlink:href="#SimHei-41" x="250"/>
     <use xlink:href="#SimHei-43" x="300"/>
     <use xlink:href="#SimHei-46" x="350"/>
    </g>
   </g>
  </g>
 </g>
 <defs>
  <clipPath id="p224f19d412">
   <rect x="42.91" y="25.44" width="383.69" height="524.12"/>
  </clipPath>
  <clipPath id="p221eab735f">
   <rect x="469.51" y="25.44" width="383.69" height="524.12"/>
  </clipPath>
 </defs>
</svg>
