<?xml version="1.0" encoding="utf-8" standalone="no"?>
<!DOCTYPE svg PUBLIC "-//W3C//DTD SVG 1.1//EN"
  "http://www.w3.org/Graphics/SVG/1.1/DTD/svg11.dtd">
<svg xmlns:xlink="http://www.w3.org/1999/xlink" width="720pt" height="432pt" viewBox="0 0 720 432" xmlns="http://www.w3.org/2000/svg" version="1.1">
 <metadata>
  <rdf:RDF xmlns:dc="http://purl.org/dc/elements/1.1/" xmlns:cc="http://creativecommons.org/ns#" xmlns:rdf="http://www.w3.org/1999/02/22-rdf-syntax-ns#">
   <cc:Work>
    <dc:type rdf:resource="http://purl.org/dc/dcmitype/StillImage"/>
    <dc:date>2024-08-17T14:10:51.496824</dc:date>
    <dc:format>image/svg+xml</dc:format>
    <dc:creator>
     <cc:Agent>
      <dc:title>Matplotlib v3.8.0, https://matplotlib.org/</dc:title>
     </cc:Agent>
    </dc:creator>
   </cc:Work>
  </rdf:RDF>
 </metadata>
 <defs>
  <style type="text/css">*{stroke-linejoin: round; stroke-linecap: butt}</style>
 </defs>
 <g id="figure_1">
  <g id="patch_1">
   <path d="M 0 432 
L 720 432 
L 720 0 
L 0 0 
z
" style="fill: #ffffff"/>
  </g>
  <g id="axes_1">
   <g id="patch_2">
    <path d="M 90 384.48 
L 648 384.48 
L 648 51.84 
L 90 51.84 
z
" style="fill: #ffffff"/>
   </g>
   <g id="matplotlib.axis_1">
    <g id="xtick_1">
     <g id="line2d_1">
      <defs>
       <path id="m7437039ac0" d="M 0 0 
L 0 3.5 
" style="stroke: #000000; stroke-width: 0.8"/>
      </defs>
      <g>
       <use xlink:href="#m7437039ac0" x="109.566234" y="384.48" style="stroke: #000000; stroke-width: 0.8"/>
      </g>
     </g>
     <g id="text_1">
      <!-- 0 -->
      <g transform="translate(107.066234 398.355) scale(0.1 -0.1)">
       <defs>
        <path id="SimHei-30" d="M 225 2537 
Q 250 3200 412 3587 
Q 575 3975 875 4225 
Q 1175 4475 1612 4475 
Q 2050 4475 2375 4112 
Q 2700 3750 2800 3200 
Q 2900 2650 2862 1937 
Q 2825 1225 2612 775 
Q 2400 325 1975 150 
Q 1550 -25 1125 187 
Q 700 400 525 750 
Q 350 1100 275 1487 
Q 200 1875 225 2537 
z
M 750 2687 
Q 675 2000 800 1462 
Q 925 925 1212 700 
Q 1500 475 1800 612 
Q 2100 750 2237 1162 
Q 2375 1575 2375 2062 
Q 2375 2550 2337 2950 
Q 2300 3350 2112 3675 
Q 1925 4000 1612 4012 
Q 1300 4025 1062 3700 
Q 825 3375 750 2687 
z
" transform="scale(0.015625)"/>
       </defs>
       <use xlink:href="#SimHei-30"/>
      </g>
     </g>
    </g>
    <g id="xtick_2">
     <g id="line2d_2">
      <g>
       <use xlink:href="#m7437039ac0" x="182.033766" y="384.48" style="stroke: #000000; stroke-width: 0.8"/>
      </g>
     </g>
     <g id="text_2">
      <!-- 25 -->
      <g transform="translate(177.033766 398.355) scale(0.1 -0.1)">
       <defs>
        <path id="SimHei-32" d="M 300 250 
Q 325 625 650 925 
Q 975 1225 1475 1862 
Q 1975 2500 2125 2850 
Q 2275 3200 2237 3450 
Q 2200 3700 2000 3862 
Q 1800 4025 1537 4000 
Q 1275 3975 1037 3800 
Q 800 3625 675 3275 
L 200 3350 
Q 400 3925 712 4187 
Q 1025 4450 1450 4475 
Q 1700 4500 1900 4462 
Q 2100 4425 2312 4287 
Q 2525 4150 2662 3875 
Q 2800 3600 2762 3212 
Q 2725 2825 2375 2287 
Q 2025 1750 1025 600 
L 2825 600 
L 2825 150 
L 300 150 
L 300 250 
z
" transform="scale(0.015625)"/>
        <path id="SimHei-35" d="M 550 1325 
Q 725 650 1150 575 
Q 1575 500 1837 662 
Q 2100 825 2212 1087 
Q 2325 1350 2312 1675 
Q 2300 2000 2137 2225 
Q 1975 2450 1725 2525 
Q 1475 2600 1162 2525 
Q 850 2450 650 2175 
L 225 2225 
Q 275 2375 700 4375 
L 2675 4375 
L 2675 3925 
L 1075 3925 
Q 950 3250 825 2850 
Q 1200 3025 1525 3012 
Q 1850 3000 2150 2862 
Q 2450 2725 2587 2487 
Q 2725 2250 2787 2012 
Q 2850 1775 2837 1500 
Q 2825 1225 2725 937 
Q 2625 650 2425 462 
Q 2225 275 1937 162 
Q 1650 50 1275 75 
Q 900 100 562 350 
Q 225 600 100 1200 
L 550 1325 
z
" transform="scale(0.015625)"/>
       </defs>
       <use xlink:href="#SimHei-32"/>
       <use xlink:href="#SimHei-35" x="50"/>
      </g>
     </g>
    </g>
    <g id="xtick_3">
     <g id="line2d_3">
      <g>
       <use xlink:href="#m7437039ac0" x="254.501299" y="384.48" style="stroke: #000000; stroke-width: 0.8"/>
      </g>
     </g>
     <g id="text_3">
      <!-- 50 -->
      <g transform="translate(249.501299 398.355) scale(0.1 -0.1)">
       <use xlink:href="#SimHei-35"/>
       <use xlink:href="#SimHei-30" x="50"/>
      </g>
     </g>
    </g>
    <g id="xtick_4">
     <g id="line2d_4">
      <g>
       <use xlink:href="#m7437039ac0" x="326.968831" y="384.48" style="stroke: #000000; stroke-width: 0.8"/>
      </g>
     </g>
     <g id="text_4">
      <!-- 75 -->
      <g transform="translate(321.968831 398.355) scale(0.1 -0.1)">
       <defs>
        <path id="SimHei-37" d="M 850 150 
Q 1300 2050 2425 3925 
L 275 3925 
L 275 4375 
L 2950 4375 
L 2950 3950 
Q 1775 2050 1400 150 
L 850 150 
z
" transform="scale(0.015625)"/>
       </defs>
       <use xlink:href="#SimHei-37"/>
       <use xlink:href="#SimHei-35" x="50"/>
      </g>
     </g>
    </g>
    <g id="xtick_5">
     <g id="line2d_5">
      <g>
       <use xlink:href="#m7437039ac0" x="399.436364" y="384.48" style="stroke: #000000; stroke-width: 0.8"/>
      </g>
     </g>
     <g id="text_5">
      <!-- 100 -->
      <g transform="translate(391.936364 398.355) scale(0.1 -0.1)">
       <defs>
        <path id="SimHei-31" d="M 1400 3600 
Q 1075 3275 575 2975 
L 575 3450 
Q 1200 3875 1600 4450 
L 1900 4450 
L 1900 150 
L 1400 150 
L 1400 3600 
z
" transform="scale(0.015625)"/>
       </defs>
       <use xlink:href="#SimHei-31"/>
       <use xlink:href="#SimHei-30" x="50"/>
       <use xlink:href="#SimHei-30" x="100"/>
      </g>
     </g>
    </g>
    <g id="xtick_6">
     <g id="line2d_6">
      <g>
       <use xlink:href="#m7437039ac0" x="471.903896" y="384.48" style="stroke: #000000; stroke-width: 0.8"/>
      </g>
     </g>
     <g id="text_6">
      <!-- 125 -->
      <g transform="translate(464.403896 398.355) scale(0.1 -0.1)">
       <use xlink:href="#SimHei-31"/>
       <use xlink:href="#SimHei-32" x="50"/>
       <use xlink:href="#SimHei-35" x="100"/>
      </g>
     </g>
    </g>
    <g id="xtick_7">
     <g id="line2d_7">
      <g>
       <use xlink:href="#m7437039ac0" x="544.371429" y="384.48" style="stroke: #000000; stroke-width: 0.8"/>
      </g>
     </g>
     <g id="text_7">
      <!-- 150 -->
      <g transform="translate(536.871429 398.355) scale(0.1 -0.1)">
       <use xlink:href="#SimHei-31"/>
       <use xlink:href="#SimHei-35" x="50"/>
       <use xlink:href="#SimHei-30" x="100"/>
      </g>
     </g>
    </g>
    <g id="xtick_8">
     <g id="line2d_8">
      <g>
       <use xlink:href="#m7437039ac0" x="616.838961" y="384.48" style="stroke: #000000; stroke-width: 0.8"/>
      </g>
     </g>
     <g id="text_8">
      <!-- 175 -->
      <g transform="translate(609.338961 398.355) scale(0.1 -0.1)">
       <use xlink:href="#SimHei-31"/>
       <use xlink:href="#SimHei-37" x="50"/>
       <use xlink:href="#SimHei-35" x="100"/>
      </g>
     </g>
    </g>
    <g id="text_9">
     <!-- 周数 -->
     <g transform="translate(359 411.339375) scale(0.1 -0.1)">
      <defs>
       <path id="SimHei-5468" d="M 5600 4925 
Q 5575 4400 5575 3800 
L 5575 50 
Q 5550 -375 5325 -462 
Q 5100 -550 4325 -600 
Q 4300 -400 4125 -75 
Q 4800 -100 4962 -37 
Q 5125 25 5100 225 
L 5100 4525 
L 1500 4525 
Q 1500 2575 1450 1887 
Q 1400 1200 1237 550 
Q 1075 -100 775 -625 
Q 625 -450 275 -225 
Q 650 225 825 1000 
Q 1000 1775 1025 2587 
Q 1050 3400 1000 4925 
L 5600 4925 
z
M 2050 325 
Q 2075 625 2075 950 
L 2075 1400 
Q 2075 1625 2050 1925 
L 4400 1925 
Q 4375 1725 4375 1450 
L 4375 875 
Q 4375 600 4400 325 
L 2050 325 
z
M 3000 3800 
Q 3000 4150 2975 4375 
L 3475 4375 
Q 3450 4075 3450 3800 
Q 4100 3800 4475 3825 
L 4475 3350 
Q 4125 3375 3450 3375 
L 3450 2800 
Q 4200 2800 4825 2825 
L 4825 2350 
Q 4175 2375 3725 2375 
L 2750 2375 
Q 2325 2375 1725 2350 
L 1725 2825 
Q 2325 2800 3000 2800 
L 3000 3375 
Q 2500 3375 1975 3350 
L 1975 3825 
Q 2475 3800 3000 3800 
z
M 3900 725 
L 3900 1525 
L 2550 1525 
L 2550 725 
L 3900 725 
z
" transform="scale(0.015625)"/>
       <path id="SimHei-6570" d="M 4525 4925 
Q 4475 4800 4400 4587 
Q 4325 4375 4175 3825 
L 5325 3825 
Q 5575 3825 5925 3850 
L 5925 3400 
Q 5650 3425 5500 3425 
Q 5500 3025 5362 2162 
Q 5225 1300 4875 675 
Q 5125 375 5437 137 
Q 5750 -100 6025 -200 
Q 5725 -425 5625 -625 
Q 5325 -450 5075 -225 
Q 4825 0 4575 325 
Q 4300 25 3987 -187 
Q 3675 -400 3200 -650 
Q 3075 -425 2850 -300 
Q 3225 -150 3650 125 
Q 4075 400 4300 675 
Q 4125 1025 3962 1425 
Q 3800 1825 3675 2475 
Q 3600 2275 3425 1950 
Q 3250 2050 3000 2150 
Q 3400 2850 3650 3675 
Q 3900 4500 3975 5100 
Q 4275 4975 4525 4925 
z
M 2100 2250 
Q 2000 2150 1875 1925 
L 3250 1925 
Q 3100 1300 2725 675 
Q 3125 525 3350 400 
Q 3225 225 3125 25 
Q 2900 175 2450 325 
Q 1950 -225 725 -650 
Q 600 -375 400 -275 
Q 1575 0 2000 475 
Q 1300 650 850 775 
Q 1000 1000 1250 1525 
Q 1000 1525 425 1500 
L 425 1950 
Q 900 1925 1400 1925 
Q 1500 2150 1550 2425 
Q 1825 2325 2100 2250 
z
M 1775 3950 
Q 1775 4550 1750 5100 
L 2250 5100 
Q 2225 4575 2225 3950 
Q 3075 3950 3425 3975 
L 3425 3525 
Q 3075 3550 2225 3550 
Q 2225 2825 2250 2425 
L 1750 2425 
Q 1775 2775 1775 3300 
Q 1650 3100 1300 2787 
Q 950 2475 650 2300 
Q 525 2525 275 2625 
Q 500 2700 875 2975 
Q 1250 3250 1450 3550 
Q 950 3550 500 3525 
L 500 3975 
Q 925 3950 1775 3950 
z
M 3975 3175 
Q 4200 1700 4600 1125 
Q 4850 1700 4937 2287 
Q 5025 2875 5050 3425 
L 4075 3425 
L 3975 3175 
z
M 1450 1000 
Q 1750 925 2275 800 
Q 2475 1050 2650 1525 
L 1725 1525 
Q 1600 1275 1450 1000 
z
M 3325 4825 
Q 3200 4625 3125 4450 
Q 3050 4275 2925 4025 
Q 2725 4125 2525 4175 
Q 2725 4500 2900 5000 
Q 3150 4875 3325 4825 
z
M 2575 3375 
Q 2900 3050 3200 2725 
Q 3050 2600 2875 2425 
Q 2525 2850 2300 3100 
Q 2450 3225 2575 3375 
z
M 925 5000 
Q 1275 4650 1500 4300 
L 1125 4075 
Q 950 4425 600 4725 
Q 825 4875 925 5000 
z
" transform="scale(0.015625)"/>
      </defs>
      <use xlink:href="#SimHei-5468"/>
      <use xlink:href="#SimHei-6570" x="100"/>
     </g>
    </g>
   </g>
   <g id="matplotlib.axis_2">
    <g id="ytick_1">
     <g id="line2d_9">
      <defs>
       <path id="mabca5b9461" d="M 0 0 
L -3.5 0 
" style="stroke: #000000; stroke-width: 0.8"/>
      </defs>
      <g>
       <use xlink:href="#mabca5b9461" x="90" y="375.531429" style="stroke: #000000; stroke-width: 0.8"/>
      </g>
     </g>
     <g id="text_10">
      <!-- 0 -->
      <g style="fill: #0000ff" transform="translate(78 378.968929) scale(0.1 -0.1)">
       <use xlink:href="#SimHei-30"/>
      </g>
     </g>
    </g>
    <g id="ytick_2">
     <g id="line2d_10">
      <g>
       <use xlink:href="#mabca5b9461" x="90" y="313.817143" style="stroke: #000000; stroke-width: 0.8"/>
      </g>
     </g>
     <g id="text_11">
      <!-- 10 -->
      <g style="fill: #0000ff" transform="translate(73 317.254643) scale(0.1 -0.1)">
       <use xlink:href="#SimHei-31"/>
       <use xlink:href="#SimHei-30" x="50"/>
      </g>
     </g>
    </g>
    <g id="ytick_3">
     <g id="line2d_11">
      <g>
       <use xlink:href="#mabca5b9461" x="90" y="252.102857" style="stroke: #000000; stroke-width: 0.8"/>
      </g>
     </g>
     <g id="text_12">
      <!-- 20 -->
      <g style="fill: #0000ff" transform="translate(73 255.540357) scale(0.1 -0.1)">
       <use xlink:href="#SimHei-32"/>
       <use xlink:href="#SimHei-30" x="50"/>
      </g>
     </g>
    </g>
    <g id="ytick_4">
     <g id="line2d_12">
      <g>
       <use xlink:href="#mabca5b9461" x="90" y="190.388571" style="stroke: #000000; stroke-width: 0.8"/>
      </g>
     </g>
     <g id="text_13">
      <!-- 30 -->
      <g style="fill: #0000ff" transform="translate(73 193.826071) scale(0.1 -0.1)">
       <defs>
        <path id="SimHei-33" d="M 250 1225 
L 700 1300 
Q 800 975 1025 762 
Q 1250 550 1587 562 
Q 1925 575 2125 837 
Q 2325 1100 2300 1437 
Q 2275 1775 2037 1962 
Q 1800 2150 1275 2225 
L 1275 2550 
Q 1800 2600 2037 2825 
Q 2275 3050 2250 3412 
Q 2225 3775 1925 3937 
Q 1625 4100 1287 3975 
Q 950 3850 750 3275 
L 300 3350 
Q 450 3800 712 4100 
Q 975 4400 1425 4450 
Q 1875 4500 2212 4337 
Q 2550 4175 2687 3837 
Q 2825 3500 2725 3100 
Q 2625 2700 2150 2400 
Q 2500 2250 2687 1950 
Q 2875 1650 2812 1162 
Q 2750 675 2375 375 
Q 2000 75 1525 87 
Q 1050 100 700 387 
Q 350 675 250 1225 
z
" transform="scale(0.015625)"/>
       </defs>
       <use xlink:href="#SimHei-33"/>
       <use xlink:href="#SimHei-30" x="50"/>
      </g>
     </g>
    </g>
    <g id="ytick_5">
     <g id="line2d_13">
      <g>
       <use xlink:href="#mabca5b9461" x="90" y="128.674286" style="stroke: #000000; stroke-width: 0.8"/>
      </g>
     </g>
     <g id="text_14">
      <!-- 40 -->
      <g style="fill: #0000ff" transform="translate(73 132.111786) scale(0.1 -0.1)">
       <defs>
        <path id="SimHei-34" d="M 2000 1100 
L 75 1100 
L 75 1525 
L 2100 4450 
L 2475 4450 
L 2475 1525 
L 3075 1525 
L 3075 1100 
L 2475 1100 
L 2475 150 
L 2000 150 
L 2000 1100 
z
M 2000 1525 
L 2000 3500 
L 600 1525 
L 2000 1525 
z
" transform="scale(0.015625)"/>
       </defs>
       <use xlink:href="#SimHei-34"/>
       <use xlink:href="#SimHei-30" x="50"/>
      </g>
     </g>
    </g>
    <g id="ytick_6">
     <g id="line2d_14">
      <g>
       <use xlink:href="#mabca5b9461" x="90" y="66.96" style="stroke: #000000; stroke-width: 0.8"/>
      </g>
     </g>
     <g id="text_15">
      <!-- 50 -->
      <g style="fill: #0000ff" transform="translate(73 70.3975) scale(0.1 -0.1)">
       <use xlink:href="#SimHei-35"/>
       <use xlink:href="#SimHei-30" x="50"/>
      </g>
     </g>
    </g>
    <g id="text_16">
     <!-- 需求量 -->
     <g style="fill: #0000ff" transform="translate(67.75 233.16) rotate(-90) scale(0.1 -0.1)">
      <defs>
       <path id="SimHei-9700" d="M 5150 2100 
Q 5500 2100 5975 2125 
L 5975 1700 
Q 5500 1725 5150 1725 
L 3425 1725 
Q 3300 1500 3250 1275 
L 5600 1275 
Q 5575 950 5575 700 
L 5575 -50 
Q 5575 -350 5425 -437 
Q 5275 -525 4775 -625 
Q 4750 -400 4550 -100 
Q 4950 -100 5025 -50 
Q 5100 0 5100 200 
L 5100 900 
L 4125 900 
L 4125 -375 
L 3650 -375 
L 3650 900 
L 2775 900 
L 2775 -375 
L 2300 -375 
L 2300 900 
L 1350 900 
L 1350 -575 
L 875 -575 
Q 900 -225 900 175 
L 900 575 
Q 900 900 875 1275 
L 2800 1275 
Q 2875 1500 2925 1725 
L 1350 1725 
Q 925 1725 525 1700 
L 525 2125 
Q 900 2100 1325 2100 
L 5150 2100 
z
M 4700 5075 
Q 5075 5075 5550 5100 
L 5550 4675 
Q 5075 4700 4700 4700 
L 3475 4700 
L 3475 4275 
L 5975 4275 
L 5975 3100 
L 5500 3100 
L 5500 3900 
L 3475 3900 
L 3475 3200 
Q 3475 2775 3500 2425 
L 2975 2425 
Q 3000 2750 3000 3175 
L 3000 3900 
L 950 3900 
L 950 3100 
L 450 3100 
Q 450 3375 462 3650 
Q 475 3925 450 4275 
L 3000 4275 
L 3000 4700 
L 1775 4700 
Q 1400 4700 1025 4675 
L 1025 5100 
Q 1400 5075 1750 5075 
L 4700 5075 
z
M 2475 2450 
L 1250 2450 
L 1250 2800 
L 2475 2800 
L 2475 2450 
z
M 2500 3150 
L 1325 3150 
L 1325 3500 
L 2500 3500 
L 2500 3150 
z
M 5000 3175 
L 3825 3175 
L 3825 3525 
L 5000 3525 
L 5000 3175 
z
M 5025 2500 
L 3850 2500 
L 3850 2850 
L 5025 2850 
L 5025 2500 
z
" transform="scale(0.015625)"/>
       <path id="SimHei-6c42" d="M 475 4025 
Q 875 4000 1325 4000 
L 2875 4000 
Q 2875 4725 2850 5125 
L 3400 5125 
Q 3375 4725 3375 4000 
L 5150 4000 
Q 5500 4000 5925 4025 
L 5925 3575 
Q 5475 3600 5150 3600 
L 3375 3600 
Q 3400 3200 3612 2750 
Q 3825 2300 4050 2000 
Q 4600 2450 5075 3150 
Q 5250 2950 5575 2750 
Q 5275 2600 4250 1650 
Q 4575 1225 5037 850 
Q 5500 475 6050 325 
Q 5700 125 5550 -150 
Q 5000 150 4437 687 
Q 3875 1225 3375 2375 
L 3375 150 
Q 3400 -225 3137 -350 
Q 2875 -475 2375 -525 
Q 2325 -275 2150 25 
Q 2575 0 2737 37 
Q 2900 75 2875 300 
L 2875 1675 
Q 1875 900 1437 550 
Q 1000 200 725 -50 
Q 500 200 300 400 
Q 650 575 1200 937 
Q 1750 1300 2875 2250 
L 2875 3600 
L 1325 3600 
Q 875 3600 475 3575 
L 475 4025 
z
M 1225 3175 
Q 1775 2725 2250 2325 
L 1825 1950 
Q 1450 2375 825 2825 
L 1225 3175 
z
M 4500 5100 
Q 4900 4825 5300 4425 
Q 5125 4300 4925 4100 
Q 4650 4400 4125 4825 
Q 4275 4950 4500 5100 
z
" transform="scale(0.015625)"/>
       <path id="SimHei-91cf" d="M 5250 2500 
Q 5225 2200 5225 1700 
Q 5225 1225 5250 950 
L 3425 950 
L 3425 625 
L 4575 625 
Q 5000 625 5375 650 
L 5375 275 
Q 5025 300 4575 300 
L 3425 300 
L 3425 -75 
L 5125 -75 
Q 5525 -75 5925 -50 
L 5925 -425 
Q 5525 -400 5125 -400 
L 1275 -400 
Q 900 -400 475 -425 
L 475 -50 
Q 925 -50 1275 -75 
L 2975 -75 
L 2975 300 
L 1725 300 
Q 1350 300 975 250 
L 975 650 
Q 1375 625 1725 625 
L 2975 625 
L 2975 950 
L 1150 950 
Q 1175 1375 1175 1775 
Q 1175 2175 1150 2500 
L 5250 2500 
z
M 5200 4950 
Q 5175 4575 5175 4250 
Q 5175 3925 5200 3400 
L 1200 3400 
Q 1225 3925 1225 4250 
Q 1225 4575 1200 4950 
L 5200 4950 
z
M 4900 3100 
Q 5500 3125 6000 3150 
L 6000 2750 
Q 5500 2775 4925 2775 
L 1650 2775 
Q 975 2775 325 2750 
L 325 3150 
Q 975 3125 1650 3100 
L 4900 3100 
z
M 4725 3700 
L 4725 4025 
L 1675 4025 
L 1675 3700 
L 4725 3700 
z
M 4725 4350 
L 4725 4650 
L 1675 4650 
L 1675 4350 
L 4725 4350 
z
M 4750 1875 
L 4750 2175 
L 3425 2175 
L 3425 1875 
L 4750 1875 
z
M 2975 1875 
L 2975 2175 
L 1650 2175 
L 1650 1875 
L 2975 1875 
z
M 2975 1275 
L 2975 1550 
L 1650 1550 
L 1650 1275 
L 2975 1275 
z
M 4750 1275 
L 4750 1550 
L 3425 1550 
L 3425 1275 
L 4750 1275 
z
" transform="scale(0.015625)"/>
      </defs>
      <use xlink:href="#SimHei-9700"/>
      <use xlink:href="#SimHei-6c42" x="100"/>
      <use xlink:href="#SimHei-91cf" x="200"/>
     </g>
    </g>
   </g>
   <g id="line2d_15">
    <path d="M 115.363636 357.017143 
L 118.262338 350.845714 
L 121.161039 350.845714 
L 135.654545 332.331429 
L 138.553247 357.017143 
L 141.451948 363.188571 
L 144.350649 338.502857 
L 147.249351 350.845714 
L 153.046753 344.674286 
L 155.945455 363.188571 
L 170.438961 363.188571 
L 176.236364 363.188571 
L 179.135065 363.188571 
L 184.932468 338.502857 
L 190.72987 363.188571 
L 196.527273 276.788571 
L 199.425974 363.188571 
L 202.324675 363.188571 
L 205.223377 344.674286 
L 211.020779 363.188571 
L 216.818182 350.845714 
L 219.716883 363.188571 
L 222.615584 326.16 
L 225.514286 332.331429 
L 228.412987 350.845714 
L 231.311688 357.017143 
L 234.21039 357.017143 
L 237.109091 363.188571 
L 242.906494 350.845714 
L 245.805195 357.017143 
L 248.703896 350.845714 
L 251.602597 344.674286 
L 254.501299 252.102857 
L 257.4 319.988571 
L 260.298701 313.817143 
L 263.197403 350.845714 
L 266.096104 332.331429 
L 268.994805 326.16 
L 289.285714 332.331429 
L 292.184416 313.817143 
L 295.083117 307.645714 
L 297.981818 363.188571 
L 300.880519 363.188571 
L 303.779221 363.188571 
L 306.677922 350.845714 
L 309.576623 332.331429 
L 315.374026 350.845714 
L 321.171429 363.188571 
L 324.07013 363.188571 
L 326.968831 363.188571 
L 332.766234 344.674286 
L 341.462338 363.188571 
L 344.361039 363.188571 
L 350.158442 344.674286 
L 353.057143 350.845714 
L 355.955844 363.188571 
L 358.854545 307.645714 
L 361.753247 319.988571 
L 364.651948 363.188571 
L 367.550649 357.017143 
L 370.449351 282.96 
L 373.348052 350.845714 
L 376.246753 357.017143 
L 379.145455 344.674286 
L 382.044156 338.502857 
L 384.942857 350.845714 
L 387.841558 350.845714 
L 390.74026 350.845714 
L 393.638961 363.188571 
L 399.436364 338.502857 
L 402.335065 338.502857 
L 405.233766 363.188571 
L 408.132468 344.674286 
L 416.828571 363.188571 
L 419.727273 326.16 
L 422.625974 357.017143 
L 425.524675 338.502857 
L 428.423377 344.674286 
L 437.119481 344.674286 
L 440.018182 332.331429 
L 442.916883 363.188571 
L 445.815584 363.188571 
L 454.511688 326.16 
L 457.41039 363.188571 
L 460.309091 350.845714 
L 463.207792 369.36 
L 466.106494 350.845714 
L 471.903896 344.674286 
L 477.701299 363.188571 
L 483.498701 363.188571 
L 486.397403 363.188571 
L 489.296104 363.188571 
L 492.194805 363.188571 
L 497.992208 326.16 
L 500.890909 363.188571 
L 503.78961 363.188571 
L 506.688312 332.331429 
L 509.587013 338.502857 
L 512.485714 233.588571 
L 515.384416 91.645714 
L 518.283117 326.16 
L 521.181818 252.102857 
L 524.080519 66.96 
L 526.979221 338.502857 
L 529.877922 350.845714 
L 535.675325 252.102857 
L 538.574026 363.188571 
L 541.472727 326.16 
L 544.371429 350.845714 
L 547.27013 363.188571 
L 550.168831 338.502857 
L 553.067532 245.931429 
L 555.966234 313.817143 
L 558.864935 350.845714 
L 564.662338 363.188571 
L 567.561039 350.845714 
L 570.45974 363.188571 
L 584.953247 350.845714 
L 587.851948 338.502857 
L 590.750649 350.845714 
L 593.649351 350.845714 
L 596.548052 363.188571 
L 605.244156 350.845714 
L 611.041558 363.188571 
L 619.737662 338.502857 
L 622.636364 338.502857 
" clip-path="url(#pab0e9709b5)" style="fill: none; stroke: #0000ff; stroke-width: 1.5; stroke-linecap: square"/>
    <defs>
     <path id="m96dabe80fb" d="M 0 3 
C 0.795609 3 1.55874 2.683901 2.12132 2.12132 
C 2.683901 1.55874 3 0.795609 3 0 
C 3 -0.795609 2.683901 -1.55874 2.12132 -2.12132 
C 1.55874 -2.683901 0.795609 -3 0 -3 
C -0.795609 -3 -1.55874 -2.683901 -2.12132 -2.12132 
C -2.683901 -1.55874 -3 -0.795609 -3 0 
C -3 0.795609 -2.683901 1.55874 -2.12132 2.12132 
C -1.55874 2.683901 -0.795609 3 0 3 
z
" style="stroke: #0000ff"/>
    </defs>
    <g clip-path="url(#pab0e9709b5)">
     <use xlink:href="#m96dabe80fb" x="115.363636" y="357.017143" style="fill: #0000ff; stroke: #0000ff"/>
     <use xlink:href="#m96dabe80fb" x="118.262338" y="350.845714" style="fill: #0000ff; stroke: #0000ff"/>
     <use xlink:href="#m96dabe80fb" x="121.161039" y="350.845714" style="fill: #0000ff; stroke: #0000ff"/>
     <use xlink:href="#m96dabe80fb" x="135.654545" y="332.331429" style="fill: #0000ff; stroke: #0000ff"/>
     <use xlink:href="#m96dabe80fb" x="138.553247" y="357.017143" style="fill: #0000ff; stroke: #0000ff"/>
     <use xlink:href="#m96dabe80fb" x="141.451948" y="363.188571" style="fill: #0000ff; stroke: #0000ff"/>
     <use xlink:href="#m96dabe80fb" x="144.350649" y="338.502857" style="fill: #0000ff; stroke: #0000ff"/>
     <use xlink:href="#m96dabe80fb" x="147.249351" y="350.845714" style="fill: #0000ff; stroke: #0000ff"/>
     <use xlink:href="#m96dabe80fb" x="153.046753" y="344.674286" style="fill: #0000ff; stroke: #0000ff"/>
     <use xlink:href="#m96dabe80fb" x="155.945455" y="363.188571" style="fill: #0000ff; stroke: #0000ff"/>
     <use xlink:href="#m96dabe80fb" x="170.438961" y="363.188571" style="fill: #0000ff; stroke: #0000ff"/>
     <use xlink:href="#m96dabe80fb" x="176.236364" y="363.188571" style="fill: #0000ff; stroke: #0000ff"/>
     <use xlink:href="#m96dabe80fb" x="179.135065" y="363.188571" style="fill: #0000ff; stroke: #0000ff"/>
     <use xlink:href="#m96dabe80fb" x="184.932468" y="338.502857" style="fill: #0000ff; stroke: #0000ff"/>
     <use xlink:href="#m96dabe80fb" x="190.72987" y="363.188571" style="fill: #0000ff; stroke: #0000ff"/>
     <use xlink:href="#m96dabe80fb" x="196.527273" y="276.788571" style="fill: #0000ff; stroke: #0000ff"/>
     <use xlink:href="#m96dabe80fb" x="199.425974" y="363.188571" style="fill: #0000ff; stroke: #0000ff"/>
     <use xlink:href="#m96dabe80fb" x="202.324675" y="363.188571" style="fill: #0000ff; stroke: #0000ff"/>
     <use xlink:href="#m96dabe80fb" x="205.223377" y="344.674286" style="fill: #0000ff; stroke: #0000ff"/>
     <use xlink:href="#m96dabe80fb" x="211.020779" y="363.188571" style="fill: #0000ff; stroke: #0000ff"/>
     <use xlink:href="#m96dabe80fb" x="216.818182" y="350.845714" style="fill: #0000ff; stroke: #0000ff"/>
     <use xlink:href="#m96dabe80fb" x="219.716883" y="363.188571" style="fill: #0000ff; stroke: #0000ff"/>
     <use xlink:href="#m96dabe80fb" x="222.615584" y="326.16" style="fill: #0000ff; stroke: #0000ff"/>
     <use xlink:href="#m96dabe80fb" x="225.514286" y="332.331429" style="fill: #0000ff; stroke: #0000ff"/>
     <use xlink:href="#m96dabe80fb" x="228.412987" y="350.845714" style="fill: #0000ff; stroke: #0000ff"/>
     <use xlink:href="#m96dabe80fb" x="231.311688" y="357.017143" style="fill: #0000ff; stroke: #0000ff"/>
     <use xlink:href="#m96dabe80fb" x="234.21039" y="357.017143" style="fill: #0000ff; stroke: #0000ff"/>
     <use xlink:href="#m96dabe80fb" x="237.109091" y="363.188571" style="fill: #0000ff; stroke: #0000ff"/>
     <use xlink:href="#m96dabe80fb" x="242.906494" y="350.845714" style="fill: #0000ff; stroke: #0000ff"/>
     <use xlink:href="#m96dabe80fb" x="245.805195" y="357.017143" style="fill: #0000ff; stroke: #0000ff"/>
     <use xlink:href="#m96dabe80fb" x="248.703896" y="350.845714" style="fill: #0000ff; stroke: #0000ff"/>
     <use xlink:href="#m96dabe80fb" x="251.602597" y="344.674286" style="fill: #0000ff; stroke: #0000ff"/>
     <use xlink:href="#m96dabe80fb" x="254.501299" y="252.102857" style="fill: #0000ff; stroke: #0000ff"/>
     <use xlink:href="#m96dabe80fb" x="257.4" y="319.988571" style="fill: #0000ff; stroke: #0000ff"/>
     <use xlink:href="#m96dabe80fb" x="260.298701" y="313.817143" style="fill: #0000ff; stroke: #0000ff"/>
     <use xlink:href="#m96dabe80fb" x="263.197403" y="350.845714" style="fill: #0000ff; stroke: #0000ff"/>
     <use xlink:href="#m96dabe80fb" x="266.096104" y="332.331429" style="fill: #0000ff; stroke: #0000ff"/>
     <use xlink:href="#m96dabe80fb" x="268.994805" y="326.16" style="fill: #0000ff; stroke: #0000ff"/>
     <use xlink:href="#m96dabe80fb" x="289.285714" y="332.331429" style="fill: #0000ff; stroke: #0000ff"/>
     <use xlink:href="#m96dabe80fb" x="292.184416" y="313.817143" style="fill: #0000ff; stroke: #0000ff"/>
     <use xlink:href="#m96dabe80fb" x="295.083117" y="307.645714" style="fill: #0000ff; stroke: #0000ff"/>
     <use xlink:href="#m96dabe80fb" x="297.981818" y="363.188571" style="fill: #0000ff; stroke: #0000ff"/>
     <use xlink:href="#m96dabe80fb" x="300.880519" y="363.188571" style="fill: #0000ff; stroke: #0000ff"/>
     <use xlink:href="#m96dabe80fb" x="303.779221" y="363.188571" style="fill: #0000ff; stroke: #0000ff"/>
     <use xlink:href="#m96dabe80fb" x="306.677922" y="350.845714" style="fill: #0000ff; stroke: #0000ff"/>
     <use xlink:href="#m96dabe80fb" x="309.576623" y="332.331429" style="fill: #0000ff; stroke: #0000ff"/>
     <use xlink:href="#m96dabe80fb" x="315.374026" y="350.845714" style="fill: #0000ff; stroke: #0000ff"/>
     <use xlink:href="#m96dabe80fb" x="321.171429" y="363.188571" style="fill: #0000ff; stroke: #0000ff"/>
     <use xlink:href="#m96dabe80fb" x="324.07013" y="363.188571" style="fill: #0000ff; stroke: #0000ff"/>
     <use xlink:href="#m96dabe80fb" x="326.968831" y="363.188571" style="fill: #0000ff; stroke: #0000ff"/>
     <use xlink:href="#m96dabe80fb" x="332.766234" y="344.674286" style="fill: #0000ff; stroke: #0000ff"/>
     <use xlink:href="#m96dabe80fb" x="341.462338" y="363.188571" style="fill: #0000ff; stroke: #0000ff"/>
     <use xlink:href="#m96dabe80fb" x="344.361039" y="363.188571" style="fill: #0000ff; stroke: #0000ff"/>
     <use xlink:href="#m96dabe80fb" x="350.158442" y="344.674286" style="fill: #0000ff; stroke: #0000ff"/>
     <use xlink:href="#m96dabe80fb" x="353.057143" y="350.845714" style="fill: #0000ff; stroke: #0000ff"/>
     <use xlink:href="#m96dabe80fb" x="355.955844" y="363.188571" style="fill: #0000ff; stroke: #0000ff"/>
     <use xlink:href="#m96dabe80fb" x="358.854545" y="307.645714" style="fill: #0000ff; stroke: #0000ff"/>
     <use xlink:href="#m96dabe80fb" x="361.753247" y="319.988571" style="fill: #0000ff; stroke: #0000ff"/>
     <use xlink:href="#m96dabe80fb" x="364.651948" y="363.188571" style="fill: #0000ff; stroke: #0000ff"/>
     <use xlink:href="#m96dabe80fb" x="367.550649" y="357.017143" style="fill: #0000ff; stroke: #0000ff"/>
     <use xlink:href="#m96dabe80fb" x="370.449351" y="282.96" style="fill: #0000ff; stroke: #0000ff"/>
     <use xlink:href="#m96dabe80fb" x="373.348052" y="350.845714" style="fill: #0000ff; stroke: #0000ff"/>
     <use xlink:href="#m96dabe80fb" x="376.246753" y="357.017143" style="fill: #0000ff; stroke: #0000ff"/>
     <use xlink:href="#m96dabe80fb" x="379.145455" y="344.674286" style="fill: #0000ff; stroke: #0000ff"/>
     <use xlink:href="#m96dabe80fb" x="382.044156" y="338.502857" style="fill: #0000ff; stroke: #0000ff"/>
     <use xlink:href="#m96dabe80fb" x="384.942857" y="350.845714" style="fill: #0000ff; stroke: #0000ff"/>
     <use xlink:href="#m96dabe80fb" x="387.841558" y="350.845714" style="fill: #0000ff; stroke: #0000ff"/>
     <use xlink:href="#m96dabe80fb" x="390.74026" y="350.845714" style="fill: #0000ff; stroke: #0000ff"/>
     <use xlink:href="#m96dabe80fb" x="393.638961" y="363.188571" style="fill: #0000ff; stroke: #0000ff"/>
     <use xlink:href="#m96dabe80fb" x="399.436364" y="338.502857" style="fill: #0000ff; stroke: #0000ff"/>
     <use xlink:href="#m96dabe80fb" x="402.335065" y="338.502857" style="fill: #0000ff; stroke: #0000ff"/>
     <use xlink:href="#m96dabe80fb" x="405.233766" y="363.188571" style="fill: #0000ff; stroke: #0000ff"/>
     <use xlink:href="#m96dabe80fb" x="408.132468" y="344.674286" style="fill: #0000ff; stroke: #0000ff"/>
     <use xlink:href="#m96dabe80fb" x="416.828571" y="363.188571" style="fill: #0000ff; stroke: #0000ff"/>
     <use xlink:href="#m96dabe80fb" x="419.727273" y="326.16" style="fill: #0000ff; stroke: #0000ff"/>
     <use xlink:href="#m96dabe80fb" x="422.625974" y="357.017143" style="fill: #0000ff; stroke: #0000ff"/>
     <use xlink:href="#m96dabe80fb" x="425.524675" y="338.502857" style="fill: #0000ff; stroke: #0000ff"/>
     <use xlink:href="#m96dabe80fb" x="428.423377" y="344.674286" style="fill: #0000ff; stroke: #0000ff"/>
     <use xlink:href="#m96dabe80fb" x="437.119481" y="344.674286" style="fill: #0000ff; stroke: #0000ff"/>
     <use xlink:href="#m96dabe80fb" x="440.018182" y="332.331429" style="fill: #0000ff; stroke: #0000ff"/>
     <use xlink:href="#m96dabe80fb" x="442.916883" y="363.188571" style="fill: #0000ff; stroke: #0000ff"/>
     <use xlink:href="#m96dabe80fb" x="445.815584" y="363.188571" style="fill: #0000ff; stroke: #0000ff"/>
     <use xlink:href="#m96dabe80fb" x="454.511688" y="326.16" style="fill: #0000ff; stroke: #0000ff"/>
     <use xlink:href="#m96dabe80fb" x="457.41039" y="363.188571" style="fill: #0000ff; stroke: #0000ff"/>
     <use xlink:href="#m96dabe80fb" x="460.309091" y="350.845714" style="fill: #0000ff; stroke: #0000ff"/>
     <use xlink:href="#m96dabe80fb" x="463.207792" y="369.36" style="fill: #0000ff; stroke: #0000ff"/>
     <use xlink:href="#m96dabe80fb" x="466.106494" y="350.845714" style="fill: #0000ff; stroke: #0000ff"/>
     <use xlink:href="#m96dabe80fb" x="471.903896" y="344.674286" style="fill: #0000ff; stroke: #0000ff"/>
     <use xlink:href="#m96dabe80fb" x="477.701299" y="363.188571" style="fill: #0000ff; stroke: #0000ff"/>
     <use xlink:href="#m96dabe80fb" x="483.498701" y="363.188571" style="fill: #0000ff; stroke: #0000ff"/>
     <use xlink:href="#m96dabe80fb" x="486.397403" y="363.188571" style="fill: #0000ff; stroke: #0000ff"/>
     <use xlink:href="#m96dabe80fb" x="489.296104" y="363.188571" style="fill: #0000ff; stroke: #0000ff"/>
     <use xlink:href="#m96dabe80fb" x="492.194805" y="363.188571" style="fill: #0000ff; stroke: #0000ff"/>
     <use xlink:href="#m96dabe80fb" x="497.992208" y="326.16" style="fill: #0000ff; stroke: #0000ff"/>
     <use xlink:href="#m96dabe80fb" x="500.890909" y="363.188571" style="fill: #0000ff; stroke: #0000ff"/>
     <use xlink:href="#m96dabe80fb" x="503.78961" y="363.188571" style="fill: #0000ff; stroke: #0000ff"/>
     <use xlink:href="#m96dabe80fb" x="506.688312" y="332.331429" style="fill: #0000ff; stroke: #0000ff"/>
     <use xlink:href="#m96dabe80fb" x="509.587013" y="338.502857" style="fill: #0000ff; stroke: #0000ff"/>
     <use xlink:href="#m96dabe80fb" x="512.485714" y="233.588571" style="fill: #0000ff; stroke: #0000ff"/>
     <use xlink:href="#m96dabe80fb" x="515.384416" y="91.645714" style="fill: #0000ff; stroke: #0000ff"/>
     <use xlink:href="#m96dabe80fb" x="518.283117" y="326.16" style="fill: #0000ff; stroke: #0000ff"/>
     <use xlink:href="#m96dabe80fb" x="521.181818" y="252.102857" style="fill: #0000ff; stroke: #0000ff"/>
     <use xlink:href="#m96dabe80fb" x="524.080519" y="66.96" style="fill: #0000ff; stroke: #0000ff"/>
     <use xlink:href="#m96dabe80fb" x="526.979221" y="338.502857" style="fill: #0000ff; stroke: #0000ff"/>
     <use xlink:href="#m96dabe80fb" x="529.877922" y="350.845714" style="fill: #0000ff; stroke: #0000ff"/>
     <use xlink:href="#m96dabe80fb" x="535.675325" y="252.102857" style="fill: #0000ff; stroke: #0000ff"/>
     <use xlink:href="#m96dabe80fb" x="538.574026" y="363.188571" style="fill: #0000ff; stroke: #0000ff"/>
     <use xlink:href="#m96dabe80fb" x="541.472727" y="326.16" style="fill: #0000ff; stroke: #0000ff"/>
     <use xlink:href="#m96dabe80fb" x="544.371429" y="350.845714" style="fill: #0000ff; stroke: #0000ff"/>
     <use xlink:href="#m96dabe80fb" x="547.27013" y="363.188571" style="fill: #0000ff; stroke: #0000ff"/>
     <use xlink:href="#m96dabe80fb" x="550.168831" y="338.502857" style="fill: #0000ff; stroke: #0000ff"/>
     <use xlink:href="#m96dabe80fb" x="553.067532" y="245.931429" style="fill: #0000ff; stroke: #0000ff"/>
     <use xlink:href="#m96dabe80fb" x="555.966234" y="313.817143" style="fill: #0000ff; stroke: #0000ff"/>
     <use xlink:href="#m96dabe80fb" x="558.864935" y="350.845714" style="fill: #0000ff; stroke: #0000ff"/>
     <use xlink:href="#m96dabe80fb" x="564.662338" y="363.188571" style="fill: #0000ff; stroke: #0000ff"/>
     <use xlink:href="#m96dabe80fb" x="567.561039" y="350.845714" style="fill: #0000ff; stroke: #0000ff"/>
     <use xlink:href="#m96dabe80fb" x="570.45974" y="363.188571" style="fill: #0000ff; stroke: #0000ff"/>
     <use xlink:href="#m96dabe80fb" x="584.953247" y="350.845714" style="fill: #0000ff; stroke: #0000ff"/>
     <use xlink:href="#m96dabe80fb" x="587.851948" y="338.502857" style="fill: #0000ff; stroke: #0000ff"/>
     <use xlink:href="#m96dabe80fb" x="590.750649" y="350.845714" style="fill: #0000ff; stroke: #0000ff"/>
     <use xlink:href="#m96dabe80fb" x="593.649351" y="350.845714" style="fill: #0000ff; stroke: #0000ff"/>
     <use xlink:href="#m96dabe80fb" x="596.548052" y="363.188571" style="fill: #0000ff; stroke: #0000ff"/>
     <use xlink:href="#m96dabe80fb" x="605.244156" y="350.845714" style="fill: #0000ff; stroke: #0000ff"/>
     <use xlink:href="#m96dabe80fb" x="611.041558" y="363.188571" style="fill: #0000ff; stroke: #0000ff"/>
     <use xlink:href="#m96dabe80fb" x="619.737662" y="338.502857" style="fill: #0000ff; stroke: #0000ff"/>
     <use xlink:href="#m96dabe80fb" x="622.636364" y="338.502857" style="fill: #0000ff; stroke: #0000ff"/>
    </g>
   </g>
   <g id="patch_3">
    <path d="M 90 384.48 
L 90 51.84 
" style="fill: none; stroke: #000000; stroke-width: 0.8; stroke-linejoin: miter; stroke-linecap: square"/>
   </g>
   <g id="patch_4">
    <path d="M 648 384.48 
L 648 51.84 
" style="fill: none; stroke: #000000; stroke-width: 0.8; stroke-linejoin: miter; stroke-linecap: square"/>
   </g>
   <g id="patch_5">
    <path d="M 90 384.48 
L 648 384.48 
" style="fill: none; stroke: #000000; stroke-width: 0.8; stroke-linejoin: miter; stroke-linecap: square"/>
   </g>
   <g id="patch_6">
    <path d="M 90 51.84 
L 648 51.84 
" style="fill: none; stroke: #000000; stroke-width: 0.8; stroke-linejoin: miter; stroke-linecap: square"/>
   </g>
  </g>
  <g id="axes_2">
   <g id="matplotlib.axis_3">
    <g id="ytick_7">
     <g id="line2d_16">
      <defs>
       <path id="m3917ea0cdb" d="M 0 0 
L 3.5 0 
" style="stroke: #000000; stroke-width: 0.8"/>
      </defs>
      <g>
       <use xlink:href="#m3917ea0cdb" x="648" y="376.028054" style="stroke: #000000; stroke-width: 0.8"/>
      </g>
     </g>
     <g id="text_17">
      <!-- 0 -->
      <g style="fill: #008000" transform="translate(655 379.465554) scale(0.1 -0.1)">
       <use xlink:href="#SimHei-30"/>
      </g>
     </g>
    </g>
    <g id="ytick_8">
     <g id="line2d_17">
      <g>
       <use xlink:href="#m3917ea0cdb" x="648" y="332.567805" style="stroke: #000000; stroke-width: 0.8"/>
      </g>
     </g>
     <g id="text_18">
      <!-- 2500 -->
      <g style="fill: #008000" transform="translate(655 336.005305) scale(0.1 -0.1)">
       <use xlink:href="#SimHei-32"/>
       <use xlink:href="#SimHei-35" x="50"/>
       <use xlink:href="#SimHei-30" x="100"/>
       <use xlink:href="#SimHei-30" x="150"/>
      </g>
     </g>
    </g>
    <g id="ytick_9">
     <g id="line2d_18">
      <g>
       <use xlink:href="#m3917ea0cdb" x="648" y="289.107557" style="stroke: #000000; stroke-width: 0.8"/>
      </g>
     </g>
     <g id="text_19">
      <!-- 5000 -->
      <g style="fill: #008000" transform="translate(655 292.545057) scale(0.1 -0.1)">
       <use xlink:href="#SimHei-35"/>
       <use xlink:href="#SimHei-30" x="50"/>
       <use xlink:href="#SimHei-30" x="100"/>
       <use xlink:href="#SimHei-30" x="150"/>
      </g>
     </g>
    </g>
    <g id="ytick_10">
     <g id="line2d_19">
      <g>
       <use xlink:href="#m3917ea0cdb" x="648" y="245.647309" style="stroke: #000000; stroke-width: 0.8"/>
      </g>
     </g>
     <g id="text_20">
      <!-- 7500 -->
      <g style="fill: #008000" transform="translate(655 249.084809) scale(0.1 -0.1)">
       <use xlink:href="#SimHei-37"/>
       <use xlink:href="#SimHei-35" x="50"/>
       <use xlink:href="#SimHei-30" x="100"/>
       <use xlink:href="#SimHei-30" x="150"/>
      </g>
     </g>
    </g>
    <g id="ytick_11">
     <g id="line2d_20">
      <g>
       <use xlink:href="#m3917ea0cdb" x="648" y="202.18706" style="stroke: #000000; stroke-width: 0.8"/>
      </g>
     </g>
     <g id="text_21">
      <!-- 10000 -->
      <g style="fill: #008000" transform="translate(655 205.62456) scale(0.1 -0.1)">
       <use xlink:href="#SimHei-31"/>
       <use xlink:href="#SimHei-30" x="50"/>
       <use xlink:href="#SimHei-30" x="100"/>
       <use xlink:href="#SimHei-30" x="150"/>
       <use xlink:href="#SimHei-30" x="200"/>
      </g>
     </g>
    </g>
    <g id="ytick_12">
     <g id="line2d_21">
      <g>
       <use xlink:href="#m3917ea0cdb" x="648" y="158.726812" style="stroke: #000000; stroke-width: 0.8"/>
      </g>
     </g>
     <g id="text_22">
      <!-- 12500 -->
      <g style="fill: #008000" transform="translate(655 162.164312) scale(0.1 -0.1)">
       <use xlink:href="#SimHei-31"/>
       <use xlink:href="#SimHei-32" x="50"/>
       <use xlink:href="#SimHei-35" x="100"/>
       <use xlink:href="#SimHei-30" x="150"/>
       <use xlink:href="#SimHei-30" x="200"/>
      </g>
     </g>
    </g>
    <g id="ytick_13">
     <g id="line2d_22">
      <g>
       <use xlink:href="#m3917ea0cdb" x="648" y="115.266563" style="stroke: #000000; stroke-width: 0.8"/>
      </g>
     </g>
     <g id="text_23">
      <!-- 15000 -->
      <g style="fill: #008000" transform="translate(655 118.704063) scale(0.1 -0.1)">
       <use xlink:href="#SimHei-31"/>
       <use xlink:href="#SimHei-35" x="50"/>
       <use xlink:href="#SimHei-30" x="100"/>
       <use xlink:href="#SimHei-30" x="150"/>
       <use xlink:href="#SimHei-30" x="200"/>
      </g>
     </g>
    </g>
    <g id="ytick_14">
     <g id="line2d_23">
      <g>
       <use xlink:href="#m3917ea0cdb" x="648" y="71.806315" style="stroke: #000000; stroke-width: 0.8"/>
      </g>
     </g>
     <g id="text_24">
      <!-- 17500 -->
      <g style="fill: #008000" transform="translate(655 75.243815) scale(0.1 -0.1)">
       <use xlink:href="#SimHei-31"/>
       <use xlink:href="#SimHei-37" x="50"/>
       <use xlink:href="#SimHei-35" x="100"/>
       <use xlink:href="#SimHei-30" x="150"/>
       <use xlink:href="#SimHei-30" x="200"/>
      </g>
     </g>
    </g>
    <g id="text_25">
     <!-- 收益 -->
     <g style="fill: #008000" transform="translate(691.929688 228.16) rotate(-90) scale(0.1 -0.1)">
      <defs>
       <path id="SimHei-6536" d="M 4250 5050 
Q 4125 4850 3750 4050 
L 5150 4050 
Q 5675 4050 6125 4075 
L 6125 3600 
Q 5675 3625 5300 3625 
Q 5225 2625 5025 1975 
Q 4825 1325 4575 900 
Q 4900 500 5287 275 
Q 5675 50 6200 -75 
Q 5900 -275 5800 -550 
Q 5300 -350 4950 -100 
Q 4600 150 4275 525 
Q 3800 0 2775 -625 
Q 2650 -425 2300 -225 
Q 3275 150 3950 925 
Q 3775 1325 3612 1787 
Q 3450 2250 3250 3000 
Q 2975 2450 2825 2275 
Q 2650 2400 2425 2525 
Q 2775 3025 3137 3837 
Q 3500 4650 3625 5250 
Q 3925 5125 4250 5050 
z
M 975 4275 
Q 925 3950 925 3450 
L 925 1575 
L 1775 1725 
L 1775 4425 
Q 1775 4775 1750 5150 
L 2250 5150 
Q 2225 4850 2225 4450 
L 2225 300 
Q 2225 -50 2250 -550 
L 1750 -550 
Q 1775 -25 1775 350 
L 1775 1350 
Q 625 1050 500 925 
Q 375 1125 225 1350 
Q 450 1475 450 1800 
L 450 3575 
Q 450 3925 425 4275 
L 975 4275 
z
M 3725 3150 
Q 3800 2700 3962 2212 
Q 4125 1725 4300 1375 
Q 4725 2150 4825 3625 
L 3575 3625 
Q 3400 3275 3300 3100 
L 3725 3150 
z
" transform="scale(0.015625)"/>
       <path id="SimHei-76ca" d="M 2825 2925 
Q 2425 2775 2012 2487 
Q 1600 2200 1225 1975 
L 5275 1975 
Q 5250 1575 5250 1000 
L 5250 -50 
Q 5800 -50 6175 -25 
L 6175 -525 
Q 5725 -500 5250 -500 
L 1325 -500 
Q 700 -500 250 -525 
L 250 -25 
Q 600 -50 1175 -50 
L 1175 1050 
Q 1175 1575 1150 1925 
Q 1000 1800 800 1700 
Q 650 1950 425 2125 
Q 800 2275 1312 2600 
Q 1825 2925 2325 3400 
Q 2550 3150 2825 2925 
z
M 4725 5050 
Q 4575 4900 4462 4637 
Q 4350 4375 4175 4075 
L 4625 4075 
Q 5350 4075 5900 4100 
L 5900 3625 
Q 5350 3650 4625 3650 
L 1975 3650 
Q 1350 3650 550 3625 
L 550 4100 
Q 1175 4075 1975 4075 
L 3675 4075 
Q 3775 4300 3887 4625 
Q 4000 4950 4125 5250 
L 4725 5050 
z
M 3600 -50 
L 3600 1575 
L 2800 1575 
L 2800 -50 
L 3600 -50 
z
M 4800 -50 
L 4800 1575 
L 4025 1575 
L 4025 -50 
L 4800 -50 
z
M 2375 -50 
L 2375 1575 
L 1625 1575 
L 1625 -50 
L 2375 -50 
z
M 3900 3350 
Q 4375 3150 4900 2925 
Q 5425 2700 5900 2500 
Q 5700 2300 5550 2000 
Q 5025 2300 4512 2537 
Q 4000 2775 3625 2900 
Q 3750 3075 3900 3350 
z
M 2150 5250 
Q 2375 4925 2650 4350 
Q 2425 4275 2150 4125 
Q 1950 4650 1675 5025 
Q 1875 5100 2150 5250 
z
" transform="scale(0.015625)"/>
      </defs>
      <use xlink:href="#SimHei-6536"/>
      <use xlink:href="#SimHei-76ca" x="100"/>
     </g>
    </g>
   </g>
   <g id="line2d_24">
    <path d="M 115.363636 356.379936 
L 118.262338 349.831201 
L 121.161039 349.831201 
L 135.654545 330.500295 
L 138.553247 356.570437 
L 141.451948 363.056309 
L 144.350649 337.11282 
L 147.249351 350.084557 
L 153.046753 343.598683 
L 155.945455 363.069315 
L 170.438961 363.069315 
L 176.236364 363.069315 
L 179.135065 363.069315 
L 184.932468 337.151838 
L 190.72987 363.069315 
L 196.527273 272.377175 
L 199.425974 363.069381 
L 202.324675 363.069381 
L 205.223377 343.631372 
L 211.020779 363.069381 
L 216.818182 350.152896 
L 219.716883 363.111569 
L 222.615584 324.363007 
L 225.514286 330.82192 
L 228.412987 350.195977 
L 231.311688 356.653997 
L 234.21039 356.653997 
L 237.109091 363.112016 
L 242.906494 350.195977 
L 245.805195 356.517432 
L 248.703896 350.013891 
L 251.602597 343.510351 
L 254.501299 245.957242 
L 257.4 317.496189 
L 260.298701 312.068232 
L 263.197403 350.444125 
L 266.096104 331.256179 
L 268.994805 324.860196 
L 289.285714 331.256179 
L 292.184416 312.068232 
L 295.083117 305.71626 
L 297.981818 363.244091 
L 300.880519 363.244091 
L 303.779221 363.244091 
L 306.677922 350.460129 
L 309.576623 331.284185 
L 315.374026 350.460129 
L 321.171429 363.244091 
L 324.07013 363.250532 
L 326.968831 363.250532 
L 332.766234 344.08425 
L 341.462338 363.250532 
L 344.361039 363.250532 
L 350.158442 344.102155 
L 353.057143 350.487335 
L 355.955844 363.261582 
L 358.854545 305.675431 
L 361.753247 318.167845 
L 364.651948 363.17023 
L 367.550649 356.741318 
L 370.449351 279.593239 
L 373.348052 350.317603 
L 376.246753 356.745216 
L 379.145455 343.88999 
L 382.044156 337.462378 
L 384.942857 350.317593 
L 387.841558 350.317593 
L 390.74026 350.317593 
L 393.638961 363.17721 
L 399.436364 337.471709 
L 402.335065 337.470438 
L 405.233766 363.174668 
L 408.132468 343.865556 
L 416.828571 363.109964 
L 419.727273 324.483125 
L 422.625974 356.65092 
L 425.524675 337.247669 
L 428.423377 343.747528 
L 437.119481 343.738473 
L 440.018182 331.032358 
L 442.916883 363.170747 
L 445.815584 363.170747 
L 454.511688 324.674911 
L 457.41039 363.170747 
L 460.309091 350.338802 
L 463.207792 369.36 
L 466.106494 350.829623 
L 471.903896 344.361689 
L 477.701299 363.432394 
L 483.498701 363.541362 
L 486.397403 363.541362 
L 489.296104 363.432394 
L 492.194805 363.561755 
L 497.992208 326.200419 
L 500.890909 363.561755 
L 503.78961 363.561755 
L 506.688312 332.457118 
L 509.587013 338.883783 
L 512.485714 233.689218 
L 515.384416 91.385824 
L 518.283117 326.47857 
L 521.181818 252.359899 
L 524.080519 66.96 
L 526.979221 338.94044 
L 529.877922 351.302968 
L 535.675325 252.401966 
L 538.574026 363.665339 
L 541.472727 326.57794 
L 544.371429 351.302823 
L 547.27013 363.665525 
L 550.168831 338.937583 
L 553.067532 246.170031 
L 555.966234 314.191074 
L 558.864935 351.293192 
L 564.662338 363.660797 
L 567.561039 351.293192 
L 570.45974 363.660797 
L 584.953247 350.208633 
L 587.851948 337.364878 
L 590.750649 350.208633 
L 593.649351 350.208633 
L 596.548052 363.052388 
L 605.244156 350.340544 
L 611.041558 363.100473 
L 619.737662 337.044107 
L 622.636364 337.24531 
" clip-path="url(#pab0e9709b5)" style="fill: none; stroke: #008000; stroke-width: 1.5; stroke-linecap: square"/>
    <defs>
     <path id="mcf5d85e651" d="M 0 3 
C 0.795609 3 1.55874 2.683901 2.12132 2.12132 
C 2.683901 1.55874 3 0.795609 3 0 
C 3 -0.795609 2.683901 -1.55874 2.12132 -2.12132 
C 1.55874 -2.683901 0.795609 -3 0 -3 
C -0.795609 -3 -1.55874 -2.683901 -2.12132 -2.12132 
C -2.683901 -1.55874 -3 -0.795609 -3 0 
C -3 0.795609 -2.683901 1.55874 -2.12132 2.12132 
C -1.55874 2.683901 -0.795609 3 0 3 
z
" style="stroke: #008000"/>
    </defs>
    <g clip-path="url(#pab0e9709b5)">
     <use xlink:href="#mcf5d85e651" x="115.363636" y="356.379936" style="fill: #008000; stroke: #008000"/>
     <use xlink:href="#mcf5d85e651" x="118.262338" y="349.831201" style="fill: #008000; stroke: #008000"/>
     <use xlink:href="#mcf5d85e651" x="121.161039" y="349.831201" style="fill: #008000; stroke: #008000"/>
     <use xlink:href="#mcf5d85e651" x="135.654545" y="330.500295" style="fill: #008000; stroke: #008000"/>
     <use xlink:href="#mcf5d85e651" x="138.553247" y="356.570437" style="fill: #008000; stroke: #008000"/>
     <use xlink:href="#mcf5d85e651" x="141.451948" y="363.056309" style="fill: #008000; stroke: #008000"/>
     <use xlink:href="#mcf5d85e651" x="144.350649" y="337.11282" style="fill: #008000; stroke: #008000"/>
     <use xlink:href="#mcf5d85e651" x="147.249351" y="350.084557" style="fill: #008000; stroke: #008000"/>
     <use xlink:href="#mcf5d85e651" x="153.046753" y="343.598683" style="fill: #008000; stroke: #008000"/>
     <use xlink:href="#mcf5d85e651" x="155.945455" y="363.069315" style="fill: #008000; stroke: #008000"/>
     <use xlink:href="#mcf5d85e651" x="170.438961" y="363.069315" style="fill: #008000; stroke: #008000"/>
     <use xlink:href="#mcf5d85e651" x="176.236364" y="363.069315" style="fill: #008000; stroke: #008000"/>
     <use xlink:href="#mcf5d85e651" x="179.135065" y="363.069315" style="fill: #008000; stroke: #008000"/>
     <use xlink:href="#mcf5d85e651" x="184.932468" y="337.151838" style="fill: #008000; stroke: #008000"/>
     <use xlink:href="#mcf5d85e651" x="190.72987" y="363.069315" style="fill: #008000; stroke: #008000"/>
     <use xlink:href="#mcf5d85e651" x="196.527273" y="272.377175" style="fill: #008000; stroke: #008000"/>
     <use xlink:href="#mcf5d85e651" x="199.425974" y="363.069381" style="fill: #008000; stroke: #008000"/>
     <use xlink:href="#mcf5d85e651" x="202.324675" y="363.069381" style="fill: #008000; stroke: #008000"/>
     <use xlink:href="#mcf5d85e651" x="205.223377" y="343.631372" style="fill: #008000; stroke: #008000"/>
     <use xlink:href="#mcf5d85e651" x="211.020779" y="363.069381" style="fill: #008000; stroke: #008000"/>
     <use xlink:href="#mcf5d85e651" x="216.818182" y="350.152896" style="fill: #008000; stroke: #008000"/>
     <use xlink:href="#mcf5d85e651" x="219.716883" y="363.111569" style="fill: #008000; stroke: #008000"/>
     <use xlink:href="#mcf5d85e651" x="222.615584" y="324.363007" style="fill: #008000; stroke: #008000"/>
     <use xlink:href="#mcf5d85e651" x="225.514286" y="330.82192" style="fill: #008000; stroke: #008000"/>
     <use xlink:href="#mcf5d85e651" x="228.412987" y="350.195977" style="fill: #008000; stroke: #008000"/>
     <use xlink:href="#mcf5d85e651" x="231.311688" y="356.653997" style="fill: #008000; stroke: #008000"/>
     <use xlink:href="#mcf5d85e651" x="234.21039" y="356.653997" style="fill: #008000; stroke: #008000"/>
     <use xlink:href="#mcf5d85e651" x="237.109091" y="363.112016" style="fill: #008000; stroke: #008000"/>
     <use xlink:href="#mcf5d85e651" x="242.906494" y="350.195977" style="fill: #008000; stroke: #008000"/>
     <use xlink:href="#mcf5d85e651" x="245.805195" y="356.517432" style="fill: #008000; stroke: #008000"/>
     <use xlink:href="#mcf5d85e651" x="248.703896" y="350.013891" style="fill: #008000; stroke: #008000"/>
     <use xlink:href="#mcf5d85e651" x="251.602597" y="343.510351" style="fill: #008000; stroke: #008000"/>
     <use xlink:href="#mcf5d85e651" x="254.501299" y="245.957242" style="fill: #008000; stroke: #008000"/>
     <use xlink:href="#mcf5d85e651" x="257.4" y="317.496189" style="fill: #008000; stroke: #008000"/>
     <use xlink:href="#mcf5d85e651" x="260.298701" y="312.068232" style="fill: #008000; stroke: #008000"/>
     <use xlink:href="#mcf5d85e651" x="263.197403" y="350.444125" style="fill: #008000; stroke: #008000"/>
     <use xlink:href="#mcf5d85e651" x="266.096104" y="331.256179" style="fill: #008000; stroke: #008000"/>
     <use xlink:href="#mcf5d85e651" x="268.994805" y="324.860196" style="fill: #008000; stroke: #008000"/>
     <use xlink:href="#mcf5d85e651" x="289.285714" y="331.256179" style="fill: #008000; stroke: #008000"/>
     <use xlink:href="#mcf5d85e651" x="292.184416" y="312.068232" style="fill: #008000; stroke: #008000"/>
     <use xlink:href="#mcf5d85e651" x="295.083117" y="305.71626" style="fill: #008000; stroke: #008000"/>
     <use xlink:href="#mcf5d85e651" x="297.981818" y="363.244091" style="fill: #008000; stroke: #008000"/>
     <use xlink:href="#mcf5d85e651" x="300.880519" y="363.244091" style="fill: #008000; stroke: #008000"/>
     <use xlink:href="#mcf5d85e651" x="303.779221" y="363.244091" style="fill: #008000; stroke: #008000"/>
     <use xlink:href="#mcf5d85e651" x="306.677922" y="350.460129" style="fill: #008000; stroke: #008000"/>
     <use xlink:href="#mcf5d85e651" x="309.576623" y="331.284185" style="fill: #008000; stroke: #008000"/>
     <use xlink:href="#mcf5d85e651" x="315.374026" y="350.460129" style="fill: #008000; stroke: #008000"/>
     <use xlink:href="#mcf5d85e651" x="321.171429" y="363.244091" style="fill: #008000; stroke: #008000"/>
     <use xlink:href="#mcf5d85e651" x="324.07013" y="363.250532" style="fill: #008000; stroke: #008000"/>
     <use xlink:href="#mcf5d85e651" x="326.968831" y="363.250532" style="fill: #008000; stroke: #008000"/>
     <use xlink:href="#mcf5d85e651" x="332.766234" y="344.08425" style="fill: #008000; stroke: #008000"/>
     <use xlink:href="#mcf5d85e651" x="341.462338" y="363.250532" style="fill: #008000; stroke: #008000"/>
     <use xlink:href="#mcf5d85e651" x="344.361039" y="363.250532" style="fill: #008000; stroke: #008000"/>
     <use xlink:href="#mcf5d85e651" x="350.158442" y="344.102155" style="fill: #008000; stroke: #008000"/>
     <use xlink:href="#mcf5d85e651" x="353.057143" y="350.487335" style="fill: #008000; stroke: #008000"/>
     <use xlink:href="#mcf5d85e651" x="355.955844" y="363.261582" style="fill: #008000; stroke: #008000"/>
     <use xlink:href="#mcf5d85e651" x="358.854545" y="305.675431" style="fill: #008000; stroke: #008000"/>
     <use xlink:href="#mcf5d85e651" x="361.753247" y="318.167845" style="fill: #008000; stroke: #008000"/>
     <use xlink:href="#mcf5d85e651" x="364.651948" y="363.17023" style="fill: #008000; stroke: #008000"/>
     <use xlink:href="#mcf5d85e651" x="367.550649" y="356.741318" style="fill: #008000; stroke: #008000"/>
     <use xlink:href="#mcf5d85e651" x="370.449351" y="279.593239" style="fill: #008000; stroke: #008000"/>
     <use xlink:href="#mcf5d85e651" x="373.348052" y="350.317603" style="fill: #008000; stroke: #008000"/>
     <use xlink:href="#mcf5d85e651" x="376.246753" y="356.745216" style="fill: #008000; stroke: #008000"/>
     <use xlink:href="#mcf5d85e651" x="379.145455" y="343.88999" style="fill: #008000; stroke: #008000"/>
     <use xlink:href="#mcf5d85e651" x="382.044156" y="337.462378" style="fill: #008000; stroke: #008000"/>
     <use xlink:href="#mcf5d85e651" x="384.942857" y="350.317593" style="fill: #008000; stroke: #008000"/>
     <use xlink:href="#mcf5d85e651" x="387.841558" y="350.317593" style="fill: #008000; stroke: #008000"/>
     <use xlink:href="#mcf5d85e651" x="390.74026" y="350.317593" style="fill: #008000; stroke: #008000"/>
     <use xlink:href="#mcf5d85e651" x="393.638961" y="363.17721" style="fill: #008000; stroke: #008000"/>
     <use xlink:href="#mcf5d85e651" x="399.436364" y="337.471709" style="fill: #008000; stroke: #008000"/>
     <use xlink:href="#mcf5d85e651" x="402.335065" y="337.470438" style="fill: #008000; stroke: #008000"/>
     <use xlink:href="#mcf5d85e651" x="405.233766" y="363.174668" style="fill: #008000; stroke: #008000"/>
     <use xlink:href="#mcf5d85e651" x="408.132468" y="343.865556" style="fill: #008000; stroke: #008000"/>
     <use xlink:href="#mcf5d85e651" x="416.828571" y="363.109964" style="fill: #008000; stroke: #008000"/>
     <use xlink:href="#mcf5d85e651" x="419.727273" y="324.483125" style="fill: #008000; stroke: #008000"/>
     <use xlink:href="#mcf5d85e651" x="422.625974" y="356.65092" style="fill: #008000; stroke: #008000"/>
     <use xlink:href="#mcf5d85e651" x="425.524675" y="337.247669" style="fill: #008000; stroke: #008000"/>
     <use xlink:href="#mcf5d85e651" x="428.423377" y="343.747528" style="fill: #008000; stroke: #008000"/>
     <use xlink:href="#mcf5d85e651" x="437.119481" y="343.738473" style="fill: #008000; stroke: #008000"/>
     <use xlink:href="#mcf5d85e651" x="440.018182" y="331.032358" style="fill: #008000; stroke: #008000"/>
     <use xlink:href="#mcf5d85e651" x="442.916883" y="363.170747" style="fill: #008000; stroke: #008000"/>
     <use xlink:href="#mcf5d85e651" x="445.815584" y="363.170747" style="fill: #008000; stroke: #008000"/>
     <use xlink:href="#mcf5d85e651" x="454.511688" y="324.674911" style="fill: #008000; stroke: #008000"/>
     <use xlink:href="#mcf5d85e651" x="457.41039" y="363.170747" style="fill: #008000; stroke: #008000"/>
     <use xlink:href="#mcf5d85e651" x="460.309091" y="350.338802" style="fill: #008000; stroke: #008000"/>
     <use xlink:href="#mcf5d85e651" x="463.207792" y="369.36" style="fill: #008000; stroke: #008000"/>
     <use xlink:href="#mcf5d85e651" x="466.106494" y="350.829623" style="fill: #008000; stroke: #008000"/>
     <use xlink:href="#mcf5d85e651" x="471.903896" y="344.361689" style="fill: #008000; stroke: #008000"/>
     <use xlink:href="#mcf5d85e651" x="477.701299" y="363.432394" style="fill: #008000; stroke: #008000"/>
     <use xlink:href="#mcf5d85e651" x="483.498701" y="363.541362" style="fill: #008000; stroke: #008000"/>
     <use xlink:href="#mcf5d85e651" x="486.397403" y="363.541362" style="fill: #008000; stroke: #008000"/>
     <use xlink:href="#mcf5d85e651" x="489.296104" y="363.432394" style="fill: #008000; stroke: #008000"/>
     <use xlink:href="#mcf5d85e651" x="492.194805" y="363.561755" style="fill: #008000; stroke: #008000"/>
     <use xlink:href="#mcf5d85e651" x="497.992208" y="326.200419" style="fill: #008000; stroke: #008000"/>
     <use xlink:href="#mcf5d85e651" x="500.890909" y="363.561755" style="fill: #008000; stroke: #008000"/>
     <use xlink:href="#mcf5d85e651" x="503.78961" y="363.561755" style="fill: #008000; stroke: #008000"/>
     <use xlink:href="#mcf5d85e651" x="506.688312" y="332.457118" style="fill: #008000; stroke: #008000"/>
     <use xlink:href="#mcf5d85e651" x="509.587013" y="338.883783" style="fill: #008000; stroke: #008000"/>
     <use xlink:href="#mcf5d85e651" x="512.485714" y="233.689218" style="fill: #008000; stroke: #008000"/>
     <use xlink:href="#mcf5d85e651" x="515.384416" y="91.385824" style="fill: #008000; stroke: #008000"/>
     <use xlink:href="#mcf5d85e651" x="518.283117" y="326.47857" style="fill: #008000; stroke: #008000"/>
     <use xlink:href="#mcf5d85e651" x="521.181818" y="252.359899" style="fill: #008000; stroke: #008000"/>
     <use xlink:href="#mcf5d85e651" x="524.080519" y="66.96" style="fill: #008000; stroke: #008000"/>
     <use xlink:href="#mcf5d85e651" x="526.979221" y="338.94044" style="fill: #008000; stroke: #008000"/>
     <use xlink:href="#mcf5d85e651" x="529.877922" y="351.302968" style="fill: #008000; stroke: #008000"/>
     <use xlink:href="#mcf5d85e651" x="535.675325" y="252.401966" style="fill: #008000; stroke: #008000"/>
     <use xlink:href="#mcf5d85e651" x="538.574026" y="363.665339" style="fill: #008000; stroke: #008000"/>
     <use xlink:href="#mcf5d85e651" x="541.472727" y="326.57794" style="fill: #008000; stroke: #008000"/>
     <use xlink:href="#mcf5d85e651" x="544.371429" y="351.302823" style="fill: #008000; stroke: #008000"/>
     <use xlink:href="#mcf5d85e651" x="547.27013" y="363.665525" style="fill: #008000; stroke: #008000"/>
     <use xlink:href="#mcf5d85e651" x="550.168831" y="338.937583" style="fill: #008000; stroke: #008000"/>
     <use xlink:href="#mcf5d85e651" x="553.067532" y="246.170031" style="fill: #008000; stroke: #008000"/>
     <use xlink:href="#mcf5d85e651" x="555.966234" y="314.191074" style="fill: #008000; stroke: #008000"/>
     <use xlink:href="#mcf5d85e651" x="558.864935" y="351.293192" style="fill: #008000; stroke: #008000"/>
     <use xlink:href="#mcf5d85e651" x="564.662338" y="363.660797" style="fill: #008000; stroke: #008000"/>
     <use xlink:href="#mcf5d85e651" x="567.561039" y="351.293192" style="fill: #008000; stroke: #008000"/>
     <use xlink:href="#mcf5d85e651" x="570.45974" y="363.660797" style="fill: #008000; stroke: #008000"/>
     <use xlink:href="#mcf5d85e651" x="584.953247" y="350.208633" style="fill: #008000; stroke: #008000"/>
     <use xlink:href="#mcf5d85e651" x="587.851948" y="337.364878" style="fill: #008000; stroke: #008000"/>
     <use xlink:href="#mcf5d85e651" x="590.750649" y="350.208633" style="fill: #008000; stroke: #008000"/>
     <use xlink:href="#mcf5d85e651" x="593.649351" y="350.208633" style="fill: #008000; stroke: #008000"/>
     <use xlink:href="#mcf5d85e651" x="596.548052" y="363.052388" style="fill: #008000; stroke: #008000"/>
     <use xlink:href="#mcf5d85e651" x="605.244156" y="350.340544" style="fill: #008000; stroke: #008000"/>
     <use xlink:href="#mcf5d85e651" x="611.041558" y="363.100473" style="fill: #008000; stroke: #008000"/>
     <use xlink:href="#mcf5d85e651" x="619.737662" y="337.044107" style="fill: #008000; stroke: #008000"/>
     <use xlink:href="#mcf5d85e651" x="622.636364" y="337.24531" style="fill: #008000; stroke: #008000"/>
    </g>
   </g>
   <g id="patch_7">
    <path d="M 90 384.48 
L 90 51.84 
" style="fill: none; stroke: #000000; stroke-width: 0.8; stroke-linejoin: miter; stroke-linecap: square"/>
   </g>
   <g id="patch_8">
    <path d="M 648 384.48 
L 648 51.84 
" style="fill: none; stroke: #000000; stroke-width: 0.8; stroke-linejoin: miter; stroke-linecap: square"/>
   </g>
   <g id="patch_9">
    <path d="M 90 384.48 
L 648 384.48 
" style="fill: none; stroke: #000000; stroke-width: 0.8; stroke-linejoin: miter; stroke-linecap: square"/>
   </g>
   <g id="patch_10">
    <path d="M 90 51.84 
L 648 51.84 
" style="fill: none; stroke: #000000; stroke-width: 0.8; stroke-linejoin: miter; stroke-linecap: square"/>
   </g>
  </g>
  <g id="axes_3">
   <g id="matplotlib.axis_4">
    <g id="ytick_15">
     <g id="line2d_25">
      <g>
       <use xlink:href="#m3917ea0cdb" x="708" y="375.51556" style="stroke: #000000; stroke-width: 0.8"/>
      </g>
     </g>
     <g id="text_26">
      <!-- 355 -->
      <g style="fill: #ff0000" transform="translate(715 378.95306) scale(0.1 -0.1)">
       <use xlink:href="#SimHei-33"/>
       <use xlink:href="#SimHei-35" x="50"/>
       <use xlink:href="#SimHei-35" x="100"/>
      </g>
     </g>
    </g>
    <g id="ytick_16">
     <g id="line2d_26">
      <g>
       <use xlink:href="#m3917ea0cdb" x="708" y="321.519417" style="stroke: #000000; stroke-width: 0.8"/>
      </g>
     </g>
     <g id="text_27">
      <!-- 360 -->
      <g style="fill: #ff0000" transform="translate(715 324.956917) scale(0.1 -0.1)">
       <defs>
        <path id="SimHei-36" d="M 250 1612 
Q 275 1975 387 2225 
Q 500 2475 725 2850 
L 1750 4450 
L 2325 4450 
L 1275 2800 
Q 1950 2975 2350 2750 
Q 2750 2525 2887 2237 
Q 3025 1950 3037 1612 
Q 3050 1275 2937 950 
Q 2825 625 2537 362 
Q 2250 100 1737 75 
Q 1225 50 862 262 
Q 500 475 362 862 
Q 225 1250 250 1612 
z
M 1025 787 
Q 1250 550 1625 525 
Q 2000 500 2250 775 
Q 2500 1050 2500 1575 
Q 2500 2100 2187 2300 
Q 1875 2500 1487 2450 
Q 1100 2400 925 2075 
Q 750 1750 775 1387 
Q 800 1025 1025 787 
z
" transform="scale(0.015625)"/>
       </defs>
       <use xlink:href="#SimHei-33"/>
       <use xlink:href="#SimHei-36" x="50"/>
       <use xlink:href="#SimHei-30" x="100"/>
      </g>
     </g>
    </g>
    <g id="ytick_17">
     <g id="line2d_27">
      <g>
       <use xlink:href="#m3917ea0cdb" x="708" y="267.523274" style="stroke: #000000; stroke-width: 0.8"/>
      </g>
     </g>
     <g id="text_28">
      <!-- 365 -->
      <g style="fill: #ff0000" transform="translate(715 270.960774) scale(0.1 -0.1)">
       <use xlink:href="#SimHei-33"/>
       <use xlink:href="#SimHei-36" x="50"/>
       <use xlink:href="#SimHei-35" x="100"/>
      </g>
     </g>
    </g>
    <g id="ytick_18">
     <g id="line2d_28">
      <g>
       <use xlink:href="#m3917ea0cdb" x="708" y="213.527131" style="stroke: #000000; stroke-width: 0.8"/>
      </g>
     </g>
     <g id="text_29">
      <!-- 370 -->
      <g style="fill: #ff0000" transform="translate(715 216.964631) scale(0.1 -0.1)">
       <use xlink:href="#SimHei-33"/>
       <use xlink:href="#SimHei-37" x="50"/>
       <use xlink:href="#SimHei-30" x="100"/>
      </g>
     </g>
    </g>
    <g id="ytick_19">
     <g id="line2d_29">
      <g>
       <use xlink:href="#m3917ea0cdb" x="708" y="159.530988" style="stroke: #000000; stroke-width: 0.8"/>
      </g>
     </g>
     <g id="text_30">
      <!-- 375 -->
      <g style="fill: #ff0000" transform="translate(715 162.968488) scale(0.1 -0.1)">
       <use xlink:href="#SimHei-33"/>
       <use xlink:href="#SimHei-37" x="50"/>
       <use xlink:href="#SimHei-35" x="100"/>
      </g>
     </g>
    </g>
    <g id="ytick_20">
     <g id="line2d_30">
      <g>
       <use xlink:href="#m3917ea0cdb" x="708" y="105.534845" style="stroke: #000000; stroke-width: 0.8"/>
      </g>
     </g>
     <g id="text_31">
      <!-- 380 -->
      <g style="fill: #ff0000" transform="translate(715 108.972345) scale(0.1 -0.1)">
       <defs>
        <path id="SimHei-38" d="M 175 1375 
Q 175 1675 325 1962 
Q 475 2250 825 2425 
Q 525 2600 425 2812 
Q 325 3025 312 3300 
Q 300 3575 387 3775 
Q 475 3975 650 4150 
Q 825 4325 1037 4387 
Q 1250 4450 1500 4450 
Q 1750 4450 1950 4400 
Q 2150 4350 2375 4187 
Q 2600 4025 2700 3725 
Q 2800 3425 2687 3025 
Q 2575 2625 2100 2400 
Q 2525 2275 2700 2012 
Q 2875 1750 2875 1375 
Q 2875 1000 2762 775 
Q 2650 550 2512 400 
Q 2375 250 2137 162 
Q 1900 75 1537 75 
Q 1175 75 912 162 
Q 650 250 475 425 
Q 300 600 237 837 
Q 175 1075 175 1375 
z
M 687 1400 
Q 675 1100 787 875 
Q 900 650 1200 587 
Q 1500 525 1825 600 
Q 2150 675 2275 950 
Q 2400 1225 2362 1500 
Q 2325 1775 2050 1962 
Q 1775 2150 1450 2125 
Q 1125 2100 912 1900 
Q 700 1700 687 1400 
z
M 775 3350 
Q 775 3100 950 2875 
Q 1125 2650 1500 2650 
Q 1875 2650 2062 2875 
Q 2250 3100 2237 3412 
Q 2225 3725 2012 3875 
Q 1800 4025 1437 4000 
Q 1075 3975 925 3787 
Q 775 3600 775 3350 
z
" transform="scale(0.015625)"/>
       </defs>
       <use xlink:href="#SimHei-33"/>
       <use xlink:href="#SimHei-38" x="50"/>
       <use xlink:href="#SimHei-30" x="100"/>
      </g>
     </g>
    </g>
    <g id="text_32">
     <!-- 平均单价 -->
     <g style="fill: #ff0000" transform="translate(742.007812 238.16) rotate(-90) scale(0.1 -0.1)">
      <defs>
       <path id="SimHei-5e73" d="M 4525 4825 
Q 4900 4825 5450 4850 
L 5450 4375 
Q 4925 4400 4525 4400 
L 3475 4400 
L 3475 2025 
L 5000 2025 
Q 5550 2025 6025 2050 
L 6025 1575 
Q 5550 1600 5000 1600 
L 3475 1600 
L 3475 450 
Q 3475 -100 3500 -600 
L 2925 -600 
Q 2950 -100 2950 450 
L 2950 1600 
L 1125 1600 
Q 775 1600 375 1575 
L 375 2050 
Q 775 2025 1175 2025 
L 2950 2025 
L 2950 4400 
L 1775 4400 
Q 1400 4400 875 4375 
L 875 4850 
Q 1400 4825 1750 4825 
L 4525 4825 
z
M 3925 2600 
Q 4500 3300 4900 4125 
Q 5150 3950 5400 3825 
Q 4775 2850 4350 2300 
Q 4150 2475 3925 2600 
z
M 1975 2350 
Q 1600 3100 1050 3725 
Q 1250 3875 1450 4050 
Q 2075 3300 2450 2725 
Q 2150 2500 1975 2350 
z
" transform="scale(0.015625)"/>
       <path id="SimHei-5747" d="M 5775 275 
Q 5775 -325 5362 -450 
Q 4950 -575 4425 -600 
Q 4375 -275 4250 25 
Q 4950 -25 5125 62 
Q 5300 150 5300 500 
L 5375 3700 
L 3550 3700 
Q 3425 3375 3262 3037 
Q 3100 2700 2925 2400 
Q 2675 2550 2475 2625 
Q 3150 3625 3500 5200 
Q 3800 5100 4075 5025 
Q 3975 4875 3875 4650 
Q 3775 4425 3675 4125 
L 5900 4125 
L 5775 275 
z
M 1250 3625 
L 1250 4375 
Q 1250 4775 1225 5100 
L 1775 5100 
Q 1750 4725 1750 4375 
L 1750 3625 
L 1900 3625 
Q 2200 3625 2525 3650 
L 2525 3150 
Q 2200 3175 1900 3175 
L 1750 3175 
L 1750 1100 
L 2500 1375 
Q 2475 1125 2525 900 
Q 1225 475 962 362 
Q 700 250 475 150 
Q 375 475 250 750 
Q 575 800 800 850 
Q 1025 900 1250 975 
L 1250 3175 
L 1125 3175 
Q 850 3175 400 3150 
L 400 3650 
Q 850 3625 1100 3625 
L 1250 3625 
z
M 4950 1625 
Q 4675 1425 4137 1050 
Q 3600 675 3175 300 
Q 3000 575 2850 775 
Q 3350 1050 3762 1325 
Q 4175 1600 4775 2075 
Q 4825 1850 4950 1625 
z
M 3775 3150 
Q 4125 2800 4475 2300 
Q 4250 2125 4100 1975 
Q 3900 2325 3450 2825 
Q 3600 3000 3775 3150 
z
" transform="scale(0.015625)"/>
       <path id="SimHei-5355" d="M 5275 4075 
L 5275 1525 
L 3400 1525 
L 3400 925 
L 5050 925 
Q 5600 925 6000 950 
L 6000 450 
Q 5575 475 5050 475 
L 3400 475 
Q 3400 -300 3425 -625 
L 2875 -625 
Q 2925 -300 2925 475 
L 1300 475 
Q 700 475 425 450 
L 425 950 
Q 675 925 1250 925 
L 2925 925 
L 2925 1525 
L 1125 1525 
Q 1150 1950 1150 2750 
Q 1150 3550 1125 4075 
L 3600 4075 
Q 3875 4650 4075 5250 
Q 4325 5125 4650 4975 
Q 4550 4850 4400 4587 
Q 4250 4325 4100 4075 
L 5275 4075 
z
M 4775 1925 
L 4775 2600 
L 3400 2600 
L 3400 1925 
L 4775 1925 
z
M 4775 3000 
L 4775 3650 
L 3400 3650 
L 3400 3000 
L 4775 3000 
z
M 2925 1925 
L 2925 2600 
L 1625 2600 
L 1625 1925 
L 2925 1925 
z
M 2925 3000 
L 2925 3650 
L 1625 3650 
L 1625 3000 
L 2925 3000 
z
M 2100 5225 
Q 2350 4950 2675 4350 
Q 2400 4225 2225 4125 
Q 1975 4675 1725 4975 
Q 1900 5075 2100 5225 
z
" transform="scale(0.015625)"/>
       <path id="SimHei-4ef7" d="M 2200 4975 
Q 2050 4725 1650 3775 
L 1650 450 
Q 1650 -225 1675 -650 
L 1175 -650 
Q 1175 -225 1200 450 
L 1200 2975 
Q 900 2425 650 2100 
Q 525 2275 225 2450 
Q 750 3025 1125 3800 
Q 1500 4575 1625 5175 
Q 1950 5025 2200 4975 
z
M 4175 4700 
Q 4850 3525 6150 2950 
Q 5925 2750 5775 2500 
Q 4725 3100 3950 4300 
Q 3300 3125 2250 2350 
Q 2125 2525 1900 2725 
Q 2825 3325 3250 4050 
Q 3675 4775 3750 5150 
Q 4150 4950 4325 4900 
L 4175 4700 
z
M 3475 2650 
Q 3400 2075 3325 1087 
Q 3250 100 2325 -675 
Q 2175 -450 1925 -300 
Q 2850 350 2912 1262 
Q 2975 2175 2950 2700 
Q 3275 2650 3475 2650 
z
M 5075 2700 
Q 5050 2150 5050 1725 
L 5050 150 
Q 5050 -225 5075 -650 
L 4550 -650 
Q 4575 -225 4575 175 
L 4575 1875 
Q 4575 2150 4550 2700 
L 5075 2700 
z
" transform="scale(0.015625)"/>
      </defs>
      <use xlink:href="#SimHei-5e73"/>
      <use xlink:href="#SimHei-5747" x="100"/>
      <use xlink:href="#SimHei-5355" x="200"/>
      <use xlink:href="#SimHei-4ef7" x="300"/>
     </g>
    </g>
   </g>
   <g id="line2d_31">
    <path d="M 115.363636 140.686334 
L 118.262338 140.785327 
L 121.161039 140.785327 
L 135.654545 168.893748 
L 138.553247 180.133516 
L 141.451948 180.133516 
L 144.350649 180.133516 
L 147.249351 180.132316 
L 153.046753 180.132316 
L 155.945455 184.173228 
L 170.438961 184.173228 
L 176.236364 184.173228 
L 179.135065 184.173228 
L 184.932468 184.173228 
L 190.72987 184.173228 
L 196.527273 184.912078 
L 199.425974 184.193726 
L 202.324675 184.193726 
L 205.223377 184.193726 
L 211.020779 184.193726 
L 216.818182 190.74558 
L 219.716883 197.297433 
L 222.615584 197.366857 
L 225.514286 197.43628 
L 228.412987 197.43628 
L 231.311688 197.43628 
L 234.21039 197.43628 
L 237.109091 197.43628 
L 242.906494 197.43628 
L 245.805195 169.157729 
L 248.703896 169.157729 
L 251.602597 169.157729 
L 254.501299 169.157729 
L 257.4 169.157729 
L 260.298701 235.974408 
L 263.197403 235.974408 
L 266.096104 235.974408 
L 268.994805 235.974408 
L 289.285714 235.974408 
L 292.184416 235.974408 
L 295.083117 238.45985 
L 297.981818 238.45985 
L 300.880519 238.45985 
L 303.779221 238.45985 
L 306.677922 238.45985 
L 309.576623 238.45985 
L 315.374026 238.45985 
L 321.171429 238.45985 
L 324.07013 240.460407 
L 326.968831 240.460407 
L 332.766234 240.460407 
L 341.462338 240.460407 
L 344.361039 240.460407 
L 350.158442 242.685048 
L 353.057143 242.685048 
L 355.955844 243.892598 
L 358.854545 236.154057 
L 361.753247 215.517945 
L 364.651948 215.517945 
L 367.550649 215.517945 
L 370.449351 215.470992 
L 373.348052 216.325113 
L 376.246753 216.325113 
L 379.145455 216.325113 
L 382.044156 216.325113 
L 384.942857 216.323563 
L 387.841558 216.323563 
L 390.74026 216.323563 
L 393.638961 217.686027 
L 399.436364 217.291259 
L 402.335065 217.159669 
L 405.233766 216.89649 
L 408.132468 213.289304 
L 416.828571 196.799126 
L 419.727273 206.694218 
L 422.625974 196.799126 
L 425.524675 194.09511 
L 428.423377 198.62527 
L 437.119481 197.500163 
L 440.018182 216.111485 
L 442.916883 215.678774 
L 445.815584 215.678774 
L 454.511688 221.586704 
L 457.41039 215.678774 
L 460.309091 219.617394 
L 463.207792 66.96 
L 466.106494 295.843429 
L 471.903896 274.93023 
L 477.701299 296.947834 
L 483.498701 330.794049 
L 486.397403 330.794049 
L 489.296104 296.947834 
L 492.194805 337.128394 
L 497.992208 340.04485 
L 500.890909 337.128394 
L 503.78961 337.128394 
L 506.688312 342.551404 
L 509.587013 363.491081 
L 512.485714 364.774933 
L 515.384416 365.25356 
L 518.283117 361.643743 
L 521.181818 368.028414 
L 524.080519 369.299824 
L 526.979221 369.357 
L 529.877922 369.3555 
L 535.675325 369.335033 
L 538.574026 369.302081 
L 541.472727 369.36 
L 544.371429 369.333002 
L 547.27013 369.36 
L 550.168831 369.061221 
L 553.067532 367.837309 
L 555.966234 367.848108 
L 558.864935 367.837309 
L 564.662338 367.891305 
L 567.561039 367.837309 
L 570.45974 367.891305 
L 584.953247 199.40174 
L 587.851948 206.230452 
L 590.750649 199.40174 
L 593.649351 199.40174 
L 596.548052 178.915603 
L 605.244156 219.887877 
L 611.041558 193.850936 
L 619.737662 173.019224 
L 622.636364 193.850936 
" clip-path="url(#pab0e9709b5)" style="fill: none; stroke: #ff0000; stroke-width: 1.5; stroke-linecap: square"/>
    <defs>
     <path id="m9f0ddb4a9f" d="M 0 3 
C 0.795609 3 1.55874 2.683901 2.12132 2.12132 
C 2.683901 1.55874 3 0.795609 3 0 
C 3 -0.795609 2.683901 -1.55874 2.12132 -2.12132 
C 1.55874 -2.683901 0.795609 -3 0 -3 
C -0.795609 -3 -1.55874 -2.683901 -2.12132 -2.12132 
C -2.683901 -1.55874 -3 -0.795609 -3 0 
C -3 0.795609 -2.683901 1.55874 -2.12132 2.12132 
C -1.55874 2.683901 -0.795609 3 0 3 
z
" style="stroke: #ff0000"/>
    </defs>
    <g clip-path="url(#pab0e9709b5)">
     <use xlink:href="#m9f0ddb4a9f" x="115.363636" y="140.686334" style="fill: #ff0000; stroke: #ff0000"/>
     <use xlink:href="#m9f0ddb4a9f" x="118.262338" y="140.785327" style="fill: #ff0000; stroke: #ff0000"/>
     <use xlink:href="#m9f0ddb4a9f" x="121.161039" y="140.785327" style="fill: #ff0000; stroke: #ff0000"/>
     <use xlink:href="#m9f0ddb4a9f" x="135.654545" y="168.893748" style="fill: #ff0000; stroke: #ff0000"/>
     <use xlink:href="#m9f0ddb4a9f" x="138.553247" y="180.133516" style="fill: #ff0000; stroke: #ff0000"/>
     <use xlink:href="#m9f0ddb4a9f" x="141.451948" y="180.133516" style="fill: #ff0000; stroke: #ff0000"/>
     <use xlink:href="#m9f0ddb4a9f" x="144.350649" y="180.133516" style="fill: #ff0000; stroke: #ff0000"/>
     <use xlink:href="#m9f0ddb4a9f" x="147.249351" y="180.132316" style="fill: #ff0000; stroke: #ff0000"/>
     <use xlink:href="#m9f0ddb4a9f" x="153.046753" y="180.132316" style="fill: #ff0000; stroke: #ff0000"/>
     <use xlink:href="#m9f0ddb4a9f" x="155.945455" y="184.173228" style="fill: #ff0000; stroke: #ff0000"/>
     <use xlink:href="#m9f0ddb4a9f" x="170.438961" y="184.173228" style="fill: #ff0000; stroke: #ff0000"/>
     <use xlink:href="#m9f0ddb4a9f" x="176.236364" y="184.173228" style="fill: #ff0000; stroke: #ff0000"/>
     <use xlink:href="#m9f0ddb4a9f" x="179.135065" y="184.173228" style="fill: #ff0000; stroke: #ff0000"/>
     <use xlink:href="#m9f0ddb4a9f" x="184.932468" y="184.173228" style="fill: #ff0000; stroke: #ff0000"/>
     <use xlink:href="#m9f0ddb4a9f" x="190.72987" y="184.173228" style="fill: #ff0000; stroke: #ff0000"/>
     <use xlink:href="#m9f0ddb4a9f" x="196.527273" y="184.912078" style="fill: #ff0000; stroke: #ff0000"/>
     <use xlink:href="#m9f0ddb4a9f" x="199.425974" y="184.193726" style="fill: #ff0000; stroke: #ff0000"/>
     <use xlink:href="#m9f0ddb4a9f" x="202.324675" y="184.193726" style="fill: #ff0000; stroke: #ff0000"/>
     <use xlink:href="#m9f0ddb4a9f" x="205.223377" y="184.193726" style="fill: #ff0000; stroke: #ff0000"/>
     <use xlink:href="#m9f0ddb4a9f" x="211.020779" y="184.193726" style="fill: #ff0000; stroke: #ff0000"/>
     <use xlink:href="#m9f0ddb4a9f" x="216.818182" y="190.74558" style="fill: #ff0000; stroke: #ff0000"/>
     <use xlink:href="#m9f0ddb4a9f" x="219.716883" y="197.297433" style="fill: #ff0000; stroke: #ff0000"/>
     <use xlink:href="#m9f0ddb4a9f" x="222.615584" y="197.366857" style="fill: #ff0000; stroke: #ff0000"/>
     <use xlink:href="#m9f0ddb4a9f" x="225.514286" y="197.43628" style="fill: #ff0000; stroke: #ff0000"/>
     <use xlink:href="#m9f0ddb4a9f" x="228.412987" y="197.43628" style="fill: #ff0000; stroke: #ff0000"/>
     <use xlink:href="#m9f0ddb4a9f" x="231.311688" y="197.43628" style="fill: #ff0000; stroke: #ff0000"/>
     <use xlink:href="#m9f0ddb4a9f" x="234.21039" y="197.43628" style="fill: #ff0000; stroke: #ff0000"/>
     <use xlink:href="#m9f0ddb4a9f" x="237.109091" y="197.43628" style="fill: #ff0000; stroke: #ff0000"/>
     <use xlink:href="#m9f0ddb4a9f" x="242.906494" y="197.43628" style="fill: #ff0000; stroke: #ff0000"/>
     <use xlink:href="#m9f0ddb4a9f" x="245.805195" y="169.157729" style="fill: #ff0000; stroke: #ff0000"/>
     <use xlink:href="#m9f0ddb4a9f" x="248.703896" y="169.157729" style="fill: #ff0000; stroke: #ff0000"/>
     <use xlink:href="#m9f0ddb4a9f" x="251.602597" y="169.157729" style="fill: #ff0000; stroke: #ff0000"/>
     <use xlink:href="#m9f0ddb4a9f" x="254.501299" y="169.157729" style="fill: #ff0000; stroke: #ff0000"/>
     <use xlink:href="#m9f0ddb4a9f" x="257.4" y="169.157729" style="fill: #ff0000; stroke: #ff0000"/>
     <use xlink:href="#m9f0ddb4a9f" x="260.298701" y="235.974408" style="fill: #ff0000; stroke: #ff0000"/>
     <use xlink:href="#m9f0ddb4a9f" x="263.197403" y="235.974408" style="fill: #ff0000; stroke: #ff0000"/>
     <use xlink:href="#m9f0ddb4a9f" x="266.096104" y="235.974408" style="fill: #ff0000; stroke: #ff0000"/>
     <use xlink:href="#m9f0ddb4a9f" x="268.994805" y="235.974408" style="fill: #ff0000; stroke: #ff0000"/>
     <use xlink:href="#m9f0ddb4a9f" x="289.285714" y="235.974408" style="fill: #ff0000; stroke: #ff0000"/>
     <use xlink:href="#m9f0ddb4a9f" x="292.184416" y="235.974408" style="fill: #ff0000; stroke: #ff0000"/>
     <use xlink:href="#m9f0ddb4a9f" x="295.083117" y="238.45985" style="fill: #ff0000; stroke: #ff0000"/>
     <use xlink:href="#m9f0ddb4a9f" x="297.981818" y="238.45985" style="fill: #ff0000; stroke: #ff0000"/>
     <use xlink:href="#m9f0ddb4a9f" x="300.880519" y="238.45985" style="fill: #ff0000; stroke: #ff0000"/>
     <use xlink:href="#m9f0ddb4a9f" x="303.779221" y="238.45985" style="fill: #ff0000; stroke: #ff0000"/>
     <use xlink:href="#m9f0ddb4a9f" x="306.677922" y="238.45985" style="fill: #ff0000; stroke: #ff0000"/>
     <use xlink:href="#m9f0ddb4a9f" x="309.576623" y="238.45985" style="fill: #ff0000; stroke: #ff0000"/>
     <use xlink:href="#m9f0ddb4a9f" x="315.374026" y="238.45985" style="fill: #ff0000; stroke: #ff0000"/>
     <use xlink:href="#m9f0ddb4a9f" x="321.171429" y="238.45985" style="fill: #ff0000; stroke: #ff0000"/>
     <use xlink:href="#m9f0ddb4a9f" x="324.07013" y="240.460407" style="fill: #ff0000; stroke: #ff0000"/>
     <use xlink:href="#m9f0ddb4a9f" x="326.968831" y="240.460407" style="fill: #ff0000; stroke: #ff0000"/>
     <use xlink:href="#m9f0ddb4a9f" x="332.766234" y="240.460407" style="fill: #ff0000; stroke: #ff0000"/>
     <use xlink:href="#m9f0ddb4a9f" x="341.462338" y="240.460407" style="fill: #ff0000; stroke: #ff0000"/>
     <use xlink:href="#m9f0ddb4a9f" x="344.361039" y="240.460407" style="fill: #ff0000; stroke: #ff0000"/>
     <use xlink:href="#m9f0ddb4a9f" x="350.158442" y="242.685048" style="fill: #ff0000; stroke: #ff0000"/>
     <use xlink:href="#m9f0ddb4a9f" x="353.057143" y="242.685048" style="fill: #ff0000; stroke: #ff0000"/>
     <use xlink:href="#m9f0ddb4a9f" x="355.955844" y="243.892598" style="fill: #ff0000; stroke: #ff0000"/>
     <use xlink:href="#m9f0ddb4a9f" x="358.854545" y="236.154057" style="fill: #ff0000; stroke: #ff0000"/>
     <use xlink:href="#m9f0ddb4a9f" x="361.753247" y="215.517945" style="fill: #ff0000; stroke: #ff0000"/>
     <use xlink:href="#m9f0ddb4a9f" x="364.651948" y="215.517945" style="fill: #ff0000; stroke: #ff0000"/>
     <use xlink:href="#m9f0ddb4a9f" x="367.550649" y="215.517945" style="fill: #ff0000; stroke: #ff0000"/>
     <use xlink:href="#m9f0ddb4a9f" x="370.449351" y="215.470992" style="fill: #ff0000; stroke: #ff0000"/>
     <use xlink:href="#m9f0ddb4a9f" x="373.348052" y="216.325113" style="fill: #ff0000; stroke: #ff0000"/>
     <use xlink:href="#m9f0ddb4a9f" x="376.246753" y="216.325113" style="fill: #ff0000; stroke: #ff0000"/>
     <use xlink:href="#m9f0ddb4a9f" x="379.145455" y="216.325113" style="fill: #ff0000; stroke: #ff0000"/>
     <use xlink:href="#m9f0ddb4a9f" x="382.044156" y="216.325113" style="fill: #ff0000; stroke: #ff0000"/>
     <use xlink:href="#m9f0ddb4a9f" x="384.942857" y="216.323563" style="fill: #ff0000; stroke: #ff0000"/>
     <use xlink:href="#m9f0ddb4a9f" x="387.841558" y="216.323563" style="fill: #ff0000; stroke: #ff0000"/>
     <use xlink:href="#m9f0ddb4a9f" x="390.74026" y="216.323563" style="fill: #ff0000; stroke: #ff0000"/>
     <use xlink:href="#m9f0ddb4a9f" x="393.638961" y="217.686027" style="fill: #ff0000; stroke: #ff0000"/>
     <use xlink:href="#m9f0ddb4a9f" x="399.436364" y="217.291259" style="fill: #ff0000; stroke: #ff0000"/>
     <use xlink:href="#m9f0ddb4a9f" x="402.335065" y="217.159669" style="fill: #ff0000; stroke: #ff0000"/>
     <use xlink:href="#m9f0ddb4a9f" x="405.233766" y="216.89649" style="fill: #ff0000; stroke: #ff0000"/>
     <use xlink:href="#m9f0ddb4a9f" x="408.132468" y="213.289304" style="fill: #ff0000; stroke: #ff0000"/>
     <use xlink:href="#m9f0ddb4a9f" x="416.828571" y="196.799126" style="fill: #ff0000; stroke: #ff0000"/>
     <use xlink:href="#m9f0ddb4a9f" x="419.727273" y="206.694218" style="fill: #ff0000; stroke: #ff0000"/>
     <use xlink:href="#m9f0ddb4a9f" x="422.625974" y="196.799126" style="fill: #ff0000; stroke: #ff0000"/>
     <use xlink:href="#m9f0ddb4a9f" x="425.524675" y="194.09511" style="fill: #ff0000; stroke: #ff0000"/>
     <use xlink:href="#m9f0ddb4a9f" x="428.423377" y="198.62527" style="fill: #ff0000; stroke: #ff0000"/>
     <use xlink:href="#m9f0ddb4a9f" x="437.119481" y="197.500163" style="fill: #ff0000; stroke: #ff0000"/>
     <use xlink:href="#m9f0ddb4a9f" x="440.018182" y="216.111485" style="fill: #ff0000; stroke: #ff0000"/>
     <use xlink:href="#m9f0ddb4a9f" x="442.916883" y="215.678774" style="fill: #ff0000; stroke: #ff0000"/>
     <use xlink:href="#m9f0ddb4a9f" x="445.815584" y="215.678774" style="fill: #ff0000; stroke: #ff0000"/>
     <use xlink:href="#m9f0ddb4a9f" x="454.511688" y="221.586704" style="fill: #ff0000; stroke: #ff0000"/>
     <use xlink:href="#m9f0ddb4a9f" x="457.41039" y="215.678774" style="fill: #ff0000; stroke: #ff0000"/>
     <use xlink:href="#m9f0ddb4a9f" x="460.309091" y="219.617394" style="fill: #ff0000; stroke: #ff0000"/>
     <use xlink:href="#m9f0ddb4a9f" x="463.207792" y="66.96" style="fill: #ff0000; stroke: #ff0000"/>
     <use xlink:href="#m9f0ddb4a9f" x="466.106494" y="295.843429" style="fill: #ff0000; stroke: #ff0000"/>
     <use xlink:href="#m9f0ddb4a9f" x="471.903896" y="274.93023" style="fill: #ff0000; stroke: #ff0000"/>
     <use xlink:href="#m9f0ddb4a9f" x="477.701299" y="296.947834" style="fill: #ff0000; stroke: #ff0000"/>
     <use xlink:href="#m9f0ddb4a9f" x="483.498701" y="330.794049" style="fill: #ff0000; stroke: #ff0000"/>
     <use xlink:href="#m9f0ddb4a9f" x="486.397403" y="330.794049" style="fill: #ff0000; stroke: #ff0000"/>
     <use xlink:href="#m9f0ddb4a9f" x="489.296104" y="296.947834" style="fill: #ff0000; stroke: #ff0000"/>
     <use xlink:href="#m9f0ddb4a9f" x="492.194805" y="337.128394" style="fill: #ff0000; stroke: #ff0000"/>
     <use xlink:href="#m9f0ddb4a9f" x="497.992208" y="340.04485" style="fill: #ff0000; stroke: #ff0000"/>
     <use xlink:href="#m9f0ddb4a9f" x="500.890909" y="337.128394" style="fill: #ff0000; stroke: #ff0000"/>
     <use xlink:href="#m9f0ddb4a9f" x="503.78961" y="337.128394" style="fill: #ff0000; stroke: #ff0000"/>
     <use xlink:href="#m9f0ddb4a9f" x="506.688312" y="342.551404" style="fill: #ff0000; stroke: #ff0000"/>
     <use xlink:href="#m9f0ddb4a9f" x="509.587013" y="363.491081" style="fill: #ff0000; stroke: #ff0000"/>
     <use xlink:href="#m9f0ddb4a9f" x="512.485714" y="364.774933" style="fill: #ff0000; stroke: #ff0000"/>
     <use xlink:href="#m9f0ddb4a9f" x="515.384416" y="365.25356" style="fill: #ff0000; stroke: #ff0000"/>
     <use xlink:href="#m9f0ddb4a9f" x="518.283117" y="361.643743" style="fill: #ff0000; stroke: #ff0000"/>
     <use xlink:href="#m9f0ddb4a9f" x="521.181818" y="368.028414" style="fill: #ff0000; stroke: #ff0000"/>
     <use xlink:href="#m9f0ddb4a9f" x="524.080519" y="369.299824" style="fill: #ff0000; stroke: #ff0000"/>
     <use xlink:href="#m9f0ddb4a9f" x="526.979221" y="369.357" style="fill: #ff0000; stroke: #ff0000"/>
     <use xlink:href="#m9f0ddb4a9f" x="529.877922" y="369.3555" style="fill: #ff0000; stroke: #ff0000"/>
     <use xlink:href="#m9f0ddb4a9f" x="535.675325" y="369.335033" style="fill: #ff0000; stroke: #ff0000"/>
     <use xlink:href="#m9f0ddb4a9f" x="538.574026" y="369.302081" style="fill: #ff0000; stroke: #ff0000"/>
     <use xlink:href="#m9f0ddb4a9f" x="541.472727" y="369.36" style="fill: #ff0000; stroke: #ff0000"/>
     <use xlink:href="#m9f0ddb4a9f" x="544.371429" y="369.333002" style="fill: #ff0000; stroke: #ff0000"/>
     <use xlink:href="#m9f0ddb4a9f" x="547.27013" y="369.36" style="fill: #ff0000; stroke: #ff0000"/>
     <use xlink:href="#m9f0ddb4a9f" x="550.168831" y="369.061221" style="fill: #ff0000; stroke: #ff0000"/>
     <use xlink:href="#m9f0ddb4a9f" x="553.067532" y="367.837309" style="fill: #ff0000; stroke: #ff0000"/>
     <use xlink:href="#m9f0ddb4a9f" x="555.966234" y="367.848108" style="fill: #ff0000; stroke: #ff0000"/>
     <use xlink:href="#m9f0ddb4a9f" x="558.864935" y="367.837309" style="fill: #ff0000; stroke: #ff0000"/>
     <use xlink:href="#m9f0ddb4a9f" x="564.662338" y="367.891305" style="fill: #ff0000; stroke: #ff0000"/>
     <use xlink:href="#m9f0ddb4a9f" x="567.561039" y="367.837309" style="fill: #ff0000; stroke: #ff0000"/>
     <use xlink:href="#m9f0ddb4a9f" x="570.45974" y="367.891305" style="fill: #ff0000; stroke: #ff0000"/>
     <use xlink:href="#m9f0ddb4a9f" x="584.953247" y="199.40174" style="fill: #ff0000; stroke: #ff0000"/>
     <use xlink:href="#m9f0ddb4a9f" x="587.851948" y="206.230452" style="fill: #ff0000; stroke: #ff0000"/>
     <use xlink:href="#m9f0ddb4a9f" x="590.750649" y="199.40174" style="fill: #ff0000; stroke: #ff0000"/>
     <use xlink:href="#m9f0ddb4a9f" x="593.649351" y="199.40174" style="fill: #ff0000; stroke: #ff0000"/>
     <use xlink:href="#m9f0ddb4a9f" x="596.548052" y="178.915603" style="fill: #ff0000; stroke: #ff0000"/>
     <use xlink:href="#m9f0ddb4a9f" x="605.244156" y="219.887877" style="fill: #ff0000; stroke: #ff0000"/>
     <use xlink:href="#m9f0ddb4a9f" x="611.041558" y="193.850936" style="fill: #ff0000; stroke: #ff0000"/>
     <use xlink:href="#m9f0ddb4a9f" x="619.737662" y="173.019224" style="fill: #ff0000; stroke: #ff0000"/>
     <use xlink:href="#m9f0ddb4a9f" x="622.636364" y="193.850936" style="fill: #ff0000; stroke: #ff0000"/>
    </g>
   </g>
   <g id="patch_11">
    <path d="M 90 384.48 
L 90 51.84 
" style="fill: none; stroke: #000000; stroke-width: 0.8; stroke-linejoin: miter; stroke-linecap: square"/>
   </g>
   <g id="patch_12">
    <path d="M 708 384.48 
L 708 51.84 
" style="fill: none; stroke: #000000; stroke-width: 0.8; stroke-linejoin: miter; stroke-linecap: square"/>
   </g>
   <g id="patch_13">
    <path d="M 90 384.48 
L 648 384.48 
" style="fill: none; stroke: #000000; stroke-width: 0.8; stroke-linejoin: miter; stroke-linecap: square"/>
   </g>
   <g id="patch_14">
    <path d="M 90 51.84 
L 648 51.84 
" style="fill: none; stroke: #000000; stroke-width: 0.8; stroke-linejoin: miter; stroke-linecap: square"/>
   </g>
   <g id="text_33">
    <!-- 6004020622 每周需求量、收益与平均单价 -->
    <g transform="translate(258 45.84) scale(0.12 -0.12)">
     <defs>
      <path id="SimHei-20" transform="scale(0.015625)"/>
      <path id="SimHei-6bcf" d="M 5225 3650 
Q 5175 3150 5150 2675 
L 5125 2200 
Q 5525 2200 6000 2225 
L 6000 1775 
Q 5625 1800 5100 1800 
L 5050 650 
Q 5325 650 5700 675 
L 5700 225 
Q 5400 250 5025 250 
Q 5000 -275 4775 -425 
Q 4550 -575 4000 -650 
Q 3950 -400 3775 -125 
Q 4375 -125 4475 -50 
Q 4575 25 4575 250 
L 1400 250 
L 1500 1100 
L 1550 1800 
L 1275 1800 
Q 825 1800 550 1775 
L 550 2225 
Q 975 2200 1275 2200 
L 1575 2200 
L 1625 2825 
L 1675 3650 
L 5225 3650 
z
M 2350 5000 
Q 2175 4825 2050 4600 
L 4875 4600 
Q 5275 4600 5775 4625 
L 5775 4175 
Q 5275 4200 4875 4200 
L 1825 4200 
L 1375 3625 
Q 1125 3325 775 2975 
Q 600 3175 350 3300 
Q 725 3575 1150 4112 
Q 1575 4650 1825 5250 
Q 2125 5075 2350 5000 
z
M 1975 1800 
L 1875 650 
L 4625 650 
L 4675 1800 
L 2950 1800 
Q 3575 1275 3825 1125 
Q 3625 925 3475 725 
Q 3100 1100 2650 1475 
Q 2775 1675 2875 1800 
L 1975 1800 
z
M 2975 3250 
Q 3125 3150 3287 3012 
Q 3450 2875 3800 2550 
Q 3650 2350 3525 2200 
L 4700 2200 
L 4750 3250 
L 2975 3250 
z
M 2075 3250 
L 2000 2200 
L 3425 2200 
Q 3150 2500 3012 2625 
Q 2875 2750 2700 2900 
Q 2800 3050 2925 3250 
L 2075 3250 
z
" transform="scale(0.015625)"/>
      <path id="SimHei-3001" d="M 1725 -275 
Q 1325 700 925 1450 
L 1325 1650 
Q 1825 950 2325 25 
L 1725 -275 
z
" transform="scale(0.015625)"/>
      <path id="SimHei-4e0e" d="M 5350 100 
Q 5275 -300 4925 -425 
Q 4575 -550 3900 -600 
Q 3875 -375 3650 -25 
Q 4375 -50 4575 0 
Q 4775 50 4837 225 
Q 4900 400 5100 2350 
L 1125 2350 
Q 1450 4350 1475 5200 
Q 1800 5150 2075 5125 
Q 1975 4825 1900 4275 
L 4900 4275 
Q 5400 4275 5800 4300 
L 5800 3825 
Q 5400 3850 4950 3850 
L 1850 3850 
L 1700 2750 
L 5675 2750 
Q 5625 2450 5575 2050 
L 5350 100 
z
M 3675 1350 
Q 4125 1350 4500 1375 
L 4500 875 
Q 4125 900 3850 900 
L 1450 900 
Q 1000 900 500 875 
L 500 1375 
Q 1000 1350 1450 1350 
L 3675 1350 
z
" transform="scale(0.015625)"/>
     </defs>
     <use xlink:href="#SimHei-36"/>
     <use xlink:href="#SimHei-30" x="50"/>
     <use xlink:href="#SimHei-30" x="100"/>
     <use xlink:href="#SimHei-34" x="150"/>
     <use xlink:href="#SimHei-30" x="200"/>
     <use xlink:href="#SimHei-32" x="250"/>
     <use xlink:href="#SimHei-30" x="300"/>
     <use xlink:href="#SimHei-36" x="350"/>
     <use xlink:href="#SimHei-32" x="400"/>
     <use xlink:href="#SimHei-32" x="450"/>
     <use xlink:href="#SimHei-20" x="500"/>
     <use xlink:href="#SimHei-6bcf" x="550"/>
     <use xlink:href="#SimHei-5468" x="650"/>
     <use xlink:href="#SimHei-9700" x="750"/>
     <use xlink:href="#SimHei-6c42" x="850"/>
     <use xlink:href="#SimHei-91cf" x="950"/>
     <use xlink:href="#SimHei-3001" x="1050"/>
     <use xlink:href="#SimHei-6536" x="1150"/>
     <use xlink:href="#SimHei-76ca" x="1250"/>
     <use xlink:href="#SimHei-4e0e" x="1350"/>
     <use xlink:href="#SimHei-5e73" x="1450"/>
     <use xlink:href="#SimHei-5747" x="1550"/>
     <use xlink:href="#SimHei-5355" x="1650"/>
     <use xlink:href="#SimHei-4ef7" x="1750"/>
    </g>
   </g>
  </g>
 </g>
 <defs>
  <clipPath id="pab0e9709b5">
   <rect x="90" y="51.84" width="558" height="332.64"/>
  </clipPath>
 </defs>
</svg>
