<?xml version="1.0" encoding="utf-8" standalone="no"?>
<!DOCTYPE svg PUBLIC "-//W3C//DTD SVG 1.1//EN"
  "http://www.w3.org/Graphics/SVG/1.1/DTD/svg11.dtd">
<svg xmlns:xlink="http://www.w3.org/1999/xlink" width="720pt" height="432pt" viewBox="0 0 720 432" xmlns="http://www.w3.org/2000/svg" version="1.1">
 <metadata>
  <rdf:RDF xmlns:dc="http://purl.org/dc/elements/1.1/" xmlns:cc="http://creativecommons.org/ns#" xmlns:rdf="http://www.w3.org/1999/02/22-rdf-syntax-ns#">
   <cc:Work>
    <dc:type rdf:resource="http://purl.org/dc/dcmitype/StillImage"/>
    <dc:date>2024-08-17T14:08:07.200689</dc:date>
    <dc:format>image/svg+xml</dc:format>
    <dc:creator>
     <cc:Agent>
      <dc:title>Matplotlib v3.8.0, https://matplotlib.org/</dc:title>
     </cc:Agent>
    </dc:creator>
   </cc:Work>
  </rdf:RDF>
 </metadata>
 <defs>
  <style type="text/css">*{stroke-linejoin: round; stroke-linecap: butt}</style>
 </defs>
 <g id="figure_1">
  <g id="patch_1">
   <path d="M 0 432 
L 720 432 
L 720 0 
L 0 0 
z
" style="fill: #ffffff"/>
  </g>
  <g id="axes_1">
   <g id="patch_2">
    <path d="M 90 384.48 
L 648 384.48 
L 648 51.84 
L 90 51.84 
z
" style="fill: #ffffff"/>
   </g>
   <g id="matplotlib.axis_1">
    <g id="xtick_1">
     <g id="line2d_1">
      <path d="M 109.566234 384.48 
L 109.566234 51.84 
" clip-path="url(#p9aa93168c5)" style="fill: none; stroke: #b0b0b0; stroke-width: 0.8; stroke-linecap: square"/>
     </g>
     <g id="line2d_2">
      <defs>
       <path id="mdb5ad7636a" d="M 0 0 
L 0 3.5 
" style="stroke: #000000; stroke-width: 0.8"/>
      </defs>
      <g>
       <use xlink:href="#mdb5ad7636a" x="109.566234" y="384.48" style="stroke: #000000; stroke-width: 0.8"/>
      </g>
     </g>
     <g id="text_1">
      <!-- 0 -->
      <g transform="translate(107.066234 398.355) scale(0.1 -0.1)">
       <defs>
        <path id="SimHei-30" d="M 225 2537 
Q 250 3200 412 3587 
Q 575 3975 875 4225 
Q 1175 4475 1612 4475 
Q 2050 4475 2375 4112 
Q 2700 3750 2800 3200 
Q 2900 2650 2862 1937 
Q 2825 1225 2612 775 
Q 2400 325 1975 150 
Q 1550 -25 1125 187 
Q 700 400 525 750 
Q 350 1100 275 1487 
Q 200 1875 225 2537 
z
M 750 2687 
Q 675 2000 800 1462 
Q 925 925 1212 700 
Q 1500 475 1800 612 
Q 2100 750 2237 1162 
Q 2375 1575 2375 2062 
Q 2375 2550 2337 2950 
Q 2300 3350 2112 3675 
Q 1925 4000 1612 4012 
Q 1300 4025 1062 3700 
Q 825 3375 750 2687 
z
" transform="scale(0.015625)"/>
       </defs>
       <use xlink:href="#SimHei-30"/>
      </g>
     </g>
    </g>
    <g id="xtick_2">
     <g id="line2d_3">
      <path d="M 182.033766 384.48 
L 182.033766 51.84 
" clip-path="url(#p9aa93168c5)" style="fill: none; stroke: #b0b0b0; stroke-width: 0.8; stroke-linecap: square"/>
     </g>
     <g id="line2d_4">
      <g>
       <use xlink:href="#mdb5ad7636a" x="182.033766" y="384.48" style="stroke: #000000; stroke-width: 0.8"/>
      </g>
     </g>
     <g id="text_2">
      <!-- 25 -->
      <g transform="translate(177.033766 398.355) scale(0.1 -0.1)">
       <defs>
        <path id="SimHei-32" d="M 300 250 
Q 325 625 650 925 
Q 975 1225 1475 1862 
Q 1975 2500 2125 2850 
Q 2275 3200 2237 3450 
Q 2200 3700 2000 3862 
Q 1800 4025 1537 4000 
Q 1275 3975 1037 3800 
Q 800 3625 675 3275 
L 200 3350 
Q 400 3925 712 4187 
Q 1025 4450 1450 4475 
Q 1700 4500 1900 4462 
Q 2100 4425 2312 4287 
Q 2525 4150 2662 3875 
Q 2800 3600 2762 3212 
Q 2725 2825 2375 2287 
Q 2025 1750 1025 600 
L 2825 600 
L 2825 150 
L 300 150 
L 300 250 
z
" transform="scale(0.015625)"/>
        <path id="SimHei-35" d="M 550 1325 
Q 725 650 1150 575 
Q 1575 500 1837 662 
Q 2100 825 2212 1087 
Q 2325 1350 2312 1675 
Q 2300 2000 2137 2225 
Q 1975 2450 1725 2525 
Q 1475 2600 1162 2525 
Q 850 2450 650 2175 
L 225 2225 
Q 275 2375 700 4375 
L 2675 4375 
L 2675 3925 
L 1075 3925 
Q 950 3250 825 2850 
Q 1200 3025 1525 3012 
Q 1850 3000 2150 2862 
Q 2450 2725 2587 2487 
Q 2725 2250 2787 2012 
Q 2850 1775 2837 1500 
Q 2825 1225 2725 937 
Q 2625 650 2425 462 
Q 2225 275 1937 162 
Q 1650 50 1275 75 
Q 900 100 562 350 
Q 225 600 100 1200 
L 550 1325 
z
" transform="scale(0.015625)"/>
       </defs>
       <use xlink:href="#SimHei-32"/>
       <use xlink:href="#SimHei-35" x="50"/>
      </g>
     </g>
    </g>
    <g id="xtick_3">
     <g id="line2d_5">
      <path d="M 254.501299 384.48 
L 254.501299 51.84 
" clip-path="url(#p9aa93168c5)" style="fill: none; stroke: #b0b0b0; stroke-width: 0.8; stroke-linecap: square"/>
     </g>
     <g id="line2d_6">
      <g>
       <use xlink:href="#mdb5ad7636a" x="254.501299" y="384.48" style="stroke: #000000; stroke-width: 0.8"/>
      </g>
     </g>
     <g id="text_3">
      <!-- 50 -->
      <g transform="translate(249.501299 398.355) scale(0.1 -0.1)">
       <use xlink:href="#SimHei-35"/>
       <use xlink:href="#SimHei-30" x="50"/>
      </g>
     </g>
    </g>
    <g id="xtick_4">
     <g id="line2d_7">
      <path d="M 326.968831 384.48 
L 326.968831 51.84 
" clip-path="url(#p9aa93168c5)" style="fill: none; stroke: #b0b0b0; stroke-width: 0.8; stroke-linecap: square"/>
     </g>
     <g id="line2d_8">
      <g>
       <use xlink:href="#mdb5ad7636a" x="326.968831" y="384.48" style="stroke: #000000; stroke-width: 0.8"/>
      </g>
     </g>
     <g id="text_4">
      <!-- 75 -->
      <g transform="translate(321.968831 398.355) scale(0.1 -0.1)">
       <defs>
        <path id="SimHei-37" d="M 850 150 
Q 1300 2050 2425 3925 
L 275 3925 
L 275 4375 
L 2950 4375 
L 2950 3950 
Q 1775 2050 1400 150 
L 850 150 
z
" transform="scale(0.015625)"/>
       </defs>
       <use xlink:href="#SimHei-37"/>
       <use xlink:href="#SimHei-35" x="50"/>
      </g>
     </g>
    </g>
    <g id="xtick_5">
     <g id="line2d_9">
      <path d="M 399.436364 384.48 
L 399.436364 51.84 
" clip-path="url(#p9aa93168c5)" style="fill: none; stroke: #b0b0b0; stroke-width: 0.8; stroke-linecap: square"/>
     </g>
     <g id="line2d_10">
      <g>
       <use xlink:href="#mdb5ad7636a" x="399.436364" y="384.48" style="stroke: #000000; stroke-width: 0.8"/>
      </g>
     </g>
     <g id="text_5">
      <!-- 100 -->
      <g transform="translate(391.936364 398.355) scale(0.1 -0.1)">
       <defs>
        <path id="SimHei-31" d="M 1400 3600 
Q 1075 3275 575 2975 
L 575 3450 
Q 1200 3875 1600 4450 
L 1900 4450 
L 1900 150 
L 1400 150 
L 1400 3600 
z
" transform="scale(0.015625)"/>
       </defs>
       <use xlink:href="#SimHei-31"/>
       <use xlink:href="#SimHei-30" x="50"/>
       <use xlink:href="#SimHei-30" x="100"/>
      </g>
     </g>
    </g>
    <g id="xtick_6">
     <g id="line2d_11">
      <path d="M 471.903896 384.48 
L 471.903896 51.84 
" clip-path="url(#p9aa93168c5)" style="fill: none; stroke: #b0b0b0; stroke-width: 0.8; stroke-linecap: square"/>
     </g>
     <g id="line2d_12">
      <g>
       <use xlink:href="#mdb5ad7636a" x="471.903896" y="384.48" style="stroke: #000000; stroke-width: 0.8"/>
      </g>
     </g>
     <g id="text_6">
      <!-- 125 -->
      <g transform="translate(464.403896 398.355) scale(0.1 -0.1)">
       <use xlink:href="#SimHei-31"/>
       <use xlink:href="#SimHei-32" x="50"/>
       <use xlink:href="#SimHei-35" x="100"/>
      </g>
     </g>
    </g>
    <g id="xtick_7">
     <g id="line2d_13">
      <path d="M 544.371429 384.48 
L 544.371429 51.84 
" clip-path="url(#p9aa93168c5)" style="fill: none; stroke: #b0b0b0; stroke-width: 0.8; stroke-linecap: square"/>
     </g>
     <g id="line2d_14">
      <g>
       <use xlink:href="#mdb5ad7636a" x="544.371429" y="384.48" style="stroke: #000000; stroke-width: 0.8"/>
      </g>
     </g>
     <g id="text_7">
      <!-- 150 -->
      <g transform="translate(536.871429 398.355) scale(0.1 -0.1)">
       <use xlink:href="#SimHei-31"/>
       <use xlink:href="#SimHei-35" x="50"/>
       <use xlink:href="#SimHei-30" x="100"/>
      </g>
     </g>
    </g>
    <g id="xtick_8">
     <g id="line2d_15">
      <path d="M 616.838961 384.48 
L 616.838961 51.84 
" clip-path="url(#p9aa93168c5)" style="fill: none; stroke: #b0b0b0; stroke-width: 0.8; stroke-linecap: square"/>
     </g>
     <g id="line2d_16">
      <g>
       <use xlink:href="#mdb5ad7636a" x="616.838961" y="384.48" style="stroke: #000000; stroke-width: 0.8"/>
      </g>
     </g>
     <g id="text_8">
      <!-- 175 -->
      <g transform="translate(609.338961 398.355) scale(0.1 -0.1)">
       <use xlink:href="#SimHei-31"/>
       <use xlink:href="#SimHei-37" x="50"/>
       <use xlink:href="#SimHei-35" x="100"/>
      </g>
     </g>
    </g>
    <g id="text_9">
     <!-- 周数 -->
     <g transform="translate(359 411.339375) scale(0.1 -0.1)">
      <defs>
       <path id="SimHei-5468" d="M 5600 4925 
Q 5575 4400 5575 3800 
L 5575 50 
Q 5550 -375 5325 -462 
Q 5100 -550 4325 -600 
Q 4300 -400 4125 -75 
Q 4800 -100 4962 -37 
Q 5125 25 5100 225 
L 5100 4525 
L 1500 4525 
Q 1500 2575 1450 1887 
Q 1400 1200 1237 550 
Q 1075 -100 775 -625 
Q 625 -450 275 -225 
Q 650 225 825 1000 
Q 1000 1775 1025 2587 
Q 1050 3400 1000 4925 
L 5600 4925 
z
M 2050 325 
Q 2075 625 2075 950 
L 2075 1400 
Q 2075 1625 2050 1925 
L 4400 1925 
Q 4375 1725 4375 1450 
L 4375 875 
Q 4375 600 4400 325 
L 2050 325 
z
M 3000 3800 
Q 3000 4150 2975 4375 
L 3475 4375 
Q 3450 4075 3450 3800 
Q 4100 3800 4475 3825 
L 4475 3350 
Q 4125 3375 3450 3375 
L 3450 2800 
Q 4200 2800 4825 2825 
L 4825 2350 
Q 4175 2375 3725 2375 
L 2750 2375 
Q 2325 2375 1725 2350 
L 1725 2825 
Q 2325 2800 3000 2800 
L 3000 3375 
Q 2500 3375 1975 3350 
L 1975 3825 
Q 2475 3800 3000 3800 
z
M 3900 725 
L 3900 1525 
L 2550 1525 
L 2550 725 
L 3900 725 
z
" transform="scale(0.015625)"/>
       <path id="SimHei-6570" d="M 4525 4925 
Q 4475 4800 4400 4587 
Q 4325 4375 4175 3825 
L 5325 3825 
Q 5575 3825 5925 3850 
L 5925 3400 
Q 5650 3425 5500 3425 
Q 5500 3025 5362 2162 
Q 5225 1300 4875 675 
Q 5125 375 5437 137 
Q 5750 -100 6025 -200 
Q 5725 -425 5625 -625 
Q 5325 -450 5075 -225 
Q 4825 0 4575 325 
Q 4300 25 3987 -187 
Q 3675 -400 3200 -650 
Q 3075 -425 2850 -300 
Q 3225 -150 3650 125 
Q 4075 400 4300 675 
Q 4125 1025 3962 1425 
Q 3800 1825 3675 2475 
Q 3600 2275 3425 1950 
Q 3250 2050 3000 2150 
Q 3400 2850 3650 3675 
Q 3900 4500 3975 5100 
Q 4275 4975 4525 4925 
z
M 2100 2250 
Q 2000 2150 1875 1925 
L 3250 1925 
Q 3100 1300 2725 675 
Q 3125 525 3350 400 
Q 3225 225 3125 25 
Q 2900 175 2450 325 
Q 1950 -225 725 -650 
Q 600 -375 400 -275 
Q 1575 0 2000 475 
Q 1300 650 850 775 
Q 1000 1000 1250 1525 
Q 1000 1525 425 1500 
L 425 1950 
Q 900 1925 1400 1925 
Q 1500 2150 1550 2425 
Q 1825 2325 2100 2250 
z
M 1775 3950 
Q 1775 4550 1750 5100 
L 2250 5100 
Q 2225 4575 2225 3950 
Q 3075 3950 3425 3975 
L 3425 3525 
Q 3075 3550 2225 3550 
Q 2225 2825 2250 2425 
L 1750 2425 
Q 1775 2775 1775 3300 
Q 1650 3100 1300 2787 
Q 950 2475 650 2300 
Q 525 2525 275 2625 
Q 500 2700 875 2975 
Q 1250 3250 1450 3550 
Q 950 3550 500 3525 
L 500 3975 
Q 925 3950 1775 3950 
z
M 3975 3175 
Q 4200 1700 4600 1125 
Q 4850 1700 4937 2287 
Q 5025 2875 5050 3425 
L 4075 3425 
L 3975 3175 
z
M 1450 1000 
Q 1750 925 2275 800 
Q 2475 1050 2650 1525 
L 1725 1525 
Q 1600 1275 1450 1000 
z
M 3325 4825 
Q 3200 4625 3125 4450 
Q 3050 4275 2925 4025 
Q 2725 4125 2525 4175 
Q 2725 4500 2900 5000 
Q 3150 4875 3325 4825 
z
M 2575 3375 
Q 2900 3050 3200 2725 
Q 3050 2600 2875 2425 
Q 2525 2850 2300 3100 
Q 2450 3225 2575 3375 
z
M 925 5000 
Q 1275 4650 1500 4300 
L 1125 4075 
Q 950 4425 600 4725 
Q 825 4875 925 5000 
z
" transform="scale(0.015625)"/>
      </defs>
      <use xlink:href="#SimHei-5468"/>
      <use xlink:href="#SimHei-6570" x="100"/>
     </g>
    </g>
   </g>
   <g id="matplotlib.axis_2">
    <g id="ytick_1">
     <g id="line2d_17">
      <path d="M 90 376.028054 
L 648 376.028054 
" clip-path="url(#p9aa93168c5)" style="fill: none; stroke: #b0b0b0; stroke-width: 0.8; stroke-linecap: square"/>
     </g>
     <g id="line2d_18">
      <defs>
       <path id="m113ab54e42" d="M 0 0 
L -3.5 0 
" style="stroke: #000000; stroke-width: 0.8"/>
      </defs>
      <g>
       <use xlink:href="#m113ab54e42" x="90" y="376.028054" style="stroke: #000000; stroke-width: 0.8"/>
      </g>
     </g>
     <g id="text_10">
      <!-- 0 -->
      <g transform="translate(78 379.465554) scale(0.1 -0.1)">
       <use xlink:href="#SimHei-30"/>
      </g>
     </g>
    </g>
    <g id="ytick_2">
     <g id="line2d_19">
      <path d="M 90 332.567805 
L 648 332.567805 
" clip-path="url(#p9aa93168c5)" style="fill: none; stroke: #b0b0b0; stroke-width: 0.8; stroke-linecap: square"/>
     </g>
     <g id="line2d_20">
      <g>
       <use xlink:href="#m113ab54e42" x="90" y="332.567805" style="stroke: #000000; stroke-width: 0.8"/>
      </g>
     </g>
     <g id="text_11">
      <!-- 2500 -->
      <g transform="translate(63 336.005305) scale(0.1 -0.1)">
       <use xlink:href="#SimHei-32"/>
       <use xlink:href="#SimHei-35" x="50"/>
       <use xlink:href="#SimHei-30" x="100"/>
       <use xlink:href="#SimHei-30" x="150"/>
      </g>
     </g>
    </g>
    <g id="ytick_3">
     <g id="line2d_21">
      <path d="M 90 289.107557 
L 648 289.107557 
" clip-path="url(#p9aa93168c5)" style="fill: none; stroke: #b0b0b0; stroke-width: 0.8; stroke-linecap: square"/>
     </g>
     <g id="line2d_22">
      <g>
       <use xlink:href="#m113ab54e42" x="90" y="289.107557" style="stroke: #000000; stroke-width: 0.8"/>
      </g>
     </g>
     <g id="text_12">
      <!-- 5000 -->
      <g transform="translate(63 292.545057) scale(0.1 -0.1)">
       <use xlink:href="#SimHei-35"/>
       <use xlink:href="#SimHei-30" x="50"/>
       <use xlink:href="#SimHei-30" x="100"/>
       <use xlink:href="#SimHei-30" x="150"/>
      </g>
     </g>
    </g>
    <g id="ytick_4">
     <g id="line2d_23">
      <path d="M 90 245.647309 
L 648 245.647309 
" clip-path="url(#p9aa93168c5)" style="fill: none; stroke: #b0b0b0; stroke-width: 0.8; stroke-linecap: square"/>
     </g>
     <g id="line2d_24">
      <g>
       <use xlink:href="#m113ab54e42" x="90" y="245.647309" style="stroke: #000000; stroke-width: 0.8"/>
      </g>
     </g>
     <g id="text_13">
      <!-- 7500 -->
      <g transform="translate(63 249.084809) scale(0.1 -0.1)">
       <use xlink:href="#SimHei-37"/>
       <use xlink:href="#SimHei-35" x="50"/>
       <use xlink:href="#SimHei-30" x="100"/>
       <use xlink:href="#SimHei-30" x="150"/>
      </g>
     </g>
    </g>
    <g id="ytick_5">
     <g id="line2d_25">
      <path d="M 90 202.18706 
L 648 202.18706 
" clip-path="url(#p9aa93168c5)" style="fill: none; stroke: #b0b0b0; stroke-width: 0.8; stroke-linecap: square"/>
     </g>
     <g id="line2d_26">
      <g>
       <use xlink:href="#m113ab54e42" x="90" y="202.18706" style="stroke: #000000; stroke-width: 0.8"/>
      </g>
     </g>
     <g id="text_14">
      <!-- 10000 -->
      <g transform="translate(58 205.62456) scale(0.1 -0.1)">
       <use xlink:href="#SimHei-31"/>
       <use xlink:href="#SimHei-30" x="50"/>
       <use xlink:href="#SimHei-30" x="100"/>
       <use xlink:href="#SimHei-30" x="150"/>
       <use xlink:href="#SimHei-30" x="200"/>
      </g>
     </g>
    </g>
    <g id="ytick_6">
     <g id="line2d_27">
      <path d="M 90 158.726812 
L 648 158.726812 
" clip-path="url(#p9aa93168c5)" style="fill: none; stroke: #b0b0b0; stroke-width: 0.8; stroke-linecap: square"/>
     </g>
     <g id="line2d_28">
      <g>
       <use xlink:href="#m113ab54e42" x="90" y="158.726812" style="stroke: #000000; stroke-width: 0.8"/>
      </g>
     </g>
     <g id="text_15">
      <!-- 12500 -->
      <g transform="translate(58 162.164312) scale(0.1 -0.1)">
       <use xlink:href="#SimHei-31"/>
       <use xlink:href="#SimHei-32" x="50"/>
       <use xlink:href="#SimHei-35" x="100"/>
       <use xlink:href="#SimHei-30" x="150"/>
       <use xlink:href="#SimHei-30" x="200"/>
      </g>
     </g>
    </g>
    <g id="ytick_7">
     <g id="line2d_29">
      <path d="M 90 115.266563 
L 648 115.266563 
" clip-path="url(#p9aa93168c5)" style="fill: none; stroke: #b0b0b0; stroke-width: 0.8; stroke-linecap: square"/>
     </g>
     <g id="line2d_30">
      <g>
       <use xlink:href="#m113ab54e42" x="90" y="115.266563" style="stroke: #000000; stroke-width: 0.8"/>
      </g>
     </g>
     <g id="text_16">
      <!-- 15000 -->
      <g transform="translate(58 118.704063) scale(0.1 -0.1)">
       <use xlink:href="#SimHei-31"/>
       <use xlink:href="#SimHei-35" x="50"/>
       <use xlink:href="#SimHei-30" x="100"/>
       <use xlink:href="#SimHei-30" x="150"/>
       <use xlink:href="#SimHei-30" x="200"/>
      </g>
     </g>
    </g>
    <g id="ytick_8">
     <g id="line2d_31">
      <path d="M 90 71.806315 
L 648 71.806315 
" clip-path="url(#p9aa93168c5)" style="fill: none; stroke: #b0b0b0; stroke-width: 0.8; stroke-linecap: square"/>
     </g>
     <g id="line2d_32">
      <g>
       <use xlink:href="#m113ab54e42" x="90" y="71.806315" style="stroke: #000000; stroke-width: 0.8"/>
      </g>
     </g>
     <g id="text_17">
      <!-- 17500 -->
      <g transform="translate(58 75.243815) scale(0.1 -0.1)">
       <use xlink:href="#SimHei-31"/>
       <use xlink:href="#SimHei-37" x="50"/>
       <use xlink:href="#SimHei-35" x="100"/>
       <use xlink:href="#SimHei-30" x="150"/>
       <use xlink:href="#SimHei-30" x="200"/>
      </g>
     </g>
    </g>
    <g id="text_18">
     <!-- 收益 -->
     <g transform="translate(52.75 228.16) rotate(-90) scale(0.1 -0.1)">
      <defs>
       <path id="SimHei-6536" d="M 4250 5050 
Q 4125 4850 3750 4050 
L 5150 4050 
Q 5675 4050 6125 4075 
L 6125 3600 
Q 5675 3625 5300 3625 
Q 5225 2625 5025 1975 
Q 4825 1325 4575 900 
Q 4900 500 5287 275 
Q 5675 50 6200 -75 
Q 5900 -275 5800 -550 
Q 5300 -350 4950 -100 
Q 4600 150 4275 525 
Q 3800 0 2775 -625 
Q 2650 -425 2300 -225 
Q 3275 150 3950 925 
Q 3775 1325 3612 1787 
Q 3450 2250 3250 3000 
Q 2975 2450 2825 2275 
Q 2650 2400 2425 2525 
Q 2775 3025 3137 3837 
Q 3500 4650 3625 5250 
Q 3925 5125 4250 5050 
z
M 975 4275 
Q 925 3950 925 3450 
L 925 1575 
L 1775 1725 
L 1775 4425 
Q 1775 4775 1750 5150 
L 2250 5150 
Q 2225 4850 2225 4450 
L 2225 300 
Q 2225 -50 2250 -550 
L 1750 -550 
Q 1775 -25 1775 350 
L 1775 1350 
Q 625 1050 500 925 
Q 375 1125 225 1350 
Q 450 1475 450 1800 
L 450 3575 
Q 450 3925 425 4275 
L 975 4275 
z
M 3725 3150 
Q 3800 2700 3962 2212 
Q 4125 1725 4300 1375 
Q 4725 2150 4825 3625 
L 3575 3625 
Q 3400 3275 3300 3100 
L 3725 3150 
z
" transform="scale(0.015625)"/>
       <path id="SimHei-76ca" d="M 2825 2925 
Q 2425 2775 2012 2487 
Q 1600 2200 1225 1975 
L 5275 1975 
Q 5250 1575 5250 1000 
L 5250 -50 
Q 5800 -50 6175 -25 
L 6175 -525 
Q 5725 -500 5250 -500 
L 1325 -500 
Q 700 -500 250 -525 
L 250 -25 
Q 600 -50 1175 -50 
L 1175 1050 
Q 1175 1575 1150 1925 
Q 1000 1800 800 1700 
Q 650 1950 425 2125 
Q 800 2275 1312 2600 
Q 1825 2925 2325 3400 
Q 2550 3150 2825 2925 
z
M 4725 5050 
Q 4575 4900 4462 4637 
Q 4350 4375 4175 4075 
L 4625 4075 
Q 5350 4075 5900 4100 
L 5900 3625 
Q 5350 3650 4625 3650 
L 1975 3650 
Q 1350 3650 550 3625 
L 550 4100 
Q 1175 4075 1975 4075 
L 3675 4075 
Q 3775 4300 3887 4625 
Q 4000 4950 4125 5250 
L 4725 5050 
z
M 3600 -50 
L 3600 1575 
L 2800 1575 
L 2800 -50 
L 3600 -50 
z
M 4800 -50 
L 4800 1575 
L 4025 1575 
L 4025 -50 
L 4800 -50 
z
M 2375 -50 
L 2375 1575 
L 1625 1575 
L 1625 -50 
L 2375 -50 
z
M 3900 3350 
Q 4375 3150 4900 2925 
Q 5425 2700 5900 2500 
Q 5700 2300 5550 2000 
Q 5025 2300 4512 2537 
Q 4000 2775 3625 2900 
Q 3750 3075 3900 3350 
z
M 2150 5250 
Q 2375 4925 2650 4350 
Q 2425 4275 2150 4125 
Q 1950 4650 1675 5025 
Q 1875 5100 2150 5250 
z
" transform="scale(0.015625)"/>
      </defs>
      <use xlink:href="#SimHei-6536"/>
      <use xlink:href="#SimHei-76ca" x="100"/>
     </g>
    </g>
   </g>
   <g id="line2d_33">
    <path d="M 115.363636 356.379936 
L 118.262338 349.831201 
L 121.161039 349.831201 
L 135.654545 330.500295 
L 138.553247 356.570437 
L 141.451948 363.056309 
L 144.350649 337.11282 
L 147.249351 350.084557 
L 153.046753 343.598683 
L 155.945455 363.069315 
L 170.438961 363.069315 
L 176.236364 363.069315 
L 179.135065 363.069315 
L 184.932468 337.151838 
L 190.72987 363.069315 
L 196.527273 272.377175 
L 199.425974 363.069381 
L 202.324675 363.069381 
L 205.223377 343.631372 
L 211.020779 363.069381 
L 216.818182 350.152896 
L 219.716883 363.111569 
L 222.615584 324.363007 
L 225.514286 330.82192 
L 228.412987 350.195977 
L 231.311688 356.653997 
L 234.21039 356.653997 
L 237.109091 363.112016 
L 242.906494 350.195977 
L 245.805195 356.517432 
L 248.703896 350.013891 
L 251.602597 343.510351 
L 254.501299 245.957242 
L 257.4 317.496189 
L 260.298701 312.068232 
L 263.197403 350.444125 
L 266.096104 331.256179 
L 268.994805 324.860196 
L 289.285714 331.256179 
L 292.184416 312.068232 
L 295.083117 305.71626 
L 297.981818 363.244091 
L 300.880519 363.244091 
L 303.779221 363.244091 
L 306.677922 350.460129 
L 309.576623 331.284185 
L 315.374026 350.460129 
L 321.171429 363.244091 
L 324.07013 363.250532 
L 326.968831 363.250532 
L 332.766234 344.08425 
L 341.462338 363.250532 
L 344.361039 363.250532 
L 350.158442 344.102155 
L 353.057143 350.487335 
L 355.955844 363.261582 
L 358.854545 305.675431 
L 361.753247 318.167845 
L 364.651948 363.17023 
L 367.550649 356.741318 
L 370.449351 279.593239 
L 373.348052 350.317603 
L 376.246753 356.745216 
L 379.145455 343.88999 
L 382.044156 337.462378 
L 384.942857 350.317593 
L 387.841558 350.317593 
L 390.74026 350.317593 
L 393.638961 363.17721 
L 399.436364 337.471709 
L 402.335065 337.470438 
L 405.233766 363.174668 
L 408.132468 343.865556 
L 416.828571 363.109964 
L 419.727273 324.483125 
L 422.625974 356.65092 
L 425.524675 337.247669 
L 428.423377 343.747528 
L 437.119481 343.738473 
L 440.018182 331.032358 
L 442.916883 363.170747 
L 445.815584 363.170747 
L 454.511688 324.674911 
L 457.41039 363.170747 
L 460.309091 350.338802 
L 463.207792 369.36 
L 466.106494 350.829623 
L 471.903896 344.361689 
L 477.701299 363.432394 
L 483.498701 363.541362 
L 486.397403 363.541362 
L 489.296104 363.432394 
L 492.194805 363.561755 
L 497.992208 326.200419 
L 500.890909 363.561755 
L 503.78961 363.561755 
L 506.688312 332.457118 
L 509.587013 338.883783 
L 512.485714 233.689218 
L 515.384416 91.385824 
L 518.283117 326.47857 
L 521.181818 252.359899 
L 524.080519 66.96 
L 526.979221 338.94044 
L 529.877922 351.302968 
L 535.675325 252.401966 
L 538.574026 363.665339 
L 541.472727 326.57794 
L 544.371429 351.302823 
L 547.27013 363.665525 
L 550.168831 338.937583 
L 553.067532 246.170031 
L 555.966234 314.191074 
L 558.864935 351.293192 
L 564.662338 363.660797 
L 567.561039 351.293192 
L 570.45974 363.660797 
L 584.953247 350.208633 
L 587.851948 337.364878 
L 590.750649 350.208633 
L 593.649351 350.208633 
L 596.548052 363.052388 
L 605.244156 350.340544 
L 611.041558 363.100473 
L 619.737662 337.044107 
L 622.636364 337.24531 
" clip-path="url(#p9aa93168c5)" style="fill: none; stroke: #008000; stroke-width: 1.5; stroke-linecap: square"/>
    <defs>
     <path id="mefe80cb6e6" d="M 0 3 
C 0.795609 3 1.55874 2.683901 2.12132 2.12132 
C 2.683901 1.55874 3 0.795609 3 0 
C 3 -0.795609 2.683901 -1.55874 2.12132 -2.12132 
C 1.55874 -2.683901 0.795609 -3 0 -3 
C -0.795609 -3 -1.55874 -2.683901 -2.12132 -2.12132 
C -2.683901 -1.55874 -3 -0.795609 -3 0 
C -3 0.795609 -2.683901 1.55874 -2.12132 2.12132 
C -1.55874 2.683901 -0.795609 3 0 3 
z
" style="stroke: #008000"/>
    </defs>
    <g clip-path="url(#p9aa93168c5)">
     <use xlink:href="#mefe80cb6e6" x="115.363636" y="356.379936" style="fill: #008000; stroke: #008000"/>
     <use xlink:href="#mefe80cb6e6" x="118.262338" y="349.831201" style="fill: #008000; stroke: #008000"/>
     <use xlink:href="#mefe80cb6e6" x="121.161039" y="349.831201" style="fill: #008000; stroke: #008000"/>
     <use xlink:href="#mefe80cb6e6" x="135.654545" y="330.500295" style="fill: #008000; stroke: #008000"/>
     <use xlink:href="#mefe80cb6e6" x="138.553247" y="356.570437" style="fill: #008000; stroke: #008000"/>
     <use xlink:href="#mefe80cb6e6" x="141.451948" y="363.056309" style="fill: #008000; stroke: #008000"/>
     <use xlink:href="#mefe80cb6e6" x="144.350649" y="337.11282" style="fill: #008000; stroke: #008000"/>
     <use xlink:href="#mefe80cb6e6" x="147.249351" y="350.084557" style="fill: #008000; stroke: #008000"/>
     <use xlink:href="#mefe80cb6e6" x="153.046753" y="343.598683" style="fill: #008000; stroke: #008000"/>
     <use xlink:href="#mefe80cb6e6" x="155.945455" y="363.069315" style="fill: #008000; stroke: #008000"/>
     <use xlink:href="#mefe80cb6e6" x="170.438961" y="363.069315" style="fill: #008000; stroke: #008000"/>
     <use xlink:href="#mefe80cb6e6" x="176.236364" y="363.069315" style="fill: #008000; stroke: #008000"/>
     <use xlink:href="#mefe80cb6e6" x="179.135065" y="363.069315" style="fill: #008000; stroke: #008000"/>
     <use xlink:href="#mefe80cb6e6" x="184.932468" y="337.151838" style="fill: #008000; stroke: #008000"/>
     <use xlink:href="#mefe80cb6e6" x="190.72987" y="363.069315" style="fill: #008000; stroke: #008000"/>
     <use xlink:href="#mefe80cb6e6" x="196.527273" y="272.377175" style="fill: #008000; stroke: #008000"/>
     <use xlink:href="#mefe80cb6e6" x="199.425974" y="363.069381" style="fill: #008000; stroke: #008000"/>
     <use xlink:href="#mefe80cb6e6" x="202.324675" y="363.069381" style="fill: #008000; stroke: #008000"/>
     <use xlink:href="#mefe80cb6e6" x="205.223377" y="343.631372" style="fill: #008000; stroke: #008000"/>
     <use xlink:href="#mefe80cb6e6" x="211.020779" y="363.069381" style="fill: #008000; stroke: #008000"/>
     <use xlink:href="#mefe80cb6e6" x="216.818182" y="350.152896" style="fill: #008000; stroke: #008000"/>
     <use xlink:href="#mefe80cb6e6" x="219.716883" y="363.111569" style="fill: #008000; stroke: #008000"/>
     <use xlink:href="#mefe80cb6e6" x="222.615584" y="324.363007" style="fill: #008000; stroke: #008000"/>
     <use xlink:href="#mefe80cb6e6" x="225.514286" y="330.82192" style="fill: #008000; stroke: #008000"/>
     <use xlink:href="#mefe80cb6e6" x="228.412987" y="350.195977" style="fill: #008000; stroke: #008000"/>
     <use xlink:href="#mefe80cb6e6" x="231.311688" y="356.653997" style="fill: #008000; stroke: #008000"/>
     <use xlink:href="#mefe80cb6e6" x="234.21039" y="356.653997" style="fill: #008000; stroke: #008000"/>
     <use xlink:href="#mefe80cb6e6" x="237.109091" y="363.112016" style="fill: #008000; stroke: #008000"/>
     <use xlink:href="#mefe80cb6e6" x="242.906494" y="350.195977" style="fill: #008000; stroke: #008000"/>
     <use xlink:href="#mefe80cb6e6" x="245.805195" y="356.517432" style="fill: #008000; stroke: #008000"/>
     <use xlink:href="#mefe80cb6e6" x="248.703896" y="350.013891" style="fill: #008000; stroke: #008000"/>
     <use xlink:href="#mefe80cb6e6" x="251.602597" y="343.510351" style="fill: #008000; stroke: #008000"/>
     <use xlink:href="#mefe80cb6e6" x="254.501299" y="245.957242" style="fill: #008000; stroke: #008000"/>
     <use xlink:href="#mefe80cb6e6" x="257.4" y="317.496189" style="fill: #008000; stroke: #008000"/>
     <use xlink:href="#mefe80cb6e6" x="260.298701" y="312.068232" style="fill: #008000; stroke: #008000"/>
     <use xlink:href="#mefe80cb6e6" x="263.197403" y="350.444125" style="fill: #008000; stroke: #008000"/>
     <use xlink:href="#mefe80cb6e6" x="266.096104" y="331.256179" style="fill: #008000; stroke: #008000"/>
     <use xlink:href="#mefe80cb6e6" x="268.994805" y="324.860196" style="fill: #008000; stroke: #008000"/>
     <use xlink:href="#mefe80cb6e6" x="289.285714" y="331.256179" style="fill: #008000; stroke: #008000"/>
     <use xlink:href="#mefe80cb6e6" x="292.184416" y="312.068232" style="fill: #008000; stroke: #008000"/>
     <use xlink:href="#mefe80cb6e6" x="295.083117" y="305.71626" style="fill: #008000; stroke: #008000"/>
     <use xlink:href="#mefe80cb6e6" x="297.981818" y="363.244091" style="fill: #008000; stroke: #008000"/>
     <use xlink:href="#mefe80cb6e6" x="300.880519" y="363.244091" style="fill: #008000; stroke: #008000"/>
     <use xlink:href="#mefe80cb6e6" x="303.779221" y="363.244091" style="fill: #008000; stroke: #008000"/>
     <use xlink:href="#mefe80cb6e6" x="306.677922" y="350.460129" style="fill: #008000; stroke: #008000"/>
     <use xlink:href="#mefe80cb6e6" x="309.576623" y="331.284185" style="fill: #008000; stroke: #008000"/>
     <use xlink:href="#mefe80cb6e6" x="315.374026" y="350.460129" style="fill: #008000; stroke: #008000"/>
     <use xlink:href="#mefe80cb6e6" x="321.171429" y="363.244091" style="fill: #008000; stroke: #008000"/>
     <use xlink:href="#mefe80cb6e6" x="324.07013" y="363.250532" style="fill: #008000; stroke: #008000"/>
     <use xlink:href="#mefe80cb6e6" x="326.968831" y="363.250532" style="fill: #008000; stroke: #008000"/>
     <use xlink:href="#mefe80cb6e6" x="332.766234" y="344.08425" style="fill: #008000; stroke: #008000"/>
     <use xlink:href="#mefe80cb6e6" x="341.462338" y="363.250532" style="fill: #008000; stroke: #008000"/>
     <use xlink:href="#mefe80cb6e6" x="344.361039" y="363.250532" style="fill: #008000; stroke: #008000"/>
     <use xlink:href="#mefe80cb6e6" x="350.158442" y="344.102155" style="fill: #008000; stroke: #008000"/>
     <use xlink:href="#mefe80cb6e6" x="353.057143" y="350.487335" style="fill: #008000; stroke: #008000"/>
     <use xlink:href="#mefe80cb6e6" x="355.955844" y="363.261582" style="fill: #008000; stroke: #008000"/>
     <use xlink:href="#mefe80cb6e6" x="358.854545" y="305.675431" style="fill: #008000; stroke: #008000"/>
     <use xlink:href="#mefe80cb6e6" x="361.753247" y="318.167845" style="fill: #008000; stroke: #008000"/>
     <use xlink:href="#mefe80cb6e6" x="364.651948" y="363.17023" style="fill: #008000; stroke: #008000"/>
     <use xlink:href="#mefe80cb6e6" x="367.550649" y="356.741318" style="fill: #008000; stroke: #008000"/>
     <use xlink:href="#mefe80cb6e6" x="370.449351" y="279.593239" style="fill: #008000; stroke: #008000"/>
     <use xlink:href="#mefe80cb6e6" x="373.348052" y="350.317603" style="fill: #008000; stroke: #008000"/>
     <use xlink:href="#mefe80cb6e6" x="376.246753" y="356.745216" style="fill: #008000; stroke: #008000"/>
     <use xlink:href="#mefe80cb6e6" x="379.145455" y="343.88999" style="fill: #008000; stroke: #008000"/>
     <use xlink:href="#mefe80cb6e6" x="382.044156" y="337.462378" style="fill: #008000; stroke: #008000"/>
     <use xlink:href="#mefe80cb6e6" x="384.942857" y="350.317593" style="fill: #008000; stroke: #008000"/>
     <use xlink:href="#mefe80cb6e6" x="387.841558" y="350.317593" style="fill: #008000; stroke: #008000"/>
     <use xlink:href="#mefe80cb6e6" x="390.74026" y="350.317593" style="fill: #008000; stroke: #008000"/>
     <use xlink:href="#mefe80cb6e6" x="393.638961" y="363.17721" style="fill: #008000; stroke: #008000"/>
     <use xlink:href="#mefe80cb6e6" x="399.436364" y="337.471709" style="fill: #008000; stroke: #008000"/>
     <use xlink:href="#mefe80cb6e6" x="402.335065" y="337.470438" style="fill: #008000; stroke: #008000"/>
     <use xlink:href="#mefe80cb6e6" x="405.233766" y="363.174668" style="fill: #008000; stroke: #008000"/>
     <use xlink:href="#mefe80cb6e6" x="408.132468" y="343.865556" style="fill: #008000; stroke: #008000"/>
     <use xlink:href="#mefe80cb6e6" x="416.828571" y="363.109964" style="fill: #008000; stroke: #008000"/>
     <use xlink:href="#mefe80cb6e6" x="419.727273" y="324.483125" style="fill: #008000; stroke: #008000"/>
     <use xlink:href="#mefe80cb6e6" x="422.625974" y="356.65092" style="fill: #008000; stroke: #008000"/>
     <use xlink:href="#mefe80cb6e6" x="425.524675" y="337.247669" style="fill: #008000; stroke: #008000"/>
     <use xlink:href="#mefe80cb6e6" x="428.423377" y="343.747528" style="fill: #008000; stroke: #008000"/>
     <use xlink:href="#mefe80cb6e6" x="437.119481" y="343.738473" style="fill: #008000; stroke: #008000"/>
     <use xlink:href="#mefe80cb6e6" x="440.018182" y="331.032358" style="fill: #008000; stroke: #008000"/>
     <use xlink:href="#mefe80cb6e6" x="442.916883" y="363.170747" style="fill: #008000; stroke: #008000"/>
     <use xlink:href="#mefe80cb6e6" x="445.815584" y="363.170747" style="fill: #008000; stroke: #008000"/>
     <use xlink:href="#mefe80cb6e6" x="454.511688" y="324.674911" style="fill: #008000; stroke: #008000"/>
     <use xlink:href="#mefe80cb6e6" x="457.41039" y="363.170747" style="fill: #008000; stroke: #008000"/>
     <use xlink:href="#mefe80cb6e6" x="460.309091" y="350.338802" style="fill: #008000; stroke: #008000"/>
     <use xlink:href="#mefe80cb6e6" x="463.207792" y="369.36" style="fill: #008000; stroke: #008000"/>
     <use xlink:href="#mefe80cb6e6" x="466.106494" y="350.829623" style="fill: #008000; stroke: #008000"/>
     <use xlink:href="#mefe80cb6e6" x="471.903896" y="344.361689" style="fill: #008000; stroke: #008000"/>
     <use xlink:href="#mefe80cb6e6" x="477.701299" y="363.432394" style="fill: #008000; stroke: #008000"/>
     <use xlink:href="#mefe80cb6e6" x="483.498701" y="363.541362" style="fill: #008000; stroke: #008000"/>
     <use xlink:href="#mefe80cb6e6" x="486.397403" y="363.541362" style="fill: #008000; stroke: #008000"/>
     <use xlink:href="#mefe80cb6e6" x="489.296104" y="363.432394" style="fill: #008000; stroke: #008000"/>
     <use xlink:href="#mefe80cb6e6" x="492.194805" y="363.561755" style="fill: #008000; stroke: #008000"/>
     <use xlink:href="#mefe80cb6e6" x="497.992208" y="326.200419" style="fill: #008000; stroke: #008000"/>
     <use xlink:href="#mefe80cb6e6" x="500.890909" y="363.561755" style="fill: #008000; stroke: #008000"/>
     <use xlink:href="#mefe80cb6e6" x="503.78961" y="363.561755" style="fill: #008000; stroke: #008000"/>
     <use xlink:href="#mefe80cb6e6" x="506.688312" y="332.457118" style="fill: #008000; stroke: #008000"/>
     <use xlink:href="#mefe80cb6e6" x="509.587013" y="338.883783" style="fill: #008000; stroke: #008000"/>
     <use xlink:href="#mefe80cb6e6" x="512.485714" y="233.689218" style="fill: #008000; stroke: #008000"/>
     <use xlink:href="#mefe80cb6e6" x="515.384416" y="91.385824" style="fill: #008000; stroke: #008000"/>
     <use xlink:href="#mefe80cb6e6" x="518.283117" y="326.47857" style="fill: #008000; stroke: #008000"/>
     <use xlink:href="#mefe80cb6e6" x="521.181818" y="252.359899" style="fill: #008000; stroke: #008000"/>
     <use xlink:href="#mefe80cb6e6" x="524.080519" y="66.96" style="fill: #008000; stroke: #008000"/>
     <use xlink:href="#mefe80cb6e6" x="526.979221" y="338.94044" style="fill: #008000; stroke: #008000"/>
     <use xlink:href="#mefe80cb6e6" x="529.877922" y="351.302968" style="fill: #008000; stroke: #008000"/>
     <use xlink:href="#mefe80cb6e6" x="535.675325" y="252.401966" style="fill: #008000; stroke: #008000"/>
     <use xlink:href="#mefe80cb6e6" x="538.574026" y="363.665339" style="fill: #008000; stroke: #008000"/>
     <use xlink:href="#mefe80cb6e6" x="541.472727" y="326.57794" style="fill: #008000; stroke: #008000"/>
     <use xlink:href="#mefe80cb6e6" x="544.371429" y="351.302823" style="fill: #008000; stroke: #008000"/>
     <use xlink:href="#mefe80cb6e6" x="547.27013" y="363.665525" style="fill: #008000; stroke: #008000"/>
     <use xlink:href="#mefe80cb6e6" x="550.168831" y="338.937583" style="fill: #008000; stroke: #008000"/>
     <use xlink:href="#mefe80cb6e6" x="553.067532" y="246.170031" style="fill: #008000; stroke: #008000"/>
     <use xlink:href="#mefe80cb6e6" x="555.966234" y="314.191074" style="fill: #008000; stroke: #008000"/>
     <use xlink:href="#mefe80cb6e6" x="558.864935" y="351.293192" style="fill: #008000; stroke: #008000"/>
     <use xlink:href="#mefe80cb6e6" x="564.662338" y="363.660797" style="fill: #008000; stroke: #008000"/>
     <use xlink:href="#mefe80cb6e6" x="567.561039" y="351.293192" style="fill: #008000; stroke: #008000"/>
     <use xlink:href="#mefe80cb6e6" x="570.45974" y="363.660797" style="fill: #008000; stroke: #008000"/>
     <use xlink:href="#mefe80cb6e6" x="584.953247" y="350.208633" style="fill: #008000; stroke: #008000"/>
     <use xlink:href="#mefe80cb6e6" x="587.851948" y="337.364878" style="fill: #008000; stroke: #008000"/>
     <use xlink:href="#mefe80cb6e6" x="590.750649" y="350.208633" style="fill: #008000; stroke: #008000"/>
     <use xlink:href="#mefe80cb6e6" x="593.649351" y="350.208633" style="fill: #008000; stroke: #008000"/>
     <use xlink:href="#mefe80cb6e6" x="596.548052" y="363.052388" style="fill: #008000; stroke: #008000"/>
     <use xlink:href="#mefe80cb6e6" x="605.244156" y="350.340544" style="fill: #008000; stroke: #008000"/>
     <use xlink:href="#mefe80cb6e6" x="611.041558" y="363.100473" style="fill: #008000; stroke: #008000"/>
     <use xlink:href="#mefe80cb6e6" x="619.737662" y="337.044107" style="fill: #008000; stroke: #008000"/>
     <use xlink:href="#mefe80cb6e6" x="622.636364" y="337.24531" style="fill: #008000; stroke: #008000"/>
    </g>
   </g>
   <g id="patch_3">
    <path d="M 90 384.48 
L 90 51.84 
" style="fill: none; stroke: #000000; stroke-width: 0.8; stroke-linejoin: miter; stroke-linecap: square"/>
   </g>
   <g id="patch_4">
    <path d="M 648 384.48 
L 648 51.84 
" style="fill: none; stroke: #000000; stroke-width: 0.8; stroke-linejoin: miter; stroke-linecap: square"/>
   </g>
   <g id="patch_5">
    <path d="M 90 384.48 
L 648 384.48 
" style="fill: none; stroke: #000000; stroke-width: 0.8; stroke-linejoin: miter; stroke-linecap: square"/>
   </g>
   <g id="patch_6">
    <path d="M 90 51.84 
L 648 51.84 
" style="fill: none; stroke: #000000; stroke-width: 0.8; stroke-linejoin: miter; stroke-linecap: square"/>
   </g>
   <g id="text_19">
    <!-- 6004020622 每周收益 -->
    <g transform="translate(312 45.84) scale(0.12 -0.12)">
     <defs>
      <path id="SimHei-36" d="M 250 1612 
Q 275 1975 387 2225 
Q 500 2475 725 2850 
L 1750 4450 
L 2325 4450 
L 1275 2800 
Q 1950 2975 2350 2750 
Q 2750 2525 2887 2237 
Q 3025 1950 3037 1612 
Q 3050 1275 2937 950 
Q 2825 625 2537 362 
Q 2250 100 1737 75 
Q 1225 50 862 262 
Q 500 475 362 862 
Q 225 1250 250 1612 
z
M 1025 787 
Q 1250 550 1625 525 
Q 2000 500 2250 775 
Q 2500 1050 2500 1575 
Q 2500 2100 2187 2300 
Q 1875 2500 1487 2450 
Q 1100 2400 925 2075 
Q 750 1750 775 1387 
Q 800 1025 1025 787 
z
" transform="scale(0.015625)"/>
      <path id="SimHei-34" d="M 2000 1100 
L 75 1100 
L 75 1525 
L 2100 4450 
L 2475 4450 
L 2475 1525 
L 3075 1525 
L 3075 1100 
L 2475 1100 
L 2475 150 
L 2000 150 
L 2000 1100 
z
M 2000 1525 
L 2000 3500 
L 600 1525 
L 2000 1525 
z
" transform="scale(0.015625)"/>
      <path id="SimHei-20" transform="scale(0.015625)"/>
      <path id="SimHei-6bcf" d="M 5225 3650 
Q 5175 3150 5150 2675 
L 5125 2200 
Q 5525 2200 6000 2225 
L 6000 1775 
Q 5625 1800 5100 1800 
L 5050 650 
Q 5325 650 5700 675 
L 5700 225 
Q 5400 250 5025 250 
Q 5000 -275 4775 -425 
Q 4550 -575 4000 -650 
Q 3950 -400 3775 -125 
Q 4375 -125 4475 -50 
Q 4575 25 4575 250 
L 1400 250 
L 1500 1100 
L 1550 1800 
L 1275 1800 
Q 825 1800 550 1775 
L 550 2225 
Q 975 2200 1275 2200 
L 1575 2200 
L 1625 2825 
L 1675 3650 
L 5225 3650 
z
M 2350 5000 
Q 2175 4825 2050 4600 
L 4875 4600 
Q 5275 4600 5775 4625 
L 5775 4175 
Q 5275 4200 4875 4200 
L 1825 4200 
L 1375 3625 
Q 1125 3325 775 2975 
Q 600 3175 350 3300 
Q 725 3575 1150 4112 
Q 1575 4650 1825 5250 
Q 2125 5075 2350 5000 
z
M 1975 1800 
L 1875 650 
L 4625 650 
L 4675 1800 
L 2950 1800 
Q 3575 1275 3825 1125 
Q 3625 925 3475 725 
Q 3100 1100 2650 1475 
Q 2775 1675 2875 1800 
L 1975 1800 
z
M 2975 3250 
Q 3125 3150 3287 3012 
Q 3450 2875 3800 2550 
Q 3650 2350 3525 2200 
L 4700 2200 
L 4750 3250 
L 2975 3250 
z
M 2075 3250 
L 2000 2200 
L 3425 2200 
Q 3150 2500 3012 2625 
Q 2875 2750 2700 2900 
Q 2800 3050 2925 3250 
L 2075 3250 
z
" transform="scale(0.015625)"/>
     </defs>
     <use xlink:href="#SimHei-36"/>
     <use xlink:href="#SimHei-30" x="50"/>
     <use xlink:href="#SimHei-30" x="100"/>
     <use xlink:href="#SimHei-34" x="150"/>
     <use xlink:href="#SimHei-30" x="200"/>
     <use xlink:href="#SimHei-32" x="250"/>
     <use xlink:href="#SimHei-30" x="300"/>
     <use xlink:href="#SimHei-36" x="350"/>
     <use xlink:href="#SimHei-32" x="400"/>
     <use xlink:href="#SimHei-32" x="450"/>
     <use xlink:href="#SimHei-20" x="500"/>
     <use xlink:href="#SimHei-6bcf" x="550"/>
     <use xlink:href="#SimHei-5468" x="650"/>
     <use xlink:href="#SimHei-6536" x="750"/>
     <use xlink:href="#SimHei-76ca" x="850"/>
    </g>
   </g>
  </g>
 </g>
 <defs>
  <clipPath id="p9aa93168c5">
   <rect x="90" y="51.84" width="558" height="332.64"/>
  </clipPath>
 </defs>
</svg>
