<?xml version="1.0" encoding="utf-8" standalone="no"?>
<!DOCTYPE svg PUBLIC "-//W3C//DTD SVG 1.1//EN"
  "http://www.w3.org/Graphics/SVG/1.1/DTD/svg11.dtd">
<svg xmlns:xlink="http://www.w3.org/1999/xlink" width="720pt" height="432pt" viewBox="0 0 720 432" xmlns="http://www.w3.org/2000/svg" version="1.1">
 <metadata>
  <rdf:RDF xmlns:dc="http://purl.org/dc/elements/1.1/" xmlns:cc="http://creativecommons.org/ns#" xmlns:rdf="http://www.w3.org/1999/02/22-rdf-syntax-ns#">
   <cc:Work>
    <dc:type rdf:resource="http://purl.org/dc/dcmitype/StillImage"/>
    <dc:date>2024-08-17T14:11:32.229824</dc:date>
    <dc:format>image/svg+xml</dc:format>
    <dc:creator>
     <cc:Agent>
      <dc:title>Matplotlib v3.8.0, https://matplotlib.org/</dc:title>
     </cc:Agent>
    </dc:creator>
   </cc:Work>
  </rdf:RDF>
 </metadata>
 <defs>
  <style type="text/css">*{stroke-linejoin: round; stroke-linecap: butt}</style>
 </defs>
 <g id="figure_1">
  <g id="patch_1">
   <path d="M 0 432 
L 720 432 
L 720 0 
L 0 0 
z
" style="fill: #ffffff"/>
  </g>
  <g id="axes_1">
   <g id="patch_2">
    <path d="M 90 384.48 
L 648 384.48 
L 648 51.84 
L 90 51.84 
z
" style="fill: #ffffff"/>
   </g>
   <g id="matplotlib.axis_1">
    <g id="xtick_1">
     <g id="line2d_1">
      <defs>
       <path id="mee9a8700c4" d="M 0 0 
L 0 3.5 
" style="stroke: #000000; stroke-width: 0.8"/>
      </defs>
      <g>
       <use xlink:href="#mee9a8700c4" x="109.430622" y="384.48" style="stroke: #000000; stroke-width: 0.8"/>
      </g>
     </g>
     <g id="text_1">
      <!-- 0 -->
      <g transform="translate(106.930622 398.355) scale(0.1 -0.1)">
       <defs>
        <path id="SimHei-30" d="M 225 2537 
Q 250 3200 412 3587 
Q 575 3975 875 4225 
Q 1175 4475 1612 4475 
Q 2050 4475 2375 4112 
Q 2700 3750 2800 3200 
Q 2900 2650 2862 1937 
Q 2825 1225 2612 775 
Q 2400 325 1975 150 
Q 1550 -25 1125 187 
Q 700 400 525 750 
Q 350 1100 275 1487 
Q 200 1875 225 2537 
z
M 750 2687 
Q 675 2000 800 1462 
Q 925 925 1212 700 
Q 1500 475 1800 612 
Q 2100 750 2237 1162 
Q 2375 1575 2375 2062 
Q 2375 2550 2337 2950 
Q 2300 3350 2112 3675 
Q 1925 4000 1612 4012 
Q 1300 4025 1062 3700 
Q 825 3375 750 2687 
z
" transform="scale(0.015625)"/>
       </defs>
       <use xlink:href="#SimHei-30"/>
      </g>
     </g>
    </g>
    <g id="xtick_2">
     <g id="line2d_2">
      <g>
       <use xlink:href="#mee9a8700c4" x="183.593301" y="384.48" style="stroke: #000000; stroke-width: 0.8"/>
      </g>
     </g>
     <g id="text_2">
      <!-- 25 -->
      <g transform="translate(178.593301 398.355) scale(0.1 -0.1)">
       <defs>
        <path id="SimHei-32" d="M 300 250 
Q 325 625 650 925 
Q 975 1225 1475 1862 
Q 1975 2500 2125 2850 
Q 2275 3200 2237 3450 
Q 2200 3700 2000 3862 
Q 1800 4025 1537 4000 
Q 1275 3975 1037 3800 
Q 800 3625 675 3275 
L 200 3350 
Q 400 3925 712 4187 
Q 1025 4450 1450 4475 
Q 1700 4500 1900 4462 
Q 2100 4425 2312 4287 
Q 2525 4150 2662 3875 
Q 2800 3600 2762 3212 
Q 2725 2825 2375 2287 
Q 2025 1750 1025 600 
L 2825 600 
L 2825 150 
L 300 150 
L 300 250 
z
" transform="scale(0.015625)"/>
        <path id="SimHei-35" d="M 550 1325 
Q 725 650 1150 575 
Q 1575 500 1837 662 
Q 2100 825 2212 1087 
Q 2325 1350 2312 1675 
Q 2300 2000 2137 2225 
Q 1975 2450 1725 2525 
Q 1475 2600 1162 2525 
Q 850 2450 650 2175 
L 225 2225 
Q 275 2375 700 4375 
L 2675 4375 
L 2675 3925 
L 1075 3925 
Q 950 3250 825 2850 
Q 1200 3025 1525 3012 
Q 1850 3000 2150 2862 
Q 2450 2725 2587 2487 
Q 2725 2250 2787 2012 
Q 2850 1775 2837 1500 
Q 2825 1225 2725 937 
Q 2625 650 2425 462 
Q 2225 275 1937 162 
Q 1650 50 1275 75 
Q 900 100 562 350 
Q 225 600 100 1200 
L 550 1325 
z
" transform="scale(0.015625)"/>
       </defs>
       <use xlink:href="#SimHei-32"/>
       <use xlink:href="#SimHei-35" x="50"/>
      </g>
     </g>
    </g>
    <g id="xtick_3">
     <g id="line2d_3">
      <g>
       <use xlink:href="#mee9a8700c4" x="257.755981" y="384.48" style="stroke: #000000; stroke-width: 0.8"/>
      </g>
     </g>
     <g id="text_3">
      <!-- 50 -->
      <g transform="translate(252.755981 398.355) scale(0.1 -0.1)">
       <use xlink:href="#SimHei-35"/>
       <use xlink:href="#SimHei-30" x="50"/>
      </g>
     </g>
    </g>
    <g id="xtick_4">
     <g id="line2d_4">
      <g>
       <use xlink:href="#mee9a8700c4" x="331.91866" y="384.48" style="stroke: #000000; stroke-width: 0.8"/>
      </g>
     </g>
     <g id="text_4">
      <!-- 75 -->
      <g transform="translate(326.91866 398.355) scale(0.1 -0.1)">
       <defs>
        <path id="SimHei-37" d="M 850 150 
Q 1300 2050 2425 3925 
L 275 3925 
L 275 4375 
L 2950 4375 
L 2950 3950 
Q 1775 2050 1400 150 
L 850 150 
z
" transform="scale(0.015625)"/>
       </defs>
       <use xlink:href="#SimHei-37"/>
       <use xlink:href="#SimHei-35" x="50"/>
      </g>
     </g>
    </g>
    <g id="xtick_5">
     <g id="line2d_5">
      <g>
       <use xlink:href="#mee9a8700c4" x="406.08134" y="384.48" style="stroke: #000000; stroke-width: 0.8"/>
      </g>
     </g>
     <g id="text_5">
      <!-- 100 -->
      <g transform="translate(398.58134 398.355) scale(0.1 -0.1)">
       <defs>
        <path id="SimHei-31" d="M 1400 3600 
Q 1075 3275 575 2975 
L 575 3450 
Q 1200 3875 1600 4450 
L 1900 4450 
L 1900 150 
L 1400 150 
L 1400 3600 
z
" transform="scale(0.015625)"/>
       </defs>
       <use xlink:href="#SimHei-31"/>
       <use xlink:href="#SimHei-30" x="50"/>
       <use xlink:href="#SimHei-30" x="100"/>
      </g>
     </g>
    </g>
    <g id="xtick_6">
     <g id="line2d_6">
      <g>
       <use xlink:href="#mee9a8700c4" x="480.244019" y="384.48" style="stroke: #000000; stroke-width: 0.8"/>
      </g>
     </g>
     <g id="text_6">
      <!-- 125 -->
      <g transform="translate(472.744019 398.355) scale(0.1 -0.1)">
       <use xlink:href="#SimHei-31"/>
       <use xlink:href="#SimHei-32" x="50"/>
       <use xlink:href="#SimHei-35" x="100"/>
      </g>
     </g>
    </g>
    <g id="xtick_7">
     <g id="line2d_7">
      <g>
       <use xlink:href="#mee9a8700c4" x="554.406699" y="384.48" style="stroke: #000000; stroke-width: 0.8"/>
      </g>
     </g>
     <g id="text_7">
      <!-- 150 -->
      <g transform="translate(546.906699 398.355) scale(0.1 -0.1)">
       <use xlink:href="#SimHei-31"/>
       <use xlink:href="#SimHei-35" x="50"/>
       <use xlink:href="#SimHei-30" x="100"/>
      </g>
     </g>
    </g>
    <g id="xtick_8">
     <g id="line2d_8">
      <g>
       <use xlink:href="#mee9a8700c4" x="628.569378" y="384.48" style="stroke: #000000; stroke-width: 0.8"/>
      </g>
     </g>
     <g id="text_8">
      <!-- 175 -->
      <g transform="translate(621.069378 398.355) scale(0.1 -0.1)">
       <use xlink:href="#SimHei-31"/>
       <use xlink:href="#SimHei-37" x="50"/>
       <use xlink:href="#SimHei-35" x="100"/>
      </g>
     </g>
    </g>
    <g id="text_9">
     <!-- 周数 -->
     <g transform="translate(359 411.339375) scale(0.1 -0.1)">
      <defs>
       <path id="SimHei-5468" d="M 5600 4925 
Q 5575 4400 5575 3800 
L 5575 50 
Q 5550 -375 5325 -462 
Q 5100 -550 4325 -600 
Q 4300 -400 4125 -75 
Q 4800 -100 4962 -37 
Q 5125 25 5100 225 
L 5100 4525 
L 1500 4525 
Q 1500 2575 1450 1887 
Q 1400 1200 1237 550 
Q 1075 -100 775 -625 
Q 625 -450 275 -225 
Q 650 225 825 1000 
Q 1000 1775 1025 2587 
Q 1050 3400 1000 4925 
L 5600 4925 
z
M 2050 325 
Q 2075 625 2075 950 
L 2075 1400 
Q 2075 1625 2050 1925 
L 4400 1925 
Q 4375 1725 4375 1450 
L 4375 875 
Q 4375 600 4400 325 
L 2050 325 
z
M 3000 3800 
Q 3000 4150 2975 4375 
L 3475 4375 
Q 3450 4075 3450 3800 
Q 4100 3800 4475 3825 
L 4475 3350 
Q 4125 3375 3450 3375 
L 3450 2800 
Q 4200 2800 4825 2825 
L 4825 2350 
Q 4175 2375 3725 2375 
L 2750 2375 
Q 2325 2375 1725 2350 
L 1725 2825 
Q 2325 2800 3000 2800 
L 3000 3375 
Q 2500 3375 1975 3350 
L 1975 3825 
Q 2475 3800 3000 3800 
z
M 3900 725 
L 3900 1525 
L 2550 1525 
L 2550 725 
L 3900 725 
z
" transform="scale(0.015625)"/>
       <path id="SimHei-6570" d="M 4525 4925 
Q 4475 4800 4400 4587 
Q 4325 4375 4175 3825 
L 5325 3825 
Q 5575 3825 5925 3850 
L 5925 3400 
Q 5650 3425 5500 3425 
Q 5500 3025 5362 2162 
Q 5225 1300 4875 675 
Q 5125 375 5437 137 
Q 5750 -100 6025 -200 
Q 5725 -425 5625 -625 
Q 5325 -450 5075 -225 
Q 4825 0 4575 325 
Q 4300 25 3987 -187 
Q 3675 -400 3200 -650 
Q 3075 -425 2850 -300 
Q 3225 -150 3650 125 
Q 4075 400 4300 675 
Q 4125 1025 3962 1425 
Q 3800 1825 3675 2475 
Q 3600 2275 3425 1950 
Q 3250 2050 3000 2150 
Q 3400 2850 3650 3675 
Q 3900 4500 3975 5100 
Q 4275 4975 4525 4925 
z
M 2100 2250 
Q 2000 2150 1875 1925 
L 3250 1925 
Q 3100 1300 2725 675 
Q 3125 525 3350 400 
Q 3225 225 3125 25 
Q 2900 175 2450 325 
Q 1950 -225 725 -650 
Q 600 -375 400 -275 
Q 1575 0 2000 475 
Q 1300 650 850 775 
Q 1000 1000 1250 1525 
Q 1000 1525 425 1500 
L 425 1950 
Q 900 1925 1400 1925 
Q 1500 2150 1550 2425 
Q 1825 2325 2100 2250 
z
M 1775 3950 
Q 1775 4550 1750 5100 
L 2250 5100 
Q 2225 4575 2225 3950 
Q 3075 3950 3425 3975 
L 3425 3525 
Q 3075 3550 2225 3550 
Q 2225 2825 2250 2425 
L 1750 2425 
Q 1775 2775 1775 3300 
Q 1650 3100 1300 2787 
Q 950 2475 650 2300 
Q 525 2525 275 2625 
Q 500 2700 875 2975 
Q 1250 3250 1450 3550 
Q 950 3550 500 3525 
L 500 3975 
Q 925 3950 1775 3950 
z
M 3975 3175 
Q 4200 1700 4600 1125 
Q 4850 1700 4937 2287 
Q 5025 2875 5050 3425 
L 4075 3425 
L 3975 3175 
z
M 1450 1000 
Q 1750 925 2275 800 
Q 2475 1050 2650 1525 
L 1725 1525 
Q 1600 1275 1450 1000 
z
M 3325 4825 
Q 3200 4625 3125 4450 
Q 3050 4275 2925 4025 
Q 2725 4125 2525 4175 
Q 2725 4500 2900 5000 
Q 3150 4875 3325 4825 
z
M 2575 3375 
Q 2900 3050 3200 2725 
Q 3050 2600 2875 2425 
Q 2525 2850 2300 3100 
Q 2450 3225 2575 3375 
z
M 925 5000 
Q 1275 4650 1500 4300 
L 1125 4075 
Q 950 4425 600 4725 
Q 825 4875 925 5000 
z
" transform="scale(0.015625)"/>
      </defs>
      <use xlink:href="#SimHei-5468"/>
      <use xlink:href="#SimHei-6570" x="100"/>
     </g>
    </g>
   </g>
   <g id="matplotlib.axis_2">
    <g id="ytick_1">
     <g id="line2d_9">
      <defs>
       <path id="m643f5adeed" d="M 0 0 
L -3.5 0 
" style="stroke: #000000; stroke-width: 0.8"/>
      </defs>
      <g>
       <use xlink:href="#m643f5adeed" x="90" y="350.46" style="stroke: #000000; stroke-width: 0.8"/>
      </g>
     </g>
     <g id="text_10">
      <!-- 2 -->
      <g style="fill: #0000ff" transform="translate(78 353.8975) scale(0.1 -0.1)">
       <use xlink:href="#SimHei-32"/>
      </g>
     </g>
    </g>
    <g id="ytick_2">
     <g id="line2d_10">
      <g>
       <use xlink:href="#m643f5adeed" x="90" y="312.66" style="stroke: #000000; stroke-width: 0.8"/>
      </g>
     </g>
     <g id="text_11">
      <!-- 4 -->
      <g style="fill: #0000ff" transform="translate(78 316.0975) scale(0.1 -0.1)">
       <defs>
        <path id="SimHei-34" d="M 2000 1100 
L 75 1100 
L 75 1525 
L 2100 4450 
L 2475 4450 
L 2475 1525 
L 3075 1525 
L 3075 1100 
L 2475 1100 
L 2475 150 
L 2000 150 
L 2000 1100 
z
M 2000 1525 
L 2000 3500 
L 600 1525 
L 2000 1525 
z
" transform="scale(0.015625)"/>
       </defs>
       <use xlink:href="#SimHei-34"/>
      </g>
     </g>
    </g>
    <g id="ytick_3">
     <g id="line2d_11">
      <g>
       <use xlink:href="#m643f5adeed" x="90" y="274.86" style="stroke: #000000; stroke-width: 0.8"/>
      </g>
     </g>
     <g id="text_12">
      <!-- 6 -->
      <g style="fill: #0000ff" transform="translate(78 278.2975) scale(0.1 -0.1)">
       <defs>
        <path id="SimHei-36" d="M 250 1612 
Q 275 1975 387 2225 
Q 500 2475 725 2850 
L 1750 4450 
L 2325 4450 
L 1275 2800 
Q 1950 2975 2350 2750 
Q 2750 2525 2887 2237 
Q 3025 1950 3037 1612 
Q 3050 1275 2937 950 
Q 2825 625 2537 362 
Q 2250 100 1737 75 
Q 1225 50 862 262 
Q 500 475 362 862 
Q 225 1250 250 1612 
z
M 1025 787 
Q 1250 550 1625 525 
Q 2000 500 2250 775 
Q 2500 1050 2500 1575 
Q 2500 2100 2187 2300 
Q 1875 2500 1487 2450 
Q 1100 2400 925 2075 
Q 750 1750 775 1387 
Q 800 1025 1025 787 
z
" transform="scale(0.015625)"/>
       </defs>
       <use xlink:href="#SimHei-36"/>
      </g>
     </g>
    </g>
    <g id="ytick_4">
     <g id="line2d_12">
      <g>
       <use xlink:href="#m643f5adeed" x="90" y="237.06" style="stroke: #000000; stroke-width: 0.8"/>
      </g>
     </g>
     <g id="text_13">
      <!-- 8 -->
      <g style="fill: #0000ff" transform="translate(78 240.4975) scale(0.1 -0.1)">
       <defs>
        <path id="SimHei-38" d="M 175 1375 
Q 175 1675 325 1962 
Q 475 2250 825 2425 
Q 525 2600 425 2812 
Q 325 3025 312 3300 
Q 300 3575 387 3775 
Q 475 3975 650 4150 
Q 825 4325 1037 4387 
Q 1250 4450 1500 4450 
Q 1750 4450 1950 4400 
Q 2150 4350 2375 4187 
Q 2600 4025 2700 3725 
Q 2800 3425 2687 3025 
Q 2575 2625 2100 2400 
Q 2525 2275 2700 2012 
Q 2875 1750 2875 1375 
Q 2875 1000 2762 775 
Q 2650 550 2512 400 
Q 2375 250 2137 162 
Q 1900 75 1537 75 
Q 1175 75 912 162 
Q 650 250 475 425 
Q 300 600 237 837 
Q 175 1075 175 1375 
z
M 687 1400 
Q 675 1100 787 875 
Q 900 650 1200 587 
Q 1500 525 1825 600 
Q 2150 675 2275 950 
Q 2400 1225 2362 1500 
Q 2325 1775 2050 1962 
Q 1775 2150 1450 2125 
Q 1125 2100 912 1900 
Q 700 1700 687 1400 
z
M 775 3350 
Q 775 3100 950 2875 
Q 1125 2650 1500 2650 
Q 1875 2650 2062 2875 
Q 2250 3100 2237 3412 
Q 2225 3725 2012 3875 
Q 1800 4025 1437 4000 
Q 1075 3975 925 3787 
Q 775 3600 775 3350 
z
" transform="scale(0.015625)"/>
       </defs>
       <use xlink:href="#SimHei-38"/>
      </g>
     </g>
    </g>
    <g id="ytick_5">
     <g id="line2d_13">
      <g>
       <use xlink:href="#m643f5adeed" x="90" y="199.26" style="stroke: #000000; stroke-width: 0.8"/>
      </g>
     </g>
     <g id="text_14">
      <!-- 10 -->
      <g style="fill: #0000ff" transform="translate(73 202.6975) scale(0.1 -0.1)">
       <use xlink:href="#SimHei-31"/>
       <use xlink:href="#SimHei-30" x="50"/>
      </g>
     </g>
    </g>
    <g id="ytick_6">
     <g id="line2d_14">
      <g>
       <use xlink:href="#m643f5adeed" x="90" y="161.46" style="stroke: #000000; stroke-width: 0.8"/>
      </g>
     </g>
     <g id="text_15">
      <!-- 12 -->
      <g style="fill: #0000ff" transform="translate(73 164.8975) scale(0.1 -0.1)">
       <use xlink:href="#SimHei-31"/>
       <use xlink:href="#SimHei-32" x="50"/>
      </g>
     </g>
    </g>
    <g id="ytick_7">
     <g id="line2d_15">
      <g>
       <use xlink:href="#m643f5adeed" x="90" y="123.66" style="stroke: #000000; stroke-width: 0.8"/>
      </g>
     </g>
     <g id="text_16">
      <!-- 14 -->
      <g style="fill: #0000ff" transform="translate(73 127.0975) scale(0.1 -0.1)">
       <use xlink:href="#SimHei-31"/>
       <use xlink:href="#SimHei-34" x="50"/>
      </g>
     </g>
    </g>
    <g id="ytick_8">
     <g id="line2d_16">
      <g>
       <use xlink:href="#m643f5adeed" x="90" y="85.86" style="stroke: #000000; stroke-width: 0.8"/>
      </g>
     </g>
     <g id="text_17">
      <!-- 16 -->
      <g style="fill: #0000ff" transform="translate(73 89.2975) scale(0.1 -0.1)">
       <use xlink:href="#SimHei-31"/>
       <use xlink:href="#SimHei-36" x="50"/>
      </g>
     </g>
    </g>
    <g id="text_18">
     <!-- 需求量 -->
     <g style="fill: #0000ff" transform="translate(67.75 233.16) rotate(-90) scale(0.1 -0.1)">
      <defs>
       <path id="SimHei-9700" d="M 5150 2100 
Q 5500 2100 5975 2125 
L 5975 1700 
Q 5500 1725 5150 1725 
L 3425 1725 
Q 3300 1500 3250 1275 
L 5600 1275 
Q 5575 950 5575 700 
L 5575 -50 
Q 5575 -350 5425 -437 
Q 5275 -525 4775 -625 
Q 4750 -400 4550 -100 
Q 4950 -100 5025 -50 
Q 5100 0 5100 200 
L 5100 900 
L 4125 900 
L 4125 -375 
L 3650 -375 
L 3650 900 
L 2775 900 
L 2775 -375 
L 2300 -375 
L 2300 900 
L 1350 900 
L 1350 -575 
L 875 -575 
Q 900 -225 900 175 
L 900 575 
Q 900 900 875 1275 
L 2800 1275 
Q 2875 1500 2925 1725 
L 1350 1725 
Q 925 1725 525 1700 
L 525 2125 
Q 900 2100 1325 2100 
L 5150 2100 
z
M 4700 5075 
Q 5075 5075 5550 5100 
L 5550 4675 
Q 5075 4700 4700 4700 
L 3475 4700 
L 3475 4275 
L 5975 4275 
L 5975 3100 
L 5500 3100 
L 5500 3900 
L 3475 3900 
L 3475 3200 
Q 3475 2775 3500 2425 
L 2975 2425 
Q 3000 2750 3000 3175 
L 3000 3900 
L 950 3900 
L 950 3100 
L 450 3100 
Q 450 3375 462 3650 
Q 475 3925 450 4275 
L 3000 4275 
L 3000 4700 
L 1775 4700 
Q 1400 4700 1025 4675 
L 1025 5100 
Q 1400 5075 1750 5075 
L 4700 5075 
z
M 2475 2450 
L 1250 2450 
L 1250 2800 
L 2475 2800 
L 2475 2450 
z
M 2500 3150 
L 1325 3150 
L 1325 3500 
L 2500 3500 
L 2500 3150 
z
M 5000 3175 
L 3825 3175 
L 3825 3525 
L 5000 3525 
L 5000 3175 
z
M 5025 2500 
L 3850 2500 
L 3850 2850 
L 5025 2850 
L 5025 2500 
z
" transform="scale(0.015625)"/>
       <path id="SimHei-6c42" d="M 475 4025 
Q 875 4000 1325 4000 
L 2875 4000 
Q 2875 4725 2850 5125 
L 3400 5125 
Q 3375 4725 3375 4000 
L 5150 4000 
Q 5500 4000 5925 4025 
L 5925 3575 
Q 5475 3600 5150 3600 
L 3375 3600 
Q 3400 3200 3612 2750 
Q 3825 2300 4050 2000 
Q 4600 2450 5075 3150 
Q 5250 2950 5575 2750 
Q 5275 2600 4250 1650 
Q 4575 1225 5037 850 
Q 5500 475 6050 325 
Q 5700 125 5550 -150 
Q 5000 150 4437 687 
Q 3875 1225 3375 2375 
L 3375 150 
Q 3400 -225 3137 -350 
Q 2875 -475 2375 -525 
Q 2325 -275 2150 25 
Q 2575 0 2737 37 
Q 2900 75 2875 300 
L 2875 1675 
Q 1875 900 1437 550 
Q 1000 200 725 -50 
Q 500 200 300 400 
Q 650 575 1200 937 
Q 1750 1300 2875 2250 
L 2875 3600 
L 1325 3600 
Q 875 3600 475 3575 
L 475 4025 
z
M 1225 3175 
Q 1775 2725 2250 2325 
L 1825 1950 
Q 1450 2375 825 2825 
L 1225 3175 
z
M 4500 5100 
Q 4900 4825 5300 4425 
Q 5125 4300 4925 4100 
Q 4650 4400 4125 4825 
Q 4275 4950 4500 5100 
z
" transform="scale(0.015625)"/>
       <path id="SimHei-91cf" d="M 5250 2500 
Q 5225 2200 5225 1700 
Q 5225 1225 5250 950 
L 3425 950 
L 3425 625 
L 4575 625 
Q 5000 625 5375 650 
L 5375 275 
Q 5025 300 4575 300 
L 3425 300 
L 3425 -75 
L 5125 -75 
Q 5525 -75 5925 -50 
L 5925 -425 
Q 5525 -400 5125 -400 
L 1275 -400 
Q 900 -400 475 -425 
L 475 -50 
Q 925 -50 1275 -75 
L 2975 -75 
L 2975 300 
L 1725 300 
Q 1350 300 975 250 
L 975 650 
Q 1375 625 1725 625 
L 2975 625 
L 2975 950 
L 1150 950 
Q 1175 1375 1175 1775 
Q 1175 2175 1150 2500 
L 5250 2500 
z
M 5200 4950 
Q 5175 4575 5175 4250 
Q 5175 3925 5200 3400 
L 1200 3400 
Q 1225 3925 1225 4250 
Q 1225 4575 1200 4950 
L 5200 4950 
z
M 4900 3100 
Q 5500 3125 6000 3150 
L 6000 2750 
Q 5500 2775 4925 2775 
L 1650 2775 
Q 975 2775 325 2750 
L 325 3150 
Q 975 3125 1650 3100 
L 4900 3100 
z
M 4725 3700 
L 4725 4025 
L 1675 4025 
L 1675 3700 
L 4725 3700 
z
M 4725 4350 
L 4725 4650 
L 1675 4650 
L 1675 4350 
L 4725 4350 
z
M 4750 1875 
L 4750 2175 
L 3425 2175 
L 3425 1875 
L 4750 1875 
z
M 2975 1875 
L 2975 2175 
L 1650 2175 
L 1650 1875 
L 2975 1875 
z
M 2975 1275 
L 2975 1550 
L 1650 1550 
L 1650 1275 
L 2975 1275 
z
M 4750 1275 
L 4750 1550 
L 3425 1550 
L 3425 1275 
L 4750 1275 
z
" transform="scale(0.015625)"/>
      </defs>
      <use xlink:href="#SimHei-9700"/>
      <use xlink:href="#SimHei-6c42" x="100"/>
      <use xlink:href="#SimHei-91cf" x="200"/>
     </g>
    </g>
   </g>
   <g id="line2d_17">
    <path d="M 115.363636 369.36 
L 118.330144 331.56 
L 121.296651 369.36 
L 133.162679 350.46 
L 139.095694 293.76 
L 142.062201 255.96 
L 145.028708 369.36 
L 147.995215 331.56 
L 153.92823 350.46 
L 156.894737 350.46 
L 165.794258 331.56 
L 180.626794 312.66 
L 183.593301 369.36 
L 186.559809 331.56 
L 189.526316 331.56 
L 192.492823 274.86 
L 195.45933 255.96 
L 198.425837 142.56 
L 201.392344 331.56 
L 207.325359 369.36 
L 210.291866 350.46 
L 213.258373 274.86 
L 216.22488 274.86 
L 219.191388 180.36 
L 222.157895 293.76 
L 225.124402 199.26 
L 228.090909 369.36 
L 231.057416 255.96 
L 234.023923 350.46 
L 236.990431 66.96 
L 239.956938 312.66 
L 242.923445 369.36 
L 245.889952 293.76 
L 248.856459 274.86 
L 251.822967 312.66 
L 254.789474 274.86 
L 257.755981 331.56 
L 260.722488 350.46 
L 263.688995 350.46 
L 266.655502 369.36 
L 269.62201 274.86 
L 272.588517 350.46 
L 284.454545 369.36 
L 290.38756 350.46 
L 296.320574 161.46 
L 299.287081 369.36 
L 302.253589 312.66 
L 305.220096 350.46 
L 308.186603 218.16 
L 311.15311 369.36 
L 314.119617 255.96 
L 320.052632 312.66 
L 323.019139 331.56 
L 328.952153 274.86 
L 331.91866 312.66 
L 334.885167 274.86 
L 337.851675 237.06 
L 343.784689 331.56 
L 346.751196 369.36 
L 355.650718 369.36 
L 358.617225 369.36 
L 367.516746 331.56 
L 370.483254 293.76 
L 373.449761 350.46 
L 376.416268 331.56 
L 379.382775 293.76 
L 385.315789 369.36 
L 400.148325 369.36 
L 403.114833 369.36 
L 406.08134 369.36 
L 409.047847 255.96 
L 412.014354 369.36 
L 426.84689 350.46 
L 429.813397 369.36 
L 432.779904 369.36 
L 435.746411 369.36 
L 444.645933 350.46 
L 450.578947 161.46 
L 462.444976 312.66 
L 468.37799 350.46 
L 471.344498 350.46 
L 477.277512 312.66 
L 480.244019 350.46 
L 483.210526 350.46 
L 512.875598 369.36 
L 524.741627 369.36 
L 530.674641 369.36 
L 533.641148 369.36 
L 545.507177 350.46 
L 551.440191 350.46 
L 554.406699 369.36 
L 557.373206 369.36 
L 560.339713 331.56 
L 566.272727 369.36 
L 569.239234 369.36 
L 592.971292 350.46 
L 598.904306 350.46 
L 601.870813 369.36 
L 604.837321 369.36 
L 607.803828 350.46 
L 610.770335 331.56 
L 622.636364 369.36 
" clip-path="url(#p08774de038)" style="fill: none; stroke: #0000ff; stroke-width: 1.5; stroke-linecap: square"/>
    <defs>
     <path id="m0be56f7804" d="M 0 3 
C 0.795609 3 1.55874 2.683901 2.12132 2.12132 
C 2.683901 1.55874 3 0.795609 3 0 
C 3 -0.795609 2.683901 -1.55874 2.12132 -2.12132 
C 1.55874 -2.683901 0.795609 -3 0 -3 
C -0.795609 -3 -1.55874 -2.683901 -2.12132 -2.12132 
C -2.683901 -1.55874 -3 -0.795609 -3 0 
C -3 0.795609 -2.683901 1.55874 -2.12132 2.12132 
C -1.55874 2.683901 -0.795609 3 0 3 
z
" style="stroke: #0000ff"/>
    </defs>
    <g clip-path="url(#p08774de038)">
     <use xlink:href="#m0be56f7804" x="115.363636" y="369.36" style="fill: #0000ff; stroke: #0000ff"/>
     <use xlink:href="#m0be56f7804" x="118.330144" y="331.56" style="fill: #0000ff; stroke: #0000ff"/>
     <use xlink:href="#m0be56f7804" x="121.296651" y="369.36" style="fill: #0000ff; stroke: #0000ff"/>
     <use xlink:href="#m0be56f7804" x="133.162679" y="350.46" style="fill: #0000ff; stroke: #0000ff"/>
     <use xlink:href="#m0be56f7804" x="139.095694" y="293.76" style="fill: #0000ff; stroke: #0000ff"/>
     <use xlink:href="#m0be56f7804" x="142.062201" y="255.96" style="fill: #0000ff; stroke: #0000ff"/>
     <use xlink:href="#m0be56f7804" x="145.028708" y="369.36" style="fill: #0000ff; stroke: #0000ff"/>
     <use xlink:href="#m0be56f7804" x="147.995215" y="331.56" style="fill: #0000ff; stroke: #0000ff"/>
     <use xlink:href="#m0be56f7804" x="153.92823" y="350.46" style="fill: #0000ff; stroke: #0000ff"/>
     <use xlink:href="#m0be56f7804" x="156.894737" y="350.46" style="fill: #0000ff; stroke: #0000ff"/>
     <use xlink:href="#m0be56f7804" x="165.794258" y="331.56" style="fill: #0000ff; stroke: #0000ff"/>
     <use xlink:href="#m0be56f7804" x="180.626794" y="312.66" style="fill: #0000ff; stroke: #0000ff"/>
     <use xlink:href="#m0be56f7804" x="183.593301" y="369.36" style="fill: #0000ff; stroke: #0000ff"/>
     <use xlink:href="#m0be56f7804" x="186.559809" y="331.56" style="fill: #0000ff; stroke: #0000ff"/>
     <use xlink:href="#m0be56f7804" x="189.526316" y="331.56" style="fill: #0000ff; stroke: #0000ff"/>
     <use xlink:href="#m0be56f7804" x="192.492823" y="274.86" style="fill: #0000ff; stroke: #0000ff"/>
     <use xlink:href="#m0be56f7804" x="195.45933" y="255.96" style="fill: #0000ff; stroke: #0000ff"/>
     <use xlink:href="#m0be56f7804" x="198.425837" y="142.56" style="fill: #0000ff; stroke: #0000ff"/>
     <use xlink:href="#m0be56f7804" x="201.392344" y="331.56" style="fill: #0000ff; stroke: #0000ff"/>
     <use xlink:href="#m0be56f7804" x="207.325359" y="369.36" style="fill: #0000ff; stroke: #0000ff"/>
     <use xlink:href="#m0be56f7804" x="210.291866" y="350.46" style="fill: #0000ff; stroke: #0000ff"/>
     <use xlink:href="#m0be56f7804" x="213.258373" y="274.86" style="fill: #0000ff; stroke: #0000ff"/>
     <use xlink:href="#m0be56f7804" x="216.22488" y="274.86" style="fill: #0000ff; stroke: #0000ff"/>
     <use xlink:href="#m0be56f7804" x="219.191388" y="180.36" style="fill: #0000ff; stroke: #0000ff"/>
     <use xlink:href="#m0be56f7804" x="222.157895" y="293.76" style="fill: #0000ff; stroke: #0000ff"/>
     <use xlink:href="#m0be56f7804" x="225.124402" y="199.26" style="fill: #0000ff; stroke: #0000ff"/>
     <use xlink:href="#m0be56f7804" x="228.090909" y="369.36" style="fill: #0000ff; stroke: #0000ff"/>
     <use xlink:href="#m0be56f7804" x="231.057416" y="255.96" style="fill: #0000ff; stroke: #0000ff"/>
     <use xlink:href="#m0be56f7804" x="234.023923" y="350.46" style="fill: #0000ff; stroke: #0000ff"/>
     <use xlink:href="#m0be56f7804" x="236.990431" y="66.96" style="fill: #0000ff; stroke: #0000ff"/>
     <use xlink:href="#m0be56f7804" x="239.956938" y="312.66" style="fill: #0000ff; stroke: #0000ff"/>
     <use xlink:href="#m0be56f7804" x="242.923445" y="369.36" style="fill: #0000ff; stroke: #0000ff"/>
     <use xlink:href="#m0be56f7804" x="245.889952" y="293.76" style="fill: #0000ff; stroke: #0000ff"/>
     <use xlink:href="#m0be56f7804" x="248.856459" y="274.86" style="fill: #0000ff; stroke: #0000ff"/>
     <use xlink:href="#m0be56f7804" x="251.822967" y="312.66" style="fill: #0000ff; stroke: #0000ff"/>
     <use xlink:href="#m0be56f7804" x="254.789474" y="274.86" style="fill: #0000ff; stroke: #0000ff"/>
     <use xlink:href="#m0be56f7804" x="257.755981" y="331.56" style="fill: #0000ff; stroke: #0000ff"/>
     <use xlink:href="#m0be56f7804" x="260.722488" y="350.46" style="fill: #0000ff; stroke: #0000ff"/>
     <use xlink:href="#m0be56f7804" x="263.688995" y="350.46" style="fill: #0000ff; stroke: #0000ff"/>
     <use xlink:href="#m0be56f7804" x="266.655502" y="369.36" style="fill: #0000ff; stroke: #0000ff"/>
     <use xlink:href="#m0be56f7804" x="269.62201" y="274.86" style="fill: #0000ff; stroke: #0000ff"/>
     <use xlink:href="#m0be56f7804" x="272.588517" y="350.46" style="fill: #0000ff; stroke: #0000ff"/>
     <use xlink:href="#m0be56f7804" x="284.454545" y="369.36" style="fill: #0000ff; stroke: #0000ff"/>
     <use xlink:href="#m0be56f7804" x="290.38756" y="350.46" style="fill: #0000ff; stroke: #0000ff"/>
     <use xlink:href="#m0be56f7804" x="296.320574" y="161.46" style="fill: #0000ff; stroke: #0000ff"/>
     <use xlink:href="#m0be56f7804" x="299.287081" y="369.36" style="fill: #0000ff; stroke: #0000ff"/>
     <use xlink:href="#m0be56f7804" x="302.253589" y="312.66" style="fill: #0000ff; stroke: #0000ff"/>
     <use xlink:href="#m0be56f7804" x="305.220096" y="350.46" style="fill: #0000ff; stroke: #0000ff"/>
     <use xlink:href="#m0be56f7804" x="308.186603" y="218.16" style="fill: #0000ff; stroke: #0000ff"/>
     <use xlink:href="#m0be56f7804" x="311.15311" y="369.36" style="fill: #0000ff; stroke: #0000ff"/>
     <use xlink:href="#m0be56f7804" x="314.119617" y="255.96" style="fill: #0000ff; stroke: #0000ff"/>
     <use xlink:href="#m0be56f7804" x="320.052632" y="312.66" style="fill: #0000ff; stroke: #0000ff"/>
     <use xlink:href="#m0be56f7804" x="323.019139" y="331.56" style="fill: #0000ff; stroke: #0000ff"/>
     <use xlink:href="#m0be56f7804" x="328.952153" y="274.86" style="fill: #0000ff; stroke: #0000ff"/>
     <use xlink:href="#m0be56f7804" x="331.91866" y="312.66" style="fill: #0000ff; stroke: #0000ff"/>
     <use xlink:href="#m0be56f7804" x="334.885167" y="274.86" style="fill: #0000ff; stroke: #0000ff"/>
     <use xlink:href="#m0be56f7804" x="337.851675" y="237.06" style="fill: #0000ff; stroke: #0000ff"/>
     <use xlink:href="#m0be56f7804" x="343.784689" y="331.56" style="fill: #0000ff; stroke: #0000ff"/>
     <use xlink:href="#m0be56f7804" x="346.751196" y="369.36" style="fill: #0000ff; stroke: #0000ff"/>
     <use xlink:href="#m0be56f7804" x="355.650718" y="369.36" style="fill: #0000ff; stroke: #0000ff"/>
     <use xlink:href="#m0be56f7804" x="358.617225" y="369.36" style="fill: #0000ff; stroke: #0000ff"/>
     <use xlink:href="#m0be56f7804" x="367.516746" y="331.56" style="fill: #0000ff; stroke: #0000ff"/>
     <use xlink:href="#m0be56f7804" x="370.483254" y="293.76" style="fill: #0000ff; stroke: #0000ff"/>
     <use xlink:href="#m0be56f7804" x="373.449761" y="350.46" style="fill: #0000ff; stroke: #0000ff"/>
     <use xlink:href="#m0be56f7804" x="376.416268" y="331.56" style="fill: #0000ff; stroke: #0000ff"/>
     <use xlink:href="#m0be56f7804" x="379.382775" y="293.76" style="fill: #0000ff; stroke: #0000ff"/>
     <use xlink:href="#m0be56f7804" x="385.315789" y="369.36" style="fill: #0000ff; stroke: #0000ff"/>
     <use xlink:href="#m0be56f7804" x="400.148325" y="369.36" style="fill: #0000ff; stroke: #0000ff"/>
     <use xlink:href="#m0be56f7804" x="403.114833" y="369.36" style="fill: #0000ff; stroke: #0000ff"/>
     <use xlink:href="#m0be56f7804" x="406.08134" y="369.36" style="fill: #0000ff; stroke: #0000ff"/>
     <use xlink:href="#m0be56f7804" x="409.047847" y="255.96" style="fill: #0000ff; stroke: #0000ff"/>
     <use xlink:href="#m0be56f7804" x="412.014354" y="369.36" style="fill: #0000ff; stroke: #0000ff"/>
     <use xlink:href="#m0be56f7804" x="426.84689" y="350.46" style="fill: #0000ff; stroke: #0000ff"/>
     <use xlink:href="#m0be56f7804" x="429.813397" y="369.36" style="fill: #0000ff; stroke: #0000ff"/>
     <use xlink:href="#m0be56f7804" x="432.779904" y="369.36" style="fill: #0000ff; stroke: #0000ff"/>
     <use xlink:href="#m0be56f7804" x="435.746411" y="369.36" style="fill: #0000ff; stroke: #0000ff"/>
     <use xlink:href="#m0be56f7804" x="444.645933" y="350.46" style="fill: #0000ff; stroke: #0000ff"/>
     <use xlink:href="#m0be56f7804" x="450.578947" y="161.46" style="fill: #0000ff; stroke: #0000ff"/>
     <use xlink:href="#m0be56f7804" x="462.444976" y="312.66" style="fill: #0000ff; stroke: #0000ff"/>
     <use xlink:href="#m0be56f7804" x="468.37799" y="350.46" style="fill: #0000ff; stroke: #0000ff"/>
     <use xlink:href="#m0be56f7804" x="471.344498" y="350.46" style="fill: #0000ff; stroke: #0000ff"/>
     <use xlink:href="#m0be56f7804" x="477.277512" y="312.66" style="fill: #0000ff; stroke: #0000ff"/>
     <use xlink:href="#m0be56f7804" x="480.244019" y="350.46" style="fill: #0000ff; stroke: #0000ff"/>
     <use xlink:href="#m0be56f7804" x="483.210526" y="350.46" style="fill: #0000ff; stroke: #0000ff"/>
     <use xlink:href="#m0be56f7804" x="512.875598" y="369.36" style="fill: #0000ff; stroke: #0000ff"/>
     <use xlink:href="#m0be56f7804" x="524.741627" y="369.36" style="fill: #0000ff; stroke: #0000ff"/>
     <use xlink:href="#m0be56f7804" x="530.674641" y="369.36" style="fill: #0000ff; stroke: #0000ff"/>
     <use xlink:href="#m0be56f7804" x="533.641148" y="369.36" style="fill: #0000ff; stroke: #0000ff"/>
     <use xlink:href="#m0be56f7804" x="545.507177" y="350.46" style="fill: #0000ff; stroke: #0000ff"/>
     <use xlink:href="#m0be56f7804" x="551.440191" y="350.46" style="fill: #0000ff; stroke: #0000ff"/>
     <use xlink:href="#m0be56f7804" x="554.406699" y="369.36" style="fill: #0000ff; stroke: #0000ff"/>
     <use xlink:href="#m0be56f7804" x="557.373206" y="369.36" style="fill: #0000ff; stroke: #0000ff"/>
     <use xlink:href="#m0be56f7804" x="560.339713" y="331.56" style="fill: #0000ff; stroke: #0000ff"/>
     <use xlink:href="#m0be56f7804" x="566.272727" y="369.36" style="fill: #0000ff; stroke: #0000ff"/>
     <use xlink:href="#m0be56f7804" x="569.239234" y="369.36" style="fill: #0000ff; stroke: #0000ff"/>
     <use xlink:href="#m0be56f7804" x="592.971292" y="350.46" style="fill: #0000ff; stroke: #0000ff"/>
     <use xlink:href="#m0be56f7804" x="598.904306" y="350.46" style="fill: #0000ff; stroke: #0000ff"/>
     <use xlink:href="#m0be56f7804" x="601.870813" y="369.36" style="fill: #0000ff; stroke: #0000ff"/>
     <use xlink:href="#m0be56f7804" x="604.837321" y="369.36" style="fill: #0000ff; stroke: #0000ff"/>
     <use xlink:href="#m0be56f7804" x="607.803828" y="350.46" style="fill: #0000ff; stroke: #0000ff"/>
     <use xlink:href="#m0be56f7804" x="610.770335" y="331.56" style="fill: #0000ff; stroke: #0000ff"/>
     <use xlink:href="#m0be56f7804" x="622.636364" y="369.36" style="fill: #0000ff; stroke: #0000ff"/>
    </g>
   </g>
   <g id="patch_3">
    <path d="M 90 384.48 
L 90 51.84 
" style="fill: none; stroke: #000000; stroke-width: 0.8; stroke-linejoin: miter; stroke-linecap: square"/>
   </g>
   <g id="patch_4">
    <path d="M 648 384.48 
L 648 51.84 
" style="fill: none; stroke: #000000; stroke-width: 0.8; stroke-linejoin: miter; stroke-linecap: square"/>
   </g>
   <g id="patch_5">
    <path d="M 90 384.48 
L 648 384.48 
" style="fill: none; stroke: #000000; stroke-width: 0.8; stroke-linejoin: miter; stroke-linecap: square"/>
   </g>
   <g id="patch_6">
    <path d="M 90 51.84 
L 648 51.84 
" style="fill: none; stroke: #000000; stroke-width: 0.8; stroke-linejoin: miter; stroke-linecap: square"/>
   </g>
  </g>
  <g id="axes_2">
   <g id="matplotlib.axis_3">
    <g id="ytick_9">
     <g id="line2d_18">
      <defs>
       <path id="m572774e08f" d="M 0 0 
L 3.5 0 
" style="stroke: #000000; stroke-width: 0.8"/>
      </defs>
      <g>
       <use xlink:href="#m572774e08f" x="648" y="347.764763" style="stroke: #000000; stroke-width: 0.8"/>
      </g>
     </g>
     <g id="text_19">
      <!-- 5000 -->
      <g style="fill: #008000" transform="translate(655 351.202263) scale(0.1 -0.1)">
       <use xlink:href="#SimHei-35"/>
       <use xlink:href="#SimHei-30" x="50"/>
       <use xlink:href="#SimHei-30" x="100"/>
       <use xlink:href="#SimHei-30" x="150"/>
      </g>
     </g>
    </g>
    <g id="ytick_10">
     <g id="line2d_19">
      <g>
       <use xlink:href="#m572774e08f" x="648" y="307.642488" style="stroke: #000000; stroke-width: 0.8"/>
      </g>
     </g>
     <g id="text_20">
      <!-- 10000 -->
      <g style="fill: #008000" transform="translate(655 311.079988) scale(0.1 -0.1)">
       <use xlink:href="#SimHei-31"/>
       <use xlink:href="#SimHei-30" x="50"/>
       <use xlink:href="#SimHei-30" x="100"/>
       <use xlink:href="#SimHei-30" x="150"/>
       <use xlink:href="#SimHei-30" x="200"/>
      </g>
     </g>
    </g>
    <g id="ytick_11">
     <g id="line2d_20">
      <g>
       <use xlink:href="#m572774e08f" x="648" y="267.520213" style="stroke: #000000; stroke-width: 0.8"/>
      </g>
     </g>
     <g id="text_21">
      <!-- 15000 -->
      <g style="fill: #008000" transform="translate(655 270.957713) scale(0.1 -0.1)">
       <use xlink:href="#SimHei-31"/>
       <use xlink:href="#SimHei-35" x="50"/>
       <use xlink:href="#SimHei-30" x="100"/>
       <use xlink:href="#SimHei-30" x="150"/>
       <use xlink:href="#SimHei-30" x="200"/>
      </g>
     </g>
    </g>
    <g id="ytick_12">
     <g id="line2d_21">
      <g>
       <use xlink:href="#m572774e08f" x="648" y="227.397938" style="stroke: #000000; stroke-width: 0.8"/>
      </g>
     </g>
     <g id="text_22">
      <!-- 20000 -->
      <g style="fill: #008000" transform="translate(655 230.835438) scale(0.1 -0.1)">
       <use xlink:href="#SimHei-32"/>
       <use xlink:href="#SimHei-30" x="50"/>
       <use xlink:href="#SimHei-30" x="100"/>
       <use xlink:href="#SimHei-30" x="150"/>
       <use xlink:href="#SimHei-30" x="200"/>
      </g>
     </g>
    </g>
    <g id="ytick_13">
     <g id="line2d_22">
      <g>
       <use xlink:href="#m572774e08f" x="648" y="187.275663" style="stroke: #000000; stroke-width: 0.8"/>
      </g>
     </g>
     <g id="text_23">
      <!-- 25000 -->
      <g style="fill: #008000" transform="translate(655 190.713163) scale(0.1 -0.1)">
       <use xlink:href="#SimHei-32"/>
       <use xlink:href="#SimHei-35" x="50"/>
       <use xlink:href="#SimHei-30" x="100"/>
       <use xlink:href="#SimHei-30" x="150"/>
       <use xlink:href="#SimHei-30" x="200"/>
      </g>
     </g>
    </g>
    <g id="ytick_14">
     <g id="line2d_23">
      <g>
       <use xlink:href="#m572774e08f" x="648" y="147.153388" style="stroke: #000000; stroke-width: 0.8"/>
      </g>
     </g>
     <g id="text_24">
      <!-- 30000 -->
      <g style="fill: #008000" transform="translate(655 150.590888) scale(0.1 -0.1)">
       <defs>
        <path id="SimHei-33" d="M 250 1225 
L 700 1300 
Q 800 975 1025 762 
Q 1250 550 1587 562 
Q 1925 575 2125 837 
Q 2325 1100 2300 1437 
Q 2275 1775 2037 1962 
Q 1800 2150 1275 2225 
L 1275 2550 
Q 1800 2600 2037 2825 
Q 2275 3050 2250 3412 
Q 2225 3775 1925 3937 
Q 1625 4100 1287 3975 
Q 950 3850 750 3275 
L 300 3350 
Q 450 3800 712 4100 
Q 975 4400 1425 4450 
Q 1875 4500 2212 4337 
Q 2550 4175 2687 3837 
Q 2825 3500 2725 3100 
Q 2625 2700 2150 2400 
Q 2500 2250 2687 1950 
Q 2875 1650 2812 1162 
Q 2750 675 2375 375 
Q 2000 75 1525 87 
Q 1050 100 700 387 
Q 350 675 250 1225 
z
" transform="scale(0.015625)"/>
       </defs>
       <use xlink:href="#SimHei-33"/>
       <use xlink:href="#SimHei-30" x="50"/>
       <use xlink:href="#SimHei-30" x="100"/>
       <use xlink:href="#SimHei-30" x="150"/>
       <use xlink:href="#SimHei-30" x="200"/>
      </g>
     </g>
    </g>
    <g id="ytick_15">
     <g id="line2d_24">
      <g>
       <use xlink:href="#m572774e08f" x="648" y="107.031113" style="stroke: #000000; stroke-width: 0.8"/>
      </g>
     </g>
     <g id="text_25">
      <!-- 35000 -->
      <g style="fill: #008000" transform="translate(655 110.468613) scale(0.1 -0.1)">
       <use xlink:href="#SimHei-33"/>
       <use xlink:href="#SimHei-35" x="50"/>
       <use xlink:href="#SimHei-30" x="100"/>
       <use xlink:href="#SimHei-30" x="150"/>
       <use xlink:href="#SimHei-30" x="200"/>
      </g>
     </g>
    </g>
    <g id="ytick_16">
     <g id="line2d_25">
      <g>
       <use xlink:href="#m572774e08f" x="648" y="66.908838" style="stroke: #000000; stroke-width: 0.8"/>
      </g>
     </g>
     <g id="text_26">
      <!-- 40000 -->
      <g style="fill: #008000" transform="translate(655 70.346338) scale(0.1 -0.1)">
       <use xlink:href="#SimHei-34"/>
       <use xlink:href="#SimHei-30" x="50"/>
       <use xlink:href="#SimHei-30" x="100"/>
       <use xlink:href="#SimHei-30" x="150"/>
       <use xlink:href="#SimHei-30" x="200"/>
      </g>
     </g>
    </g>
    <g id="text_27">
     <!-- 收益 -->
     <g style="fill: #008000" transform="translate(691.929688 228.16) rotate(-90) scale(0.1 -0.1)">
      <defs>
       <path id="SimHei-6536" d="M 4250 5050 
Q 4125 4850 3750 4050 
L 5150 4050 
Q 5675 4050 6125 4075 
L 6125 3600 
Q 5675 3625 5300 3625 
Q 5225 2625 5025 1975 
Q 4825 1325 4575 900 
Q 4900 500 5287 275 
Q 5675 50 6200 -75 
Q 5900 -275 5800 -550 
Q 5300 -350 4950 -100 
Q 4600 150 4275 525 
Q 3800 0 2775 -625 
Q 2650 -425 2300 -225 
Q 3275 150 3950 925 
Q 3775 1325 3612 1787 
Q 3450 2250 3250 3000 
Q 2975 2450 2825 2275 
Q 2650 2400 2425 2525 
Q 2775 3025 3137 3837 
Q 3500 4650 3625 5250 
Q 3925 5125 4250 5050 
z
M 975 4275 
Q 925 3950 925 3450 
L 925 1575 
L 1775 1725 
L 1775 4425 
Q 1775 4775 1750 5150 
L 2250 5150 
Q 2225 4850 2225 4450 
L 2225 300 
Q 2225 -50 2250 -550 
L 1750 -550 
Q 1775 -25 1775 350 
L 1775 1350 
Q 625 1050 500 925 
Q 375 1125 225 1350 
Q 450 1475 450 1800 
L 450 3575 
Q 450 3925 425 4275 
L 975 4275 
z
M 3725 3150 
Q 3800 2700 3962 2212 
Q 4125 1725 4300 1375 
Q 4725 2150 4825 3625 
L 3575 3625 
Q 3400 3275 3300 3100 
L 3725 3150 
z
" transform="scale(0.015625)"/>
       <path id="SimHei-76ca" d="M 2825 2925 
Q 2425 2775 2012 2487 
Q 1600 2200 1225 1975 
L 5275 1975 
Q 5250 1575 5250 1000 
L 5250 -50 
Q 5800 -50 6175 -25 
L 6175 -525 
Q 5725 -500 5250 -500 
L 1325 -500 
Q 700 -500 250 -525 
L 250 -25 
Q 600 -50 1175 -50 
L 1175 1050 
Q 1175 1575 1150 1925 
Q 1000 1800 800 1700 
Q 650 1950 425 2125 
Q 800 2275 1312 2600 
Q 1825 2925 2325 3400 
Q 2550 3150 2825 2925 
z
M 4725 5050 
Q 4575 4900 4462 4637 
Q 4350 4375 4175 4075 
L 4625 4075 
Q 5350 4075 5900 4100 
L 5900 3625 
Q 5350 3650 4625 3650 
L 1975 3650 
Q 1350 3650 550 3625 
L 550 4100 
Q 1175 4075 1975 4075 
L 3675 4075 
Q 3775 4300 3887 4625 
Q 4000 4950 4125 5250 
L 4725 5050 
z
M 3600 -50 
L 3600 1575 
L 2800 1575 
L 2800 -50 
L 3600 -50 
z
M 4800 -50 
L 4800 1575 
L 4025 1575 
L 4025 -50 
L 4800 -50 
z
M 2375 -50 
L 2375 1575 
L 1625 1575 
L 1625 -50 
L 2375 -50 
z
M 3900 3350 
Q 4375 3150 4900 2925 
Q 5425 2700 5900 2500 
Q 5700 2300 5550 2000 
Q 5025 2300 4512 2537 
Q 4000 2775 3625 2900 
Q 3750 3075 3900 3350 
z
M 2150 5250 
Q 2375 4925 2650 4350 
Q 2425 4275 2150 4125 
Q 1950 4650 1675 5025 
Q 1875 5100 2150 5250 
z
" transform="scale(0.015625)"/>
      </defs>
      <use xlink:href="#SimHei-6536"/>
      <use xlink:href="#SimHei-76ca" x="100"/>
     </g>
    </g>
   </g>
   <g id="line2d_26">
    <path d="M 115.363636 368.980883 
L 118.330144 331.168572 
L 121.296651 368.980883 
L 133.162679 350.074727 
L 139.095694 293.390896 
L 142.062201 253.184492 
L 145.028708 368.643817 
L 147.995215 330.137273 
L 153.92823 349.360392 
L 156.894737 349.360392 
L 165.794258 330.007447 
L 180.626794 311.838861 
L 183.593301 368.788867 
L 186.559809 330.937032 
L 189.526316 330.15293 
L 192.492823 272.510221 
L 195.45933 255.767757 
L 198.425837 137.650989 
L 201.392344 330.136159 
L 207.325359 368.551873 
L 210.291866 349.216708 
L 213.258373 271.876048 
L 216.22488 271.876048 
L 219.191388 175.967968 
L 222.157895 291.416465 
L 225.124402 195.561646 
L 228.090909 368.551873 
L 231.057416 254.492341 
L 234.023923 349.872851 
L 236.990431 66.96 
L 239.956938 312.443611 
L 242.923445 369.026182 
L 245.889952 293.582755 
L 248.856459 275.138411 
L 251.822967 313.778894 
L 254.789474 276.724821 
L 257.755981 332.195949 
L 260.722488 350.832966 
L 263.688995 350.832966 
L 266.655502 369.36 
L 269.62201 276.724809 
L 272.588517 350.832962 
L 284.454545 369.36 
L 290.38756 350.832962 
L 296.320574 163.400502 
L 299.287081 369.179827 
L 302.253589 313.058193 
L 305.220096 350.512687 
L 308.186603 218.261201 
L 311.15311 369.039723 
L 314.119617 256.091506 
L 320.052632 312.537951 
L 323.019139 330.545807 
L 328.952153 274.377992 
L 331.91866 311.296049 
L 334.885167 272.923293 
L 337.851675 237.048126 
L 343.784689 331.322446 
L 346.751196 369.143797 
L 355.650718 369.143797 
L 358.617225 369.143797 
L 367.516746 331.197574 
L 370.483254 293.317576 
L 373.449761 349.962137 
L 376.416268 330.940169 
L 379.382775 293.074786 
L 385.315789 368.795736 
L 400.148325 368.795736 
L 403.114833 368.795736 
L 406.08134 368.874403 
L 409.047847 254.823322 
L 412.014354 368.849399 
L 426.84689 349.661905 
L 429.813397 368.774472 
L 432.779904 368.795736 
L 435.746411 368.788728 
L 444.645933 349.843877 
L 450.578947 159.096842 
L 462.444976 311.343688 
L 468.37799 349.664939 
L 471.344498 349.61539 
L 477.277512 311.343795 
L 480.244019 349.664939 
L 483.210526 349.525864 
L 512.875598 368.674313 
L 524.741627 368.701077 
L 530.674641 368.674313 
L 533.641148 368.674313 
L 545.507177 349.441836 
L 551.440191 349.441874 
L 554.406699 368.674313 
L 557.373206 368.674313 
L 560.339713 330.072702 
L 566.272727 368.355033 
L 569.239234 368.591161 
L 592.971292 348.823028 
L 598.904306 348.2626 
L 601.870813 368.01279 
L 604.837321 368.164854 
L 607.803828 348.219268 
L 610.770335 328.420771 
L 622.636364 368.264357 
" clip-path="url(#p08774de038)" style="fill: none; stroke: #008000; stroke-width: 1.5; stroke-linecap: square"/>
    <defs>
     <path id="m4a9c227cf1" d="M 0 3 
C 0.795609 3 1.55874 2.683901 2.12132 2.12132 
C 2.683901 1.55874 3 0.795609 3 0 
C 3 -0.795609 2.683901 -1.55874 2.12132 -2.12132 
C 1.55874 -2.683901 0.795609 -3 0 -3 
C -0.795609 -3 -1.55874 -2.683901 -2.12132 -2.12132 
C -2.683901 -1.55874 -3 -0.795609 -3 0 
C -3 0.795609 -2.683901 1.55874 -2.12132 2.12132 
C -1.55874 2.683901 -0.795609 3 0 3 
z
" style="stroke: #008000"/>
    </defs>
    <g clip-path="url(#p08774de038)">
     <use xlink:href="#m4a9c227cf1" x="115.363636" y="368.980883" style="fill: #008000; stroke: #008000"/>
     <use xlink:href="#m4a9c227cf1" x="118.330144" y="331.168572" style="fill: #008000; stroke: #008000"/>
     <use xlink:href="#m4a9c227cf1" x="121.296651" y="368.980883" style="fill: #008000; stroke: #008000"/>
     <use xlink:href="#m4a9c227cf1" x="133.162679" y="350.074727" style="fill: #008000; stroke: #008000"/>
     <use xlink:href="#m4a9c227cf1" x="139.095694" y="293.390896" style="fill: #008000; stroke: #008000"/>
     <use xlink:href="#m4a9c227cf1" x="142.062201" y="253.184492" style="fill: #008000; stroke: #008000"/>
     <use xlink:href="#m4a9c227cf1" x="145.028708" y="368.643817" style="fill: #008000; stroke: #008000"/>
     <use xlink:href="#m4a9c227cf1" x="147.995215" y="330.137273" style="fill: #008000; stroke: #008000"/>
     <use xlink:href="#m4a9c227cf1" x="153.92823" y="349.360392" style="fill: #008000; stroke: #008000"/>
     <use xlink:href="#m4a9c227cf1" x="156.894737" y="349.360392" style="fill: #008000; stroke: #008000"/>
     <use xlink:href="#m4a9c227cf1" x="165.794258" y="330.007447" style="fill: #008000; stroke: #008000"/>
     <use xlink:href="#m4a9c227cf1" x="180.626794" y="311.838861" style="fill: #008000; stroke: #008000"/>
     <use xlink:href="#m4a9c227cf1" x="183.593301" y="368.788867" style="fill: #008000; stroke: #008000"/>
     <use xlink:href="#m4a9c227cf1" x="186.559809" y="330.937032" style="fill: #008000; stroke: #008000"/>
     <use xlink:href="#m4a9c227cf1" x="189.526316" y="330.15293" style="fill: #008000; stroke: #008000"/>
     <use xlink:href="#m4a9c227cf1" x="192.492823" y="272.510221" style="fill: #008000; stroke: #008000"/>
     <use xlink:href="#m4a9c227cf1" x="195.45933" y="255.767757" style="fill: #008000; stroke: #008000"/>
     <use xlink:href="#m4a9c227cf1" x="198.425837" y="137.650989" style="fill: #008000; stroke: #008000"/>
     <use xlink:href="#m4a9c227cf1" x="201.392344" y="330.136159" style="fill: #008000; stroke: #008000"/>
     <use xlink:href="#m4a9c227cf1" x="207.325359" y="368.551873" style="fill: #008000; stroke: #008000"/>
     <use xlink:href="#m4a9c227cf1" x="210.291866" y="349.216708" style="fill: #008000; stroke: #008000"/>
     <use xlink:href="#m4a9c227cf1" x="213.258373" y="271.876048" style="fill: #008000; stroke: #008000"/>
     <use xlink:href="#m4a9c227cf1" x="216.22488" y="271.876048" style="fill: #008000; stroke: #008000"/>
     <use xlink:href="#m4a9c227cf1" x="219.191388" y="175.967968" style="fill: #008000; stroke: #008000"/>
     <use xlink:href="#m4a9c227cf1" x="222.157895" y="291.416465" style="fill: #008000; stroke: #008000"/>
     <use xlink:href="#m4a9c227cf1" x="225.124402" y="195.561646" style="fill: #008000; stroke: #008000"/>
     <use xlink:href="#m4a9c227cf1" x="228.090909" y="368.551873" style="fill: #008000; stroke: #008000"/>
     <use xlink:href="#m4a9c227cf1" x="231.057416" y="254.492341" style="fill: #008000; stroke: #008000"/>
     <use xlink:href="#m4a9c227cf1" x="234.023923" y="349.872851" style="fill: #008000; stroke: #008000"/>
     <use xlink:href="#m4a9c227cf1" x="236.990431" y="66.96" style="fill: #008000; stroke: #008000"/>
     <use xlink:href="#m4a9c227cf1" x="239.956938" y="312.443611" style="fill: #008000; stroke: #008000"/>
     <use xlink:href="#m4a9c227cf1" x="242.923445" y="369.026182" style="fill: #008000; stroke: #008000"/>
     <use xlink:href="#m4a9c227cf1" x="245.889952" y="293.582755" style="fill: #008000; stroke: #008000"/>
     <use xlink:href="#m4a9c227cf1" x="248.856459" y="275.138411" style="fill: #008000; stroke: #008000"/>
     <use xlink:href="#m4a9c227cf1" x="251.822967" y="313.778894" style="fill: #008000; stroke: #008000"/>
     <use xlink:href="#m4a9c227cf1" x="254.789474" y="276.724821" style="fill: #008000; stroke: #008000"/>
     <use xlink:href="#m4a9c227cf1" x="257.755981" y="332.195949" style="fill: #008000; stroke: #008000"/>
     <use xlink:href="#m4a9c227cf1" x="260.722488" y="350.832966" style="fill: #008000; stroke: #008000"/>
     <use xlink:href="#m4a9c227cf1" x="263.688995" y="350.832966" style="fill: #008000; stroke: #008000"/>
     <use xlink:href="#m4a9c227cf1" x="266.655502" y="369.36" style="fill: #008000; stroke: #008000"/>
     <use xlink:href="#m4a9c227cf1" x="269.62201" y="276.724809" style="fill: #008000; stroke: #008000"/>
     <use xlink:href="#m4a9c227cf1" x="272.588517" y="350.832962" style="fill: #008000; stroke: #008000"/>
     <use xlink:href="#m4a9c227cf1" x="284.454545" y="369.36" style="fill: #008000; stroke: #008000"/>
     <use xlink:href="#m4a9c227cf1" x="290.38756" y="350.832962" style="fill: #008000; stroke: #008000"/>
     <use xlink:href="#m4a9c227cf1" x="296.320574" y="163.400502" style="fill: #008000; stroke: #008000"/>
     <use xlink:href="#m4a9c227cf1" x="299.287081" y="369.179827" style="fill: #008000; stroke: #008000"/>
     <use xlink:href="#m4a9c227cf1" x="302.253589" y="313.058193" style="fill: #008000; stroke: #008000"/>
     <use xlink:href="#m4a9c227cf1" x="305.220096" y="350.512687" style="fill: #008000; stroke: #008000"/>
     <use xlink:href="#m4a9c227cf1" x="308.186603" y="218.261201" style="fill: #008000; stroke: #008000"/>
     <use xlink:href="#m4a9c227cf1" x="311.15311" y="369.039723" style="fill: #008000; stroke: #008000"/>
     <use xlink:href="#m4a9c227cf1" x="314.119617" y="256.091506" style="fill: #008000; stroke: #008000"/>
     <use xlink:href="#m4a9c227cf1" x="320.052632" y="312.537951" style="fill: #008000; stroke: #008000"/>
     <use xlink:href="#m4a9c227cf1" x="323.019139" y="330.545807" style="fill: #008000; stroke: #008000"/>
     <use xlink:href="#m4a9c227cf1" x="328.952153" y="274.377992" style="fill: #008000; stroke: #008000"/>
     <use xlink:href="#m4a9c227cf1" x="331.91866" y="311.296049" style="fill: #008000; stroke: #008000"/>
     <use xlink:href="#m4a9c227cf1" x="334.885167" y="272.923293" style="fill: #008000; stroke: #008000"/>
     <use xlink:href="#m4a9c227cf1" x="337.851675" y="237.048126" style="fill: #008000; stroke: #008000"/>
     <use xlink:href="#m4a9c227cf1" x="343.784689" y="331.322446" style="fill: #008000; stroke: #008000"/>
     <use xlink:href="#m4a9c227cf1" x="346.751196" y="369.143797" style="fill: #008000; stroke: #008000"/>
     <use xlink:href="#m4a9c227cf1" x="355.650718" y="369.143797" style="fill: #008000; stroke: #008000"/>
     <use xlink:href="#m4a9c227cf1" x="358.617225" y="369.143797" style="fill: #008000; stroke: #008000"/>
     <use xlink:href="#m4a9c227cf1" x="367.516746" y="331.197574" style="fill: #008000; stroke: #008000"/>
     <use xlink:href="#m4a9c227cf1" x="370.483254" y="293.317576" style="fill: #008000; stroke: #008000"/>
     <use xlink:href="#m4a9c227cf1" x="373.449761" y="349.962137" style="fill: #008000; stroke: #008000"/>
     <use xlink:href="#m4a9c227cf1" x="376.416268" y="330.940169" style="fill: #008000; stroke: #008000"/>
     <use xlink:href="#m4a9c227cf1" x="379.382775" y="293.074786" style="fill: #008000; stroke: #008000"/>
     <use xlink:href="#m4a9c227cf1" x="385.315789" y="368.795736" style="fill: #008000; stroke: #008000"/>
     <use xlink:href="#m4a9c227cf1" x="400.148325" y="368.795736" style="fill: #008000; stroke: #008000"/>
     <use xlink:href="#m4a9c227cf1" x="403.114833" y="368.795736" style="fill: #008000; stroke: #008000"/>
     <use xlink:href="#m4a9c227cf1" x="406.08134" y="368.874403" style="fill: #008000; stroke: #008000"/>
     <use xlink:href="#m4a9c227cf1" x="409.047847" y="254.823322" style="fill: #008000; stroke: #008000"/>
     <use xlink:href="#m4a9c227cf1" x="412.014354" y="368.849399" style="fill: #008000; stroke: #008000"/>
     <use xlink:href="#m4a9c227cf1" x="426.84689" y="349.661905" style="fill: #008000; stroke: #008000"/>
     <use xlink:href="#m4a9c227cf1" x="429.813397" y="368.774472" style="fill: #008000; stroke: #008000"/>
     <use xlink:href="#m4a9c227cf1" x="432.779904" y="368.795736" style="fill: #008000; stroke: #008000"/>
     <use xlink:href="#m4a9c227cf1" x="435.746411" y="368.788728" style="fill: #008000; stroke: #008000"/>
     <use xlink:href="#m4a9c227cf1" x="444.645933" y="349.843877" style="fill: #008000; stroke: #008000"/>
     <use xlink:href="#m4a9c227cf1" x="450.578947" y="159.096842" style="fill: #008000; stroke: #008000"/>
     <use xlink:href="#m4a9c227cf1" x="462.444976" y="311.343688" style="fill: #008000; stroke: #008000"/>
     <use xlink:href="#m4a9c227cf1" x="468.37799" y="349.664939" style="fill: #008000; stroke: #008000"/>
     <use xlink:href="#m4a9c227cf1" x="471.344498" y="349.61539" style="fill: #008000; stroke: #008000"/>
     <use xlink:href="#m4a9c227cf1" x="477.277512" y="311.343795" style="fill: #008000; stroke: #008000"/>
     <use xlink:href="#m4a9c227cf1" x="480.244019" y="349.664939" style="fill: #008000; stroke: #008000"/>
     <use xlink:href="#m4a9c227cf1" x="483.210526" y="349.525864" style="fill: #008000; stroke: #008000"/>
     <use xlink:href="#m4a9c227cf1" x="512.875598" y="368.674313" style="fill: #008000; stroke: #008000"/>
     <use xlink:href="#m4a9c227cf1" x="524.741627" y="368.701077" style="fill: #008000; stroke: #008000"/>
     <use xlink:href="#m4a9c227cf1" x="530.674641" y="368.674313" style="fill: #008000; stroke: #008000"/>
     <use xlink:href="#m4a9c227cf1" x="533.641148" y="368.674313" style="fill: #008000; stroke: #008000"/>
     <use xlink:href="#m4a9c227cf1" x="545.507177" y="349.441836" style="fill: #008000; stroke: #008000"/>
     <use xlink:href="#m4a9c227cf1" x="551.440191" y="349.441874" style="fill: #008000; stroke: #008000"/>
     <use xlink:href="#m4a9c227cf1" x="554.406699" y="368.674313" style="fill: #008000; stroke: #008000"/>
     <use xlink:href="#m4a9c227cf1" x="557.373206" y="368.674313" style="fill: #008000; stroke: #008000"/>
     <use xlink:href="#m4a9c227cf1" x="560.339713" y="330.072702" style="fill: #008000; stroke: #008000"/>
     <use xlink:href="#m4a9c227cf1" x="566.272727" y="368.355033" style="fill: #008000; stroke: #008000"/>
     <use xlink:href="#m4a9c227cf1" x="569.239234" y="368.591161" style="fill: #008000; stroke: #008000"/>
     <use xlink:href="#m4a9c227cf1" x="592.971292" y="348.823028" style="fill: #008000; stroke: #008000"/>
     <use xlink:href="#m4a9c227cf1" x="598.904306" y="348.2626" style="fill: #008000; stroke: #008000"/>
     <use xlink:href="#m4a9c227cf1" x="601.870813" y="368.01279" style="fill: #008000; stroke: #008000"/>
     <use xlink:href="#m4a9c227cf1" x="604.837321" y="368.164854" style="fill: #008000; stroke: #008000"/>
     <use xlink:href="#m4a9c227cf1" x="607.803828" y="348.219268" style="fill: #008000; stroke: #008000"/>
     <use xlink:href="#m4a9c227cf1" x="610.770335" y="328.420771" style="fill: #008000; stroke: #008000"/>
     <use xlink:href="#m4a9c227cf1" x="622.636364" y="368.264357" style="fill: #008000; stroke: #008000"/>
    </g>
   </g>
   <g id="patch_7">
    <path d="M 90 384.48 
L 90 51.84 
" style="fill: none; stroke: #000000; stroke-width: 0.8; stroke-linejoin: miter; stroke-linecap: square"/>
   </g>
   <g id="patch_8">
    <path d="M 648 384.48 
L 648 51.84 
" style="fill: none; stroke: #000000; stroke-width: 0.8; stroke-linejoin: miter; stroke-linecap: square"/>
   </g>
   <g id="patch_9">
    <path d="M 90 384.48 
L 648 384.48 
" style="fill: none; stroke: #000000; stroke-width: 0.8; stroke-linejoin: miter; stroke-linecap: square"/>
   </g>
   <g id="patch_10">
    <path d="M 90 51.84 
L 648 51.84 
" style="fill: none; stroke: #000000; stroke-width: 0.8; stroke-linejoin: miter; stroke-linecap: square"/>
   </g>
  </g>
  <g id="axes_3">
   <g id="matplotlib.axis_4">
    <g id="ytick_17">
     <g id="line2d_27">
      <g>
       <use xlink:href="#m572774e08f" x="708" y="340.219749" style="stroke: #000000; stroke-width: 0.8"/>
      </g>
     </g>
     <g id="text_28">
      <!-- 2325 -->
      <g style="fill: #ff0000" transform="translate(715 343.657249) scale(0.1 -0.1)">
       <use xlink:href="#SimHei-32"/>
       <use xlink:href="#SimHei-33" x="50"/>
       <use xlink:href="#SimHei-32" x="100"/>
       <use xlink:href="#SimHei-35" x="150"/>
      </g>
     </g>
    </g>
    <g id="ytick_18">
     <g id="line2d_28">
      <g>
       <use xlink:href="#m572774e08f" x="708" y="295.189799" style="stroke: #000000; stroke-width: 0.8"/>
      </g>
     </g>
     <g id="text_29">
      <!-- 2350 -->
      <g style="fill: #ff0000" transform="translate(715 298.627299) scale(0.1 -0.1)">
       <use xlink:href="#SimHei-32"/>
       <use xlink:href="#SimHei-33" x="50"/>
       <use xlink:href="#SimHei-35" x="100"/>
       <use xlink:href="#SimHei-30" x="150"/>
      </g>
     </g>
    </g>
    <g id="ytick_19">
     <g id="line2d_29">
      <g>
       <use xlink:href="#m572774e08f" x="708" y="250.159849" style="stroke: #000000; stroke-width: 0.8"/>
      </g>
     </g>
     <g id="text_30">
      <!-- 2375 -->
      <g style="fill: #ff0000" transform="translate(715 253.597349) scale(0.1 -0.1)">
       <use xlink:href="#SimHei-32"/>
       <use xlink:href="#SimHei-33" x="50"/>
       <use xlink:href="#SimHei-37" x="100"/>
       <use xlink:href="#SimHei-35" x="150"/>
      </g>
     </g>
    </g>
    <g id="ytick_20">
     <g id="line2d_30">
      <g>
       <use xlink:href="#m572774e08f" x="708" y="205.129899" style="stroke: #000000; stroke-width: 0.8"/>
      </g>
     </g>
     <g id="text_31">
      <!-- 2400 -->
      <g style="fill: #ff0000" transform="translate(715 208.567399) scale(0.1 -0.1)">
       <use xlink:href="#SimHei-32"/>
       <use xlink:href="#SimHei-34" x="50"/>
       <use xlink:href="#SimHei-30" x="100"/>
       <use xlink:href="#SimHei-30" x="150"/>
      </g>
     </g>
    </g>
    <g id="ytick_21">
     <g id="line2d_31">
      <g>
       <use xlink:href="#m572774e08f" x="708" y="160.099949" style="stroke: #000000; stroke-width: 0.8"/>
      </g>
     </g>
     <g id="text_32">
      <!-- 2425 -->
      <g style="fill: #ff0000" transform="translate(715 163.537449) scale(0.1 -0.1)">
       <use xlink:href="#SimHei-32"/>
       <use xlink:href="#SimHei-34" x="50"/>
       <use xlink:href="#SimHei-32" x="100"/>
       <use xlink:href="#SimHei-35" x="150"/>
      </g>
     </g>
    </g>
    <g id="ytick_22">
     <g id="line2d_32">
      <g>
       <use xlink:href="#m572774e08f" x="708" y="115.069999" style="stroke: #000000; stroke-width: 0.8"/>
      </g>
     </g>
     <g id="text_33">
      <!-- 2450 -->
      <g style="fill: #ff0000" transform="translate(715 118.507499) scale(0.1 -0.1)">
       <use xlink:href="#SimHei-32"/>
       <use xlink:href="#SimHei-34" x="50"/>
       <use xlink:href="#SimHei-35" x="100"/>
       <use xlink:href="#SimHei-30" x="150"/>
      </g>
     </g>
    </g>
    <g id="ytick_23">
     <g id="line2d_33">
      <g>
       <use xlink:href="#m572774e08f" x="708" y="70.040049" style="stroke: #000000; stroke-width: 0.8"/>
      </g>
     </g>
     <g id="text_34">
      <!-- 2475 -->
      <g style="fill: #ff0000" transform="translate(715 73.477549) scale(0.1 -0.1)">
       <use xlink:href="#SimHei-32"/>
       <use xlink:href="#SimHei-34" x="50"/>
       <use xlink:href="#SimHei-37" x="100"/>
       <use xlink:href="#SimHei-35" x="150"/>
      </g>
     </g>
    </g>
    <g id="text_35">
     <!-- 平均单价 -->
     <g style="fill: #ff0000" transform="translate(747.007812 238.16) rotate(-90) scale(0.1 -0.1)">
      <defs>
       <path id="SimHei-5e73" d="M 4525 4825 
Q 4900 4825 5450 4850 
L 5450 4375 
Q 4925 4400 4525 4400 
L 3475 4400 
L 3475 2025 
L 5000 2025 
Q 5550 2025 6025 2050 
L 6025 1575 
Q 5550 1600 5000 1600 
L 3475 1600 
L 3475 450 
Q 3475 -100 3500 -600 
L 2925 -600 
Q 2950 -100 2950 450 
L 2950 1600 
L 1125 1600 
Q 775 1600 375 1575 
L 375 2050 
Q 775 2025 1175 2025 
L 2950 2025 
L 2950 4400 
L 1775 4400 
Q 1400 4400 875 4375 
L 875 4850 
Q 1400 4825 1750 4825 
L 4525 4825 
z
M 3925 2600 
Q 4500 3300 4900 4125 
Q 5150 3950 5400 3825 
Q 4775 2850 4350 2300 
Q 4150 2475 3925 2600 
z
M 1975 2350 
Q 1600 3100 1050 3725 
Q 1250 3875 1450 4050 
Q 2075 3300 2450 2725 
Q 2150 2500 1975 2350 
z
" transform="scale(0.015625)"/>
       <path id="SimHei-5747" d="M 5775 275 
Q 5775 -325 5362 -450 
Q 4950 -575 4425 -600 
Q 4375 -275 4250 25 
Q 4950 -25 5125 62 
Q 5300 150 5300 500 
L 5375 3700 
L 3550 3700 
Q 3425 3375 3262 3037 
Q 3100 2700 2925 2400 
Q 2675 2550 2475 2625 
Q 3150 3625 3500 5200 
Q 3800 5100 4075 5025 
Q 3975 4875 3875 4650 
Q 3775 4425 3675 4125 
L 5900 4125 
L 5775 275 
z
M 1250 3625 
L 1250 4375 
Q 1250 4775 1225 5100 
L 1775 5100 
Q 1750 4725 1750 4375 
L 1750 3625 
L 1900 3625 
Q 2200 3625 2525 3650 
L 2525 3150 
Q 2200 3175 1900 3175 
L 1750 3175 
L 1750 1100 
L 2500 1375 
Q 2475 1125 2525 900 
Q 1225 475 962 362 
Q 700 250 475 150 
Q 375 475 250 750 
Q 575 800 800 850 
Q 1025 900 1250 975 
L 1250 3175 
L 1125 3175 
Q 850 3175 400 3150 
L 400 3650 
Q 850 3625 1100 3625 
L 1250 3625 
z
M 4950 1625 
Q 4675 1425 4137 1050 
Q 3600 675 3175 300 
Q 3000 575 2850 775 
Q 3350 1050 3762 1325 
Q 4175 1600 4775 2075 
Q 4825 1850 4950 1625 
z
M 3775 3150 
Q 4125 2800 4475 2300 
Q 4250 2125 4100 1975 
Q 3900 2325 3450 2825 
Q 3600 3000 3775 3150 
z
" transform="scale(0.015625)"/>
       <path id="SimHei-5355" d="M 5275 4075 
L 5275 1525 
L 3400 1525 
L 3400 925 
L 5050 925 
Q 5600 925 6000 950 
L 6000 450 
Q 5575 475 5050 475 
L 3400 475 
Q 3400 -300 3425 -625 
L 2875 -625 
Q 2925 -300 2925 475 
L 1300 475 
Q 700 475 425 450 
L 425 950 
Q 675 925 1250 925 
L 2925 925 
L 2925 1525 
L 1125 1525 
Q 1150 1950 1150 2750 
Q 1150 3550 1125 4075 
L 3600 4075 
Q 3875 4650 4075 5250 
Q 4325 5125 4650 4975 
Q 4550 4850 4400 4587 
Q 4250 4325 4100 4075 
L 5275 4075 
z
M 4775 1925 
L 4775 2600 
L 3400 2600 
L 3400 1925 
L 4775 1925 
z
M 4775 3000 
L 4775 3650 
L 3400 3650 
L 3400 3000 
L 4775 3000 
z
M 2925 1925 
L 2925 2600 
L 1625 2600 
L 1625 1925 
L 2925 1925 
z
M 2925 3000 
L 2925 3650 
L 1625 3650 
L 1625 3000 
L 2925 3000 
z
M 2100 5225 
Q 2350 4950 2675 4350 
Q 2400 4225 2225 4125 
Q 1975 4675 1725 4975 
Q 1900 5075 2100 5225 
z
" transform="scale(0.015625)"/>
       <path id="SimHei-4ef7" d="M 2200 4975 
Q 2050 4725 1650 3775 
L 1650 450 
Q 1650 -225 1675 -650 
L 1175 -650 
Q 1175 -225 1200 450 
L 1200 2975 
Q 900 2425 650 2100 
Q 525 2275 225 2450 
Q 750 3025 1125 3800 
Q 1500 4575 1625 5175 
Q 1950 5025 2200 4975 
z
M 4175 4700 
Q 4850 3525 6150 2950 
Q 5925 2750 5775 2500 
Q 4725 3100 3950 4300 
Q 3300 3125 2250 2350 
Q 2125 2525 1900 2725 
Q 2825 3325 3250 4050 
Q 3675 4775 3750 5150 
Q 4150 4950 4325 4900 
L 4175 4700 
z
M 3475 2650 
Q 3400 2075 3325 1087 
Q 3250 100 2325 -675 
Q 2175 -450 1925 -300 
Q 2850 350 2912 1262 
Q 2975 2175 2950 2700 
Q 3275 2650 3475 2650 
z
M 5075 2700 
Q 5050 2150 5050 1725 
L 5050 150 
Q 5050 -225 5075 -650 
L 4550 -650 
Q 4575 -225 4575 175 
L 4575 1875 
Q 4575 2150 4550 2700 
L 5075 2700 
z
" transform="scale(0.015625)"/>
      </defs>
      <use xlink:href="#SimHei-5e73"/>
      <use xlink:href="#SimHei-5747" x="100"/>
      <use xlink:href="#SimHei-5355" x="200"/>
      <use xlink:href="#SimHei-4ef7" x="300"/>
     </g>
    </g>
   </g>
   <g id="line2d_34">
    <path d="M 115.363636 284.26153 
L 118.330144 284.26153 
L 121.296651 284.26153 
L 133.162679 284.26153 
L 139.095694 285.816364 
L 142.062201 208.602608 
L 145.028708 208.602608 
L 147.995215 207.098522 
L 153.92823 204.09035 
L 156.894737 204.09035 
L 165.794258 197.384747 
L 180.626794 260.493322 
L 183.593301 241.161064 
L 186.559809 266.937408 
L 189.526316 208.269987 
L 192.492823 211.689261 
L 195.45933 291.438161 
L 198.425837 207.321818 
L 201.392344 207.015153 
L 207.325359 187.964482 
L 210.291866 187.964482 
L 213.258373 187.964482 
L 216.22488 187.964482 
L 219.191388 203.630918 
L 222.157895 197.178784 
L 225.124402 211.000238 
L 228.090909 187.964482 
L 231.057416 250.540386 
L 234.023923 261.604528 
L 236.990431 290.567682 
L 239.956938 294.429436 
L 242.923445 294.429436 
L 245.889952 294.429436 
L 248.856459 310.011446 
L 251.822967 369.36 
L 254.789474 369.36 
L 257.755981 361.131106 
L 260.722488 369.36 
L 263.688995 369.36 
L 266.655502 369.35953 
L 269.62201 369.35953 
L 272.588517 369.35953 
L 284.454545 369.35953 
L 290.38756 369.35953 
L 296.320574 328.917231 
L 299.287081 328.917231 
L 302.253589 328.917231 
L 305.220096 333.414504 
L 308.186603 297.469007 
L 311.15311 297.469007 
L 314.119617 301.819578 
L 320.052632 299.723414 
L 323.019139 237.665539 
L 328.952153 281.563692 
L 331.91866 230.032962 
L 334.885167 227.14254 
L 337.851675 295.774588 
L 343.784689 295.774588 
L 346.751196 320.829852 
L 355.650718 320.829852 
L 358.617225 320.829852 
L 367.516746 286.431474 
L 370.483254 282.524837 
L 373.449761 271.625326 
L 376.416268 267.172134 
L 379.382775 271.625326 
L 385.315789 242.702889 
L 400.148325 242.702889 
L 403.114833 242.702889 
L 406.08134 260.360633 
L 409.047847 261.153706 
L 412.014354 254.748137 
L 426.84689 237.929714 
L 429.813397 237.929714 
L 432.779904 242.702889 
L 435.746411 241.129843 
L 444.645933 258.352739 
L 450.578947 248.415972 
L 462.444976 232.70624 
L 468.37799 238.270259 
L 471.344498 232.709242 
L 477.277512 232.712244 
L 480.244019 238.270259 
L 483.210526 222.661559 
L 512.875598 215.447761 
L 524.741627 221.455223 
L 530.674641 215.447761 
L 533.641148 215.447761 
L 545.507177 213.231022 
L 551.440191 213.23529 
L 554.406699 215.447761 
L 557.373206 215.447761 
L 560.339713 202.267195 
L 566.272727 143.781095 
L 569.239234 196.783147 
L 592.971292 143.781095 
L 598.904306 80.883261 
L 601.870813 66.96 
L 604.837321 101.092702 
L 607.803828 76.020026 
L 610.770335 78.667787 
L 622.636364 123.427557 
" clip-path="url(#p08774de038)" style="fill: none; stroke: #ff0000; stroke-width: 1.5; stroke-linecap: square"/>
    <defs>
     <path id="m6391cc65f9" d="M 0 3 
C 0.795609 3 1.55874 2.683901 2.12132 2.12132 
C 2.683901 1.55874 3 0.795609 3 0 
C 3 -0.795609 2.683901 -1.55874 2.12132 -2.12132 
C 1.55874 -2.683901 0.795609 -3 0 -3 
C -0.795609 -3 -1.55874 -2.683901 -2.12132 -2.12132 
C -2.683901 -1.55874 -3 -0.795609 -3 0 
C -3 0.795609 -2.683901 1.55874 -2.12132 2.12132 
C -1.55874 2.683901 -0.795609 3 0 3 
z
" style="stroke: #ff0000"/>
    </defs>
    <g clip-path="url(#p08774de038)">
     <use xlink:href="#m6391cc65f9" x="115.363636" y="284.26153" style="fill: #ff0000; stroke: #ff0000"/>
     <use xlink:href="#m6391cc65f9" x="118.330144" y="284.26153" style="fill: #ff0000; stroke: #ff0000"/>
     <use xlink:href="#m6391cc65f9" x="121.296651" y="284.26153" style="fill: #ff0000; stroke: #ff0000"/>
     <use xlink:href="#m6391cc65f9" x="133.162679" y="284.26153" style="fill: #ff0000; stroke: #ff0000"/>
     <use xlink:href="#m6391cc65f9" x="139.095694" y="285.816364" style="fill: #ff0000; stroke: #ff0000"/>
     <use xlink:href="#m6391cc65f9" x="142.062201" y="208.602608" style="fill: #ff0000; stroke: #ff0000"/>
     <use xlink:href="#m6391cc65f9" x="145.028708" y="208.602608" style="fill: #ff0000; stroke: #ff0000"/>
     <use xlink:href="#m6391cc65f9" x="147.995215" y="207.098522" style="fill: #ff0000; stroke: #ff0000"/>
     <use xlink:href="#m6391cc65f9" x="153.92823" y="204.09035" style="fill: #ff0000; stroke: #ff0000"/>
     <use xlink:href="#m6391cc65f9" x="156.894737" y="204.09035" style="fill: #ff0000; stroke: #ff0000"/>
     <use xlink:href="#m6391cc65f9" x="165.794258" y="197.384747" style="fill: #ff0000; stroke: #ff0000"/>
     <use xlink:href="#m6391cc65f9" x="180.626794" y="260.493322" style="fill: #ff0000; stroke: #ff0000"/>
     <use xlink:href="#m6391cc65f9" x="183.593301" y="241.161064" style="fill: #ff0000; stroke: #ff0000"/>
     <use xlink:href="#m6391cc65f9" x="186.559809" y="266.937408" style="fill: #ff0000; stroke: #ff0000"/>
     <use xlink:href="#m6391cc65f9" x="189.526316" y="208.269987" style="fill: #ff0000; stroke: #ff0000"/>
     <use xlink:href="#m6391cc65f9" x="192.492823" y="211.689261" style="fill: #ff0000; stroke: #ff0000"/>
     <use xlink:href="#m6391cc65f9" x="195.45933" y="291.438161" style="fill: #ff0000; stroke: #ff0000"/>
     <use xlink:href="#m6391cc65f9" x="198.425837" y="207.321818" style="fill: #ff0000; stroke: #ff0000"/>
     <use xlink:href="#m6391cc65f9" x="201.392344" y="207.015153" style="fill: #ff0000; stroke: #ff0000"/>
     <use xlink:href="#m6391cc65f9" x="207.325359" y="187.964482" style="fill: #ff0000; stroke: #ff0000"/>
     <use xlink:href="#m6391cc65f9" x="210.291866" y="187.964482" style="fill: #ff0000; stroke: #ff0000"/>
     <use xlink:href="#m6391cc65f9" x="213.258373" y="187.964482" style="fill: #ff0000; stroke: #ff0000"/>
     <use xlink:href="#m6391cc65f9" x="216.22488" y="187.964482" style="fill: #ff0000; stroke: #ff0000"/>
     <use xlink:href="#m6391cc65f9" x="219.191388" y="203.630918" style="fill: #ff0000; stroke: #ff0000"/>
     <use xlink:href="#m6391cc65f9" x="222.157895" y="197.178784" style="fill: #ff0000; stroke: #ff0000"/>
     <use xlink:href="#m6391cc65f9" x="225.124402" y="211.000238" style="fill: #ff0000; stroke: #ff0000"/>
     <use xlink:href="#m6391cc65f9" x="228.090909" y="187.964482" style="fill: #ff0000; stroke: #ff0000"/>
     <use xlink:href="#m6391cc65f9" x="231.057416" y="250.540386" style="fill: #ff0000; stroke: #ff0000"/>
     <use xlink:href="#m6391cc65f9" x="234.023923" y="261.604528" style="fill: #ff0000; stroke: #ff0000"/>
     <use xlink:href="#m6391cc65f9" x="236.990431" y="290.567682" style="fill: #ff0000; stroke: #ff0000"/>
     <use xlink:href="#m6391cc65f9" x="239.956938" y="294.429436" style="fill: #ff0000; stroke: #ff0000"/>
     <use xlink:href="#m6391cc65f9" x="242.923445" y="294.429436" style="fill: #ff0000; stroke: #ff0000"/>
     <use xlink:href="#m6391cc65f9" x="245.889952" y="294.429436" style="fill: #ff0000; stroke: #ff0000"/>
     <use xlink:href="#m6391cc65f9" x="248.856459" y="310.011446" style="fill: #ff0000; stroke: #ff0000"/>
     <use xlink:href="#m6391cc65f9" x="251.822967" y="369.36" style="fill: #ff0000; stroke: #ff0000"/>
     <use xlink:href="#m6391cc65f9" x="254.789474" y="369.36" style="fill: #ff0000; stroke: #ff0000"/>
     <use xlink:href="#m6391cc65f9" x="257.755981" y="361.131106" style="fill: #ff0000; stroke: #ff0000"/>
     <use xlink:href="#m6391cc65f9" x="260.722488" y="369.36" style="fill: #ff0000; stroke: #ff0000"/>
     <use xlink:href="#m6391cc65f9" x="263.688995" y="369.36" style="fill: #ff0000; stroke: #ff0000"/>
     <use xlink:href="#m6391cc65f9" x="266.655502" y="369.35953" style="fill: #ff0000; stroke: #ff0000"/>
     <use xlink:href="#m6391cc65f9" x="269.62201" y="369.35953" style="fill: #ff0000; stroke: #ff0000"/>
     <use xlink:href="#m6391cc65f9" x="272.588517" y="369.35953" style="fill: #ff0000; stroke: #ff0000"/>
     <use xlink:href="#m6391cc65f9" x="284.454545" y="369.35953" style="fill: #ff0000; stroke: #ff0000"/>
     <use xlink:href="#m6391cc65f9" x="290.38756" y="369.35953" style="fill: #ff0000; stroke: #ff0000"/>
     <use xlink:href="#m6391cc65f9" x="296.320574" y="328.917231" style="fill: #ff0000; stroke: #ff0000"/>
     <use xlink:href="#m6391cc65f9" x="299.287081" y="328.917231" style="fill: #ff0000; stroke: #ff0000"/>
     <use xlink:href="#m6391cc65f9" x="302.253589" y="328.917231" style="fill: #ff0000; stroke: #ff0000"/>
     <use xlink:href="#m6391cc65f9" x="305.220096" y="333.414504" style="fill: #ff0000; stroke: #ff0000"/>
     <use xlink:href="#m6391cc65f9" x="308.186603" y="297.469007" style="fill: #ff0000; stroke: #ff0000"/>
     <use xlink:href="#m6391cc65f9" x="311.15311" y="297.469007" style="fill: #ff0000; stroke: #ff0000"/>
     <use xlink:href="#m6391cc65f9" x="314.119617" y="301.819578" style="fill: #ff0000; stroke: #ff0000"/>
     <use xlink:href="#m6391cc65f9" x="320.052632" y="299.723414" style="fill: #ff0000; stroke: #ff0000"/>
     <use xlink:href="#m6391cc65f9" x="323.019139" y="237.665539" style="fill: #ff0000; stroke: #ff0000"/>
     <use xlink:href="#m6391cc65f9" x="328.952153" y="281.563692" style="fill: #ff0000; stroke: #ff0000"/>
     <use xlink:href="#m6391cc65f9" x="331.91866" y="230.032962" style="fill: #ff0000; stroke: #ff0000"/>
     <use xlink:href="#m6391cc65f9" x="334.885167" y="227.14254" style="fill: #ff0000; stroke: #ff0000"/>
     <use xlink:href="#m6391cc65f9" x="337.851675" y="295.774588" style="fill: #ff0000; stroke: #ff0000"/>
     <use xlink:href="#m6391cc65f9" x="343.784689" y="295.774588" style="fill: #ff0000; stroke: #ff0000"/>
     <use xlink:href="#m6391cc65f9" x="346.751196" y="320.829852" style="fill: #ff0000; stroke: #ff0000"/>
     <use xlink:href="#m6391cc65f9" x="355.650718" y="320.829852" style="fill: #ff0000; stroke: #ff0000"/>
     <use xlink:href="#m6391cc65f9" x="358.617225" y="320.829852" style="fill: #ff0000; stroke: #ff0000"/>
     <use xlink:href="#m6391cc65f9" x="367.516746" y="286.431474" style="fill: #ff0000; stroke: #ff0000"/>
     <use xlink:href="#m6391cc65f9" x="370.483254" y="282.524837" style="fill: #ff0000; stroke: #ff0000"/>
     <use xlink:href="#m6391cc65f9" x="373.449761" y="271.625326" style="fill: #ff0000; stroke: #ff0000"/>
     <use xlink:href="#m6391cc65f9" x="376.416268" y="267.172134" style="fill: #ff0000; stroke: #ff0000"/>
     <use xlink:href="#m6391cc65f9" x="379.382775" y="271.625326" style="fill: #ff0000; stroke: #ff0000"/>
     <use xlink:href="#m6391cc65f9" x="385.315789" y="242.702889" style="fill: #ff0000; stroke: #ff0000"/>
     <use xlink:href="#m6391cc65f9" x="400.148325" y="242.702889" style="fill: #ff0000; stroke: #ff0000"/>
     <use xlink:href="#m6391cc65f9" x="403.114833" y="242.702889" style="fill: #ff0000; stroke: #ff0000"/>
     <use xlink:href="#m6391cc65f9" x="406.08134" y="260.360633" style="fill: #ff0000; stroke: #ff0000"/>
     <use xlink:href="#m6391cc65f9" x="409.047847" y="261.153706" style="fill: #ff0000; stroke: #ff0000"/>
     <use xlink:href="#m6391cc65f9" x="412.014354" y="254.748137" style="fill: #ff0000; stroke: #ff0000"/>
     <use xlink:href="#m6391cc65f9" x="426.84689" y="237.929714" style="fill: #ff0000; stroke: #ff0000"/>
     <use xlink:href="#m6391cc65f9" x="429.813397" y="237.929714" style="fill: #ff0000; stroke: #ff0000"/>
     <use xlink:href="#m6391cc65f9" x="432.779904" y="242.702889" style="fill: #ff0000; stroke: #ff0000"/>
     <use xlink:href="#m6391cc65f9" x="435.746411" y="241.129843" style="fill: #ff0000; stroke: #ff0000"/>
     <use xlink:href="#m6391cc65f9" x="444.645933" y="258.352739" style="fill: #ff0000; stroke: #ff0000"/>
     <use xlink:href="#m6391cc65f9" x="450.578947" y="248.415972" style="fill: #ff0000; stroke: #ff0000"/>
     <use xlink:href="#m6391cc65f9" x="462.444976" y="232.70624" style="fill: #ff0000; stroke: #ff0000"/>
     <use xlink:href="#m6391cc65f9" x="468.37799" y="238.270259" style="fill: #ff0000; stroke: #ff0000"/>
     <use xlink:href="#m6391cc65f9" x="471.344498" y="232.709242" style="fill: #ff0000; stroke: #ff0000"/>
     <use xlink:href="#m6391cc65f9" x="477.277512" y="232.712244" style="fill: #ff0000; stroke: #ff0000"/>
     <use xlink:href="#m6391cc65f9" x="480.244019" y="238.270259" style="fill: #ff0000; stroke: #ff0000"/>
     <use xlink:href="#m6391cc65f9" x="483.210526" y="222.661559" style="fill: #ff0000; stroke: #ff0000"/>
     <use xlink:href="#m6391cc65f9" x="512.875598" y="215.447761" style="fill: #ff0000; stroke: #ff0000"/>
     <use xlink:href="#m6391cc65f9" x="524.741627" y="221.455223" style="fill: #ff0000; stroke: #ff0000"/>
     <use xlink:href="#m6391cc65f9" x="530.674641" y="215.447761" style="fill: #ff0000; stroke: #ff0000"/>
     <use xlink:href="#m6391cc65f9" x="533.641148" y="215.447761" style="fill: #ff0000; stroke: #ff0000"/>
     <use xlink:href="#m6391cc65f9" x="545.507177" y="213.231022" style="fill: #ff0000; stroke: #ff0000"/>
     <use xlink:href="#m6391cc65f9" x="551.440191" y="213.23529" style="fill: #ff0000; stroke: #ff0000"/>
     <use xlink:href="#m6391cc65f9" x="554.406699" y="215.447761" style="fill: #ff0000; stroke: #ff0000"/>
     <use xlink:href="#m6391cc65f9" x="557.373206" y="215.447761" style="fill: #ff0000; stroke: #ff0000"/>
     <use xlink:href="#m6391cc65f9" x="560.339713" y="202.267195" style="fill: #ff0000; stroke: #ff0000"/>
     <use xlink:href="#m6391cc65f9" x="566.272727" y="143.781095" style="fill: #ff0000; stroke: #ff0000"/>
     <use xlink:href="#m6391cc65f9" x="569.239234" y="196.783147" style="fill: #ff0000; stroke: #ff0000"/>
     <use xlink:href="#m6391cc65f9" x="592.971292" y="143.781095" style="fill: #ff0000; stroke: #ff0000"/>
     <use xlink:href="#m6391cc65f9" x="598.904306" y="80.883261" style="fill: #ff0000; stroke: #ff0000"/>
     <use xlink:href="#m6391cc65f9" x="601.870813" y="66.96" style="fill: #ff0000; stroke: #ff0000"/>
     <use xlink:href="#m6391cc65f9" x="604.837321" y="101.092702" style="fill: #ff0000; stroke: #ff0000"/>
     <use xlink:href="#m6391cc65f9" x="607.803828" y="76.020026" style="fill: #ff0000; stroke: #ff0000"/>
     <use xlink:href="#m6391cc65f9" x="610.770335" y="78.667787" style="fill: #ff0000; stroke: #ff0000"/>
     <use xlink:href="#m6391cc65f9" x="622.636364" y="123.427557" style="fill: #ff0000; stroke: #ff0000"/>
    </g>
   </g>
   <g id="patch_11">
    <path d="M 90 384.48 
L 90 51.84 
" style="fill: none; stroke: #000000; stroke-width: 0.8; stroke-linejoin: miter; stroke-linecap: square"/>
   </g>
   <g id="patch_12">
    <path d="M 708 384.48 
L 708 51.84 
" style="fill: none; stroke: #000000; stroke-width: 0.8; stroke-linejoin: miter; stroke-linecap: square"/>
   </g>
   <g id="patch_13">
    <path d="M 90 384.48 
L 648 384.48 
" style="fill: none; stroke: #000000; stroke-width: 0.8; stroke-linejoin: miter; stroke-linecap: square"/>
   </g>
   <g id="patch_14">
    <path d="M 90 51.84 
L 648 51.84 
" style="fill: none; stroke: #000000; stroke-width: 0.8; stroke-linejoin: miter; stroke-linecap: square"/>
   </g>
   <g id="text_36">
    <!-- 6004020922 每周需求量、收益与平均单价 -->
    <g transform="translate(258 45.84) scale(0.12 -0.12)">
     <defs>
      <path id="SimHei-39" d="M 800 75 
Q 1350 1000 1700 1750 
Q 1075 1650 662 1912 
Q 250 2175 162 2625 
Q 75 3075 175 3437 
Q 275 3800 487 4037 
Q 700 4275 1000 4375 
Q 1300 4475 1537 4475 
Q 1775 4475 2025 4375 
Q 2275 4275 2475 4075 
Q 2675 3875 2750 3662 
Q 2825 3450 2825 3112 
Q 2825 2775 2575 2250 
Q 2325 1725 1350 75 
L 800 75 
z
M 662 2875 
Q 700 2550 937 2337 
Q 1175 2125 1450 2150 
Q 1725 2175 1887 2300 
Q 2050 2425 2200 2725 
Q 2300 3100 2250 3362 
Q 2200 3625 1987 3800 
Q 1775 3975 1525 3975 
Q 1375 4000 1137 3900 
Q 900 3800 762 3500 
Q 625 3200 662 2875 
z
" transform="scale(0.015625)"/>
      <path id="SimHei-20" transform="scale(0.015625)"/>
      <path id="SimHei-6bcf" d="M 5225 3650 
Q 5175 3150 5150 2675 
L 5125 2200 
Q 5525 2200 6000 2225 
L 6000 1775 
Q 5625 1800 5100 1800 
L 5050 650 
Q 5325 650 5700 675 
L 5700 225 
Q 5400 250 5025 250 
Q 5000 -275 4775 -425 
Q 4550 -575 4000 -650 
Q 3950 -400 3775 -125 
Q 4375 -125 4475 -50 
Q 4575 25 4575 250 
L 1400 250 
L 1500 1100 
L 1550 1800 
L 1275 1800 
Q 825 1800 550 1775 
L 550 2225 
Q 975 2200 1275 2200 
L 1575 2200 
L 1625 2825 
L 1675 3650 
L 5225 3650 
z
M 2350 5000 
Q 2175 4825 2050 4600 
L 4875 4600 
Q 5275 4600 5775 4625 
L 5775 4175 
Q 5275 4200 4875 4200 
L 1825 4200 
L 1375 3625 
Q 1125 3325 775 2975 
Q 600 3175 350 3300 
Q 725 3575 1150 4112 
Q 1575 4650 1825 5250 
Q 2125 5075 2350 5000 
z
M 1975 1800 
L 1875 650 
L 4625 650 
L 4675 1800 
L 2950 1800 
Q 3575 1275 3825 1125 
Q 3625 925 3475 725 
Q 3100 1100 2650 1475 
Q 2775 1675 2875 1800 
L 1975 1800 
z
M 2975 3250 
Q 3125 3150 3287 3012 
Q 3450 2875 3800 2550 
Q 3650 2350 3525 2200 
L 4700 2200 
L 4750 3250 
L 2975 3250 
z
M 2075 3250 
L 2000 2200 
L 3425 2200 
Q 3150 2500 3012 2625 
Q 2875 2750 2700 2900 
Q 2800 3050 2925 3250 
L 2075 3250 
z
" transform="scale(0.015625)"/>
      <path id="SimHei-3001" d="M 1725 -275 
Q 1325 700 925 1450 
L 1325 1650 
Q 1825 950 2325 25 
L 1725 -275 
z
" transform="scale(0.015625)"/>
      <path id="SimHei-4e0e" d="M 5350 100 
Q 5275 -300 4925 -425 
Q 4575 -550 3900 -600 
Q 3875 -375 3650 -25 
Q 4375 -50 4575 0 
Q 4775 50 4837 225 
Q 4900 400 5100 2350 
L 1125 2350 
Q 1450 4350 1475 5200 
Q 1800 5150 2075 5125 
Q 1975 4825 1900 4275 
L 4900 4275 
Q 5400 4275 5800 4300 
L 5800 3825 
Q 5400 3850 4950 3850 
L 1850 3850 
L 1700 2750 
L 5675 2750 
Q 5625 2450 5575 2050 
L 5350 100 
z
M 3675 1350 
Q 4125 1350 4500 1375 
L 4500 875 
Q 4125 900 3850 900 
L 1450 900 
Q 1000 900 500 875 
L 500 1375 
Q 1000 1350 1450 1350 
L 3675 1350 
z
" transform="scale(0.015625)"/>
     </defs>
     <use xlink:href="#SimHei-36"/>
     <use xlink:href="#SimHei-30" x="50"/>
     <use xlink:href="#SimHei-30" x="100"/>
     <use xlink:href="#SimHei-34" x="150"/>
     <use xlink:href="#SimHei-30" x="200"/>
     <use xlink:href="#SimHei-32" x="250"/>
     <use xlink:href="#SimHei-30" x="300"/>
     <use xlink:href="#SimHei-39" x="350"/>
     <use xlink:href="#SimHei-32" x="400"/>
     <use xlink:href="#SimHei-32" x="450"/>
     <use xlink:href="#SimHei-20" x="500"/>
     <use xlink:href="#SimHei-6bcf" x="550"/>
     <use xlink:href="#SimHei-5468" x="650"/>
     <use xlink:href="#SimHei-9700" x="750"/>
     <use xlink:href="#SimHei-6c42" x="850"/>
     <use xlink:href="#SimHei-91cf" x="950"/>
     <use xlink:href="#SimHei-3001" x="1050"/>
     <use xlink:href="#SimHei-6536" x="1150"/>
     <use xlink:href="#SimHei-76ca" x="1250"/>
     <use xlink:href="#SimHei-4e0e" x="1350"/>
     <use xlink:href="#SimHei-5e73" x="1450"/>
     <use xlink:href="#SimHei-5747" x="1550"/>
     <use xlink:href="#SimHei-5355" x="1650"/>
     <use xlink:href="#SimHei-4ef7" x="1750"/>
    </g>
   </g>
  </g>
 </g>
 <defs>
  <clipPath id="p08774de038">
   <rect x="90" y="51.84" width="558" height="332.64"/>
  </clipPath>
 </defs>
</svg>
