<?xml version="1.0" encoding="utf-8" standalone="no"?>
<!DOCTYPE svg PUBLIC "-//W3C//DTD SVG 1.1//EN"
  "http://www.w3.org/Graphics/SVG/1.1/DTD/svg11.dtd">
<svg xmlns:xlink="http://www.w3.org/1999/xlink" width="720pt" height="432pt" viewBox="0 0 720 432" xmlns="http://www.w3.org/2000/svg" version="1.1">
 <metadata>
  <rdf:RDF xmlns:dc="http://purl.org/dc/elements/1.1/" xmlns:cc="http://creativecommons.org/ns#" xmlns:rdf="http://www.w3.org/1999/02/22-rdf-syntax-ns#">
   <cc:Work>
    <dc:type rdf:resource="http://purl.org/dc/dcmitype/StillImage"/>
    <dc:date>2024-08-17T14:09:05.576663</dc:date>
    <dc:format>image/svg+xml</dc:format>
    <dc:creator>
     <cc:Agent>
      <dc:title>Matplotlib v3.8.0, https://matplotlib.org/</dc:title>
     </cc:Agent>
    </dc:creator>
   </cc:Work>
  </rdf:RDF>
 </metadata>
 <defs>
  <style type="text/css">*{stroke-linejoin: round; stroke-linecap: butt}</style>
 </defs>
 <g id="figure_1">
  <g id="patch_1">
   <path d="M 0 432 
L 720 432 
L 720 0 
L 0 0 
z
" style="fill: #ffffff"/>
  </g>
  <g id="axes_1">
   <g id="patch_2">
    <path d="M 90 384.48 
L 648 384.48 
L 648 51.84 
L 90 51.84 
z
" style="fill: #ffffff"/>
   </g>
   <g id="matplotlib.axis_1">
    <g id="xtick_1">
     <g id="line2d_1">
      <path d="M 109.430622 384.48 
L 109.430622 51.84 
" clip-path="url(#p1431600684)" style="fill: none; stroke: #b0b0b0; stroke-width: 0.8; stroke-linecap: square"/>
     </g>
     <g id="line2d_2">
      <defs>
       <path id="mc5ca7465f9" d="M 0 0 
L 0 3.5 
" style="stroke: #000000; stroke-width: 0.8"/>
      </defs>
      <g>
       <use xlink:href="#mc5ca7465f9" x="109.430622" y="384.48" style="stroke: #000000; stroke-width: 0.8"/>
      </g>
     </g>
     <g id="text_1">
      <!-- 0 -->
      <g transform="translate(106.930622 398.355) scale(0.1 -0.1)">
       <defs>
        <path id="SimHei-30" d="M 225 2537 
Q 250 3200 412 3587 
Q 575 3975 875 4225 
Q 1175 4475 1612 4475 
Q 2050 4475 2375 4112 
Q 2700 3750 2800 3200 
Q 2900 2650 2862 1937 
Q 2825 1225 2612 775 
Q 2400 325 1975 150 
Q 1550 -25 1125 187 
Q 700 400 525 750 
Q 350 1100 275 1487 
Q 200 1875 225 2537 
z
M 750 2687 
Q 675 2000 800 1462 
Q 925 925 1212 700 
Q 1500 475 1800 612 
Q 2100 750 2237 1162 
Q 2375 1575 2375 2062 
Q 2375 2550 2337 2950 
Q 2300 3350 2112 3675 
Q 1925 4000 1612 4012 
Q 1300 4025 1062 3700 
Q 825 3375 750 2687 
z
" transform="scale(0.015625)"/>
       </defs>
       <use xlink:href="#SimHei-30"/>
      </g>
     </g>
    </g>
    <g id="xtick_2">
     <g id="line2d_3">
      <path d="M 183.593301 384.48 
L 183.593301 51.84 
" clip-path="url(#p1431600684)" style="fill: none; stroke: #b0b0b0; stroke-width: 0.8; stroke-linecap: square"/>
     </g>
     <g id="line2d_4">
      <g>
       <use xlink:href="#mc5ca7465f9" x="183.593301" y="384.48" style="stroke: #000000; stroke-width: 0.8"/>
      </g>
     </g>
     <g id="text_2">
      <!-- 25 -->
      <g transform="translate(178.593301 398.355) scale(0.1 -0.1)">
       <defs>
        <path id="SimHei-32" d="M 300 250 
Q 325 625 650 925 
Q 975 1225 1475 1862 
Q 1975 2500 2125 2850 
Q 2275 3200 2237 3450 
Q 2200 3700 2000 3862 
Q 1800 4025 1537 4000 
Q 1275 3975 1037 3800 
Q 800 3625 675 3275 
L 200 3350 
Q 400 3925 712 4187 
Q 1025 4450 1450 4475 
Q 1700 4500 1900 4462 
Q 2100 4425 2312 4287 
Q 2525 4150 2662 3875 
Q 2800 3600 2762 3212 
Q 2725 2825 2375 2287 
Q 2025 1750 1025 600 
L 2825 600 
L 2825 150 
L 300 150 
L 300 250 
z
" transform="scale(0.015625)"/>
        <path id="SimHei-35" d="M 550 1325 
Q 725 650 1150 575 
Q 1575 500 1837 662 
Q 2100 825 2212 1087 
Q 2325 1350 2312 1675 
Q 2300 2000 2137 2225 
Q 1975 2450 1725 2525 
Q 1475 2600 1162 2525 
Q 850 2450 650 2175 
L 225 2225 
Q 275 2375 700 4375 
L 2675 4375 
L 2675 3925 
L 1075 3925 
Q 950 3250 825 2850 
Q 1200 3025 1525 3012 
Q 1850 3000 2150 2862 
Q 2450 2725 2587 2487 
Q 2725 2250 2787 2012 
Q 2850 1775 2837 1500 
Q 2825 1225 2725 937 
Q 2625 650 2425 462 
Q 2225 275 1937 162 
Q 1650 50 1275 75 
Q 900 100 562 350 
Q 225 600 100 1200 
L 550 1325 
z
" transform="scale(0.015625)"/>
       </defs>
       <use xlink:href="#SimHei-32"/>
       <use xlink:href="#SimHei-35" x="50"/>
      </g>
     </g>
    </g>
    <g id="xtick_3">
     <g id="line2d_5">
      <path d="M 257.755981 384.48 
L 257.755981 51.84 
" clip-path="url(#p1431600684)" style="fill: none; stroke: #b0b0b0; stroke-width: 0.8; stroke-linecap: square"/>
     </g>
     <g id="line2d_6">
      <g>
       <use xlink:href="#mc5ca7465f9" x="257.755981" y="384.48" style="stroke: #000000; stroke-width: 0.8"/>
      </g>
     </g>
     <g id="text_3">
      <!-- 50 -->
      <g transform="translate(252.755981 398.355) scale(0.1 -0.1)">
       <use xlink:href="#SimHei-35"/>
       <use xlink:href="#SimHei-30" x="50"/>
      </g>
     </g>
    </g>
    <g id="xtick_4">
     <g id="line2d_7">
      <path d="M 331.91866 384.48 
L 331.91866 51.84 
" clip-path="url(#p1431600684)" style="fill: none; stroke: #b0b0b0; stroke-width: 0.8; stroke-linecap: square"/>
     </g>
     <g id="line2d_8">
      <g>
       <use xlink:href="#mc5ca7465f9" x="331.91866" y="384.48" style="stroke: #000000; stroke-width: 0.8"/>
      </g>
     </g>
     <g id="text_4">
      <!-- 75 -->
      <g transform="translate(326.91866 398.355) scale(0.1 -0.1)">
       <defs>
        <path id="SimHei-37" d="M 850 150 
Q 1300 2050 2425 3925 
L 275 3925 
L 275 4375 
L 2950 4375 
L 2950 3950 
Q 1775 2050 1400 150 
L 850 150 
z
" transform="scale(0.015625)"/>
       </defs>
       <use xlink:href="#SimHei-37"/>
       <use xlink:href="#SimHei-35" x="50"/>
      </g>
     </g>
    </g>
    <g id="xtick_5">
     <g id="line2d_9">
      <path d="M 406.08134 384.48 
L 406.08134 51.84 
" clip-path="url(#p1431600684)" style="fill: none; stroke: #b0b0b0; stroke-width: 0.8; stroke-linecap: square"/>
     </g>
     <g id="line2d_10">
      <g>
       <use xlink:href="#mc5ca7465f9" x="406.08134" y="384.48" style="stroke: #000000; stroke-width: 0.8"/>
      </g>
     </g>
     <g id="text_5">
      <!-- 100 -->
      <g transform="translate(398.58134 398.355) scale(0.1 -0.1)">
       <defs>
        <path id="SimHei-31" d="M 1400 3600 
Q 1075 3275 575 2975 
L 575 3450 
Q 1200 3875 1600 4450 
L 1900 4450 
L 1900 150 
L 1400 150 
L 1400 3600 
z
" transform="scale(0.015625)"/>
       </defs>
       <use xlink:href="#SimHei-31"/>
       <use xlink:href="#SimHei-30" x="50"/>
       <use xlink:href="#SimHei-30" x="100"/>
      </g>
     </g>
    </g>
    <g id="xtick_6">
     <g id="line2d_11">
      <path d="M 480.244019 384.48 
L 480.244019 51.84 
" clip-path="url(#p1431600684)" style="fill: none; stroke: #b0b0b0; stroke-width: 0.8; stroke-linecap: square"/>
     </g>
     <g id="line2d_12">
      <g>
       <use xlink:href="#mc5ca7465f9" x="480.244019" y="384.48" style="stroke: #000000; stroke-width: 0.8"/>
      </g>
     </g>
     <g id="text_6">
      <!-- 125 -->
      <g transform="translate(472.744019 398.355) scale(0.1 -0.1)">
       <use xlink:href="#SimHei-31"/>
       <use xlink:href="#SimHei-32" x="50"/>
       <use xlink:href="#SimHei-35" x="100"/>
      </g>
     </g>
    </g>
    <g id="xtick_7">
     <g id="line2d_13">
      <path d="M 554.406699 384.48 
L 554.406699 51.84 
" clip-path="url(#p1431600684)" style="fill: none; stroke: #b0b0b0; stroke-width: 0.8; stroke-linecap: square"/>
     </g>
     <g id="line2d_14">
      <g>
       <use xlink:href="#mc5ca7465f9" x="554.406699" y="384.48" style="stroke: #000000; stroke-width: 0.8"/>
      </g>
     </g>
     <g id="text_7">
      <!-- 150 -->
      <g transform="translate(546.906699 398.355) scale(0.1 -0.1)">
       <use xlink:href="#SimHei-31"/>
       <use xlink:href="#SimHei-35" x="50"/>
       <use xlink:href="#SimHei-30" x="100"/>
      </g>
     </g>
    </g>
    <g id="xtick_8">
     <g id="line2d_15">
      <path d="M 628.569378 384.48 
L 628.569378 51.84 
" clip-path="url(#p1431600684)" style="fill: none; stroke: #b0b0b0; stroke-width: 0.8; stroke-linecap: square"/>
     </g>
     <g id="line2d_16">
      <g>
       <use xlink:href="#mc5ca7465f9" x="628.569378" y="384.48" style="stroke: #000000; stroke-width: 0.8"/>
      </g>
     </g>
     <g id="text_8">
      <!-- 175 -->
      <g transform="translate(621.069378 398.355) scale(0.1 -0.1)">
       <use xlink:href="#SimHei-31"/>
       <use xlink:href="#SimHei-37" x="50"/>
       <use xlink:href="#SimHei-35" x="100"/>
      </g>
     </g>
    </g>
    <g id="text_9">
     <!-- 周数 -->
     <g transform="translate(359 411.339375) scale(0.1 -0.1)">
      <defs>
       <path id="SimHei-5468" d="M 5600 4925 
Q 5575 4400 5575 3800 
L 5575 50 
Q 5550 -375 5325 -462 
Q 5100 -550 4325 -600 
Q 4300 -400 4125 -75 
Q 4800 -100 4962 -37 
Q 5125 25 5100 225 
L 5100 4525 
L 1500 4525 
Q 1500 2575 1450 1887 
Q 1400 1200 1237 550 
Q 1075 -100 775 -625 
Q 625 -450 275 -225 
Q 650 225 825 1000 
Q 1000 1775 1025 2587 
Q 1050 3400 1000 4925 
L 5600 4925 
z
M 2050 325 
Q 2075 625 2075 950 
L 2075 1400 
Q 2075 1625 2050 1925 
L 4400 1925 
Q 4375 1725 4375 1450 
L 4375 875 
Q 4375 600 4400 325 
L 2050 325 
z
M 3000 3800 
Q 3000 4150 2975 4375 
L 3475 4375 
Q 3450 4075 3450 3800 
Q 4100 3800 4475 3825 
L 4475 3350 
Q 4125 3375 3450 3375 
L 3450 2800 
Q 4200 2800 4825 2825 
L 4825 2350 
Q 4175 2375 3725 2375 
L 2750 2375 
Q 2325 2375 1725 2350 
L 1725 2825 
Q 2325 2800 3000 2800 
L 3000 3375 
Q 2500 3375 1975 3350 
L 1975 3825 
Q 2475 3800 3000 3800 
z
M 3900 725 
L 3900 1525 
L 2550 1525 
L 2550 725 
L 3900 725 
z
" transform="scale(0.015625)"/>
       <path id="SimHei-6570" d="M 4525 4925 
Q 4475 4800 4400 4587 
Q 4325 4375 4175 3825 
L 5325 3825 
Q 5575 3825 5925 3850 
L 5925 3400 
Q 5650 3425 5500 3425 
Q 5500 3025 5362 2162 
Q 5225 1300 4875 675 
Q 5125 375 5437 137 
Q 5750 -100 6025 -200 
Q 5725 -425 5625 -625 
Q 5325 -450 5075 -225 
Q 4825 0 4575 325 
Q 4300 25 3987 -187 
Q 3675 -400 3200 -650 
Q 3075 -425 2850 -300 
Q 3225 -150 3650 125 
Q 4075 400 4300 675 
Q 4125 1025 3962 1425 
Q 3800 1825 3675 2475 
Q 3600 2275 3425 1950 
Q 3250 2050 3000 2150 
Q 3400 2850 3650 3675 
Q 3900 4500 3975 5100 
Q 4275 4975 4525 4925 
z
M 2100 2250 
Q 2000 2150 1875 1925 
L 3250 1925 
Q 3100 1300 2725 675 
Q 3125 525 3350 400 
Q 3225 225 3125 25 
Q 2900 175 2450 325 
Q 1950 -225 725 -650 
Q 600 -375 400 -275 
Q 1575 0 2000 475 
Q 1300 650 850 775 
Q 1000 1000 1250 1525 
Q 1000 1525 425 1500 
L 425 1950 
Q 900 1925 1400 1925 
Q 1500 2150 1550 2425 
Q 1825 2325 2100 2250 
z
M 1775 3950 
Q 1775 4550 1750 5100 
L 2250 5100 
Q 2225 4575 2225 3950 
Q 3075 3950 3425 3975 
L 3425 3525 
Q 3075 3550 2225 3550 
Q 2225 2825 2250 2425 
L 1750 2425 
Q 1775 2775 1775 3300 
Q 1650 3100 1300 2787 
Q 950 2475 650 2300 
Q 525 2525 275 2625 
Q 500 2700 875 2975 
Q 1250 3250 1450 3550 
Q 950 3550 500 3525 
L 500 3975 
Q 925 3950 1775 3950 
z
M 3975 3175 
Q 4200 1700 4600 1125 
Q 4850 1700 4937 2287 
Q 5025 2875 5050 3425 
L 4075 3425 
L 3975 3175 
z
M 1450 1000 
Q 1750 925 2275 800 
Q 2475 1050 2650 1525 
L 1725 1525 
Q 1600 1275 1450 1000 
z
M 3325 4825 
Q 3200 4625 3125 4450 
Q 3050 4275 2925 4025 
Q 2725 4125 2525 4175 
Q 2725 4500 2900 5000 
Q 3150 4875 3325 4825 
z
M 2575 3375 
Q 2900 3050 3200 2725 
Q 3050 2600 2875 2425 
Q 2525 2850 2300 3100 
Q 2450 3225 2575 3375 
z
M 925 5000 
Q 1275 4650 1500 4300 
L 1125 4075 
Q 950 4425 600 4725 
Q 825 4875 925 5000 
z
" transform="scale(0.015625)"/>
      </defs>
      <use xlink:href="#SimHei-5468"/>
      <use xlink:href="#SimHei-6570" x="100"/>
     </g>
    </g>
   </g>
   <g id="matplotlib.axis_2">
    <g id="ytick_1">
     <g id="line2d_17">
      <path d="M 90 340.219749 
L 648 340.219749 
" clip-path="url(#p1431600684)" style="fill: none; stroke: #b0b0b0; stroke-width: 0.8; stroke-linecap: square"/>
     </g>
     <g id="line2d_18">
      <defs>
       <path id="mf63bedea98" d="M 0 0 
L -3.5 0 
" style="stroke: #000000; stroke-width: 0.8"/>
      </defs>
      <g>
       <use xlink:href="#mf63bedea98" x="90" y="340.219749" style="stroke: #000000; stroke-width: 0.8"/>
      </g>
     </g>
     <g id="text_10">
      <!-- 2325 -->
      <g transform="translate(63 343.657249) scale(0.1 -0.1)">
       <defs>
        <path id="SimHei-33" d="M 250 1225 
L 700 1300 
Q 800 975 1025 762 
Q 1250 550 1587 562 
Q 1925 575 2125 837 
Q 2325 1100 2300 1437 
Q 2275 1775 2037 1962 
Q 1800 2150 1275 2225 
L 1275 2550 
Q 1800 2600 2037 2825 
Q 2275 3050 2250 3412 
Q 2225 3775 1925 3937 
Q 1625 4100 1287 3975 
Q 950 3850 750 3275 
L 300 3350 
Q 450 3800 712 4100 
Q 975 4400 1425 4450 
Q 1875 4500 2212 4337 
Q 2550 4175 2687 3837 
Q 2825 3500 2725 3100 
Q 2625 2700 2150 2400 
Q 2500 2250 2687 1950 
Q 2875 1650 2812 1162 
Q 2750 675 2375 375 
Q 2000 75 1525 87 
Q 1050 100 700 387 
Q 350 675 250 1225 
z
" transform="scale(0.015625)"/>
       </defs>
       <use xlink:href="#SimHei-32"/>
       <use xlink:href="#SimHei-33" x="50"/>
       <use xlink:href="#SimHei-32" x="100"/>
       <use xlink:href="#SimHei-35" x="150"/>
      </g>
     </g>
    </g>
    <g id="ytick_2">
     <g id="line2d_19">
      <path d="M 90 295.189799 
L 648 295.189799 
" clip-path="url(#p1431600684)" style="fill: none; stroke: #b0b0b0; stroke-width: 0.8; stroke-linecap: square"/>
     </g>
     <g id="line2d_20">
      <g>
       <use xlink:href="#mf63bedea98" x="90" y="295.189799" style="stroke: #000000; stroke-width: 0.8"/>
      </g>
     </g>
     <g id="text_11">
      <!-- 2350 -->
      <g transform="translate(63 298.627299) scale(0.1 -0.1)">
       <use xlink:href="#SimHei-32"/>
       <use xlink:href="#SimHei-33" x="50"/>
       <use xlink:href="#SimHei-35" x="100"/>
       <use xlink:href="#SimHei-30" x="150"/>
      </g>
     </g>
    </g>
    <g id="ytick_3">
     <g id="line2d_21">
      <path d="M 90 250.159849 
L 648 250.159849 
" clip-path="url(#p1431600684)" style="fill: none; stroke: #b0b0b0; stroke-width: 0.8; stroke-linecap: square"/>
     </g>
     <g id="line2d_22">
      <g>
       <use xlink:href="#mf63bedea98" x="90" y="250.159849" style="stroke: #000000; stroke-width: 0.8"/>
      </g>
     </g>
     <g id="text_12">
      <!-- 2375 -->
      <g transform="translate(63 253.597349) scale(0.1 -0.1)">
       <use xlink:href="#SimHei-32"/>
       <use xlink:href="#SimHei-33" x="50"/>
       <use xlink:href="#SimHei-37" x="100"/>
       <use xlink:href="#SimHei-35" x="150"/>
      </g>
     </g>
    </g>
    <g id="ytick_4">
     <g id="line2d_23">
      <path d="M 90 205.129899 
L 648 205.129899 
" clip-path="url(#p1431600684)" style="fill: none; stroke: #b0b0b0; stroke-width: 0.8; stroke-linecap: square"/>
     </g>
     <g id="line2d_24">
      <g>
       <use xlink:href="#mf63bedea98" x="90" y="205.129899" style="stroke: #000000; stroke-width: 0.8"/>
      </g>
     </g>
     <g id="text_13">
      <!-- 2400 -->
      <g transform="translate(63 208.567399) scale(0.1 -0.1)">
       <defs>
        <path id="SimHei-34" d="M 2000 1100 
L 75 1100 
L 75 1525 
L 2100 4450 
L 2475 4450 
L 2475 1525 
L 3075 1525 
L 3075 1100 
L 2475 1100 
L 2475 150 
L 2000 150 
L 2000 1100 
z
M 2000 1525 
L 2000 3500 
L 600 1525 
L 2000 1525 
z
" transform="scale(0.015625)"/>
       </defs>
       <use xlink:href="#SimHei-32"/>
       <use xlink:href="#SimHei-34" x="50"/>
       <use xlink:href="#SimHei-30" x="100"/>
       <use xlink:href="#SimHei-30" x="150"/>
      </g>
     </g>
    </g>
    <g id="ytick_5">
     <g id="line2d_25">
      <path d="M 90 160.099949 
L 648 160.099949 
" clip-path="url(#p1431600684)" style="fill: none; stroke: #b0b0b0; stroke-width: 0.8; stroke-linecap: square"/>
     </g>
     <g id="line2d_26">
      <g>
       <use xlink:href="#mf63bedea98" x="90" y="160.099949" style="stroke: #000000; stroke-width: 0.8"/>
      </g>
     </g>
     <g id="text_14">
      <!-- 2425 -->
      <g transform="translate(63 163.537449) scale(0.1 -0.1)">
       <use xlink:href="#SimHei-32"/>
       <use xlink:href="#SimHei-34" x="50"/>
       <use xlink:href="#SimHei-32" x="100"/>
       <use xlink:href="#SimHei-35" x="150"/>
      </g>
     </g>
    </g>
    <g id="ytick_6">
     <g id="line2d_27">
      <path d="M 90 115.069999 
L 648 115.069999 
" clip-path="url(#p1431600684)" style="fill: none; stroke: #b0b0b0; stroke-width: 0.8; stroke-linecap: square"/>
     </g>
     <g id="line2d_28">
      <g>
       <use xlink:href="#mf63bedea98" x="90" y="115.069999" style="stroke: #000000; stroke-width: 0.8"/>
      </g>
     </g>
     <g id="text_15">
      <!-- 2450 -->
      <g transform="translate(63 118.507499) scale(0.1 -0.1)">
       <use xlink:href="#SimHei-32"/>
       <use xlink:href="#SimHei-34" x="50"/>
       <use xlink:href="#SimHei-35" x="100"/>
       <use xlink:href="#SimHei-30" x="150"/>
      </g>
     </g>
    </g>
    <g id="ytick_7">
     <g id="line2d_29">
      <path d="M 90 70.040049 
L 648 70.040049 
" clip-path="url(#p1431600684)" style="fill: none; stroke: #b0b0b0; stroke-width: 0.8; stroke-linecap: square"/>
     </g>
     <g id="line2d_30">
      <g>
       <use xlink:href="#mf63bedea98" x="90" y="70.040049" style="stroke: #000000; stroke-width: 0.8"/>
      </g>
     </g>
     <g id="text_16">
      <!-- 2475 -->
      <g transform="translate(63 73.477549) scale(0.1 -0.1)">
       <use xlink:href="#SimHei-32"/>
       <use xlink:href="#SimHei-34" x="50"/>
       <use xlink:href="#SimHei-37" x="100"/>
       <use xlink:href="#SimHei-35" x="150"/>
      </g>
     </g>
    </g>
    <g id="text_17">
     <!-- 平均价格 -->
     <g transform="translate(57.75 238.16) rotate(-90) scale(0.1 -0.1)">
      <defs>
       <path id="SimHei-5e73" d="M 4525 4825 
Q 4900 4825 5450 4850 
L 5450 4375 
Q 4925 4400 4525 4400 
L 3475 4400 
L 3475 2025 
L 5000 2025 
Q 5550 2025 6025 2050 
L 6025 1575 
Q 5550 1600 5000 1600 
L 3475 1600 
L 3475 450 
Q 3475 -100 3500 -600 
L 2925 -600 
Q 2950 -100 2950 450 
L 2950 1600 
L 1125 1600 
Q 775 1600 375 1575 
L 375 2050 
Q 775 2025 1175 2025 
L 2950 2025 
L 2950 4400 
L 1775 4400 
Q 1400 4400 875 4375 
L 875 4850 
Q 1400 4825 1750 4825 
L 4525 4825 
z
M 3925 2600 
Q 4500 3300 4900 4125 
Q 5150 3950 5400 3825 
Q 4775 2850 4350 2300 
Q 4150 2475 3925 2600 
z
M 1975 2350 
Q 1600 3100 1050 3725 
Q 1250 3875 1450 4050 
Q 2075 3300 2450 2725 
Q 2150 2500 1975 2350 
z
" transform="scale(0.015625)"/>
       <path id="SimHei-5747" d="M 5775 275 
Q 5775 -325 5362 -450 
Q 4950 -575 4425 -600 
Q 4375 -275 4250 25 
Q 4950 -25 5125 62 
Q 5300 150 5300 500 
L 5375 3700 
L 3550 3700 
Q 3425 3375 3262 3037 
Q 3100 2700 2925 2400 
Q 2675 2550 2475 2625 
Q 3150 3625 3500 5200 
Q 3800 5100 4075 5025 
Q 3975 4875 3875 4650 
Q 3775 4425 3675 4125 
L 5900 4125 
L 5775 275 
z
M 1250 3625 
L 1250 4375 
Q 1250 4775 1225 5100 
L 1775 5100 
Q 1750 4725 1750 4375 
L 1750 3625 
L 1900 3625 
Q 2200 3625 2525 3650 
L 2525 3150 
Q 2200 3175 1900 3175 
L 1750 3175 
L 1750 1100 
L 2500 1375 
Q 2475 1125 2525 900 
Q 1225 475 962 362 
Q 700 250 475 150 
Q 375 475 250 750 
Q 575 800 800 850 
Q 1025 900 1250 975 
L 1250 3175 
L 1125 3175 
Q 850 3175 400 3150 
L 400 3650 
Q 850 3625 1100 3625 
L 1250 3625 
z
M 4950 1625 
Q 4675 1425 4137 1050 
Q 3600 675 3175 300 
Q 3000 575 2850 775 
Q 3350 1050 3762 1325 
Q 4175 1600 4775 2075 
Q 4825 1850 4950 1625 
z
M 3775 3150 
Q 4125 2800 4475 2300 
Q 4250 2125 4100 1975 
Q 3900 2325 3450 2825 
Q 3600 3000 3775 3150 
z
" transform="scale(0.015625)"/>
       <path id="SimHei-4ef7" d="M 2200 4975 
Q 2050 4725 1650 3775 
L 1650 450 
Q 1650 -225 1675 -650 
L 1175 -650 
Q 1175 -225 1200 450 
L 1200 2975 
Q 900 2425 650 2100 
Q 525 2275 225 2450 
Q 750 3025 1125 3800 
Q 1500 4575 1625 5175 
Q 1950 5025 2200 4975 
z
M 4175 4700 
Q 4850 3525 6150 2950 
Q 5925 2750 5775 2500 
Q 4725 3100 3950 4300 
Q 3300 3125 2250 2350 
Q 2125 2525 1900 2725 
Q 2825 3325 3250 4050 
Q 3675 4775 3750 5150 
Q 4150 4950 4325 4900 
L 4175 4700 
z
M 3475 2650 
Q 3400 2075 3325 1087 
Q 3250 100 2325 -675 
Q 2175 -450 1925 -300 
Q 2850 350 2912 1262 
Q 2975 2175 2950 2700 
Q 3275 2650 3475 2650 
z
M 5075 2700 
Q 5050 2150 5050 1725 
L 5050 150 
Q 5050 -225 5075 -650 
L 4550 -650 
Q 4575 -225 4575 175 
L 4575 1875 
Q 4575 2150 4550 2700 
L 5075 2700 
z
" transform="scale(0.015625)"/>
       <path id="SimHei-683c" d="M 4075 4875 
Q 3975 4750 3750 4350 
L 5625 4350 
Q 5450 3850 5212 3437 
Q 4975 3025 4650 2650 
Q 4950 2450 5412 2287 
Q 5875 2125 6150 2100 
Q 5975 1900 5875 1600 
Q 5550 1725 5125 1912 
Q 4700 2100 4300 2400 
Q 3925 2125 3537 1937 
Q 3150 1750 2575 1550 
Q 2475 1775 2300 1925 
Q 2825 2050 3262 2250 
Q 3700 2450 3975 2675 
Q 3625 3050 3325 3575 
Q 3175 3350 2875 2950 
Q 2700 3100 2475 3200 
Q 2825 3550 3112 4075 
Q 3400 4600 3550 5100 
Q 3775 4950 4075 4875 
z
M 5575 1650 
Q 5550 1350 5550 575 
Q 5550 -200 5575 -575 
L 5050 -575 
L 5050 -175 
L 3500 -175 
L 3500 -600 
L 2975 -600 
Q 3000 -200 3000 550 
Q 3000 1325 2975 1650 
L 5575 1650 
z
M 1850 5100 
Q 1825 4775 1825 4475 
L 1825 3825 
Q 2300 3825 2525 3850 
L 2525 3400 
Q 2300 3425 1825 3425 
L 1825 2725 
Q 1950 2800 2125 2950 
Q 2350 2600 2550 2200 
Q 2350 2075 2175 1950 
Q 1975 2375 1825 2625 
L 1825 275 
Q 1825 -275 1850 -625 
L 1350 -625 
Q 1375 -275 1375 275 
L 1375 2425 
Q 1150 1850 625 850 
Q 475 1025 250 1150 
Q 650 1775 900 2375 
Q 1150 2975 1250 3425 
Q 900 3425 475 3400 
L 475 3850 
Q 925 3825 1375 3825 
L 1375 4475 
Q 1375 4750 1350 5100 
L 1850 5100 
z
M 5050 200 
L 5050 1275 
L 3500 1275 
L 3500 200 
L 5050 200 
z
M 4300 2925 
Q 4675 3300 4975 3975 
L 3550 3975 
Q 3850 3350 4300 2925 
z
" transform="scale(0.015625)"/>
      </defs>
      <use xlink:href="#SimHei-5e73"/>
      <use xlink:href="#SimHei-5747" x="100"/>
      <use xlink:href="#SimHei-4ef7" x="200"/>
      <use xlink:href="#SimHei-683c" x="300"/>
     </g>
    </g>
   </g>
   <g id="line2d_31">
    <path d="M 115.363636 284.26153 
L 118.330144 284.26153 
L 121.296651 284.26153 
L 133.162679 284.26153 
L 139.095694 285.816364 
L 142.062201 208.602608 
L 145.028708 208.602608 
L 147.995215 207.098522 
L 153.92823 204.09035 
L 156.894737 204.09035 
L 165.794258 197.384747 
L 180.626794 260.493322 
L 183.593301 241.161064 
L 186.559809 266.937408 
L 189.526316 208.269987 
L 192.492823 211.689261 
L 195.45933 291.438161 
L 198.425837 207.321818 
L 201.392344 207.015153 
L 207.325359 187.964482 
L 210.291866 187.964482 
L 213.258373 187.964482 
L 216.22488 187.964482 
L 219.191388 203.630918 
L 222.157895 197.178784 
L 225.124402 211.000238 
L 228.090909 187.964482 
L 231.057416 250.540386 
L 234.023923 261.604528 
L 236.990431 290.567682 
L 239.956938 294.429436 
L 242.923445 294.429436 
L 245.889952 294.429436 
L 248.856459 310.011446 
L 251.822967 369.36 
L 254.789474 369.36 
L 257.755981 361.131106 
L 260.722488 369.36 
L 263.688995 369.36 
L 266.655502 369.35953 
L 269.62201 369.35953 
L 272.588517 369.35953 
L 284.454545 369.35953 
L 290.38756 369.35953 
L 296.320574 328.917231 
L 299.287081 328.917231 
L 302.253589 328.917231 
L 305.220096 333.414504 
L 308.186603 297.469007 
L 311.15311 297.469007 
L 314.119617 301.819578 
L 320.052632 299.723414 
L 323.019139 237.665539 
L 328.952153 281.563692 
L 331.91866 230.032962 
L 334.885167 227.14254 
L 337.851675 295.774588 
L 343.784689 295.774588 
L 346.751196 320.829852 
L 355.650718 320.829852 
L 358.617225 320.829852 
L 367.516746 286.431474 
L 370.483254 282.524837 
L 373.449761 271.625326 
L 376.416268 267.172134 
L 379.382775 271.625326 
L 385.315789 242.702889 
L 400.148325 242.702889 
L 403.114833 242.702889 
L 406.08134 260.360633 
L 409.047847 261.153706 
L 412.014354 254.748137 
L 426.84689 237.929714 
L 429.813397 237.929714 
L 432.779904 242.702889 
L 435.746411 241.129843 
L 444.645933 258.352739 
L 450.578947 248.415972 
L 462.444976 232.70624 
L 468.37799 238.270259 
L 471.344498 232.709242 
L 477.277512 232.712244 
L 480.244019 238.270259 
L 483.210526 222.661559 
L 512.875598 215.447761 
L 524.741627 221.455223 
L 530.674641 215.447761 
L 533.641148 215.447761 
L 545.507177 213.231022 
L 551.440191 213.23529 
L 554.406699 215.447761 
L 557.373206 215.447761 
L 560.339713 202.267195 
L 566.272727 143.781095 
L 569.239234 196.783147 
L 592.971292 143.781095 
L 598.904306 80.883261 
L 601.870813 66.96 
L 604.837321 101.092702 
L 607.803828 76.020026 
L 610.770335 78.667787 
L 622.636364 123.427557 
" clip-path="url(#p1431600684)" style="fill: none; stroke: #ff0000; stroke-width: 1.5; stroke-linecap: square"/>
    <defs>
     <path id="m81f90e9c4a" d="M 0 3 
C 0.795609 3 1.55874 2.683901 2.12132 2.12132 
C 2.683901 1.55874 3 0.795609 3 0 
C 3 -0.795609 2.683901 -1.55874 2.12132 -2.12132 
C 1.55874 -2.683901 0.795609 -3 0 -3 
C -0.795609 -3 -1.55874 -2.683901 -2.12132 -2.12132 
C -2.683901 -1.55874 -3 -0.795609 -3 0 
C -3 0.795609 -2.683901 1.55874 -2.12132 2.12132 
C -1.55874 2.683901 -0.795609 3 0 3 
z
" style="stroke: #ff0000"/>
    </defs>
    <g clip-path="url(#p1431600684)">
     <use xlink:href="#m81f90e9c4a" x="115.363636" y="284.26153" style="fill: #ff0000; stroke: #ff0000"/>
     <use xlink:href="#m81f90e9c4a" x="118.330144" y="284.26153" style="fill: #ff0000; stroke: #ff0000"/>
     <use xlink:href="#m81f90e9c4a" x="121.296651" y="284.26153" style="fill: #ff0000; stroke: #ff0000"/>
     <use xlink:href="#m81f90e9c4a" x="133.162679" y="284.26153" style="fill: #ff0000; stroke: #ff0000"/>
     <use xlink:href="#m81f90e9c4a" x="139.095694" y="285.816364" style="fill: #ff0000; stroke: #ff0000"/>
     <use xlink:href="#m81f90e9c4a" x="142.062201" y="208.602608" style="fill: #ff0000; stroke: #ff0000"/>
     <use xlink:href="#m81f90e9c4a" x="145.028708" y="208.602608" style="fill: #ff0000; stroke: #ff0000"/>
     <use xlink:href="#m81f90e9c4a" x="147.995215" y="207.098522" style="fill: #ff0000; stroke: #ff0000"/>
     <use xlink:href="#m81f90e9c4a" x="153.92823" y="204.09035" style="fill: #ff0000; stroke: #ff0000"/>
     <use xlink:href="#m81f90e9c4a" x="156.894737" y="204.09035" style="fill: #ff0000; stroke: #ff0000"/>
     <use xlink:href="#m81f90e9c4a" x="165.794258" y="197.384747" style="fill: #ff0000; stroke: #ff0000"/>
     <use xlink:href="#m81f90e9c4a" x="180.626794" y="260.493322" style="fill: #ff0000; stroke: #ff0000"/>
     <use xlink:href="#m81f90e9c4a" x="183.593301" y="241.161064" style="fill: #ff0000; stroke: #ff0000"/>
     <use xlink:href="#m81f90e9c4a" x="186.559809" y="266.937408" style="fill: #ff0000; stroke: #ff0000"/>
     <use xlink:href="#m81f90e9c4a" x="189.526316" y="208.269987" style="fill: #ff0000; stroke: #ff0000"/>
     <use xlink:href="#m81f90e9c4a" x="192.492823" y="211.689261" style="fill: #ff0000; stroke: #ff0000"/>
     <use xlink:href="#m81f90e9c4a" x="195.45933" y="291.438161" style="fill: #ff0000; stroke: #ff0000"/>
     <use xlink:href="#m81f90e9c4a" x="198.425837" y="207.321818" style="fill: #ff0000; stroke: #ff0000"/>
     <use xlink:href="#m81f90e9c4a" x="201.392344" y="207.015153" style="fill: #ff0000; stroke: #ff0000"/>
     <use xlink:href="#m81f90e9c4a" x="207.325359" y="187.964482" style="fill: #ff0000; stroke: #ff0000"/>
     <use xlink:href="#m81f90e9c4a" x="210.291866" y="187.964482" style="fill: #ff0000; stroke: #ff0000"/>
     <use xlink:href="#m81f90e9c4a" x="213.258373" y="187.964482" style="fill: #ff0000; stroke: #ff0000"/>
     <use xlink:href="#m81f90e9c4a" x="216.22488" y="187.964482" style="fill: #ff0000; stroke: #ff0000"/>
     <use xlink:href="#m81f90e9c4a" x="219.191388" y="203.630918" style="fill: #ff0000; stroke: #ff0000"/>
     <use xlink:href="#m81f90e9c4a" x="222.157895" y="197.178784" style="fill: #ff0000; stroke: #ff0000"/>
     <use xlink:href="#m81f90e9c4a" x="225.124402" y="211.000238" style="fill: #ff0000; stroke: #ff0000"/>
     <use xlink:href="#m81f90e9c4a" x="228.090909" y="187.964482" style="fill: #ff0000; stroke: #ff0000"/>
     <use xlink:href="#m81f90e9c4a" x="231.057416" y="250.540386" style="fill: #ff0000; stroke: #ff0000"/>
     <use xlink:href="#m81f90e9c4a" x="234.023923" y="261.604528" style="fill: #ff0000; stroke: #ff0000"/>
     <use xlink:href="#m81f90e9c4a" x="236.990431" y="290.567682" style="fill: #ff0000; stroke: #ff0000"/>
     <use xlink:href="#m81f90e9c4a" x="239.956938" y="294.429436" style="fill: #ff0000; stroke: #ff0000"/>
     <use xlink:href="#m81f90e9c4a" x="242.923445" y="294.429436" style="fill: #ff0000; stroke: #ff0000"/>
     <use xlink:href="#m81f90e9c4a" x="245.889952" y="294.429436" style="fill: #ff0000; stroke: #ff0000"/>
     <use xlink:href="#m81f90e9c4a" x="248.856459" y="310.011446" style="fill: #ff0000; stroke: #ff0000"/>
     <use xlink:href="#m81f90e9c4a" x="251.822967" y="369.36" style="fill: #ff0000; stroke: #ff0000"/>
     <use xlink:href="#m81f90e9c4a" x="254.789474" y="369.36" style="fill: #ff0000; stroke: #ff0000"/>
     <use xlink:href="#m81f90e9c4a" x="257.755981" y="361.131106" style="fill: #ff0000; stroke: #ff0000"/>
     <use xlink:href="#m81f90e9c4a" x="260.722488" y="369.36" style="fill: #ff0000; stroke: #ff0000"/>
     <use xlink:href="#m81f90e9c4a" x="263.688995" y="369.36" style="fill: #ff0000; stroke: #ff0000"/>
     <use xlink:href="#m81f90e9c4a" x="266.655502" y="369.35953" style="fill: #ff0000; stroke: #ff0000"/>
     <use xlink:href="#m81f90e9c4a" x="269.62201" y="369.35953" style="fill: #ff0000; stroke: #ff0000"/>
     <use xlink:href="#m81f90e9c4a" x="272.588517" y="369.35953" style="fill: #ff0000; stroke: #ff0000"/>
     <use xlink:href="#m81f90e9c4a" x="284.454545" y="369.35953" style="fill: #ff0000; stroke: #ff0000"/>
     <use xlink:href="#m81f90e9c4a" x="290.38756" y="369.35953" style="fill: #ff0000; stroke: #ff0000"/>
     <use xlink:href="#m81f90e9c4a" x="296.320574" y="328.917231" style="fill: #ff0000; stroke: #ff0000"/>
     <use xlink:href="#m81f90e9c4a" x="299.287081" y="328.917231" style="fill: #ff0000; stroke: #ff0000"/>
     <use xlink:href="#m81f90e9c4a" x="302.253589" y="328.917231" style="fill: #ff0000; stroke: #ff0000"/>
     <use xlink:href="#m81f90e9c4a" x="305.220096" y="333.414504" style="fill: #ff0000; stroke: #ff0000"/>
     <use xlink:href="#m81f90e9c4a" x="308.186603" y="297.469007" style="fill: #ff0000; stroke: #ff0000"/>
     <use xlink:href="#m81f90e9c4a" x="311.15311" y="297.469007" style="fill: #ff0000; stroke: #ff0000"/>
     <use xlink:href="#m81f90e9c4a" x="314.119617" y="301.819578" style="fill: #ff0000; stroke: #ff0000"/>
     <use xlink:href="#m81f90e9c4a" x="320.052632" y="299.723414" style="fill: #ff0000; stroke: #ff0000"/>
     <use xlink:href="#m81f90e9c4a" x="323.019139" y="237.665539" style="fill: #ff0000; stroke: #ff0000"/>
     <use xlink:href="#m81f90e9c4a" x="328.952153" y="281.563692" style="fill: #ff0000; stroke: #ff0000"/>
     <use xlink:href="#m81f90e9c4a" x="331.91866" y="230.032962" style="fill: #ff0000; stroke: #ff0000"/>
     <use xlink:href="#m81f90e9c4a" x="334.885167" y="227.14254" style="fill: #ff0000; stroke: #ff0000"/>
     <use xlink:href="#m81f90e9c4a" x="337.851675" y="295.774588" style="fill: #ff0000; stroke: #ff0000"/>
     <use xlink:href="#m81f90e9c4a" x="343.784689" y="295.774588" style="fill: #ff0000; stroke: #ff0000"/>
     <use xlink:href="#m81f90e9c4a" x="346.751196" y="320.829852" style="fill: #ff0000; stroke: #ff0000"/>
     <use xlink:href="#m81f90e9c4a" x="355.650718" y="320.829852" style="fill: #ff0000; stroke: #ff0000"/>
     <use xlink:href="#m81f90e9c4a" x="358.617225" y="320.829852" style="fill: #ff0000; stroke: #ff0000"/>
     <use xlink:href="#m81f90e9c4a" x="367.516746" y="286.431474" style="fill: #ff0000; stroke: #ff0000"/>
     <use xlink:href="#m81f90e9c4a" x="370.483254" y="282.524837" style="fill: #ff0000; stroke: #ff0000"/>
     <use xlink:href="#m81f90e9c4a" x="373.449761" y="271.625326" style="fill: #ff0000; stroke: #ff0000"/>
     <use xlink:href="#m81f90e9c4a" x="376.416268" y="267.172134" style="fill: #ff0000; stroke: #ff0000"/>
     <use xlink:href="#m81f90e9c4a" x="379.382775" y="271.625326" style="fill: #ff0000; stroke: #ff0000"/>
     <use xlink:href="#m81f90e9c4a" x="385.315789" y="242.702889" style="fill: #ff0000; stroke: #ff0000"/>
     <use xlink:href="#m81f90e9c4a" x="400.148325" y="242.702889" style="fill: #ff0000; stroke: #ff0000"/>
     <use xlink:href="#m81f90e9c4a" x="403.114833" y="242.702889" style="fill: #ff0000; stroke: #ff0000"/>
     <use xlink:href="#m81f90e9c4a" x="406.08134" y="260.360633" style="fill: #ff0000; stroke: #ff0000"/>
     <use xlink:href="#m81f90e9c4a" x="409.047847" y="261.153706" style="fill: #ff0000; stroke: #ff0000"/>
     <use xlink:href="#m81f90e9c4a" x="412.014354" y="254.748137" style="fill: #ff0000; stroke: #ff0000"/>
     <use xlink:href="#m81f90e9c4a" x="426.84689" y="237.929714" style="fill: #ff0000; stroke: #ff0000"/>
     <use xlink:href="#m81f90e9c4a" x="429.813397" y="237.929714" style="fill: #ff0000; stroke: #ff0000"/>
     <use xlink:href="#m81f90e9c4a" x="432.779904" y="242.702889" style="fill: #ff0000; stroke: #ff0000"/>
     <use xlink:href="#m81f90e9c4a" x="435.746411" y="241.129843" style="fill: #ff0000; stroke: #ff0000"/>
     <use xlink:href="#m81f90e9c4a" x="444.645933" y="258.352739" style="fill: #ff0000; stroke: #ff0000"/>
     <use xlink:href="#m81f90e9c4a" x="450.578947" y="248.415972" style="fill: #ff0000; stroke: #ff0000"/>
     <use xlink:href="#m81f90e9c4a" x="462.444976" y="232.70624" style="fill: #ff0000; stroke: #ff0000"/>
     <use xlink:href="#m81f90e9c4a" x="468.37799" y="238.270259" style="fill: #ff0000; stroke: #ff0000"/>
     <use xlink:href="#m81f90e9c4a" x="471.344498" y="232.709242" style="fill: #ff0000; stroke: #ff0000"/>
     <use xlink:href="#m81f90e9c4a" x="477.277512" y="232.712244" style="fill: #ff0000; stroke: #ff0000"/>
     <use xlink:href="#m81f90e9c4a" x="480.244019" y="238.270259" style="fill: #ff0000; stroke: #ff0000"/>
     <use xlink:href="#m81f90e9c4a" x="483.210526" y="222.661559" style="fill: #ff0000; stroke: #ff0000"/>
     <use xlink:href="#m81f90e9c4a" x="512.875598" y="215.447761" style="fill: #ff0000; stroke: #ff0000"/>
     <use xlink:href="#m81f90e9c4a" x="524.741627" y="221.455223" style="fill: #ff0000; stroke: #ff0000"/>
     <use xlink:href="#m81f90e9c4a" x="530.674641" y="215.447761" style="fill: #ff0000; stroke: #ff0000"/>
     <use xlink:href="#m81f90e9c4a" x="533.641148" y="215.447761" style="fill: #ff0000; stroke: #ff0000"/>
     <use xlink:href="#m81f90e9c4a" x="545.507177" y="213.231022" style="fill: #ff0000; stroke: #ff0000"/>
     <use xlink:href="#m81f90e9c4a" x="551.440191" y="213.23529" style="fill: #ff0000; stroke: #ff0000"/>
     <use xlink:href="#m81f90e9c4a" x="554.406699" y="215.447761" style="fill: #ff0000; stroke: #ff0000"/>
     <use xlink:href="#m81f90e9c4a" x="557.373206" y="215.447761" style="fill: #ff0000; stroke: #ff0000"/>
     <use xlink:href="#m81f90e9c4a" x="560.339713" y="202.267195" style="fill: #ff0000; stroke: #ff0000"/>
     <use xlink:href="#m81f90e9c4a" x="566.272727" y="143.781095" style="fill: #ff0000; stroke: #ff0000"/>
     <use xlink:href="#m81f90e9c4a" x="569.239234" y="196.783147" style="fill: #ff0000; stroke: #ff0000"/>
     <use xlink:href="#m81f90e9c4a" x="592.971292" y="143.781095" style="fill: #ff0000; stroke: #ff0000"/>
     <use xlink:href="#m81f90e9c4a" x="598.904306" y="80.883261" style="fill: #ff0000; stroke: #ff0000"/>
     <use xlink:href="#m81f90e9c4a" x="601.870813" y="66.96" style="fill: #ff0000; stroke: #ff0000"/>
     <use xlink:href="#m81f90e9c4a" x="604.837321" y="101.092702" style="fill: #ff0000; stroke: #ff0000"/>
     <use xlink:href="#m81f90e9c4a" x="607.803828" y="76.020026" style="fill: #ff0000; stroke: #ff0000"/>
     <use xlink:href="#m81f90e9c4a" x="610.770335" y="78.667787" style="fill: #ff0000; stroke: #ff0000"/>
     <use xlink:href="#m81f90e9c4a" x="622.636364" y="123.427557" style="fill: #ff0000; stroke: #ff0000"/>
    </g>
   </g>
   <g id="patch_3">
    <path d="M 90 384.48 
L 90 51.84 
" style="fill: none; stroke: #000000; stroke-width: 0.8; stroke-linejoin: miter; stroke-linecap: square"/>
   </g>
   <g id="patch_4">
    <path d="M 648 384.48 
L 648 51.84 
" style="fill: none; stroke: #000000; stroke-width: 0.8; stroke-linejoin: miter; stroke-linecap: square"/>
   </g>
   <g id="patch_5">
    <path d="M 90 384.48 
L 648 384.48 
" style="fill: none; stroke: #000000; stroke-width: 0.8; stroke-linejoin: miter; stroke-linecap: square"/>
   </g>
   <g id="patch_6">
    <path d="M 90 51.84 
L 648 51.84 
" style="fill: none; stroke: #000000; stroke-width: 0.8; stroke-linejoin: miter; stroke-linecap: square"/>
   </g>
   <g id="text_18">
    <!-- 6004020922 每周平均价格 -->
    <g transform="translate(300 45.84) scale(0.12 -0.12)">
     <defs>
      <path id="SimHei-36" d="M 250 1612 
Q 275 1975 387 2225 
Q 500 2475 725 2850 
L 1750 4450 
L 2325 4450 
L 1275 2800 
Q 1950 2975 2350 2750 
Q 2750 2525 2887 2237 
Q 3025 1950 3037 1612 
Q 3050 1275 2937 950 
Q 2825 625 2537 362 
Q 2250 100 1737 75 
Q 1225 50 862 262 
Q 500 475 362 862 
Q 225 1250 250 1612 
z
M 1025 787 
Q 1250 550 1625 525 
Q 2000 500 2250 775 
Q 2500 1050 2500 1575 
Q 2500 2100 2187 2300 
Q 1875 2500 1487 2450 
Q 1100 2400 925 2075 
Q 750 1750 775 1387 
Q 800 1025 1025 787 
z
" transform="scale(0.015625)"/>
      <path id="SimHei-39" d="M 800 75 
Q 1350 1000 1700 1750 
Q 1075 1650 662 1912 
Q 250 2175 162 2625 
Q 75 3075 175 3437 
Q 275 3800 487 4037 
Q 700 4275 1000 4375 
Q 1300 4475 1537 4475 
Q 1775 4475 2025 4375 
Q 2275 4275 2475 4075 
Q 2675 3875 2750 3662 
Q 2825 3450 2825 3112 
Q 2825 2775 2575 2250 
Q 2325 1725 1350 75 
L 800 75 
z
M 662 2875 
Q 700 2550 937 2337 
Q 1175 2125 1450 2150 
Q 1725 2175 1887 2300 
Q 2050 2425 2200 2725 
Q 2300 3100 2250 3362 
Q 2200 3625 1987 3800 
Q 1775 3975 1525 3975 
Q 1375 4000 1137 3900 
Q 900 3800 762 3500 
Q 625 3200 662 2875 
z
" transform="scale(0.015625)"/>
      <path id="SimHei-20" transform="scale(0.015625)"/>
      <path id="SimHei-6bcf" d="M 5225 3650 
Q 5175 3150 5150 2675 
L 5125 2200 
Q 5525 2200 6000 2225 
L 6000 1775 
Q 5625 1800 5100 1800 
L 5050 650 
Q 5325 650 5700 675 
L 5700 225 
Q 5400 250 5025 250 
Q 5000 -275 4775 -425 
Q 4550 -575 4000 -650 
Q 3950 -400 3775 -125 
Q 4375 -125 4475 -50 
Q 4575 25 4575 250 
L 1400 250 
L 1500 1100 
L 1550 1800 
L 1275 1800 
Q 825 1800 550 1775 
L 550 2225 
Q 975 2200 1275 2200 
L 1575 2200 
L 1625 2825 
L 1675 3650 
L 5225 3650 
z
M 2350 5000 
Q 2175 4825 2050 4600 
L 4875 4600 
Q 5275 4600 5775 4625 
L 5775 4175 
Q 5275 4200 4875 4200 
L 1825 4200 
L 1375 3625 
Q 1125 3325 775 2975 
Q 600 3175 350 3300 
Q 725 3575 1150 4112 
Q 1575 4650 1825 5250 
Q 2125 5075 2350 5000 
z
M 1975 1800 
L 1875 650 
L 4625 650 
L 4675 1800 
L 2950 1800 
Q 3575 1275 3825 1125 
Q 3625 925 3475 725 
Q 3100 1100 2650 1475 
Q 2775 1675 2875 1800 
L 1975 1800 
z
M 2975 3250 
Q 3125 3150 3287 3012 
Q 3450 2875 3800 2550 
Q 3650 2350 3525 2200 
L 4700 2200 
L 4750 3250 
L 2975 3250 
z
M 2075 3250 
L 2000 2200 
L 3425 2200 
Q 3150 2500 3012 2625 
Q 2875 2750 2700 2900 
Q 2800 3050 2925 3250 
L 2075 3250 
z
" transform="scale(0.015625)"/>
     </defs>
     <use xlink:href="#SimHei-36"/>
     <use xlink:href="#SimHei-30" x="50"/>
     <use xlink:href="#SimHei-30" x="100"/>
     <use xlink:href="#SimHei-34" x="150"/>
     <use xlink:href="#SimHei-30" x="200"/>
     <use xlink:href="#SimHei-32" x="250"/>
     <use xlink:href="#SimHei-30" x="300"/>
     <use xlink:href="#SimHei-39" x="350"/>
     <use xlink:href="#SimHei-32" x="400"/>
     <use xlink:href="#SimHei-32" x="450"/>
     <use xlink:href="#SimHei-20" x="500"/>
     <use xlink:href="#SimHei-6bcf" x="550"/>
     <use xlink:href="#SimHei-5468" x="650"/>
     <use xlink:href="#SimHei-5e73" x="750"/>
     <use xlink:href="#SimHei-5747" x="850"/>
     <use xlink:href="#SimHei-4ef7" x="950"/>
     <use xlink:href="#SimHei-683c" x="1050"/>
    </g>
   </g>
  </g>
 </g>
 <defs>
  <clipPath id="p1431600684">
   <rect x="90" y="51.84" width="558" height="332.64"/>
  </clipPath>
 </defs>
</svg>
